<svg width="32" height="32" xmlns="http://www.w3.org/2000/svg"><g fill="#FFF" fill-rule="evenodd"><path fill-rule="nonzero" d="M17.722 8.123h-3.444v1.6h3.444zM21.757 15.064v10.352a.5.5 0 01-.498.499H10.74a.5.5 0 01-.498-.499v-8.734h-1.6v8.734a2.1 2.1 0 002.098 2.099h10.52a2.1 2.1 0 002.098-2.099V15.064h-1.6z"/><path d="M10.243 17.487V6.584a.5.5 0 01.498-.499H21.26a.5.5 0 01.498.499v9.053h1.6V6.584a2.1 2.1 0 00-2.098-2.099H10.741a2.1 2.1 0 00-2.098 2.099v10.903h1.6z" fill-rule="nonzero"/><path d="M17.218 23.036a1.218 1.218 0 10-2.435 0 1.218 1.218 0 002.435 0"/><path d="M4.798 15.847c.7 0 1.012.159 1.72.762.971.827 1.593 1.144 2.759 1.144 1.165 0 1.787-.317 2.758-1.144.71-.603 1.021-.762 1.723-.762.7 0 1.012.159 1.721.762.971.827 1.593 1.144 2.759 1.144s1.788-.317 2.76-1.144c.709-.603 1.02-.762 1.722-.762.701 0 1.013.159 1.722.762.972.827 1.594 1.144 2.76 1.144v-1.6c-.701 0-1.014-.16-1.723-.763-.971-.826-1.593-1.143-2.759-1.143s-1.787.317-2.759 1.143c-.71.604-1.022.763-1.723.763-.701 0-1.013-.16-1.722-.762-.971-.827-1.593-1.144-2.758-1.144-1.166 0-1.788.317-2.76 1.144-.708.603-1.02.762-1.721.762-.701 0-1.013-.16-1.721-.762-.972-.827-1.593-1.144-2.758-1.144v1.6z" fill-rule="nonzero"/></g></svg>