<?xml version="1.0" encoding="UTF-8"?>
<svg xmlns="http://www.w3.org/2000/svg" xmlns:xlink="http://www.w3.org/1999/xlink" width="32pt" height="32pt" viewBox="0 0 32 32" version="1.1">
<defs>
<clipPath id="clip1">
  <path d="M 14.277344 8.125 L 17.722656 8.125 L 17.722656 9.722656 L 14.277344 9.722656 Z M 14.277344 8.125 "/>
</clipPath>
<clipPath id="clip3">
  <path d="M 0.277344 0.125 L 3.722656 0.125 L 3.722656 1.722656 L 0.277344 1.722656 Z M 0.277344 0.125 "/>
</clipPath>
<clipPath id="clip2">
  <rect x="0" y="0" width="4" height="2"/>
</clipPath>
<g id="surface5" clip-path="url(#clip2)">
<g clip-path="url(#clip3)" clip-rule="nonzero">
<rect x="0" y="0" width="4" height="2" style="fill:rgb(100%,100%,100%);fill-opacity:1;stroke:none;"/>
</g>
</g>
<clipPath id="clip4">
  <path d="M 8 15 L 24 15 L 24 28 L 8 28 Z M 8 15 "/>
</clipPath>
<clipPath id="clip5">
  <path d="M 21.757812 15.0625 L 23.355469 15.0625 L 23.355469 25.417969 C 23.355469 26.574219 22.414062 27.515625 21.257812 27.515625 L 10.742188 27.515625 C 9.582031 27.515625 8.644531 26.574219 8.644531 25.417969 L 8.644531 16.683594 L 10.242188 16.683594 L 10.242188 25.417969 C 10.242188 25.691406 10.46875 25.914062 10.742188 25.914062 L 21.257812 25.914062 C 21.53125 25.914062 21.757812 25.691406 21.757812 25.417969 Z M 21.757812 15.0625 "/>
</clipPath>
<clipPath id="clip7">
  <path d="M 13.757812 0.0625 L 15.355469 0.0625 L 15.355469 10.417969 C 15.355469 11.574219 14.414062 12.515625 13.257812 12.515625 L 2.742188 12.515625 C 1.582031 12.515625 0.644531 11.574219 0.644531 10.417969 L 0.644531 1.683594 L 2.242188 1.683594 L 2.242188 10.417969 C 2.242188 10.691406 2.46875 10.914062 2.742188 10.914062 L 13.257812 10.914062 C 13.53125 10.914062 13.757812 10.691406 13.757812 10.417969 Z M 13.757812 0.0625 "/>
</clipPath>
<clipPath id="clip6">
  <rect x="0" y="0" width="16" height="13"/>
</clipPath>
<g id="surface8" clip-path="url(#clip6)">
<g clip-path="url(#clip7)" clip-rule="evenodd">
<rect x="0" y="0" width="16" height="13" style="fill:rgb(100%,100%,100%);fill-opacity:1;stroke:none;"/>
</g>
</g>
<clipPath id="clip8">
  <path d="M 8 4 L 24 4 L 24 18 L 8 18 Z M 8 4 "/>
</clipPath>
<clipPath id="clip9">
  <path d="M 10.242188 17.488281 L 8.644531 17.488281 L 8.644531 6.582031 C 8.644531 5.425781 9.582031 4.484375 10.742188 4.484375 L 21.257812 4.484375 C 22.417969 4.484375 23.359375 5.425781 23.359375 6.582031 L 23.359375 15.636719 L 21.757812 15.636719 L 21.757812 6.582031 C 21.757812 6.308594 21.53125 6.085938 21.257812 6.085938 L 10.742188 6.085938 C 10.46875 6.085938 10.242188 6.308594 10.242188 6.582031 Z M 10.242188 17.488281 "/>
</clipPath>
<clipPath id="clip11">
  <path d="M 2.242188 13.488281 L 0.644531 13.488281 L 0.644531 2.582031 C 0.644531 1.425781 1.582031 0.484375 2.742188 0.484375 L 13.257812 0.484375 C 14.417969 0.484375 15.359375 1.425781 15.359375 2.582031 L 15.359375 11.636719 L 13.757812 11.636719 L 13.757812 2.582031 C 13.757812 2.308594 13.53125 2.085938 13.257812 2.085938 L 2.742188 2.085938 C 2.46875 2.085938 2.242188 2.308594 2.242188 2.582031 Z M 2.242188 13.488281 "/>
</clipPath>
<clipPath id="clip10">
  <rect x="0" y="0" width="16" height="14"/>
</clipPath>
<g id="surface11" clip-path="url(#clip10)">
<g clip-path="url(#clip11)" clip-rule="evenodd">
<rect x="0" y="0" width="16" height="14" style="fill:rgb(100%,100%,100%);fill-opacity:1;stroke:none;"/>
</g>
</g>
<clipPath id="clip12">
  <path d="M 14 21 L 18 21 L 18 25 L 14 25 Z M 14 21 "/>
</clipPath>
<clipPath id="clip13">
  <path d="M 17.21875 23.035156 C 17.21875 23.707031 16.671875 24.253906 16 24.253906 C 15.328125 24.253906 14.78125 23.707031 14.78125 23.035156 C 14.78125 22.363281 15.328125 21.816406 16 21.816406 C 16.671875 21.816406 17.21875 22.363281 17.21875 23.035156 Z M 17.21875 23.035156 "/>
</clipPath>
<clipPath id="clip15">
  <path d="M 3.21875 2.035156 C 3.21875 2.707031 2.671875 3.253906 2 3.253906 C 1.328125 3.253906 0.78125 2.707031 0.78125 2.035156 C 0.78125 1.363281 1.328125 0.816406 2 0.816406 C 2.671875 0.816406 3.21875 1.363281 3.21875 2.035156 Z M 3.21875 2.035156 "/>
</clipPath>
<clipPath id="clip14">
  <rect x="0" y="0" width="4" height="4"/>
</clipPath>
<g id="surface14" clip-path="url(#clip14)">
<g clip-path="url(#clip15)" clip-rule="evenodd">
<rect x="0" y="0" width="4" height="4" style="fill:rgb(100%,100%,100%);fill-opacity:1;stroke:none;"/>
</g>
</g>
<clipPath id="clip16">
  <path d="M 4 14 L 28 14 L 28 18 L 4 18 Z M 4 14 "/>
</clipPath>
<clipPath id="clip17">
  <path d="M 4.796875 15.847656 L 4.796875 14.246094 C 5.964844 14.246094 6.585938 14.5625 7.554688 15.390625 C 8.265625 15.992188 8.574219 16.152344 9.277344 16.152344 C 9.976562 16.152344 10.289062 15.992188 11 15.390625 C 11.96875 14.5625 12.589844 14.246094 13.757812 14.246094 C 14.921875 14.246094 15.542969 14.5625 16.515625 15.390625 C 17.226562 15.992188 17.535156 16.152344 18.238281 16.152344 C 18.9375 16.152344 19.25 15.992188 19.960938 15.390625 C 20.933594 14.5625 21.554688 14.246094 22.71875 14.246094 C 23.886719 14.246094 24.507812 14.5625 25.480469 15.390625 C 26.1875 15.992188 26.5 16.152344 27.203125 16.152344 L 27.203125 17.753906 C 26.035156 17.753906 25.414062 17.4375 24.441406 16.609375 C 23.734375 16.007812 23.421875 15.847656 22.71875 15.847656 C 22.019531 15.847656 21.707031 16.007812 20.996094 16.609375 C 20.027344 17.4375 19.402344 17.753906 18.238281 17.753906 C 17.070312 17.753906 16.449219 17.4375 15.480469 16.609375 C 14.769531 16.007812 14.457031 15.847656 13.757812 15.847656 C 13.054688 15.847656 12.746094 16.007812 12.035156 16.609375 C 11.0625 17.4375 10.441406 17.753906 9.277344 17.753906 C 8.109375 17.753906 7.488281 17.4375 6.519531 16.609375 C 5.808594 16.007812 5.5 15.847656 4.796875 15.847656 Z M 4.796875 15.847656 "/>
</clipPath>
<clipPath id="clip19">
  <path d="M 0.796875 1.847656 L 0.796875 0.246094 C 1.964844 0.246094 2.585938 0.5625 3.554688 1.390625 C 4.265625 1.992188 4.574219 2.152344 5.277344 2.152344 C 5.976562 2.152344 6.289062 1.992188 7 1.390625 C 7.96875 0.5625 8.589844 0.246094 9.757812 0.246094 C 10.921875 0.246094 11.542969 0.5625 12.515625 1.390625 C 13.226562 1.992188 13.535156 2.152344 14.238281 2.152344 C 14.9375 2.152344 15.25 1.992188 15.960938 1.390625 C 16.933594 0.5625 17.554688 0.246094 18.71875 0.246094 C 19.886719 0.246094 20.507812 0.5625 21.480469 1.390625 C 22.1875 1.992188 22.5 2.152344 23.203125 2.152344 L 23.203125 3.753906 C 22.035156 3.753906 21.414062 3.4375 20.441406 2.609375 C 19.734375 2.007812 19.421875 1.847656 18.71875 1.847656 C 18.019531 1.847656 17.707031 2.007812 16.996094 2.609375 C 16.027344 3.4375 15.402344 3.753906 14.238281 3.753906 C 13.070312 3.753906 12.449219 3.4375 11.480469 2.609375 C 10.769531 2.007812 10.457031 1.847656 9.757812 1.847656 C 9.054688 1.847656 8.746094 2.007812 8.035156 2.609375 C 7.0625 3.4375 6.441406 3.753906 5.277344 3.753906 C 4.109375 3.753906 3.488281 3.4375 2.519531 2.609375 C 1.808594 2.007812 1.5 1.847656 0.796875 1.847656 Z M 0.796875 1.847656 "/>
</clipPath>
<clipPath id="clip18">
  <rect x="0" y="0" width="24" height="4"/>
</clipPath>
<g id="surface17" clip-path="url(#clip18)">
<g clip-path="url(#clip19)" clip-rule="evenodd">
<rect x="0" y="0" width="24" height="4" style="fill:rgb(100%,100%,100%);fill-opacity:1;stroke:none;"/>
</g>
</g>
</defs>
<g id="surface1">
<g clip-path="url(#clip1)" clip-rule="nonzero">
<use xlink:href="#surface5" transform="matrix(1,0,0,1,14,8)"/>
</g>
<g clip-path="url(#clip4)" clip-rule="nonzero">
<g clip-path="url(#clip5)" clip-rule="evenodd">
<use xlink:href="#surface8" transform="matrix(1,0,0,1,8,15)"/>
</g>
</g>
<g clip-path="url(#clip8)" clip-rule="nonzero">
<g clip-path="url(#clip9)" clip-rule="evenodd">
<use xlink:href="#surface11" transform="matrix(1,0,0,1,8,4)"/>
</g>
</g>
<g clip-path="url(#clip12)" clip-rule="nonzero">
<g clip-path="url(#clip13)" clip-rule="evenodd">
<use xlink:href="#surface14" transform="matrix(1,0,0,1,14,21)"/>
</g>
</g>
<g clip-path="url(#clip16)" clip-rule="nonzero">
<g clip-path="url(#clip17)" clip-rule="evenodd">
<use xlink:href="#surface17" transform="matrix(1,0,0,1,4,14)"/>
</g>
</g>
</g>
</svg>
