<?xml version="1.0" encoding="UTF-8"?>
<svg width="32px" height="32px" viewBox="0 0 32 32" version="1.1" xmlns="http://www.w3.org/2000/svg" xmlns:xlink="http://www.w3.org/1999/xlink">
    <!-- Generator: Sketch 53.2 (72643) - https://sketchapp.com -->
    <title>icons/perils/jag/forsenat_bagage</title>
    <desc>Created with Sketch.</desc>
    <g id="Page-1" stroke="none" stroke-width="1" fill="none" fill-rule="evenodd">
        <g id="claims_tab_v1" transform="translate(-32.000000, -356.000000)">
            <g id="Snabbval" transform="translate(16.000000, 204.000000)">
                <g id="Trasig-Telefon" transform="translate(0.000000, 136.000000)">
                    <g id="icons/perils/mina_prylar/drulle" transform="translate(16.000000, 16.000000)">
                        <g id="Page-1">
                            <g id="Group-3" fill="#F9FAFC">
                                <path d="M16.00008,32.00016 L16.00008,32.00016 C7.16328,32.00016 8e-05,24.83616 8e-05,16.00016 C8e-05,7.16336 7.16328,0.00016 16.00008,0.00016 C24.83688,0.00016 32.00008,7.16336 32.00008,16.00016 C32.00008,24.83616 24.83688,32.00016 16.00008,32.00016" id="Fill-1"></path>
                            </g>
                            <polygon id="Stroke-4" fill="#1BE9B6" fill-rule="nonzero" points="17.72192 8.1232 14.27792 8.1232 14.27792 9.7232 17.72192 9.7232"></polygon>
                            <g id="Group-13" transform="translate(4.000000, 4.000000)">
                                <path d="M17.75712,11.06416 L17.75712,21.41616 C17.75712,21.68998 17.5324445,21.91456 17.25872,21.91456 L6.74112,21.91456 C6.4669478,21.91456 6.24272,21.6903322 6.24272,21.41616 L6.24272,12.68176 L4.64272,12.68176 L4.64272,21.41616 C4.64272,22.5739878 5.5832922,23.51456 6.74112,23.51456 L17.25872,23.51456 C18.4159478,23.51456 19.35712,22.573788 19.35712,21.41616 L19.35712,11.06416 L17.75712,11.06416 Z" id="Stroke-5" fill="#009175" fill-rule="nonzero"></path>
                                <path d="M6.24304,13.48688 L6.24304,2.58368 C6.24304,2.3095078 6.4672678,2.08528 6.74144,2.08528 L17.25904,2.08528 C17.5327645,2.08528 17.75744,2.30986 17.75744,2.58368 L17.75744,11.63728 L19.35744,11.63728 L19.35744,2.58368 C19.35744,1.42605204 18.4162678,0.48528 17.25904,0.48528 L6.74144,0.48528 C5.5836122,0.48528 4.64304,1.4258522 4.64304,2.58368 L4.64304,13.48688 L6.24304,13.48688 Z" id="Stroke-7" fill="#1BE9B6" fill-rule="nonzero"></path>
                                <path d="M13.218,19.03568 C13.218,18.36288 12.6724,17.81808 12.0004,17.81808 C11.3276,17.81808 10.782,18.36288 10.782,19.03568 C10.782,19.70848 11.3276,20.25328 12.0004,20.25328 C12.6724,20.25328 13.218,19.70848 13.218,19.03568" id="Fill-9" fill="#009175"></path>
                                <path d="M0.79768,11.84664 C1.49808052,11.84664 1.80984703,12.0058622 2.51812871,12.6087682 C3.48949545,13.4356183 4.11108523,13.75304 5.27688,13.75304 C6.44246377,13.75304 7.06396973,13.4357442 8.0351239,12.6093702 C8.74422142,12.0059853 9.05637015,11.84664 9.75768,11.84664 C10.4585805,11.84664 10.7704695,12.0059039 11.4791824,12.6090692 C12.4504695,13.4357039 13.0719138,13.75304 14.23768,13.75304 C15.4039989,13.75304 16.0258782,13.4356971 16.9975165,12.6092063 C17.7067266,12.005941 18.0188702,11.84664 18.72008,11.84664 C19.4212898,11.84664 19.7334334,12.005941 20.4423435,12.6089511 C21.4142818,13.4356971 22.0361611,13.75304 23.20248,13.75304 L23.20248,12.15304 C22.5007656,12.15304 22.1884283,11.9936553 21.4793165,11.3904737 C20.5075766,10.5638964 19.8859258,10.24664 18.72008,10.24664 C17.5542342,10.24664 16.9325834,10.5638964 15.9611435,11.3902186 C15.2517317,11.9936553 14.9393944,12.15304 14.23768,12.15304 C13.5367795,12.15304 13.2248905,11.9937761 12.5161776,11.3906108 C11.5448905,10.5639761 10.9234462,10.24664 9.75768,10.24664 C8.59162319,10.24664 7.96988864,10.5640223 6.9985361,11.3905651 C6.28964021,11.9937784 5.97768516,12.15304 5.27688,12.15304 C4.57597477,12.15304 4.2640146,11.9937341 3.55553129,11.3906565 C2.58436291,10.5639752 1.96300174,10.24664 0.79768,10.24664 L0.79768,11.84664 Z" id="Stroke-11" fill="#009175" fill-rule="nonzero"></path>
                            </g>
                        </g>
                    </g>
                </g>
            </g>
        </g>
    </g>
</svg>