<svg width="24" height="24" xmlns="http://www.w3.org/2000/svg"><g fill="none" fill-rule="evenodd"><path d="M12.644 18.362h-1.092v-1.456c-.905-.093-1.62-.408-2.142-.945-.523-.537-.826-1.146-.91-1.827l1.33-.42c.047.485.215.91.504 1.274.29.364.695.593 1.218.686v-2.926l-.35-.07c-.728-.15-1.297-.443-1.708-.882-.41-.439-.616-.994-.616-1.666 0-.672.25-1.26.749-1.764.5-.504 1.141-.803 1.925-.896V6h1.092v1.484c.775.103 1.37.371 1.785.805.415.434.693.926.833 1.477l-1.26.462c-.047-.308-.187-.607-.42-.896a1.805 1.805 0 00-.938-.602v2.87l.21.042c.765.15 1.372.462 1.82.938.448.476.672 1.031.672 1.666 0 .663-.238 1.246-.714 1.75s-1.139.807-1.988.91v1.456zm1.33-4.046c0-.308-.112-.583-.336-.826-.224-.243-.555-.415-.994-.518v2.702c.439-.084.77-.247.994-.49.224-.243.336-.532.336-.868zm-3.71-4.242c0 .681.43 1.106 1.288 1.274v-2.66c-.401.075-.716.238-.945.49-.229.252-.343.55-.343.896z" fill="#141033" fill-rule="nonzero"/><circle stroke="#141033" stroke-width="1.5" cx="12" cy="12" r="11.25"/></g></svg>