<?xml version="1.0" encoding="UTF-8"?>
<svg xmlns="http://www.w3.org/2000/svg" xmlns:xlink="http://www.w3.org/1999/xlink" width="24pt" height="24pt" viewBox="0 0 24 24" version="1.1">
<defs>
<clipPath id="clip1">
  <path d="M 8 6 L 16 6 L 16 19 L 8 19 Z M 8 6 "/>
</clipPath>
<clipPath id="clip2">
  <path d="M 12.644531 18.363281 L 11.550781 18.363281 L 11.550781 16.90625 C 10.648438 16.8125 9.933594 16.496094 9.410156 15.960938 C 8.886719 15.425781 8.585938 14.816406 8.5 14.132812 L 9.828125 13.714844 C 9.875 14.199219 10.042969 14.625 10.335938 14.988281 C 10.625 15.351562 11.03125 15.582031 11.550781 15.675781 L 11.550781 12.746094 L 11.203125 12.679688 C 10.472656 12.527344 9.90625 12.234375 9.492188 11.796875 C 9.082031 11.355469 8.878906 10.800781 8.878906 10.128906 C 8.878906 9.457031 9.128906 8.871094 9.628906 8.367188 C 10.125 7.863281 10.769531 7.5625 11.550781 7.46875 L 11.550781 6 L 12.644531 6 L 12.644531 7.484375 C 13.417969 7.585938 14.011719 7.855469 14.429688 8.289062 C 14.84375 8.722656 15.121094 9.214844 15.261719 9.765625 L 14.003906 10.226562 C 13.957031 9.921875 13.816406 9.621094 13.582031 9.332031 C 13.347656 9.042969 13.035156 8.84375 12.644531 8.730469 L 12.644531 11.601562 L 12.855469 11.640625 C 13.621094 11.792969 14.226562 12.105469 14.675781 12.578125 C 15.121094 13.054688 15.347656 13.613281 15.347656 14.246094 C 15.347656 14.910156 15.109375 15.492188 14.632812 15.996094 C 14.15625 16.5 13.492188 16.804688 12.644531 16.90625 Z M 13.972656 14.316406 C 13.972656 14.007812 13.863281 13.734375 13.636719 13.488281 C 13.414062 13.246094 13.082031 13.074219 12.644531 12.972656 L 12.644531 15.675781 C 13.082031 15.589844 13.414062 15.425781 13.636719 15.183594 C 13.863281 14.941406 13.972656 14.652344 13.972656 14.316406 Z M 10.265625 10.074219 C 10.265625 10.753906 10.691406 11.179688 11.550781 11.347656 L 11.550781 8.6875 C 11.152344 8.761719 10.835938 8.925781 10.605469 9.179688 C 10.378906 9.429688 10.265625 9.730469 10.265625 10.074219 Z M 10.265625 10.074219 "/>
</clipPath>
<clipPath id="clip4">
  <path d="M 4.644531 12.363281 L 3.550781 12.363281 L 3.550781 10.90625 C 2.648438 10.8125 1.933594 10.496094 1.410156 9.960938 C 0.886719 9.425781 0.585938 8.816406 0.5 8.132812 L 1.828125 7.714844 C 1.875 8.199219 2.042969 8.625 2.335938 8.988281 C 2.625 9.351562 3.03125 9.582031 3.550781 9.675781 L 3.550781 6.746094 L 3.203125 6.679688 C 2.472656 6.527344 1.90625 6.234375 1.492188 5.796875 C 1.082031 5.355469 0.878906 4.800781 0.878906 4.128906 C 0.878906 3.457031 1.128906 2.871094 1.628906 2.367188 C 2.125 1.863281 2.769531 1.5625 3.550781 1.46875 L 3.550781 0 L 4.644531 0 L 4.644531 1.484375 C 5.417969 1.585938 6.011719 1.855469 6.429688 2.289062 C 6.84375 2.722656 7.121094 3.214844 7.261719 3.765625 L 6.003906 4.226562 C 5.957031 3.921875 5.816406 3.621094 5.582031 3.332031 C 5.347656 3.042969 5.035156 2.84375 4.644531 2.730469 L 4.644531 5.601562 L 4.855469 5.640625 C 5.621094 5.792969 6.226562 6.105469 6.675781 6.578125 C 7.121094 7.054688 7.347656 7.613281 7.347656 8.246094 C 7.347656 8.910156 7.109375 9.492188 6.632812 9.996094 C 6.15625 10.5 5.492188 10.804688 4.644531 10.90625 Z M 5.972656 8.316406 C 5.972656 8.007812 5.863281 7.734375 5.636719 7.488281 C 5.414062 7.246094 5.082031 7.074219 4.644531 6.972656 L 4.644531 9.675781 C 5.082031 9.589844 5.414062 9.425781 5.636719 9.183594 C 5.863281 8.941406 5.972656 8.652344 5.972656 8.316406 Z M 2.265625 4.074219 C 2.265625 4.753906 2.691406 5.179688 3.550781 5.347656 L 3.550781 2.6875 C 3.152344 2.761719 2.835938 2.925781 2.605469 3.179688 C 2.378906 3.429688 2.265625 3.730469 2.265625 4.074219 Z M 2.265625 4.074219 "/>
</clipPath>
<clipPath id="clip3">
  <rect x="0" y="0" width="8" height="13"/>
</clipPath>
<g id="surface5" clip-path="url(#clip3)">
<g clip-path="url(#clip4)" clip-rule="evenodd">
<rect x="0" y="0" width="8" height="13" style="fill:rgb(100%,100%,100%);fill-opacity:1;stroke:none;"/>
</g>
</g>
<clipPath id="clip5">
  <path d="M 12 24 C 5.371094 24 0 18.628906 0 12 C 0 5.371094 5.371094 0 12 0 C 18.628906 0 24 5.371094 24 12 C 24 18.628906 18.628906 24 12 24 Z M 12 24 "/>
</clipPath>
<clipPath id="clip7">
  <path d="M 12 24 C 5.371094 24 0 18.628906 0 12 C 0 5.371094 5.371094 0 12 0 C 18.628906 0 24 5.371094 24 12 C 24 18.628906 18.628906 24 12 24 Z M 12 24 "/>
</clipPath>
<clipPath id="clip6">
  <rect x="0" y="0" width="24" height="24"/>
</clipPath>
<g id="surface8" clip-path="url(#clip6)">
<g clip-path="url(#clip7)" clip-rule="evenodd">
<path style="fill:none;stroke-width:3;stroke-linecap:butt;stroke-linejoin:miter;stroke:rgb(100%,100%,100%);stroke-opacity:1;stroke-miterlimit:10;" d="M 12 24 C 18.628906 24 24 18.628906 24 12 C 24 5.371094 18.628906 0 12 0 C 5.371094 0 0 5.371094 0 12 C 0 18.628906 5.371094 24 12 24 Z M 12 24 "/>
</g>
</g>
</defs>
<g id="surface1">
<g clip-path="url(#clip1)" clip-rule="nonzero">
<g clip-path="url(#clip2)" clip-rule="evenodd">
<use xlink:href="#surface5" transform="matrix(1,0,0,1,8,6)"/>
</g>
</g>
<g clip-path="url(#clip5)" clip-rule="evenodd">
<use xlink:href="#surface8"/>
</g>
</g>
</svg>
