<?xml version="1.0" encoding="UTF-8"?>
<svg xmlns="http://www.w3.org/2000/svg" xmlns:xlink="http://www.w3.org/1999/xlink" width="24pt" height="24pt" viewBox="0 0 24 24" version="1.1">
<defs>
<clipPath id="clip1">
  <path d="M 9 3 L 16 3 L 16 7 L 9 7 Z M 9 3 "/>
</clipPath>
<clipPath id="clip2">
  <path d="M 15.839844 6.109375 C 15.839844 4.421875 14.472656 3.054688 12.785156 3.054688 C 11.097656 3.054688 9.726562 4.421875 9.726562 6.109375 L 10.925781 6.109375 C 10.925781 5.085938 11.757812 4.253906 12.785156 4.253906 C 13.808594 4.253906 14.640625 5.085938 14.640625 6.109375 Z M 15.839844 6.109375 "/>
</clipPath>
<clipPath id="clip3">
  <path d="M 6.765625 7.824219 L 18.800781 7.824219 L 18.800781 9.023438 L 6.765625 9.023438 Z M 6.765625 7.824219 "/>
</clipPath>
<clipPath id="clip4">
  <path d="M 6 5 L 20 5 L 20 16 L 6 16 Z M 6 5 "/>
</clipPath>
<clipPath id="clip5">
  <path d="M 7.367188 9.074219 L 7.367188 6.652344 C 7.367188 6.625 7.390625 6.601562 7.417969 6.601562 L 18.148438 6.601562 C 18.179688 6.601562 18.199219 6.625 18.199219 6.652344 L 18.199219 14.480469 C 18.199219 14.511719 18.175781 14.535156 18.148438 14.535156 L 12.820312 14.535156 L 12.820312 15.734375 L 18.148438 15.734375 C 18.839844 15.734375 19.402344 15.171875 19.402344 14.480469 L 19.402344 6.652344 C 19.402344 5.960938 18.839844 5.402344 18.148438 5.402344 L 7.417969 5.402344 C 6.726562 5.402344 6.164062 5.960938 6.164062 6.652344 L 6.164062 9.074219 Z M 7.367188 9.074219 "/>
</clipPath>
<clipPath id="clip6">
  <path d="M 2 10 L 12 10 L 12 19 L 2 19 Z M 2 10 "/>
</clipPath>
<clipPath id="clip7">
  <path d="M 10.332031 14.625 C 10.332031 12.925781 8.953125 11.550781 7.253906 11.550781 C 5.554688 11.550781 4.179688 12.925781 4.179688 14.625 C 4.179688 16.324219 5.554688 17.703125 7.253906 17.703125 C 8.953125 17.703125 10.332031 16.324219 10.332031 14.625 Z M 11.53125 14.625 C 11.53125 16.988281 9.617188 18.902344 7.253906 18.902344 C 4.894531 18.902344 2.976562 16.988281 2.976562 14.625 C 2.976562 12.261719 4.894531 10.347656 7.253906 10.347656 C 9.617188 10.347656 11.53125 12.261719 11.53125 14.625 Z M 11.53125 14.625 "/>
</clipPath>
<clipPath id="clip8">
  <path d="M 6.316406 12.613281 L 7.515625 12.613281 L 7.515625 14.371094 L 6.316406 14.371094 Z M 6.316406 14.371094 L 9.261719 14.371094 L 9.261719 15.570312 L 6.316406 15.570312 Z M 6.316406 14.371094 "/>
</clipPath>
<clipPath id="clip9">
  <path d="M 11 17 L 14 17 L 14 19 L 11 19 Z M 11 17 "/>
</clipPath>
<clipPath id="clip10">
  <path d="M 13.195312 17.746094 C 13.195312 17.386719 12.902344 17.09375 12.542969 17.09375 C 12.179688 17.09375 11.890625 17.386719 11.890625 17.746094 C 11.890625 18.105469 12.179688 18.398438 12.542969 18.398438 C 12.902344 18.398438 13.195312 18.105469 13.195312 17.746094 "/>
</clipPath>
<clipPath id="clip11">
  <path d="M 13 17 L 16 17 L 16 19 L 13 19 Z M 13 17 "/>
</clipPath>
<clipPath id="clip12">
  <path d="M 15.28125 17.746094 C 15.28125 17.386719 14.988281 17.09375 14.628906 17.09375 C 14.269531 17.09375 13.976562 17.386719 13.976562 17.746094 C 13.976562 18.105469 14.269531 18.398438 14.628906 18.398438 C 14.988281 18.398438 15.28125 18.105469 15.28125 17.746094 "/>
</clipPath>
<clipPath id="clip13">
  <path d="M 16 17 L 18 17 L 18 19 L 16 19 Z M 16 17 "/>
</clipPath>
<clipPath id="clip14">
  <path d="M 17.367188 17.746094 C 17.367188 17.386719 17.074219 17.09375 16.714844 17.09375 C 16.355469 17.09375 16.0625 17.386719 16.0625 17.746094 C 16.0625 18.105469 16.355469 18.398438 16.714844 18.398438 C 17.074219 18.398438 17.367188 18.105469 17.367188 17.746094 "/>
</clipPath>
<clipPath id="clip15">
  <path d="M 18 17 L 20 17 L 20 19 L 18 19 Z M 18 17 "/>
</clipPath>
<clipPath id="clip16">
  <path d="M 19.453125 17.746094 C 19.453125 17.386719 19.160156 17.09375 18.800781 17.09375 C 18.441406 17.09375 18.148438 17.386719 18.148438 17.746094 C 18.148438 18.105469 18.441406 18.398438 18.800781 18.398438 C 19.160156 18.398438 19.453125 18.105469 19.453125 17.746094 "/>
</clipPath>
</defs>
<g id="surface1">
<g clip-path="url(#clip1)" clip-rule="nonzero">
<g clip-path="url(#clip2)" clip-rule="evenodd">
<path style=" stroke:none;fill-rule:nonzero;fill:rgb(100%,100%,100%);fill-opacity:1;" d="M 4.726562 -1.945312 L 20.839844 -1.945312 L 20.839844 11.109375 L 4.726562 11.109375 Z M 4.726562 -1.945312 "/>
</g>
</g>
<g clip-path="url(#clip3)" clip-rule="nonzero">
<path style=" stroke:none;fill-rule:nonzero;fill:rgb(100%,100%,100%);fill-opacity:1;" d="M 1.765625 2.824219 L 23.800781 2.824219 L 23.800781 14.023438 L 1.765625 14.023438 Z M 1.765625 2.824219 "/>
</g>
<g clip-path="url(#clip4)" clip-rule="nonzero">
<g clip-path="url(#clip5)" clip-rule="evenodd">
<path style=" stroke:none;fill-rule:nonzero;fill:rgb(100%,100%,100%);fill-opacity:1;" d="M 1.164062 0.402344 L 24.402344 0.402344 L 24.402344 20.734375 L 1.164062 20.734375 Z M 1.164062 0.402344 "/>
</g>
</g>
<g clip-path="url(#clip6)" clip-rule="nonzero">
<g clip-path="url(#clip7)" clip-rule="evenodd">
<path style=" stroke:none;fill-rule:nonzero;fill:rgb(100%,100%,100%);fill-opacity:1;" d="M -2.023438 5.347656 L 16.53125 5.347656 L 16.53125 23.902344 L -2.023438 23.902344 Z M -2.023438 5.347656 "/>
</g>
</g>
<g clip-path="url(#clip8)" clip-rule="nonzero">
<path style=" stroke:none;fill-rule:nonzero;fill:rgb(100%,100%,100%);fill-opacity:1;" d="M 1.316406 7.613281 L 14.261719 7.613281 L 14.261719 20.570312 L 1.316406 20.570312 Z M 1.316406 7.613281 "/>
</g>
<g clip-path="url(#clip9)" clip-rule="nonzero">
<g clip-path="url(#clip10)" clip-rule="evenodd">
<path style=" stroke:none;fill-rule:nonzero;fill:rgb(100%,100%,100%);fill-opacity:1;" d="M 6.890625 12.09375 L 18.195312 12.09375 L 18.195312 23.398438 L 6.890625 23.398438 Z M 6.890625 12.09375 "/>
</g>
</g>
<g clip-path="url(#clip11)" clip-rule="nonzero">
<g clip-path="url(#clip12)" clip-rule="evenodd">
<path style=" stroke:none;fill-rule:nonzero;fill:rgb(100%,100%,100%);fill-opacity:1;" d="M 8.976562 12.09375 L 20.28125 12.09375 L 20.28125 23.398438 L 8.976562 23.398438 Z M 8.976562 12.09375 "/>
</g>
</g>
<g clip-path="url(#clip13)" clip-rule="nonzero">
<g clip-path="url(#clip14)" clip-rule="evenodd">
<path style=" stroke:none;fill-rule:nonzero;fill:rgb(100%,100%,100%);fill-opacity:1;" d="M 11.0625 12.09375 L 22.367188 12.09375 L 22.367188 23.398438 L 11.0625 23.398438 Z M 11.0625 12.09375 "/>
</g>
</g>
<g clip-path="url(#clip15)" clip-rule="nonzero">
<g clip-path="url(#clip16)" clip-rule="evenodd">
<path style=" stroke:none;fill-rule:nonzero;fill:rgb(100%,100%,100%);fill-opacity:1;" d="M 13.148438 12.09375 L 24.453125 12.09375 L 24.453125 23.398438 L 13.148438 23.398438 Z M 13.148438 12.09375 "/>
</g>
</g>
</g>
</svg>
