<?xml version="1.0" encoding="UTF-8"?>
<svg width="32px" height="32px" viewBox="0 0 32 32" version="1.1" xmlns="http://www.w3.org/2000/svg" xmlns:xlink="http://www.w3.org/1999/xlink">
    <!-- Generator: Sketch 53.2 (72643) - https://sketchapp.com -->
    <title>icons/perils/jag/forsenat_bagage</title>
    <desc>Created with Sketch.</desc>
    <g id="Page-1" stroke="none" stroke-width="1" fill="none" fill-rule="evenodd">
        <g id="claims_tab_v1" transform="translate(-207.000000, -220.000000)">
            <g id="Snabbval" transform="translate(16.000000, 204.000000)">
                <g id="Försenat-bagage" transform="translate(175.000000, 0.000000)">
                    <g id="icons/perils/jag/forsenat_bagage" transform="translate(16.000000, 16.000000)">
                        <g id="Page-1">
                            <g id="Group-3" fill="#F9FAFC">
                                <path d="M16,32.00016 L16,32.00016 C7.164,32.00016 4.05009278e-13,24.83696 4.05009278e-13,16.00016 C4.05009278e-13,7.16336 7.164,0.00016 16,0.00016 C24.8368,0.00016 32,7.16336 32,16.00016 C32,24.83696 24.8368,32.00016 16,32.00016" id="Fill-1"></path>
                            </g>
                            <g id="Group-22" transform="translate(3.200000, 4.000000)">
                                <path d="M17.91976,4.14704 C17.91976,1.8964122 16.0951878,0.07184 13.84456,0.07184 C11.5944861,0.07184 9.76936,1.89665823 9.76936,4.14704 L11.36936,4.14704 C11.36936,2.78037426 12.4780813,1.67184 13.84456,1.67184 C15.2115322,1.67184 16.31976,2.7800678 16.31976,4.14704 L17.91976,4.14704 Z" id="Stroke-4" fill="#651EFF" fill-rule="nonzero"></path>
                                <polygon id="Stroke-6" fill="#651EFF" fill-rule="nonzero" points="5.82096 8.02984 21.86896 8.02984 21.86896 6.42984 5.82096 6.42984"></polygon>
                                <path d="M6.62096,8.09784 L6.62096,4.87224 C6.62096,4.8332678 6.6515878,4.80264 6.69056,4.80264 L20.99936,4.80264 C21.0375419,4.80264 21.06816,4.83327762 21.06816,4.87224 L21.06816,15.30904 C21.06816,15.3471823 21.0367622,15.37864 20.99936,15.37864 L13.89536,15.37864 L13.89536,16.97864 L20.99936,16.97864 C21.9211014,16.97864 22.66816,16.2301557 22.66816,15.30904 L22.66816,4.87224 C22.66816,3.94984971 21.9214253,3.20264 20.99936,3.20264 L6.69056,3.20264 C5.7679322,3.20264 5.02096,3.9496122 5.02096,4.87224 L5.02096,8.09784 L6.62096,8.09784 Z" id="Stroke-8" fill="#0F007A" fill-rule="nonzero"></path>
                                <path d="M10.57448,15.50096 C10.57448,13.2348913 8.73835569,11.39856 6.47288,11.39856 C4.2072113,11.39856 2.37048,13.2350843 2.37048,15.50096 C2.37048,17.7661392 4.20731482,19.60256 6.47288,19.60256 C8.7382522,19.60256 10.57448,17.7663322 10.57448,15.50096 Z M12.17448,15.50096 C12.17448,18.6499878 9.6219078,21.20256 6.47288,21.20256 C3.32373997,21.20256 0.77048,18.6498756 0.77048,15.50096 C0.77048,12.3513883 3.32359607,9.79856 6.47288,9.79856 C9.62205167,9.79856 12.17448,12.3512761 12.17448,15.50096 Z" id="Stroke-10" fill="#0F007A" fill-rule="nonzero"></path>
                                <polygon id="Stroke-12" fill="#651EFF" fill-rule="nonzero" points="6.82056 12.81896 5.22056 12.81896 5.22056 16.75976 9.14696 16.75976 9.14696 15.15976 6.82056 15.15976"></polygon>
                                <path d="M14.39168,19.66192 C14.39168,19.18112 14.00288,18.79232 13.52288,18.79232 C13.04208,18.79232 12.65328,19.18112 12.65328,19.66192 C12.65328,20.14272 13.04208,20.53152 13.52288,20.53152 C14.00288,20.53152 14.39168,20.14272 14.39168,19.66192" id="Fill-14" fill="#651EFF"></path>
                                <path d="M17.17368,19.66192 C17.17368,19.18112 16.78488,18.79232 16.30488,18.79232 C15.82408,18.79232 15.43528,19.18112 15.43528,19.66192 C15.43528,20.14272 15.82408,20.53152 16.30488,20.53152 C16.78488,20.53152 17.17368,20.14272 17.17368,19.66192" id="Fill-16" fill="#651EFF"></path>
                                <path d="M19.95576,19.66192 C19.95576,19.18112 19.56696,18.79232 19.08696,18.79232 C18.60616,18.79232 18.21736,19.18112 18.21736,19.66192 C18.21736,20.14272 18.60616,20.53152 19.08696,20.53152 C19.56696,20.53152 19.95576,20.14272 19.95576,19.66192" id="Fill-18" fill="#651EFF"></path>
                                <path d="M22.73776,19.66192 C22.73776,19.18112 22.34896,18.79232 21.86816,18.79232 C21.38816,18.79232 20.99936,19.18112 20.99936,19.66192 C20.99936,20.14272 21.38816,20.53152 21.86816,20.53152 C22.34896,20.53152 22.73776,20.14272 22.73776,19.66192" id="Fill-20" fill="#651EFF"></path>
                            </g>
                        </g>
                    </g>
                </g>
            </g>
        </g>
    </g>
</svg>