<svg width="32" height="32" xmlns="http://www.w3.org/2000/svg"><g fill="none" fill-rule="evenodd"><path d="M16 32C7.164 32 0 24.837 0 16S7.164 0 16 0c8.837 0 16 7.163 16 16s-7.163 16-16 16" fill="#F9FAFC"/><path d="M21.12 8.147a4.075 4.075 0 00-8.15 0h1.6a2.476 2.476 0 014.95 0h1.6zM9.021 12.03h16.048v-1.6H9.021z" fill="#651EFF" fill-rule="nonzero"/><path d="M9.821 12.098V8.872c0-.039.03-.07.07-.07h14.308c.039 0 .07.031.07.07V19.31a.07.07 0 01-.07.07h-7.104v1.6H24.2a1.67 1.67 0 001.67-1.67V8.872c0-.922-.748-1.67-1.67-1.67H9.891c-.923 0-1.67.748-1.67 1.67v3.226h1.6z" fill="#0F007A" fill-rule="nonzero"/><path d="M13.774 19.501a4.102 4.102 0 10-8.203-.002 4.102 4.102 0 008.203.002zm1.6 0a5.701 5.701 0 11-11.404 0 5.702 5.702 0 1111.404 0z" fill="#0F007A" fill-rule="nonzero"/><path fill="#651EFF" fill-rule="nonzero" d="M10.02 16.819h-1.6v3.94h3.927v-1.6h-2.326z"/><path d="M17.592 23.662a.869.869 0 10-1.738-.002.869.869 0 001.738.002M20.374 23.662a.869.869 0 10-1.738-.002.869.869 0 001.738.002M23.156 23.662a.869.869 0 10-1.738-.002.869.869 0 001.738.002M25.938 23.662a.869.869 0 10-1.738-.001.869.869 0 001.738 0" fill="#651EFF"/></g></svg>