<?xml version="1.0" encoding="UTF-8"?>
<svg xmlns="http://www.w3.org/2000/svg" xmlns:xlink="http://www.w3.org/1999/xlink" width="24pt" height="24pt" viewBox="0 0 24 24" version="1.1">
<defs>
<clipPath id="clip1">
  <path d="M 12 24 C 5.371094 24 0 18.628906 0 12 C 0 5.371094 5.371094 0 12 0 C 18.628906 0 24 5.371094 24 12 C 24 18.628906 18.628906 24 12 24 Z M 12 24 "/>
</clipPath>
<clipPath id="clip3">
  <path d="M 12 24 C 5.371094 24 0 18.628906 0 12 C 0 5.371094 5.371094 0 12 0 C 18.628906 0 24 5.371094 24 12 C 24 18.628906 18.628906 24 12 24 Z M 12 24 "/>
</clipPath>
<clipPath id="clip2">
  <rect x="0" y="0" width="24" height="24"/>
</clipPath>
<g id="surface5" clip-path="url(#clip2)">
<g clip-path="url(#clip3)" clip-rule="evenodd">
<path style="fill:none;stroke-width:3;stroke-linecap:butt;stroke-linejoin:miter;stroke:rgb(100%,100%,100%);stroke-opacity:1;stroke-miterlimit:10;" d="M 12 24 C 18.628906 24 24 18.628906 24 12 C 24 5.371094 18.628906 0 12 0 C 5.371094 0 0 5.371094 0 12 C 0 18.628906 5.371094 24 12 24 Z M 12 24 "/>
</g>
</g>
<clipPath id="clip4">
  <rect x="0" y="0" width="2" height="8"/>
</clipPath>
<g id="surface8" clip-path="url(#clip4)">
<rect x="0" y="0" width="2" height="8" style="fill:rgb(100%,100%,100%);fill-opacity:1;stroke:none;"/>
</g>
<clipPath id="clip5">
  <path d="M 11 6 L 13 6 L 13 8 L 11 8 Z M 11 6 "/>
</clipPath>
<clipPath id="clip6">
  <path d="M 12 8 C 11.449219 8 11 7.550781 11 7 C 11 6.449219 11.449219 6 12 6 C 12.550781 6 13 6.449219 13 7 C 13 7.550781 12.550781 8 12 8 Z M 12 8 "/>
</clipPath>
<clipPath id="clip8">
  <path d="M 1 2 C 0.449219 2 0 1.550781 0 1 C 0 0.449219 0.449219 0 1 0 C 1.550781 0 2 0.449219 2 1 C 2 1.550781 1.550781 2 1 2 Z M 1 2 "/>
</clipPath>
<clipPath id="clip7">
  <rect x="0" y="0" width="2" height="2"/>
</clipPath>
<g id="surface11" clip-path="url(#clip7)">
<g clip-path="url(#clip8)" clip-rule="evenodd">
<rect x="0" y="0" width="2" height="2" style="fill:rgb(100%,100%,100%);fill-opacity:1;stroke:none;"/>
</g>
</g>
</defs>
<g id="surface1">
<g clip-path="url(#clip1)" clip-rule="evenodd">
<use xlink:href="#surface5"/>
</g>
<use xlink:href="#surface8" transform="matrix(1,0,0,1,11,10)"/>
<g clip-path="url(#clip5)" clip-rule="nonzero">
<g clip-path="url(#clip6)" clip-rule="evenodd">
<use xlink:href="#surface11" transform="matrix(1,0,0,1,11,6)"/>
</g>
</g>
</g>
</svg>
