<?xml version="1.0" encoding="UTF-8"?>
<svg xmlns="http://www.w3.org/2000/svg" xmlns:xlink="http://www.w3.org/1999/xlink" width="24pt" height="24pt" viewBox="0 0 24 24" version="1.1">
<defs>
<clipPath id="clip1">
  <path d="M 12 24 C 5.371094 24 0 18.628906 0 12 C 0 5.371094 5.371094 0 12 0 C 18.628906 0 24 5.371094 24 12 C 24 18.628906 18.628906 24 12 24 Z M 12 24 "/>
</clipPath>
<clipPath id="clip3">
  <path d="M 12 24 C 5.371094 24 0 18.628906 0 12 C 0 5.371094 5.371094 0 12 0 C 18.628906 0 24 5.371094 24 12 C 24 18.628906 18.628906 24 12 24 Z M 12 24 "/>
</clipPath>
<clipPath id="clip2">
  <rect x="0" y="0" width="24" height="24"/>
</clipPath>
<g id="surface5" clip-path="url(#clip2)">
<g clip-path="url(#clip3)" clip-rule="evenodd">
<path style="fill:none;stroke-width:3;stroke-linecap:butt;stroke-linejoin:miter;stroke:rgb(100%,100%,100%);stroke-opacity:1;stroke-miterlimit:10;" d="M 12 24 C 18.628906 24 24 18.628906 24 12 C 24 5.371094 18.628906 0 12 0 C 5.371094 0 0 5.371094 0 12 C 0 18.628906 5.371094 24 12 24 Z M 12 24 "/>
</g>
</g>
<clipPath id="clip4">
  <path d="M 5 5 L 19 5 L 19 19 L 5 19 Z M 5 5 "/>
</clipPath>
<clipPath id="clip5">
  <path d="M 12 19 C 8.132812 19 5 15.867188 5 12 C 5 8.132812 8.132812 5 12 5 C 15.867188 5 19 8.132812 19 12 C 19 15.867188 15.867188 19 12 19 Z M 10 10 L 10 14 L 14 14 L 14 10 Z M 10 10 "/>
</clipPath>
<clipPath id="clip7">
  <path d="M 7 14 C 3.132812 14 0 10.867188 0 7 C 0 3.132812 3.132812 0 7 0 C 10.867188 0 14 3.132812 14 7 C 14 10.867188 10.867188 14 7 14 Z M 5 5 L 5 9 L 9 9 L 9 5 Z M 5 5 "/>
</clipPath>
<clipPath id="clip6">
  <rect x="0" y="0" width="14" height="14"/>
</clipPath>
<g id="surface8" clip-path="url(#clip6)">
<g clip-path="url(#clip7)" clip-rule="evenodd">
<rect x="0" y="0" width="14" height="14" style="fill:rgb(100%,100%,100%);fill-opacity:1;stroke:none;"/>
</g>
</g>
</defs>
<g id="surface1">
<g clip-path="url(#clip1)" clip-rule="evenodd">
<use xlink:href="#surface5"/>
</g>
<g clip-path="url(#clip4)" clip-rule="nonzero">
<g clip-path="url(#clip5)" clip-rule="evenodd">
<use xlink:href="#surface8" transform="matrix(1,0,0,1,5,5)"/>
</g>
</g>
</g>
</svg>
