<svg xmlns="http://www.w3.org/2000/svg" width="594" height="433" viewBox="0 0 594 433">
    <defs>
        <linearGradient id="a" x1="49.5%" x2="49.5%" y1="61.148%" y2="39.148%">
            <stop offset="0%" stop-color="gray" stop-opacity=".25"/>
            <stop offset="54%" stop-color="gray" stop-opacity=".12"/>
            <stop offset="100%" stop-color="gray" stop-opacity=".1"/>
        </linearGradient>
    </defs>
    <g fill="none" fill-rule="nonzero">
        <path fill="#651EFF" d="M46.502 234.303c12.195 27.528-3.36 59.226-21.672 83.096-6.129 8.004-12.895 16.395-13.744 26.435-1.025 12.281 7.297 23.57 17.168 30.95 18.005 13.448 42.595 17.606 64.023 10.82 18.518-5.863 34.086-19.106 52.766-24.444 31.237-8.94 64.349 5.881 91.1 24.35 18.936 13.055 39.216 28.964 62.044 26.167 16.062-1.967 29.694-13.237 38.946-26.504 4.467-6.406 8.353-13.586 14.857-17.907 3.867-2.572 8.409-3.933 12.95-4.907 41.477-8.86 85.497 12.762 126.424 1.642 27.645-7.493 49.686-29.345 63.393-54.488s20.104-53.532 25.433-81.66c3.786-19.98 6.928-41.563-1.774-59.938-9.209-19.455-30.525-31.25-51.948-33.46-21.422-2.21-42.907 3.89-62.643 12.494-24.658 10.776-48.83 25.86-75.744 25.91-18.33.038-35.81-6.992-53.334-12.355-29.3-8.96-59.77-13.411-90.132-17.52-29.07-3.933-58.426-7.592-87.67-5.27-20.692 1.643-38.966 9.547-59.045 13.206-13.088 2.385-26.24.624-39.084 4.62-15.818 4.945-32.087 16.402-32.961 34.446-.825 17.176 14.181 29.713 20.647 44.317z" opacity=".1"/>
        <g fill="#6C63FF">
            <path d="M143.177 35.742c-3.03-4.394-9.29.373-6.46 4.927.738 1.188 1.552 2.337 2.316 3.445 9.327 13.353 14.16 29.738 18.329 45.868 1.014 4.006 2.003 8.172.838 12.018 1.666-10.469.589-21.285-1.928-31.567-2.516-10.282-6.435-20.043-10.479-29.75a27.592 27.592 0 0 0-2.616-4.941z" opacity=".5"/>
            <path d="M82.233 64.003c-6.387-.205-7.23 10.22-.843 10.768 1.673.15 3.372.191 4.982.232 19.66.575 38.26 8.21 56.13 16.418 4.383 2.012 8.943 4.27 11.498 8.579-8.06-10.001-18.664-17.321-29.943-22.712-11.28-5.39-23.301-8.92-35.31-12.218a28.985 28.985 0 0 0-6.514-1.067z"/>
            <path d="M83.595 89.006c-4.019.156-3.109 5.988.936 6.027 1.049 0 2.11 0 3.109-.09 12.272-.505 24.847 2.961 37.031 6.776 2.995.931 6.155 1.992 8.329 4.281a66.218 66.218 0 0 0-21.637-11.368 164.358 164.358 0 0 0-23.559-5.302 20.847 20.847 0 0 0-4.209-.324z" opacity=".2"/>
            <path d="M166.618 201.907c1.095 4.071 6.205 1.642 5.268-2.497-.243-1.081-.548-2.149-.827-3.163-3.395-12.429-3.236-26.179-2.677-39.622.146-3.31.353-6.808 1.922-9.625-3.114 7.933-4.87 16.426-5.182 25.057a190.8 190.8 0 0 0 .79 25.458c.102 1.486.339 2.957.706 4.392z" opacity=".5"/>
            <path d="M90.013 30.036c-2.553-.437-2.74 3.242-.2 3.81.668.146 1.337.252 1.979.358 7.821 1.323 15.308 5.108 22.515 9.064A12.145 12.145 0 0 1 119 47a42.992 42.992 0 0 0-12.18-9.832 105.975 105.975 0 0 0-14.186-6.365c-.845-.343-1.723-.6-2.62-.767z" opacity=".2"/>
            <path d="M52.79 129.844c-6.231 3.37-.964 12.604 5.434 9.544 1.67-.809 3.302-1.712 4.869-2.561 19.027-10.353 41.11-14.168 62.95-17.106 5.332-.715 11.024-1.348 15.957.862-13.45-3.976-27.788-4.313-41.638-2.615-13.849 1.699-27.325 5.325-40.66 9.167a35.788 35.788 0 0 0-6.912 2.71z"/>
            <path d="M71.41 164.067c-4.414 4.386 2.536 9.569 7.114 5.399 1.268-1.094 2.372-2.254 3.475-3.36 13.468-13.496 31.26-23.024 48.976-31.85 4.35-2.173 22.257-4.373 27.025-4.251-12.479 1.187-37.969 5.398-49.306 10.796a268.92 268.92 0 0 0-32.161 19.218 34.004 34.004 0 0 0-5.123 4.048z" opacity=".5"/>
            <path d="M102.132 221.258c-1.289 6.26 7.255 6.354 8.853.094.413-1.629.748-3.284 1.07-4.86 3.956-19.155 13.634-37.76 23.66-55.69C138.178 156.4 151.942 143.787 156 141c-9.794 8.508-28.854 27.3-35.35 38.635a296.397 296.397 0 0 0-16.47 35.175 38.115 38.115 0 0 0-2.048 6.448zM167.258 2.963c-2.97-6.537-11.43-1.161-8.735 5.538.699 1.756 1.485 3.471 2.234 5.106 9.122 19.977 12.254 43.06 14.6 65.766.575 5.565 1.074 11.508-1.023 16.627 3.82-13.98 4.33-28.905 3.008-43.358-1.323-14.452-4.43-28.54-7.725-42.493a40.375 40.375 0 0 0-2.359-7.186zM118.6 12.828c.164.101.351.16.544.173.359 0 .598-.359.744-.678.784-1.717.332-3.992 1.554-5.323a18.742 18.742 0 0 1 2.936 4.844l4.623-1.331a6.85 6.85 0 0 1-.877 5.323 6.908 6.908 0 0 1 2.18 1.49c.64.64.86 1.59.57 2.448-1.069.26-2.169.367-3.268.32.171 2.037.055 4.09-.345 6.094-.022.301-.166.58-.399.772-.332.213-.783 0-1.129-.186a10.638 10.638 0 0 1-3.8-3.992l-1.726 4.112c-.122.425-.39.792-.758 1.037a1.234 1.234 0 0 1-1.448-.505 3.477 3.477 0 0 1-.504-1.557l-.651-3.912a.932.932 0 0 0-.213-.56.995.995 0 0 0-.677-.199h-4.903c-.279-.878.585-1.676 1.422-2.049s1.82-.639 2.245-1.45c.85-1.664-1.328-3.992-.412-5.39 1.09-1.796 2.87-.186 4.291.52z"/>
            <path d="M204.826 35.742c3.029-4.394 9.286.373 6.458 4.927-.739 1.188-1.552 2.337-2.315 3.445-9.324 13.353-14.167 29.738-18.322 45.868-1.026 4.006-2.015 8.172-.851 12.018-1.664-10.469-.576-21.285 1.94-31.567 2.515-10.282 6.432-20.11 10.475-29.818a27.57 27.57 0 0 1 2.615-4.873z" opacity=".5"/>
            <path d="M265.762 64.003c6.387-.205 7.243 10.22.843 10.768-1.674.15-3.36.191-4.97.232-19.675.575-38.263 8.21-56.137 16.418-4.382 2.012-8.943 4.27-11.498 8.579 8.049-10.001 18.653-17.321 29.946-22.712 11.294-5.39 23.303-8.907 35.262-12.204a28.993 28.993 0 0 1 6.554-1.081z"/>
            <path d="M264.41 89.006c4.006.156 3.109 5.988-.936 6.027-1.049 0-2.11 0-3.122-.09-12.273-.505-24.837 2.961-37.022 6.776-2.996.931-6.156 1.992-8.33 4.281a66.227 66.227 0 0 1 21.64-11.368 164.005 164.005 0 0 1 23.56-5.302c1.39-.25 2.8-.359 4.21-.324z" opacity=".5"/>
            <path d="M257.975 30.036c2.567-.437 2.754 3.242.214 3.81-.669.146-1.337.252-1.993.358-7.822 1.323-15.296 5.108-22.503 9.064A12.145 12.145 0 0 0 229 47a42.82 42.82 0 0 1 12.18-9.832 105.82 105.82 0 0 1 14.174-6.365c.846-.34 1.724-.596 2.62-.767zM193.61 209.553c-.572 2.628-4.065 1.383-3.6-1.384.119-.705.265-1.383.411-2.047 1.78-7.995 1.13-16.667.24-25.133A13.12 13.12 0 0 0 189 175a45.92 45.92 0 0 1 4.436 15.63c.533 5.353.688 10.739.465 16.115-.01.943-.107 1.884-.292 2.808z" opacity=".2"/>
            <path d="M256.55 193.544c1.921 3.433-2.8 3.189-4.876-.244a46.637 46.637 0 0 1-1.535-2.714c-5.857-10.489-14.783-20.869-23.76-30.896A33.478 33.478 0 0 0 219 153a118.038 118.038 0 0 1 19.349 17.368c5.766 6.35 10.86 12.959 15.853 19.567a31.968 31.968 0 0 1 2.347 3.61z" opacity=".5"/>
            <path d="M86.45 193.544c-1.922 3.433 2.812 3.189 4.889-.244a46.428 46.428 0 0 0 1.522-2.714c5.856-10.489 14.782-20.869 23.773-30.896A33.417 33.417 0 0 1 124 153a119.114 119.114 0 0 0-19.35 17.368c-5.765 6.35-10.86 12.959-15.84 19.567a32.092 32.092 0 0 0-2.36 3.61zM147.413 209.553c.57 2.628 4.043 1.383 3.593-1.384-.12-.705-.279-1.383-.425-2.047-1.763-7.995-1.127-16.667-.225-25.133.07-2.107.634-4.163 1.644-5.989a45.958 45.958 0 0 0-4.428 15.63 114.961 114.961 0 0 0-.477 16.115c.018.944.124 1.885.318 2.808zM238.987 55.038c2.553-.45 2.74 3.244.2 3.8-.668.146-1.337.265-1.979.37-7.821 1.325-15.308 5.112-22.515 9.058A12.386 12.386 0 0 0 210 72a42.958 42.958 0 0 1 12.18-9.825 107.725 107.725 0 0 1 14.186-6.382 13.47 13.47 0 0 1 2.62-.755zM214.48 6.296c2.098-1.285 3.586 1.942 1.552 3.356-.547.373-1.094.72-1.628 1.042-6.421 3.999-11.66 10.107-16.594 16.253A11.994 11.994 0 0 0 195 32a41.695 41.695 0 0 1 7.222-13.231 101.343 101.343 0 0 1 10.173-10.84c.642-.61 1.34-1.157 2.085-1.633z" opacity=".2"/>
            <path d="M295.21 129.844c6.231 3.37.964 12.604-5.434 9.544-1.67-.809-3.314-1.712-4.869-2.561-19.04-10.353-41.11-14.168-62.95-17.106-5.332-.715-11.024-1.348-15.957.862 13.45-3.976 27.776-4.313 41.638-2.615 13.862 1.699 27.313 5.325 40.66 9.167a36.175 36.175 0 0 1 6.912 2.71z"/>
            <path d="M276.591 164.077c4.41 4.38-2.535 9.555-7.11 5.39-1.268-1.091-2.37-2.25-3.473-3.355-13.498-13.492-31.242-23.047-48.986-31.862-4.348-2.17-22.244-4.366-27.022-4.245 12.484 1.186 37.96 5.39 49.29 10.782a268.806 268.806 0 0 1 32.143 19.192 33.998 33.998 0 0 1 5.158 4.098z" opacity=".5"/>
            <path d="M223.975 229.689c.543 6.382-7.816 5.386-8.626-1.064-.215-1.67-.341-3.353-.48-4.955-1.594-19.538-8.853-39.265-16.441-58.372C196.543 160.612 184.63 146.286 181 143c8.537 9.722 24.877 30.862 29.872 42.967a303.665 303.665 0 0 1 11.901 37.057 38.613 38.613 0 0 1 1.202 6.665zM229.387 12.828a1.141 1.141 0 0 1-.544.173c-.346 0-.585-.359-.731-.678-.797-1.717-.345-3.992-1.554-5.323a18.742 18.742 0 0 0-2.936 4.844l-4.637-1.331a6.902 6.902 0 0 0 .877 5.323 7.054 7.054 0 0 0-2.179 1.49 2.411 2.411 0 0 0-.558 2.448c1.07.26 2.17.367 3.268.32a21.325 21.325 0 0 0 .346 6.094c.022.301.166.58.398.772.332.213.784 0 1.13-.186a10.89 10.89 0 0 0 3.8-3.992l1.726 4.112c.111.43.382.8.757 1.037a1.234 1.234 0 0 0 1.448-.505 3.65 3.65 0 0 0 .505-1.557l.651-3.912a.932.932 0 0 1 .213-.56.995.995 0 0 1 .677-.199h4.903c.279-.878-.585-1.676-1.422-2.049s-1.833-.639-2.245-1.45c-.85-1.664 1.328-3.992.412-5.39-1.09-1.796-2.83-.186-4.305.52z"/>
            <path d="M243.399 205.848a1.167 1.167 0 0 1-.545.16c-.359 0-.598-.36-.744-.68-.784-1.705-.333-3.93-1.542-5.328a18.459 18.459 0 0 0-2.95 4.942l-4.624-1.425a6.874 6.874 0 0 0 .877 5.328 6.87 6.87 0 0 0-2.18 1.479 2.429 2.429 0 0 0-.571 2.45c1.069.265 2.17.377 3.269.334a21.738 21.738 0 0 0 .345 6.087c.03.303.173.584.4.786.345.214.783 0 1.129-.2 1.598-.97 2.91-2.35 3.8-3.996l1.728 4.117c.125.423.399.787.77 1.025a1.208 1.208 0 0 0 1.436-.493 3.736 3.736 0 0 0 .518-1.558l.638-3.93a.934.934 0 0 1 .212-.56c.2-.144.446-.21.691-.186 1.622 0 3.256-.066 4.89 0 .28-.866-.584-1.678-1.421-2.051-.838-.373-1.82-.64-2.246-1.452-.85-1.652 1.329-3.997.412-5.329-1.09-1.891-2.87-.226-4.292.48z" opacity=".2"/>
            <path d="M281.4 77.83a1.035 1.035 0 0 1-.544.159c-.359 0-.598-.346-.744-.666-.784-1.716-.332-3.992-1.554-5.323a18.812 18.812 0 0 0-2.936 4.95l-4.624-1.437a6.864 6.864 0 0 0 .877 5.324 7.094 7.094 0 0 0-2.179 1.477c-.64.647-.86 1.6-.57 2.462 1.068.26 2.168.367 3.267.32-.17 2.037-.054 4.09.346 6.095.022.3.166.58.398.772.332.213.784 0 1.13-.187a10.639 10.639 0 0 0 3.799-3.992l1.727 4.112c.122.425.39.793.757 1.038a1.248 1.248 0 0 0 1.448-.506c.29-.47.463-1.005.505-1.557l.651-3.992c.01-.2.085-.392.213-.546a.995.995 0 0 1 .677-.2h4.903c.279-.865-.585-1.676-1.422-2.036-.837-.359-1.82-.638-2.245-1.45-.85-1.664 1.328-3.993.412-5.324-1.09-1.823-2.843-.173-4.291.506zM129.748 225.458a1.451 1.451 0 0 1-.733.233c-.476 0-.798-.507-1.004-.96-1.055-2.467-.45-5.661-2.084-7.731-1.662 2.13-3 4.527-3.962 7.101l-6.279-2.111c-.587 2.607-.16 5.356 1.184 7.622a9.507 9.507 0 0 0-2.946 2.138c-.848.928-1.14 2.28-.76 3.51 1.443.378 2.929.54 4.414.48-.233 2.919-.077 5.859.463 8.732.028.433.224.835.54 1.11.45.315 1.055 0 1.518-.26 2.164-1.424 3.939-3.428 5.146-5.813l2.329 5.909a2.735 2.735 0 0 0 1.03 1.48c.724.275 1.53-.02 1.942-.713.392-.681.63-1.451.695-2.248l.862-5.62c.022-.29.125-.568.296-.795.262-.22.594-.324.926-.288 2.2 0 4.4-.083 6.6-.069.386-1.247-.785-2.399-1.917-2.933-1.132-.535-2.457-.919-3.023-2.084-1.158-2.372 1.814-5.675.553-7.732-1.454-2.344-3.86.028-5.79 1.042zM66.729 80.447a1.463 1.463 0 0 1-.746.233c-.463 0-.798-.506-.99-.958-1.068-2.465-.45-5.655-2.084-7.722a26.798 26.798 0 0 0-3.975 7.092l-6.239-2.067c-.599 2.6-.176 5.35 1.171 7.612a9.443 9.443 0 0 0-2.933 2.136c-.852.923-1.15 2.274-.772 3.505 1.443.377 2.928.539 4.412.479a32.516 32.516 0 0 0 .476 8.72c-.031.537.267 1.033.737 1.227.471.194 1.005.042 1.321-.377 2.164-1.422 3.938-3.424 5.146-5.805l2.315 5.9a2.592 2.592 0 0 0 1.042 1.48c.724.268 1.527-.026 1.942-.713.39-.68.624-1.45.682-2.245l.875-5.613c.012-.29.112-.568.283-.794a1.23 1.23 0 0 1 .926-.274c2.2 0 4.399-.096 6.611-.082.373-1.246-.797-2.396-1.916-2.93-1.12-.534-2.47-.918-3.036-2.081-1.145-2.369 1.827-5.668.566-7.722-1.492-2.382-3.897-.014-5.814 1z"/>
            <path d="M258.645 170.212a.713.713 0 0 1-.375.116c-.25 0-.413-.257-.526-.476-.55-1.284-.225-2.812-1.076-3.852a13.548 13.548 0 0 0-2.053 3.531l-3.23-1.027a5.119 5.119 0 0 0 .614 3.853 4.69 4.69 0 0 0-1.515 1.053 1.753 1.753 0 0 0-.4 1.746c.744.19 1.511.272 2.278.244a15.802 15.802 0 0 0 .25 4.34.777.777 0 0 0 .276.553.76.76 0 0 0 .788-.129 7.767 7.767 0 0 0 2.654-2.89l1.251 2.942c.083.301.27.562.526.732a.852.852 0 0 0 1.014-.347c.2-.34.32-.722.35-1.117l.451-2.8a.73.73 0 0 1 .15-.398.603.603 0 0 1 .476-.141h3.417c.188-.617-.413-1.194-1.001-1.451-.589-.257-1.252-.463-1.565-1.04-.588-1.182.951-2.826.3-3.853-.65-1.027-2.065-.103-3.054.411zM171.645 223.24a.98.98 0 0 1-.375.117.71.71 0 0 1-.513-.49c-.551-1.225-.238-2.823-1.09-3.867a13.403 13.403 0 0 0-2.052 3.545l-3.217-1.031a5.062 5.062 0 0 0 .6 3.802 5.255 5.255 0 0 0-1.514 1.07 1.764 1.764 0 0 0-.4 1.753 7.57 7.57 0 0 0 2.278.232 15.92 15.92 0 0 0 .25 4.37.807.807 0 0 0 .276.554c.237.155.55 0 .788-.129a7.773 7.773 0 0 0 2.654-2.9l1.251 2.952c.083.302.27.564.526.734a.863.863 0 0 0 1.014-.36c.2-.341.32-.725.35-1.122l.451-2.81a.695.695 0 0 1 .15-.387.638.638 0 0 1 .476-.141h3.417c.188-.62-.413-1.2-.989-1.47-.576-.27-1.252-.451-1.564-1.044-.601-1.186.938-2.836.287-3.867-.65-1.031-2.052-.026-3.054.49z" opacity=".2"/>
            <path d="M89.64 42.223a.922.922 0 0 1-.375.115.708.708 0 0 1-.514-.487c-.55-1.284-.238-2.811-1.077-3.851a12.687 12.687 0 0 0-2.053 3.53l-3.23-1.027a4.968 4.968 0 0 0 .613 3.85 5.155 5.155 0 0 0-1.527 1.066c-.44.46-.59 1.135-.388 1.746a7.53 7.53 0 0 0 2.278.23 15.784 15.784 0 0 0 .238 4.352.803.803 0 0 0 .276.552c.238.154.55 0 .789-.128a7.626 7.626 0 0 0 2.654-2.888l1.252 2.939c.085.303.277.564.538.732a.853.853 0 0 0 1.002-.36c.2-.34.32-.721.35-1.116l.451-2.799a.664.664 0 0 1 .15-.385.64.64 0 0 1 .476-.14h3.418c.2-.617-.413-1.195-.989-1.464-.576-.27-1.252-.45-1.565-1.04-.6-1.18.94-2.824.288-3.85-.651-1.027-2.053-.09-3.055.423zM134.651 144.21a.726.726 0 0 1-.388.115c-.238 0-.413-.244-.514-.475-.55-1.22-.237-2.81-1.077-3.85a13.006 13.006 0 0 0-2.053 3.53l-3.231-1.027a5.071 5.071 0 0 0 .614 3.85 5.007 5.007 0 0 0-1.516 1.065 1.737 1.737 0 0 0-.4 1.745c.744.192 1.512.27 2.279.231a15.775 15.775 0 0 0 .238 4.35c.021.213.12.41.275.553.238.154.551 0 .79-.142a7.523 7.523 0 0 0 2.654-2.874l1.252 2.939c.094.299.283.557.539.731a.841.841 0 0 0 1.001-.36 2.61 2.61 0 0 0 .364-1.116l.45-2.798a.585.585 0 0 1 .15-.385.603.603 0 0 1 .477-.14h3.406c.2-.617-.401-1.194-.99-1.464-.588-.27-1.252-.462-1.565-1.04-.589-1.18.952-2.823.288-3.85-.664-1.026-2.054-.09-3.043.411zM101.646 104.21a.676.676 0 0 1-.375.115c-.25 0-.413-.244-.514-.475-.55-1.219-.237-2.81-1.088-3.85a13.333 13.333 0 0 0-2.053 3.53l-3.216-1.027a5.022 5.022 0 0 0 .6 3.85 5.254 5.254 0 0 0-1.514 1.066 1.738 1.738 0 0 0-.4 1.745c.744.192 1.511.27 2.277.231a15.787 15.787 0 0 0 .25 4.351.803.803 0 0 0 .276.552c.238.154.55 0 .788-.141a7.522 7.522 0 0 0 2.654-2.875l1.251 2.939c.083.301.27.562.526.732a.865.865 0 0 0 1.014-.36c.199-.34.319-.721.35-1.116l.45-2.798a.664.664 0 0 1 .15-.385.64.64 0 0 1 .476-.142h3.417c.188-.616-.413-1.193-.989-1.463-.575-.27-1.251-.462-1.564-1.04-.6-1.18.938-2.823.288-3.85-.651-1.027-2.053-.09-3.054.41zM238.646 113.228a.71.71 0 0 1-.375.116c-.25 0-.413-.245-.526-.477-.538-1.225-.225-2.823-1.076-3.867a13.404 13.404 0 0 0-2.053 3.545l-3.216-1.031a5.062 5.062 0 0 0 .6 3.802 4.729 4.729 0 0 0-1.514 1.07c-.445.46-.6 1.138-.4 1.753a8.005 8.005 0 0 0 2.277.232 15.922 15.922 0 0 0 .25 4.37.807.807 0 0 0 .276.554c.238.155.55 0 .788-.142a7.746 7.746 0 0 0 2.654-2.887l1.251 2.939c.08.307.267.574.526.747a.863.863 0 0 0 1.014-.36c.199-.341.319-.725.35-1.122l.45-2.81a.734.734 0 0 1 .15-.4.649.649 0 0 1 .476-.128h3.417c.188-.62-.413-1.2-.989-1.47-.575-.27-1.251-.464-1.564-1.044-.6-1.186.938-2.836.288-3.867-.651-1.031-2.053-.026-3.054.477z" opacity=".5"/>
            <path d="M171.646 104.211a.676.676 0 0 1-.376.116c-.25 0-.413-.257-.513-.475-.55-1.284-.238-2.812-1.089-3.852a13.764 13.764 0 0 0-2.052 3.53l-3.217-1.026a5.052 5.052 0 0 0 .601 3.851 5.002 5.002 0 0 0-1.514 1.053 1.765 1.765 0 0 0-.4 1.76 8.549 8.549 0 0 0 2.277.23 15.797 15.797 0 0 0 .25 4.34c.01.216.11.418.276.552.237.167.55 0 .788-.128a7.626 7.626 0 0 0 2.653-2.89l1.252 2.941c.082.302.27.562.526.732a.84.84 0 0 0 1.013-.347c.2-.34.32-.722.35-1.117l.451-2.799a.73.73 0 0 1 .15-.398.774.774 0 0 1 .476-.141h3.417c.188-.616-.413-1.194-.989-1.45-.575-.258-1.251-.463-1.564-1.04-.601-1.182.938-2.825.288-3.853-.651-1.027-2.053-.09-3.054.411z" opacity=".2"/>
            <path d="M152.646 113.224a.711.711 0 0 1-.376.116c-.25 0-.413-.244-.525-.476-.551-1.288-.226-2.82-1.077-3.864a13.817 13.817 0 0 0-2.052 3.542l-3.23-1.018a5.107 5.107 0 0 0 .614 3.8 4.902 4.902 0 0 0-1.514 1.056 1.775 1.775 0 0 0-.4 1.764c.745.18 1.511.257 2.277.232-.117 1.46-.033 2.93.25 4.366a.806.806 0 0 0 .276.554c.237.154.55 0 .788-.142a7.641 7.641 0 0 0 2.653-2.898l1.252 2.95c.08.307.267.573.526.746a.864.864 0 0 0 1.013-.36c.2-.34.32-.724.35-1.12l.451-2.808a.733.733 0 0 1 .15-.4.724.724 0 0 1 .476-.141h3.417c.188-.631-.413-1.21-.989-1.468-.575-.258-1.251-.464-1.564-1.044-.601-1.184.938-2.833.288-3.863-.651-1.03-2.053-.026-3.054.476z" opacity=".3"/>
            <path d="M132.643 57.213a.724.724 0 0 1-.388.116c-.238 0-.413-.244-.513-.475-.55-1.285-.238-2.814-1.076-3.854a13.151 13.151 0 0 0-2.052 3.52l-3.228-1.015a4.978 4.978 0 0 0 .613 3.853 5.112 5.112 0 0 0-1.526 1.054 1.794 1.794 0 0 0-.388 1.76 7.991 7.991 0 0 0 2.277.23 15.909 15.909 0 0 0 .238 4.355.804.804 0 0 0 .275.552c.238.155.55 0 .788-.14a7.475 7.475 0 0 0 2.653-2.891l1.251 2.942c.09.304.28.568.538.745a.844.844 0 0 0 1.014-.476c.203-.338.327-.72.362-1.117l.438-2.8a.73.73 0 0 1 .15-.399.774.774 0 0 1 .476-.141h3.416c.2-.63-.4-1.207-.989-1.464-.588-.257-1.251-.463-1.564-1.04-.588-1.183.939-2.827.288-3.854-.65-1.028-2.064-.026-3.053.54z" opacity=".2"/>
            <path d="M170.65 132.226a.848.848 0 0 1-.388.116c-.238 0-.413-.257-.513-.489-.552-1.22-.238-2.8-1.078-3.853a13.214 13.214 0 0 0-2.054 3.532l-3.23-1.027a5 5 0 0 0 .613 3.853 4.892 4.892 0 0 0-1.528 1.053 1.78 1.78 0 0 0-.388 1.747c.744.19 1.512.273 2.279.244a15.8 15.8 0 0 0 .238 4.342c.022.213.12.41.275.552.266.11.57.06.79-.128a7.63 7.63 0 0 0 2.655-2.89l1.252 2.941c.086.304.277.564.539.732a.853.853 0 0 0 1.002-.347c.204-.338.328-.72.363-1.117l.45-2.8a.533.533 0 0 1 .183-.43.504.504 0 0 1 .444-.11h3.407c.2-.616-.401-1.194-.99-1.451-.588-.257-1.252-.463-1.565-1.04-.589-1.182.939-2.826.288-3.854-.652-1.028-2.054-.141-3.044.424z" opacity=".3"/>
            <g opacity=".6">
                <path d="M321.24 145.12a1.43 1.43 0 0 0-2.326 1.66c.265.402.559.788.838 1.16 3.355 4.536 5.094 10.017 6.596 15.484.365 1.338.715 2.762.3 4.085a25.46 25.46 0 0 0-.715-10.66 66.397 66.397 0 0 0-3.77-10.068 8.916 8.916 0 0 0-.923-1.66z" opacity=".5"/>
                <path d="M299.447 154.659c-2.268-.072-2.554 3.363-.3 3.542.593.05 1.187.064 1.76.078 6.94.186 13.493 2.705 19.796 5.41 1.553.665 3.177 1.43 4.078 2.862a29.727 29.727 0 0 0-10.56-7.485 78.171 78.171 0 0 0-12.463-4.028 10.66 10.66 0 0 0-2.31-.38z"/>
                <path d="M300.077 163.102c-1.431.05-1.11 2.09.336 2.096h1.109c4.378-.179 8.857 1.03 13.207 2.361 1.1.242 2.12.757 2.97 1.496a23.824 23.824 0 0 0-7.72-3.964 58.89 58.89 0 0 0-8.386-1.875 8.084 8.084 0 0 0-1.516-.114z" opacity=".2"/>
                <path d="M329.353 200.903c.408 1.373 2.296.558 1.953-.845a23.17 23.17 0 0 0-.308-1.066c-1.252-4.2-1.194-8.836-.987-13.38a6.777 6.777 0 0 1 .716-3.248 23.922 23.922 0 0 0-1.947 8.457 59.394 59.394 0 0 0 .294 8.586 8.15 8.15 0 0 0 .279 1.496z" opacity=".5"/>
                <path d="M302.688 143.21c-.866-.15-.93 1.11-.071 1.296l.665.128c2.64.451 5.158 1.739 7.59 3.084.625.284 1.169.72 1.582 1.267a14.488 14.488 0 0 0-4.107-3.342 36.314 36.314 0 0 0-4.779-2.146 5.387 5.387 0 0 0-.88-.287z" opacity=".2"/>
                <path d="M289.388 176.46c-2.182 1.124-.336 4.215 1.91 3.192.587-.272 1.16-.573 1.703-.852 6.682-3.47 14.438-4.744 22.064-5.724 1.875-.243 3.87-.45 5.602.286a37.915 37.915 0 0 0-14.61-.873 95.433 95.433 0 0 0-14.258 3.07c-.832.218-1.64.52-2.411.902z"/>
                <path d="M295.634 188.481c-1.574 1.431.88 3.191 2.525 1.789.43-.372.845-.758 1.23-1.123 4.787-4.494 11.112-7.692 17.408-10.64 1.545-.716 7.87-1.431 9.608-1.431-4.436.4-13.5 1.782-17.528 3.577a97.19 97.19 0 0 0-11.447 6.44c-.641.406-1.242.87-1.796 1.388z" opacity=".5"/>
                <path d="M306.83 207.664c-.457 2.097 2.54 2.147 3.098 0 .144-.544.265-1.095.38-1.624 1.38-6.44 4.765-12.643 8.27-18.646.859-1.474 5.674-5.725 7.097-6.626-3.427 2.862-10.095 9.137-12.362 12.93a97.314 97.314 0 0 0-5.724 11.777 12.773 12.773 0 0 0-.758 2.19zM329.381 134.016c-1.073-2.182-4.128-.386-3.155 1.853.25.58.537 1.152.809 1.703 3.29 6.662 4.428 14.368 5.273 21.945.207 1.853.386 3.835-.372 5.545a37.926 37.926 0 0 0 1.087-14.467 95.952 95.952 0 0 0-2.79-14.182 12.758 12.758 0 0 0-.852-2.397zM312.325 137.73a.322.322 0 0 0 .18.05.315.315 0 0 0 .25-.222c.271-.587.114-1.338.529-1.825.416.503.752 1.068.994 1.675l1.574-.487a2.333 2.333 0 0 1-.3 1.796c.267.122.509.292.715.5.212.222.283.541.186.83a3.82 3.82 0 0 1-1.109.115 7.156 7.156 0 0 1-.114 2.061.4.4 0 0 1-.136.265.372.372 0 0 1-.38-.065 3.649 3.649 0 0 1-1.294-1.366l-.58 1.388a.63.63 0 0 1-.264.35.415.415 0 0 1-.487-.164 1.28 1.28 0 0 1-.172-.53l-.221-1.33a.3.3 0 0 0-.072-.187.322.322 0 0 0-.229-.064h-1.66c-.1-.293.193-.565.48-.715.286-.15.615-.222.758-.494.293-.565-.458-1.345-.136-1.825s1.023 0 1.488.244z"/>
                <path d="M342.632 145.12a1.431 1.431 0 1 1 2.332 1.66c-.272.402-.558.788-.837 1.16-3.356 4.536-5.101 10.017-6.597 15.484-.372 1.338-.715 2.762-.307 4.085a25.468 25.468 0 0 1 .715-10.66c.98-3.454 2.24-6.821 3.77-10.068a8.88 8.88 0 0 1 .924-1.66z" opacity=".5"/>
                <path d="M364.424 154.659c2.26-.072 2.554 3.363.293 3.542-.586.05-1.187.064-1.752.078-6.94.186-13.5 2.705-19.804 5.41-1.545.665-3.17 1.43-4.07 2.862a29.727 29.727 0 0 1 10.56-7.485 78.322 78.322 0 0 1 12.455-4.028c.757-.21 1.534-.338 2.318-.38z"/>
                <path d="M363.837 163.102c1.431.05 1.102 2.09-.336 2.096h-1.109c-4.378-.179-8.857 1.03-13.207 2.361-1.1.24-2.121.755-2.97 1.496a23.752 23.752 0 0 1 7.72-3.964 58.89 58.89 0 0 1 8.4-1.846 8.084 8.084 0 0 1 1.502-.143z" opacity=".5"/>
                <path d="M361.19 143.21c.866-.15.93 1.11.072 1.296l-.673.128c-2.633.451-5.158 1.739-7.583 3.084a4.114 4.114 0 0 0-1.582 1.267 14.46 14.46 0 0 1 4.1-3.342 36.83 36.83 0 0 1 4.786-2.146c.284-.122.579-.218.88-.287zM338.797 203.507c-.193.852-1.374.43-1.217-.436 0-.23.093-.451.144-.666.6-2.604.379-5.43.078-8.192a4.136 4.136 0 0 0-.565-1.947 14.44 14.44 0 0 1 1.503 5.073c.18 1.745.234 3.5.164 5.252-.004.308-.04.615-.107.916z" opacity=".2"/>
                <path d="M360.64 197.84c.672 1.138-.98 1.06-1.703-.079-.194-.3-.365-.6-.537-.887-2.046-3.484-5.166-6.933-8.306-10.26a11.498 11.498 0 0 0-2.569-2.226 41.04 41.04 0 0 1 6.747 5.768c2.017 2.146 3.792 4.293 5.537 6.496.304.377.58.774.83 1.188z" opacity=".5"/>
                <path d="M300.8 197.84c-.673 1.138.98 1.06 1.71-.079.185-.3.364-.6.529-.887 2.046-3.484 5.165-6.933 8.306-10.26a11.533 11.533 0 0 1 2.576-2.226 41.09 41.09 0 0 0-6.754 5.768c-2.01 2.146-3.792 4.293-5.538 6.496-.303.377-.58.774-.83 1.188zM322.685 203.507c.193.852 1.374.43 1.223-.436-.043-.23-.093-.451-.143-.666-.6-2.604-.386-5.43-.078-8.192a4.05 4.05 0 0 1 .558-1.947 14.44 14.44 0 0 0-1.503 5.073 35.822 35.822 0 0 0-.157 5.252c.005.308.038.615.1.916zM354.3 151.775c.859-.15.923 1.102.065 1.295-.222.05-.45.086-.665.122-2.64.45-5.159 1.739-7.591 3.09a4.171 4.171 0 0 0-1.582 1.267 14.51 14.51 0 0 1 4.107-3.348 36.271 36.271 0 0 1 4.78-2.147c.285-.122.582-.216.886-.279zM346.252 134.968c.715-.465 1.273.672.55 1.173l-.572.365c-2.275 1.431-4.135 3.542-5.888 5.724a4.05 4.05 0 0 0-.987 1.775 14.533 14.533 0 0 1 2.554-4.644 36.383 36.383 0 0 1 3.62-3.8c.22-.222.462-.42.723-.593z" opacity=".2"/>
                <path d="M374.49 176.46c2.183 1.124.337 4.215-1.91 3.192-.587-.272-1.159-.573-1.71-.852-6.675-3.47-14.43-4.744-22.057-5.724-1.874-.243-3.87-.45-5.602.286a37.915 37.915 0 0 1 14.602-.873 95.332 95.332 0 0 1 14.266 3.07c.832.22 1.64.522 2.411.902z"/>
                <path d="M368.245 188.481c1.574 1.431-.88 3.191-2.526 1.789-.43-.372-.844-.758-1.238-1.123-4.786-4.494-11.103-7.692-17.407-10.64-1.538-.716-7.905-1.431-9.6-1.431 4.435.4 13.493 1.782 17.52 3.577a96.719 96.719 0 0 1 11.448 6.44c.643.405 1.246.87 1.803 1.388z" opacity=".5"/>
                <path d="M349.743 210.047c.193 2.146-2.79 1.796-3.076-.35-.072-.566-.122-1.124-.172-1.66-.565-6.54-3.148-13.145-5.874-19.541-.665-1.567-4.915-6.361-6.203-7.463 3.04 3.255 8.865 10.332 10.646 14.382a97.489 97.489 0 0 1 4.236 12.4c.217.728.366 1.475.443 2.232zM351.532 137.73a.343.343 0 0 1-.186.05.336.336 0 0 1-.25-.222c-.265-.587-.115-1.338-.523-1.825a6.304 6.304 0 0 0-1.002 1.675l-1.566-.487a2.297 2.297 0 0 0 .3 1.796c-.267.122-.51.292-.715.5a.823.823 0 0 0-.194.83c.363.092.736.13 1.11.115a7.385 7.385 0 0 0 .121 2.061.4.4 0 0 0 .136.265c.128.05.274.026.38-.065.543-.334.99-.805 1.294-1.366l.58 1.388a.651.651 0 0 0 .257.35.422.422 0 0 0 .494-.164 1.28 1.28 0 0 0 .172-.53l.221-1.33a.3.3 0 0 1 .072-.187.322.322 0 0 1 .229-.064h1.66c.1-.293-.2-.565-.48-.715-.279-.15-.622-.222-.765-.494-.286-.565.465-1.345.143-1.825-.322-.48-1.002 0-1.488.244z"/>
                <path d="M356.268 202.362a.436.436 0 0 1-.186.057c-.122 0-.2-.121-.25-.228-.265-.58-.115-1.338-.523-1.825a6.125 6.125 0 0 0-1.001 1.674l-1.567-.486a2.326 2.326 0 0 0 .293 1.796c-.268.123-.51.295-.715.508a.816.816 0 0 0-.193.83c.363.085.736.121 1.108.107a7.37 7.37 0 0 0 .115 2.06.4.4 0 0 0 .136.265c.114.072.265 0 .386-.064a3.635 3.635 0 0 0 1.288-1.367l.587 1.389c.038.145.13.27.257.35a.415.415 0 0 0 .487-.164c.098-.161.16-.342.179-.53l.214-1.33a.422.422 0 0 1 .072-.187.33.33 0 0 1 .236-.064h1.66c.093-.294-.2-.565-.48-.716-.279-.15-.622-.222-.765-.493-.286-.566.458-1.338.143-1.825-.315-.487-.995 0-1.481.243z" opacity=".2"/>
                <path d="M369.561 159.038a.465.465 0 0 1-.186.057c-.122 0-.2-.122-.25-.23-.272-.579-.115-1.337-.53-1.824a6.282 6.282 0 0 0-.994 1.675l-1.574-.487a2.333 2.333 0 0 0 .3 1.796 2.304 2.304 0 0 0-.715.508.816.816 0 0 0-.193.83c.363.086.736.122 1.108.107a7.37 7.37 0 0 0 .115 2.061.4.4 0 0 0 .136.265c.128.05.274.026.38-.065.543-.334.99-.805 1.294-1.366l.587 1.388c.038.145.13.27.257.35a.415.415 0 0 0 .487-.164c.1-.16.158-.342.171-.53l.222-1.33a.3.3 0 0 1 .072-.186.322.322 0 0 1 .229-.065h1.667c.093-.293-.2-.565-.487-.715-.286-.15-.615-.222-.758-.494-.293-.565.458-1.345.143-1.825-.315-.479-.995 0-1.481.244zM316.396 208.845a.544.544 0 0 1-.257.079c-.165 0-.28-.172-.351-.322-.372-.809-.157-1.854-.715-2.54a8.758 8.758 0 0 0-1.388 2.332l-2.19-.673a3.249 3.249 0 0 0 .415 2.505c-.386.17-.736.413-1.03.715a1.138 1.138 0 0 0-.272 1.152 5.38 5.38 0 0 0 1.545.158c-.077.957-.021 1.92.165 2.862a.544.544 0 0 0 .193.372c.158.1.365 0 .53-.093a5.173 5.173 0 0 0 1.803-1.903l.808 1.939a.851.851 0 0 0 .365.486.58.58 0 0 0 .715-.236c.136-.216.22-.461.244-.715l.3-1.847a.358.358 0 0 1 .43-.357h2.31c.136-.408-.279-.795-.672-.966-.394-.172-.859-.3-1.06-.716-.4-.78.638-1.867.194-2.54-.565-.808-1.402-.028-2.082.308zM294.274 160.333a.537.537 0 0 1-.257.071c-.165 0-.28-.164-.35-.315-.373-.808-.158-1.86-.716-2.54a8.758 8.758 0 0 0-1.388 2.333l-2.19-.68a3.249 3.249 0 0 0 .416 2.505 3.577 3.577 0 0 0-1.03.715c-.3.306-.402.754-.265 1.16.503.123 1.02.176 1.538.157-.077.957-.022 1.92.164 2.862a.53.53 0 0 0 .194.365c.157.107.364 0 .529-.086a5.137 5.137 0 0 0 1.803-1.91l.808 1.946a.93.93 0 0 0 .365.486.594.594 0 0 0 .68-.236c.135-.217.218-.462.243-.716l.3-1.853a.465.465 0 0 1 .108-.257.422.422 0 0 1 .322-.093h2.31c.137-.415-.271-.795-.672-.966-.4-.172-.858-.308-1.059-.716-.4-.78.637-1.867.2-2.54-.536-.78-1.373-.029-2.053.308z"/>
                <path d="M361.398 190.37a.236.236 0 0 1-.136.043.25.25 0 0 1-.186-.164c-.193-.437-.079-.988-.387-1.353-.3.374-.54.792-.715 1.238l-1.166-.358c-.108.456-.028.935.222 1.331a1.71 1.71 0 0 0-.544.372.601.601 0 0 0-.143.616c.266.065.541.091.815.078a5.26 5.26 0 0 0 .093 1.531.286.286 0 0 0 .1.194.272.272 0 0 0 .28-.05c.404-.248.735-.599.958-1.016l.43 1.037c.032.106.1.197.193.258a.315.315 0 0 0 .365-.13.987.987 0 0 0 .114-.407l.157-.987a.193.193 0 0 1 .23-.186h1.223c.071-.215-.143-.415-.35-.508-.208-.093-.466-.165-.566-.365-.215-.415.336-.995.1-1.353-.236-.357-.722.007-1.087.18zM331.349 207.721a.3.3 0 0 1-.136.043.25.25 0 0 1-.186-.171c-.193-.43-.079-.98-.386-1.345-.302.372-.543.79-.716 1.237l-1.166-.357c-.107.455-.027.934.222 1.33a1.71 1.71 0 0 0-.544.373.601.601 0 0 0-.143.615c.267.065.541.092.816.079a5.195 5.195 0 0 0 .093 1.524.308.308 0 0 0 .093.2c.085.05.2 0 .286-.05.404-.248.735-.598.958-1.016l.43 1.037c.032.106.1.197.193.258a.322.322 0 0 0 .365-.129.88.88 0 0 0 .121-.386l.165-.988a.193.193 0 0 1 .229-.186h1.223c.072-.214-.143-.422-.35-.508-.208-.086-.465-.164-.565-.365-.215-.415.336-.994.1-1.352-.236-.358-.744-.014-1.102.157z" opacity=".2"/>
                <path d="M302.309 146.996a.336.336 0 0 1-.136.042c-.093 0-.15-.093-.186-.171-.2-.43-.086-.988-.394-1.345a4.5 4.5 0 0 0-.715 1.237l-1.216-.393c-.115.454-.037.936.214 1.33a1.932 1.932 0 0 0-.543.373.608.608 0 0 0-.143.615c.269.065.546.094.822.086a5.446 5.446 0 0 0 .086 1.524.272.272 0 0 0 .1.193c.086.057.194 0 .28-.043.402-.25.732-.6.958-1.016l.43 1.03c.03.108.098.2.193.258a.3.3 0 0 0 .364-.121.945.945 0 0 0 .13-.394l.157-.98a.258.258 0 0 1 .057-.143.229.229 0 0 1 .172-.043h1.23c.064-.222-.15-.422-.358-.515-.207-.093-.458-.158-.565-.365-.214-.415.336-.988.107-1.346-.228-.357-.722.008-1.044.187zM317.748 181.219a.229.229 0 0 1-.136 0c-.085 0-.15-.086-.186-.165-.2-.43-.086-.987-.386-1.352a4.494 4.494 0 0 0-.715 1.245l-1.16-.365a1.71 1.71 0 0 0 .222 1.33c-.205.09-.391.216-.55.373a.615.615 0 0 0-.144.615c.27.064.546.093.823.086a5.446 5.446 0 0 0 .086 1.524.286.286 0 0 0 .1.193c.086.058.2 0 .286-.043.4-.25.729-.6.952-1.016l.436 1.03c.03.108.1.2.193.258a.315.315 0 0 0 .358-.121.852.852 0 0 0 .129-.394l.164-.98a.25.25 0 0 1 .05-.143.286.286 0 0 1 .172-.05h1.23c.072-.222-.15-.423-.357-.516-.207-.093-.458-.157-.565-.364-.208-.415.343-.995.107-1.353-.236-.358-.751.029-1.109.208zM306.516 167.874a.3.3 0 0 1-.136.043.25.25 0 0 1-.186-.171c-.2-.43-.086-.988-.387-1.346-.303.372-.545.79-.715 1.238l-1.159-.358c-.11.456-.03.937.222 1.331-.205.09-.392.216-.551.372a.615.615 0 0 0-.143.616c.269.066.546.092.823.078a5.446 5.446 0 0 0 .085 1.524c.005.078.041.15.1.2.086.05.2 0 .287-.05.402-.247.73-.598.951-1.015l.437 1.037c.032.106.1.197.193.258a.308.308 0 0 0 .358-.129.916.916 0 0 0 .128-.394l.165-.98a.229.229 0 0 1 .05-.136.243.243 0 0 1 .172-.05h1.23c.072-.214-.15-.422-.357-.508-.208-.086-.458-.164-.566-.365-.214-.415.344-.994.108-1.352-.236-.358-.752-.022-1.11.157zM354.766 171.015a.336.336 0 0 1-.136.043.236.236 0 0 1-.186-.171c-.2-.43-.086-.98-.394-1.346-.301.373-.543.791-.715 1.238l-1.16-.357c-.112.454-.035.935.215 1.33-.202.09-.387.216-.543.372a.601.601 0 0 0-.144.616c.27.066.547.092.823.079a5.446 5.446 0 0 0 .086 1.524c.005.077.041.15.1.2.086.05.193 0 .28-.05.403-.248.734-.598.958-1.016l.43 1.037c.031.106.1.197.192.258a.315.315 0 0 0 .365-.129.916.916 0 0 0 .129-.393l.157-.98a.193.193 0 0 1 .23-.187h1.23c.064-.214-.15-.422-.358-.508-.207-.086-.458-.164-.565-.365-.215-.415.336-.994.107-1.352-.229-.358-.744-.021-1.101.157z" opacity=".5"/>
                <path d="M331.349 168.39a.236.236 0 0 1-.136.042.25.25 0 0 1-.186-.164c-.193-.43-.079-.988-.386-1.352-.3.373-.542.79-.716 1.237l-1.166-.357c-.108.455-.028.935.222 1.33a1.71 1.71 0 0 0-.544.373.601.601 0 0 0-.143.615c.267.065.541.092.816.079a5.245 5.245 0 0 0 .093 1.53c.006.074.04.143.093.194a.286.286 0 0 0 .286-.05c.404-.248.735-.598.958-1.016l.43 1.037c.032.106.1.197.193.258a.322.322 0 0 0 .365-.129.88.88 0 0 0 .121-.386l.165-.988a.193.193 0 0 1 .229-.186h1.223c.072-.214-.143-.415-.35-.508-.208-.093-.465-.164-.565-.365-.215-.415.336-.994.1-1.352-.236-.358-.744-.014-1.102.157z" opacity=".2"/>
                <path d="M324.008 171.588a.365.365 0 0 1-.143.043c-.085 0-.143-.093-.186-.172-.193-.43-.078-.987-.386-1.345-.301.373-.543.79-.715 1.238l-1.167-.358c-.107.455-.027.935.222 1.33a1.674 1.674 0 0 0-.544.373.601.601 0 0 0-.143.615c.267.065.542.092.816.079-.04.51-.01 1.023.093 1.524.003.076.04.147.1.193.086.057.193 0 .28-.043.402-.25.732-.6.958-1.016l.43 1.03c.03.11.098.203.192.265a.315.315 0 0 0 .365-.128c.068-.122.112-.256.129-.394l.157-.98a.193.193 0 0 1 .23-.186h1.23c.064-.215-.15-.422-.358-.515-.207-.093-.458-.158-.565-.358-.215-.422.336-.995.1-1.353-.236-.357-.737-.021-1.095.158z" opacity=".3"/>
                <path d="M317.154 152.247a.229.229 0 0 1-.135.036c-.086 0-.15-.086-.186-.164-.194-.43-.08-.988-.387-1.353-.3.374-.541.792-.715 1.238l-1.166-.358c-.109.456-.029.936.221 1.331a1.71 1.71 0 0 0-.543.372.601.601 0 0 0-.143.616c.266.064.54.093.815.086a5.195 5.195 0 0 0 .093 1.524c.007.073.04.142.093.193.086.057.2 0 .286-.05.404-.245.735-.593.959-1.01l.43 1.031c.032.106.1.197.192.258a.33.33 0 0 0 .365-.122c.07-.12.111-.255.122-.393l.165-.98a.258.258 0 0 1 .057-.144.272.272 0 0 1 .171-.05h1.224c.071-.222-.143-.422-.35-.515-.208-.093-.466-.165-.566-.365-.215-.415.336-.995.1-1.352-.236-.358-.744.014-1.102.171z" opacity=".2"/>
                <path d="M330.648 177.49a.207.207 0 0 1-.322-.128c-.2-.43-.086-.987-.394-1.352-.3.374-.54.791-.715 1.238l-1.16-.358c-.11.454-.033.934.216 1.33a1.882 1.882 0 0 0-.544.373.601.601 0 0 0-.143.615c.269.066.546.093.822.079a5.481 5.481 0 0 0 .086 1.531.286.286 0 0 0 .1.193.272.272 0 0 0 .28-.05c.402-.247.732-.595.958-1.009l.43 1.03c.032.106.1.198.193.258a.315.315 0 0 0 .365-.129.887.887 0 0 0 .107-.4l.157-.988a.293.293 0 0 1 .057-.136.236.236 0 0 1 .172-.05h1.23c.072-.214-.15-.415-.357-.508-.207-.093-.458-.164-.565-.365-.215-.415.343-.994.107-1.352-.236-.358-.722 0-1.08.179z" opacity=".3"/>
            </g>
            <g opacity=".8">
                <path d="M435.478 61.793c-1.732-2.36-5.31.2-3.693 2.638.421.644.884 1.259 1.326 1.852 5.325 7.215 8.084 15.975 10.457 24.627.585 2.145 1.148 4.397.485 6.492.955-5.62.335-11.44-1.105-16.954-1.44-5.513-3.635-10.79-5.98-16.031a14.499 14.499 0 0 0-1.49-2.624z" opacity=".5"/>
                <path d="M400.92 76.945c-3.564-.115-4.049 5.355-.47 5.641.94.072 1.882.093 2.787.122 10.999.3 21.385 4.29 31.4 8.58 2.452 1.059 4.99 2.246 6.465 4.505-4.505-5.24-10.443-9.08-16.751-11.905-6.309-2.825-13.038-4.677-19.76-6.436a16.738 16.738 0 0 0-3.67-.507z"/>
                <path d="M401.911 90.395c-2.267.078-1.753 3.318.528 3.332.598 0 1.197 0 1.767-.043 6.936-.286 14.043 1.638 20.936 3.747 1.696.522 3.479 1.108 4.712 2.381a37.672 37.672 0 0 0-12.24-6.3 93.698 93.698 0 0 0-13.315-2.938 11.612 11.612 0 0 0-2.388-.18z" opacity=".2"/>
                <path d="M448.344 150.502c.642 2.188 3.636.887 3.087-1.337-.143-.58-.314-1.151-.478-1.702-1.996-6.671-1.903-14.058-1.575-21.28.085-1.773.207-3.654 1.126-5.162a37.954 37.954 0 0 0-3.044 13.45 94.028 94.028 0 0 0 .464 13.679c.062.796.203 1.584.42 2.352z" opacity=".5"/>
                <path d="M406.045 58.74c-1.361-.237-1.468 1.758-.106 2.059.356.078.712.143 1.062.2 4.177.715 8.176 2.767 12.025 4.905a6.619 6.619 0 0 1 2.516 2.024 23.124 23.124 0 0 0-6.515-5.327 58.228 58.228 0 0 0-7.577-3.454 7.908 7.908 0 0 0-1.405-.408z" opacity=".2"/>
                <path d="M384.96 111.632c-3.464 1.788-.534 6.7 3.023 5.07.933-.43 1.839-.908 2.708-1.359 10.593-5.513 22.889-7.537 34.993-9.103 2.965-.379 6.13-.715 8.881.465-7.491-2.145-15.46-2.295-23.166-1.43-7.706.865-15.198 2.86-22.618 4.884-1.32.36-2.6.853-3.82 1.473z"/>
                <path d="M394.861 130.745c-2.495 2.331 1.426 5.084 4.006 2.86.713-.586 1.333-1.208 1.96-1.794 7.585-7.15 17.614-12.228 27.601-16.918 2.452-1.152 12.539-2.324 15.233-2.26-7.036.63-21.385 2.86-27.8 5.72a153.038 153.038 0 0 0-18.12 10.204 19.21 19.21 0 0 0-2.88 2.188z" opacity=".5"/>
                <path d="M412.625 161.264c-.713 3.332 4.027 3.382 4.911.05.228-.872.414-1.752.592-2.589 2.195-10.203 7.563-20.114 13.123-29.66 1.368-2.345 9.003-9.067 11.255-10.547-5.431 4.533-16.003 14.537-19.61 20.58a154.82 154.82 0 0 0-9.13 18.726 19.07 19.07 0 0 0-1.141 3.44zM448.38 44.11c-1.697-3.469-6.544-.616-4.99 2.945.406.93.856 1.838 1.29 2.71 5.218 10.598 7.015 22.882 8.362 34.902.328 2.96.606 6.107-.592 8.824 2.188-7.415 2.48-15.338 1.725-23.01-.755-7.673-2.559-15.124-4.44-22.553a19.955 19.955 0 0 0-1.355-3.819zM421.364 50.016c.089.052.19.081.292.086.186 0 .321-.194.4-.365.42-.923.178-2.145.833-2.86a9.946 9.946 0 0 1 1.583 2.66l2.488-.773c.234.978.065 2.01-.47 2.86.434.194.83.465 1.168.801.343.348.462.86.307 1.323a6.297 6.297 0 0 1-1.754.172 11.533 11.533 0 0 1-.192 3.282.594.594 0 0 1-.214.415c-.178.121-.42 0-.606-.1a5.806 5.806 0 0 1-2.046-2.145l-.948 2.13a.986.986 0 0 1-.413.551.662.662 0 0 1-.777-.265 2.028 2.028 0 0 1-.271-.843l-.35-2.146a.501.501 0 0 0-.113-.3.533.533 0 0 0-.364-.107h-2.637c-.15-.472.313-.908.762-1.101.45-.193.984-.35 1.212-.787.456-.894-.713-2.145-.228-2.903.613-.858 1.568.036 2.338.415z"/>
                <path d="M469.401 61.793c1.732-2.36 5.303.2 3.692 2.638a42.46 42.46 0 0 1-1.325 1.852c-5.325 7.215-8.084 15.975-10.465 24.627-.584 2.145-1.147 4.397-.477 6.492-.955-5.62-.335-11.44 1.105-16.954 1.44-5.513 3.664-10.79 5.973-16.01.408-.93.91-1.817 1.497-2.645z" opacity=".5"/>
                <path d="M503.951 76.945c3.564-.115 4.05 5.355.47 5.641-.933.072-1.881.093-2.78.122-11.005.3-21.384 4.29-31.399 8.58-2.452 1.059-5.032 2.246-6.465 4.505 4.505-5.24 10.436-9.08 16.751-11.905 6.316-2.825 13.03-4.677 19.76-6.436a16.738 16.738 0 0 1 3.663-.507z"/>
                <path d="M502.96 90.395c2.274.078 1.761 3.318-.52 3.332-.599 0-1.197 0-1.768-.043-6.942-.286-14.042 1.638-20.935 3.747-1.697.522-3.486 1.108-4.712 2.381a37.672 37.672 0 0 1 12.24-6.3 93.698 93.698 0 0 1 13.35-2.953c.775-.134 1.56-.19 2.346-.164z" opacity=".5"/>
                <path d="M498.833 58.74c1.362-.237 1.469 1.758.107 2.059-.356.078-.713.143-1.062.2-4.177.715-8.183 2.767-12.032 4.905a6.597 6.597 0 0 0-2.51 2.024 23.096 23.096 0 0 1 6.509-5.327 58.754 58.754 0 0 1 7.584-3.454 7.908 7.908 0 0 1 1.404-.408zM463.27 154.642c-.306 1.359-2.18.715-1.931-.715.064-.357.15-.715.228-1.058.948-4.14.606-8.638.121-13.021a6.594 6.594 0 0 0-.89-3.103 23.164 23.164 0 0 1 2.387 8.073 57.44 57.44 0 0 1 .25 8.351 7.172 7.172 0 0 1-.164 1.473z" opacity=".2"/>
                <path d="M497.957 145.626c1.069 1.816-1.554 1.694-2.71-.122a26.72 26.72 0 0 1-.84-1.43c-3.25-5.542-8.19-11.026-13.173-16.325a18.293 18.293 0 0 0-4.085-3.532 64.922 64.922 0 0 1 10.693 9.174c3.193 3.354 6.016 6.85 8.782 10.34.487.6.932 1.233 1.333 1.895z" opacity=".5"/>
                <path d="M403.059 145.626c-1.07 1.816 1.554 1.694 2.701-.122a22.8 22.8 0 0 0 .849-1.43c3.25-5.542 8.19-11.026 13.173-16.325a18.136 18.136 0 0 1 4.084-3.532 64.622 64.622 0 0 0-10.692 9.174c-3.194 3.354-6.024 6.85-8.782 10.34-.487.6-.933 1.233-1.333 1.895zM437.766 154.642c.307 1.359 2.181.715 1.932-.715-.064-.357-.15-.715-.228-1.058-.948-4.14-.606-8.638-.122-13.021a6.594 6.594 0 0 1 .891-3.103 23.165 23.165 0 0 0-2.352 8.094 57.44 57.44 0 0 0-.25 8.352c-.006.487.037.973.129 1.451zM487.899 72.361c1.361-.243 1.468 1.752.107 2.06-.357.078-.713.135-1.063.193-4.177.715-8.176 2.774-12.032 4.912a6.562 6.562 0 0 0-2.51 2.016 22.974 22.974 0 0 1 6.516-5.32 56.384 56.384 0 0 1 7.577-3.453 6.87 6.87 0 0 1 1.405-.408zM475.146 45.618c1.176-.715 2.018 1.08.863 1.874-.3.207-.613.393-.905.579-3.614 2.23-6.558 5.634-9.331 9.067a6.44 6.44 0 0 0-1.576 2.81 23.117 23.117 0 0 1 4.056-7.38A57.506 57.506 0 0 1 474 46.526c.352-.34.736-.644 1.147-.908z" opacity=".2"/>
                <path d="M519.919 111.632c3.464 1.788.534 6.7-3.023 5.07-.934-.43-1.846-.908-2.709-1.359-10.592-5.513-22.895-7.537-34.992-9.103-2.965-.379-6.13-.715-8.882.465 7.485-2.145 15.461-2.295 23.167-1.43 7.706.865 15.197 2.86 22.618 4.884 1.32.36 2.6.854 3.82 1.473z"/>
                <path d="M510.017 130.745c2.488 2.331-1.425 5.084-4.013 2.86-.677-.586-1.333-1.208-1.953-1.794-7.591-7.15-17.62-12.228-27.6-16.918-2.452-1.152-12.546-2.324-15.233-2.26 7.035.63 21.384 2.86 27.8 5.72a153.123 153.123 0 0 1 18.127 10.204 19.21 19.21 0 0 1 2.872 2.188z" opacity=".5"/>
                <path d="M480.656 165.068c.307 3.396-4.426 2.86-4.882-.565-.122-.894-.193-1.788-.264-2.646-.905-10.397-4.99-20.9-9.317-31.076-1.062-2.495-7.798-10.118-9.85-11.87 4.825 5.177 14.063 16.446 16.886 22.882a154.31 154.31 0 0 1 6.715 19.721c.346 1.16.584 2.35.712 3.554zM483.508 50.016a.626.626 0 0 1-.293.086c-.192 0-.32-.194-.399-.365-.427-.923-.178-2.145-.834-2.86a9.946 9.946 0 0 0-1.582 2.66l-2.488-.773a3.707 3.707 0 0 0 .47 2.86 3.948 3.948 0 0 0-1.176.801c-.339.35-.454.861-.299 1.323.574.14 1.164.197 1.754.172a11.799 11.799 0 0 0 .185 3.282c.015.16.091.31.214.415.185.121.427 0 .613-.1a5.806 5.806 0 0 0 2.046-2.145l.926 2.216a.958.958 0 0 0 .414.55.648.648 0 0 0 .77-.264c.156-.256.251-.545.277-.844l.343-2.145a.559.559 0 0 1 .12-.3.533.533 0 0 1 .364-.107h2.638c.15-.472-.321-.908-.77-1.101-.45-.194-.977-.35-1.205-.787-.456-.894.713-2.145.221-2.903-.577-.944-1.532-.05-2.31.329z"/>
                <path d="M491.02 152.826a.626.626 0 0 1-.291.086c-.193 0-.321-.186-.4-.358-.42-.93-.178-2.145-.834-2.903a10.06 10.06 0 0 0-1.582 2.66l-2.488-.772a3.735 3.735 0 0 0 .47 2.86 3.913 3.913 0 0 0-1.168.801c-.344.348-.462.86-.307 1.323a6.304 6.304 0 0 0 1.754.179 11.476 11.476 0 0 0 .192 3.275.608.608 0 0 0 .214.422c.178.114.42 0 .606-.108a5.806 5.806 0 0 0 2.046-2.145l.926 2.217c.07.228.216.425.414.558a.712.712 0 0 0 .777-.272c.151-.258.244-.546.27-.844l.35-2.11a.387.387 0 0 1 .477-.4c.877 0 1.761-.035 2.638 0 .15-.472-.314-.9-.763-1.1-.449-.201-.984-.344-1.212-.787-.456-.887.713-2.146.228-2.896-.563-.959-1.546-.065-2.316.314z" opacity=".2"/>
                <path d="M512.113 83.91a.562.562 0 0 1-.3.085c-.185 0-.313-.186-.391-.357-.428-.923-.186-2.146-.834-2.904a10.017 10.017 0 0 0-1.583 2.668l-2.487-.78a3.7 3.7 0 0 0 .47 2.86 3.856 3.856 0 0 0-1.176.801 1.333 1.333 0 0 0-.307 1.323 6.354 6.354 0 0 0 1.761.179 11.734 11.734 0 0 0 .185 3.275.637.637 0 0 0 .214.422c.186.114.42 0 .606-.1a5.841 5.841 0 0 0 2.053-2.146l.92 2.217a1 1 0 0 0 .413.558c.29.098.61-.014.777-.272.158-.255.253-.544.278-.844l.342-2.145a.566.566 0 0 1 .114-.293.52.52 0 0 1 .37-.107h2.631c.157-.465-.314-.901-.763-1.101-.449-.2-.983-.344-1.204-.78-.456-.894.713-2.145.22-2.903-.584-.93-1.546-.036-2.309.343zM427.794 163.137a.84.84 0 0 1-.407.122c-.263 0-.449-.265-.556-.508-.591-1.28-.25-2.953-1.162-4.033a13.91 13.91 0 0 0-2.202 3.704l-3.472-1.072a5.212 5.212 0 0 0 .656 3.982 5.267 5.267 0 0 0-1.632 1.116 1.827 1.827 0 0 0-.428 1.838 8.884 8.884 0 0 0 2.452.25 16.124 16.124 0 0 0 .264 4.57.859.859 0 0 0 .292.578.818.818 0 0 0 .848-.143 8.02 8.02 0 0 0 2.852-3.032l1.29 3.09c.092.32.297.594.577.772a.925.925 0 0 0 1.084-.372c.212-.358.341-.758.378-1.173l.484-2.939a.716.716 0 0 1 .157-.422c.148-.109.33-.16.513-.143 1.226 0 2.453-.05 3.671 0 .214-.657-.442-1.258-1.062-1.537-.62-.279-1.368-.479-1.682-1.087-.641-1.244 1.012-2.974.307-4.047-.82-1.287-2.153-.036-3.222.486zM392.716 85.969a.868.868 0 0 1-.414.121c-.256 0-.442-.264-.556-.507-.584-1.288-.25-2.954-1.154-4.04a13.974 13.974 0 0 0-2.21 3.71l-3.465-1.08a5.17 5.17 0 0 0 .656 3.99 5.182 5.182 0 0 0-1.632 1.116 1.806 1.806 0 0 0-.428 1.838 8.827 8.827 0 0 0 2.452.243 16.353 16.353 0 0 0 .257 4.57c.016.228.124.44.3.586.256.164.584 0 .848-.143a8.077 8.077 0 0 0 2.85-3.032l1.291 3.089c.096.316.297.588.57.772a.925.925 0 0 0 1.084-.372 2.78 2.78 0 0 0 .385-1.172l.477-2.946a.766.766 0 0 1 .164-.415.711.711 0 0 1 .514-.143c1.218 0 2.444-.05 3.67-.043.207-.65-.441-1.259-1.069-1.53-.627-.272-1.368-.486-1.682-1.094-.634-1.244 1.012-2.968.314-4.04-.82-1.252-2.153-.015-3.222.522z"/>
                <path d="M499.19 133.756a.391.391 0 0 1-.214.064c-.143 0-.235-.143-.3-.265-.313-.715-.128-1.573-.613-2.145a7.212 7.212 0 0 0-1.169 1.967l-1.846-.572c-.186.732-.06 1.51.35 2.145a2.936 2.936 0 0 0-.87.593.982.982 0 0 0-.221.98c.425.1.861.143 1.297.129-.07.81-.022 1.627.143 2.424a.451.451 0 0 0 .157.314c.135.086.313 0 .449-.078a4.285 4.285 0 0 0 1.51-1.61l.714 1.638c.05.17.16.317.306.415a.498.498 0 0 0 .578-.2c.113-.19.181-.402.2-.622l.256-1.566a.286.286 0 0 1 .356-.293h1.953c.114-.35-.235-.673-.563-.816-.328-.143-.713-.257-.898-.579-.335-.665.542-1.58.164-2.145s-1.198-.057-1.74.222zM451.51 161.357a.42.42 0 0 1-.222.064c-.135 0-.235-.143-.292-.272-.314-.679-.135-1.566-.613-2.145a7.384 7.384 0 0 0-1.176 1.974l-1.84-.572a2.732 2.732 0 0 0 .35 2.145c-.325.141-.62.342-.87.593a.967.967 0 0 0-.228.98c.428.1.866.144 1.305.129-.07.81-.024 1.626.135 2.424.009.12.065.23.157.307.135.093.314 0 .449-.071a4.285 4.285 0 0 0 1.518-1.61l.713 1.638c.051.17.16.317.307.415a.498.498 0 0 0 .577-.2c.114-.19.182-.402.2-.622l.256-1.566a.401.401 0 0 1 .086-.222.448.448 0 0 1 .27-.079h1.954c.107-.35-.235-.672-.57-.815-.335-.143-.713-.257-.891-.579-.343-.665.534-1.58.163-2.145-.37-.565-1.169-.057-1.739.229z" opacity=".2"/>
                <path d="M405.39 64.753a.413.413 0 0 1-.214.064.385.385 0 0 1-.3-.264c-.313-.715-.135-1.573-.613-2.145a7.341 7.341 0 0 0-1.176 1.966l-1.839-.572a2.753 2.753 0 0 0 .35 2.145c-.325.139-.62.338-.87.586a.975.975 0 0 0-.228.98c.426.107.865.15 1.304.129a8.693 8.693 0 0 0 .136 2.431.45.45 0 0 0 .164.307c.135.086.306 0 .449-.071a4.285 4.285 0 0 0 1.51-1.616l.714 1.645c.048.169.157.314.306.407a.498.498 0 0 0 .578-.2c.113-.19.181-.402.2-.622l.256-1.559a.401.401 0 0 1 .085-.222.37.37 0 0 1 .271-.078h1.953c.107-.344-.235-.665-.57-.815-.335-.15-.713-.258-.891-.58-.342-.657.542-1.58.164-2.145s-1.17-.05-1.74.229zM429.932 119.19a.377.377 0 0 1-.214.064c-.142 0-.235-.135-.292-.264-.314-.715-.135-1.573-.62-2.145a7.506 7.506 0 0 0-1.17 1.966l-1.845-.572a2.789 2.789 0 0 0 .349 2.145 2.851 2.851 0 0 0-.863.594.967.967 0 0 0-.228.98c.425.103.861.146 1.298.128a8.693 8.693 0 0 0 .142 2.431c.009.12.065.23.157.308.135.085.314 0 .45-.079a4.285 4.285 0 0 0 1.517-1.609l.713 1.638c.047.171.157.32.307.414a.484.484 0 0 0 .57-.2c.116-.188.187-.401.207-.622l.256-1.559c0-.087.033-.172.093-.236a.349.349 0 0 1 .27-.078h1.947c.114-.344-.228-.673-.563-.816-.335-.143-.713-.257-.891-.579-.342-.658.534-1.58.164-2.145-.371-.565-1.184-.043-1.754.236zM412.119 97.974a.533.533 0 0 1-.214.065.4.4 0 0 1-.292-.272c-.314-.68-.136-1.566-.62-2.145a7.356 7.356 0 0 0-1.17 1.973l-1.846-.572a2.803 2.803 0 0 0 .35 2.146c-.325.138-.62.337-.87.586a.982.982 0 0 0-.221.98 4.4 4.4 0 0 0 1.297.128 8.693 8.693 0 0 0 .143 2.431c.008.12.065.23.157.308.135.086.313 0 .449-.072a4.342 4.342 0 0 0 1.518-1.616l.713 1.645a.715.715 0 0 0 .3.408.498.498 0 0 0 .577-.2c.116-.19.186-.402.206-.623l.25-1.559a.401.401 0 0 1 .085-.221.377.377 0 0 1 .278-.079h1.946c.114-.343-.235-.665-.563-.815-.328-.15-.713-.257-.898-.58-.335-.657.542-1.58.171-2.144-.37-.565-1.176-.058-1.746.228zM488.633 102.965a.377.377 0 0 1-.214.065c-.143 0-.235-.136-.292-.265-.314-.715-.136-1.573-.62-2.145a7.32 7.32 0 0 0-1.17 1.967l-1.846-.573a2.789 2.789 0 0 0 .35 2.146 2.936 2.936 0 0 0-.87.593.982.982 0 0 0-.22.98c.423.103.86.147 1.296.128a8.693 8.693 0 0 0 .143 2.432c.009.12.065.23.157.307.135.086.313 0 .449-.079a4.285 4.285 0 0 0 1.518-1.608l.713 1.637c.047.172.156.32.306.415a.491.491 0 0 0 .57-.2c.117-.189.188-.402.207-.623l.257-1.558a.286.286 0 0 1 .356-.3h1.946c.115-.344-.235-.673-.563-.816-.328-.143-.712-.257-.898-.579-.335-.658.542-1.58.171-2.145-.37-.565-1.169-.057-1.746.221z" opacity=".5"/>
                <path d="M451.51 98.79a.42.42 0 0 1-.222.064c-.135 0-.235-.136-.292-.265-.314-.715-.135-1.573-.613-2.145a7.341 7.341 0 0 0-1.176 1.967l-1.84-.572a2.753 2.753 0 0 0 .35 2.145c-.324.138-.62.337-.87.586a.975.975 0 0 0-.228.98c.426.107.866.15 1.305.128a8.693 8.693 0 0 0 .135 2.432.48.48 0 0 0 .157.307c.135.086.314 0 .449-.071a4.285 4.285 0 0 0 1.518-1.616l.713 1.644c.049.17.158.314.307.408a.498.498 0 0 0 .577-.2c.114-.19.182-.403.2-.623l.256-1.558a.401.401 0 0 1 .086-.222.37.37 0 0 1 .27-.079h1.954c.107-.343-.235-.665-.57-.815-.335-.15-.713-.257-.891-.58-.343-.657.534-1.58.163-2.144-.37-.565-1.169-.05-1.739.229z" opacity=".2"/>
                <path d="M439.855 103.88a.533.533 0 0 1-.214.065.4.4 0 0 1-.293-.272c-.313-.715-.135-1.566-.62-2.145a7.248 7.248 0 0 0-1.169 1.974l-1.846-.58a2.81 2.81 0 0 0 .35 2.146c-.325.138-.62.337-.87.586a.982.982 0 0 0-.221.98 4.4 4.4 0 0 0 1.297.128 8.693 8.693 0 0 0 .143 2.432c.008.12.065.23.156.307.136.086.314 0 .45-.071a4.342 4.342 0 0 0 1.518-1.616l.713 1.644c.048.17.157.314.306.408a.491.491 0 0 0 .57-.2c.116-.189.187-.402.207-.623l.257-1.558a.394.394 0 0 1 .078-.222.377.377 0 0 1 .278-.079h1.946c.114-.343-.235-.665-.563-.815-.328-.15-.713-.257-.898-.58-.335-.657.542-1.58.171-2.144-.37-.565-1.176-.05-1.746.236z" opacity=".3"/>
                <path d="M428.998 73.105a.42.42 0 0 1-.22.064c-.136 0-.236-.136-.293-.264-.314-.715-.135-1.573-.613-2.146a7.341 7.341 0 0 0-1.176 1.967l-1.84-.572c-.185.732-.059 1.51.35 2.145a2.936 2.936 0 0 0-.87.593.967.967 0 0 0-.228.98c.427.103.866.147 1.305.129a8.707 8.707 0 0 0 .135 2.431.48.48 0 0 0 .157.307c.136.086.314 0 .45-.078a4.213 4.213 0 0 0 1.517-1.61l.713 1.638c.051.17.16.317.307.415a.498.498 0 0 0 .577-.2c.114-.19.182-.402.2-.622l.256-1.559a.387.387 0 0 1 .086-.222.37.37 0 0 1 .27-.078h1.954c.107-.35-.235-.672-.57-.815-.335-.143-.713-.258-.891-.58-.343-.665.534-1.58.164-2.145-.371-.565-1.17-.057-1.74.222z" opacity=".2"/>
                <path d="M450.39 113.277a.604.604 0 0 1-.22.064c-.136 0-.236-.143-.293-.272-.314-.68-.136-1.566-.613-2.145a7.384 7.384 0 0 0-1.176 1.974l-1.84-.572a2.739 2.739 0 0 0 .35 2.145c-.324.138-.62.337-.87.586a.975.975 0 0 0-.228.98c.426.106.866.15 1.305.128a8.693 8.693 0 0 0 .135 2.432.48.48 0 0 0 .157.307c.135.086.313 0 .456-.071a4.32 4.32 0 0 0 1.511-1.616l.713 1.644c.049.17.158.314.307.408a.498.498 0 0 0 .577-.2c.113-.19.182-.403.2-.623l.256-1.558a.401.401 0 0 1 .086-.222.37.37 0 0 1 .27-.079h1.954c.107-.343-.236-.665-.57-.815-.336-.15-.713-.257-.892-.58-.342-.657.535-1.58.164-2.144-.37-.565-1.169-.072-1.739.229z" opacity=".3"/>
            </g>
        </g>
        <g transform="translate(28 115)">
            <path fill="url(#a)" d="M84.47 225.636a.48.48 0 0 0 .568.075 1.936 1.936 0 0 1-.569-.075z"/>
            <path fill="#FFBDC6" d="M105.95 234.025l-.563 3.054-.43 2.336-.788 4.272-7.632 5.34s-.688-.586-1.824-1.517c-3.123-2.573-9.7-7.795-14.529-10.618a16.24 16.24 0 0 0-3.99-1.843l29.755-1.024z"/>
            <path fill="#000" d="M105.95 234.025l-.563 3.054c-1.682.094-3.37.008-5.034-.256l-17.808.256c-.843-.05-1.63-.119-2.367-.194a16.24 16.24 0 0 0-3.991-1.842l29.762-1.018z" opacity=".1"/>
            <path fill="#7679B4" d="M100.353 236.323s8.907 1.524 9.413-2.292c.506-3.816-4.579-5.828-8.895-6.115-4.316-.287-30.28 1.537-30.28 1.537s-4.579 6.102 11.954 7.12l17.808-.25z"/>
            <path fill="#000" d="M105.95 234.025l-.563 3.054-.43 2.336-.788 4.272-7.632 5.34s-.688-.586-1.824-1.517c-3.123-2.573-9.7-7.795-14.529-10.618a16.24 16.24 0 0 0-3.99-1.843l29.755-1.024z" opacity=".1"/>
            <path fill="#651EFF" d="M105.95 234.025l-.563 3.054c-1.682.094-3.37.008-5.034-.256l-17.808.256c-.843-.05-1.63-.119-2.367-.194a16.24 16.24 0 0 0-3.991-1.842l29.762-1.018z" opacity=".1"/>
            <path fill="#141033" d="M100.353 236.323s8.907 1.524 9.413-2.292c.506-3.816-4.579-5.828-8.895-6.115-4.316-.287-30.28 1.537-30.28 1.537s-4.579 6.102 11.954 7.12l17.808-.25z"/>
            <path fill="#A66477" d="M73.257 110.896h46.552v55.203H73.257z"/>
            <path fill="#000" d="M73.257 110.896h46.552v55.203H73.257z" opacity=".1"/>
            <path fill="#FFBDC6" d="M18.692 205.405c-.768.194-1.743.931-2.836 2.005-4.703 4.647-11.411 15.547-11.411 15.547-8.595-10.231.918-18.32 4.997-21.1a21.811 21.811 0 0 1 1.648-1.036l7.602 4.584zM105.443 128.323s2.293 16.027 10.175 19.843c7.883 3.817-10.175 10.937-10.175 10.937l-24.678-9.156s13.991-4.579 11.193-18.064l13.485-3.56zM79.01 224.737l-.562 3.054-.431 2.336-.787 4.272-7.633 5.34s-.687-.586-1.824-1.517c-3.123-2.573-9.7-7.795-14.528-10.618a16.24 16.24 0 0 0-3.991-1.843l29.756-1.024z"/>
            <path fill="#000" d="M79.01 224.737l-.562 3.054c-1.682.094-3.37.008-5.034-.256l-17.808.256c-.843-.05-1.63-.119-2.367-.193a16.24 16.24 0 0 0-3.991-1.843l29.762-1.018z" opacity=".1"/>
            <path fill="#141033" d="M73.389 227.03s8.907 1.523 9.412-2.293c.506-3.816-4.578-5.853-8.906-6.103-4.329-.25-30.275 1.524-30.275 1.524s-4.578 6.103 11.955 7.121l17.814-.25z"/>
            <path fill="#000" d="M77.992 230.133l-.787 4.273-7.633 5.34s-.687-.587-1.824-1.518l10.094-8.276.15.181z" opacity=".1"/>
            <path fill="#651EFF" d="M128.354 288.372c-.35-.171-.704-.352-1.062-.544l-.93-1.186-12.293-15.616v.275c-.081 2.592-.968 23.267-7.876 25.172-7.377 2.036-16.284 2.542-20.35-11.193-4.066-13.735-11.449-43.754-19.081-45.534l11.317-9.288s7.496 8.745 10.556 17.164c-.112-.537-5.29-24.715-1.018-28.988h37.14s5.72 16.328 9.668 24.423c3.06 6.283 7.652 21.136 10.618 31.186 2.936 9.944-7.32 18.688-16.69 14.129z"/>
            <path fill="#000" d="M127.317 223.207c-5.728 3.391-30.912 2.01-39.119 1.461l-2.23-.162c-.243 0 .038-.138.038-.138l.23-2.31 6.103-15.516 32.692-18.938c-.662 1.993-.887 5.047-.83 8.55.162 11.231 3.116 27.053 3.116 27.053z" opacity=".1"/>
            <path fill="#F2F1F2" d="M127.317 222.45c-5.728 3.392-30.912 2.012-39.119 1.462l-2.23-.162H85.6l.406-.106 2.01-.531 4.323-17.302 32.692-18.95c-.662 1.992-.887 5.047-.83 8.55.162 11.212 3.116 27.04 3.116 27.04z"/>
            <path fill="#000" d="M124.2 195.387c-6.645 1.53-21.274 6.033-26.895 16.864-3.748 7.233-6.87 10.337-9.1 11.636l-2.23-.162.037-.137 2.011-.531 4.322-17.302 32.692-18.95c-.674 2.048-.893 5.078-.837 8.582zM11.06 200.827l7.632 4.578c-.768.194-1.743.931-2.836 2.005-.624-1.874-4.634-4.447-6.446-5.546a21.811 21.811 0 0 1 1.65-1.037zM84.632 224.044a.456.456 0 0 1-.538-.07c.175.05.356.073.538.07z" opacity=".1"/>
            <path fill="#FF8A80" d="M101.877 147.148s-6.87.762-11.705-4.322c0 0-20.35 5.853-27.22 19.082-6.871 13.229-53.68 39.175-53.68 39.175s8.12 4.578 7.377 6.87l30.781-17.807s10.937-7.889 13.991-9.669c3.055-1.78 19.844-12.717 23.404 17.046 3.56 29.762 0 26.233 0 26.233s5.09 1.78 12.492-12.492c7.402-14.272 30.275-17.551 30.275-17.551l1.25-14.99s4.54-9.945 1.061-14.092a8.807 8.807 0 0 1-2.036-4.303c-.581-3.81 0-10.163 8.12-15.44 12.492-8.12 17.301-14.754 17.301-14.754s.256-4.834-7.376-7.12c-7.633-2.286-38.67-14.754-38.67-14.754l-1.018 4.323 24.422 17.301s-12.21 9.919-21.861 9.67c-.037-.045 1.743 7.338-6.908 7.594z"/>
            <path fill="#000" d="M106.593 135.3a49.968 49.968 0 0 1-1.406-6.246l-13.485 3.585c.59 2.573.485 5.257-.306 7.776a14.503 14.503 0 0 0 15.197-5.122v.007z" opacity=".1"/>
            <circle cx="95.394" cy="125.649" r="14.503" fill="#FFBDC6"/>
            <path fill="#000" d="M103.101 92.664c4.023.456 7.851 2.186 11.811 3.123.99.31 2.044.351 3.055.119 1.536-.475 2.785-2.087 4.372-2.037.98 0 1.874.7 2.66 1.343 1.305.99 2.53 2.077 3.667 3.255 2.73 2.966 4.429 6.964 6.92 10.187 2.493 3.223 6.422 5.734 9.963 4.253-2.404 9.37-10.3 16.534-18.832 17.115-3.404.23-6.87-.475-10.187.524a8.92 8.92 0 0 1-2.573.625c-1.874 0-3.423-1.743-4.61-3.435-2.773-3.985-4.997-8.508-8.12-12.137-1.03-1.199-2.248-2.342-3.704-2.56-1.455-.219-2.798.474-4.097 1.149-2.142 1.112-4.335 2.261-5.996 4.16-1.662 1.899-2.711 4.74-2.024 7.314.369 1.387 1.218 2.636 1.25 4.091 0 2.311-2.012 4.004-2.418 6.246a24.11 24.11 0 0 0-.1 2.848c-.181 3.086-2.192 5.622-4.303 7.552-.819.756-1.73 1.561-1.968 2.73-.162.793 0 1.636-.106 2.442-.306 2.005-2.305 3.016-4.073 3.279a11.805 11.805 0 0 1-6.108-.725c2.498-1.168 3.991-4.497 3.416-7.495-.787-4.129-4.934-7.09-4.584-11.3.195-1.288.583-2.541 1.15-3.716a34.01 34.01 0 0 0 1.96-7.045 11.936 11.936 0 0 0-.118-5.622c-.531-1.617-1.612-2.904-2.536-4.272a24.247 24.247 0 0 1-2.936-6.015 4.216 4.216 0 0 1-.281-1.986 4.116 4.116 0 0 1 1.25-2.061c2.273-2.38 4.709-4.86 7.732-5.547a17.34 17.34 0 0 1 4.372-.168 51.368 51.368 0 0 0 7.627-.325c2.086-.244 5.621-.213 7.382-1.574 1.643-1.25 2.574-2.842 4.604-3.642a13.473 13.473 0 0 1 6.483-.693zM111.165 242.42s8.394 16.533 5.852 21.623M126.386 286.642l-12.292-15.616v.275s-.712-5.047 1.63-3.348c5.128 3.71 13.336 9.794 13.51 10.843.176 1.05-1.66 5.26-2.848 7.846z" opacity=".1"/>
            <g fill="#000" opacity=".1">
                <path d="M108.991 139.51s1.037 4.297-2.317 6.445c5.165-.887 5.39-4.903 5.234-6.652-.964.156-1.94.225-2.917.206zM12.333 200.065s46.808-25.946 53.68-39.175c4.927-9.494 16.8-15.185 23.11-17.645-4.604 1.542-20.094 7.457-25.915 18.663-6.871 13.229-53.679 39.175-53.679 39.175l2.804-1.018zM118.098 137.492c7.964-2.498 15.578-8.663 15.578-8.663l-24.422-17.302.555-2.373-2.336-.937-1.018 4.322 24.422 17.302a58.932 58.932 0 0 1-12.78 7.65zM118.254 196.117a60.512 60.512 0 0 1 9.575-2.417l.044-.493a64.81 64.81 0 0 0-9.619 2.91zM88.654 222.77h-.225a.456.456 0 0 1-.537-.07c.175.05.356.073.537.07.837-.488 2.093-4.285-.537-26.272-2.81-23.472-13.841-21.63-19.881-18.931 6.17-1.7 14.666-.231 17.083 19.95 2.63 21.986 1.374 25.79.537 26.27a5.621 5.621 0 0 0 3.023-1.018zM85.63 223.794a1.874 1.874 0 0 1-.536-.069.456.456 0 0 0 .537.069z"/>
            </g>
            <path fill="#A66477" d="M103.101 92.17c4.023.456 7.851 2.187 11.811 3.124.99.31 2.044.35 3.055.118 1.536-.474 2.785-2.086 4.372-2.036.98 0 1.874.7 2.66 1.343 1.305.99 2.53 2.077 3.667 3.254 2.73 2.967 4.429 6.964 6.92 10.187 2.493 3.223 6.422 5.734 9.963 4.254-2.404 9.37-10.3 16.533-18.832 17.114-3.404.231-6.87-.474-10.187.525a8.92 8.92 0 0 1-2.573.624c-1.874 0-3.423-1.742-4.61-3.435-2.773-3.985-4.997-8.507-8.12-12.136-1.03-1.2-2.248-2.342-3.704-2.56-1.455-.22-2.798.474-4.097 1.148-2.142 1.112-4.335 2.262-5.996 4.16-1.662 1.9-2.711 4.741-2.024 7.314.369 1.387 1.218 2.636 1.25 4.092 0 2.31-2.012 4.003-2.418 6.246a24.11 24.11 0 0 0-.1 2.848c-.181 3.085-2.192 5.621-4.303 7.551-.819.756-1.73 1.562-1.968 2.73-.162.793 0 1.636-.106 2.442-.306 2.005-2.305 3.017-4.073 3.28a11.805 11.805 0 0 1-6.108-.725c2.498-1.168 3.991-4.497 3.416-7.496-.787-4.128-4.934-7.089-4.584-11.299.195-1.289.583-2.542 1.15-3.716a34.01 34.01 0 0 0 1.96-7.046 11.936 11.936 0 0 0-.118-5.621c-.531-1.618-1.612-2.904-2.536-4.272a24.247 24.247 0 0 1-2.936-6.015 4.216 4.216 0 0 1-.281-1.987 4.116 4.116 0 0 1 1.25-2.06c2.273-2.38 4.709-4.86 7.732-5.547a17.34 17.34 0 0 1 4.372-.169 51.368 51.368 0 0 0 7.627-.325c2.086-.243 5.621-.212 7.382-1.574 1.643-1.249 2.574-2.842 4.604-3.641a13.473 13.473 0 0 1 6.483-.693z"/>
            <path fill="#141033" d="M414.305 251.126s-3.56-5.621-8.907-.505c-5.347 5.115-9.157 22.13-9.157 22.13s-2.036 13.74 4.835 10.174c0 0 8.12-11.449 10.43-11.955 2.311-.506 4.835-6.87 4.835-6.87l-2.036-12.974z"/>
            <path fill="#493545" d="M452.462 264.862s-4.835-2.293-6.359-.506c-1.524 1.786-6.614 19.587-6.614 19.587s-1.524 11.705 3.56 11.193c5.084-.512 13.991-18.838 13.991-18.838l-4.578-11.436z"/>
            <path fill="#141033" d="M452.462 264.862s-4.835-2.293-6.359-.506c-1.524 1.786-6.614 19.587-6.614 19.587s-1.524 11.705 3.56 11.193c5.084-.512 13.991-18.838 13.991-18.838l-4.578-11.436z" opacity=".05"/>
            <path fill="#E57B72" d="M469.251 230.265l10.937 17.045s-.762 3.816-7.377 3.054l-22.641 14.248s-1.968 17.345 4.322 15.771c1.018-.256 8.12-7.633 13.229-7.12l30.025-11.706s7.12-4.072 3.304-17.551c-3.816-13.48-16.433-44.734-16.433-44.734l-19.944 11.155 4.578 19.838z"/>
            <path fill="#FF8A80" d="M476.122 255.449c1.524 9.669-7.12 10.43-7.12 10.43s-38.926.763-43.504-.255c-4.579-1.019-10.687 1.78-10.687 1.78-7.89-4.835-1.524-16.79-1.524-16.79s16.283-.506 20.1-1.249c3.816-.743 23.147-1.799 23.147-1.799s-1.524-9.413-11.705-33.323c-6.914-16.24-1.874-25.796 2.105-30.25a16.752 16.752 0 0 1 3.492-3.072l31.292 1.524a40.6 40.6 0 0 0 .175 4.728 50.356 50.356 0 0 0 4.154 15.615c-1.78 0-13.23 10.687-13.23 10.687s1.775 32.311 3.305 41.974z"/>
            <path fill="#000" d="M415.573 251.632s16.283-.506 20.1-1.249c3.816-.743 23.147-1.78 23.147-1.78s-1.524-9.413-11.705-33.323c-6.914-16.24-1.874-25.796 2.105-30.25a16.752 16.752 0 0 1 3.492-3.072l28.994 1.411v-.905l-31.293-1.525a16.752 16.752 0 0 0-3.491 3.074c-3.96 4.46-9.02 14.01-2.105 30.25 10.206 23.89 11.717 33.303 11.717 33.303s-19.363 1.018-23.148 1.78-20.1 1.25-20.1 1.25-6.358 11.96 1.525 16.814c0 0 .237-.113.624-.275-5.24-5.39.138-15.503.138-15.503z" opacity=".1"/>
            <path fill="#493545" d="M446.353 87.548h15.771v39.937h-15.771z"/>
            <path fill="#000" d="M446.353 87.548h15.771v39.937h-15.771z" opacity=".1"/>
            <path fill="#493545" d="M471.144 81.69c.543.15 1.155.168 1.524.918.229.599.353 1.233.368 1.874l.993 12.342a6.87 6.87 0 0 0 .463 2.36c.418.838 1.111.938 1.655 1.475 1.093 1.087 1.411 3.81 1.112 6.027-.3 2.218-1.056 4.117-1.65 6.122-.849 2.873-1.41 6.102-2.604 8.525-1.193 2.424-3.36 3.748-4.76 1.712-1.399-2.036-1.211-6.146-1.473-9.513-.438-5.621-2.63-10.468-2.78-16.127-.125-4.579 1.106-8.85 1.874-13.192.55-2.98.58-6.596 1.38-9.275.669 3.185 1.943 6.214 3.898 6.752z"/>
            <path fill="#000" d="M471.144 81.69c.543.15 1.155.168 1.524.918.229.599.353 1.233.368 1.874l.993 12.342a6.87 6.87 0 0 0 .463 2.36c.418.838 1.111.938 1.655 1.475 1.093 1.087 1.411 3.81 1.112 6.027-.3 2.218-1.056 4.117-1.65 6.122-.849 2.873-1.41 6.102-2.604 8.525-1.193 2.424-3.36 3.748-4.76 1.712-1.399-2.036-1.211-6.146-1.473-9.513-.438-5.621-2.63-10.468-2.78-16.127-.125-4.579 1.106-8.85 1.874-13.192.55-2.98.58-6.596 1.38-9.275.669 3.185 1.943 6.214 3.898 6.752z" opacity=".1"/>
            <path fill="#C77485" d="M404.38 64.144l-6.103 5.091s-.724-.85-1.805-2.224c-4.24-5.415-13.991-19-7.102-21.43 6.89-2.43 12.336 10.818 14.26 16.29.487 1.387.75 2.273.75 2.273zM514.535 62.364c-2.542 3.817-6.102 0-6.102 0s-.456-.68-1.1-1.78c-2.092-3.541-6.196-11.393-3.479-14.503 3.123-3.554 10.862 8.576 11.1 14.266.073.7-.073 1.405-.419 2.017zM451.95 103.576s5.09 16.283 3.56 21.112c-1.53 4.828 10.943 10.45 10.943 10.45H480.7s5.09-10.432 3.817-13.486c-1.275-3.054-12.211-5.34-12.211-5.34s-6.359 0-6.103-17.046l-14.253 4.31z"/>
            <path fill="#000" d="M404.38 64.144l-6.103 5.091s-.724-.85-1.805-2.224c2.218-.393 5.66-3.629 7.164-5.14.481 1.387.744 2.273.744 2.273zM514.535 62.364c-2.542 3.817-6.102 0-6.102 0s-.456-.68-1.1-1.78l.082-.256c1.649 1.18 6.777.175 7.539 0a3.385 3.385 0 0 1-.419 2.036zM481.88 187.167c-7.87 3.591-33.44-2.805-34.977-3.186a16.752 16.752 0 0 1 3.491-3.073l31.293 1.524a40.6 40.6 0 0 0 .194 4.735z" opacity=".1"/>
            <path fill="#651EFF" d="M455.26 117.567s-6.102 2.036-14.753-5.853c0 0-19.363-19.081-20.612-23.66l-14.99-26.233s-6.36 6.87-8.908 5.853l16.79 29.256s3.054 5.621 5.852 7.12c0 0 20.862 26.715 21.112 32.055s9.4 19.644 9.4 19.644 3.055 23.148-2.292 27.22c0 0 29.763 7.633 36.121 2.543 0 0-2.798-28.732 0-31.8 0 0 8.65-10.174 2.798-21.367 0 0-1.249-6.102 2.037-9.157 3.285-3.054 18.063-25.696 18.063-25.696s3.56-5.09 3.56-8.395c0 0 6.615-22.385 5.622-28.238 0 0-5.853 1.25-7.633 0 0 0-8.65 26.233-9.669 27.22-1.018.987-8.12 21.624-17.551 23.917-9.432 2.292-10.937 3.304-10.937 3.304s18.313 11.449 9.413 16.533c-8.9 5.084-23.423-14.266-23.423-14.266z"/>
            <path fill="#000" d="M466.822 107.492a48.613 48.613 0 0 1-.369-7.227l-14.247 4.323c.375.949.673 1.926.893 2.923 1.63.718 3.829 2.417 5.721 2.417a12.973 12.973 0 0 0 8.002-2.436z" opacity=".1"/>
            <circle cx="458.564" cy="95.943" r="13.229" fill="#C77485"/>
            <path fill="#000" d="M442.824 75.562c-2.91.225-6.158 2.236-5.996 5.153.087 1.606 1.187 2.96 1.668 4.497 1.155 3.717-1.418 7.446-3.68 10.619-2.26 3.173-4.372 7.376-2.435 10.737a26.477 26.477 0 0 0 1.786 2.33c2.392 3.229 2.361 7.588 3.423 11.467 2.816 10.304 13.192 16.61 23.635 14.366a12.58 12.58 0 0 1-2.655-8.507c.144-2.224.862-4.547 0-6.602-1.111-2.642-4.372-3.685-6.052-5.996-1.68-2.311-1.568-5.516-.756-8.27.812-2.755 2.218-5.31 2.892-8.12.167-.82.375-1.63.625-2.43 1.174-3.335 4.684-5.271 8.12-6.102 3.435-.83 7.045-.88 10.4-1.974 3.353-1.093 6.614-3.654 7.001-7.17-2.823 1.13-5.44-1.818-8.163-3.173-4.485-2.224-9.6-.131-14.223.38-5.265.588-10.262-1.592-15.59-1.205z" opacity=".1"/>
            <path fill="#493545" d="M442.568 75.056c-2.91.225-6.159 2.236-5.996 5.153.087 1.606 1.187 2.961 1.668 4.497 1.155 3.717-1.418 7.446-3.68 10.619-2.26 3.173-4.372 7.376-2.435 10.737a26.477 26.477 0 0 0 1.786 2.33c2.392 3.229 2.361 7.589 3.423 11.467 2.816 10.304 13.192 16.611 23.635 14.366a12.58 12.58 0 0 1-2.655-8.507c.144-2.223.862-4.547 0-6.602-1.111-2.642-4.372-3.685-6.052-5.996-1.68-2.311-1.568-5.515-.756-8.27.812-2.754 2.218-5.31 2.892-8.12.167-.82.375-1.63.625-2.43 1.174-3.335 4.684-5.271 8.12-6.102 3.435-.83 7.045-.88 10.4-1.974 3.353-1.093 6.614-3.654 7.001-7.17-2.823 1.13-5.44-1.818-8.163-3.173-4.485-2.224-9.6-.131-14.223.38-5.253.582-10.23-1.623-15.59-1.205z"/>
            <path fill="#000" d="M471.668 125.33s5.297 4.73 6.34 6.815M483.13 153.57s-6.615 0-9.669.761c-3.054.762-10.43 0-10.43 0" opacity=".1"/>
            <g fill="#000" opacity=".1">
                <path d="M478.664 131.814a6.358 6.358 0 0 1-1.83.7c1.659.368 3.395.119 4.884-.7 8.907-5.09-9.412-16.533-9.412-16.533h-3.055s18.32 11.449 9.413 16.533zM515.104 61.303c0-.163-.038-.319-.063-.463a29.881 29.881 0 0 1-3.167.481c1.074.118 2.157.112 3.23-.018zM449.92 182.95c5.34-4.072 2.292-27.22 2.292-27.22s-9.157-14.247-9.413-19.587c-.256-5.34-21.111-32.055-21.111-32.055-2.799-1.524-5.853-7.12-5.853-7.12s-17.302-28.239-19.844-29.257l16.79 29.257s3.054 5.621 5.852 7.12c0 0 20.862 26.714 21.112 32.055.25 5.34 9.406 19.606 9.406 19.606s3.055 23.148-2.292 27.22c0 0 18.295 4.691 29.263 4.267-10.993-.388-26.202-4.285-26.202-4.285zM455.41 117.767l-.15-.194a4.022 4.022 0 0 1-.53.119c.236.031.461.056.68.075z"/>
            </g>
            <g fill="#000" opacity=".1">
                <path d="M515.041 60.81l-.156.03c-.269 7.814-5.69 26.171-5.69 26.171 0 3.304-3.56 8.395-3.56 8.395s-14.754 22.642-18.064 25.696c-3.31 3.055-2.036 9.157-2.036 9.157l.03.062c-.099-2.055.15-5.24 2.256-7.189 3.304-3.054 18.063-25.696 18.063-25.696s3.56-5.09 3.56-8.395c0 .038 6.615-22.348 5.597-28.232zM482.736 151.658c.381 2.161.125-.125.257 2.036 0 0 6.246-7.326 4.54-16.383.513 8.095-4.797 14.347-4.797 14.347z"/>
            </g>
            <path fill="#DEE3F3" d="M415.048 5.563h-3.923a2.748 2.748 0 1 0 0-5.49h-31.804a2.748 2.748 0 0 0 0 5.49h3.922a2.748 2.748 0 0 0 0 5.49h-5.49a2.748 2.748 0 1 0 0 5.49h31.78a2.748 2.748 0 1 0 0-5.49h5.515a2.748 2.748 0 0 0 0-5.49zM231.276 21.578h-2.985a2.092 2.092 0 1 0 0-4.179h-24.185a2.092 2.092 0 0 0 0 4.179h2.986a2.092 2.092 0 1 0 0 4.178h-4.179a2.092 2.092 0 1 0 0 4.179h24.185a2.092 2.092 0 1 0 0-4.179h4.178a2.092 2.092 0 0 0 0-4.178zM107.704 42.62h-3.922a2.748 2.748 0 1 0 0-5.49h-31.78a2.748 2.748 0 0 0 0 5.49h3.923a2.748 2.748 0 0 0 0 5.49h-5.49a2.748 2.748 0 0 0 0 5.491h31.78a2.748 2.748 0 1 0 0-5.49h5.49a2.748 2.748 0 0 0 0-5.49z" opacity=".5"/>
        </g>
        <g transform="translate(227 162)">
            <path fill="#BE6F72" d="M76.992 73.008a7.381 7.381 0 0 1-2.795 1.491l-4.764 1.713c-2.587.931-5.288 1.869-8.016 1.532-1.525-.19-8.063-1.154-9.05-2.348-1.505-1.848 3.77-4.567 5.57-6.125a7.629 7.629 0 0 0 1.129-.998c.671-.823.584-1.977.49-3.015a46.728 46.728 0 0 1-.35-7.94c.053-.632.143-1.26.27-1.882.671-3.103 3.547-1.97 5.818-1.147a45.4 45.4 0 0 1 7.895 3.434 5.67 5.67 0 0 1 1.948 1.66c.995 1.51.598 3.493.437 5.396-.14 1.477-.134 2.893.786 3.966.464.41.889.862 1.27 1.35a2.537 2.537 0 0 1-.638 2.913zM11.186 24.392c.672-2.988.82-6.07 1.626-9.032a42.394 42.394 0 0 1 2.11-5.633l2.963-6.941A4.899 4.899 0 0 1 19.282.661a4.126 4.126 0 0 1 2.305-.62c2.896-.108 5.94.795 7.915 2.934 1.975 2.138 2.6 5.599 1.028 8.047-1.881 2.948-5.987 3.542-8.44 6.024-1.565 1.586-2.324 3.791-2.788 5.97-1.222 5.667-.813 11.542-1.189 17.33-.12 1.8-.47 3.858-2.016 4.79a5.86 5.86 0 0 1-3.01.586l-4.407.074c-.74 0-3.42.466-3.91-.094-.86-.978 1.101-5.849 1.457-6.935.793-2.408 1.767-4.755 2.688-7.123.8-2.111 2.27-4.965 2.27-7.252z"/>
            <path fill="#141033" d="M102.195 236.314c-1.015 3.899-4.065 6.935-5.63 10.651-2.359 5.566-1.297 12.372-4.63 17.404a18.356 18.356 0 0 1-3.877 4.014 14.395 14.395 0 0 1-2.687 1.814 4.406 4.406 0 0 1-3.266.405c-1.418-.486-2.27-2.024-2.412-3.508a7.104 7.104 0 0 1 0-1.463 18.2 18.2 0 0 1 .672-2.962c.806-2.73 1.61-5.464 2.412-8.202.502-1.486.827-3.025.968-4.587.087-1.7-.988-3.913-.531-5.498.208-.715.987-1.35 1.344-1.95a11.31 11.31 0 0 0 1.155-2.759c.551-1.882.927-3.892 2.083-5.477a12.827 12.827 0 0 1 2.62-2.462 6.94 6.94 0 0 1 2.5-1.41 6.098 6.098 0 0 1 2.688.128c1.14.244 2.262.564 3.36.958h.06c1.343.486 2.768 1.234 3.191 2.597a4.26 4.26 0 0 1-.02 2.307zM173.685 153.383c-.04 1.045-.168 2.212-.974 2.867a3.657 3.657 0 0 1-2.365.56h-.181c-2.4 0-4.838-.135-7.11.613-1.726.574-3.312 1.626-5.112 1.835-2.48.284-4.811-1.079-7.008-2.266a69.588 69.588 0 0 0-6.363-3.036c-1.425-.587-4.334-.964-5.02-2.53a23.103 23.103 0 0 1-.59-2.252 7.504 7.504 0 0 0-.41-.992 5.715 5.715 0 0 1-.753-2.233 3.455 3.455 0 0 1 .766-2.158 6.435 6.435 0 0 1 4.401-2.274 19.41 19.41 0 0 1 5.066.27l16.542 2.388c1.277.182 2.56.364 3.817.675a7.47 7.47 0 0 1 3.279 1.443c1.955 1.646 2.116 4.54 2.015 7.09z"/>
            <path fill="#651EFF" d="M159.145 157.7c-2.015 4.27-.564 9.323-.927 14.045a35.919 35.919 0 0 1-1.787 7.784c-.78 2.51-1.559 5.026-2.553 7.46-.833 2.024-1.821 4.048-2.594 6.112-1.23 3.292-2.016 6.996-4.508 9.444-1.143 5.518-2.594 11.549-7.116 14.895-3.93 2.914-9.406 3.015-13.995 1.254-4.59-1.76-8.319-5.133-11.604-8.769-3.286-3.636-6.222-7.596-9.75-10.982a61.193 61.193 0 0 0-6.43-5.282 100.337 100.337 0 0 0-7.021-4.681 14.035 14.035 0 0 0-4.865-2.125 5.626 5.626 0 0 0-4.132.81c-.277.19-.528.416-.746.674a9.297 9.297 0 0 0-1.343 2.766c-2.822 7.38-10.395 11.17-16.442 16.203L57.81 211.9c-.752.628-1.586 1.545-1.216 2.456a2.2 2.2 0 0 0 1.156.998c3.211 1.592 6.98 2.233 9.628 4.661.968.89 1.895 2.065 3.205 2.132a6.415 6.415 0 0 0 2.016-.452 6.758 6.758 0 0 1 5.92 1.187c.47.461 1.015.837 1.612 1.113.5.133 1.02.165 1.532.095 1.43-.101 2.95-.23 4.233.411 1.283.641 2.338 2.152 3.836 2.26.733.054 1.606-.189 2.305-.121.39.012.75.213.967.54.157.37.263.76.316 1.16.276.95 1.203 1.53 1.808 2.313.927 1.201 1.061 2.834.967 4.351a18.594 18.594 0 0 1-5.886 12.426 7.276 7.276 0 0 1-3.621 2.024 3.354 3.354 0 0 1-3.588-1.6 5.555 5.555 0 0 0-.672-1.483c-1.082-1.194-3.508.074-4.502-1.201-.618-.796-.175-2.07-.766-2.894-.591-.823-2.016-.674-3.11-.722-1.284-.067-2.473-.674-3.716-.991-2.016-.526-4.126-.33-6.189-.472a37.221 37.221 0 0 1-5.093-.81l-8.546-1.754c-5.443-1.113-10.905-2.24-16.086-4.23-1.982-.755-3.977-1.686-5.375-3.305a10.14 10.14 0 0 1-2.096-4.924c-1.216-7.198 5.234-13.35 6.047-20.601.289-2.645 1.344-5.14 2.338-7.596 1.823-4.39 3.642-8.78 5.456-13.174.294-.818.677-1.601 1.142-2.334a16.902 16.902 0 0 1 2.6-2.543 17.976 17.976 0 0 0 5.262-8.662c.065-.37.22-.72.45-1.018.238-.2.5-.37.78-.506a2.569 2.569 0 0 0 1.014-3.002 1.75 1.75 0 0 0 1.599-1.632 2.83 2.83 0 0 1 .067-1.093c.161-.351.564-.526.8-.837.383-.506.248-1.214.188-1.848a6.04 6.04 0 0 1 0-1.208 6.21 6.21 0 0 1 1.8-3.77c1.606-1.586 3.89-1.174 6.108-1.552a34.887 34.887 0 0 0 6.45-2.07 63.158 63.158 0 0 1 18.216-4.23 39.629 39.629 0 0 1 18.396 2.94 10.45 10.45 0 0 1 2.372 1.35c.517.4.942.909 1.243 1.49.248.715.554 1.407.914 2.072.719.985 2.076 1.302 2.862 2.232.786.931.853 2.503 1.505 3.657.934 1.646 3.098 2.408 3.743 4.195.201.567.228 1.188.376 1.775.363 1.47 1.451 2.63 2.412 3.79a29.204 29.204 0 0 1 6.504 14.841c.215-3.42 2.506-6.449 5.375-8.338.773-.506 1.667-1.065 1.821-1.983.195-1.16-.927-2.192-.853-3.373.081-.576.313-1.12.672-1.578a49.886 49.886 0 0 1 4.206-5.309c.826-.91 1.754-2.024 1.41-3.224-.261-.898-1.175-1.424-1.679-2.206a2.815 2.815 0 0 1 .067-3.103c.47-.641 1.216-1.107 1.445-1.869.262-.897-.323-1.868-.141-2.792a3.452 3.452 0 0 1 1.384-1.802 11.506 11.506 0 0 1 3.003-1.983c1.774-.674 3.75-.425 5.63-.162 3.145.439 6.673 1.113 8.447 3.758 1.135 1.652 1.713 4.162.866 5.93z"/>
            <path fill="#000" d="M173.685 153.383c-.04 1.045-.168 2.212-.974 2.867a3.657 3.657 0 0 1-2.365.56h-.181c.275-1.403 1.975-2.206 2.27-3.63a3.22 3.22 0 0 0-.738-2.448c-1.438-1.95-3.75-3.029-6.048-3.818a39.908 39.908 0 0 0-20.197-1.518 20.28 20.28 0 0 0-5.308 1.64c-.559.35-1.097.733-1.613 1.146a5.715 5.715 0 0 1-.752-2.233 3.455 3.455 0 0 1 .766-2.158 6.435 6.435 0 0 1 4.4-2.274 19.41 19.41 0 0 1 5.067.27l16.542 2.388c1.277.182 2.56.364 3.817.675a7.47 7.47 0 0 1 3.279 1.443c1.975 1.646 2.136 4.54 2.035 7.09zM102.195 236.314c-1.015 3.899-4.065 6.935-5.63 10.651-2.359 5.566-1.297 12.372-4.63 17.404a18.356 18.356 0 0 1-3.877 4.014 14.395 14.395 0 0 1-2.687 1.814 4.406 4.406 0 0 1-3.266.405c-1.418-.486-2.27-2.024-2.412-3.508a7.104 7.104 0 0 1 0-1.463l.04.108c.585 1.416 1.539 2.9 3.044 3.15a4.109 4.109 0 0 0 3.104-1.1c2.217-1.787 3.508-4.452 4.737-7.022a29.278 29.278 0 0 0 2.271-5.821c.269-1.147.397-2.321.672-3.468 1.277-5.572 5.624-10.118 6.585-15.764.078-.389.096-.787.053-1.18a5.977 5.977 0 0 0-.577-1.471 7.306 7.306 0 0 1-.511-1.633c1.344.486 2.768 1.235 3.191 2.597a4.26 4.26 0 0 1-.107 2.287zM92.05 226.64a9.772 9.772 0 0 1-3.031 4.156 14.752 14.752 0 0 1-6.524 2.833 6.466 6.466 0 0 1-3.36-.04c-1.491-.52-2.566-1.923-4.092-2.328-1.088-.296-2.257-.033-3.36-.195-1.981-.277-3.52-1.794-5.119-3.009-4.898-3.696-11.328-4.89-16.226-8.587a1.508 1.508 0 0 1-.525-.546 1.632 1.632 0 0 1-.1-.763c.018-2.242.52-4.453 1.471-6.482a22.62 22.62 0 0 1 2.768-3.96c4.388-5.396 8.796-10.833 14.05-15.387 2.204-1.909 4.61-3.69 7.39-4.553 1.546-.479 4.597-.93 6.478-.121-.278.19-.529.417-.746.674a9.297 9.297 0 0 0-1.344 2.766c-2.828 7.386-10.4 11.177-16.448 16.21L57.81 211.9c-.752.628-1.586 1.545-1.216 2.456a2.2 2.2 0 0 0 1.156.998c3.211 1.592 6.98 2.233 9.628 4.661.968.89 1.895 2.065 3.205 2.132a6.415 6.415 0 0 0 2.016-.452 6.758 6.758 0 0 1 5.92 1.187c.47.461 1.015.837 1.612 1.113.5.133 1.02.165 1.532.095 1.43-.101 2.95-.23 4.233.411 1.283.641 2.338 2.152 3.836 2.26.746.054 1.62-.202 2.318-.121z" opacity=".1"/>
            <path fill="#3F3D56" d="M30.254 135.089c-1.276.823-2.633 1.753-3.158 3.184-.43 1.167-.228 2.502-.745 3.635-.518 1.134-1.68 1.923-1.935 3.137-.182.884.174 1.815 0 2.698-.153.46-.276.929-.37 1.404-.067 1.005.793 1.82 1.633 2.38a13.593 13.593 0 0 0 12.208 1.35c1.794-.675 3.413-1.774 5.134-2.638a10.12 10.12 0 0 1 5.53-1.349c1.108.122 2.17.526 3.278.675a3.431 3.431 0 0 0 3.07-.918 3.853 3.853 0 0 0 .673-1.598c.934-3.704.51-7.63-.377-11.353-.886-3.724-2.23-7.306-3.178-11.01-.672-2.745-1.189-5.558-2.311-8.155-1.122-2.597-3.01-5.012-5.65-6.003a1.051 1.051 0 0 0-.673-.088c-.169.071-.319.182-.436.324a20.76 20.76 0 0 0-4.61 7.784c-1.055 3.231-1.343 6.658-2.311 9.903-.417 1.349-.954 3.157-2.016 4.189-1.061 1.032-2.553 1.673-3.756 2.449z"/>
            <path fill="#000" d="M55.592 147.028a3.94 3.94 0 0 1-.706 1.6 3.398 3.398 0 0 1-3.07.91c-1.102-.135-2.164-.547-3.272-.675a10.1 10.1 0 0 0-5.53 1.35c-1.72.863-3.36 1.935-5.14 2.63a13.515 13.515 0 0 1-8.15.466 13.123 13.123 0 0 1-4.032-1.781c-.846-.553-1.7-1.35-1.633-2.381.094-.473.218-.94.37-1.397.175-.883-.175-1.814 0-2.698.255-1.214 1.424-2.024 1.935-3.144.51-1.12.316-2.462.74-3.629.523-1.437 1.887-2.36 3.164-3.19 1.276-.83 2.795-1.464 3.816-2.47.132-.156.251-.323.356-.498a12.167 12.167 0 0 0 1.6-3.717c.987-3.252 1.256-6.672 2.304-9.91a20.8 20.8 0 0 1 4.616-7.777c.112-.145.26-.257.43-.324.227-.047.463-.018.672.08 2.634 1 4.522 3.414 5.65 6.011 1.13 2.597 1.607 5.397 2.312 8.149.94 3.703 2.291 7.299 3.178 11.016.887 3.716 1.324 7.67.39 11.38zM75.574 64.758c-6.543 2.088-13.6-1.112-16.367-7.42.052-.632.142-1.26.268-1.882.672-3.103 3.548-1.97 5.82-1.147a45.4 45.4 0 0 1 7.894 3.434 5.67 5.67 0 0 1 1.948 1.66c.995 1.49.598 3.473.437 5.355z" opacity=".1"/>
            <ellipse cx="71.516" cy="51.227" fill="#BE6F72" rx="13.438" ry="13.491"/>
            <path fill="#000" d="M105.346 154.464c-4.031-.236-9.306 2.029-13.297 2.366-5.046.459-7.334 2.105-12.394 2.36-1.948.102-5.574-.787-7.496-.43-2.486.466-4.077.358-6.61.574-2.197.189-4.367-.64-6.564-.553-1.536.092-3.034.52-4.388 1.255a6.21 6.21 0 0 1 1.801-3.771c1.606-1.585 3.89-1.174 6.108-1.552a34.887 34.887 0 0 0 6.45-2.07 63.158 63.158 0 0 1 18.215-4.23c6.274-.501 12.577.5 18.39 2.92a10.45 10.45 0 0 1 2.372 1.35c.037.118.053.241.047.364 0 1.12-1.512 1.478-2.634 1.417z" opacity=".1"/>
            <path fill="#E3E8F4" d="M65.3 75.862l-5.442-2.024-2.297-.85a11.078 11.078 0 0 0-2.93-.782c-2.634-.203-5.113 1.558-6.517 3.804-1.405 2.246-1.936 4.924-2.386 7.535a207.149 207.149 0 0 0-1.572 10.753 70.516 70.516 0 0 0-.705 9.808c.154 8.35 1.914 16.587 3.85 24.716a87.244 87.244 0 0 1 2.143 10.962c.161 1.524.235 3.055.396 4.587.175 1.72.457 3.42.74 5.126l1.619 9.694c2.015-1.437 4.307-2.698 6.786-2.773 2.197-.08 4.374.742 6.564.554 2.52-.21 4.75-1.727 7.237-2.193 1.921-.357 3.904-.074 5.859-.168 5.053-.257 9.695-3.063 14.735-3.515 3.997-.364 7.968.77 11.973 1.005 1.115.068 2.627-.29 2.627-1.416 0-.783-.78-1.302-1.458-1.694a71.898 71.898 0 0 1-9.104-6.523c-2.648-2.104-5.335-4.263-7.156-7.11-4.388-6.846-2.882-16.108-6.625-23.333-3.044-5.869 0-13.559 0-20.176 0-3.299 0-6.638-.773-9.842a41.862 41.862 0 0 0-1.8-5.262l-2.614-6.644a1.087 1.087 0 0 0-.31-.506 1.025 1.025 0 0 0-.597-.182 6.286 6.286 0 0 0-4.34 1.396c-1.23 1.005-2.016 2.449-3.226 3.494-1.323 1.154-3.03 2.166-4.676 1.559z"/>
            <path fill="#651EFF" d="M74.083 72.03c.43-1.848.893-3.77 2.123-5.214 1.23-1.444 3.474-2.206 5.06-1.174 1.8 1.174 1.874 3.886 3.412 5.397 1.344 1.295 3.36 1.396 5.188 1.565 3.286.3 6.513 1.063 9.588 2.266.6.187 1.145.515 1.592.958.84.958.672 2.428 1.089 3.622.57 1.538 2.15 2.517 2.761 4.048.672 1.7 0 3.602-.564 5.35-1.015 3.136-1.653 6.394-2.64 9.544-.989 3.15-2.393 6.253-4.704 8.628-1.022 1.052-2.54 2.024-3.884 1.396l-.517 3.744a6.386 6.386 0 0 0 0 2.395c.16.807.765 1.452 1.559 1.66.1.58.712.856 1.209 1.173a3.383 3.383 0 0 1 .853 4.722c-.423.573-1.048 1.025-1.25 1.707-.302.984.417 2.023 1.29 2.563.874.54 1.902.79 2.789 1.309 1.841 1.065 2.829 3.163 3.46 5.2.47 1.539.86 3.205 2.016 4.324.443.425.974.75 1.398 1.194a5.131 5.131 0 0 1 1.202 3.097 6.165 6.165 0 0 1-.873 4.047c-1.344 1.93-3.85 2.503-6.047 3.373-3.568 1.47-6.504 4.101-9.649 6.34a10.276 10.276 0 0 1-4.4 2.079c-2.178.29-4.321-.675-6.512-.763-1.31.013-2.614.185-3.883.513l-4.032.877c.215-3.137-1.505-6.28-2.465-9.269-1.815-5.626-2.15-11.643-1.72-17.538.43-5.896 1.626-11.71 2.808-17.499.827-4.047.746-8.277 2.016-12.21 1.19-3.784 2.889-7.42 3.514-11.359 1.021-6.375-3.225-11.778-1.787-18.065z"/>
            <path fill="#651EFF" d="M104.647 84.503a7.44 7.44 0 0 1 .773 2.192 7.923 7.923 0 0 0 1.7 3.211 11.042 11.042 0 0 1 1.787 2.024c.618 1.174.383 2.604.672 3.885.336 1.397 1.31 2.611 1.451 4.048.005.411.043.822.115 1.227.436 1.633 2.828 2.024 3.36 3.657.355 1.059-.256 2.212-.142 3.325.084.344.104.701.06 1.053-.151.397-.418.74-.765.984a15.53 15.53 0 0 0-4.421 7.9c-.648 3-.988 6.057-1.015 9.126l-2.627-3.487a4 4 0 0 0-1.048-1.08c-.336-.202-.726-.303-1.069-.505-.994-.567-1.384-1.768-1.767-2.847a26.333 26.333 0 0 0-4.703-8.176c-1.068-1.261-2.311-2.53-2.547-4.168a7.706 7.706 0 0 1 .121-2.254c.672-4.418 1.391-8.944 3.535-12.864 1-1.834 2.297-3.494 3.258-5.356.645-1.234 1.552-4.445 3.272-1.895zM38.364 88.746a3.092 3.092 0 0 1-.416 1.619c-.524.61-1.346.87-2.124.674a6.13 6.13 0 0 1-2.123-.998 3888.781 3888.781 0 0 1-5.617-3.568 31.091 31.091 0 0 1-3.017-2.078 26.984 26.984 0 0 1-3.984-4.19c-3.266-4.046-6.155-8.438-9.79-12.141-.987-1.012-2.015-1.983-2.97-3.043a44.388 44.388 0 0 1-3.587-4.843c-1.049-1.558-2.137-3.285-1.956-5.147.108-1.052.612-2.024.76-3.07.147-1.045-.249-2.32-1.257-2.603-.119-.03-.24-.05-.363-.06a2.732 2.732 0 0 1-.584-.129c-.934-.391-.793-1.841-.121-2.604.672-.762 1.666-1.187 2.278-2.023.284-.497.603-.972.954-1.424a3.63 3.63 0 0 1 1.565-.789 24.136 24.136 0 0 1 11.926-.452c.672.148 1.438.418 1.64 1.073.08.318.08.652 0 .971a21.803 21.803 0 0 0-.51 4.047c-.002.284.014.568.046.85.316 2.86 2.164 5.282 3.964 7.515a723.885 723.885 0 0 0 6.484 7.926 31.096 31.096 0 0 0 3.931 4.216c1.344 1.12 3.084 2.024 4.132 3.46.853 1.161.578 2.746.672 4.143.313 4.216.335 8.449.067 12.668z"/>
            <path fill="#BE6F72" d="M123.696 116.889a14.152 14.152 0 0 0 1.787-2.125 14.045 14.045 0 0 0 1.344-3.015l3.897-11.097c.618-1.754 1.236-3.514 2.016-5.221.806-1.842 1.76-3.616 2.64-5.397a72.164 72.164 0 0 0 5.22-14.671 5.458 5.458 0 0 0 .21-2.152c-.189-1.167-1.07-2.078-1.909-2.908a13.981 13.981 0 0 0-2.862-2.374 4.688 4.688 0 0 0-3.588-.58c-1.72.506-2.802 2.273-3.199 4.047-.396 1.774-.248 3.589-.416 5.397-.242 2.59-1.129 5.093-1.344 7.69-.114 1.504 0 3.022-.181 4.52a16.548 16.548 0 0 1-2.016 5.578 36.19 36.19 0 0 1-8.688 10.726 13.993 13.993 0 0 0-2.607 2.516 8.228 8.228 0 0 0-1.256 3.143 7.264 7.264 0 0 0 .544 5.107c1.095 1.875 3.198 2.698 5.207 3.116 2.715.567 3.34-.364 5.2-2.3z"/>
            <path fill="#3F3D56" d="M71.597 31.678a6.263 6.263 0 0 1 6.087-3.312 6.729 6.729 0 0 1 5.281 4.762c.316 1.005.444 2.118.995 2.982.833 1.301 2.378 1.68 3.534 2.624a7.116 7.116 0 0 1 2.257 5.018 15.24 15.24 0 0 1-.893 5.673 18.093 18.093 0 0 0-.672 2.375c-.135.782-.148 1.578-.269 2.36a7.695 7.695 0 0 1-3.084 5.107c-.236.193-.53.3-.833.304-.524-.06-.847-.675-1.042-1.228-1.068-3.096-.813-6.88-2.781-9.35a10.182 10.182 0 0 0-3.185-2.38 4.095 4.095 0 0 0-1.626-.614 4.27 4.27 0 0 0-2.352.863 14.612 14.612 0 0 1-4.65 2.064 5.694 5.694 0 0 1-4.803-1.039c-.928-.769-1.606-1.922-2.634-2.522-1.028-.6-2.103-.567-3.118-.979a4.629 4.629 0 0 1-2.655-3.076 4.649 4.649 0 0 1 .787-3.993c.672-.81 1.667-1.268 2.265-2.165.772-1.16.705-2.753 1.075-4.142a5.693 5.693 0 0 1 3.42-3.92 4.79 4.79 0 0 1 4.784 1.006c.671.607 1.209 1.39 1.867 2.023a5.36 5.36 0 0 0 4.972 1.35"/>
            <path fill="#000" d="M82.643 130.967a2.624 2.624 0 0 0-.713 2.86c.148.317 7.082-1.025 7.815-1.126 1.827-.263 5.032-.135 6.262-1.815 2.19-2.975-4.596-2.314-5.84-2.206-2.364.203-5.724.526-7.524 2.287z" opacity=".1"/>
            <path fill="#3F3D56" d="M19.564 43.948a21.803 21.803 0 0 0-.51 4.047c-2.016.412-4.112-.263-6.047-.937L7.45 45.155a1.575 1.575 0 0 0-2.123.398c-.894.931-2.123 2.699-3.36 3.744a2.732 2.732 0 0 1-.584-.128c-.934-.391-.793-1.841-.121-2.604.672-.762 1.666-1.187 2.278-2.023.284-.497.603-.972.954-1.424a3.63 3.63 0 0 1 1.565-.789 24.136 24.136 0 0 1 11.926-.452c.672.148 1.438.418 1.64 1.073.065.332.045.676-.06.998z"/>
            <path fill="#000" d="M19.564 43.948a21.803 21.803 0 0 0-.51 4.047c-2.016.412-4.112-.263-6.047-.937L7.45 45.155a1.575 1.575 0 0 0-2.123.398c-.894.931-2.123 2.699-3.36 3.744a2.732 2.732 0 0 1-.584-.128c-.934-.391-.793-1.841-.121-2.604.672-.762 1.666-1.187 2.278-2.023.284-.497.603-.972.954-1.424a3.63 3.63 0 0 1 1.565-.789 24.136 24.136 0 0 1 11.926-.452c.672.148 1.438.418 1.64 1.073.065.332.045.676-.06.998zM70.394 172.014c.967.324 2.016.796 2.345 1.768l-7.78-1.984-4.032-1.032c-.712-.182-3.266-.39-3.736-.95-.672-.824 1.713-.257 2.143-.196 1.304.195 2.607.398 3.904.634 2.446.438 4.797 1.16 7.156 1.76zM73.41 178.929c-.671-.452-2.6-.398-3.426-.594-1.21-.29-2.399-.675-3.588-1.046-2.412-.789-4.804-1.686-7.283-2.266-.457-.101-2.016-.128-1.942-.708.074-.58 1.559-.783 1.928-.81 2.197-.162 4.939.87 6.981 1.606a30.723 30.723 0 0 1 7.33 3.818zM68.479 165.849c-2.466-.675-4.703-2.213-7.243-2.51a2.935 2.935 0 0 1-1.848-.566 2.188 2.188 0 0 1-.598-1.08c1.7-.087 3.675.635 5.22 1.316.851.366 1.67.804 2.446 1.309.565.344 1.411 1.335 2.023 1.53z" opacity=".1"/>
            <path fill="#651EFF" d="M115.485 105.448c-.862 5.798 2.647 11.351 8.238 13.04-.33 1.598-1.976 2.482-3.138 3.622-1.64 1.599-2.486 3.993-4.421 5.208-2.157 1.349-4.932.823-7.391.256a.9.9 0 0 1-.578-.304.832.832 0 0 1-.107-.263c-.813-2.988-1.344-6.179-.511-9.174.672-2.55 2.284-4.722 3.574-6.975 1.29-2.253 1.411-4.668 4.334-5.41zM55.41 66.769c-2.6.19-5.126.962-7.39 2.26-1.506.863-3.05 2.023-4.771 1.814-1.015-.115-2.016-.675-3.003-.405a5.888 5.888 0 0 0-1.54.918 1.735 1.735 0 0 1-1.692.27l-.672 9.335c-.255 3.549-.504 7.171.343 10.632.436 1.767 1.397 3.372 1.505 5.167.107 1.794-.054 3.636.073 5.45.121 1.68.491 3.333.585 5.012.188 3.17-.591 6.314-1.344 9.397-1.135 4.547-1.82 9.194-4.031 13.31-.618 1.14-1.344 2.3-1.344 3.595 0 .162 0 .317.04.472-.672.37-1.296.722-1.868 1.086-1.276.83-2.64 1.754-3.164 3.19-.424 1.168-.229 2.503-.74 3.63-.51 1.126-1.68 1.929-1.934 3.143-.182.884.168 1.815 0 2.698-.153.458-.276.924-.37 1.397-.067 1.012.786 1.828 1.633 2.381a13.123 13.123 0 0 0 4.031 1.78l4.011-15.986a129.174 129.174 0 0 0 9.091-21.229 45.754 45.754 0 0 1 2.627-6.988c.76-1.275 1.434-2.6 2.016-3.967.612-1.7.672-3.541.968-5.336a37.47 37.47 0 0 1 1.579-6.158c.725-2.166 1.565-4.324 1.713-6.598.222-3.251-.954-6.685.296-9.693a12.895 12.895 0 0 1 2.049-3.096c1.733-2.132 3.312-4.365 5.046-6.497-.9-.964-2.399-1.065-3.743-.984z"/>
            <path fill="#000" d="M74.345 29.458l-.84.061-.094.067a4.94 4.94 0 0 0 .934-.128zM89.718 43.462a18.235 18.235 0 0 1-.86 3.94 18.093 18.093 0 0 0-.672 2.374c-.135.783-.148 1.579-.269 2.361a7.695 7.695 0 0 1-3.084 5.107c-.236.193-.53.3-.833.303-.524-.06-.847-.674-1.042-1.227-1.068-3.097-.813-6.881-2.781-9.35a10.182 10.182 0 0 0-3.185-2.381 4.095 4.095 0 0 0-1.626-.614 4.27 4.27 0 0 0-2.352.863 14.612 14.612 0 0 1-4.65 2.065 5.694 5.694 0 0 1-4.803-1.04c-.928-.768-1.606-1.922-2.634-2.522-1.028-.6-2.103-.567-3.118-.978a4.602 4.602 0 0 1-2.62-3.009 1.943 1.943 0 0 1-.054-.256 4.74 4.74 0 0 0 .054 2.28 4.602 4.602 0 0 0 2.62 3.008c1.015.412 2.157.419 3.118.979.96.56 1.706 1.753 2.634 2.522a5.694 5.694 0 0 0 4.804 1.04 14.612 14.612 0 0 0 4.65-2.065 4.27 4.27 0 0 1 2.35-.863c.58.086 1.135.295 1.627.614a10.184 10.184 0 0 1 3.138 2.401c1.968 2.469 1.713 6.253 2.781 9.35.195.56.518 1.166 1.042 1.227a1.34 1.34 0 0 0 .88-.324 7.695 7.695 0 0 0 3.09-5.126c.122-.783.135-1.579.27-2.361.17-.806.394-1.6.671-2.375a15.24 15.24 0 0 0 .894-5.673c-.013-.08-.027-.175-.04-.27z"/>
        </g>
    </g>
</svg>
