<svg xmlns="http://www.w3.org/2000/svg" xmlns:xlink="http://www.w3.org/1999/xlink" width="320" height="252" viewBox="0 0 320 252">
    <defs>
        <path id="a" d="M1.6 0h4.806L0 6.405V1.6A1.6 1.6 0 0 1 1.6 0z"/>
        <path id="b" d="M12.81-.002v12.813H1.283c-.707 0-1.28-.717-1.28-1.602V1.6c0-.885.573-1.602 1.28-1.602h11.529z"/>
        <path id="d" d="M12.813 12.81L0 25.618h-1.602a1.601 1.601 0 0 1-1.601-1.601V14.41c0-.885.717-1.602 1.601-1.602h14.415z"/>
        <path id="f" d="M12.753.047v12.706H1.233c-.707 0-1.28-.711-1.28-1.588v-9.53c0-.877.573-1.588 1.28-1.588h11.52z"/>
        <path id="h" d="M12.706 12.8L0 25.6h-1.588A1.594 1.594 0 0 1-3.176 24v-9.6c0-.884.71-1.6 1.588-1.6h14.294z"/>
        <path id="j" d="M1.6 0h4.753L0 6.4V1.6A1.6 1.6 0 0 1 1.6 0z"/>
    </defs>
    <g fill="none" fill-rule="evenodd">
        <path fill="#0F007A" d="M153 224c128-21 178.399-29.86 164-84-25-94-82-60-180-79S9.54 73.017 1 155c-10 96 69.343 82.561 152 69z"/>
        <path fill="#1BE9B6" d="M97.78 1.12l12.814 22.194a1.6 1.6 0 0 1-.585 2.186l-8.322 4.805a1.6 1.6 0 0 1-2.186-.586L86.687 7.524a1.6 1.6 0 0 1 .586-2.185L95.595.534a1.6 1.6 0 0 1 2.185.586z"/>
        <g stroke="#F9FAFC" stroke-width=".8" transform="rotate(60 46.533 84.44)">
            <ellipse cx="12.813" cy="4.804" rx="2.402" ry="2.402"/>
            <path d="M3.581.4A3.604 3.604 0 0 1 .4 3.58v2.447a3.604 3.604 0 0 1 3.181 3.18h18.463a3.604 3.604 0 0 1 3.181-3.18V3.58A3.604 3.604 0 0 1 22.044.4H3.58z"/>
        </g>
        <path fill="#1BE9B6" d="M248.327 55.56l12.814 22.194a1.6 1.6 0 0 1-.585 2.186l-8.322 4.805a1.6 1.6 0 0 1-2.186-.586l-12.814-22.195a1.6 1.6 0 0 1 .585-2.185l8.322-4.805a1.6 1.6 0 0 1 2.186.586z"/>
        <g stroke="#F9FAFC" stroke-width=".8" transform="rotate(60 74.66 242.038)">
            <ellipse cx="12.813" cy="4.804" rx="2.402" ry="2.402"/>
            <path d="M3.581.4A3.604 3.604 0 0 1 .4 3.58v2.447a3.604 3.604 0 0 1 3.181 3.18h18.463a3.604 3.604 0 0 1 3.181-3.18V3.58A3.604 3.604 0 0 1 22.044.4H3.58z"/>
        </g>
        <path fill="#1BE9B6" d="M82.835 92.008l-13.58 21.734a1.6 1.6 0 0 1-2.205.509l-8.15-5.092a1.6 1.6 0 0 1-.509-2.205L71.972 85.22a1.6 1.6 0 0 1 2.205-.509l8.15 5.092a1.6 1.6 0 0 1 .508 2.205z"/>
        <g stroke="#F9FAFC" stroke-width=".8" transform="rotate(122 15.473 68.162)">
            <ellipse cx="12.813" cy="4.804" rx="2.402" ry="2.402"/>
            <path d="M3.581.4A3.604 3.604 0 0 1 .4 3.58v2.447a3.604 3.604 0 0 1 3.181 3.18h18.463a3.604 3.604 0 0 1 3.181-3.18V3.58A3.604 3.604 0 0 1 22.044.4H3.58z"/>
        </g>
        <path fill="#1BE9B6" d="M87.146 194.439l6.633 24.755a1.6 1.6 0 0 1-1.132 1.96l-4.64 1.243-7.845-4.53-5.39-20.113a1.6 1.6 0 0 1 1.132-1.96l9.282-2.487a1.6 1.6 0 0 1 1.96 1.132z"/>
        <g stroke="#F9FAFC" stroke-width=".8" transform="rotate(75 -84.17 153.205)">
            <ellipse cx="12.813" cy="4.804" rx="2.402" ry="2.402"/>
            <path d="M3.581.4A3.604 3.604 0 0 1 .4 3.58v2.447a3.604 3.604 0 0 1 3.181 3.18h18.463a3.604 3.604 0 0 1 3.181-3.18V3.58A3.604 3.604 0 0 1 22.044.4H3.58z"/>
        </g>
        <use fill="#009175" transform="rotate(75 -97.71 164.37)" xlink:href="#a"/>
        <g transform="rotate(45 -161.938 405.822)">
            <mask id="c" fill="#fff">
                <use xlink:href="#b"/>
            </mask>
            <use fill="#009175" transform="rotate(90 6.406 6.405)" xlink:href="#b"/>
            <ellipse cx="6.406" cy="14.411" stroke="#E9ECEF" stroke-width=".8" mask="url(#c)" rx="2.402" ry="2.402" transform="rotate(90 6.406 14.41)"/>
            <path stroke="#E9ECEF" stroke-width=".8" d="M-2.825 10.007a3.604 3.604 0 0 1-3.181 3.18v2.447a3.604 3.604 0 0 1 3.18 3.18h18.464a3.604 3.604 0 0 1 3.18-3.18v-2.447a3.604 3.604 0 0 1-3.18-3.18H-2.825z" mask="url(#c)" transform="rotate(90 6.406 14.41)"/>
            <mask id="e" fill="#fff">
                <use xlink:href="#d"/>
            </mask>
            <use fill="#1BE9B6" xlink:href="#d"/>
            <path stroke="#F9FAFC" stroke-width=".8" d="M2.78 14.81A3.604 3.604 0 0 1-.4 17.992v2.446a3.604 3.604 0 0 1 3.18 3.18h18.463a3.604 3.604 0 0 1 3.181-3.18v-2.446a3.604 3.604 0 0 1-3.18-3.18H2.78z" mask="url(#e)"/>
        </g>
        <g transform="rotate(-20 178.369 -578.153)">
            <path fill="#D09C50" d="M0 4.804V1.6h12.813v3.203c0 .884-2.869 1.6-6.407 1.6S0 5.689 0 4.805z"/>
            <ellipse cx="6.406" cy="1.601" fill="#FFC166" rx="6.406" ry="1.601"/>
        </g>
        <g transform="rotate(-20 733.506 -454.245)">
            <path fill="#D09C50" d="M0 4.804V1.6h12.813v3.203c0 .884-2.869 1.6-6.407 1.6S0 5.689 0 4.805z"/>
            <ellipse cx="6.406" cy="1.601" fill="#FFC166" rx="6.406" ry="1.601"/>
        </g>
        <g transform="rotate(66 28.735 224.718)">
            <path fill="#D09C50" d="M0 4.804V1.6h12.813v3.203c0 .884-2.869 1.6-6.407 1.6S0 5.689 0 4.805z"/>
            <ellipse cx="6.406" cy="1.601" fill="#FFC166" rx="6.406" ry="1.601"/>
        </g>
        <g transform="rotate(66 -45.65 137.077)">
            <path fill="#D09C50" d="M0 4.804V1.6h12.813v3.203c0 .884-2.869 1.6-6.407 1.6S0 5.689 0 4.805z"/>
            <ellipse cx="6.406" cy="1.601" fill="#FFC166" rx="6.406" ry="1.601"/>
        </g>
        <g>
            <path fill="#1BE9B6" d="M133.645 222.314l11.526 22.62a1.6 1.6 0 0 1-.699 2.153l-8.554 4.358a1.6 1.6 0 0 1-2.152-.699l-11.526-22.621a1.6 1.6 0 0 1 .7-2.152l8.553-4.358a1.6 1.6 0 0 1 2.152.699z"/>
            <g stroke="#F9FAFC" stroke-width=".8" transform="rotate(63 -115.869 219.392)">
                <ellipse cx="12.706" cy="4.8" rx="2.382" ry="2.4"/>
                <path d="M3.555.4A3.59 3.59 0 0 1 .4 3.578v2.444A3.59 3.59 0 0 1 3.555 9.2h18.302a3.59 3.59 0 0 1 3.155-3.178V3.578A3.59 3.59 0 0 1 21.857.4H3.555z"/>
            </g>
            <g transform="rotate(-31 412.42 -155.487)">
                <path fill="#D09C50" d="M0 4.8V1.6h12.706v3.2c0 .884-2.844 1.6-6.353 1.6S0 5.684 0 4.8z"/>
                <ellipse cx="6.353" cy="1.6" fill="#FFC166" rx="6.353" ry="1.6"/>
            </g>
            <g transform="rotate(152 79.034 42.42)">
                <mask id="g" fill="#fff">
                    <use xlink:href="#f"/>
                </mask>
                <use fill="#009175" transform="rotate(90 6.353 6.4)" xlink:href="#f"/>
                <ellipse cx="6.353" cy="14.4" stroke="#E9ECEF" stroke-width=".8" mask="url(#g)" rx="2.4" ry="2.382" transform="rotate(90 6.353 14.4)"/>
                <path stroke="#E9ECEF" stroke-width=".8" d="M-2.798 10a3.59 3.59 0 0 1-3.155 3.178v2.444A3.59 3.59 0 0 1-2.798 18.8h18.302a3.59 3.59 0 0 1 3.155-3.178v-2.444A3.59 3.59 0 0 1 15.504 10H-2.798z" mask="url(#g)" transform="rotate(90 6.353 14.4)"/>
                <mask id="i" fill="#fff">
                    <use xlink:href="#h"/>
                </mask>
                <use fill="#1BE9B6" xlink:href="#h"/>
                <ellipse cx="11.912" cy="19.2" stroke="#F9FAFC" stroke-width=".8" mask="url(#i)" rx="2.382" ry="2.4"/>
                <path stroke="#F9FAFC" stroke-width=".8" d="M2.76 14.8a3.59 3.59 0 0 1-3.154 3.178v2.444A3.59 3.59 0 0 1 2.76 23.6h18.302a3.59 3.59 0 0 1 3.155-3.178v-2.444a3.59 3.59 0 0 1-3.155-3.178H2.761z" mask="url(#i)"/>
            </g>
            <g transform="rotate(-17 390.114 -439.092)">
                <path fill="#D09C50" d="M0 4.8V1.6h12.706v3.2c0 .884-2.844 1.6-6.353 1.6S0 5.684 0 4.8z"/>
                <ellipse cx="6.353" cy="1.6" fill="#FFC166" rx="6.353" ry="1.6"/>
            </g>
            <g>
                <path fill="#1BE9B6" d="M174.104 137.03l-3.533 25.142a1.6 1.6 0 0 1-1.807 1.361l-4.753-.668-5.454-7.182 2.872-20.434a1.6 1.6 0 0 1 1.807-1.362l9.507 1.336a1.6 1.6 0 0 1 1.361 1.807z"/>
                <g stroke="#F9FAFC" stroke-width=".8" transform="rotate(98 26.803 143.383)">
                    <ellipse cx="12.706" cy="4.8" rx="2.382" ry="2.4"/>
                    <path d="M3.555.4A3.59 3.59 0 0 1 .4 3.578v2.444A3.59 3.59 0 0 1 3.555 9.2h18.302a3.59 3.59 0 0 1 3.155-3.178V3.578A3.59 3.59 0 0 1 21.857.4H3.555z"/>
                </g>
                <use fill="#009175" transform="rotate(98 14.393 149.957)" xlink:href="#j"/>
            </g>
        </g>
    </g>
</svg>
