<?xml version="1.0" encoding="UTF-8"?>
<svg xmlns="http://www.w3.org/2000/svg" xmlns:xlink="http://www.w3.org/1999/xlink" width="32pt" height="32pt" viewBox="0 0 32 32" version="1.1">
<defs>
<clipPath id="clip1">
  <path d="M 15.199219 10.800781 L 16.800781 10.800781 L 16.800781 17.199219 L 15.199219 17.199219 Z M 15.199219 10.800781 "/>
</clipPath>
<clipPath id="clip3">
  <path d="M 0.199219 0.800781 L 1.800781 0.800781 L 1.800781 7.199219 L 0.199219 7.199219 Z M 0.199219 0.800781 "/>
</clipPath>
<clipPath id="clip2">
  <rect x="0" y="0" width="2" height="8"/>
</clipPath>
<g id="surface5" clip-path="url(#clip2)">
<g clip-path="url(#clip3)" clip-rule="nonzero">
<rect x="0" y="0" width="2" height="8" style="fill:rgb(100%,100%,100%);fill-opacity:1;stroke:none;"/>
</g>
</g>
<clipPath id="clip4">
  <path d="M 14 18 L 18 18 L 18 21 L 14 21 Z M 14 18 "/>
</clipPath>
<clipPath id="clip5">
  <path d="M 16 20.800781 C 15.335938 20.800781 14.800781 20.261719 14.800781 19.601562 C 14.800781 18.9375 15.335938 18.398438 16 18.398438 C 16.664062 18.398438 17.199219 18.9375 17.199219 19.601562 C 17.199219 20.261719 16.664062 20.800781 16 20.800781 Z M 16 20.800781 "/>
</clipPath>
<clipPath id="clip7">
  <path d="M 2 2.800781 C 1.335938 2.800781 0.800781 2.261719 0.800781 1.601562 C 0.800781 0.9375 1.335938 0.398438 2 0.398438 C 2.664062 0.398438 3.199219 0.9375 3.199219 1.601562 C 3.199219 2.261719 2.664062 2.800781 2 2.800781 Z M 2 2.800781 "/>
</clipPath>
<clipPath id="clip6">
  <rect x="0" y="0" width="4" height="3"/>
</clipPath>
<g id="surface8" clip-path="url(#clip6)">
<g clip-path="url(#clip7)" clip-rule="evenodd">
<rect x="0" y="0" width="4" height="3" style="fill:rgb(100%,100%,100%);fill-opacity:1;stroke:none;"/>
</g>
</g>
</defs>
<g id="surface1">
<g clip-path="url(#clip1)" clip-rule="nonzero">
<use xlink:href="#surface5" transform="matrix(1,0,0,1,15,10)"/>
</g>
<path style="fill:none;stroke-width:1.6;stroke-linecap:butt;stroke-linejoin:miter;stroke:rgb(100%,100%,100%);stroke-opacity:1;stroke-miterlimit:10;" d="M 1.174219 17.599219 C 0.166406 17.599219 -0.282813 16.911719 0.185937 16.071875 L 8.752344 0.630469 C 9.217187 -0.209375 9.982812 -0.209375 10.447656 0.630469 L 19.014063 16.071875 C 19.482813 16.911719 19.033594 17.599219 18.021875 17.599219 Z M 1.174219 17.599219 " transform="matrix(1,0,0,1,6.4,5.6)"/>
<g clip-path="url(#clip4)" clip-rule="nonzero">
<g clip-path="url(#clip5)" clip-rule="evenodd">
<use xlink:href="#surface8" transform="matrix(1,0,0,1,14,18)"/>
</g>
</g>
</g>
</svg>
