<svg width="343" height="300" xmlns="http://www.w3.org/2000/svg"><g fill="none" fill-rule="evenodd"><path d="M172.303 300C289.894 300 343 264.02 343 181.563c0-82.456-127.401-128.432-205.036-50.473-77.635 77.958-123.42 32.982-136.359 80.457C-11.334 259.022 54.711 300 172.303 300z" fill="#009175"/><path d="M297 274.793C269.031 291.967 227.866 300 172.303 300c-53.137 0-95.749-8.367-125.303-21.92V180h-2a2 2 0 01-2-2v-36a2 2 0 012-2h2v-8h-2a2 2 0 01-2-2V94a2 2 0 012-2h2V32C47 14.327 61.327 0 79 0h186c17.673 0 32 14.327 32 32v60h2a2 2 0 012 2v76a2 2 0 01-2 2h-2v102.793z" fill="#141033"/><path d="M285 281.227C257.701 293.982 220.395 300 172.303 300c-46.328 0-84.655-6.36-113.303-16.972V36c0-13.255 10.745-24 24-24h178c13.255 0 24 10.745 24 24v245.227z" fill="#FFF"/><path d="M169 299.99c-39.2-.259-72.548-5.11-99-13.246V279a4 4 0 014-4h91a4 4 0 014 4v20.99zM273 286.17c-25.553 9.244-58.394 13.707-99 13.827V279a4 4 0 014-4h91a4 4 0 014 4v7.17z" fill="#E9ECEF"/><g transform="translate(71 31)"><rect fill="#E9ECEF" x="63" width="76.355" height="12.315" rx="2.463"/><path d="M43.25 160.144v-9.986h2.093v4.003h4.23v-4.003h2.093v9.986h-2.094v-4.102h-4.229v4.102H43.25zm11.4.113c-1.273 0-2.206-.679-2.206-1.853 0-.92.58-1.541 2.32-1.867l.593-.113c.623-.113.877-.254.877-.608 0-.495-.594-.552-.905-.552-.905 0-1.146.524-1.287.877l-1.655-.778c.028-.17.622-1.782 3.027-1.782 1.556 0 2.815.65 2.815 2.32v2.433c0 .254.113.31.268.31a.91.91 0 00.311-.056v1.556a5.617 5.617 0 01-.792.057c-.82 0-1.357-.227-1.541-1.005-.029.1-.34 1.061-1.825 1.061zm.538-1.542c.678 0 1.046-.509 1.046-1.47-.141.14-.48.212-.962.325-.495.113-.806.226-.806.594s.311.551.722.551zm4.384 1.429v-6.45h1.924v1.075c.198-.75.92-1.188 1.598-1.188.481 0 .962.212 1.188.467l-.962 1.626a1.128 1.128 0 00-.721-.268c-.566 0-1.032.48-1.032 1.612v3.126h-1.995zm11.132.113c-1.641 0-3.056-1.358-3.056-3.267 0-1.542.92-3.409 2.957-3.409 1.103 0 1.697.552 1.782.962v-4.385h1.994v9.986h-1.994v-.962c-.1.467-.51 1.075-1.683 1.075zm.41-1.683c.693 0 1.33-.438 1.33-1.683 0-1.23-.623-1.627-1.344-1.627-.976 0-1.387.75-1.387 1.599 0 .919.481 1.711 1.4 1.711zm7.482 1.683c-2.15 0-3.253-1.443-3.253-3.281 0-1.768 1.032-3.423 3.281-3.395 1.556.014 3.451.835 3.154 3.805h-4.44c.084.933.72 1.188 1.286 1.188.566 0 .92-.255 1.103-.679l1.712.877c-.453.863-1.429 1.485-2.843 1.485zm-1.259-4.087h2.63c.015-.538-.48-1.005-1.272-1.005-.75 0-1.23.425-1.358 1.005zm7.723 4.087c-1.443 0-2.037-.834-2.037-2.63v-2.306h-1.174v-1.627h1.174v-1.853l1.994-.89v2.743h1.91v1.627h-1.91v2.32c0 .466-.028.933.283.933.255 0 .34-.283.382-.438l1.471.707c-.325 1.032-1.117 1.414-2.093 1.414zm5.827-.113v-9.986h1.994v4.343c.057-.255.467-.92 1.74-.92 1.584 0 2.277 1.033 2.277 3.055v3.508h-1.994v-3.437c0-1.117-.283-1.443-.891-1.443-.622 0-1.132.354-1.132 1.429v3.451h-1.994zm8.727.113c-1.273 0-2.207-.679-2.207-1.853 0-.92.58-1.541 2.32-1.867l.594-.113c.622-.113.877-.254.877-.608 0-.495-.594-.552-.905-.552-.905 0-1.146.524-1.287.877l-1.655-.778c.028-.17.622-1.782 3.027-1.782 1.556 0 2.814.65 2.814 2.32v2.433c0 .254.113.31.27.31a.91.91 0 00.31-.056v1.556a5.617 5.617 0 01-.792.057c-.82 0-1.358-.227-1.542-1.005-.028.1-.339 1.061-1.824 1.061zm.537-1.542c.68 0 1.047-.509 1.047-1.47-.141.14-.48.212-.962.325-.495.113-.806.226-.806.594s.311.551.721.551zm-1.994-7.1c0-.594.382-.976.976-.976s.976.382.976.976-.382.976-.976.976-.976-.382-.976-.976zm2.829 0c0-.594.382-.976.976-.976s.976.382.976.976-.382.976-.976.976-.976-.382-.976-.976zm3.55 8.529v-6.45h1.924v.948c.056-.297.48-1.06 1.824-1.06 1.57 0 2.263 1.046 2.263 3.054v3.508h-1.994v-3.437c0-1.117-.283-1.443-.891-1.443-.623 0-1.132.354-1.132 1.429v3.451h-1.994zm9.363.113c-1.442 0-2.036-.834-2.036-2.63v-2.306h-1.174v-1.627h1.174v-1.853l1.994-.89v2.743h1.91v1.627h-1.91v2.32c0 .466-.028.933.283.933.254 0 .34-.283.382-.438l1.47.707c-.325 1.032-1.117 1.414-2.093 1.414zm5.828-.113v-6.45h1.923v.948c.057-.297.481-1.06 1.825-1.06 1.57 0 2.263 1.046 2.263 3.054v3.508h-1.994v-3.437c0-1.117-.283-1.443-.892-1.443-.622 0-1.131.354-1.131 1.429v3.451h-1.994zm8.755.113c-1.273 0-2.207-.679-2.207-1.853 0-.92.58-1.541 2.32-1.867l.594-.113c.622-.113.877-.254.877-.608 0-.495-.594-.552-.905-.552-.906 0-1.146.524-1.287.877l-1.655-.778c.028-.17.622-1.782 3.027-1.782 1.555 0 2.814.65 2.814 2.32v2.433c0 .254.113.31.269.31a.91.91 0 00.311-.056v1.556a5.617 5.617 0 01-.792.057c-.82 0-1.358-.227-1.542-1.005-.028.1-.34 1.061-1.824 1.061zm.537-1.542c.68 0 1.047-.509 1.047-1.47-.142.14-.481.212-.962.325-.495.113-.806.226-.806.594s.311.551.721.551zm-1.103-7.142c0-.849.665-1.5 1.513-1.5.85 0 1.5.665 1.5 1.5 0 .848-.65 1.513-1.5 1.513a1.489 1.489 0 01-1.513-1.513zm.891.014c0 .353.255.608.608.608.354 0 .623-.255.623-.608a.61.61 0 00-.623-.622c-.353 0-.608.268-.608.622zm7.313 11.867c-2.08 0-3.395-.835-3.395-2.15 0-.75.438-1.075.65-1.217-.325-.297-.452-.58-.452-.976 0-.792.523-1.16.976-1.414a2.254 2.254 0 01-.622-1.598c0-1.429 1.131-2.518 3.111-2.518.552 0 1.061.085 1.429.226.467-.466 1.259-.75 1.796-.622v1.358c-.155-.113-.537-.17-.75-.042.41.48.566 1.074.566 1.669 0 1.612-1.131 2.475-3.097 2.475-.608 0-1.217-.1-1.726-.41a.53.53 0 00-.212.438c0 .368.297.594.891.594h1.655c1.542 0 2.588.707 2.588 1.895 0 1.146-.976 2.292-3.408 2.292zm.268-6.224c.68 0 1.104-.396 1.104-1.018s-.41-1.09-1.104-1.09c-.707 0-1.174.482-1.174 1.076 0 .608.467 1.032 1.174 1.032zm-.34 4.668c1.175 0 1.543-.325 1.543-.707 0-.255-.198-.354-.793-.354h-1.33c-.41 0-.607-.028-.862-.07a.459.459 0 00-.113.325c0 .594.594.806 1.556.806zm7.27-1.64c-2.588 0-3.479-1.896-3.479-3.367 0-1.796 1.33-3.31 3.48-3.31 2.136 0 3.465 1.514 3.465 3.324 0 1.471-.89 3.352-3.465 3.352zm0-1.684c.892 0 1.401-.806 1.401-1.64 0-.75-.41-1.67-1.4-1.67s-1.415.92-1.415 1.67c0 .834.524 1.64 1.415 1.64zm6.62 1.683c-1.442 0-2.036-.834-2.036-2.63v-2.306h-1.174v-1.627h1.174v-1.853l1.994-.89v2.743h1.91v1.627h-1.91v2.32c0 .466-.028.933.283.933.254 0 .34-.283.382-.438l1.47.707c-.325 1.032-1.117 1.414-2.093 1.414zm7.016-3.182h-2.065c-.156-1.23.155-2.009 1.032-2.787.566-.495 1.09-.806 1.09-1.386 0-.594-.538-1.018-1.16-1.018-.708 0-1.387.566-1.684 1.725l-2.008-.947c.509-1.67 1.81-2.645 3.607-2.645 1.909 0 3.352 1.103 3.352 2.857 0 1.132-.608 1.711-1.287 2.277-.764.637-.976.835-.877 1.924zm-2.25 1.923c0-.75.51-1.258 1.26-1.258s1.258.509 1.258 1.258c0 .75-.509 1.26-1.258 1.26-.75 0-1.26-.51-1.26-1.26zM47.996 174.401c-2.164 0-3.408-1.259-3.946-2.673l2.009-.806c.438 1.06 1.075 1.626 2.022 1.626.68 0 1.301-.297 1.301-.99 0-.65-.565-1.018-1.23-1.188l-1.414-.368c-1.457-.396-2.39-1.4-2.39-2.828 0-1.867 1.612-3.013 3.634-3.013 1.726 0 3.197.834 3.706 2.56l-1.952.933c-.212-1.06-1.032-1.654-1.938-1.654-.707 0-1.4.367-1.4 1.131 0 .622.439.905.948 1.047l1.428.41c1.584.453 2.66 1.4 2.66 2.956 0 1.853-1.514 2.857-3.438 2.857zm6.662 0c-1.443 0-2.037-.834-2.037-2.63v-2.306h-1.174v-1.627h1.174v-1.853l1.995-.89v2.743h1.91v1.627h-1.91v2.32c0 .466-.029.933.283.933.254 0 .34-.283.382-.438l1.47.707c-.325 1.032-1.117 1.414-2.093 1.414zm4.668 0c-1.273 0-2.207-.679-2.207-1.853 0-.92.58-1.541 2.32-1.867l.594-.113c.622-.113.877-.254.877-.608 0-.495-.594-.552-.905-.552-.906 0-1.146.524-1.287.877l-1.655-.778c.028-.17.622-1.782 3.026-1.782 1.556 0 2.815.65 2.815 2.32v2.433c0 .254.113.31.269.31a.91.91 0 00.311-.056v1.556a5.617 5.617 0 01-.792.057c-.82 0-1.358-.227-1.542-1.005-.028.1-.34 1.061-1.824 1.061zm.537-1.542c.68 0 1.047-.509 1.047-1.47-.142.14-.481.212-.962.325-.495.113-.806.226-.806.594s.311.551.721.551zm4.385 1.429v-6.45h1.923v1.075c.198-.75.92-1.188 1.599-1.188.48 0 .961.212 1.188.467l-.962 1.626a1.128 1.128 0 00-.721-.268c-.566 0-1.033.48-1.033 1.612v3.126h-1.994zm7.595.113c-1.443 0-2.037-.834-2.037-2.63v-2.306h-1.174v-1.627h1.174v-1.853l1.995-.89v2.743h1.91v1.627H71.8v2.32c0 .466-.029.933.283.933.254 0 .339-.283.381-.438l1.471.707c-.325 1.032-1.117 1.414-2.093 1.414zm4.668 0c-1.273 0-2.207-.679-2.207-1.853 0-.92.58-1.541 2.32-1.867l.594-.113c.622-.113.877-.254.877-.608 0-.495-.594-.552-.905-.552-.906 0-1.146.524-1.288.877l-1.654-.778c.028-.17.622-1.782 3.026-1.782 1.556 0 2.815.65 2.815 2.32v2.433c0 .254.113.31.269.31a.91.91 0 00.311-.056v1.556a5.617 5.617 0 01-.792.057c-.82 0-1.358-.227-1.542-1.005-.028.1-.34 1.061-1.824 1.061zm.537-1.542c.679 0 1.047-.509 1.047-1.47-.142.14-.481.212-.962.325-.495.113-.806.226-.806.594s.311.551.721.551zm9.406 1.542c-1.273 0-2.207-.679-2.207-1.853 0-.92.58-1.541 2.32-1.867l.594-.113c.622-.113.877-.254.877-.608 0-.495-.594-.552-.905-.552-.905 0-1.146.524-1.287.877l-1.655-.778c.028-.17.622-1.782 3.027-1.782 1.556 0 2.814.65 2.814 2.32v2.433c0 .254.113.31.27.31a.91.91 0 00.31-.056v1.556a5.617 5.617 0 01-.792.057c-.82 0-1.358-.227-1.542-1.005-.028.1-.339 1.061-1.824 1.061zm.537-1.542c.68 0 1.047-.509 1.047-1.47-.141.14-.48.212-.962.325-.495.113-.806.226-.806.594s.311.551.721.551zm4.173 1.429v-6.45h1.923v.948c.057-.297.481-1.06 1.825-1.06 1.57 0 2.263 1.046 2.263 3.054v3.508H95.18v-3.437c0-1.117-.283-1.443-.891-1.443-.623 0-1.132.354-1.132 1.429v3.451h-1.994zm11.131 0v-3.437c0-1.103-.283-1.443-.877-1.443-.608 0-1.089.354-1.089 1.429v3.451h-1.994v-6.45h1.923v.948c.213-.453.778-1.06 1.896-1.06.863 0 1.442.367 1.782 1.06.353-.636 1.131-1.06 2.093-1.06 1.528 0 2.22 1.06 2.22 3.054v3.508h-1.994v-3.437c0-1.103-.282-1.443-.876-1.443-.609 0-1.09.354-1.09 1.429v3.451h-1.994zm8.642.113c-1.273 0-2.206-.679-2.206-1.853 0-.92.58-1.541 2.32-1.867l.593-.113c.623-.113.877-.254.877-.608 0-.495-.594-.552-.905-.552-.905 0-1.146.524-1.287.877l-1.655-.778c.028-.17.622-1.782 3.027-1.782 1.556 0 2.815.65 2.815 2.32v2.433c0 .254.113.31.268.31a.91.91 0 00.311-.056v1.556a5.617 5.617 0 01-.792.057c-.82 0-1.357-.227-1.541-1.005-.029.1-.34 1.061-1.825 1.061zm.538-1.542c.679 0 1.046-.509 1.046-1.47-.141.14-.48.212-.962.325-.495.113-.806.226-.806.594s.311.551.722.551zm-1.995-7.1c0-.594.382-.976.976-.976s.976.382.976.976-.382.976-.976.976-.976-.382-.976-.976zm2.83 0c0-.594.381-.976.975-.976s.976.382.976.976-.382.976-.976.976-.976-.382-.976-.976zm3.606 8.529v-9.986h1.994v9.986h-1.994zm4.964.113c-1.273 0-2.206-.679-2.206-1.853 0-.92.58-1.541 2.32-1.867l.594-.113c.622-.113.877-.254.877-.608 0-.495-.595-.552-.906-.552-.905 0-1.145.524-1.287.877l-1.655-.778c.029-.17.623-1.782 3.027-1.782 1.556 0 2.815.65 2.815 2.32v2.433c0 .254.113.31.269.31a.91.91 0 00.31-.056v1.556a5.617 5.617 0 01-.791.057c-.82 0-1.358-.227-1.542-1.005-.028.1-.34 1.061-1.825 1.061zm.538-1.542c.679 0 1.047-.509 1.047-1.47-.142.14-.481.212-.962.325-.495.113-.806.226-.806.594s.31.551.72.551zm4.172 1.429v-6.45h1.924v.948c.057-.297.48-1.06 1.825-1.06 1.57 0 2.263 1.046 2.263 3.054v3.508h-1.995v-3.437c0-1.117-.283-1.443-.89-1.443-.623 0-1.132.354-1.132 1.429v3.451h-1.995zm10.283 0v-9.986h1.994v4.343c.057-.255.467-.92 1.74-.92 1.584 0 2.277 1.033 2.277 3.055v3.508h-1.994v-3.437c0-1.117-.283-1.443-.891-1.443-.622 0-1.132.354-1.132 1.429v3.451h-1.994zm8.727.113c-1.273 0-2.207-.679-2.207-1.853 0-.92.58-1.541 2.32-1.867l.594-.113c.622-.113.877-.254.877-.608 0-.495-.594-.552-.905-.552-.905 0-1.146.524-1.287.877l-1.655-.778c.028-.17.622-1.782 3.027-1.782 1.555 0 2.814.65 2.814 2.32v2.433c0 .254.113.31.269.31a.91.91 0 00.311-.056v1.556a5.617 5.617 0 01-.792.057c-.82 0-1.358-.227-1.542-1.005-.028.1-.339 1.061-1.824 1.061zm.537-1.542c.68 0 1.047-.509 1.047-1.47-.141.14-.48.212-.962.325-.495.113-.806.226-.806.594s.311.551.721.551zm-1.994-7.1c0-.594.382-.976.976-.976s.976.382.976.976-.382.976-.976.976-.976-.382-.976-.976zm2.829 0c0-.594.382-.976.976-.976s.976.382.976.976-.382.976-.976.976-.976-.382-.976-.976zm3.55 8.529v-6.45h1.924v1.075c.198-.75.919-1.188 1.598-1.188.48 0 .962.212 1.188.467l-.962 1.626a1.128 1.128 0 00-.721-.268c-.566 0-1.033.48-1.033 1.612v3.126h-1.994zm5.615-9.986h2.136l-.028 6.917h-2.065l-.043-6.917zm-.184 8.84c0-.75.51-1.258 1.26-1.258.749 0 1.258.509 1.258 1.258 0 .75-.51 1.26-1.259 1.26-.75 0-1.259-.51-1.259-1.26z" fill="#141033" fill-rule="nonzero"/><g transform="translate(55 188)"><rect fill="#651EFF" width="92" height="38" rx="18.859"/><path d="M24.613 21.965l-.726-1.867h-2.961l-.707 1.867h-.99l2.659-6.685h1.065l2.66 6.685h-1zm-2.216-5.723l-1.14 2.998h2.3l-1.16-2.998zm4.95 3.102v2.621h-.886V17.43h.868v.65c.301-.521.766-.782 1.395-.782.522 0 .923.166 1.202.5.28.333.42.763.42 1.291v2.876h-.886V19.24c0-.76-.352-1.14-1.056-1.14-.334 0-.593.117-.778.353-.186.236-.279.533-.279.891zm5.29 2.621h-.877V17.43h.849v.603c.138-.239.333-.42.585-.547.251-.125.515-.188.792-.188.295 0 .565.072.81.217.246.144.428.358.547.64.315-.571.82-.857 1.519-.857.433 0 .803.148 1.108.443.304.295.457.723.457 1.282v2.942h-.877v-2.847c0-.315-.08-.566-.24-.755-.16-.188-.401-.283-.722-.283a.968.968 0 00-.754.326c-.195.217-.292.489-.292.815v2.744h-.887v-2.847c0-.315-.08-.566-.24-.755-.16-.188-.401-.283-.722-.283a.985.985 0 00-.763.321c-.195.214-.293.49-.293.83v2.734zm6.921-1.216c0-.39.126-.703.378-.938.251-.236.584-.382 1-.439l1.225-.179c.232-.031.349-.144.349-.34a.76.76 0 00-.245-.584c-.164-.15-.409-.226-.736-.226-.302 0-.54.083-.716.25-.177.166-.28.388-.312.664l-.848-.198c.044-.433.242-.787.594-1.06.352-.274.773-.41 1.263-.41.641 0 1.116.155 1.424.466.308.311.462.709.462 1.193v2.272c0 .27.019.519.057.745h-.868a3.734 3.734 0 01-.047-.613c-.126.202-.31.378-.552.528-.242.151-.545.227-.91.227-.446 0-.81-.134-1.093-.401a1.271 1.271 0 01-.425-.957zm1.641.613c.396 0 .714-.107.952-.32.24-.214.359-.554.359-1.02v-.207l-1.386.208a.876.876 0 00-.481.217.606.606 0 00-.18.462c0 .176.068.33.203.462a.73.73 0 00.533.198zm-1.075-5.252c0-.151.052-.28.156-.387a.511.511 0 01.382-.16c.157 0 .289.053.396.16.107.107.16.236.16.387a.523.523 0 01-.16.391.547.547 0 01-.396.156.53.53 0 01-.537-.547zm1.763 0c0-.151.052-.28.156-.387a.523.523 0 01.391-.16c.151 0 .28.053.387.16.107.107.16.236.16.387a.523.523 0 01-.16.391.535.535 0 01-.387.156.53.53 0 01-.547-.547zm3.772 5.855h-.886v-6.827h.886v6.827zm3.442-1.178l.801-.283a.943.943 0 00.321.608c.182.16.427.24.735.24.24 0 .428-.058.566-.174a.54.54 0 00.208-.43c0-.3-.195-.496-.585-.584l-.773-.17c-.352-.075-.629-.226-.83-.452a1.192 1.192 0 01-.302-.82c0-.39.16-.726.477-1.01a1.65 1.65 0 011.136-.424c.289 0 .547.043.773.128.226.085.402.196.528.334a1.644 1.644 0 01.424.754l-.782.293a.943.943 0 00-.066-.222 1.23 1.23 0 00-.146-.24.683.683 0 00-.288-.212 1.127 1.127 0 00-.443-.08c-.22 0-.401.06-.542.179a.54.54 0 00-.213.424c0 .29.173.472.519.547l.736.16c.402.088.711.25.928.486.217.236.326.523.326.863 0 .358-.147.682-.439.971-.292.29-.7.434-1.221.434-.56 0-.996-.14-1.31-.42-.315-.28-.494-.58-.538-.9zm8.75-3.357l-1.933 1.914 1.971 2.621h-1.113l-1.48-1.999-.632.632v1.367h-.877v-6.827h.877v4.3l1.962-2.008h1.225zm.604 3.319c0-.39.126-.703.377-.938.251-.236.585-.382 1-.439l1.225-.179c.233-.031.35-.144.35-.34a.76.76 0 00-.246-.584c-.163-.15-.409-.226-.735-.226-.302 0-.541.083-.717.25-.176.166-.28.388-.311.664l-.849-.198c.044-.433.242-.787.594-1.06.352-.274.773-.41 1.264-.41.64 0 1.115.155 1.423.466.309.311.463.709.463 1.193v2.272c0 .27.018.519.056.745h-.867a3.734 3.734 0 01-.048-.613c-.125.202-.31.378-.551.528-.242.151-.545.227-.91.227-.446 0-.811-.134-1.094-.401a1.271 1.271 0 01-.424-.957zm1.64.613c.397 0 .714-.107.953-.32.239-.214.358-.554.358-1.02v-.207l-1.386.208a.876.876 0 00-.48.217.606.606 0 00-.18.462c0 .176.068.33.203.462a.73.73 0 00.532.198zm4.102-1.679c0 .478.118.868.354 1.17.236.301.56.452.976.452.396 0 .713-.154.952-.462.239-.308.358-.7.358-1.178 0-.472-.116-.852-.348-1.141-.233-.29-.55-.434-.953-.434-.402 0-.726.148-.971.443-.245.296-.368.679-.368 1.15zm2.65 1.67v-.076c-.12.233-.3.426-.542.58-.242.154-.53.23-.863.23-.648 0-1.168-.227-1.56-.683-.394-.455-.59-1.03-.59-1.72 0-.66.201-1.222.604-1.684.402-.462.917-.693 1.546-.693.37 0 .673.074.905.222.233.148.393.328.481.542v-2.933h.877v5.988c0 .308.016.588.047.84h-.858a3.522 3.522 0 01-.047-.614zm2.084-.604c0-.39.126-.703.377-.938.251-.236.585-.382 1-.439l1.225-.179c.233-.031.35-.144.35-.34a.76.76 0 00-.246-.584c-.163-.15-.409-.226-.735-.226-.302 0-.541.083-.717.25-.176.166-.28.388-.311.664l-.849-.198c.044-.433.242-.787.594-1.06.352-.274.773-.41 1.264-.41.64 0 1.115.155 1.423.466.309.311.463.709.463 1.193v2.272c0 .27.018.519.056.745h-.867a3.734 3.734 0 01-.048-.613c-.125.202-.31.378-.551.528-.242.151-.545.227-.91.227-.446 0-.811-.134-1.094-.401a1.271 1.271 0 01-.424-.957zm1.64.613c.397 0 .714-.107.953-.32.239-.214.358-.554.358-1.02v-.207l-1.386.208a.876.876 0 00-.48.217.606.606 0 00-.18.462c0 .176.068.33.203.462a.73.73 0 00.532.198z" fill="#FFF" fill-rule="nonzero"/></g><rect fill="#FFE8E6" y="32" width="202" height="108" rx="4"/><g transform="rotate(30 -28.203 209.674)"><path d="M11.289 4.24h3.763l8.423 21.931a1.886 1.886 0 01-1.76 2.562H4.624a1.886 1.886 0 01-1.76-2.562L11.29 4.239z" fill="#FBE3E1"/><ellipse fill="#D9C1BF" cx="13.17" cy="4.239" rx="13.17" ry="1.884"/><path d="M16.933 3.768c0 .26-1.685.471-3.763.471s-3.763-.21-3.763-.47v-.006a3.763 3.763 0 017.526 0v.005z" fill="#EED6D4"/></g><g transform="translate(124 71)"><g transform="rotate(15 8.081 70.035)"><path d="M34.66 18.176s.853-6.283 2.273-4.57c1.42 1.714 0 4.284 0 4.284l-1.136 1.428-1.136-.856v-.286z" fill="#FFB8B8" fill-rule="nonzero"/><path d="M31.251 20.175s2.841-3.141 3.41-2.57c.568.571 2.272.857 1.988 1.999-.284 1.142-6.25 4.854-6.25 4.854l.852-4.283z" fill="#651EFF" fill-rule="nonzero"/><path d="M15.057 19.89v2.284s-.284 5.14 1.421 4.855c1.705-.286.852-4.57.852-4.57l-.284-2.57h-1.989zM15.91 36.452s-2.557 3.998-3.41 4.284c-.852.285-5.397 2.856-5.966 5.426l-3.977 5.14 1.989 2.57s9.091-9.71 11.648-10.566c2.557-.857 5.114-5.14 5.114-5.14l-5.398-1.714zM36.081 29.884s5.398.857 4.546 4.284c-.853 3.427-9.092 10.566-9.092 10.566l-.284 1.713-3.125.571-1.42-1.427.284-.857s3.409-3.141 3.693-4.284c.284-1.142 3.41-5.711 4.83-5.997l-1.989-1.142 2.557-3.427z" fill="#FFB8B8" fill-rule="nonzero"/><path d="M3.41 51.302s1.136-1.713-.569-1.428C1.136 50.16 0 50.445 0 51.588c0 1.142 1.42 9.138 3.125 8.567 1.705-.572.284-3.142.284-3.142s.853-2.284 1.42-2.57c.569-.285.569-1.713 0-1.713-.567 0-1.704-.857-1.42-1.428zM27.558 45.02s0-1.428-1.136 0c-1.137 1.427-1.705 2.57-.569 3.426 1.137.857 5.114 2.856 5.114 2.856s4.262.857 3.694-1.142c0 0-2.841-1.428-2.841-2.57 0-1.143 0-3.142-.853-2.57-.852.57-3.409.856-3.409 0z" fill="#2F2E41" fill-rule="nonzero"/><path d="M22.16 23.602s-3.977.57-3.693 6.282c0 0-5.114 5.14-3.694 6.854 1.42 1.713 4.546 4.855 5.682 3.998 1.137-.857 4.546-7.425 4.546-7.425s7.955 2.856 9.375 1.428c1.421-1.428 2.842-4.855 2.842-4.855l-7.103-3.712-7.955-2.57z" fill="#FF8A80" fill-rule="nonzero"/><ellipse fill="#FFB8B8" fill-rule="nonzero" cx="33.24" cy="3.898" rx="3.409" ry="3.427"/><path d="M30.683 4.183s-1.989 3.141-2.557 3.427c-.568.285 3.978 3.141 3.978 3.141s0-3.712 1.42-4.569l-2.84-1.999z" fill="#FFB8B8" fill-rule="nonzero"/><path d="M30.399 7.324s-4.546-1.428-5.398.857c-.852 2.285-2.841 6.568-2.557 9.424.284 2.856.852 2.284 0 3.141-.852.857-1.42.286-1.136 1.428.284 1.142.568 1.142.284 1.713-.284.571 3.41 2.57 6.534 2.856l3.125.286s0-5.14.569-6.283c.568-1.142 1.704-3.427 1.704-4.283v-2.267a8.704 8.704 0 00-1.136-4.302s-1.705-2.57-1.989-2.57z" fill="#651EFF" fill-rule="nonzero"/><path d="M26.99 8.467s-10.512.856-11.648 3.712c-1.137 2.856-1.705 8.567-.569 8.567 1.137 0 2.557.571 2.841 0 .284-.571 1.42-6.282 1.705-6.282.284 0 8.807-.857 8.807-.857s3.694-4.57-1.136-5.14z" fill="#651EFF" fill-rule="nonzero"/><path d="M33.377 3.048s.905-1.58 2.036-.208c1.13 1.373 2.97-1.15 2.688-1.688-.283-.538-1.28.024-2.99-.537-1.708-.562-5-1.706-5.552 2.026-.551 3.732.762 3.341.762 3.341s.602-3.307 1.146-2.357l.544.95.472.117.894-1.644z" fill="#2F2E41" fill-rule="nonzero"/><path d="M32.927 1.44l1.256 1.418a.947.947 0 11-1.635.438l.38-1.855z" stroke="#FFF" stroke-width=".589" fill="#651EFF"/></g><rect fill="#FF8A80" opacity=".3" x="4.081" y="59.345" width="43.196" height="1.173" rx=".586"/><path d="M23.502 19.749H7.96M18.7 23.846H2.036M21.19 41.108H6.234" stroke="#F9FAFC" stroke-width=".589" stroke-linecap="round"/></g><path fill="#EBD3D1" d="M23.472 96.814l-.517-.01 1.55-9.02-8.88-3.675 27.982-16.156 13.951 9.18-34.086 19.68z"/><path d="M41.378 116.638l-6.72-4.246-5.601-1.506.617-7.127.11-6.834-6.312-.111 34.086-19.68 13.06 22.621-29.24 16.883z" fill="#F1D9D7"/><path d="M41.378 116.638l-6.72-4.246-5.601-1.506.617-7.127.03-1.926 4.01-2.315 9.329 16.158-1.665.962zM45.88 92.494l3.244-1.873 1.866 3.232-3.244 1.873zM48.212 96.533l3.244-1.873 1.866 3.232-3.244 1.873zM49.935 90.153l3.244-1.873 1.866 3.232-3.244 1.873zM52.267 94.193l3.244-1.873 1.866 3.232-3.244 1.873z" fill="#EBD3D1"/></g></g></svg>