<?xml version="1.0" encoding="UTF-8"?>
<svg width="343px" height="300px" viewBox="0 0 343 300" version="1.1" xmlns="http://www.w3.org/2000/svg" xmlns:xlink="http://www.w3.org/1999/xlink">
    <!-- Generator: Sketch 55.2 (78181) - https://sketchapp.com -->
    <title>Claims Welcome Illustrations</title>
    <desc>Created with Sketch.</desc>
    <g id="Receiver-📥" stroke="none" stroke-width="1" fill="none" fill-rule="evenodd">
        <g id="Referrals-Reciever-#Welcome-03" transform="translate(-16.000000, -152.000000)">
            <g id="Claims-Welcome-Illustrations" transform="translate(16.000000, 152.000000)">
                <path d="M172.302588,300 C289.894139,300 343,264.019149 343,181.563032 C343,99.1069147 215.599016,53.1313828 137.964042,131.089893 C60.3290674,209.048404 14.5443389,164.07234 1.60517652,211.547074 C-11.3339859,259.021808 54.711038,300 172.302588,300 Z" id="Oval" fill="#009175"></path>
                <path d="M297,274.793221 C269.03119,291.966773 227.865554,300 172.302588,300 C119.165789,300 76.5543739,291.632584 47,278.079355 L47,180 L45,180 C43.8954305,180 43,179.104569 43,178 L43,142 C43,140.895431 43.8954305,140 45,140 L47,140 L47,132 L45,132 C43.8954305,132 43,131.104569 43,130 L43,94 C43,92.8954305 43.8954305,92 45,92 L47,92 L47,32 C47,14.326888 61.326888,3.24649801e-15 79,0 L265,0 C282.673112,-3.24649801e-15 297,14.326888 297,32 L297,92 L299,92 C300.104569,92 301,92.8954305 301,94 L301,170 C301,171.104569 300.104569,172 299,172 L297,172 L297,274.793221 Z" id="Combined-Shape" fill="#141033"></path>
                <path d="M285,281.227271 C257.701316,293.981721 220.394999,300 172.302588,300 C125.975197,300 87.6484107,293.63972 59,283.027657 L59,36 C59,22.745166 69.745166,12 83,12 L261,12 C274.254834,12 285,22.745166 285,36 L285,281.227271 Z" id="Combined-Shape" fill="#FFFFFF"></path>
                <path d="M168.99997,299.989165 C129.799174,299.731211 96.4518142,294.879718 70,286.744329 L70,279 C70,276.790861 71.790861,275 74,275 L165,275 C167.209139,275 169,276.790861 169,279 L169,299.989165 Z" id="Combined-Shape" fill="#E9ECEF"></path>
                <path d="M273,286.169764 C247.447399,295.41399 214.606098,299.876881 174.000006,299.997486 L174,279 C174,276.790861 175.790861,275 178,275 L269,275 C271.209139,275 273,276.790861 273,279 L273,286.169764 Z" id="Combined-Shape" fill="#E9ECEF"></path>
                <g id="Phone" transform="translate(71.000000, 31.000000)">
                    <rect id="Rectangle" fill="#E9ECEF" x="63" y="0" width="76.3546753" height="12.3152702" rx="2.46305404"></rect>
                    <path d="M43.250048,160.144 L43.250048,150.158336 L45.34336,150.158336 L45.34336,154.161088 L49.572416,154.161088 L49.572416,150.158336 L51.665728,150.158336 L51.665728,160.144 L49.572416,160.144 L49.572416,156.04224 L45.34336,156.04224 L45.34336,160.144 L43.250048,160.144 Z M54.650112,160.257152 C53.377152,160.257152 52.443648,159.57824 52.443648,158.404288 C52.443648,157.484928 53.023552,156.862592 54.763264,156.53728 L55.357312,156.424128 C55.979648,156.310976 56.23424,156.169536 56.23424,155.815936 C56.23424,155.320896 55.640192,155.26432 55.329024,155.26432 C54.423808,155.26432 54.18336,155.787648 54.04192,156.141248 L52.387072,155.363328 C52.41536,155.1936 53.009408,153.581184 55.413888,153.581184 C56.969728,153.581184 58.228544,154.231808 58.228544,155.9008 L58.228544,158.333568 C58.228544,158.58816 58.341696,158.644736 58.49728,158.644736 C58.582144,158.644736 58.695296,158.630592 58.808448,158.58816 L58.808448,160.144 C58.539712,160.186432 58.2144,160.200576 58.016384,160.200576 C57.196032,160.200576 56.65856,159.974272 56.474688,159.196352 C56.4464,159.29536 56.135232,160.257152 54.650112,160.257152 Z M55.187584,158.715456 C55.866496,158.715456 56.23424,158.206272 56.23424,157.24448 C56.0928,157.38592 55.753344,157.45664 55.272448,157.569792 C54.777408,157.682944 54.46624,157.796096 54.46624,158.16384 C54.46624,158.531584 54.777408,158.715456 55.187584,158.715456 Z M59.572224,160.144 L59.572224,153.694336 L61.495808,153.694336 L61.495808,154.76928 C61.693824,154.019648 62.415168,153.581184 63.09408,153.581184 C63.574976,153.581184 64.055872,153.793344 64.282176,154.047936 L63.320384,155.674496 C63.150656,155.518912 62.867776,155.40576 62.59904,155.40576 C62.03328,155.40576 61.566528,155.886656 61.566528,157.018176 L61.566528,160.144 L59.572224,160.144 Z M70.703552,160.257152 C69.062848,160.257152 67.648448,158.899328 67.648448,156.989888 C67.648448,155.448192 68.567808,153.581184 70.604544,153.581184 C71.707776,153.581184 72.301824,154.1328 72.386688,154.542976 L72.386688,150.158336 L74.380992,150.158336 L74.380992,160.144 L72.386688,160.144 L72.386688,159.182208 C72.28768,159.64896 71.877504,160.257152 70.703552,160.257152 Z M71.113728,158.574016 C71.806784,158.574016 72.443264,158.135552 72.443264,156.89088 C72.443264,155.660352 71.820928,155.26432 71.099584,155.26432 C70.123648,155.26432 69.713472,156.013952 69.713472,156.862592 C69.713472,157.781952 70.194368,158.574016 71.113728,158.574016 Z M78.595904,160.257152 C76.446016,160.257152 75.342784,158.814464 75.342784,156.975744 C75.342784,155.207744 76.375296,153.552896 78.624192,153.581184 C80.180032,153.595328 82.075328,154.41568 81.778304,157.38592 L77.337088,157.38592 C77.421952,158.319424 78.058432,158.574016 78.624192,158.574016 C79.189952,158.574016 79.543552,158.319424 79.727424,157.895104 L81.438848,158.772032 C80.98624,159.634816 80.010304,160.257152 78.595904,160.257152 Z M77.337088,156.169536 L79.967872,156.169536 C79.982016,155.632064 79.486976,155.165312 78.694912,155.165312 C77.94528,155.165312 77.464384,155.589632 77.337088,156.169536 Z M85.059712,160.257152 C83.617024,160.257152 83.022976,159.422656 83.022976,157.626368 L83.022976,155.320896 L81.849024,155.320896 L81.849024,153.694336 L83.022976,153.694336 L83.022976,151.841472 L85.01728,150.9504 L85.01728,153.694336 L86.92672,153.694336 L86.92672,155.320896 L85.01728,155.320896 L85.01728,157.640512 C85.01728,158.107264 84.988992,158.574016 85.30016,158.574016 C85.554752,158.574016 85.639616,158.291136 85.682048,158.135552 L87.153024,158.842752 C86.827712,159.875264 86.035648,160.257152 85.059712,160.257152 Z M90.88704,160.144 L90.88704,150.158336 L92.881344,150.158336 L92.881344,154.500544 C92.93792,154.245952 93.348096,153.581184 94.621056,153.581184 C96.205184,153.581184 96.89824,154.613696 96.89824,156.636288 L96.89824,160.144 L94.903936,160.144 L94.903936,156.707008 C94.903936,155.589632 94.621056,155.26432 94.012864,155.26432 C93.390528,155.26432 92.881344,155.61792 92.881344,156.692864 L92.881344,160.144 L90.88704,160.144 Z M99.613888,160.257152 C98.340928,160.257152 97.407424,159.57824 97.407424,158.404288 C97.407424,157.484928 97.987328,156.862592 99.72704,156.53728 L100.321088,156.424128 C100.943424,156.310976 101.198016,156.169536 101.198016,155.815936 C101.198016,155.320896 100.603968,155.26432 100.2928,155.26432 C99.387584,155.26432 99.147136,155.787648 99.005696,156.141248 L97.350848,155.363328 C97.379136,155.1936 97.973184,153.581184 100.377664,153.581184 C101.933504,153.581184 103.19232,154.231808 103.19232,155.9008 L103.19232,158.333568 C103.19232,158.58816 103.305472,158.644736 103.461056,158.644736 C103.54592,158.644736 103.659072,158.630592 103.772224,158.58816 L103.772224,160.144 C103.503488,160.186432 103.178176,160.200576 102.98016,160.200576 C102.159808,160.200576 101.622336,159.974272 101.438464,159.196352 C101.410176,159.29536 101.099008,160.257152 99.613888,160.257152 Z M100.15136,158.715456 C100.830272,158.715456 101.198016,158.206272 101.198016,157.24448 C101.056576,157.38592 100.71712,157.45664 100.236224,157.569792 C99.741184,157.682944 99.430016,157.796096 99.430016,158.16384 C99.430016,158.531584 99.741184,158.715456 100.15136,158.715456 Z M98.157056,151.615168 C98.157056,151.02112 98.538944,150.639232 99.132992,150.639232 C99.72704,150.639232 100.108928,151.02112 100.108928,151.615168 C100.108928,152.209216 99.72704,152.591104 99.132992,152.591104 C98.538944,152.591104 98.157056,152.209216 98.157056,151.615168 Z M100.985856,151.615168 C100.985856,151.02112 101.367744,150.639232 101.961792,150.639232 C102.55584,150.639232 102.937728,151.02112 102.937728,151.615168 C102.937728,152.209216 102.55584,152.591104 101.961792,152.591104 C101.367744,152.591104 100.985856,152.209216 100.985856,151.615168 Z M104.536,160.144 L104.536,153.694336 L106.459584,153.694336 L106.459584,154.641984 C106.51616,154.34496 106.94048,153.581184 108.28416,153.581184 C109.854144,153.581184 110.5472,154.62784 110.5472,156.636288 L110.5472,160.144 L108.552896,160.144 L108.552896,156.707008 C108.552896,155.589632 108.270016,155.26432 107.661824,155.26432 C107.039488,155.26432 106.530304,155.61792 106.530304,156.692864 L106.530304,160.144 L104.536,160.144 Z M113.899328,160.257152 C112.45664,160.257152 111.862592,159.422656 111.862592,157.626368 L111.862592,155.320896 L110.68864,155.320896 L110.68864,153.694336 L111.862592,153.694336 L111.862592,151.841472 L113.856896,150.9504 L113.856896,153.694336 L115.766336,153.694336 L115.766336,155.320896 L113.856896,155.320896 L113.856896,157.640512 C113.856896,158.107264 113.828608,158.574016 114.139776,158.574016 C114.394368,158.574016 114.479232,158.291136 114.521664,158.135552 L115.99264,158.842752 C115.667328,159.875264 114.875264,160.257152 113.899328,160.257152 Z M119.726656,160.144 L119.726656,153.694336 L121.65024,153.694336 L121.65024,154.641984 C121.706816,154.34496 122.131136,153.581184 123.474816,153.581184 C125.0448,153.581184 125.737856,154.62784 125.737856,156.636288 L125.737856,160.144 L123.743552,160.144 L123.743552,156.707008 C123.743552,155.589632 123.460672,155.26432 122.85248,155.26432 C122.230144,155.26432 121.72096,155.61792 121.72096,156.692864 L121.72096,160.144 L119.726656,160.144 Z M128.481792,160.257152 C127.208832,160.257152 126.275328,159.57824 126.275328,158.404288 C126.275328,157.484928 126.855232,156.862592 128.594944,156.53728 L129.188992,156.424128 C129.811328,156.310976 130.06592,156.169536 130.06592,155.815936 C130.06592,155.320896 129.471872,155.26432 129.160704,155.26432 C128.255488,155.26432 128.01504,155.787648 127.8736,156.141248 L126.218752,155.363328 C126.24704,155.1936 126.841088,153.581184 129.245568,153.581184 C130.801408,153.581184 132.060224,154.231808 132.060224,155.9008 L132.060224,158.333568 C132.060224,158.58816 132.173376,158.644736 132.32896,158.644736 C132.413824,158.644736 132.526976,158.630592 132.640128,158.58816 L132.640128,160.144 C132.371392,160.186432 132.04608,160.200576 131.848064,160.200576 C131.027712,160.200576 130.49024,159.974272 130.306368,159.196352 C130.27808,159.29536 129.966912,160.257152 128.481792,160.257152 Z M129.019264,158.715456 C129.698176,158.715456 130.06592,158.206272 130.06592,157.24448 C129.92448,157.38592 129.585024,157.45664 129.104128,157.569792 C128.609088,157.682944 128.29792,157.796096 128.29792,158.16384 C128.29792,158.531584 128.609088,158.715456 129.019264,158.715456 Z M127.916032,151.572736 C127.916032,150.724096 128.5808,150.073472 129.42944,150.073472 C130.27808,150.073472 130.928704,150.73824 130.928704,151.572736 C130.928704,152.421376 130.27808,153.086144 129.42944,153.086144 C128.566656,153.086144 127.916032,152.421376 127.916032,151.572736 Z M128.807104,151.58688 C128.807104,151.94048 129.061696,152.195072 129.415296,152.195072 C129.768896,152.195072 130.037632,151.94048 130.037632,151.58688 C130.037632,151.23328 129.768896,150.964544 129.415296,150.964544 C129.061696,150.964544 128.807104,151.23328 128.807104,151.58688 Z M136.119552,163.453696 C134.040384,163.453696 132.724992,162.6192 132.724992,161.303808 C132.724992,160.554176 133.163456,160.228864 133.375616,160.087424 C133.050304,159.7904 132.923008,159.50752 132.923008,159.111488 C132.923008,158.319424 133.446336,157.95168 133.898944,157.697088 C133.573632,157.357632 133.276608,156.834304 133.276608,156.098816 C133.276608,154.670272 134.408128,153.581184 136.388288,153.581184 C136.939904,153.581184 137.449088,153.666048 137.816832,153.807488 C138.283584,153.340736 139.075648,153.057856 139.61312,153.185152 L139.61312,154.542976 C139.457536,154.429824 139.075648,154.373248 138.863488,154.500544 C139.273664,154.98144 139.429248,155.575488 139.429248,156.169536 C139.429248,157.781952 138.297728,158.644736 136.331712,158.644736 C135.72352,158.644736 135.115328,158.545728 134.606144,158.23456 C134.478848,158.333568 134.393984,158.475008 134.393984,158.673024 C134.393984,159.040768 134.691008,159.267072 135.285056,159.267072 L136.939904,159.267072 C138.4816,159.267072 139.528256,159.974272 139.528256,161.162368 C139.528256,162.308032 138.55232,163.453696 136.119552,163.453696 Z M136.388288,157.230336 C137.0672,157.230336 137.49152,156.834304 137.49152,156.211968 C137.49152,155.589632 137.081344,155.12288 136.388288,155.12288 C135.681088,155.12288 135.214336,155.603776 135.214336,156.197824 C135.214336,156.806016 135.681088,157.230336 136.388288,157.230336 Z M136.048832,161.897856 C137.222784,161.897856 137.590528,161.572544 137.590528,161.190656 C137.590528,160.936064 137.392512,160.837056 136.798464,160.837056 L135.468928,160.837056 C135.058752,160.837056 134.860736,160.808768 134.606144,160.766336 C134.52128,160.8512 134.492992,160.978496 134.492992,161.091648 C134.492992,161.685696 135.08704,161.897856 136.048832,161.897856 Z M143.318848,160.257152 C140.730496,160.257152 139.839424,158.361856 139.839424,156.89088 C139.839424,155.094592 141.16896,153.581184 143.318848,153.581184 C145.454592,153.581184 146.784128,155.094592 146.784128,156.905024 C146.784128,158.376 145.893056,160.257152 143.318848,160.257152 Z M143.318848,158.574016 C144.20992,158.574016 144.719104,157.767808 144.719104,156.933312 C144.719104,156.18368 144.308928,155.26432 143.318848,155.26432 C142.328768,155.26432 141.904448,156.18368 141.904448,156.933312 C141.904448,157.767808 142.427776,158.574016 143.318848,158.574016 Z M149.93824,160.257152 C148.495552,160.257152 147.901504,159.422656 147.901504,157.626368 L147.901504,155.320896 L146.727552,155.320896 L146.727552,153.694336 L147.901504,153.694336 L147.901504,151.841472 L149.895808,150.9504 L149.895808,153.694336 L151.805248,153.694336 L151.805248,155.320896 L149.895808,155.320896 L149.895808,157.640512 C149.895808,158.107264 149.86752,158.574016 150.178688,158.574016 C150.43328,158.574016 150.518144,158.291136 150.560576,158.135552 L152.031552,158.842752 C151.70624,159.875264 150.914176,160.257152 149.93824,160.257152 Z M156.953664,157.074752 L154.88864,157.074752 C154.733056,155.844224 155.044224,155.066304 155.921152,154.288384 C156.486912,153.793344 157.01024,153.482176 157.01024,152.902272 C157.01024,152.308224 156.472768,151.883904 155.850432,151.883904 C155.143232,151.883904 154.46432,152.449664 154.167296,153.609472 L152.158848,152.661824 C152.668032,150.992832 153.96928,150.016896 155.765568,150.016896 C157.675008,150.016896 159.117696,151.120128 159.117696,152.873984 C159.117696,154.005504 158.509504,154.585408 157.830592,155.151168 C157.066816,155.787648 156.854656,155.985664 156.953664,157.074752 Z M154.704768,158.998336 C154.704768,158.248704 155.213952,157.73952 155.963584,157.73952 C156.713216,157.73952 157.2224,158.248704 157.2224,158.998336 C157.2224,159.747968 156.713216,160.257152 155.963584,160.257152 C155.213952,160.257152 154.704768,159.747968 154.704768,158.998336 Z M47.99536,174.401152 C45.831328,174.401152 44.586656,173.142336 44.049184,171.727936 L46.057632,170.921728 C46.496096,171.982528 47.132576,172.548288 48.080224,172.548288 C48.759136,172.548288 49.381472,172.251264 49.381472,171.558208 C49.381472,170.907584 48.815712,170.53984 48.150944,170.370112 L46.736544,170.002368 C45.279712,169.606336 44.346208,168.602112 44.346208,167.173568 C44.346208,165.30656 45.958624,164.160896 47.981216,164.160896 C49.706784,164.160896 51.17776,164.995392 51.686944,166.72096 L49.735072,167.654464 C49.522912,166.593664 48.70256,165.999616 47.797344,165.999616 C47.090144,165.999616 46.397088,166.36736 46.397088,167.131136 C46.397088,167.753472 46.835552,168.036352 47.344736,168.177792 L48.77328,168.587968 C50.357408,169.040576 51.432352,169.988224 51.432352,171.544064 C51.432352,173.396928 49.918944,174.401152 47.99536,174.401152 Z M54.657184,174.401152 C53.214496,174.401152 52.620448,173.566656 52.620448,171.770368 L52.620448,169.464896 L51.446496,169.464896 L51.446496,167.838336 L52.620448,167.838336 L52.620448,165.985472 L54.614752,165.0944 L54.614752,167.838336 L56.524192,167.838336 L56.524192,169.464896 L54.614752,169.464896 L54.614752,171.784512 C54.614752,172.251264 54.586464,172.718016 54.897632,172.718016 C55.152224,172.718016 55.237088,172.435136 55.27952,172.279552 L56.750496,172.986752 C56.425184,174.019264 55.63312,174.401152 54.657184,174.401152 Z M59.324704,174.401152 C58.051744,174.401152 57.11824,173.72224 57.11824,172.548288 C57.11824,171.628928 57.698144,171.006592 59.437856,170.68128 L60.031904,170.568128 C60.65424,170.454976 60.908832,170.313536 60.908832,169.959936 C60.908832,169.464896 60.314784,169.40832 60.003616,169.40832 C59.0984,169.40832 58.857952,169.931648 58.716512,170.285248 L57.061664,169.507328 C57.089952,169.3376 57.684,167.725184 60.08848,167.725184 C61.64432,167.725184 62.903136,168.375808 62.903136,170.0448 L62.903136,172.477568 C62.903136,172.73216 63.016288,172.788736 63.171872,172.788736 C63.256736,172.788736 63.369888,172.774592 63.48304,172.73216 L63.48304,174.288 C63.214304,174.330432 62.888992,174.344576 62.690976,174.344576 C61.870624,174.344576 61.333152,174.118272 61.14928,173.340352 C61.120992,173.43936 60.809824,174.401152 59.324704,174.401152 Z M59.862176,172.859456 C60.541088,172.859456 60.908832,172.350272 60.908832,171.38848 C60.767392,171.52992 60.427936,171.60064 59.94704,171.713792 C59.452,171.826944 59.140832,171.940096 59.140832,172.30784 C59.140832,172.675584 59.452,172.859456 59.862176,172.859456 Z M64.246816,174.288 L64.246816,167.838336 L66.1704,167.838336 L66.1704,168.91328 C66.368416,168.163648 67.08976,167.725184 67.768672,167.725184 C68.249568,167.725184 68.730464,167.937344 68.956768,168.191936 L67.994976,169.818496 C67.825248,169.662912 67.542368,169.54976 67.273632,169.54976 C66.707872,169.54976 66.24112,170.030656 66.24112,171.162176 L66.24112,174.288 L64.246816,174.288 Z M71.842144,174.401152 C70.399456,174.401152 69.805408,173.566656 69.805408,171.770368 L69.805408,169.464896 L68.631456,169.464896 L68.631456,167.838336 L69.805408,167.838336 L69.805408,165.985472 L71.799712,165.0944 L71.799712,167.838336 L73.709152,167.838336 L73.709152,169.464896 L71.799712,169.464896 L71.799712,171.784512 C71.799712,172.251264 71.771424,172.718016 72.082592,172.718016 C72.337184,172.718016 72.422048,172.435136 72.46448,172.279552 L73.935456,172.986752 C73.610144,174.019264 72.81808,174.401152 71.842144,174.401152 Z M76.509664,174.401152 C75.236704,174.401152 74.3032,173.72224 74.3032,172.548288 C74.3032,171.628928 74.883104,171.006592 76.622816,170.68128 L77.216864,170.568128 C77.8392,170.454976 78.093792,170.313536 78.093792,169.959936 C78.093792,169.464896 77.499744,169.40832 77.188576,169.40832 C76.28336,169.40832 76.042912,169.931648 75.901472,170.285248 L74.246624,169.507328 C74.274912,169.3376 74.86896,167.725184 77.27344,167.725184 C78.82928,167.725184 80.088096,168.375808 80.088096,170.0448 L80.088096,172.477568 C80.088096,172.73216 80.201248,172.788736 80.356832,172.788736 C80.441696,172.788736 80.554848,172.774592 80.668,172.73216 L80.668,174.288 C80.399264,174.330432 80.073952,174.344576 79.875936,174.344576 C79.055584,174.344576 78.518112,174.118272 78.33424,173.340352 C78.305952,173.43936 77.994784,174.401152 76.509664,174.401152 Z M77.047136,172.859456 C77.726048,172.859456 78.093792,172.350272 78.093792,171.38848 C77.952352,171.52992 77.612896,171.60064 77.132,171.713792 C76.63696,171.826944 76.325792,171.940096 76.325792,172.30784 C76.325792,172.675584 76.63696,172.859456 77.047136,172.859456 Z M86.452896,174.401152 C85.179936,174.401152 84.246432,173.72224 84.246432,172.548288 C84.246432,171.628928 84.826336,171.006592 86.566048,170.68128 L87.160096,170.568128 C87.782432,170.454976 88.037024,170.313536 88.037024,169.959936 C88.037024,169.464896 87.442976,169.40832 87.131808,169.40832 C86.226592,169.40832 85.986144,169.931648 85.844704,170.285248 L84.189856,169.507328 C84.218144,169.3376 84.812192,167.725184 87.216672,167.725184 C88.772512,167.725184 90.031328,168.375808 90.031328,170.0448 L90.031328,172.477568 C90.031328,172.73216 90.14448,172.788736 90.300064,172.788736 C90.384928,172.788736 90.49808,172.774592 90.611232,172.73216 L90.611232,174.288 C90.342496,174.330432 90.017184,174.344576 89.819168,174.344576 C88.998816,174.344576 88.461344,174.118272 88.277472,173.340352 C88.249184,173.43936 87.938016,174.401152 86.452896,174.401152 Z M86.990368,172.859456 C87.66928,172.859456 88.037024,172.350272 88.037024,171.38848 C87.895584,171.52992 87.556128,171.60064 87.075232,171.713792 C86.580192,171.826944 86.269024,171.940096 86.269024,172.30784 C86.269024,172.675584 86.580192,172.859456 86.990368,172.859456 Z M91.162848,174.288 L91.162848,167.838336 L93.086432,167.838336 L93.086432,168.785984 C93.143008,168.48896 93.567328,167.725184 94.911008,167.725184 C96.480992,167.725184 97.174048,168.77184 97.174048,170.780288 L97.174048,174.288 L95.179744,174.288 L95.179744,170.851008 C95.179744,169.733632 94.896864,169.40832 94.288672,169.40832 C93.666336,169.40832 93.157152,169.76192 93.157152,170.836864 L93.157152,174.288 L91.162848,174.288 Z M102.294176,174.288 L102.294176,170.851008 C102.294176,169.747776 102.011296,169.40832 101.417248,169.40832 C100.809056,169.40832 100.32816,169.76192 100.32816,170.836864 L100.32816,174.288 L98.333856,174.288 L98.333856,167.838336 L100.25744,167.838336 L100.25744,168.785984 C100.4696,168.333376 101.03536,167.725184 102.152736,167.725184 C103.01552,167.725184 103.595424,168.092928 103.93488,168.785984 C104.28848,168.149504 105.0664,167.725184 106.028192,167.725184 C107.555744,167.725184 108.2488,168.785984 108.2488,170.780288 L108.2488,174.288 L106.254496,174.288 L106.254496,170.851008 C106.254496,169.747776 105.971616,169.40832 105.377568,169.40832 C104.769376,169.40832 104.28848,169.76192 104.28848,170.836864 L104.28848,174.288 L102.294176,174.288 Z M110.93616,174.401152 C109.6632,174.401152 108.729696,173.72224 108.729696,172.548288 C108.729696,171.628928 109.3096,171.006592 111.049312,170.68128 L111.64336,170.568128 C112.265696,170.454976 112.520288,170.313536 112.520288,169.959936 C112.520288,169.464896 111.92624,169.40832 111.615072,169.40832 C110.709856,169.40832 110.469408,169.931648 110.327968,170.285248 L108.67312,169.507328 C108.701408,169.3376 109.295456,167.725184 111.699936,167.725184 C113.255776,167.725184 114.514592,168.375808 114.514592,170.0448 L114.514592,172.477568 C114.514592,172.73216 114.627744,172.788736 114.783328,172.788736 C114.868192,172.788736 114.981344,172.774592 115.094496,172.73216 L115.094496,174.288 C114.82576,174.330432 114.500448,174.344576 114.302432,174.344576 C113.48208,174.344576 112.944608,174.118272 112.760736,173.340352 C112.732448,173.43936 112.42128,174.401152 110.93616,174.401152 Z M111.473632,172.859456 C112.152544,172.859456 112.520288,172.350272 112.520288,171.38848 C112.378848,171.52992 112.039392,171.60064 111.558496,171.713792 C111.063456,171.826944 110.752288,171.940096 110.752288,172.30784 C110.752288,172.675584 111.063456,172.859456 111.473632,172.859456 Z M109.479328,165.759168 C109.479328,165.16512 109.861216,164.783232 110.455264,164.783232 C111.049312,164.783232 111.4312,165.16512 111.4312,165.759168 C111.4312,166.353216 111.049312,166.735104 110.455264,166.735104 C109.861216,166.735104 109.479328,166.353216 109.479328,165.759168 Z M112.308128,165.759168 C112.308128,165.16512 112.690016,164.783232 113.284064,164.783232 C113.878112,164.783232 114.26,165.16512 114.26,165.759168 C114.26,166.353216 113.878112,166.735104 113.284064,166.735104 C112.690016,166.735104 112.308128,166.353216 112.308128,165.759168 Z M115.914848,174.288 L115.914848,164.302336 L117.909152,164.302336 L117.909152,174.288 L115.914848,174.288 Z M120.879392,174.401152 C119.606432,174.401152 118.672928,173.72224 118.672928,172.548288 C118.672928,171.628928 119.252832,171.006592 120.992544,170.68128 L121.586592,170.568128 C122.208928,170.454976 122.46352,170.313536 122.46352,169.959936 C122.46352,169.464896 121.869472,169.40832 121.558304,169.40832 C120.653088,169.40832 120.41264,169.931648 120.2712,170.285248 L118.616352,169.507328 C118.64464,169.3376 119.238688,167.725184 121.643168,167.725184 C123.199008,167.725184 124.457824,168.375808 124.457824,170.0448 L124.457824,172.477568 C124.457824,172.73216 124.570976,172.788736 124.72656,172.788736 C124.811424,172.788736 124.924576,172.774592 125.037728,172.73216 L125.037728,174.288 C124.768992,174.330432 124.44368,174.344576 124.245664,174.344576 C123.425312,174.344576 122.88784,174.118272 122.703968,173.340352 C122.67568,173.43936 122.364512,174.401152 120.879392,174.401152 Z M121.416864,172.859456 C122.095776,172.859456 122.46352,172.350272 122.46352,171.38848 C122.32208,171.52992 121.982624,171.60064 121.501728,171.713792 C121.006688,171.826944 120.69552,171.940096 120.69552,172.30784 C120.69552,172.675584 121.006688,172.859456 121.416864,172.859456 Z M125.589344,174.288 L125.589344,167.838336 L127.512928,167.838336 L127.512928,168.785984 C127.569504,168.48896 127.993824,167.725184 129.337504,167.725184 C130.907488,167.725184 131.600544,168.77184 131.600544,170.780288 L131.600544,174.288 L129.60624,174.288 L129.60624,170.851008 C129.60624,169.733632 129.32336,169.40832 128.715168,169.40832 C128.092832,169.40832 127.583648,169.76192 127.583648,170.836864 L127.583648,174.288 L125.589344,174.288 Z M135.872032,174.288 L135.872032,164.302336 L137.866336,164.302336 L137.866336,168.644544 C137.922912,168.389952 138.333088,167.725184 139.606048,167.725184 C141.190176,167.725184 141.883232,168.757696 141.883232,170.780288 L141.883232,174.288 L139.888928,174.288 L139.888928,170.851008 C139.888928,169.733632 139.606048,169.40832 138.997856,169.40832 C138.37552,169.40832 137.866336,169.76192 137.866336,170.836864 L137.866336,174.288 L135.872032,174.288 Z M144.59888,174.401152 C143.32592,174.401152 142.392416,173.72224 142.392416,172.548288 C142.392416,171.628928 142.97232,171.006592 144.712032,170.68128 L145.30608,170.568128 C145.928416,170.454976 146.183008,170.313536 146.183008,169.959936 C146.183008,169.464896 145.58896,169.40832 145.277792,169.40832 C144.372576,169.40832 144.132128,169.931648 143.990688,170.285248 L142.33584,169.507328 C142.364128,169.3376 142.958176,167.725184 145.362656,167.725184 C146.918496,167.725184 148.177312,168.375808 148.177312,170.0448 L148.177312,172.477568 C148.177312,172.73216 148.290464,172.788736 148.446048,172.788736 C148.530912,172.788736 148.644064,172.774592 148.757216,172.73216 L148.757216,174.288 C148.48848,174.330432 148.163168,174.344576 147.965152,174.344576 C147.1448,174.344576 146.607328,174.118272 146.423456,173.340352 C146.395168,173.43936 146.084,174.401152 144.59888,174.401152 Z M145.136352,172.859456 C145.815264,172.859456 146.183008,172.350272 146.183008,171.38848 C146.041568,171.52992 145.702112,171.60064 145.221216,171.713792 C144.726176,171.826944 144.415008,171.940096 144.415008,172.30784 C144.415008,172.675584 144.726176,172.859456 145.136352,172.859456 Z M143.142048,165.759168 C143.142048,165.16512 143.523936,164.783232 144.117984,164.783232 C144.712032,164.783232 145.09392,165.16512 145.09392,165.759168 C145.09392,166.353216 144.712032,166.735104 144.117984,166.735104 C143.523936,166.735104 143.142048,166.353216 143.142048,165.759168 Z M145.970848,165.759168 C145.970848,165.16512 146.352736,164.783232 146.946784,164.783232 C147.540832,164.783232 147.92272,165.16512 147.92272,165.759168 C147.92272,166.353216 147.540832,166.735104 146.946784,166.735104 C146.352736,166.735104 145.970848,166.353216 145.970848,165.759168 Z M149.520992,174.288 L149.520992,167.838336 L151.444576,167.838336 L151.444576,168.91328 C151.642592,168.163648 152.363936,167.725184 153.042848,167.725184 C153.523744,167.725184 154.00464,167.937344 154.230944,168.191936 L153.269152,169.818496 C153.099424,169.662912 152.816544,169.54976 152.547808,169.54976 C151.982048,169.54976 151.515296,170.030656 151.515296,171.162176 L151.515296,174.288 L149.520992,174.288 Z M155.13616,164.302336 L157.271904,164.302336 L157.243616,171.218752 L155.178592,171.218752 L155.13616,164.302336 Z M154.952288,173.142336 C154.952288,172.392704 155.461472,171.88352 156.211104,171.88352 C156.960736,171.88352 157.46992,172.392704 157.46992,173.142336 C157.46992,173.891968 156.960736,174.401152 156.211104,174.401152 C155.461472,174.401152 154.952288,173.891968 154.952288,173.142336 Z" id="Hardethäntnågot?Startaanmälanhär!" fill="#141033" fill-rule="nonzero"></path>
                    <g id="Anmäl-Försenat-Bagage-Copy" transform="translate(55.000000, 188.000000)">
                        <rect id="anmäl-skada-bg" fill="#651EFF" x="0" y="0" width="92" height="38" rx="18.8586667"></rect>
                        <path d="M24.6129173,21.9653333 L23.8868587,20.0983253 L20.926048,20.0983253 L20.218848,21.9653333 L19.228768,21.9653333 L21.88784,15.279936 L22.9533547,15.279936 L25.6124267,21.9653333 L24.6129173,21.9653333 Z M22.397024,16.241728 L21.2560747,19.240256 L23.556832,19.240256 L22.397024,16.241728 Z M27.347424,19.3439787 L27.347424,21.9653333 L26.4610667,21.9653333 L26.4610667,17.429824 L27.3285653,17.429824 L27.3285653,18.080448 C27.6303055,17.5586889 28.0954813,17.2978133 28.7241067,17.2978133 C29.2458657,17.2978133 29.6466084,17.4643966 29.9263467,17.797568 C30.206085,18.1307394 30.345952,18.5613414 30.345952,19.0893867 L30.345952,21.9653333 L29.4595947,21.9653333 L29.4595947,19.240256 C29.4595947,18.4796193 29.1075697,18.0993067 28.4035093,18.0993067 C28.0703379,18.0993067 27.8110338,18.2171722 27.6255893,18.4529067 C27.4401449,18.6886412 27.347424,18.9856622 27.347424,19.3439787 Z M32.63728,21.9653333 L31.760352,21.9653333 L31.760352,17.429824 L32.608992,17.429824 L32.608992,18.0333013 C32.7472896,17.7944237 32.9421605,17.6121251 33.1936107,17.4864 C33.4450608,17.3606749 33.7090795,17.2978133 33.9856747,17.2978133 C34.2811286,17.2978133 34.5514334,17.3701042 34.7965973,17.514688 C35.0417612,17.6592718 35.2240598,17.8730013 35.3434987,18.1558827 C35.6578113,17.5838336 36.1638472,17.2978133 36.8616213,17.2978133 C37.2953728,17.2978133 37.6646847,17.4455381 37.969568,17.740992 C38.2744513,18.0364459 38.4268907,18.4639048 38.4268907,19.0233813 L38.4268907,21.9653333 L37.5499627,21.9653333 L37.5499627,19.1176747 C37.5499627,18.803362 37.4698141,18.5519156 37.3095147,18.363328 C37.1492152,18.1747404 36.9087696,18.080448 36.5881707,18.080448 C36.2801442,18.080448 36.0286979,18.1888842 35.833824,18.40576 C35.6389501,18.6226358 35.5415147,18.8945121 35.5415147,19.2213973 L35.5415147,21.9653333 L34.6551573,21.9653333 L34.6551573,19.1176747 C34.6551573,18.803362 34.5750088,18.5519156 34.4147093,18.363328 C34.2544099,18.1747404 34.0139643,18.080448 33.6933653,18.080448 C33.3790527,18.080448 33.1244632,18.1873127 32.9295893,18.4010453 C32.7347155,18.614778 32.63728,18.891369 32.63728,19.2308267 L32.63728,21.9653333 Z M39.5584107,20.7489493 C39.5584107,20.3592016 39.6841339,20.0464652 39.935584,19.8107307 C40.1870341,19.5749962 40.5202006,19.4288429 40.9350933,19.3722667 L42.1609067,19.1931093 C42.3934981,19.1616781 42.509792,19.0485272 42.509792,18.8536533 C42.509792,18.6147757 42.4280719,18.4199048 42.2646293,18.2690347 C42.1011867,18.1181646 41.8560265,18.0427307 41.5291413,18.0427307 C41.2274012,18.0427307 40.9885271,18.1260223 40.812512,18.292608 C40.6364969,18.4591937 40.5327753,18.6807808 40.501344,18.957376 L39.652704,18.75936 C39.6967078,18.3256085 39.8947218,17.972012 40.246752,17.69856 C40.5987822,17.425108 41.0199549,17.288384 41.5102827,17.288384 C42.1514805,17.288384 42.6260856,17.4439664 42.934112,17.755136 C43.2421384,18.0663056 43.3961493,18.4639051 43.3961493,18.9479467 L43.3961493,21.220416 C43.3961493,21.4907249 43.4150078,21.7390282 43.4527253,21.9653333 L42.5852267,21.9653333 C42.5537954,21.7767457 42.53808,21.5724455 42.53808,21.3524267 C42.4123549,21.5535868 42.2284848,21.7295992 41.986464,21.8804693 C41.7444432,22.0313394 41.441136,22.1067733 41.0765333,22.1067733 C40.6302093,22.1067733 40.2656121,21.9731924 39.9827307,21.7060267 C39.6998493,21.4388609 39.5584107,21.1198383 39.5584107,20.7489493 Z M41.1991147,21.361856 C41.5951486,21.361856 41.9125997,21.2549913 42.1514773,21.0412587 C42.390355,20.827526 42.509792,20.4880734 42.509792,20.0228907 L42.509792,19.8154453 L41.12368,20.0228907 C40.9225199,20.0543219 40.7622228,20.1266128 40.642784,20.2397653 C40.5233452,20.3529179 40.4636267,20.5069288 40.4636267,20.7018027 C40.4636267,20.8778178 40.5312029,21.0318287 40.6663573,21.16384 C40.8015118,21.2958513 40.9790958,21.361856 41.1991147,21.361856 Z M40.1241707,16.1097173 C40.1241707,15.9588472 40.1760315,15.829981 40.2797547,15.7231147 C40.3834779,15.6162484 40.5107726,15.562816 40.6616427,15.562816 C40.818799,15.562816 40.9508084,15.6162484 41.0576747,15.7231147 C41.164541,15.829981 41.2179733,15.9588472 41.2179733,16.1097173 C41.2179733,16.2668737 41.164541,16.3973115 41.0576747,16.5010347 C40.9508084,16.6047579 40.818799,16.6566187 40.6616427,16.6566187 C40.5107726,16.6566187 40.3834779,16.6047579 40.2797547,16.5010347 C40.1760315,16.3973115 40.1241707,16.2668737 40.1241707,16.1097173 Z M41.887456,16.1097173 C41.887456,15.9588472 41.9393168,15.829981 42.04304,15.7231147 C42.1467632,15.6162484 42.277201,15.562816 42.4343573,15.562816 C42.5852274,15.562816 42.7140937,15.6162484 42.82096,15.7231147 C42.9278263,15.829981 42.9812587,15.9588472 42.9812587,16.1097173 C42.9812587,16.2668737 42.9278263,16.3973115 42.82096,16.5010347 C42.7140937,16.6047579 42.5852274,16.6566187 42.4343573,16.6566187 C42.277201,16.6566187 42.1467632,16.6047579 42.04304,16.5010347 C41.9393168,16.3973115 41.887456,16.2668737 41.887456,16.1097173 Z M45.6591893,21.9653333 L44.772832,21.9653333 L44.772832,15.138496 L45.6591893,15.138496 L45.6591893,21.9653333 Z M49.100896,20.7866667 L49.9023893,20.5037867 C49.9338206,20.7489506 50.0406853,20.9516792 50.2229867,21.1119787 C50.405288,21.2722781 50.6504482,21.3524267 50.9584747,21.3524267 C51.1973523,21.3524267 51.3859371,21.2942797 51.5242347,21.177984 C51.6625322,21.0616883 51.73168,20.9186782 51.73168,20.7489493 C51.73168,20.4472092 51.5368091,20.2523382 51.1470613,20.1643307 L50.373856,19.9946027 C50.0218258,19.9191676 49.7452348,19.7682998 49.5440747,19.5419947 C49.3429145,19.3156895 49.242336,19.0422416 49.242336,18.7216427 C49.242336,18.3318949 49.4010615,17.9955854 49.7185173,17.712704 C50.0359731,17.4298226 50.4147142,17.288384 50.854752,17.288384 C51.1439197,17.288384 51.4016522,17.3308156 51.6279573,17.41568 C51.8542625,17.5005444 52.0302749,17.6121238 52.156,17.7504213 C52.2817251,17.8887189 52.3760175,18.0175852 52.43888,18.137024 C52.5017425,18.2564628 52.5488887,18.3790429 52.58032,18.504768 L51.7976853,18.7970773 C51.7851128,18.7216423 51.7631113,18.6477799 51.73168,18.575488 C51.7002487,18.5031961 51.651531,18.4230476 51.5855253,18.33504 C51.5195197,18.2470324 51.4236557,18.1763132 51.2979307,18.12288 C51.1722056,18.0694468 51.0244808,18.0427307 50.854752,18.0427307 C50.6347331,18.0427307 50.454006,18.1024492 50.3125653,18.221888 C50.1711246,18.3413268 50.1004053,18.4827654 50.1004053,18.646208 C50.1004053,18.9353757 50.2732747,19.1176743 50.6190187,19.1931093 L51.3545067,19.353408 C51.7568269,19.4414156 52.0664202,19.6032842 52.283296,19.8390187 C52.5001718,20.0747532 52.608608,20.362345 52.608608,20.7018027 C52.608608,21.0601191 52.4624548,21.3838563 52.170144,21.673024 C51.8778332,21.9621917 51.4708044,22.1067733 50.9490453,22.1067733 C50.3895688,22.1067733 49.9526807,21.9669063 49.638368,21.687168 C49.3240553,21.4074297 49.1448998,21.1072656 49.100896,20.7866667 Z M57.8513173,17.429824 L55.918304,19.3439787 L57.8890347,21.9653333 L56.7763733,21.9653333 L55.295968,19.9663147 L54.6642027,20.59808 L54.6642027,21.9653333 L53.7872747,21.9653333 L53.7872747,15.138496 L54.6642027,15.138496 L54.6642027,19.438272 L56.625504,17.429824 L57.8513173,17.429824 Z M58.4547947,20.7489493 C58.4547947,20.3592016 58.5805179,20.0464652 58.831968,19.8107307 C59.0834181,19.5749962 59.4165846,19.4288429 59.8314773,19.3722667 L61.0572907,19.1931093 C61.2898821,19.1616781 61.406176,19.0485272 61.406176,18.8536533 C61.406176,18.6147757 61.3244559,18.4199048 61.1610133,18.2690347 C60.9975707,18.1181646 60.7524105,18.0427307 60.4255253,18.0427307 C60.1237852,18.0427307 59.8849111,18.1260223 59.708896,18.292608 C59.5328809,18.4591937 59.4291593,18.6807808 59.397728,18.957376 L58.549088,18.75936 C58.5930918,18.3256085 58.7911058,17.972012 59.143136,17.69856 C59.4951662,17.425108 59.9163389,17.288384 60.4066667,17.288384 C61.0478645,17.288384 61.5224696,17.4439664 61.830496,17.755136 C62.1385224,18.0663056 62.2925333,18.4639051 62.2925333,18.9479467 L62.2925333,21.220416 C62.2925333,21.4907249 62.3113918,21.7390282 62.3491093,21.9653333 L61.4816107,21.9653333 C61.4501794,21.7767457 61.434464,21.5724455 61.434464,21.3524267 C61.3087389,21.5535868 61.1248688,21.7295992 60.882848,21.8804693 C60.6408272,22.0313394 60.33752,22.1067733 59.9729173,22.1067733 C59.5265933,22.1067733 59.1619961,21.9731924 58.8791147,21.7060267 C58.5962333,21.4388609 58.4547947,21.1198383 58.4547947,20.7489493 Z M60.0954987,21.361856 C60.4915326,21.361856 60.8089837,21.2549913 61.0478613,21.0412587 C61.286739,20.827526 61.406176,20.4880734 61.406176,20.0228907 L61.406176,19.8154453 L60.020064,20.0228907 C59.8189039,20.0543219 59.6586068,20.1266128 59.539168,20.2397653 C59.4197292,20.3529179 59.3600107,20.5069288 59.3600107,20.7018027 C59.3600107,20.8778178 59.4275869,21.0318287 59.5627413,21.16384 C59.6978958,21.2958513 59.8754798,21.361856 60.0954987,21.361856 Z M64.1972587,19.6834347 C64.1972587,20.1611899 64.3151242,20.5509318 64.5508587,20.852672 C64.7865932,21.1544122 65.1119019,21.30528 65.5267947,21.30528 C65.9228286,21.30528 66.2402797,21.1512691 66.4791573,20.8432427 C66.718035,20.5352162 66.837472,20.1423313 66.837472,19.664576 C66.837472,19.193107 66.7211781,18.8127943 66.4885867,18.5236267 C66.2559953,18.234459 65.9385442,18.0898773 65.536224,18.0898773 C65.1339038,18.0898773 64.8101666,18.2376021 64.5650027,18.533056 C64.3198388,18.8285099 64.1972587,19.2119656 64.1972587,19.6834347 Z M66.8469013,21.3524267 L66.8469013,21.276992 C66.7274625,21.5095834 66.5467354,21.7028828 66.3047147,21.856896 C66.0626939,22.0109092 65.7751021,22.0879147 65.4419307,22.0879147 C64.7944465,22.0879147 64.2742669,21.8600414 63.881376,21.404288 C63.4884851,20.9485346 63.2920427,20.3749226 63.2920427,19.6834347 C63.2920427,19.023378 63.4931998,18.4623383 63.89552,18.0002987 C64.2978402,17.538259 64.8133053,17.3072427 65.4419307,17.3072427 C65.8128196,17.3072427 66.1145553,17.381105 66.3471467,17.528832 C66.5797381,17.676559 66.7400351,17.857286 66.8280427,18.0710187 L66.8280427,15.138496 L67.7049707,15.138496 L67.7049707,21.1261227 C67.7049707,21.4341491 67.7206861,21.7138832 67.7521173,21.9653333 L66.894048,21.9653333 C66.8626167,21.7893182 66.8469013,21.5850181 66.8469013,21.3524267 Z M68.930784,20.7489493 C68.930784,20.3592016 69.0565072,20.0464652 69.3079573,19.8107307 C69.5594075,19.5749962 69.8925739,19.4288429 70.3074667,19.3722667 L71.53328,19.1931093 C71.7658714,19.1616781 71.8821653,19.0485272 71.8821653,18.8536533 C71.8821653,18.6147757 71.8004453,18.4199048 71.6370027,18.2690347 C71.4735601,18.1181646 71.2283999,18.0427307 70.9015147,18.0427307 C70.5997745,18.0427307 70.3609004,18.1260223 70.1848853,18.292608 C70.0088702,18.4591937 69.9051486,18.6807808 69.8737173,18.957376 L69.0250773,18.75936 C69.0690811,18.3256085 69.2670951,17.972012 69.6191253,17.69856 C69.9711555,17.425108 70.3923282,17.288384 70.882656,17.288384 C71.5238539,17.288384 71.9984589,17.4439664 72.3064853,17.755136 C72.6145118,18.0663056 72.7685227,18.4639051 72.7685227,18.9479467 L72.7685227,21.220416 C72.7685227,21.4907249 72.7873811,21.7390282 72.8250987,21.9653333 L71.9576,21.9653333 C71.9261687,21.7767457 71.9104533,21.5724455 71.9104533,21.3524267 C71.7847283,21.5535868 71.6008581,21.7295992 71.3588373,21.8804693 C71.1168166,22.0313394 70.8135094,22.1067733 70.4489067,22.1067733 C70.0025827,22.1067733 69.6379854,21.9731924 69.355104,21.7060267 C69.0722226,21.4388609 68.930784,21.1198383 68.930784,20.7489493 Z M70.571488,21.361856 C70.967522,21.361856 71.284973,21.2549913 71.5238507,21.0412587 C71.7627283,20.827526 71.8821653,20.4880734 71.8821653,20.0228907 L71.8821653,19.8154453 L70.4960533,20.0228907 C70.2948932,20.0543219 70.1345962,20.1266128 70.0151573,20.2397653 C69.8957185,20.3529179 69.836,20.5069288 69.836,20.7018027 C69.836,20.8778178 69.9035762,21.0318287 70.0387307,21.16384 C70.1738851,21.2958513 70.3514691,21.361856 70.571488,21.361856 Z" id="Anmälskada" fill="#FFFFFF" fill-rule="nonzero"></path>
                    </g>
                    <rect id="Rectangle" fill="#FFE8E6" x="0" y="32" width="202" height="108" rx="4"></rect>
                    <g id="UFO" transform="translate(105.500000, 61.500000) rotate(-330.000000) translate(-105.500000, -61.500000) translate(92.000000, 47.000000)">
                        <path d="M11.2886842,4.23929217 L15.0515789,4.23929217 L23.4748289,26.1709669 C23.8482545,27.1432576 23.3627784,28.2341762 22.3904877,28.6076017 C22.1746944,28.690481 21.9455025,28.7329802 21.7143409,28.7329802 L4.62592224,28.7329802 C3.5843869,28.7329802 2.74005569,27.888649 2.74005569,26.8471137 C2.74005569,26.6159521 2.78255494,26.3867602 2.86543418,26.1709669 L11.2886842,4.23929217 Z" id="Rectangle" fill="#FBE3E1"></path>
                        <ellipse id="Oval-Copy" fill="#D9C1BF" cx="13.1701316" cy="4.23929217" rx="13.1701316" ry="1.88412985"></ellipse>
                        <path d="M16.9330263,3.7682597 C16.9330263,4.02840375 15.2483209,4.23929217 13.1701316,4.23929217 C11.0919422,4.23929217 9.40723683,4.02840375 9.40723683,3.7682597 L9.40723683,3.76289473 C9.40723683,1.68470536 11.0919422,3.81757195e-16 13.1701316,0 C15.2483209,-3.81757195e-16 16.9330263,1.68470536 16.9330263,3.76289473 L16.9330263,3.7682597 Z" id="Combined-Shape" fill="#EED6D4"></path>
                    </g>
                    <g id="Running-Man" transform="translate(124.000000, 71.000000)">
                        <g id="Group-2" transform="translate(30.318018, 34.672574) rotate(-345.000000) translate(-30.318018, -34.672574) translate(9.910247, 4.550392)">
                            <path d="M34.6605834,18.1759532 C34.6605834,18.1759532 35.5128919,11.8934351 36.9334084,13.6068489 C38.3539249,15.3202627 36.9334084,17.890384 36.9334084,17.890384 L35.7969952,19.3182299 L34.6605834,18.4615224 L34.6605834,18.1759532 Z" id="Path" fill="#FFB8B8" fill-rule="nonzero"></path>
                            <path d="M31.2513452,20.1749361 C31.2513452,20.1749361 34.0923768,17.0336778 34.6605834,17.6048148 C35.22879,18.1759518 36.9334084,18.4615224 36.6493051,19.6037978 C36.3652018,20.7460731 30.3990353,24.4584712 30.3990353,24.4584712 L31.2513452,20.1749361 Z" id="Path" fill="#651EFF" fill-rule="nonzero"></path>
                            <path d="M15.0574667,19.8893669 L15.0574667,22.1739191 C15.0574667,22.1739191 14.7733634,27.3141617 16.4779818,27.0285925 C18.1826002,26.7430234 17.3302917,22.4594883 17.3302917,22.4594883 L17.0461884,19.8893669 L15.0574667,19.8893669 Z" id="Path" fill="#FFB8B8" fill-rule="nonzero"></path>
                            <path d="M15.9097766,36.4523703 C15.9097766,36.4523703 13.3528482,40.4503375 12.5005383,40.7359067 C11.6482284,41.0214759 7.1025811,43.5915959 6.53437315,46.1617158 L2.55692833,51.3019585 L4.54565006,53.8720798 C4.54565006,53.8720798 13.6369515,44.1627329 16.1938785,43.3060253 C18.7508055,42.4493178 21.3077352,38.165784 21.3077352,38.165784 L15.9097766,36.4523703 Z" id="Path" fill="#FFB8B8" fill-rule="nonzero"></path>
                            <path d="M36.0810985,29.8842831 C36.0810985,29.8842831 41.4790558,30.7409906 40.6267486,34.1678181 C39.7744414,37.5946457 31.5354485,44.7338754 31.5354485,44.7338754 L31.2513452,46.4472959 L28.1262157,47.0184248 L26.7057005,45.5905802 L26.9898038,44.7338726 C26.9898038,44.7338726 30.3990407,41.5926129 30.683144,40.4503375 C30.9672473,39.3080622 34.0923822,34.7389565 35.5128974,34.4533873 L33.5241729,33.3111119 L36.0810985,29.8842831 Z" id="Path" fill="#FFB8B8" fill-rule="nonzero"></path>
                            <path d="M3.40923822,51.3019599 C3.40923822,51.3019599 4.54565006,49.5885393 2.84103163,49.8741153 C1.13641319,50.1596913 3.63797881e-12,50.4452523 3.63797881e-12,51.5875291 C3.63797881e-12,52.7298058 1.42051649,60.7257376 3.12513492,60.1545992 C4.82975336,59.5834609 3.40923822,57.0133409 3.40923822,57.0133409 C3.40923822,57.0133409 4.26154676,54.7287888 4.82975336,54.4432196 C5.39795995,54.1576504 5.39795995,52.7298058 4.82975336,52.7298058 C4.26154676,52.7298058 3.12513628,51.8731051 3.40923822,51.3019599 Z" id="Path" fill="#2F2E41" fill-rule="nonzero"></path>
                            <path d="M27.558005,45.0194418 C27.558005,45.0194418 27.558005,43.5915959 26.4215918,45.0194418 C25.2851786,46.4472878 24.7169734,47.5895632 25.8533852,48.4462694 C26.9897971,49.3029756 30.9672419,51.3019599 30.9672419,51.3019599 C30.9672419,51.3019599 35.2287886,52.1586674 34.6605834,50.1596845 C34.6605834,50.1596845 31.8195518,48.7318385 31.8195518,47.5895632 C31.8195518,46.4472878 31.8195518,44.4483035 30.9672419,45.0194418 C30.114932,45.5905802 27.558005,45.876148 27.558005,45.0194418 Z" id="Path" fill="#2F2E41" fill-rule="nonzero"></path>
                            <path d="M22.1600451,23.601765 C22.1600451,23.601765 18.1826016,24.1729034 18.4667035,29.8842831 C18.4667035,29.8842831 13.3528482,35.0245257 14.7733634,36.7379395 C16.1938785,38.4513532 19.3190134,41.5926129 20.4554266,40.7359067 C21.5918398,39.8792005 25.0010767,33.3111119 25.0010767,33.3111119 C25.0010767,33.3111119 32.9559636,36.1668011 34.3764801,34.7389565 C35.7969966,33.3111119 37.2175117,29.8842831 37.2175117,29.8842831 L30.1149293,26.1718863 L22.1600451,23.601765 Z" id="Path" fill="#FF8A80" fill-rule="nonzero"></path>
                            <ellipse id="Oval" fill="#FFB8B8" fill-rule="nonzero" cx="33.2400669" cy="3.89750198" rx="3.40923822" ry="3.42682889"></ellipse>
                            <path d="M30.6831386,4.18307117 C30.6831386,4.18307117 28.6944169,7.32433087 28.1262103,7.60990006 C27.5580037,7.89546925 32.1036551,10.7511584 32.1036551,10.7511584 C32.1036551,10.7511584 32.1036551,7.03876168 33.5241702,6.18205412 L30.6831386,4.18307117 Z" id="Path" fill="#FFB8B8" fill-rule="nonzero"></path>
                            <path d="M30.3990353,7.32433087 C30.3990353,7.32433087 25.8533852,5.89648493 25.001078,8.18103707 C24.1487709,10.4655892 22.1600464,14.7491257 22.4441497,17.6048148 C22.728253,20.460504 23.2964583,19.8893669 22.4441497,20.7460745 C21.5918412,21.6027821 21.0236332,21.0316437 21.3077365,22.1739191 C21.5918398,23.3161945 21.8759431,23.3161958 21.5918398,23.8873397 C21.3077365,24.4584835 25.0010767,26.4574555 28.1262157,26.7430274 L31.2513506,27.0285966 C31.2513506,27.0285966 31.2513506,21.8883553 31.8195572,20.7460786 C32.3877638,19.6038018 33.5241824,17.3192497 33.5241824,16.4625435 L33.5241824,14.1957635 C33.5241824,12.6870251 33.1324723,11.2044051 32.3877706,9.89445356 L32.3877706,9.89445356 C32.3877706,9.89445356 30.6831386,7.32433087 30.3990353,7.32433087 Z" id="Path" fill="#651EFF" fill-rule="nonzero"></path>
                            <path d="M26.9897984,8.46660626 C26.9897984,8.46660626 16.4779818,9.32331382 15.34157,12.1790043 C14.2051581,15.0346948 13.6369515,20.7460745 14.7733634,20.7460745 C15.9097752,20.7460745 17.3302917,21.3172129 17.614395,20.7460745 C17.8984983,20.1749361 19.0349101,14.4635565 19.3190134,14.4635565 C19.6031167,14.4635565 28.1262103,13.6068489 28.1262103,13.6068489 C28.1262103,13.6068489 31.8195477,9.03774463 26.9897984,8.46660626 Z" id="Path" fill="#651EFF" fill-rule="nonzero"></path>
                            <path d="M33.3770471,3.04794605 C33.3770471,3.04794605 34.2817609,1.46760691 35.4126362,2.84027474 C36.5435115,4.21294256 38.3832145,1.69042382 38.1008021,1.15217178 C37.8183897,0.613919744 36.8210518,1.17637312 35.1118948,0.614766163 C33.4027379,0.0531592098 30.1103474,-1.09094941 29.558947,2.64116711 C29.0075466,6.37328363 30.3207833,5.98202648 30.3207833,5.98202648 C30.3207833,5.98202648 30.9227299,2.67496802 31.4667712,3.6248976 L32.0108126,4.57482855 L32.4827271,4.69157449 L33.3770471,3.04794605 Z" id="Path" fill="#2F2E41" fill-rule="nonzero"></path>
                            <path d="M33.3235693,1.38868973 L34.1696345,3.08226615 C34.4032598,3.54991597 34.2135455,4.11841177 33.7458956,4.35203706 C33.614588,4.41763481 33.4698238,4.45179606 33.3230425,4.45182131 C32.800605,4.45191121 32.3770129,4.02846482 32.376923,3.50602734 C32.3768977,3.35916038 32.41107,3.21430483 32.4767331,3.08293415 L33.3235693,1.38868973 Z" id="Triangle" stroke="#FFFFFF" stroke-width="0.589333333" fill="#651EFF" transform="translate(33.323042, 2.920387) rotate(-15.000000) translate(-33.323042, -2.920387) "></path>
                        </g>
                        <rect id="Rectangle" fill="#FF8A80" opacity="0.3" x="4.08106127" y="59.3452381" width="43.1964495" height="1.1727747" rx="0.586387352"></rect>
                        <path d="M23.502258,19.7485625 L7.95874213,19.7485625" id="Line-4" stroke="#F9FAFC" stroke-width="0.589333333" stroke-linecap="round"></path>
                        <path d="M18.7003212,23.8456776 L2.03576714,23.8456776" id="Line-5" stroke="#F9FAFC" stroke-width="0.589333333" stroke-linecap="round"></path>
                        <path d="M21.1905471,41.1078898 L6.23257826,41.1078898" id="Line-6" stroke="#F9FAFC" stroke-width="0.589333333" stroke-linecap="round"></path>
                    </g>
                    <g id="House" transform="translate(15.000000, 67.000000)">
                        <polygon id="Path" fill="#EBD3D1" points="8.47203019 29.8135499 7.95473109 29.8044391 9.50559298 20.7838271 0.624889193 17.1087805 28.6067959 0.953419139 42.5584658 10.1337371 8.47203019 29.8135499"></polygon>
                        <path d="M26.3777121,49.6375067 L19.6577968,45.3920301 L14.0570109,43.8859328 L14.6735043,36.7589822 L14.7830791,29.9247013 L8.47203019,29.8135499 L42.5584658,10.1337371 L55.6189113,32.7550924 L26.3777121,49.6375067 Z" id="Combined-Shape" fill="#F1D9D7"></path>
                        <path d="M26.3777121,49.6375067 L19.6577968,45.3920301 L14.0570109,43.8859328 L14.6735043,36.7589822 L14.7043845,34.8329576 L18.7136498,32.5182072 L28.0425395,48.6763181 L26.3777121,49.6375067 Z" id="Combined-Shape" fill="#EBD3D1"></path>
                        <rect id="Rectangle" fill="#EBD3D1" transform="translate(33.434725, 26.173405) rotate(-30.000000) translate(-33.434725, -26.173405) " x="31.5616393" y="24.3076275" width="3.74617076" height="3.73155587"></rect>
                        <rect id="Rectangle-Copy-4" fill="#EBD3D1" transform="translate(35.766947, 30.212933) rotate(-30.000000) translate(-35.766947, -30.212933) " x="33.8938617" y="28.3471552" width="3.74617076" height="3.73155587"></rect>
                        <rect id="Rectangle-Copy" fill="#EBD3D1" transform="translate(37.490073, 23.832049) rotate(-30.000000) translate(-37.490073, -23.832049) " x="35.6169881" y="21.9662708" width="3.74617076" height="3.73155587"></rect>
                        <rect id="Rectangle-Copy-5" fill="#EBD3D1" transform="translate(39.822296, 27.871576) rotate(-30.000000) translate(-39.822296, -27.871576) " x="37.9492105" y="26.0057985" width="3.74617076" height="3.73155587"></rect>
                    </g>
                    <g id="Group" transform="translate(62.026811, 94.141251) rotate(-30.000000) translate(-62.026811, -94.141251) translate(57.526811, 89.641251)"></g>
                </g>
            </g>
        </g>
    </g>
</svg>