<svg width="343" height="300" xmlns="http://www.w3.org/2000/svg" xmlns:xlink="http://www.w3.org/1999/xlink"><defs><path d="M171.5 237C53.356 237 0 213.946 0 148.5S44.117 0 138.833 0C233.55 0 343 76 343 118.5S289.644 237 171.5 237z" id="a"/><path d="M36 0h186c17.673 0 32 14.327 32 32v60h2a2 2 0 012 2v76a2 2 0 01-2 2h-2v88.475a158.817 158.817 0 01-12 8.7V35c0-13.255-10.745-24-24-24H40c-13.255 0-24 10.745-24 24v252.346c-4.236-1.372-8.235-2.866-12-4.487V180H2a2 2 0 01-2-2v-36a2 2 0 012-2h2v-8H2a2 2 0 01-2-2V94a2 2 0 012-2h2V32C4 14.327 18.327 0 36 0z" id="c"/><path d="M0 276.346V24C0 10.745 10.745 0 24 0h178c13.255 0 24 10.745 24 24v234.176C198.549 276.203 160.979 289 112.5 289c-47.893 0-85.139-3.788-112.5-12.654z" id="e"/><path id="g" d="M0 65V0l39 16v65z"/><path id="i" d="M0 81V16L39 0v65z"/><path id="k" d="M0 74.659V0l39 15.927V91z"/><path id="m" d="M0 91V15.927L39 0v74.659z"/><path id="o" d="M38.7 0L78 16 39 32 0 16z"/><path d="M2.463 0h67.074A2.463 2.463 0 0172 2.463v7.074A2.463 2.463 0 0169.537 12H2.463A2.463 2.463 0 010 9.537V2.463A2.463 2.463 0 012.463 0z" id="q"/><path d="M5.131 0H144.87C147.703 0 150 1.103 150 2.463v7.074c0 1.36-2.297 2.463-5.131 2.463H5.13C2.297 12 0 10.897 0 9.537V2.463C0 1.103 2.297 0 5.131 0z" id="s"/><path d="M2.463 0h35.074A2.463 2.463 0 0140 2.463v7.074A2.463 2.463 0 0137.537 12H2.463A2.463 2.463 0 010 9.537V2.463A2.463 2.463 0 012.463 0z" id="u"/></defs><g fill="none" fill-rule="evenodd"><g transform="translate(0 63)"><mask id="b" fill="#fff"><use xlink:href="#a"/></mask><path fill="#C8AC0B" mask="url(#b)" d="M-10-10h363v257H-10z"/></g><g transform="translate(43)"><mask id="d" fill="#fff"><use xlink:href="#c"/></mask><path fill="#1E1E1E" mask="url(#d)" d="M-10-10h278v307.346H-10z"/></g><g transform="translate(59 11)"><mask id="f" fill="#fff"><use xlink:href="#e"/></mask><path fill="#000" mask="url(#f)" d="M-10-10h246v309H-10z"/></g><g transform="translate(133 80)"><mask id="h" fill="#fff"><use xlink:href="#g"/></mask><path fill="#2AF3C1" mask="url(#h)" d="M-10-10h59V91h-59z"/></g><g transform="translate(172 80)"><mask id="j" fill="#fff"><use xlink:href="#i"/></mask><path fill="#17D4A5" mask="url(#j)" d="M-10-10h59V91h-59z"/></g><g transform="translate(133 145)"><mask id="l" fill="#fff"><use xlink:href="#k"/></mask><path fill="#5B1BE6" mask="url(#l)" d="M-10-10h59v111h-59z"/></g><g transform="translate(172 145)"><mask id="n" fill="#fff"><use xlink:href="#m"/></mask><path fill="#0F007A" mask="url(#n)" d="M-10-10h59v111h-59z"/></g><g transform="translate(133 64)"><mask id="p" fill="#fff"><use xlink:href="#o"/></mask><path fill="#1BE9B6" mask="url(#p)" d="M-10-10h98v52h-98z"/></g><g transform="translate(136 32)"><mask id="r" fill="#fff"><use xlink:href="#q"/></mask><path fill="#505050" mask="url(#r)" d="M-10-10h92v32h-92z"/></g><g transform="translate(98 256)"><mask id="t" fill="#fff"><use xlink:href="#s"/></mask><path fill="#505050" mask="url(#t)" d="M-15.417-10h180.834v32H-15.417z"/></g><g transform="translate(227 32)"><mask id="v" fill="#fff"><use xlink:href="#u"/></mask><path fill="#505050" mask="url(#v)" d="M-10-10h60v32h-60z"/></g></g></svg>