<?xml version="1.0" encoding="UTF-8"?>
<svg width="343px" height="300px" viewBox="0 0 343 300" version="1.1" xmlns="http://www.w3.org/2000/svg" xmlns:xlink="http://www.w3.org/1999/xlink">
    <!-- Generator: Sketch 55.2 (78181) - https://sketchapp.com -->
    <title>Group</title>
    <desc>Created with Sketch.</desc>
    <defs>
        <linearGradient x1="63.1773611%" y1="50.4112244%" x2="63.1773611%" y2="50.3778866%" id="linearGradient-1">
            <stop stop-color="#5B1BE6" offset="0%"></stop>
            <stop stop-color="#0F007A" offset="90.7742998%"></stop>
            <stop stop-color="#0F007A" offset="100%"></stop>
            <stop stop-color="#0F007A" offset="100%"></stop>
        </linearGradient>
        <linearGradient x1="63.1773604%" y1="50.0085094%" x2="63.1773604%" y2="50.008509%" id="linearGradient-2">
            <stop stop-color="#2AF3C1" offset="0%"></stop>
            <stop stop-color="#000000" offset="36.365076%"></stop>
            <stop stop-color="#16D4A5" offset="100%"></stop>
        </linearGradient>
    </defs>
    <g id="Receiver-📥" stroke="none" stroke-width="1" fill="none" fill-rule="evenodd">
        <g id="Referrals-Reciever-#Welcome-04" transform="translate(-16.000000, -152.000000)">
            <g id="Group" transform="translate(16.000000, 152.000000)">
                <path d="M171.5,300 C289.644444,300 343,224 343,181.5 C343,139 233.550168,63 138.833333,63 C44.1164987,63 0,146.054257 0,211.5 C0,276.945743 53.3555556,300 171.5,300 Z" id="Oval" fill="#FAD80E"></path>
                <path d="M79,0 L265,0 C282.673112,-3.24649801e-15 297,14.326888 297,32 L297,92 L299,92 C300.104569,92 301,92.8954305 301,94 L301,170 C301,171.104569 300.104569,172 299,172 L297,172 L297,260.47481 C268.895787,282.944655 227.46761,300 171.5,300 C116.192508,300 75.0834965,294.947661 47,282.859146 L47,180 L45,180 C43.8954305,180 43,179.104569 43,178 L43,142 C43,140.895431 43.8954305,140 45,140 L47,140 L47,132 L45,132 C43.8954305,132 43,131.104569 43,130 L43,94 C43,92.8954305 43.8954305,92 45,92 L47,92 L47,32 C47,14.326888 61.326888,3.24649801e-15 79,0 Z" id="Combined-Shape" fill="#141033"></path>
                <path d="M285,269.175828 C257.548893,287.203477 219.978871,300 171.5,300 C123.607186,300 86.3610627,296.211518 59,287.346407 L59,36 C59,22.745166 69.745166,12 83,12 L261,12 C274.254834,12 285,22.745166 285,36 L285,269.175828 Z" id="Combined-Shape" fill="#FFFFFF"></path>
                <g id="Phone" transform="translate(83.000000, 32.000000)">
                    <g id="Bar" transform="translate(89.000000, 119.000000) rotate(-270.000000) translate(-89.000000, -119.000000) translate(2.000000, 80.000000)">
                        <polygon id="Blue-Body" fill="url(#linearGradient-1)" points="156.854037 78 173.276509 39 156.854037 0 17.1067416 1.53453292e-12 33.5292135 39 17.1067416 78"></polygon>
                        <polygon id="Ridge" fill="#7F4AF4" points="16.9673996 0.818759986 16.6244086 1.42108547e-14 17.3095345 1.95399252e-12 33.7320064 39.3004793 17.3095345 78 16.6244086 78 16.9673996 77.19376 33.0477367 39.3004793"></polygon>
                        <polygon id="Ridge" fill="#7F4AF4" points="29.70134 0.818759986 29.358349 8.85085641e-15 30.0434748 1.94863253e-12 46.4659468 39.3004793 30.0434748 78 29.358349 78 29.70134 77.19376 45.7816771 39.3004793"></polygon>
                        <polygon id="Ridge" fill="#7F4AF4" points="42.4352804 0.818759986 42.0922894 7.96577077e-15 42.7774152 1.94774744e-12 59.1998871 39.3004793 42.7774152 78 42.0922894 78 42.4352804 77.19376 58.5156175 39.3004793"></polygon>
                        <polygon id="Ridge" fill="#7F4AF4" points="55.1692208 0.818759986 54.8262298 7.08068513e-15 55.5113556 1.94686235e-12 71.9338275 39.3004793 55.5113556 78 54.8262298 78 55.1692208 77.19376 71.2495579 39.3004793"></polygon>
                        <polygon id="Ridge" fill="#7F4AF4" points="67.9031612 0.818759986 67.5601702 6.19559949e-15 68.245296 1.94597727e-12 84.6677679 39.3004793 68.245296 78 67.5601702 78 67.9031612 77.19376 83.9834982 39.3004793"></polygon>
                        <polygon id="Ridge" fill="#7F4AF4" points="80.6371015 0.818759986 80.2941105 5.31051385e-15 80.9792364 1.94509218e-12 97.4017083 39.3004793 80.9792364 78 80.2941105 78 80.6371015 77.19376 96.7174386 39.3004793"></polygon>
                        <path d="M80.6593558,77.6551724 L96.9366246,39 L80.6593558,0.34482756 L16.7931539,0.34482756 L32.7313129,39 L16.7931539,77.6551724 L80.6593558,77.6551724 Z" id="Path-2-Copy" stroke="#1BE9B6" stroke-width="0.68965512" fill="url(#linearGradient-2)"></path>
                        <polygon id="Top" fill="#1BE9B6" points="0.342134831 39.3004793 16.7646067 0 33.1870787 39.3004793 16.7646067 78"></polygon>
                    </g>
                    <path d="M3.922,236.256 C1.78,236.256 0.548,235.01 0.016,233.61 L2.004,232.812 C2.438,233.862 3.068,234.422 4.006,234.422 C4.678,234.422 5.294,234.128 5.294,233.442 C5.294,232.798 4.734,232.434 4.076,232.266 L2.676,231.902 C1.234,231.51 0.31,230.516 0.31,229.102 C0.31,227.254 1.906,226.12 3.908,226.12 C5.616,226.12 7.072,226.946 7.576,228.654 L5.644,229.578 C5.434,228.528 4.622,227.94 3.726,227.94 C3.026,227.94 2.34,228.304 2.34,229.06 C2.34,229.676 2.774,229.956 3.278,230.096 L4.692,230.502 C6.26,230.95 7.324,231.888 7.324,233.428 C7.324,235.262 5.826,236.256 3.922,236.256 Z M11.818,229.648 C13.442,229.648 14.842,230.992 14.842,232.882 C14.842,234.408 13.932,236.256 11.916,236.256 C10.824,236.256 10.236,235.71 10.152,235.304 L10.152,239.21 L8.178,239.21 L8.178,229.76 L10.152,229.76 L10.152,230.712 C10.25,230.25 10.656,229.648 11.818,229.648 Z M11.412,231.314 C10.726,231.314 10.096,231.748 10.096,232.98 C10.096,234.198 10.712,234.59 11.426,234.59 C12.392,234.59 12.798,233.848 12.798,233.008 C12.798,232.098 12.322,231.314 11.412,231.314 Z M15.626,236.144 L15.626,229.76 L17.53,229.76 L17.53,230.824 C17.726,230.082 18.44,229.648 19.112,229.648 C19.588,229.648 20.064,229.858 20.288,230.11 L19.336,231.72 C19.168,231.566 18.888,231.454 18.622,231.454 C18.062,231.454 17.6,231.93 17.6,233.05 L17.6,236.144 L15.626,236.144 Z M20.708,236.144 L20.708,229.76 L22.682,229.76 L22.682,236.144 L20.708,236.144 Z M20.596,227.408 C20.596,226.722 21.03,226.288 21.674,226.288 C22.36,226.288 22.794,226.722 22.794,227.408 C22.794,228.052 22.36,228.486 21.674,228.486 C21.03,228.486 20.596,228.052 20.596,227.408 Z M26.518,236.256 C24.894,236.256 23.494,234.912 23.494,233.022 C23.494,231.496 24.404,229.648 26.42,229.648 C27.512,229.648 28.1,230.194 28.184,230.6 L28.184,226.26 L30.158,226.26 L30.158,236.144 L28.184,236.144 L28.184,235.192 C28.086,235.654 27.68,236.256 26.518,236.256 Z M26.924,234.59 C27.61,234.59 28.24,234.156 28.24,232.924 C28.24,231.706 27.624,231.314 26.91,231.314 C25.944,231.314 25.538,232.056 25.538,232.896 C25.538,233.806 26.014,234.59 26.924,234.59 Z M34.582,236.144 L34.582,226.26 L36.654,226.26 L36.654,230.222 L40.84,230.222 L40.84,226.26 L42.912,226.26 L42.912,236.144 L40.84,236.144 L40.84,232.084 L36.654,232.084 L36.654,236.144 L34.582,236.144 Z M47,236.256 C44.872,236.256 43.78,234.828 43.78,233.008 C43.78,231.258 44.802,229.62 47.028,229.648 C48.568,229.662 50.444,230.474 50.15,233.414 L45.754,233.414 C45.838,234.338 46.468,234.59 47.028,234.59 C47.588,234.59 47.938,234.338 48.12,233.918 L49.814,234.786 C49.366,235.64 48.4,236.256 47,236.256 Z M45.754,232.21 L48.358,232.21 C48.372,231.678 47.882,231.216 47.098,231.216 C46.356,231.216 45.88,231.636 45.754,232.21 Z M53.832,236.256 C52.208,236.256 50.808,234.912 50.808,233.022 C50.808,231.496 51.718,229.648 53.734,229.648 C54.826,229.648 55.414,230.194 55.498,230.6 L55.498,226.26 L57.472,226.26 L57.472,236.144 L55.498,236.144 L55.498,235.192 C55.4,235.654 54.994,236.256 53.832,236.256 Z M54.238,234.59 C54.924,234.59 55.554,234.156 55.554,232.924 C55.554,231.706 54.938,231.314 54.224,231.314 C53.258,231.314 52.852,232.056 52.852,232.896 C52.852,233.806 53.328,234.59 54.238,234.59 Z M60.58,236.144 L58.032,229.76 L60.146,229.76 L61.392,233.33 L62.722,229.76 L64.808,229.76 L62.246,236.144 L60.58,236.144 Z M65.032,236.144 L65.032,229.76 L67.006,229.76 L67.006,236.144 L65.032,236.144 Z M64.92,227.408 C64.92,226.722 65.354,226.288 65.998,226.288 C66.684,226.288 67.118,226.722 67.118,227.408 C67.118,228.052 66.684,228.486 65.998,228.486 C65.354,228.486 64.92,228.052 64.92,227.408 Z M71.136,239.42 C69.078,239.42 67.776,238.594 67.776,237.292 C67.776,236.55 68.21,236.228 68.42,236.088 C68.098,235.794 67.972,235.514 67.972,235.122 C67.972,234.338 68.49,233.974 68.938,233.722 C68.616,233.386 68.322,232.868 68.322,232.14 C68.322,230.726 69.442,229.648 71.402,229.648 C71.948,229.648 72.452,229.732 72.816,229.872 C73.278,229.41 74.062,229.13 74.594,229.256 L74.594,230.6 C74.44,230.488 74.062,230.432 73.852,230.558 C74.258,231.034 74.412,231.622 74.412,232.21 C74.412,233.806 73.292,234.66 71.346,234.66 C70.744,234.66 70.142,234.562 69.638,234.254 C69.512,234.352 69.428,234.492 69.428,234.688 C69.428,235.052 69.722,235.276 70.31,235.276 L71.948,235.276 C73.474,235.276 74.51,235.976 74.51,237.152 C74.51,238.286 73.544,239.42 71.136,239.42 Z M71.402,233.26 C72.074,233.26 72.494,232.868 72.494,232.252 C72.494,231.636 72.088,231.174 71.402,231.174 C70.702,231.174 70.24,231.65 70.24,232.238 C70.24,232.84 70.702,233.26 71.402,233.26 Z M71.066,237.88 C72.228,237.88 72.592,237.558 72.592,237.18 C72.592,236.928 72.396,236.83 71.808,236.83 L70.492,236.83 C70.086,236.83 69.89,236.802 69.638,236.76 C69.554,236.844 69.526,236.97 69.526,237.082 C69.526,237.67 70.114,237.88 71.066,237.88 Z M81.79,236.256 C79.228,236.256 78.346,234.38 78.346,232.924 C78.346,231.146 79.662,229.648 81.79,229.648 C83.904,229.648 85.22,231.146 85.22,232.938 C85.22,234.394 84.338,236.256 81.79,236.256 Z M81.79,234.59 C82.672,234.59 83.176,233.792 83.176,232.966 C83.176,232.224 82.77,231.314 81.79,231.314 C80.81,231.314 80.39,232.224 80.39,232.966 C80.39,233.792 80.908,234.59 81.79,234.59 Z M89.406,236.256 C87.04,236.256 85.976,234.534 85.976,232.924 C85.976,231.314 87.026,229.648 89.476,229.648 C91.268,229.648 92.122,230.53 92.472,231.538 L90.68,232.322 C90.512,231.65 90.064,231.314 89.406,231.314 C88.16,231.314 88.02,232.504 88.02,232.938 C88.02,233.61 88.37,234.59 89.448,234.59 C89.728,234.59 90.302,234.52 90.624,233.82 L92.318,234.674 C91.856,235.668 90.792,236.256 89.406,236.256 Z M93.046,236.144 L93.046,226.26 L95.02,226.26 L95.02,230.558 C95.076,230.306 95.482,229.648 96.742,229.648 C98.31,229.648 98.996,230.67 98.996,232.672 L98.996,236.144 L97.022,236.144 L97.022,232.742 C97.022,231.636 96.742,231.314 96.14,231.314 C95.524,231.314 95.02,231.664 95.02,232.728 L95.02,236.144 L93.046,236.144 Z M105.576,236.256 C104.316,236.256 103.28,235.738 102.804,234.758 L104.372,233.932 C104.638,234.45 105.142,234.66 105.576,234.66 C105.94,234.66 106.318,234.506 106.318,234.156 C106.318,233.68 105.59,233.624 104.988,233.526 C104.176,233.386 103.042,232.994 103.042,231.664 C103.042,230.306 104.232,229.648 105.716,229.648 C106.948,229.648 107.928,230.11 108.334,231.244 L106.822,231.972 C106.64,231.37 106.094,231.174 105.674,231.174 C105.282,231.174 105.044,231.342 105.044,231.65 C105.044,232.126 105.66,232.196 106.136,232.28 C107.116,232.462 108.32,232.924 108.32,234.254 C108.32,235.682 106.906,236.256 105.576,236.256 Z M110.966,236.256 C109.706,236.256 108.782,235.584 108.782,234.422 C108.782,233.512 109.356,232.896 111.078,232.574 L111.666,232.462 C112.282,232.35 112.534,232.21 112.534,231.86 C112.534,231.37 111.946,231.314 111.638,231.314 C110.742,231.314 110.504,231.832 110.364,232.182 L108.726,231.412 C108.754,231.244 109.342,229.648 111.722,229.648 C113.262,229.648 114.508,230.292 114.508,231.944 L114.508,234.352 C114.508,234.604 114.62,234.66 114.774,234.66 C114.858,234.66 114.97,234.646 115.082,234.604 L115.082,236.144 C114.816,236.186 114.494,236.2 114.298,236.2 C113.486,236.2 112.954,235.976 112.772,235.206 C112.744,235.304 112.436,236.256 110.966,236.256 Z M111.498,234.73 C112.17,234.73 112.534,234.226 112.534,233.274 C112.394,233.414 112.058,233.484 111.582,233.596 C111.092,233.708 110.784,233.82 110.784,234.184 C110.784,234.548 111.092,234.73 111.498,234.73 Z M109.524,227.702 C109.524,227.114 109.902,226.736 110.49,226.736 C111.078,226.736 111.456,227.114 111.456,227.702 C111.456,228.29 111.078,228.668 110.49,228.668 C109.902,228.668 109.524,228.29 109.524,227.702 Z M112.324,227.702 C112.324,227.114 112.702,226.736 113.29,226.736 C113.878,226.736 114.256,227.114 114.256,227.702 C114.256,228.29 113.878,228.668 113.29,228.668 C112.702,228.668 112.324,228.29 112.324,227.702 Z M115.838,236.144 L115.838,229.76 L117.742,229.76 L117.742,230.698 C117.798,230.404 118.218,229.648 119.548,229.648 C121.102,229.648 121.788,230.684 121.788,232.672 L121.788,236.144 L119.814,236.144 L119.814,232.742 C119.814,231.636 119.534,231.314 118.932,231.314 C118.316,231.314 117.812,231.664 117.812,232.728 L117.812,236.144 L115.838,236.144 Z M122.936,236.144 L122.936,226.26 L124.91,226.26 L124.91,231.594 L127.094,229.76 L129.782,229.76 L126.8,232.378 L129.124,236.144 L126.8,236.144 L125.344,233.666 L124.91,234.044 L124.91,236.144 L122.936,236.144 Z M136.068,236.256 C134.444,236.256 133.044,234.912 133.044,233.022 C133.044,231.496 133.954,229.648 135.97,229.648 C137.062,229.648 137.65,230.194 137.734,230.6 L137.734,226.26 L139.708,226.26 L139.708,236.144 L137.734,236.144 L137.734,235.192 C137.636,235.654 137.23,236.256 136.068,236.256 Z M136.474,234.59 C137.16,234.59 137.79,234.156 137.79,232.924 C137.79,231.706 137.174,231.314 136.46,231.314 C135.494,231.314 135.088,232.056 135.088,232.896 C135.088,233.806 135.564,234.59 136.474,234.59 Z M140.702,236.144 L140.702,229.76 L142.676,229.76 L142.676,236.144 L140.702,236.144 Z M140.59,227.408 C140.59,226.722 141.024,226.288 141.668,226.288 C142.354,226.288 142.788,226.722 142.788,227.408 C142.788,228.052 142.354,228.486 141.668,228.486 C141.024,228.486 140.59,228.052 140.59,227.408 Z M146.456,236.256 C145.028,236.256 144.44,235.43 144.44,233.652 L144.44,231.37 L143.278,231.37 L143.278,229.76 L144.44,229.76 L144.44,227.926 L146.414,227.044 L146.414,229.76 L148.304,229.76 L148.304,231.37 L146.414,231.37 L146.414,233.666 C146.414,234.128 146.386,234.59 146.694,234.59 C146.946,234.59 147.03,234.31 147.072,234.156 L148.528,234.856 C148.206,235.878 147.422,236.256 146.456,236.256 Z M151.482,236.256 C150.054,236.256 149.466,235.43 149.466,233.652 L149.466,231.37 L148.304,231.37 L148.304,229.76 L149.466,229.76 L149.466,227.926 L151.44,227.044 L151.44,229.76 L153.33,229.76 L153.33,231.37 L151.44,231.37 L151.44,233.666 C151.44,234.128 151.412,234.59 151.72,234.59 C151.972,234.59 152.056,234.31 152.098,234.156 L153.554,234.856 C153.232,235.878 152.448,236.256 151.482,236.256 Z M160.89,229.648 C162.514,229.648 163.914,230.992 163.914,232.882 C163.914,234.408 163.004,236.256 160.988,236.256 C159.896,236.256 159.308,235.71 159.224,235.304 L159.224,239.21 L157.25,239.21 L157.25,229.76 L159.224,229.76 L159.224,230.712 C159.322,230.25 159.728,229.648 160.89,229.648 Z M160.484,231.314 C159.798,231.314 159.168,231.748 159.168,232.98 C159.168,234.198 159.784,234.59 160.498,234.59 C161.464,234.59 161.87,233.848 161.87,233.008 C161.87,232.098 161.394,231.314 160.484,231.314 Z M164.698,236.144 L164.698,229.76 L166.602,229.76 L166.602,230.824 C166.798,230.082 167.512,229.648 168.184,229.648 C168.66,229.648 169.136,229.858 169.36,230.11 L168.408,231.72 C168.24,231.566 167.96,231.454 167.694,231.454 C167.134,231.454 166.672,231.93 166.672,233.05 L166.672,236.144 L164.698,236.144 Z M169.78,236.144 L169.78,229.76 L171.754,229.76 L171.754,236.144 L169.78,236.144 Z M169.668,227.408 C169.668,226.722 170.102,226.288 170.746,226.288 C171.432,226.288 171.866,226.722 171.866,227.408 C171.866,228.052 171.432,228.486 170.746,228.486 C170.102,228.486 169.668,228.052 169.668,227.408 Z M175.296,236.256 C174.036,236.256 173,235.738 172.524,234.758 L174.092,233.932 C174.358,234.45 174.862,234.66 175.296,234.66 C175.66,234.66 176.038,234.506 176.038,234.156 C176.038,233.68 175.31,233.624 174.708,233.526 C173.896,233.386 172.762,232.994 172.762,231.664 C172.762,230.306 173.952,229.648 175.436,229.648 C176.668,229.648 177.648,230.11 178.054,231.244 L176.542,231.972 C176.36,231.37 175.814,231.174 175.394,231.174 C175.002,231.174 174.764,231.342 174.764,231.65 C174.764,232.126 175.38,232.196 175.856,232.28 C176.836,232.462 178.04,232.924 178.04,234.254 C178.04,235.682 176.626,236.256 175.296,236.256 Z" id="SpridHedvigochsänkdittpris" fill="#141033" fill-rule="nonzero"></path>
                    <rect id="Rectangle" fill="#E9ECEF" x="53" y="0" width="72" height="12" rx="2.46305404"></rect>
                    <rect id="Rectangle-Copy" fill="#E9ECEF" x="144" y="0" width="40" height="12" rx="2.46305404"></rect>
                </g>
            </g>
        </g>
    </g>
</svg>