<svg width="343" height="300" xmlns="http://www.w3.org/2000/svg"><g fill="none" fill-rule="evenodd"><path d="M171.5 300C289.644 300 343 224 343 181.5S233.55 63 138.833 63 0 146.054 0 211.5 53.356 300 171.5 300z" fill="#FFE8E6"/><path d="M122.284 275.344c-1.044-.759-22.286-9.795-35.581-28.076-13.295-18.28-18.498-45.566-17.353-58.662 3.51-40.113 33.736-64.54 68.122-61.53 34.387 3.008 59.912 32.312 56.403 72.425-1.085 12.4-7.63 35.406-24.706 52.25-17.075 16.845-41.264 23.382-42.486 23.978-1.543.752.255 3.335 5.395 7.749a2.267 2.267 0 01-2.064 3.556l-12.973-1.135a2.271 2.271 0 01-1.415-3.86c5.828-3.454 8.048-5.686 6.658-6.695z" fill="#0F007A"/><path d="M136.059 173.762c-.82-.595-17.473-7.68-27.896-22.012-10.423-14.332-14.502-35.724-13.604-45.991 2.751-31.448 26.448-50.599 53.407-48.24 26.96 2.358 46.971 25.333 44.22 56.781-.85 9.723-5.982 27.76-19.37 40.965-13.386 13.206-32.35 18.331-33.308 18.798-1.21.59.2 2.615 4.229 6.075a1.778 1.778 0 01-1.618 2.788l-10.17-.89a1.78 1.78 0 01-1.11-3.026c4.57-2.708 6.31-4.457 5.22-5.248z" fill="#FAD80E"/><path d="M129.994 116.134l8.425 6.035a3.2 3.2 0 01-1.035 5.692l-12.385 3.319a3.2 3.2 0 01-3.743-4.412l4.057-8.95-11.797-6.078c-35.758-18.445-59.38-30.632-65.433-53.224-5.21-19.446 5.91-38.755 25.32-43.956 8.972-2.404 18.93-1.306 27.382 3.025 5.155-7.977 13.229-13.906 22.202-16.31 19.41-5.202 38.694 5.96 43.905 25.407 6.053 22.591-8.31 44.956-30.055 78.81l-6.843 10.642z" fill="#FF8A80"/><path d="M220.904 251.81c-1.302-.785-27.114-9.23-44.562-29.374C158.893 202.292 150 170.719 150 155.19c0-47.564 32.907-79.42 73.5-79.42s73.5 31.856 73.5 79.42c0 14.705-5.31 42.45-23.588 64.03-18.277 21.58-45.945 31.763-47.316 32.59-1.73 1.044.64 3.898 7.114 8.563a2.686 2.686 0 01-.342 3.775 2.668 2.668 0 01-1.71.622h-15.315a2.677 2.677 0 01-2.673-2.681c0-.627.22-1.235.62-1.716 6.473-4.665 8.845-7.52 7.114-8.563z" fill="#FFF"/><path fill="#1BE9B6" d="M236.465 183.766h9.14v-20.964h-9.14z"/><path d="M245.603 162.802h-9.139c0-7.1-5.905-12.878-13.162-12.878-7.26 0-13.164 5.779-13.164 12.878h-9.139c0-12.029 10.005-21.816 22.303-21.816 12.296 0 22.301 9.787 22.301 21.816" fill="#651EFF"/><path fill="#0F007A" d="M201 162.802h9.139V123.77H201z"/><path fill="#FF8A80" d="M201 183.766h9.139v-20.964H201z"/></g></svg>