<svg width="343" height="300" xmlns="http://www.w3.org/2000/svg" xmlns:xlink="http://www.w3.org/1999/xlink"><defs><path d="M0 132.236v-.013c0-3.834.53-7.732 1.605-11.676 12.94-47.475 58.724-2.499 136.359-80.457C215.599-37.87 343 8.107 343 90.563c0 82.44-53.085 118.423-170.628 118.437h-.134C64.463 208.986.006 174.545 0 132.236z" id="a"/><path d="M36 0h186c17.673 0 32 14.327 32 32v60h2a2 2 0 012 2v76a2 2 0 01-2 2h-2v102.793C226.031 291.967 184.866 300 129.303 300 76.166 300 33.554 291.633 4 278.08V180H2a2 2 0 01-2-2v-36a2 2 0 012-2h2v-8H2a2 2 0 01-2-2V94a2 2 0 012-2h2V32C4 14.327 18.327 0 36 0z" id="c"/><path d="M0 271.028V24C0 10.745 10.745 0 24 0h178c13.255 0 24 10.745 24 24v245.227C198.701 281.982 161.395 288 113.303 288 66.975 288 28.648 281.64 0 271.028z" id="e"/><path d="M0 11.744V4a4 4 0 014-4h91a4 4 0 014 4v20.99c-39.2-.259-72.548-5.11-99-13.246z" id="g"/><path d="M0 24.997V4a4 4 0 014-4h91a4 4 0 014 4v7.17C73.447 20.414 40.606 24.877 0 24.997z" id="i"/><path d="M2.463 0h71.429a2.463 2.463 0 012.463 2.463v7.39a2.463 2.463 0 01-2.463 2.462H2.463A2.463 2.463 0 010 9.852V2.463A2.463 2.463 0 012.463 0z" id="k"/><path d="M18.859 0H73.14C83.557 0 92 8.443 92 18.859v.282C92 29.557 83.557 38 73.141 38H18.86C8.443 38 0 29.557 0 19.141v-.282C0 8.443 8.443 0 18.859 0z" id="m"/><path d="M4 0h194a4 4 0 014 4v100a4 4 0 01-4 4H4a4 4 0 01-4-4V4a4 4 0 014-4z" id="o"/><path d="M19.715.508l3.26 1.882-3.672 23.205a1.886 1.886 0 01-2.806 1.338L1.698 18.39a1.886 1.886 0 01-.243-3.099L19.715.508z" id="q"/><path d="M11.403 9.08C5.103 5.445.419 1.766.939.865c.52-.901 6.049 1.317 12.348 4.953 6.299 3.637 10.984 7.316 10.463 8.217-.52.901-6.048-1.316-12.347-4.953z" id="s"/><path d="M6.839 5.923c-.13.225-1.695-.435-3.494-1.474C1.545 3.409.19 2.385.32 2.159l.003-.004a3.763 3.763 0 116.518 3.763l-.003.005z" id="u"/><path d="M.177 4.822S2.627-1.026 3.555.997c.929 2.023-1.109 4.138-1.109 4.138L.98 6.22.103 5.098l.074-.276z" id="w"/><path d="M2.367 1.87S5.924-.427 6.325.27c.4.7 1.974 1.416 1.404 2.446C7.159 3.746.435 5.788.435 5.788L2.367 1.87z" id="y"/><path d="M1.798.404L3.72.918l-.39 2.556s-.286 4.359-2.006 4.193c-1.72-.165-.116-5.057-.116-5.057L1.798.404z" id="A"/><path d="M17.335.623l4.77 3.052s-3.578 3.476-6.27 3.642c-2.691.165-13.986 7.19-13.986 7.19L.594 11.512l5.172-3.936c1.214-2.336 6.27-3.642 7.167-3.697.897-.055 4.402-3.255 4.402-3.255z" id="C"/><path d="M13.519.5S18.51 2.723 16.8 5.812c-1.71 3.09-11.516 7.853-11.516 7.853l-.718 1.582L1.4 14.99.398 13.244l.496-.754S5 10.338 5.57 9.308c.57-1.03 4.771-4.634 6.217-4.542l-1.625-1.618L13.52.499z" id="E"/><path d="M4.417 1.731c-.422.478.454 1.6 1.003 1.747.548.147.179 1.526-.444 1.655S2.94 7.248 2.94 7.248s.707 2.85-1.088 2.96C.057 10.32.754 2.229 1.05 1.126 1.346.02 2.517.04 4.238.205c1.72.165.179 1.526.179 1.526z" id="G"/><path d="M3.369.913c-.222.827 2.322 1.213 3.293.882.971-.33.454 1.6.158 2.703C6.524 5.602 8.9 7.716 8.9 7.716c.03 2.078-3.864.148-3.864.148s-3.325-2.96-4.2-4.082C-.04 2.66.803 1.704 2.27.619 3.74-.466 3.37.913 3.37.913z" id="I"/><path d="M10.698.828l7.019 4.541 5.9 5.425s-2.26 2.942-4.001 3.953c-1.742 1.012-8.686-3.805-8.686-3.805s-4.994 5.462-6.313 5.995c-1.32.533-3.525-3.31-4.454-5.332C-.765 9.582 5.505 5.94 5.505 5.94 6.709.35 10.698.828 10.698.828z" id="K"/><path d="M2.614 6.973A3.418 3.418 0 01.207 2.78 3.418 3.418 0 014.387.353a3.418 3.418 0 012.407 4.192 3.418 3.418 0 01-4.18 2.428z" id="M"/><path d="M3.957.277l2.227 2.666c-1.594.46-2.555 4.046-2.555 4.046S-.023 3.054.6 2.925C1.223 2.796 3.957.277 3.957.277z" id="O"/><path d="M12.87 2.237c.274.074 1.255 2.998 1.255 2.998a8.705 8.705 0 01-.015 4.449l-.587 2.19c-.222.827-1.91 2.74-2.755 3.695-.845.957-2.175 5.922-2.175 5.922l-2.945-1.085c-2.945-1.084-5.995-3.971-5.573-4.45.423-.477.148-.551.17-1.728.02-1.177.422-.478 1.467-1.085 1.045-.607.348-.202.813-3.034.464-2.832 3.494-6.455 4.909-8.441 1.414-1.986 5.435.57 5.435.57z" id="Q"/><path d="M16.28 1.458c4.518 1.802-.232 5.26-.232 5.26S7.594 5.339 7.319 5.266c-.274-.074-2.85 5.149-3.272 5.627-.423.478-1.647-.441-2.745-.735-1.097-.294.93-5.664 2.767-8.128C5.905-.435 16.28 1.458 16.28 1.458z" id="S"/><path d="M4.853 3.878l-1.29 1.356-.425-.235-.28-1.059c-.28-1.058-1.717 1.98-1.717 1.98s-1.37.039.129-3.423C2.768-.966 5.653.992 7.158 1.977c1.506.984 2.615.699 2.748 1.292.134.593-2.296 2.553-3.033.935-.737-1.619-2.02-.326-2.02-.326z" id="U"/><path d="M1.834.209l.846 1.693a.946.946 0 11-1.693 0L1.834.21z" id="W"/><path d="M.667.345h42.024a.586.586 0 010 1.173H.667a.586.586 0 010-1.173z" id="Y"/><path id="aa" d="M8.472 29.814l-.517-.01 1.55-9.02-8.88-3.675L28.607.953l13.952 9.18z"/><path id="ac" d="M18.378 39.638l-6.72-4.246-5.601-1.506.616-7.127.11-6.834-6.311-.111L34.559.134l13.06 22.621z"/><path id="ae" d="M12.378 17.637l-6.72-4.245-5.601-1.506.616-7.127.031-1.926L4.714.518l9.329 16.158z"/><path id="ag" d="M.88 2.494L4.124.621 5.99 3.853 2.745 5.726z"/><path id="ai" d="M.212 2.534L3.456.66l1.866 3.231-3.244 1.873z"/><path id="ak" d="M.935 2.153L4.179.28 6.045 3.51 2.801 5.384z"/><path id="am" d="M.267 2.192L3.511.32l1.866 3.232-3.244 1.873z"/><path d="M2 0h58a2 2 0 012 2v7a2 2 0 01-2 2H2a2 2 0 01-2-2V2a2 2 0 012-2z" id="ao"/><path d="M2 0h106a2 2 0 012 2v8a2 2 0 01-2 2H2a2 2 0 01-2-2V2a2 2 0 012-2z" id="aq"/><path d="M2 0h46a2 2 0 012 2v8a2 2 0 01-2 2H2a2 2 0 01-2-2V2a2 2 0 012-2z" id="as"/></defs><g fill="none" fill-rule="evenodd"><g transform="translate(0 91)"><mask id="b" fill="#fff"><use xlink:href="#a"/></mask><path fill="#009175" mask="url(#b)" d="M-10-10h363v229H-10z"/></g><g transform="translate(43)"><mask id="d" fill="#fff"><use xlink:href="#c"/></mask><path fill="#1E1E1E" mask="url(#d)" d="M-10-10h278v320H-10z"/></g><g transform="translate(59 12)"><mask id="f" fill="#fff"><use xlink:href="#e"/></mask><path fill="#000" mask="url(#f)" d="M-10-10h246v308H-10z"/></g><g transform="translate(70 275)"><mask id="h" fill="#fff"><use xlink:href="#g"/></mask><path fill="#505050" mask="url(#h)" d="M-10-10h119v44.99H-10z"/></g><g transform="translate(174 275)"><mask id="j" fill="#fff"><use xlink:href="#i"/></mask><path fill="#505050" mask="url(#j)" d="M-10-10h119v44.997H-10z"/></g><g transform="translate(134 31)"><mask id="l" fill="#fff"><use xlink:href="#k"/></mask><path fill="#505050" mask="url(#l)" d="M-10-10h96.355v32.315H-10z"/></g><g transform="translate(126 219)"><mask id="n" fill="#fff"><use xlink:href="#m"/></mask><path fill="#9361FF" mask="url(#n)" d="M-10-10h112v58H-10z"/></g><g transform="translate(71 63)"><mask id="p" fill="#fff"><use xlink:href="#o"/></mask><path fill="#FFE8E6" mask="url(#p)" d="M-10-10h222v128H-10z"/></g><g transform="translate(160 82)"><mask id="r" fill="#fff"><use xlink:href="#q"/></mask><path fill="#FBE3E1" mask="url(#r)" d="M-11.765-15.596h53.973v55.303h-53.973z"/></g><g transform="translate(169 76)"><mask id="t" fill="#fff"><use xlink:href="#s"/></mask><path fill="#D9C1BF" mask="url(#t)" d="M-11.833-12.598h48.355v40.094h-48.355z"/></g><g transform="translate(178 79)"><mask id="v" fill="#fff"><use xlink:href="#u"/></mask><path fill="#EED6D4" mask="url(#v)" d="M-11.744-12.934h32.297v31.095h-32.297z"/></g><g transform="translate(242 124)"><mask id="x" fill="#fff"><use xlink:href="#w"/></mask><path fill="#FFB8B8" mask="url(#x)" d="M-11.242-11h26.607V17.8h-26.607z"/></g><g transform="translate(236 128)"><mask id="z" fill="#fff"><use xlink:href="#y"/></mask><path fill="#651EFF" mask="url(#z)" d="M-10.689-12.023h30.107v30.56h-30.107z"/></g><g transform="translate(221 125)"><mask id="B" fill="#fff"><use xlink:href="#A"/></mask><path fill="#FFB8B8" mask="url(#B)" d="M-11.193-10.725h26.516v29.803h-26.516z"/></g><g transform="translate(202 141)"><mask id="D" fill="#fff"><use xlink:href="#C"/></mask><path fill="#FFB8B8" mask="url(#D)" d="M-11.195-13.957h44.868V29.97h-44.868z"/></g><g transform="translate(227 140)"><mask id="F" fill="#fff"><use xlink:href="#E"/></mask><path fill="#FFB8B8" mask="url(#F)" d="M-11.095-13.05h40.217v42.423h-40.217z"/></g><g transform="translate(199 151)"><mask id="H" fill="#fff"><use xlink:href="#G"/></mask><path fill="#2F2E41" mask="url(#H)" d="M-12.299-11.685h30.001v33.597h-30z"/></g><g transform="translate(225 152)"><mask id="J" fill="#fff"><use xlink:href="#I"/></mask><path fill="#2F2E41" mask="url(#J)" d="M-11.673-11.425h33.24v31.558h-33.24z"/></g><g transform="translate(218 130)"><mask id="L" fill="#fff"><use xlink:href="#K"/></mask><path fill="#FF8A80" mask="url(#L)" d="M-12.274-12.272h48.64v44.811h-48.64z"/></g><g transform="translate(241 111)"><mask id="N" fill="#fff"><use xlink:href="#M"/></mask><path fill="#FFB8B8" mask="url(#N)" d="M-11.803-11.653h30.607v30.632h-30.607z"/></g><g transform="translate(238 114)"><mask id="P" fill="#fff"><use xlink:href="#O"/></mask><path fill="#FFB8B8" mask="url(#P)" d="M-11.384-11.521h29.209V18.48h-29.21z"/></g><g transform="translate(228 115)"><mask id="R" fill="#fff"><use xlink:href="#Q"/></mask><path fill="#651EFF" mask="url(#R)" d="M-12.207-11.684h39.333v44.887h-39.333z"/></g><g transform="translate(221 116)"><mask id="T" fill="#fff"><use xlink:href="#S"/></mask><path fill="#651EFF" mask="url(#T)" d="M-10.485-12.987h40.291v38.319h-40.291z"/></g><g transform="translate(240 110)"><mask id="V" fill="#fff"><use xlink:href="#U"/></mask><path fill="#2F2E41" mask="url(#V)" d="M-10.852-11.213h32.208v30.29h-32.208z"/></g><g transform="translate(243 112)"><mask id="X" fill="#fff"><use xlink:href="#W"/></mask><path fill="#651EFF" mask="url(#X)" d="M-9.113-9.791H12.78v23.063H-9.113z"/></g><path d="M244.834 112.209l.846 1.693a.947.947 0 11-1.693 0l.847-1.693z" stroke="#FFF" stroke-width=".589"/><g transform="translate(199 161)"><mask id="Z" fill="#fff"><use xlink:href="#Y"/></mask><path fill-opacity=".3" fill="#FF8A80" mask="url(#Z)" d="M-9.919-9.655h63.197v21.173H-9.92z"/></g><g stroke="#F9FAFC" stroke-linecap="round" stroke-width=".589"><path d="M218.502 121.749H202.96M213.7 125.846h-16.664M216.19 143.108h-14.957"/></g><g transform="translate(86 98)"><mask id="ab" fill="#fff"><use xlink:href="#aa"/></mask><path fill="#EBD3D1" mask="url(#ab)" d="M-9.375-9.047h61.934v48.86H-9.375z"/></g><g transform="translate(94 108)"><mask id="ad" fill="#fff"><use xlink:href="#ac"/></mask><path fill="#F1D9D7" mask="url(#ad)" d="M-9.528-9.866h67.147v59.504H-9.528z"/></g><g transform="translate(100 130)"><mask id="af" fill="#fff"><use xlink:href="#ae"/></mask><path fill="#EBD3D1" mask="url(#af)" d="M-9.943-9.482h33.986v37.12H-9.943z"/></g><g transform="translate(116 121)"><mask id="ah" fill="#fff"><use xlink:href="#ag"/></mask><path fill="#EBD3D1" mask="url(#ah)" d="M-10.95-11.21h28.77v28.766h-28.77z"/></g><g transform="translate(119 125)"><mask id="aj" fill="#fff"><use xlink:href="#ai"/></mask><path fill="#EBD3D1" mask="url(#aj)" d="M-11.618-11.17h28.77v28.765h-28.77z"/></g><g transform="translate(120 119)"><mask id="al" fill="#fff"><use xlink:href="#ak"/></mask><path fill="#EBD3D1" mask="url(#al)" d="M-10.895-11.55h28.77v28.765h-28.77z"/></g><g transform="translate(123 123)"><mask id="an" fill="#fff"><use xlink:href="#am"/></mask><path fill="#EBD3D1" mask="url(#an)" d="M-11.563-11.51h28.77v28.764h-28.77z"/></g><g transform="translate(140 232)"><mask id="ap" fill="#fff"><use xlink:href="#ao"/></mask><path fill-opacity=".2" fill="#FFF" mask="url(#ap)" d="M-5-5h72v21H-5z"/></g><g transform="translate(114 184)"><mask id="ar" fill="#fff"><use xlink:href="#aq"/></mask><path fill="#505050" mask="url(#ar)" d="M-5-5h120v22H-5z"/></g><g transform="translate(144 200)"><mask id="at" fill="#fff"><use xlink:href="#as"/></mask><path fill="#505050" mask="url(#at)" d="M-5-5h60v22H-5z"/></g></g></svg>