<svg width="345" height="301" xmlns="http://www.w3.org/2000/svg"><g fill="none" fill-rule="evenodd"><path d="M193.628 300.5c-55.369 0-101.39-9.96-135.41-27.851-30.4-15.987-49.773-37.743-55.362-60.658-5.76-23.614-1.125-45.035 15.424-63.695 18.659-21.039 52.178-38.22 102.079-51.033 52.38-13.448 108.373-12.973 151.33 1.24C317.585 113.69 344.5 142.887 344.5 182c0 43.47-9.338 71.715-31.363 90.19-23.08 19.36-60.846 28.311-119.51 28.311z" stroke="#F9FAFC" fill="#FF8A80"/><path d="M80 0h186c17.673 0 32 14.327 32 32v60h2a2 2 0 012 2v76a2 2 0 01-2 2h-2v109.727C274.732 294.139 241.071 300 193.628 300 128.154 300 79.796 286.07 48 266.217V180h-2a2 2 0 01-2-2v-36a2 2 0 012-2h2v-8h-2a2 2 0 01-2-2V94a2 2 0 012-2h2V32C48 14.327 62.327 0 80 0z" fill="#141033"/><path d="M286 287.192C263.59 295.867 233.469 300 193.628 300 135.91 300 91.495 289.175 60 273.011V36c0-13.255 10.745-24 24-24h178c13.255 0 24 10.745 24 24v251.192z" fill="#FFF"/><g transform="translate(128 112)"><rect fill="#651EFF" width="148" height="43" rx="12"/><g fill="#FFF"><path d="M10 10.386v.838h2.192v5.685h.906v-5.685h2.191v-.838zM16.668 16.32c.388 0 .7-.104.934-.312.234-.21.351-.54.351-.994v-.202l-1.36.202a.853.853 0 00-.47.212.59.59 0 00-.177.45.61.61 0 00.2.451.718.718 0 00.522.193m-1.61-.598c0-.38.124-.685.37-.915.247-.23.574-.373.981-.428l1.202-.175c.228-.03.342-.14.342-.33a.74.74 0 00-.24-.571c-.161-.147-.4-.221-.721-.221-.297 0-.53.081-.704.244a1.015 1.015 0 00-.305.648l-.832-.193c.043-.423.238-.768.583-1.035.345-.267.757-.4 1.238-.4.63 0 1.095.152 1.397.455.303.304.453.692.453 1.164v2.217c0 .264.019.506.056.727h-.85a3.647 3.647 0 01-.047-.598 1.65 1.65 0 01-.541.515c-.237.148-.535.221-.893.221-.437 0-.795-.13-1.072-.39a1.238 1.238 0 01-.416-.935M22.04 13.146c-.376 0-.695.136-.957.405-.262.27-.393.65-.393 1.141 0 .485.131.865.393 1.14.262.277.584.415.967.415.37 0 .652-.092.845-.276.195-.184.326-.396.393-.635l.768.331c-.124.368-.356.69-.698.966-.342.276-.778.414-1.308.414-.648 0-1.184-.223-1.61-.671-.425-.448-.638-1.01-.638-1.684 0-.687.213-1.25.638-1.688.426-.439.959-.658 1.6-.658.542 0 .982.138 1.318.414.336.276.556.607.661.994l-.786.33a1.396 1.396 0 00-.388-.662c-.191-.184-.46-.276-.805-.276M29.06 12.484l-1.896 1.868 1.932 2.557h-1.09l-1.453-1.95-.62.616v1.334h-.86v-6.66h.86v4.195l1.924-1.96zM31.824 15.76l.787-.277c.03.24.135.437.314.594.18.156.42.234.721.234.235 0 .42-.057.555-.17a.525.525 0 00.204-.419c0-.294-.191-.484-.573-.57l-.76-.166c-.345-.073-.615-.22-.813-.441a1.16 1.16 0 01-.296-.8c0-.38.156-.71.468-.985a1.621 1.621 0 011.114-.414c.283 0 .536.041.758.124.222.083.395.192.518.327s.216.26.277.377c.062.117.108.236.139.359l-.768.285a.917.917 0 00-.064-.216 1.236 1.236 0 00-.143-.235.681.681 0 00-.282-.207 1.119 1.119 0 00-.435-.078.797.797 0 00-.532.175.525.525 0 00-.208.414c0 .282.17.46.508.533l.722.157c.394.085.698.244.91.474.214.23.32.51.32.841 0 .35-.144.666-.43.948-.287.282-.686.423-1.197.423-.55 0-.978-.137-1.286-.41-.308-.272-.484-.565-.528-.878M38.316 11.325a.426.426 0 00.13-.313.442.442 0 00-.13-.317.434.434 0 00-.324-.134.409.409 0 00-.31.134.452.452 0 00-.124.317.435.435 0 00.434.442.44.44 0 00.324-.13m.721-.312a.95.95 0 01-.304.708 1.019 1.019 0 01-.731.295c-.277 0-.518-.099-.722-.295a.948.948 0 01-.304-.708c0-.282.1-.522.304-.718.204-.196.445-.294.722-.294.283 0 .527.098.73.294a.96.96 0 01.305.718M37.66 16.32c.389 0 .7-.104.934-.312.235-.21.352-.54.352-.994v-.202l-1.36.202a.86.86 0 00-.471.212.59.59 0 00-.176.45c0 .172.066.322.199.451a.718.718 0 00.522.193m-1.609-.598c0-.38.124-.685.37-.915.246-.23.574-.373.98-.428l1.203-.175c.228-.03.342-.14.342-.33a.74.74 0 00-.24-.571c-.16-.147-.401-.221-.722-.221-.296 0-.53.081-.703.244a1.011 1.011 0 00-.304.648l-.833-.193c.043-.423.237-.768.582-1.035.346-.267.76-.4 1.24-.4.628 0 1.094.152 1.397.455.301.304.452.692.452 1.164v2.217c0 .264.019.506.056.727h-.851a3.65 3.65 0 01-.046-.598 1.659 1.659 0 01-.541.515c-.238.148-.536.221-.893.221-.438 0-.795-.13-1.073-.39a1.238 1.238 0 01-.416-.935M43.463 11.228a.593.593 0 01-.18-.437c0-.172.06-.318.18-.441a.592.592 0 01.439-.184c.173 0 .32.06.444.179.123.12.185.269.185.446a.586.586 0 01-.185.437.615.615 0 01-.444.18.6.6 0 01-.44-.18m.014 6.16v-4.904h.87v4.94c0 .405-.111.735-.333.99-.222.254-.521.381-.897.381-.216 0-.388-.021-.518-.064v-.727c.092.018.185.028.277.028.401 0 .601-.215.601-.644M47.832 11.196a.52.52 0 01.153-.377.514.514 0 01.384-.157.52.52 0 01.379.157.51.51 0 01.157.377.527.527 0 01-.536.534.522.522 0 01-.537-.534m-.675 5.124c.389 0 .7-.104.934-.312.235-.21.352-.54.352-.994v-.202l-1.36.202a.859.859 0 00-.471.212.59.59 0 00-.176.45c0 .172.066.322.199.451a.718.718 0 00.522.193m-1.054-5.124a.52.52 0 01.153-.377.504.504 0 01.374-.157.53.53 0 01.389.157c.104.104.157.23.157.377 0 .153-.053.28-.157.382a.538.538 0 01-.389.152.516.516 0 01-.527-.534m-.555 4.526c0-.38.124-.685.37-.915.246-.23.574-.373.98-.428l1.203-.175c.227-.03.342-.14.342-.33a.74.74 0 00-.24-.571c-.161-.147-.402-.221-.722-.221-.296 0-.53.081-.703.244a1.015 1.015 0 00-.305.648l-.832-.193c.042-.423.237-.768.582-1.035.345-.267.759-.4 1.24-.4.628 0 1.094.152 1.396.455.302.304.453.692.453 1.164v2.217c0 .264.019.506.056.727h-.851a3.642 3.642 0 01-.046-.598 1.65 1.65 0 01-.541.515c-.238.148-.536.221-.893.221-.438 0-.795-.13-1.073-.39a1.238 1.238 0 01-.416-.935M51.827 11.086v1.398h.962v.782h-.962v2.3c0 .209.048.362.143.46.096.098.255.147.477.147.129 0 .243-.012.342-.037v.736a1.735 1.735 0 01-.592.083c-.382 0-.685-.11-.906-.331-.222-.22-.333-.53-.333-.93v-2.428h-.851v-.782h.24c.229 0 .4-.063.514-.189a.706.706 0 00.17-.492v-.717h.796zM55.11 11.086v1.398h.961v.782h-.961v2.3c0 .209.048.362.143.46.095.098.254.147.476.147.13 0 .244-.012.342-.037v.736a1.735 1.735 0 01-.591.083c-.382 0-.685-.11-.907-.331-.222-.22-.333-.53-.333-.93v-2.428h-.85v-.782h.24c.228 0 .4-.063.513-.189a.706.706 0 00.171-.492v-.717h.796zM57.746 14.241h2.432a1.172 1.172 0 00-.333-.814c-.21-.212-.505-.318-.888-.318-.345 0-.629.113-.85.336-.223.225-.343.49-.361.796m2.562 1.15l.749.258c-.13.41-.37.747-.722 1.007-.351.26-.777.391-1.276.391a2.178 2.178 0 01-1.586-.64c-.435-.425-.652-1-.652-1.724 0-.675.21-1.233.629-1.675.42-.441.918-.662 1.498-.662.671 0 1.196.21 1.572.63.376.42.564.983.564 1.688 0 .11-.006.203-.019.276h-3.347c.006.393.137.715.393.966a1.3 1.3 0 00.948.377c.635 0 1.051-.297 1.249-.892M64.492 11.228a.593.593 0 01-.18-.437c0-.172.06-.318.18-.441a.592.592 0 01.439-.184c.173 0 .32.06.444.179.123.12.185.269.185.446a.586.586 0 01-.185.437.615.615 0 01-.444.18.6.6 0 01-.44-.18m.015 6.16v-4.904h.869v4.94c0 .405-.111.735-.333.99-.222.254-.52.381-.897.381-.216 0-.388-.021-.518-.064v-.727c.093.018.185.028.277.028.402 0 .602-.215.602-.644M68.861 11.196a.52.52 0 01.153-.377.514.514 0 01.383-.157.52.52 0 01.38.157.51.51 0 01.157.377.527.527 0 01-.536.534.522.522 0 01-.537-.534m-.675 5.124c.388 0 .7-.104.934-.312.235-.21.351-.54.351-.994v-.202l-1.359.202a.859.859 0 00-.472.212.59.59 0 00-.175.45c0 .172.066.322.198.451a.718.718 0 00.523.193m-1.054-5.124a.52.52 0 01.152-.377.504.504 0 01.375-.157.53.53 0 01.388.157c.105.104.157.23.157.377 0 .153-.052.28-.157.382a.538.538 0 01-.388.152.516.516 0 01-.527-.534m-.555 4.526c0-.38.124-.685.37-.915.246-.23.573-.373.98-.428l1.202-.175c.228-.03.342-.14.342-.33a.74.74 0 00-.24-.571c-.16-.147-.401-.221-.721-.221-.296 0-.53.081-.703.244a1.015 1.015 0 00-.305.648l-.833-.193c.043-.423.237-.768.583-1.035.345-.267.758-.4 1.24-.4.628 0 1.093.152 1.396.455.302.304.453.692.453 1.164v2.217c0 .264.018.506.055.727h-.85a3.642 3.642 0 01-.047-.598 1.65 1.65 0 01-.54.515c-.238.148-.536.221-.893.221-.438 0-.796-.13-1.073-.39a1.238 1.238 0 01-.416-.935M72.856 11.086v1.398h.962v.782h-.962v2.3c0 .209.048.362.143.46.096.098.255.147.477.147.13 0 .243-.012.342-.037v.736a1.735 1.735 0 01-.592.083c-.382 0-.684-.11-.906-.331-.222-.22-.333-.53-.333-.93v-2.428h-.851v-.782h.24c.229 0 .4-.063.514-.189a.706.706 0 00.17-.492v-.717h.796zM76.14 11.086v1.398h.961v.782h-.962v2.3c0 .209.048.362.144.46.095.098.254.147.476.147.13 0 .243-.012.342-.037v.736a1.735 1.735 0 01-.592.083c-.382 0-.684-.11-.906-.331-.222-.22-.333-.53-.333-.93v-2.428h-.85v-.782h.24c.228 0 .4-.063.513-.189a.706.706 0 00.171-.492v-.717h.795zM78.775 14.241h2.432a1.172 1.172 0 00-.333-.814c-.21-.212-.505-.318-.888-.318-.345 0-.629.113-.85.336-.223.225-.343.49-.361.796m2.562 1.15l.749.258c-.13.41-.37.747-.722 1.007-.351.26-.777.391-1.276.391a2.178 2.178 0 01-1.586-.64c-.435-.425-.652-1-.652-1.724 0-.675.21-1.233.629-1.675.42-.441.918-.662 1.498-.662.672 0 1.196.21 1.572.63.376.42.564.983.564 1.688 0 .11-.006.203-.018.276h-3.348c.006.393.137.715.393.966a1.3 1.3 0 00.948.377c.635 0 1.051-.297 1.249-.892M85.52 11.228a.593.593 0 01-.18-.437c0-.172.06-.318.18-.441a.592.592 0 01.44-.184c.173 0 .32.06.444.179.123.12.185.269.185.446a.586.586 0 01-.185.437.615.615 0 01-.444.18.6.6 0 01-.44-.18m.015 6.16v-4.904h.869v4.94c0 .405-.11.735-.333.99-.222.254-.52.381-.897.381-.216 0-.388-.021-.518-.064v-.727c.093.018.185.028.278.028.4 0 .6-.215.6-.644M89.89 11.196a.52.52 0 01.153-.377.514.514 0 01.384-.157.52.52 0 01.38.157.51.51 0 01.156.377.527.527 0 01-.536.534.522.522 0 01-.536-.534m-.675 5.124c.388 0 .7-.104.934-.312.234-.21.351-.54.351-.994v-.202l-1.36.202a.859.859 0 00-.471.212.59.59 0 00-.176.45c0 .172.066.322.2.451a.718.718 0 00.522.193m-1.055-5.124a.52.52 0 01.153-.377.504.504 0 01.375-.157.53.53 0 01.388.157c.105.104.157.23.157.377 0 .153-.052.28-.157.382a.538.538 0 01-.388.152.516.516 0 01-.527-.534m-.555 4.526c0-.38.123-.685.37-.915.246-.23.573-.373.98-.428l1.202-.175c.228-.03.342-.14.342-.33a.74.74 0 00-.24-.571c-.161-.147-.402-.221-.722-.221-.296 0-.53.081-.703.244a1.015 1.015 0 00-.305.648l-.832-.193c.043-.423.237-.768.583-1.035.345-.267.758-.4 1.239-.4.629 0 1.094.152 1.396.455.302.304.453.692.453 1.164v2.217c0 .264.019.506.056.727h-.851a3.642 3.642 0 01-.046-.598 1.65 1.65 0 01-.541.515c-.238.148-.535.221-.893.221-.438 0-.795-.13-1.072-.39a1.238 1.238 0 01-.416-.935M93.885 11.086v1.398h.962v.782h-.962v2.3c0 .209.048.362.144.46.095.098.254.147.476.147.13 0 .243-.012.342-.037v.736a1.735 1.735 0 01-.592.083c-.382 0-.684-.11-.906-.331-.222-.22-.333-.53-.333-.93v-2.428h-.85v-.782h.24c.228 0 .399-.063.513-.189a.706.706 0 00.17-.492v-.717h.796zM97.168 11.086v1.398h.962v.782h-.962v2.3c0 .209.048.362.143.46.096.098.255.147.477.147.13 0 .243-.012.342-.037v.736a1.735 1.735 0 01-.592.083c-.382 0-.684-.11-.906-.331-.222-.22-.333-.53-.333-.93v-2.428h-.851v-.782h.24c.229 0 .4-.063.514-.189a.706.706 0 00.17-.492v-.717h.796zM99.804 14.241h2.432a1.172 1.172 0 00-.333-.814c-.21-.212-.505-.318-.888-.318-.345 0-.628.113-.85.336-.222.225-.343.49-.361.796m2.562 1.15l.75.258c-.13.41-.371.747-.723 1.007-.351.26-.777.391-1.276.391a2.178 2.178 0 01-1.586-.64c-.435-.425-.652-1-.652-1.724 0-.675.21-1.233.629-1.675.42-.441.918-.662 1.498-.662.672 0 1.196.21 1.572.63.376.42.564.983.564 1.688 0 .11-.005.203-.018.276h-3.348c.007.393.137.715.393.966a1.3 1.3 0 00.948.377c.635 0 1.051-.297 1.25-.892M107.424 16.91h-.86v-4.426h.832v.589a1.34 1.34 0 01.573-.534c.247-.122.506-.184.777-.184.29 0 .555.07.796.212.24.14.42.35.536.625.309-.558.804-.837 1.489-.837.425 0 .788.144 1.087.433.298.288.448.705.448 1.25v2.871h-.86v-2.778c0-.307-.079-.552-.235-.736-.158-.184-.394-.276-.708-.276a.95.95 0 00-.74.317 1.142 1.142 0 00-.286.796v2.677h-.87v-2.778c0-.307-.079-.552-.235-.736-.158-.184-.394-.276-.708-.276a.968.968 0 00-.75.313c-.19.208-.286.478-.286.81v2.667zM115.599 18.758h-.952l1.109-2.337-1.914-3.937h.999l1.387 3.054 1.332-3.054h.934zM121.009 13.146c-.376 0-.695.136-.957.405-.262.27-.394.65-.394 1.141 0 .485.132.865.394 1.14.262.277.583.415.966.415.37 0 .652-.092.846-.276.194-.184.325-.396.393-.635l.768.331c-.124.368-.356.69-.699.966-.342.276-.778.414-1.308.414-.647 0-1.183-.223-1.61-.671-.425-.448-.637-1.01-.637-1.684 0-.687.212-1.25.638-1.688.426-.439.959-.658 1.6-.658.542 0 .982.138 1.317.414.336.276.557.607.662.994l-.786.33a1.396 1.396 0 00-.388-.662c-.192-.184-.46-.276-.805-.276M128.028 12.484l-1.895 1.868 1.932 2.557h-1.091l-1.452-1.95-.62.616v1.334h-.86v-6.66h.86v4.195l1.924-1.96zM129.23 14.241h2.432a1.172 1.172 0 00-.333-.814c-.209-.212-.505-.318-.887-.318-.345 0-.63.113-.851.336-.222.225-.342.49-.36.796m2.561 1.15l.75.258c-.13.41-.371.747-.722 1.007-.352.26-.777.391-1.277.391a2.178 2.178 0 01-1.586-.64c-.434-.425-.652-1-.652-1.724 0-.675.21-1.233.63-1.675.419-.441.918-.662 1.497-.662.672 0 1.196.21 1.572.63.376.42.565.983.565 1.688 0 .11-.006.203-.019.276h-3.348c.007.393.137.715.393.966a1.3 1.3 0 00.948.377c.636 0 1.052-.297 1.25-.892M134.843 11.086v1.398h.962v.782h-.962v2.3c0 .209.048.362.144.46.095.098.254.147.476.147.13 0 .243-.012.342-.037v.736a1.735 1.735 0 01-.592.083c-.382 0-.684-.11-.906-.331-.222-.22-.333-.53-.333-.93v-2.428h-.85v-.782h.24c.228 0 .4-.063.513-.189a.706.706 0 00.171-.492v-.717h.795zM12.885 27.066h-1.072v3.643h-.897v-3.643h-.824v-.782h.824v-.745c0-.473.138-.844.415-1.114.278-.27.626-.404 1.046-.404.264 0 .437.03.518.092v.772a1.056 1.056 0 00-.38-.055.755.755 0 00-.495.17c-.138.114-.207.309-.207.585v.699h1.072v.782zM15.863 24.996a.52.52 0 01.152-.378.515.515 0 01.384-.156.52.52 0 01.38.156.51.51 0 01.157.378c0 .153-.052.28-.158.381a.527.527 0 01-.379.152.522.522 0 01-.536-.533m-1.309 4.66c.268.278.597.419.985.419.389 0 .717-.14.986-.42.267-.278.401-.667.401-1.163 0-.49-.134-.875-.401-1.155a1.316 1.316 0 00-.986-.419c-.388 0-.717.14-.985.42-.268.279-.402.663-.402 1.154 0 .496.134.885.402 1.163m-.42-4.66a.52.52 0 01.152-.377.504.504 0 01.375-.156.53.53 0 01.388.156c.105.105.157.23.157.378 0 .153-.052.28-.157.381a.538.538 0 01-.388.152.516.516 0 01-.527-.534m-.227 1.818c.428-.445.973-.667 1.632-.667.66 0 1.204.222 1.632.667.43.445.643 1.004.643 1.68 0 .68-.213 1.242-.638 1.687-.425.445-.971.667-1.637.667s-1.211-.222-1.637-.667c-.425-.445-.638-1.008-.638-1.688 0-.675.215-1.234.643-1.68M21.393 26.238v.92a2.687 2.687 0 00-.379-.028c-.814 0-1.221.454-1.221 1.362v2.217h-.869v-4.425h.85v.773c.272-.565.716-.847 1.332-.847.099 0 .194.01.287.028M25.961 30.12c.388 0 .7-.104.934-.313.234-.208.352-.54.352-.993v-.203l-1.36.203a.855.855 0 00-.472.212.59.59 0 00-.175.45c0 .172.066.322.199.45.132.13.306.194.522.194m-1.609-.598c0-.38.124-.685.37-.916.246-.23.573-.372.98-.427l1.202-.175c.228-.03.343-.141.343-.33a.74.74 0 00-.24-.572c-.162-.146-.402-.22-.722-.22-.296 0-.53.081-.703.243a1.015 1.015 0 00-.305.649l-.833-.193c.043-.423.237-.768.583-1.035.345-.267.758-.4 1.24-.4.628 0 1.093.152 1.396.455.302.303.453.692.453 1.164v2.217c0 .264.018.506.055.727h-.85a3.642 3.642 0 01-.047-.598 1.652 1.652 0 01-.54.515c-.238.148-.536.221-.893.221-.438 0-.795-.13-1.073-.391a1.237 1.237 0 01-.416-.934M29.466 30.709h.87v-6.66h-.87zM31.815 30.709h.87v-6.66h-.87zM37.345 28.105v2.604h-.87v-6.66h.87v2.75c.296-.43.746-.644 1.35-.644.512 0 .905.163 1.18.488.274.324.41.745.41 1.26v2.806h-.868V28.05c0-.742-.346-1.113-1.036-1.113-.32 0-.57.109-.75.327-.178.217-.274.498-.286.841M41.66 25.028a.593.593 0 01-.181-.437c0-.172.06-.319.18-.442a.592.592 0 01.44-.184c.172 0 .32.06.443.18s.185.268.185.446a.586.586 0 01-.185.437.615.615 0 01-.444.18.6.6 0 01-.439-.18m.014 6.16v-4.904h.87v4.94c0 .404-.112.734-.334.99-.222.253-.52.38-.897.38-.216 0-.387-.02-.517-.063v-.727c.092.018.184.027.277.027.401 0 .601-.215.601-.644M46.028 24.996a.52.52 0 01.153-.378.514.514 0 01.384-.156.52.52 0 01.379.156.51.51 0 01.157.378.527.527 0 01-.536.534.522.522 0 01-.537-.534m-.675 5.124c.389 0 .7-.104.934-.313.235-.208.352-.54.352-.993v-.203l-1.36.203a.863.863 0 00-.471.211.59.59 0 00-.176.451c0 .171.066.322.199.45a.718.718 0 00.522.194M44.3 24.996a.52.52 0 01.153-.378.504.504 0 01.374-.156.53.53 0 01.389.156c.104.105.157.23.157.378 0 .153-.053.28-.157.381a.538.538 0 01-.389.152.516.516 0 01-.527-.534m-.555 4.527c0-.38.124-.685.37-.915.246-.23.574-.373.98-.428l1.203-.175c.227-.03.342-.14.342-.331a.74.74 0 00-.24-.57c-.161-.148-.402-.221-.722-.221-.296 0-.53.08-.703.243a1.015 1.015 0 00-.305.65l-.832-.194c.043-.423.237-.768.582-1.035.345-.267.759-.4 1.24-.4.628 0 1.094.151 1.396.455.302.304.453.692.453 1.164v2.217c0 .263.019.506.056.727h-.851a3.642 3.642 0 01-.046-.598 1.645 1.645 0 01-.541.515c-.238.147-.536.22-.893.22-.438 0-.795-.13-1.073-.39a1.238 1.238 0 01-.416-.934M48.858 30.709h.87v-6.66h-.87zM54.693 28.492c0-.448-.118-.818-.355-1.11-.238-.29-.557-.436-.957-.436a1.19 1.19 0 00-.958.437c-.244.291-.365.661-.365 1.109 0 .46.121.835.365 1.126.244.292.563.438.958.438.394 0 .712-.146.952-.438.24-.29.36-.667.36-1.126zm-2.626 3.965h-.86v-6.173h.842v.69c.129-.233.323-.423.582-.57.26-.148.561-.222.906-.222.641 0 1.143.218 1.503.654.361.435.54.987.54 1.656 0 .674-.185 1.233-.559 1.674-.372.442-.876.662-1.512.662-.326 0-.616-.067-.869-.202a1.474 1.474 0 01-.573-.515v2.346zM56.46 30.12c0-.165.065-.31.194-.433a.672.672 0 01.48-.183c.21 0 .388.076.533.23.145.153.217.368.217.643 0 .552-.142.979-.425 1.28-.284.3-.599.472-.944.514v-.478a.904.904 0 00.546-.363c.141-.193.215-.403.222-.63-.043.03-.112.046-.204.046a.612.612 0 01-.444-.17.606.606 0 01-.175-.456M65.393 26.284l-1.775 4.425h-.879l-1.803-4.425h.98l1.267 3.413 1.276-3.413zM66.65 28.04h2.433a1.172 1.172 0 00-.333-.813c-.21-.212-.505-.318-.888-.318-.345 0-.629.112-.85.336-.223.224-.343.49-.361.796m2.562 1.15l.749.257c-.13.412-.37.747-.722 1.008-.351.26-.777.39-1.276.39a2.18 2.18 0 01-1.586-.639c-.435-.426-.652-1-.652-1.725 0-.674.21-1.232.629-1.674.42-.442.918-.662 1.498-.662.671 0 1.196.21 1.572.63.376.42.564.983.564 1.688 0 .11-.006.202-.018.276h-3.348c.006.393.137.714.393.966a1.3 1.3 0 00.948.377c.635 0 1.051-.297 1.249-.892M73.568 26.238v.92a2.687 2.687 0 00-.379-.028c-.814 0-1.221.454-1.221 1.362v2.217h-.869v-4.425h.85v.773c.272-.565.716-.847 1.332-.847.099 0 .194.01.287.028M78.478 26.284l-1.895 1.867 1.932 2.558h-1.09l-1.453-1.951-.62.616v1.335h-.86v-6.66h.86v4.194l1.924-1.96zM79.347 30.709h.87v-6.66h-.87zM81.697 30.709h.86v-4.425h-.86v4.425zm-.015-5.663a.592.592 0 01-.18-.437c0-.171.06-.319.18-.441a.59.59 0 01.44-.184c.173 0 .32.06.444.18.123.119.185.267.185.445a.586.586 0 01-.185.437.617.617 0 01-.444.18.6.6 0 01-.44-.18zM85.895 29.77c.376 0 .681-.13.916-.39.234-.261.351-.603.351-1.026 0-.423-.117-.765-.351-1.026-.235-.26-.54-.391-.916-.391-.382 0-.692.129-.93.386-.237.258-.355.602-.355 1.03 0 .437.115.782.346 1.036.232.254.544.382.94.382m-2.183 1.177l.841-.193a1.178 1.178 0 001.212 1.086c.906 0 1.359-.479 1.359-1.436v-.634c-.111.214-.285.39-.522.524a1.67 1.67 0 01-.837.202c-.592 0-1.081-.2-1.466-.602-.386-.402-.578-.916-.578-1.541 0-.607.19-1.118.573-1.532.383-.414.872-.621 1.47-.621.679 0 1.135.233 1.37.7v-.617h.86v4.094c0 .294-.04.568-.116.823a2.161 2.161 0 01-.366.704c-.166.214-.399.383-.698.506-.3.122-.649.184-1.05.184-.548 0-1.014-.155-1.396-.465a1.726 1.726 0 01-.656-1.182M89.945 28.04h2.432a1.172 1.172 0 00-.333-.813c-.21-.212-.505-.318-.888-.318-.345 0-.628.112-.85.336-.222.224-.343.49-.361.796m2.562 1.15l.75.257c-.13.412-.371.747-.723 1.008-.351.26-.777.39-1.276.39a2.18 2.18 0 01-1.586-.639c-.435-.426-.652-1-.652-1.725 0-.674.21-1.232.629-1.674.42-.442.918-.662 1.498-.662.672 0 1.196.21 1.572.63.376.42.564.983.564 1.688 0 .11-.005.202-.018.276h-3.348c.007.393.137.714.393.966a1.3 1.3 0 00.948.377c.635 0 1.051-.297 1.25-.892M95.262 28.151v2.558h-.869v-4.425h.851v.634c.295-.509.753-.763 1.369-.763.511 0 .904.162 1.179.487.274.326.411.746.411 1.26v2.807h-.869v-2.66c0-.74-.346-1.112-1.036-1.112-.326 0-.581.115-.763.345-.182.23-.273.52-.273.87M100.83 24.186l-.231 4.655h-.62l-.24-4.655h1.09zm-.972 6.395a.576.576 0 01-.175-.424c0-.166.058-.308.175-.428a.574.574 0 01.426-.179c.166 0 .31.06.43.179.12.12.18.262.18.428a.57.57 0 01-.18.424.597.597 0 01-.43.174.583.583 0 01-.426-.174z"/></g></g><g transform="translate(70 165)"><rect fill="#F9FAFC" width="168" height="100" rx="12"/><g fill="#000"><path d="M10.746 17.6h.932v-6.624h-.932zM14.14 15.003v2.598h-.877v-4.494h.857v.644c.299-.517.759-.775 1.38-.775.516 0 .912.165 1.189.495.277.33.415.757.415 1.28v2.85h-.876v-2.7c0-.754-.348-1.131-1.045-1.131-.328 0-.586.117-.769.35-.183.234-.274.528-.274.883M20.376 16.648c.379 0 .687-.133.923-.397.236-.265.354-.612.354-1.042 0-.43-.118-.777-.354-1.042-.236-.264-.544-.397-.923-.397-.385 0-.697.131-.937.393-.24.261-.359.61-.359 1.046 0 .442.117.793.35 1.051.233.259.548.388.946.388m-2.2 1.196l.848-.196a1.2 1.2 0 00.383.789c.223.208.503.313.839.313.913 0 1.37-.486 1.37-1.458v-.644a1.292 1.292 0 01-.527.532c-.24.137-.52.206-.843.206-.597 0-1.09-.204-1.478-.612-.389-.408-.583-.93-.583-1.565 0-.617.192-1.135.578-1.556.386-.42.88-.63 1.483-.63.683 0 1.143.236 1.38.71v-.626h.866v4.157a2.9 2.9 0 01-.116.837c-.078.258-.2.496-.368.714a1.673 1.673 0 01-.704.514 2.763 2.763 0 01-1.058.187c-.554 0-1.023-.157-1.408-.472a1.756 1.756 0 01-.662-1.2M24.46 14.891h2.451c-.012-.336-.124-.612-.335-.827-.211-.215-.51-.322-.895-.322-.348 0-.634.114-.858.341a1.224 1.224 0 00-.364.808m2.583 1.168l.756.262a1.993 1.993 0 01-.728 1.023c-.355.264-.783.397-1.287.397-.628 0-1.16-.216-1.599-.65-.438-.432-.657-1.016-.657-1.751 0-.685.212-1.252.634-1.7.423-.45.926-.674 1.51-.674.677 0 1.206.214 1.585.64.379.427.569.999.569 1.715 0 .112-.006.205-.019.28h-3.375c.007.4.138.726.397.981.257.255.576.383.955.383.64 0 1.06-.302 1.26-.906M29.82 15.003v2.598h-.876v-4.494h.857v.644c.298-.517.76-.775 1.38-.775.516 0 .912.165 1.189.495.277.33.415.757.415 1.28v2.85h-.877v-2.7c0-.754-.348-1.131-1.044-1.131-.329 0-.586.117-.769.35-.183.234-.275.528-.275.883M38.77 13.9H37.69v3.7h-.904v-3.7h-.83v-.793h.83v-.757c0-.48.14-.857.419-1.13.28-.275.631-.412 1.054-.412.266 0 .44.031.522.094v.785a1.059 1.059 0 00-.383-.056.757.757 0 00-.498.172c-.14.115-.21.313-.21.594v.71h1.081v.794zM40.914 17.003c.392 0 .706-.106.942-.318.236-.212.354-.548.354-1.009v-.205l-1.37.205a.863.863 0 00-.476.215.602.602 0 00-.177.458.62.62 0 00.2.458.72.72 0 00.527.196m-1.622-.607c0-.386.125-.697.373-.93.248-.234.578-.379.988-.435l1.212-.177c.23-.031.345-.143.345-.336a.754.754 0 00-.242-.58c-.162-.15-.405-.224-.727-.224-.299 0-.535.082-.709.248a1.033 1.033 0 00-.308.658l-.839-.196c.044-.43.24-.78.588-1.051.348-.27.764-.406 1.249-.406.634 0 1.103.154 1.408.462.304.308.457.703.457 1.182v2.252c0 .268.018.514.056.738h-.858a3.73 3.73 0 01-.047-.608 1.67 1.67 0 01-.545.524c-.24.15-.54.224-.9.224-.442 0-.802-.133-1.081-.397a1.261 1.261 0 01-.42-.948M46.936 13.06v.934a2.69 2.69 0 00-.381-.028c-.82 0-1.232.461-1.232 1.383v2.252h-.875v-4.494h.857v.785c.274-.573.721-.86 1.342-.86.1 0 .196.01.29.028M49.211 17.003c.392 0 .706-.106.942-.318.236-.212.354-.548.354-1.009v-.205l-1.37.205a.863.863 0 00-.476.215.602.602 0 00-.177.458.62.62 0 00.2.458.72.72 0 00.527.196m-1.622-.607c0-.386.125-.697.373-.93.248-.234.578-.379.988-.435l1.212-.177c.23-.031.345-.143.345-.336a.754.754 0 00-.242-.58c-.162-.15-.405-.224-.727-.224-.299 0-.535.082-.709.248a1.033 1.033 0 00-.308.658l-.839-.196c.043-.43.24-.78.588-1.051.347-.27.764-.406 1.249-.406.634 0 1.103.154 1.408.462.304.308.456.703.456 1.182v2.252c0 .268.02.514.056.738h-.857a3.73 3.73 0 01-.047-.608 1.67 1.67 0 01-.545.524c-.24.15-.54.224-.9.224-.442 0-.802-.133-1.081-.397a1.261 1.261 0 01-.42-.948M56.418 17.003c.391 0 .705-.106.941-.318.236-.212.355-.548.355-1.009v-.205l-1.37.205a.863.863 0 00-.476.215.602.602 0 00-.177.458.62.62 0 00.2.458.72.72 0 00.527.196m-1.622-.607c0-.386.124-.697.373-.93.248-.234.578-.379.988-.435l1.212-.177c.23-.031.345-.143.345-.336a.754.754 0 00-.243-.58c-.162-.15-.404-.224-.727-.224-.298 0-.534.082-.708.248a1.033 1.033 0 00-.308.658l-.84-.196c.044-.43.24-.78.588-1.051.348-.27.765-.406 1.25-.406.633 0 1.103.154 1.407.462.305.308.457.703.457 1.182v2.252c0 .268.019.514.056.738h-.858a3.73 3.73 0 01-.046-.608 1.67 1.67 0 01-.546.524c-.24.15-.54.224-.9.224-.441 0-.801-.133-1.08-.397a1.261 1.261 0 01-.42-.948M59.95 17.6h.877v-6.764h-.876zM62.32 17.6h.876v-6.764h-.877zM64.268 16.433l.792-.28a.938.938 0 00.317.602c.18.159.423.238.727.238.237 0 .423-.057.56-.172a.535.535 0 00.205-.426c0-.299-.193-.492-.578-.579l-.765-.168c-.348-.075-.621-.224-.82-.448a1.183 1.183 0 01-.299-.813c0-.386.158-.72.472-1 .313-.28.687-.42 1.123-.42.286 0 .54.042.764.126.224.084.398.194.523.331a1.62 1.62 0 01.419.747l-.774.29a.937.937 0 00-.065-.22 1.257 1.257 0 00-.144-.237.687.687 0 00-.285-.21 1.12 1.12 0 00-.438-.08.8.8 0 00-.536.178.535.535 0 00-.21.42c0 .287.17.467.512.542l.728.159c.398.087.704.247.918.48.215.234.322.52.322.856 0 .355-.145.676-.434.962-.288.287-.692.43-1.207.43-.553 0-.986-.14-1.296-.416-.31-.277-.488-.575-.531-.892M68.808 17.003c0-.168.065-.315.196-.44a.675.675 0 01.484-.186c.211 0 .39.078.536.233.147.156.22.374.22.654 0 .561-.143.994-.43 1.3-.285.304-.602.479-.95.522V18.6a.913.913 0 00.55-.369c.142-.196.217-.41.223-.64-.043.031-.112.047-.205.047a.616.616 0 01-.447-.173.618.618 0 01-.177-.462M73.958 11.831a.604.604 0 01-.181-.443.62.62 0 01.181-.449.595.595 0 01.443-.187c.175 0 .323.061.448.182a.609.609 0 01.186.454.597.597 0 01-.186.443.618.618 0 01-.448.183.602.602 0 01-.443-.183m.014 6.256v-4.98h.877v5.017c0 .411-.112.746-.336 1.004-.224.258-.525.388-.904.388-.218 0-.391-.022-.522-.065v-.738c.093.018.186.028.28.028.404 0 .605-.219.605-.654M77.683 17.003c.391 0 .705-.106.941-.318.236-.212.355-.548.355-1.009v-.205l-1.37.205a.863.863 0 00-.476.215.602.602 0 00-.177.458.62.62 0 00.2.458.72.72 0 00.527.196m-1.622-.607c0-.386.124-.697.372-.93.249-.234.578-.379.989-.435l1.212-.177c.23-.031.345-.143.345-.336a.754.754 0 00-.243-.58c-.162-.15-.404-.224-.727-.224-.298 0-.534.082-.709.248a1.033 1.033 0 00-.307.658l-.84-.196c.044-.43.24-.78.588-1.051.348-.27.765-.406 1.25-.406.633 0 1.102.154 1.407.462.305.308.457.703.457 1.182v2.252c0 .268.019.514.056.738h-.858a3.73 3.73 0 01-.046-.608 1.67 1.67 0 01-.546.524c-.24.15-.54.224-.9.224-.441 0-.801-.133-1.08-.397a1.261 1.261 0 01-.42-.948M83.09 16.648c.379 0 .687-.133.923-.397.236-.265.354-.612.354-1.042 0-.43-.118-.777-.354-1.042-.236-.264-.544-.397-.923-.397-.385 0-.697.131-.937.393-.24.261-.359.61-.359 1.046 0 .442.117.793.35 1.051.233.259.548.388.946.388m-2.2 1.196l.848-.196a1.2 1.2 0 00.383.789c.223.208.503.313.839.313.913 0 1.37-.486 1.37-1.458v-.644a1.292 1.292 0 01-.527.532c-.24.137-.52.206-.843.206-.597 0-1.09-.204-1.478-.612-.389-.408-.583-.93-.583-1.565 0-.617.193-1.135.578-1.556.386-.42.88-.63 1.483-.63.683 0 1.143.236 1.38.71v-.626h.866v4.157a2.9 2.9 0 01-.116.837c-.078.258-.2.496-.368.714a1.673 1.673 0 01-.704.514 2.763 2.763 0 01-1.058.187c-.554 0-1.023-.157-1.408-.472a1.756 1.756 0 01-.662-1.2M90.959 11.799a.53.53 0 01.54-.542c.15 0 .276.053.383.159a.52.52 0 01.158.383.517.517 0 01-.158.387.529.529 0 01-.383.155.524.524 0 01-.54-.542m-.681 5.204c.392 0 .706-.106.942-.318.236-.212.354-.548.354-1.009v-.206l-1.37.206a.863.863 0 00-.476.215.602.602 0 00-.177.458.62.62 0 00.2.458.72.72 0 00.527.196m-1.063-5.204a.53.53 0 01.154-.383.506.506 0 01.378-.16c.155 0 .285.054.391.16a.523.523 0 01.159.383.519.519 0 01-.159.387.54.54 0 01-.391.155.526.526 0 01-.531-.542m-.56 4.596c0-.386.125-.696.373-.93.248-.233.578-.378.988-.434l1.212-.177c.23-.031.345-.143.345-.337a.754.754 0 00-.243-.579c-.162-.15-.404-.224-.727-.224-.298 0-.534.082-.708.248a1.033 1.033 0 00-.308.658l-.839-.196c.043-.43.239-.78.587-1.051.348-.271.765-.406 1.25-.406.634 0 1.103.154 1.407.462.305.308.457.703.457 1.182v2.252c0 .268.019.513.056.738h-.858a3.726 3.726 0 01-.046-.608 1.67 1.67 0 01-.546.524c-.239.15-.54.224-.9.224-.44 0-.801-.133-1.08-.397a1.261 1.261 0 01-.42-.949M96.3 13.06v.934a2.69 2.69 0 00-.382-.028c-.82 0-1.23.461-1.23 1.383v2.252h-.877v-4.494h.857v.785c.274-.573.722-.86 1.343-.86.1 0 .196.01.289.028M102.715 16.498c.241-.292.363-.682.363-1.168 0-.486-.12-.87-.359-1.154-.24-.283-.56-.425-.965-.425-.391 0-.712.144-.96.43-.25.287-.373.67-.373 1.15 0 .48.124.867.372 1.162.25.296.57.444.961.444.398 0 .718-.146.96-.439zm-2.285 1.103h-.867v-6.765h.867v2.906c.118-.218.306-.4.564-.547.258-.146.565-.22.918-.22.653 0 1.16.222 1.52.664.36.443.54 1.006.54 1.691 0 .692-.185 1.263-.559 1.715-.372.451-.882.677-1.529.677-.67 0-1.155-.258-1.454-.775v.654zM106.434 17.003c.392 0 .706-.106.942-.318.236-.212.354-.548.354-1.009v-.205l-1.37.205a.863.863 0 00-.476.215.602.602 0 00-.177.458.62.62 0 00.2.458.72.72 0 00.527.196m-1.622-.607c0-.386.125-.697.373-.93.248-.234.578-.379.988-.435l1.212-.177c.23-.031.345-.143.345-.336a.754.754 0 00-.242-.58c-.162-.15-.405-.224-.727-.224-.299 0-.535.082-.709.248a1.033 1.033 0 00-.308.658l-.839-.196c.043-.43.24-.78.588-1.051.347-.27.764-.406 1.249-.406.634 0 1.103.154 1.408.462.304.308.456.703.456 1.182v2.252c0 .268.02.514.056.738h-.857a3.73 3.73 0 01-.047-.608 1.67 1.67 0 01-.545.524c-.24.15-.54.224-.9.224-.442 0-.802-.133-1.081-.397a1.261 1.261 0 01-.42-.948M112.457 13.06v.934a2.69 2.69 0 00-.382-.028c-.82 0-1.231.461-1.231 1.383v2.252h-.876v-4.494h.857v.785c.274-.573.722-.86 1.343-.86.1 0 .196.01.289.028M114.731 17.003c.392 0 .706-.106.942-.318.236-.212.354-.548.354-1.009v-.205l-1.37.205a.863.863 0 00-.476.215.602.602 0 00-.177.458.62.62 0 00.2.458.72.72 0 00.527.196m-1.622-.607c0-.386.125-.697.373-.93.248-.234.578-.379.988-.435l1.212-.177c.23-.031.345-.143.345-.336a.754.754 0 00-.242-.58c-.162-.15-.405-.224-.728-.224-.298 0-.534.082-.708.248a1.033 1.033 0 00-.308.658l-.839-.196c.043-.43.239-.78.587-1.051.348-.27.765-.406 1.25-.406.634 0 1.103.154 1.407.462.305.308.457.703.457 1.182v2.252c0 .268.019.514.056.738h-.857a3.73 3.73 0 01-.047-.608 1.67 1.67 0 01-.545.524c-.24.15-.54.224-.9.224-.442 0-.802-.133-1.082-.397a1.261 1.261 0 01-.42-.948M122.47 16.648c.378 0 .686-.133.922-.397.236-.265.354-.612.354-1.042 0-.43-.118-.777-.354-1.042-.236-.264-.544-.397-.923-.397-.385 0-.697.131-.937.393-.24.261-.359.61-.359 1.046 0 .442.117.793.35 1.051.233.259.548.388.946.388m-2.2 1.196l.848-.196a1.2 1.2 0 00.383.789c.223.208.503.313.839.313.913 0 1.37-.486 1.37-1.458v-.644a1.292 1.292 0 01-.527.532c-.24.137-.52.206-.843.206-.597 0-1.09-.204-1.478-.612-.389-.408-.583-.93-.583-1.565 0-.617.193-1.135.578-1.556.386-.42.88-.63 1.483-.63.683 0 1.143.236 1.38.71v-.626h.867v4.157a2.9 2.9 0 01-.117.837c-.078.258-.2.496-.368.714a1.673 1.673 0 01-.704.514 2.763 2.763 0 01-1.058.187c-.554 0-1.023-.157-1.408-.472a1.756 1.756 0 01-.662-1.2M125.984 17.6h.877v-6.764h-.877zM129.694 17.003c.392 0 .706-.106.942-.318.236-.212.354-.548.354-1.009v-.205l-1.37.205a.863.863 0 00-.476.215.602.602 0 00-.177.458.62.62 0 00.2.458.72.72 0 00.527.196m-1.622-.607c0-.386.125-.697.373-.93.248-.234.578-.379.988-.435l1.212-.177c.23-.031.345-.143.345-.336a.754.754 0 00-.242-.58c-.162-.15-.405-.224-.728-.224-.298 0-.534.082-.708.248a1.033 1.033 0 00-.308.658l-.839-.196c.043-.43.239-.78.587-1.051.348-.27.765-.406 1.25-.406.634 0 1.103.154 1.407.462.305.308.457.703.457 1.182v2.252c0 .268.019.514.056.738h-.857a3.731 3.731 0 01-.047-.608 1.67 1.67 0 01-.545.524c-.24.15-.54.224-.9.224-.442 0-.802-.133-1.082-.397a1.261 1.261 0 01-.42-.948M133.75 15.34c0 .473.116.86.35 1.158.232.3.554.449.964.449.392 0 .706-.153.942-.458.236-.305.354-.694.354-1.168 0-.467-.115-.844-.344-1.13-.231-.287-.545-.43-.943-.43-.397 0-.718.146-.96.439-.242.293-.363.672-.363 1.14m2.62 1.653v-.074c-.118.23-.298.422-.537.574-.24.153-.523.23-.853.23-.64 0-1.154-.227-1.543-.678-.388-.452-.582-1.02-.582-1.705 0-.654.199-1.21.596-1.668.398-.458.908-.687 1.53-.687.366 0 .665.074.894.22.23.146.388.325.476.537v-2.906h.867v5.933c0 .306.015.583.046.832h-.848a3.455 3.455 0 01-.047-.608M142.383 17.003c.391 0 .705-.106.941-.318.236-.212.355-.548.355-1.009v-.205l-1.37.205a.863.863 0 00-.476.215.602.602 0 00-.178.458.62.62 0 00.2.458.72.72 0 00.528.196m-1.622-.607c0-.386.124-.697.372-.93.249-.234.578-.379.989-.435l1.212-.177c.23-.031.345-.143.345-.336a.754.754 0 00-.243-.58c-.162-.15-.404-.224-.727-.224-.298 0-.534.082-.709.248a1.033 1.033 0 00-.307.658l-.84-.196c.044-.43.24-.78.588-1.051.348-.27.765-.406 1.25-.406.633 0 1.102.154 1.407.462.305.308.457.703.457 1.182v2.252c0 .268.019.514.056.738h-.858a3.731 3.731 0 01-.046-.608 1.67 1.67 0 01-.546.524c-.24.15-.54.224-.9.224-.441 0-.801-.133-1.081-.397a1.261 1.261 0 01-.42-.948M147.09 11.687v1.42h.97v.794h-.97v2.336c0 .212.05.367.145.467.096.1.257.15.48.15.13 0 .246-.013.345-.038v.747c-.149.056-.348.084-.596.084-.386 0-.69-.112-.914-.336-.224-.224-.336-.539-.336-.944v-2.466h-.857v-.794h.242c.23 0 .403-.064.517-.192a.72.72 0 00.173-.5v-.728h.802zM150.4 11.687v1.42h.97v.794h-.97v2.336c0 .212.049.367.145.467.096.1.256.15.48.15.13 0 .245-.013.345-.038v.747c-.15.056-.349.084-.597.084-.385 0-.69-.112-.914-.336-.223-.224-.335-.539-.335-.944v-2.466h-.858v-.794h.242c.23 0 .403-.064.518-.192a.72.72 0 00.172-.5v-.728h.802zM14.494 27.121l-1.79 4.494h-.886L10 27.121h.988l1.277 3.466 1.287-3.466zM15.333 31.615h.867v-4.494h-.867v4.494zm-.014-5.75a.605.605 0 01-.183-.444.62.62 0 01.183-.449.593.593 0 01.443-.187c.174 0 .322.061.447.183a.608.608 0 01.186.453.597.597 0 01-.186.444.618.618 0 01-.447.182.602.602 0 01-.443-.182zM24.04 27.121l-1.91 1.897 1.947 2.597h-1.1l-1.463-1.981-.625.626v1.355h-.867v-6.764h.867v4.26l1.939-1.99zM27.825 31.073a1.145 1.145 0 01-.541.51 1.803 1.803 0 01-.783.172c-.51 0-.917-.17-1.221-.509-.305-.34-.457-.77-.457-1.294v-2.83h.877v2.699c0 .337.082.613.246.831.165.219.421.328.77.328.347 0 .611-.105.792-.313.18-.21.27-.488.27-.837v-2.709h.877v3.663c0 .292.015.569.046.831h-.84a3.138 3.138 0 01-.036-.542M31.023 29.018v2.597h-.876V27.12h.857v.645c.298-.517.76-.776 1.38-.776.516 0 .912.165 1.189.495.277.33.415.757.415 1.28v2.85h-.877v-2.7c0-.754-.348-1.13-1.044-1.13-.329 0-.586.116-.769.35-.183.233-.275.527-.275.883M35.908 29.354c0 .474.117.86.35 1.159.233.299.554.448.965.448.391 0 .705-.152.941-.458.236-.305.354-.695.354-1.168 0-.467-.114-.843-.344-1.13-.23-.286-.544-.43-.942-.43-.397 0-.718.147-.96.44-.243.292-.364.672-.364 1.139m2.62 1.654v-.075c-.118.23-.297.422-.536.575-.24.152-.523.228-.853.228-.64 0-1.155-.226-1.543-.677-.388-.452-.583-1.02-.583-1.705 0-.654.2-1.21.597-1.668.398-.458.908-.686 1.529-.686.366 0 .665.073.895.22.23.146.388.324.475.536v-2.905h.867v5.932c0 .306.016.583.047.832h-.849a3.46 3.46 0 01-.046-.607M41.436 28.905h2.452c-.012-.336-.124-.612-.336-.826-.21-.215-.509-.323-.895-.323-.347 0-.634.114-.857.341a1.224 1.224 0 00-.364.808m2.583 1.168l.755.262a1.993 1.993 0 01-.727 1.023c-.355.265-.784.397-1.287.397a2.19 2.19 0 01-1.599-.65c-.438-.432-.657-1.016-.657-1.751 0-.685.211-1.252.634-1.7.423-.449.926-.673 1.51-.673.677 0 1.206.214 1.585.64.379.427.569.998.569 1.714 0 .112-.006.206-.019.28h-3.375c.007.4.138.726.396.982.258.255.577.383.956.383.64 0 1.06-.302 1.26-.907M48.251 31.615h.876v-6.764h-.876zM52.866 25.813c0-.15.051-.277.154-.383a.515.515 0 01.387-.159.52.52 0 01.382.159.52.52 0 01.158.383.517.517 0 01-.158.388.528.528 0 01-.382.154.524.524 0 01-.541-.542m-1.32 4.732c.271.283.603.426.994.426s.723-.143.993-.426c.27-.283.405-.677.405-1.181 0-.499-.135-.89-.405-1.173a1.321 1.321 0 00-.993-.425 1.32 1.32 0 00-.993.425c-.27.284-.406.674-.406 1.173 0 .504.136.898.406 1.181m-.424-4.732c0-.15.052-.277.154-.383a.506.506 0 01.377-.159c.156 0 .286.053.392.159a.523.523 0 01.158.383.519.519 0 01-.158.388.54.54 0 01-.392.154.528.528 0 01-.531-.542m-.229 1.845c.432-.451.98-.677 1.646-.677.665 0 1.213.226 1.646.677.432.452.647 1.02.647 1.706 0 .69-.214 1.262-.643 1.714-.429.452-.979.677-1.65.677-.671 0-1.221-.225-1.65-.677-.43-.452-.644-1.023-.644-1.714 0-.686.217-1.254.648-1.706M55.532 30.447l.792-.28a.938.938 0 00.317.602c.181.16.423.239.728.239.236 0 .423-.058.559-.173a.535.535 0 00.206-.425c0-.3-.193-.492-.578-.58l-.766-.168c-.348-.075-.62-.225-.82-.448a1.183 1.183 0 01-.298-.813c0-.386.157-.72.471-1 .314-.28.688-.42 1.124-.42.285 0 .54.042.763.126.225.084.398.194.523.332a1.62 1.62 0 01.419.747l-.774.29a.937.937 0 00-.064-.22 1.257 1.257 0 00-.145-.238.687.687 0 00-.284-.21 1.12 1.12 0 00-.438-.08.8.8 0 00-.537.178.535.535 0 00-.21.42c0 .287.17.467.513.542l.727.159c.398.087.704.248.918.482.215.233.322.518.322.854 0 .355-.145.676-.434.962-.288.287-.691.43-1.206.43-.554 0-.986-.138-1.297-.416-.31-.276-.487-.574-.531-.892M61.415 31.017c.392 0 .706-.106.942-.318.236-.211.354-.548.354-1.008v-.206l-1.37.206a.859.859 0 00-.476.215.601.601 0 00-.177.457.62.62 0 00.2.458c.134.131.31.196.527.196m-1.622-.607c0-.386.125-.696.373-.93.248-.234.578-.379.988-.434l1.212-.178c.23-.031.345-.143.345-.336a.755.755 0 00-.242-.58c-.162-.149-.405-.223-.728-.223-.298 0-.534.082-.708.247a1.033 1.033 0 00-.308.658l-.839-.196c.043-.43.239-.78.587-1.051.348-.27.765-.406 1.25-.406.634 0 1.103.154 1.407.462.305.308.457.703.457 1.182v2.252c0 .268.019.514.056.738h-.858a3.726 3.726 0 01-.046-.608 1.67 1.67 0 01-.546.524c-.239.15-.54.225-.9.225-.44 0-.8-.133-1.08-.398a1.26 1.26 0 01-.42-.948M67.801 29.354c0 .474.117.86.35 1.159.233.299.554.448.965.448.391 0 .705-.152.941-.458.236-.305.355-.695.355-1.168 0-.467-.115-.843-.345-1.13-.23-.286-.544-.43-.942-.43-.397 0-.718.147-.96.44-.243.292-.364.672-.364 1.139m2.62 1.654v-.075c-.118.23-.297.422-.536.575-.24.152-.523.228-.853.228-.64 0-1.155-.226-1.543-.677-.388-.452-.583-1.02-.583-1.705 0-.654.2-1.21.597-1.668.398-.458.908-.686 1.529-.686.366 0 .665.073.895.22.23.146.388.324.475.536v-2.905h.867v5.932c0 .306.016.583.047.832h-.849a3.46 3.46 0 01-.046-.607M73.33 28.905h2.451c-.012-.336-.124-.612-.336-.826-.21-.215-.509-.323-.895-.323-.347 0-.634.114-.857.341a1.224 1.224 0 00-.364.808m2.583 1.168l.755.262a1.993 1.993 0 01-.727 1.023c-.355.265-.784.397-1.287.397a2.19 2.19 0 01-1.599-.65c-.438-.432-.657-1.016-.657-1.751 0-.685.211-1.252.634-1.7.423-.449.926-.673 1.51-.673.677 0 1.206.214 1.585.64.379.427.569.998.569 1.714 0 .112-.006.206-.019.28h-3.375c.007.4.138.726.396.982.258.255.577.383.956.383.64 0 1.06-.302 1.26-.907M78.988 25.7v1.421h.97v.794h-.97v2.336c0 .211.048.368.145.467.096.1.256.15.48.15.13 0 .245-.013.345-.038v.747c-.15.057-.349.085-.597.085-.385 0-.69-.112-.914-.337-.223-.224-.335-.539-.335-.943v-2.467h-.858v-.794h.242c.23 0 .403-.064.518-.191a.72.72 0 00.172-.5v-.73h.802zM83.034 30.447l.793-.28a.938.938 0 00.317.602c.18.16.423.239.727.239.237 0 .423-.058.56-.173a.535.535 0 00.205-.425c0-.3-.193-.492-.578-.58l-.765-.168c-.348-.075-.621-.225-.82-.448a1.183 1.183 0 01-.299-.813c0-.386.158-.72.472-1 .313-.28.687-.42 1.123-.42.286 0 .54.042.764.126.224.084.398.194.523.332a1.62 1.62 0 01.419.747l-.774.29a.937.937 0 00-.065-.22 1.257 1.257 0 00-.144-.238.687.687 0 00-.285-.21 1.12 1.12 0 00-.438-.08.8.8 0 00-.536.178.535.535 0 00-.21.42c0 .287.17.467.512.542l.728.159c.398.087.703.248.918.482.215.233.321.518.321.854 0 .355-.144.676-.433.962-.288.287-.692.43-1.207.43-.553 0-.986-.138-1.296-.416-.31-.276-.488-.574-.532-.892M89.579 25.944a.434.434 0 00.13-.318.45.45 0 00-.13-.322.436.436 0 00-.327-.136.41.41 0 00-.312.136.46.46 0 00-.126.322c0 .125.043.23.126.318.084.087.188.13.312.13.13 0 .24-.043.327-.13m.727-.318c0 .28-.103.52-.307.72-.206.199-.452.299-.737.299-.28 0-.522-.1-.727-.3a.966.966 0 01-.308-.719c0-.287.102-.53.308-.729.205-.199.448-.299.727-.299.285 0 .531.1.737.3.204.199.307.441.307.728m-1.39 5.391c.392 0 .706-.106.942-.318.237-.212.355-.548.355-1.009v-.206l-1.37.206a.869.869 0 00-.476.215.602.602 0 00-.177.458.62.62 0 00.2.458.72.72 0 00.527.196m-1.622-.608c0-.386.124-.695.373-.929.248-.233.578-.378.988-.434l1.212-.178c.23-.03.345-.143.345-.336a.754.754 0 00-.243-.58c-.161-.149-.404-.224-.727-.224-.298 0-.534.083-.708.248a1.03 1.03 0 00-.308.659l-.84-.197c.044-.43.24-.78.588-1.05.349-.272.765-.407 1.25-.407.633 0 1.102.154 1.408.462.304.309.456.703.456 1.182v2.252c0 .267.019.514.056.738h-.858a3.728 3.728 0 01-.046-.607c-.125.2-.307.373-.546.523-.24.15-.54.224-.9.224-.441 0-.801-.132-1.08-.397a1.26 1.26 0 01-.42-.949M96.124 31.017c.391 0 .705-.106.941-.318.236-.211.354-.548.354-1.008v-.206l-1.37.206a.859.859 0 00-.476.215.601.601 0 00-.177.457.62.62 0 00.2.458c.134.131.31.196.528.196M94.5 30.41c0-.386.125-.696.373-.93.248-.234.578-.379.988-.434l1.212-.178c.23-.031.345-.143.345-.336a.755.755 0 00-.242-.58c-.162-.149-.404-.223-.727-.223-.299 0-.534.082-.709.247a1.033 1.033 0 00-.307.658l-.84-.196c.044-.43.24-.78.588-1.051.348-.27.764-.406 1.25-.406.633 0 1.102.154 1.407.462.305.308.457.703.457 1.182v2.252c0 .268.018.514.056.738h-.858a3.726 3.726 0 01-.047-.608 1.67 1.67 0 01-.545.524c-.24.15-.54.225-.9.225-.441 0-.801-.133-1.081-.398a1.26 1.26 0 01-.42-.948M100.832 25.7v1.421h.97v.794h-.97v2.336c0 .211.048.368.144.467.096.1.257.15.48.15.13 0 .246-.013.345-.038v.747c-.149.057-.348.085-.596.085-.386 0-.69-.112-.914-.337-.224-.224-.336-.539-.336-.943v-2.467h-.857v-.794h.242c.23 0 .403-.064.517-.191a.72.72 0 00.173-.5v-.73h.802zM104.141 25.7v1.421h.97v.794h-.97v2.336c0 .211.048.368.145.467.096.1.256.15.48.15.13 0 .245-.013.345-.038v.747c-.15.057-.349.085-.597.085-.385 0-.69-.112-.914-.337-.223-.224-.335-.539-.335-.943v-2.467h-.858v-.794h.242c.23 0 .403-.064.518-.191a.72.72 0 00.172-.5v-.73h.802zM109.129 29.354c0 .474.116.86.35 1.159.232.299.554.448.964.448.392 0 .706-.152.942-.458.236-.305.354-.695.354-1.168 0-.467-.115-.843-.344-1.13-.231-.286-.545-.43-.943-.43-.397 0-.717.147-.96.44-.242.292-.363.672-.363 1.139m2.62 1.654v-.075c-.118.23-.298.422-.537.575-.24.152-.523.228-.853.228-.64 0-1.154-.226-1.543-.677-.388-.452-.582-1.02-.582-1.705 0-.654.199-1.21.596-1.668.398-.458.908-.686 1.53-.686.366 0 .665.073.894.22.23.146.388.324.476.536v-2.905h.867v5.932c0 .306.015.583.046.832h-.848a3.46 3.46 0 01-.047-.607M116.997 31.073a1.145 1.145 0 01-.54.51 1.803 1.803 0 01-.783.172c-.51 0-.917-.17-1.222-.509-.305-.34-.456-.77-.456-1.294v-2.83h.876v2.699c0 .337.082.613.246.831.165.219.422.328.77.328.347 0 .611-.105.792-.313.18-.21.27-.488.27-.837v-2.709h.877v3.663c0 .292.015.569.047.831h-.84a3.138 3.138 0 01-.037-.542M121.65 31.615h.867v-4.494h-.867v4.494zm-.014-5.75a.604.604 0 01-.182-.444.62.62 0 01.182-.449.593.593 0 01.443-.187c.173 0 .322.061.447.183a.608.608 0 01.186.453.597.597 0 01-.186.444.619.619 0 01-.447.182.602.602 0 01-.443-.182zM124.885 29.018v2.597h-.877V27.12h.858v.645c.298-.517.759-.776 1.38-.776.516 0 .912.165 1.189.495.276.33.414.757.414 1.28v2.85h-.876v-2.7c0-.754-.348-1.13-1.044-1.13-.33 0-.586.116-.77.35-.183.233-.274.527-.274.883M130.422 25.7v1.421h.97v.794h-.97v2.336c0 .211.048.368.144.467.096.1.257.15.48.15.131 0 .246-.013.345-.038v.747c-.149.057-.348.085-.596.085-.385 0-.69-.112-.914-.337-.224-.224-.336-.539-.336-.943v-2.467h-.857v-.794h.242c.23 0 .403-.064.518-.191a.72.72 0 00.172-.5v-.73h.802zM133.08 28.905h2.451c-.012-.336-.124-.612-.336-.826-.21-.215-.509-.323-.895-.323-.347 0-.633.114-.857.341a1.224 1.224 0 00-.364.808m2.583 1.168l.755.262a1.993 1.993 0 01-.727 1.023c-.355.265-.784.397-1.287.397a2.19 2.19 0 01-1.599-.65c-.438-.432-.657-1.016-.657-1.751 0-.685.211-1.252.634-1.7.423-.449.926-.673 1.51-.673.677 0 1.206.214 1.585.64.379.427.569.998.569 1.714 0 .112-.006.206-.019.28h-3.375c.007.4.138.726.396.982.258.255.577.383.956.383.64 0 1.06-.302 1.26-.907M13.804 44.527c.242-.293.363-.682.363-1.168 0-.485-.12-.87-.358-1.154-.24-.283-.562-.425-.965-.425-.392 0-.712.144-.961.43-.248.286-.373.67-.373 1.15 0 .479.125.867.373 1.162.249.296.57.444.96.444.398 0 .718-.146.96-.439zM11.52 45.63h-.867v-6.765h.867v2.906c.117-.218.306-.4.563-.546a1.83 1.83 0 01.919-.22c.653 0 1.16.221 1.52.663.36.442.54 1.006.54 1.691 0 .692-.186 1.263-.56 1.715-.372.451-.882.677-1.528.677-.671 0-1.156-.258-1.454-.775v.654zM16.75 42.92h2.452c-.013-.336-.124-.612-.336-.827-.211-.214-.51-.322-.896-.322-.347 0-.633.114-.857.34a1.226 1.226 0 00-.364.81m2.584 1.167l.754.261a1.993 1.993 0 01-.727 1.023c-.354.265-.783.398-1.286.398a2.19 2.19 0 01-1.6-.65c-.437-.433-.657-1.017-.657-1.751 0-.685.212-1.252.634-1.701.423-.448.926-.672 1.51-.672.677 0 1.206.213 1.586.64.378.426.568.998.568 1.714 0 .112-.006.206-.019.28h-3.374c.006.399.137.726.396.981.258.256.576.384.956.384.64 0 1.06-.303 1.259-.907M22.11 42.985v2.644h-.876v-6.764h.876v2.794c.298-.437.752-.654 1.361-.654.516 0 .912.165 1.189.495.276.33.415.757.415 1.28v2.85h-.877v-2.7c0-.754-.348-1.13-1.044-1.13-.323 0-.575.11-.755.33-.18.222-.277.507-.29.855M28.72 39.828c0-.15.05-.278.154-.383a.513.513 0 01.387-.16c.15 0 .276.054.382.16a.52.52 0 01.158.383.515.515 0 01-.158.387.526.526 0 01-.382.155.52.52 0 01-.387-.155.523.523 0 01-.154-.387M27.4 44.56c.27.283.602.425.993.425.392 0 .723-.142.994-.425.27-.284.405-.678.405-1.182 0-.498-.135-.89-.405-1.173a1.32 1.32 0 00-.994-.424 1.32 1.32 0 00-.993.424c-.27.284-.405.675-.405 1.173 0 .504.135.898.405 1.182m-.424-4.732c0-.15.052-.278.154-.383a.504.504 0 01.378-.16.53.53 0 01.391.16.522.522 0 01.159.383.537.537 0 01-.55.542.527.527 0 01-.531-.542m-.23 1.845c.433-.451.982-.677 1.646-.677.665 0 1.214.226 1.646.677.432.451.648 1.02.648 1.705 0 .692-.215 1.263-.643 1.715-.43.451-.98.677-1.65.677-.672 0-1.221-.226-1.65-.677-.43-.452-.644-1.023-.644-1.715 0-.685.216-1.254.648-1.705M35.507 41.135l-1.79 4.494h-.886l-1.818-4.494h.989l1.277 3.467 1.286-3.467zM36.728 43.369c0 .473.117.86.35 1.158.233.3.554.449.965.449.391 0 .705-.153.941-.458.236-.306.354-.695.354-1.168 0-.467-.114-.844-.344-1.13-.23-.287-.544-.43-.942-.43-.398 0-.718.146-.96.439-.243.293-.364.672-.364 1.14m2.62 1.653v-.074c-.118.23-.297.422-.536.574-.24.153-.524.23-.853.23-.64 0-1.155-.227-1.543-.678-.388-.452-.583-1.02-.583-1.705 0-.654.2-1.21.597-1.668.398-.458.908-.687 1.529-.687.366 0 .665.074.895.22.23.146.388.325.475.537v-2.906h.867v5.933c0 .305.016.582.047.832h-.849a3.46 3.46 0 01-.046-.608M42.257 42.92h2.452c-.013-.336-.125-.612-.336-.827-.211-.214-.51-.322-.895-.322-.348 0-.634.114-.858.34a1.226 1.226 0 00-.363.81m2.583 1.167l.755.261a1.993 1.993 0 01-.728 1.023c-.354.265-.783.398-1.286.398a2.19 2.19 0 01-1.6-.65c-.438-.433-.657-1.017-.657-1.751 0-.685.212-1.252.634-1.701.423-.448.926-.672 1.51-.672.678 0 1.206.213 1.586.64.378.426.568.998.568 1.714 0 .112-.006.206-.018.28h-3.375c.006.399.138.726.396.981.257.256.576.384.956.384.64 0 1.06-.303 1.259-.907M50.946 44.677c.378 0 .687-.133.923-.397.236-.265.354-.613.354-1.042 0-.43-.118-.777-.354-1.042-.236-.264-.545-.397-.923-.397-.386 0-.698.13-.937.392-.24.261-.36.61-.36 1.047 0 .442.117.793.35 1.051.233.258.549.388.947.388m-2.2 1.196l.848-.197c.03.318.158.58.382.79.224.208.503.313.84.313.913 0 1.37-.486 1.37-1.458v-.644a1.292 1.292 0 01-.527.532c-.24.137-.521.206-.844.206-.597 0-1.09-.204-1.478-.612-.388-.408-.582-.93-.582-1.565 0-.617.192-1.135.577-1.556.386-.42.88-.63 1.483-.63.684 0 1.143.236 1.38.71v-.626h.867v4.157c0 .299-.04.578-.117.837a2.2 2.2 0 01-.368.714 1.673 1.673 0 01-.704.514 2.763 2.763 0 01-1.058.187c-.553 0-1.023-.157-1.408-.472a1.756 1.756 0 01-.662-1.2M56.949 41.089v.935a2.607 2.607 0 00-.382-.028c-.82 0-1.231.46-1.231 1.382v2.251h-.876v-4.494h.857v.786c.274-.574.722-.86 1.343-.86.1 0 .196.01.289.028M59.885 39.958a.434.434 0 00.132-.317.45.45 0 00-.132-.323.433.433 0 00-.326-.135.409.409 0 00-.312.135.46.46 0 00-.126.323c0 .124.043.23.126.317.084.087.188.131.312.131.13 0 .24-.044.326-.13m.728-.318c0 .28-.103.52-.307.719-.206.2-.452.3-.737.3-.28 0-.522-.1-.728-.3a.964.964 0 01-.307-.72c0-.285.102-.528.307-.728.206-.2.448-.299.728-.299.285 0 .53.1.737.299a.98.98 0 01.307.729m-1.39 5.39c.392 0 .706-.105.942-.317.237-.212.354-.548.354-1.009v-.206l-1.37.206a.869.869 0 00-.475.215.602.602 0 00-.178.458.62.62 0 00.2.458.72.72 0 00.528.196m-1.623-.608c0-.386.125-.696.374-.93.248-.233.577-.378.988-.434l1.212-.177c.23-.031.344-.143.344-.337a.755.755 0 00-.242-.58c-.161-.148-.404-.223-.727-.223-.298 0-.534.082-.709.247a1.033 1.033 0 00-.307.66l-.84-.198c.044-.429.24-.78.588-1.05.348-.271.765-.406 1.25-.406.633 0 1.102.154 1.408.462.304.308.456.702.456 1.182v2.252c0 .267.018.513.056.738h-.858a3.728 3.728 0 01-.046-.608c-.125.2-.307.374-.546.524-.24.15-.54.224-.9.224-.441 0-.801-.132-1.081-.398a1.26 1.26 0 01-.42-.948M63.932 39.716v1.42h.97v.794h-.97v2.336c0 .211.048.367.144.467.096.1.257.15.48.15.13 0 .246-.013.345-.038v.747c-.149.056-.348.084-.596.084-.385 0-.69-.112-.914-.336-.224-.224-.336-.539-.336-.944V41.93h-.857v-.794h.242c.23 0 .403-.065.518-.192a.719.719 0 00.172-.5v-.728h.802zM67.41 45.031c.39 0 .705-.105.94-.317.237-.212.355-.548.355-1.009V43.5l-1.37.206a.859.859 0 00-.476.215.601.601 0 00-.177.458.62.62 0 00.2.457c.134.132.31.196.527.196m-1.622-.607c0-.386.125-.695.373-.93.248-.233.578-.377.988-.434l1.212-.177c.23-.03.345-.144.345-.337a.755.755 0 00-.242-.58c-.162-.149-.405-.223-.728-.223-.298 0-.534.083-.708.247a1.034 1.034 0 00-.308.66l-.839-.197c.043-.43.239-.78.587-1.051.348-.271.765-.406 1.25-.406.634 0 1.103.154 1.407.462.305.308.457.702.457 1.182v2.252c0 .267.019.514.056.737h-.857a3.726 3.726 0 01-.047-.607 1.67 1.67 0 01-.545.524c-.24.15-.54.224-.9.224-.442 0-.802-.132-1.082-.398a1.26 1.26 0 01-.42-.948M72.853 44.462l.793-.28a.938.938 0 00.317.602c.18.159.423.238.727.238.237 0 .423-.058.56-.173a.535.535 0 00.205-.425c0-.299-.193-.491-.578-.579l-.765-.168c-.348-.075-.621-.224-.82-.449a1.183 1.183 0 01-.299-.812c0-.386.158-.72.472-1 .313-.28.687-.42 1.123-.42.286 0 .54.041.764.126.224.084.398.194.523.331a1.62 1.62 0 01.419.747l-.774.29a.937.937 0 00-.065-.22 1.275 1.275 0 00-.144-.237.677.677 0 00-.285-.21 1.12 1.12 0 00-.438-.08.8.8 0 00-.536.177.535.535 0 00-.21.42c0 .287.17.468.512.543l.728.159c.398.087.703.247.918.48.215.234.322.52.322.856 0 .355-.145.676-.434.962-.288.287-.692.43-1.207.43-.553 0-.986-.139-1.296-.416-.31-.277-.488-.575-.532-.892M79.398 39.958a.434.434 0 00.131-.317.45.45 0 00-.13-.323.433.433 0 00-.327-.135.409.409 0 00-.312.135.46.46 0 00-.126.323c0 .124.042.23.126.317.084.087.188.131.312.131.13 0 .24-.044.326-.13m.727-.318c0 .28-.102.52-.307.719-.205.2-.451.3-.737.3-.279 0-.521-.1-.727-.3a.964.964 0 01-.307-.72c0-.285.102-.528.307-.728.206-.2.448-.299.727-.299.286 0 .532.1.737.299a.98.98 0 01.307.729m-1.389 5.39c.392 0 .706-.105.942-.317.237-.212.354-.548.354-1.009v-.206l-1.37.206a.869.869 0 00-.476.215.602.602 0 00-.177.458.62.62 0 00.2.458.72.72 0 00.527.196m-1.622-.608c0-.386.125-.696.374-.93.247-.233.577-.378.987-.434l1.212-.177c.23-.031.345-.143.345-.337a.755.755 0 00-.242-.58c-.162-.148-.404-.223-.727-.223-.299 0-.535.082-.709.247a1.033 1.033 0 00-.307.66l-.84-.198c.044-.429.24-.78.588-1.05.348-.271.765-.406 1.25-.406.633 0 1.102.154 1.407.462.305.308.457.702.457 1.182v2.252c0 .267.018.513.056.738h-.858a3.728 3.728 0 01-.046-.608c-.125.2-.307.374-.546.524-.24.15-.54.224-.9.224-.441 0-.802-.132-1.081-.398a1.26 1.26 0 01-.42-.948M84.6 45.63h.877v-6.765h-.876zM88.991 39.828a.53.53 0 01.154-.383.515.515 0 01.387-.16.52.52 0 01.382.16.52.52 0 01.159.383.515.515 0 01-.159.387.527.527 0 01-.382.155.525.525 0 01-.54-.542m-.681 5.203c.391 0 .706-.105.941-.317.237-.212.355-.548.355-1.009V43.5l-1.37.206a.859.859 0 00-.476.215.601.601 0 00-.177.458c0 .174.066.327.2.457.134.132.31.196.527.196m-1.063-5.203a.53.53 0 01.154-.383.504.504 0 01.377-.16.53.53 0 01.392.16.522.522 0 01.159.383.538.538 0 01-.55.542.525.525 0 01-.531-.542m-.56 4.596c0-.386.124-.695.373-.93.248-.233.578-.377.988-.434l1.212-.178c.23-.03.345-.143.345-.336a.755.755 0 00-.243-.58c-.162-.149-.404-.223-.727-.223-.298 0-.534.083-.708.247a1.034 1.034 0 00-.308.66l-.84-.197c.044-.43.24-.78.588-1.051.348-.271.765-.406 1.25-.406.633 0 1.103.154 1.407.462.305.308.457.702.457 1.182v2.252c0 .267.019.514.056.738h-.858a3.73 3.73 0 01-.046-.607c-.124.199-.307.373-.546.523-.24.15-.54.224-.9.224-.441 0-.801-.133-1.08-.398a1.26 1.26 0 01-.42-.948M92.72 43.032v2.597h-.876v-4.494h.858v.645c.298-.517.759-.775 1.38-.775.516 0 .912.165 1.189.495.276.33.414.757.414 1.28v2.85h-.876v-2.7c0-.754-.348-1.13-1.044-1.13-.33 0-.586.116-.77.35-.183.233-.274.528-.274.882M98.958 44.677c.379 0 .687-.133.923-.397.236-.265.354-.613.354-1.042 0-.43-.118-.777-.354-1.042-.236-.264-.544-.397-.923-.397-.385 0-.698.13-.937.392-.24.261-.359.61-.359 1.047 0 .442.117.793.35 1.051.233.258.548.388.946.388m-2.2 1.196l.848-.197c.03.318.159.58.382.79.224.208.504.313.84.313.913 0 1.37-.486 1.37-1.458v-.644a1.292 1.292 0 01-.527.532c-.24.137-.52.206-.844.206-.596 0-1.09-.204-1.477-.612-.389-.408-.583-.93-.583-1.565 0-.617.192-1.135.577-1.556.387-.42.88-.63 1.483-.63.684 0 1.144.236 1.38.71v-.626h.867v4.157c0 .299-.039.578-.116.837a2.2 2.2 0 01-.369.714 1.673 1.673 0 01-.704.514 2.763 2.763 0 01-1.058.187c-.553 0-1.022-.157-1.407-.472a1.756 1.756 0 01-.662-1.2M103.04 42.92h2.452c-.012-.336-.124-.612-.335-.827-.211-.214-.51-.322-.895-.322-.348 0-.634.114-.858.34a1.226 1.226 0 00-.363.81m2.583 1.167l.755.261a1.993 1.993 0 01-.728 1.023c-.354.265-.783.398-1.287.398a2.19 2.19 0 01-1.598-.65c-.439-.433-.658-1.017-.658-1.751 0-.685.212-1.252.634-1.701.423-.448.926-.672 1.51-.672.678 0 1.206.213 1.585.64.38.426.57.998.57 1.714 0 .112-.007.206-.02.28h-3.374c.006.399.138.726.396.981.257.256.576.384.955.384.64 0 1.06-.303 1.26-.907M107.264 45.144c0-.347.233-.59.56-.59.326 0 .55.243.55.59 0 .336-.215.588-.56.588-.326 0-.55-.252-.55-.588M112.736 40.393c-.466.458-.699 1.098-.699 1.92 0 .822.233 1.464.7 1.925.466.46 1.028.691 1.687.691s1.22-.23 1.687-.691c.467-.461.7-1.103.7-1.925 0-.822-.233-1.462-.7-1.92a2.32 2.32 0 00-1.687-.687c-.659 0-1.221.23-1.688.687m-1.631 1.92c0-.536.095-1.025.284-1.467.19-.442.441-.805.755-1.088a3.506 3.506 0 011.059-.659 3.281 3.281 0 011.22-.234c.424 0 .83.079 1.222.234.391.156.745.375 1.059.659.313.283.565.646.754 1.088.19.442.285.93.285 1.467 0 .71-.163 1.333-.49 1.868-.326.536-.738.935-1.235 1.197a3.384 3.384 0 01-1.594.392 3.383 3.383 0 01-1.595-.392c-.497-.262-.908-.66-1.235-1.197-.326-.535-.49-1.158-.49-1.868M119.775 45.63h-.867v-4.494h.839v.598c.137-.237.33-.418.578-.542a1.73 1.73 0 01.783-.187c.293 0 .56.072.802.215a1.3 1.3 0 01.541.635c.31-.567.81-.85 1.5-.85.43 0 .795.146 1.097.439.3.293.451.716.451 1.27v2.916h-.867v-2.822c0-.311-.08-.56-.237-.747-.16-.187-.397-.28-.714-.28a.955.955 0 00-.745.322c-.193.214-.29.484-.29.808v2.719h-.875v-2.822c0-.311-.08-.56-.238-.747-.16-.187-.397-.28-.714-.28a.975.975 0 00-.755.317c-.192.211-.29.486-.29.822v2.71zM129.75 43.369c0 .473.116.86.35 1.158.233.3.554.449.964.449.392 0 .706-.153.942-.458.236-.306.354-.695.354-1.168 0-.467-.115-.844-.344-1.13-.23-.287-.544-.43-.942-.43-.398 0-.718.146-.96.439-.243.293-.364.672-.364 1.14m2.62 1.653v-.074c-.118.23-.298.422-.537.574-.239.153-.523.23-.853.23-.64 0-1.154-.227-1.542-.678-.389-.452-.583-1.02-.583-1.705 0-.654.2-1.21.596-1.668.398-.458.908-.687 1.53-.687.366 0 .665.074.894.22.23.146.388.325.476.537v-2.906h.867v5.933c0 .305.016.582.047.832h-.849a3.46 3.46 0 01-.046-.608M135.278 42.92h2.452c-.012-.336-.124-.612-.335-.827-.211-.214-.51-.322-.895-.322-.348 0-.634.114-.858.34a1.226 1.226 0 00-.364.81m2.583 1.167l.756.261a1.993 1.993 0 01-.728 1.023c-.354.265-.783.398-1.287.398a2.19 2.19 0 01-1.599-.65c-.438-.433-.657-1.017-.657-1.751 0-.685.212-1.252.634-1.701.423-.448.926-.672 1.51-.672.677 0 1.206.213 1.585.64.379.426.569.998.569 1.714 0 .112-.006.206-.019.28h-3.375c.007.399.139.726.397.981.257.256.576.384.955.384.64 0 1.06-.303 1.26-.907M140.937 39.716v1.42h.97v.794h-.97v2.336c0 .211.049.367.145.467.096.1.256.15.48.15.13 0 .245-.013.345-.038v.747c-.15.056-.349.084-.597.084-.385 0-.69-.112-.913-.336-.224-.224-.336-.539-.336-.944V41.93h-.858v-.794h.243c.23 0 .402-.065.517-.192a.719.719 0 00.173-.5v-.728h.801zM10.233 58.476l.792-.28a.938.938 0 00.317.603c.18.158.423.238.727.238.237 0 .423-.058.56-.173a.533.533 0 00.205-.425c0-.299-.192-.492-.578-.58l-.765-.167c-.348-.075-.62-.225-.82-.449a1.183 1.183 0 01-.298-.813c0-.386.157-.72.47-1 .314-.28.689-.42 1.124-.42.286 0 .54.042.765.126.223.084.397.195.522.332.123.137.217.265.279.383.062.118.11.24.14.364l-.774.29a.937.937 0 00-.065-.22 1.275 1.275 0 00-.144-.238.677.677 0 00-.284-.21 1.118 1.118 0 00-.439-.08.8.8 0 00-.536.178.535.535 0 00-.21.42c0 .287.171.468.513.542l.727.16c.398.087.704.247.918.48.215.234.322.519.322.855 0 .355-.144.676-.433.963-.29.286-.692.43-1.207.43-.553 0-.986-.139-1.297-.416-.31-.277-.488-.575-.531-.893M18.884 55.15l-1.91 1.897 1.947 2.597h-1.1l-1.463-1.98-.624.625v1.355h-.868V52.88h.868v4.26l1.938-1.99zM22.67 59.102a1.145 1.145 0 01-.541.51 1.803 1.803 0 01-.783.173c-.51 0-.917-.17-1.221-.51-.306-.339-.457-.77-.457-1.294V55.15h.876v2.7c0 .337.082.614.247.831.165.219.421.328.77.328.347 0 .61-.104.791-.313.18-.209.271-.488.271-.836v-2.71h.877v3.663c0 .292.015.57.046.831h-.84a3.138 3.138 0 01-.037-.542M24.991 59.644h.876V52.88h-.876zM27.36 59.644h.875V52.88h-.876zM30.295 56.935h2.452c-.012-.336-.124-.613-.335-.827-.211-.215-.51-.323-.895-.323-.348 0-.634.115-.858.341a1.226 1.226 0 00-.364.809m2.583 1.168l.755.26a1.993 1.993 0 01-.727 1.024c-.355.265-.783.398-1.287.398a2.19 2.19 0 01-1.599-.65c-.438-.433-.657-1.017-.657-1.752 0-.685.212-1.252.634-1.7.423-.448.926-.673 1.51-.673.677 0 1.206.213 1.585.64.379.427.569.998.569 1.714 0 .113-.006.206-.019.281h-3.375c.007.398.138.725.397.981.257.255.576.383.955.383.64 0 1.06-.302 1.26-.906M40.951 55.15l-1.79 4.494h-.885l-1.818-4.494h.988l1.277 3.467 1.287-3.467zM43.087 59.046c.391 0 .705-.106.941-.318.236-.211.355-.547.355-1.008v-.206l-1.37.206a.859.859 0 00-.476.215.601.601 0 00-.177.458.62.62 0 00.2.457c.134.131.31.196.527.196m-1.622-.607c0-.386.124-.696.373-.93.248-.233.578-.378.988-.434l1.212-.178c.23-.03.345-.143.345-.336a.755.755 0 00-.243-.58c-.162-.149-.404-.224-.727-.224-.298 0-.534.083-.708.248a1.034 1.034 0 00-.308.66l-.84-.198c.044-.429.24-.78.588-1.05.348-.272.765-.407 1.25-.407.633 0 1.103.155 1.407.463.305.308.457.702.457 1.181v2.252c0 .268.019.514.056.738h-.858a3.726 3.726 0 01-.046-.607 1.67 1.67 0 01-.546.523c-.24.15-.54.225-.9.225-.441 0-.801-.133-1.08-.398a1.26 1.26 0 01-.42-.948M49.109 55.103v.935a2.607 2.607 0 00-.382-.028c-.82 0-1.231.46-1.231 1.382v2.252h-.876V55.15h.857v.785c.274-.573.722-.86 1.343-.86.1 0 .196.01.289.028M51.384 59.046c.391 0 .705-.106.941-.318.236-.211.355-.547.355-1.008v-.206l-1.37.206a.859.859 0 00-.476.215.601.601 0 00-.177.458.62.62 0 00.2.457c.133.131.31.196.527.196m-1.622-.607c0-.386.124-.696.372-.93.249-.233.578-.378.989-.434l1.212-.178c.23-.03.345-.143.345-.336a.755.755 0 00-.243-.58c-.162-.149-.404-.224-.727-.224-.298 0-.534.083-.709.248a1.034 1.034 0 00-.307.66l-.84-.198c.044-.429.24-.78.588-1.05.348-.272.765-.407 1.25-.407.633 0 1.102.155 1.407.463.305.308.457.702.457 1.181v2.252c0 .268.019.514.056.738h-.858a3.726 3.726 0 01-.046-.607 1.67 1.67 0 01-.546.523c-.24.15-.54.225-.9.225-.441 0-.801-.133-1.08-.398a1.26 1.26 0 01-.42-.948M58.124 57.047v2.597h-.876V55.15h.858v.645c.297-.517.758-.776 1.38-.776.515 0 .911.166 1.188.495.277.33.415.757.415 1.28v2.85h-.876v-2.7c0-.753-.349-1.13-1.044-1.13-.33 0-.587.116-.77.35-.183.234-.275.528-.275.883M64.492 53.973a.434.434 0 00.13-.318.45.45 0 00-.13-.322.433.433 0 00-.327-.135.409.409 0 00-.312.135.46.46 0 00-.126.322c0 .125.043.231.126.318.084.087.188.13.312.13.13 0 .24-.043.327-.13m.727-.318c0 .28-.103.52-.307.72-.206.199-.452.299-.737.299-.28 0-.522-.1-.727-.3a.964.964 0 01-.308-.719c0-.286.102-.529.308-.728.205-.2.448-.3.727-.3.285 0 .531.1.737.3a.98.98 0 01.307.728m-1.39 5.391c.392 0 .706-.105.942-.317.237-.212.355-.549.355-1.01v-.206l-1.37.207a.869.869 0 00-.476.214.602.602 0 00-.177.458.62.62 0 00.2.458.72.72 0 00.527.196m-1.622-.608c0-.386.124-.695.373-.929.248-.233.578-.378.988-.434l1.212-.178c.23-.03.345-.143.345-.336a.755.755 0 00-.243-.58c-.161-.149-.404-.223-.727-.223-.298 0-.534.082-.708.247a1.033 1.033 0 00-.308.659l-.84-.197c.044-.43.24-.78.588-1.05.349-.271.765-.407 1.25-.407.633 0 1.102.154 1.408.463.304.308.456.702.456 1.181v2.252c0 .268.019.514.056.738H65.2a3.728 3.728 0 01-.046-.607c-.125.2-.307.374-.546.523-.24.15-.54.224-.9.224-.441 0-.801-.132-1.08-.397a1.26 1.26 0 01-.42-.949M69.237 58.691c.379 0 .687-.132.923-.397s.354-.612.354-1.042c0-.43-.118-.777-.354-1.041-.236-.265-.544-.397-.923-.397-.385 0-.698.13-.937.392-.24.261-.36.61-.36 1.046 0 .443.117.793.35 1.052.234.258.549.387.947.387m-2.2 1.196l.848-.196c.03.318.158.58.382.789.224.209.504.314.84.314.913 0 1.37-.486 1.37-1.458v-.645a1.292 1.292 0 01-.527.533c-.24.137-.52.205-.844.205-.596 0-1.09-.203-1.477-.612-.39-.407-.583-.93-.583-1.565 0-.617.192-1.135.577-1.555.387-.421.88-.63 1.483-.63.684 0 1.143.236 1.38.71v-.627h.867v4.158c0 .298-.039.577-.116.836a2.2 2.2 0 01-.369.715 1.673 1.673 0 01-.704.514 2.763 2.763 0 01-1.058.187c-.553 0-1.022-.157-1.408-.472a1.756 1.756 0 01-.661-1.2M73.68 58.574c.27.284.6.426.992.426s.722-.142.993-.426c.27-.283.405-.677.405-1.181 0-.499-.135-.89-.405-1.173a1.318 1.318 0 00-.993-.425c-.392 0-.723.141-.993.425-.27.283-.405.674-.405 1.173 0 .504.135.898.405 1.181m-.653-2.887c.432-.451.98-.677 1.646-.677.665 0 1.213.226 1.645.677.433.452.648 1.02.648 1.706 0 .69-.215 1.263-.643 1.714-.429.452-.98.677-1.65.677-.671 0-1.221-.225-1.65-.677-.429-.451-.643-1.023-.643-1.714 0-.685.216-1.254.647-1.706M79.212 53.73v1.42h.97v.794h-.97v2.336c0 .212.049.368.145.467.096.1.256.15.48.15.13 0 .245-.012.345-.038v.747c-.15.057-.349.085-.597.085-.385 0-.69-.112-.913-.336-.224-.225-.336-.54-.336-.944v-2.467h-.858v-.794h.243c.23 0 .402-.064.517-.191a.719.719 0 00.172-.5v-.729h.802zM84.545 59.644h-.867V55.15h.839v.598c.137-.236.33-.417.578-.542a1.73 1.73 0 01.783-.187c.292 0 .56.072.801.215a1.3 1.3 0 01.542.636c.31-.567.81-.85 1.5-.85.43 0 .794.146 1.096.439.3.293.452.716.452 1.27v2.915h-.867v-2.821c0-.312-.08-.561-.237-.748-.16-.187-.397-.28-.714-.28a.955.955 0 00-.745.322c-.193.215-.29.484-.29.808v2.72h-.876v-2.822c0-.312-.08-.561-.237-.748-.16-.187-.397-.28-.714-.28a.975.975 0 00-.755.318c-.193.21-.29.485-.29.822v2.71zM92.236 56.935h2.452c-.012-.336-.124-.613-.336-.827-.21-.215-.509-.323-.895-.323-.348 0-.634.115-.857.341a1.226 1.226 0 00-.364.809m2.583 1.168l.755.26a1.993 1.993 0 01-.728 1.024c-.354.265-.783.398-1.286.398a2.19 2.19 0 01-1.599-.65c-.438-.433-.657-1.017-.657-1.752 0-.685.211-1.252.634-1.7.423-.448.926-.673 1.51-.673.677 0 1.206.213 1.585.64.379.427.569.998.569 1.714 0 .113-.006.206-.02.281h-3.374c.006.398.138.725.396.981.258.255.577.383.956.383.64 0 1.06-.302 1.259-.906M99.21 55.103v.935a2.607 2.607 0 00-.382-.028c-.82 0-1.232.46-1.232 1.382v2.252h-.875V55.15h.857v.785c.274-.573.721-.86 1.342-.86.1 0 .196.01.29.028M102.053 58.476l.792-.28a.938.938 0 00.317.603c.18.158.423.238.727.238.237 0 .423-.058.56-.173a.535.535 0 00.205-.425c0-.299-.192-.492-.578-.58l-.765-.167c-.348-.075-.62-.225-.82-.449a1.183 1.183 0 01-.298-.813c0-.386.157-.72.471-1 .313-.28.688-.42 1.123-.42.286 0 .54.042.764.126.225.084.398.195.523.332a1.62 1.62 0 01.419.747l-.774.29a.937.937 0 00-.065-.22 1.275 1.275 0 00-.144-.238.677.677 0 00-.284-.21 1.12 1.12 0 00-.439-.08.8.8 0 00-.536.178.535.535 0 00-.21.42c0 .287.17.468.513.542l.727.16c.398.087.704.247.918.48.215.234.322.519.322.855 0 .355-.145.676-.434.963-.288.286-.691.43-1.206.43-.554 0-.986-.139-1.297-.416-.31-.277-.488-.575-.531-.893M108.598 53.973a.434.434 0 00.13-.318.45.45 0 00-.13-.322.433.433 0 00-.327-.135.409.409 0 00-.312.135.46.46 0 00-.126.322c0 .125.043.231.126.318.084.087.188.13.312.13.13 0 .24-.043.327-.13m.727-.318c0 .28-.103.52-.307.72-.206.199-.452.299-.737.299-.28 0-.522-.1-.728-.3a.964.964 0 01-.307-.719c0-.286.102-.529.307-.728.206-.2.449-.3.728-.3.285 0 .531.1.737.3a.98.98 0 01.307.728m-1.39 5.391c.392 0 .706-.105.942-.317.237-.212.355-.549.355-1.01v-.206l-1.37.207a.869.869 0 00-.476.214.602.602 0 00-.178.458.62.62 0 00.2.458.72.72 0 00.528.196m-1.622-.608c0-.386.124-.695.373-.929.248-.233.577-.378.988-.434l1.212-.178c.23-.03.345-.143.345-.336a.755.755 0 00-.243-.58c-.161-.149-.404-.223-.727-.223-.298 0-.534.082-.709.247a1.033 1.033 0 00-.307.659l-.84-.197c.044-.43.24-.78.588-1.05.349-.271.765-.407 1.25-.407.633 0 1.102.154 1.408.463.304.308.456.702.456 1.181v2.252c0 .268.019.514.056.738h-.858a3.728 3.728 0 01-.046-.607c-.125.2-.307.374-.546.523-.24.15-.54.224-.9.224-.441 0-.801-.132-1.081-.397a1.26 1.26 0 01-.42-.949M115.823 53.842a.53.53 0 01.153-.383.515.515 0 01.387-.159.52.52 0 01.382.16.52.52 0 01.159.382.515.515 0 01-.159.388.527.527 0 01-.382.154.525.525 0 01-.54-.542m-.681 5.204c.391 0 .706-.106.942-.318.236-.211.354-.547.354-1.008v-.206l-1.37.206a.859.859 0 00-.476.215.601.601 0 00-.177.458c0 .174.066.327.2.457.134.131.31.196.527.196m-1.063-5.204a.53.53 0 01.154-.383.504.504 0 01.378-.159.53.53 0 01.391.16.522.522 0 01.159.382.538.538 0 01-.55.542.525.525 0 01-.531-.542m-.56 4.597c0-.386.124-.696.373-.93.248-.233.578-.378.988-.434l1.212-.178c.23-.03.345-.143.345-.336a.755.755 0 00-.243-.58c-.162-.15-.404-.224-.727-.224-.298 0-.534.083-.708.248a1.034 1.034 0 00-.308.66l-.839-.198c.043-.429.239-.78.587-1.05.348-.272.765-.407 1.25-.407.634 0 1.103.154 1.407.463.305.308.457.702.457 1.181v2.252c0 .268.019.514.056.738h-.858a3.73 3.73 0 01-.046-.607c-.124.2-.307.373-.546.523-.24.15-.54.225-.9.225-.44 0-.801-.133-1.08-.398a1.26 1.26 0 01-.42-.948M121.164 55.103v.935a2.607 2.607 0 00-.381-.028c-.82 0-1.231.46-1.231 1.382v2.252h-.876V55.15h.857v.785c.274-.573.721-.86 1.342-.86.1 0 .196.01.29.028M124.95 57.383c0 .474.116.86.35 1.159.232.299.554.448.964.448.392 0 .706-.152.942-.458.236-.305.354-.694.354-1.168 0-.467-.115-.844-.344-1.13-.231-.286-.545-.43-.943-.43-.397 0-.717.147-.96.44-.242.292-.363.672-.363 1.14m2.62 1.653v-.075c-.118.23-.298.422-.537.575-.24.152-.523.229-.853.229-.64 0-1.154-.226-1.543-.678-.388-.452-.582-1.02-.582-1.705 0-.654.199-1.21.596-1.667.398-.458.908-.687 1.53-.687.366 0 .665.073.894.22.23.146.388.325.476.537V52.88h.867v5.933c0 .305.015.582.046.831h-.848a3.46 3.46 0 01-.047-.607M130.478 56.935h2.452c-.012-.336-.124-.613-.336-.827-.21-.215-.509-.323-.895-.323-.347 0-.633.115-.857.341a1.226 1.226 0 00-.364.809m2.583 1.168l.755.26a1.993 1.993 0 01-.727 1.024c-.355.265-.784.398-1.287.398a2.19 2.19 0 01-1.599-.65c-.438-.433-.657-1.017-.657-1.752 0-.685.211-1.252.634-1.7.423-.448.926-.673 1.51-.673.677 0 1.206.213 1.585.64.379.427.569.998.569 1.714 0 .113-.006.206-.019.281h-3.375c.007.398.138.725.396.981.258.255.577.383.956.383.64 0 1.06-.302 1.26-.906M136.137 53.73v1.42h.97v.794h-.97v2.336c0 .212.048.368.145.467.096.1.256.15.48.15.13 0 .245-.012.345-.038v.747c-.15.057-.349.085-.597.085-.385 0-.69-.112-.914-.336-.223-.225-.335-.54-.335-.944v-2.467h-.858v-.794h.242c.23 0 .403-.064.518-.191a.719.719 0 00.172-.5v-.729h.802zM143.754 58.542c.242-.293.363-.682.363-1.168 0-.486-.12-.87-.358-1.154-.24-.284-.561-.425-.965-.425-.392 0-.712.143-.961.43-.249.286-.373.67-.373 1.149 0 .48.124.867.373 1.163.249.296.57.444.96.444.398 0 .719-.147.961-.44zm-2.285 1.102h-.866V52.88h.866v2.905c.119-.218.306-.4.565-.546.257-.146.564-.22.918-.22.652 0 1.159.222 1.52.664.36.442.54 1.005.54 1.691 0 .691-.186 1.262-.56 1.714-.372.452-.882.678-1.528.678-.671 0-1.156-.259-1.455-.776v.654zM147.473 59.046c.392 0 .706-.106.942-.318.236-.211.354-.547.354-1.008v-.206l-1.37.206a.859.859 0 00-.476.215.601.601 0 00-.177.458.62.62 0 00.2.457c.134.131.31.196.527.196m-1.622-.607c0-.386.125-.696.373-.93.248-.233.578-.378.988-.434l1.212-.178c.23-.03.345-.143.345-.336a.755.755 0 00-.242-.58c-.162-.149-.405-.224-.728-.224-.298 0-.534.083-.708.248a1.034 1.034 0 00-.308.66l-.839-.198c.043-.429.24-.78.588-1.05.347-.272.764-.407 1.249-.407.634 0 1.103.155 1.408.463.304.308.456.702.456 1.181v2.252c0 .268.019.514.056.738h-.857a3.726 3.726 0 01-.047-.607 1.67 1.67 0 01-.545.523c-.24.15-.54.225-.9.225-.442 0-.802-.133-1.082-.398a1.26 1.26 0 01-.42-.948M153.496 55.103v.935a2.607 2.607 0 00-.382-.028c-.82 0-1.231.46-1.231 1.382v2.252h-.876V55.15h.857v.785c.274-.573.721-.86 1.343-.86.1 0 .195.01.289.028M155.77 59.046c.392 0 .706-.106.942-.318.236-.211.354-.547.354-1.008v-.206l-1.37.206a.859.859 0 00-.475.215.601.601 0 00-.178.458.62.62 0 00.2.457c.134.131.31.196.528.196m-1.623-.607c0-.386.125-.696.373-.93.249-.233.578-.378.989-.434l1.211-.178c.23-.03.345-.143.345-.336a.755.755 0 00-.242-.58c-.162-.149-.404-.224-.727-.224-.298 0-.534.083-.709.248a1.034 1.034 0 00-.307.66l-.84-.198c.044-.429.24-.78.588-1.05.348-.272.764-.407 1.25-.407.633 0 1.102.155 1.407.463.305.308.457.702.457 1.181v2.252c0 .268.018.514.056.738h-.858a3.726 3.726 0 01-.047-.607 1.67 1.67 0 01-.545.523c-.24.15-.54.225-.9.225-.441 0-.801-.133-1.081-.398a1.26 1.26 0 01-.42-.948M11.995 73.06c.392 0 .705-.105.942-.317.236-.211.354-.548.354-1.009v-.206l-1.37.206a.859.859 0 00-.476.215.6.6 0 00-.177.458c0 .174.066.327.2.457a.715.715 0 00.527.197m-1.622-.608c0-.386.124-.695.373-.93.248-.232.578-.377.988-.434l1.212-.177c.23-.03.345-.143.345-.337a.755.755 0 00-.243-.579c-.162-.15-.404-.224-.727-.224-.298 0-.534.083-.708.247a1.038 1.038 0 00-.309.66l-.838-.197c.043-.43.239-.78.587-1.051.348-.271.765-.406 1.25-.406.634 0 1.103.154 1.407.462.305.308.457.702.457 1.182v2.252c0 .267.02.514.056.738h-.857a3.598 3.598 0 01-.047-.608c-.124.2-.306.374-.546.524-.24.15-.539.224-.9.224-.44 0-.801-.132-1.08-.397-.28-.265-.42-.58-.42-.949M16.703 67.745v1.42h.97v.794h-.97v2.336c0 .211.048.368.145.467.096.1.256.15.48.15.13 0 .245-.013.345-.038v.747c-.15.057-.349.085-.597.085-.385 0-.69-.113-.914-.337-.223-.224-.335-.539-.335-.943v-2.467h-.858v-.794h.242c.23 0 .402-.064.518-.192a.719.719 0 00.172-.5v-.728h.802zM20.012 67.745v1.42h.97v.794h-.97v2.336c0 .211.049.368.145.467.096.1.256.15.48.15.13 0 .245-.013.345-.038v.747c-.15.057-.348.085-.597.085-.385 0-.69-.113-.913-.337-.224-.224-.336-.539-.336-.943v-2.467h-.858v-.794h.243c.23 0 .402-.064.517-.192a.719.719 0 00.173-.5v-.728h.801zM24.058 72.49l.793-.28a.938.938 0 00.317.603c.18.16.423.239.727.239.236 0 .423-.058.56-.173a.535.535 0 00.205-.425c0-.3-.193-.492-.578-.58l-.765-.168c-.349-.075-.621-.224-.82-.448a1.183 1.183 0 01-.299-.813c0-.386.157-.72.471-1 .314-.28.688-.42 1.124-.42.285 0 .54.042.764.126.224.084.398.194.522.331a1.62 1.62 0 01.419.747l-.773.29a.937.937 0 00-.065-.219 1.275 1.275 0 00-.145-.238.677.677 0 00-.284-.21 1.12 1.12 0 00-.438-.08.8.8 0 00-.536.178.535.535 0 00-.21.42c0 .286.17.467.512.542l.727.159c.398.087.704.247.919.48.215.235.321.52.321.856 0 .355-.144.676-.433.962-.289.287-.692.43-1.207.43-.553 0-.986-.138-1.296-.416-.31-.277-.488-.574-.532-.892M32.71 69.165L30.8 71.06l1.947 2.598h-1.1l-1.463-1.98-.625.625v1.355h-.867v-6.765h.867v4.26l1.94-1.99zM36.075 69.118v.935a2.607 2.607 0 00-.381-.028c-.82 0-1.231.46-1.231 1.382v2.252h-.876v-4.494h.857v.785c.274-.573.721-.86 1.342-.86.1 0 .196.01.29.028M37.008 73.659h.867v-4.494h-.867v4.494zm-.014-5.75a.605.605 0 01-.182-.445.62.62 0 01.182-.448.595.595 0 01.443-.187c.174 0 .323.06.447.182a.609.609 0 01.186.453.599.599 0 01-.186.444.617.617 0 01-.447.183.602.602 0 01-.443-.183zM43.207 69.165l-1.79 4.494h-.885l-1.818-4.494h.988l1.277 3.466 1.287-3.466zM45.342 73.06c.392 0 .706-.105.942-.317.236-.211.354-.548.354-1.009v-.206l-1.37.206a.859.859 0 00-.476.215.601.601 0 00-.177.458.62.62 0 00.2.457c.134.132.31.197.527.197m-1.622-.608c0-.386.125-.695.373-.93.248-.232.578-.377.988-.434l1.212-.177c.23-.03.345-.143.345-.337a.755.755 0 00-.242-.579c-.162-.15-.404-.224-.727-.224-.299 0-.535.083-.709.247a1.034 1.034 0 00-.307.66l-.84-.197c.044-.43.24-.78.588-1.051.348-.271.764-.406 1.25-.406.633 0 1.102.154 1.407.462.305.308.457.702.457 1.182v2.252c0 .267.018.514.056.738h-.858a3.726 3.726 0 01-.047-.608 1.67 1.67 0 01-.545.524c-.24.15-.54.224-.9.224-.441 0-.802-.132-1.081-.397a1.26 1.26 0 01-.42-.949M52.381 67.745v1.42h.97v.794h-.97v2.336c0 .211.049.368.145.467.096.1.256.15.48.15.13 0 .245-.013.345-.038v.747c-.15.057-.349.085-.597.085-.385 0-.69-.113-.913-.337-.224-.224-.336-.539-.336-.943v-2.467h-.858v-.794h.243c.23 0 .402-.064.517-.192a.719.719 0 00.172-.5v-.728h.802zM54.517 73.659h.866v-4.494h-.866v4.494zm-.015-5.75a.606.606 0 01-.182-.445.62.62 0 01.182-.448.595.595 0 01.443-.187c.174 0 .323.06.447.182a.609.609 0 01.187.453.599.599 0 01-.187.444.618.618 0 01-.447.183.602.602 0 01-.443-.183zM56.875 73.659h.876v-6.764h-.876zM59.243 73.659h.877v-6.764h-.877zM64.808 73.659h-.866v-4.494h.838v.598c.137-.237.33-.418.578-.542a1.73 1.73 0 01.783-.187c.293 0 .56.072.802.215a1.3 1.3 0 01.541.635c.31-.567.81-.85 1.5-.85.43 0 .795.147 1.097.44.3.292.451.716.451 1.27v2.915h-.867v-2.822c0-.311-.079-.56-.237-.747-.159-.187-.397-.28-.714-.28a.955.955 0 00-.745.322c-.193.215-.289.484-.289.808v2.719h-.876v-2.822c0-.311-.08-.56-.238-.747-.16-.187-.397-.28-.714-.28a.975.975 0 00-.755.317c-.192.212-.289.486-.289.822v2.71zM71.931 73.659h.866v-4.494h-.866v4.494zm-.014-5.75a.606.606 0 01-.182-.445.62.62 0 01.182-.448.595.595 0 01.442-.187.62.62 0 01.448.182.608.608 0 01.186.453.598.598 0 01-.186.444.62.62 0 01-.448.183.601.601 0 01-.442-.183zM76.163 72.706c.38 0 .687-.133.923-.397.236-.265.355-.613.355-1.042 0-.43-.119-.777-.355-1.042-.236-.264-.544-.397-.923-.397-.385 0-.697.131-.936.393-.24.26-.36.61-.36 1.046 0 .442.117.793.35 1.051.233.258.548.388.946.388m-2.2 1.196l.849-.196c.03.317.158.58.382.789.224.209.503.313.839.313.914 0 1.37-.486 1.37-1.457v-.645a1.292 1.292 0 01-.526.532c-.24.137-.521.206-.844.206-.597 0-1.09-.204-1.478-.612-.388-.408-.582-.93-.582-1.565 0-.617.192-1.135.577-1.556.386-.42.88-.63 1.483-.63.683 0 1.143.236 1.38.71v-.626h.867v4.158c0 .298-.04.577-.117.836a2.2 2.2 0 01-.368.715 1.673 1.673 0 01-.704.513 2.763 2.763 0 01-1.058.187c-.554 0-1.023-.157-1.408-.472a1.756 1.756 0 01-.662-1.2M82.885 71.061v2.598h-.876v-4.494h.858v.644c.297-.516.758-.775 1.38-.775.515 0 .911.165 1.188.495.277.33.415.757.415 1.28v2.85h-.876v-2.7c0-.754-.349-1.13-1.045-1.13-.329 0-.586.116-.769.35-.183.234-.275.528-.275.882M89.27 67.857a.53.53 0 01.155-.383.515.515 0 01.387-.16.52.52 0 01.382.16.52.52 0 01.158.383.515.515 0 01-.158.387.527.527 0 01-.382.155.525.525 0 01-.54-.542m-.682 5.204c.392 0 .706-.106.942-.318.236-.211.354-.548.354-1.009v-.206l-1.37.206a.859.859 0 00-.476.215.601.601 0 00-.177.458c0 .174.067.327.2.457.134.132.31.197.527.197m-1.063-5.204a.53.53 0 01.154-.383.504.504 0 01.378-.16.53.53 0 01.391.16.522.522 0 01.159.383.538.538 0 01-.55.542.525.525 0 01-.531-.542m-.56 4.596c0-.386.125-.695.373-.93.248-.232.578-.377.988-.434l1.212-.177c.23-.03.345-.143.345-.337a.755.755 0 00-.242-.579c-.162-.15-.405-.224-.727-.224-.299 0-.535.083-.709.247a1.034 1.034 0 00-.308.66l-.839-.197c.043-.43.24-.78.588-1.051.348-.271.764-.406 1.249-.406.634 0 1.103.154 1.408.462.304.308.456.702.456 1.182v2.252c0 .267.02.514.056.738h-.857a3.73 3.73 0 01-.047-.607c-.124.199-.306.373-.545.523-.24.15-.54.224-.9.224-.442 0-.802-.132-1.081-.397a1.26 1.26 0 01-.42-.949M94.613 69.118v.935a2.607 2.607 0 00-.382-.028c-.82 0-1.231.46-1.231 1.382v2.252h-.876v-4.494h.857v.785c.274-.573.722-.86 1.343-.86.1 0 .196.01.289.028M95.125 72.49l.793-.28a.938.938 0 00.317.603c.18.16.423.239.727.239.237 0 .423-.058.56-.173a.535.535 0 00.205-.425c0-.3-.193-.492-.578-.58l-.765-.168c-.348-.075-.621-.224-.82-.448a1.183 1.183 0 01-.299-.813c0-.386.158-.72.472-1 .313-.28.687-.42 1.123-.42.286 0 .54.042.764.126.224.084.398.194.523.331.123.138.217.266.279.384.062.118.109.24.14.364l-.774.29a.937.937 0 00-.065-.22 1.275 1.275 0 00-.144-.238.677.677 0 00-.285-.21 1.12 1.12 0 00-.438-.08.8.8 0 00-.536.178.535.535 0 00-.21.42c0 .286.17.467.512.542l.728.159c.398.087.703.247.918.48.215.235.322.52.322.856 0 .355-.145.676-.434.962-.288.287-.692.43-1.207.43-.553 0-.986-.138-1.296-.416-.31-.277-.488-.574-.532-.892M100.64 72.589c.27.283.602.426.993.426.392 0 .723-.143.993-.426.27-.283.406-.677.406-1.182 0-.498-.135-.89-.406-1.172a1.318 1.318 0 00-.993-.426c-.391 0-.722.142-.993.426-.27.283-.405.674-.405 1.172 0 .505.135.899.405 1.182m-.652-2.887c.432-.451.98-.677 1.645-.677s1.213.226 1.646.677c.432.451.648 1.02.648 1.705 0 .692-.215 1.263-.644 1.715-.428.452-.979.677-1.65.677-.67 0-1.221-.225-1.65-.677-.429-.452-.643-1.023-.643-1.715 0-.685.216-1.254.648-1.705M105.912 73.659h-.867v-4.494h.839v.598c.137-.237.33-.418.578-.542a1.73 1.73 0 01.783-.187c.293 0 .56.072.802.215a1.3 1.3 0 01.541.635c.31-.567.81-.85 1.5-.85.43 0 .795.147 1.097.44.3.292.451.716.451 1.27v2.915h-.867v-2.822c0-.311-.08-.56-.237-.747-.16-.187-.397-.28-.714-.28a.955.955 0 00-.745.322c-.193.215-.29.484-.29.808v2.719h-.875v-2.822c0-.311-.08-.56-.238-.747-.16-.187-.397-.28-.714-.28a.975.975 0 00-.755.317c-.192.212-.29.486-.29.822v2.71zM113.911 71.015v2.644h-.876v-6.765h.876v2.794c.298-.436.752-.654 1.361-.654.516 0 .912.165 1.189.495.277.33.415.757.415 1.28v2.85h-.877v-2.7c0-.754-.348-1.13-1.044-1.13-.323 0-.575.11-.755.33-.18.222-.277.507-.289.856M118.843 70.95h2.452c-.012-.337-.124-.613-.336-.827-.21-.215-.51-.323-.895-.323-.348 0-.634.114-.858.34a1.226 1.226 0 00-.363.81m2.583 1.167l.755.261a1.993 1.993 0 01-.728 1.024c-.354.265-.783.397-1.286.397a2.19 2.19 0 01-1.6-.65c-.437-.432-.656-1.016-.656-1.751 0-.685.211-1.252.634-1.701.423-.448.925-.672 1.51-.672.677 0 1.205.213 1.585.64.378.426.568.998.568 1.714 0 .112-.005.206-.018.28h-3.375c.006.399.138.726.396.982.258.255.576.383.956.383.64 0 1.06-.303 1.259-.907M123.327 73.659h.877v-6.764h-.877zM125.276 72.49l.792-.28a.938.938 0 00.317.603c.18.16.423.239.727.239.237 0 .423-.058.56-.173a.535.535 0 00.205-.425c0-.3-.193-.492-.578-.58l-.765-.168c-.348-.075-.62-.224-.82-.448a1.183 1.183 0 01-.299-.813c0-.386.158-.72.472-1 .313-.28.687-.42 1.123-.42.286 0 .54.042.764.126.224.084.398.194.523.331.123.138.217.266.279.384.062.118.109.24.14.364l-.774.29a.937.937 0 00-.065-.22 1.275 1.275 0 00-.144-.238.677.677 0 00-.285-.21 1.12 1.12 0 00-.438-.08.8.8 0 00-.536.178.535.535 0 00-.21.42c0 .286.17.467.513.542l.727.159c.398.087.704.247.918.48.215.235.322.52.322.856 0 .355-.145.676-.434.962-.288.287-.691.43-1.207.43-.553 0-.985-.138-1.296-.416-.31-.277-.488-.574-.531-.892M131.084 67.745v1.42h.97v.794h-.97v2.336c0 .211.048.368.144.467.096.1.257.15.48.15.13 0 .246-.013.345-.038v.747c-.149.057-.348.085-.596.085-.386 0-.69-.113-.914-.337-.224-.224-.336-.539-.336-.943v-2.467h-.857v-.794h.242c.23 0 .403-.064.517-.192a.719.719 0 00.173-.5v-.728h.802zM133.312 73.519a.622.622 0 01-.187-.458c0-.18.062-.335.187-.463a.613.613 0 01.456-.19c.18 0 .334.063.462.19a.63.63 0 01.19.463c0 .18-.063.333-.19.458a.634.634 0 01-.462.186.618.618 0 01-.456-.186M142.83 67.885h-2.21v5.774h-.913v-5.774h-2.21v-.85h5.333zM144.22 73.06c.391 0 .705-.105.941-.317.236-.211.354-.548.354-1.009v-.206l-1.37.206a.859.859 0 00-.476.215.601.601 0 00-.177.458.62.62 0 00.2.457c.134.132.31.197.527.197m-1.622-.608c0-.386.125-.695.373-.93.248-.232.578-.377.988-.434l1.212-.177c.23-.03.345-.143.345-.337a.755.755 0 00-.242-.579c-.162-.15-.404-.224-.727-.224-.299 0-.535.083-.709.247a1.034 1.034 0 00-.307.66l-.84-.197c.044-.43.24-.78.588-1.051.348-.271.764-.406 1.25-.406.633 0 1.102.154 1.407.462.305.308.457.702.457 1.182v2.252c0 .267.018.514.056.738h-.858a3.726 3.726 0 01-.047-.608 1.67 1.67 0 01-.545.524c-.24.15-.54.224-.9.224-.441 0-.802-.132-1.081-.397a1.26 1.26 0 01-.42-.949M11.529 85.03v2.643h-.876V80.91h.876v2.794c.298-.437.752-.655 1.361-.655.516 0 .911.166 1.189.496.276.33.415.756.415 1.28v2.85h-.877v-2.7c0-.754-.348-1.13-1.044-1.13-.323 0-.575.11-.755.33-.18.222-.277.507-.29.855M17.235 87.075c.391 0 .705-.105.941-.317.236-.212.354-.548.354-1.009v-.206l-1.37.206a.859.859 0 00-.476.215.6.6 0 00-.177.458c0 .174.067.326.201.457a.715.715 0 00.527.196m-1.623-.607c0-.386.124-.696.373-.93.248-.233.579-.378.988-.434l1.212-.178c.23-.03.345-.143.345-.336a.755.755 0 00-.242-.58c-.162-.149-.404-.224-.727-.224-.299 0-.534.083-.708.248a1.038 1.038 0 00-.309.66l-.838-.197c.043-.43.238-.78.587-1.052.348-.27.764-.405 1.25-.405.633 0 1.102.154 1.407.462.305.308.457.702.457 1.181v2.253c0 .267.018.514.056.737h-.858a3.726 3.726 0 01-.047-.607 1.67 1.67 0 01-.545.524c-.24.15-.539.224-.9.224-.441 0-.801-.133-1.08-.398-.28-.264-.42-.58-.42-.948M21.644 85.076v2.597h-.876V83.18h.858v.645c.298-.517.758-.776 1.38-.776.515 0 .911.166 1.188.496.277.33.415.756.415 1.28v2.85h-.876v-2.7c0-.754-.349-1.13-1.044-1.13-.33 0-.587.115-.77.349-.183.234-.275.528-.275.883M26.529 85.412c0 .474.116.86.35 1.159.233.299.554.448.964.448.392 0 .706-.152.942-.457.236-.306.354-.695.354-1.168 0-.467-.114-.845-.344-1.13-.23-.287-.544-.43-.942-.43-.398 0-.718.146-.96.439-.243.293-.364.672-.364 1.14m2.62 1.653v-.075c-.118.231-.298.423-.536.575-.24.152-.524.229-.853.229-.64 0-1.155-.226-1.543-.678-.388-.451-.583-1.02-.583-1.705 0-.654.2-1.21.597-1.667.398-.458.907-.687 1.529-.687.366 0 .665.074.895.22.23.146.388.325.475.537v-2.906h.867v5.933c0 .305.016.582.047.831h-.849a3.46 3.46 0 01-.046-.607M34.747 86.604c.27.283.602.425.993.425.392 0 .723-.142.993-.425.27-.284.406-.678.406-1.182 0-.498-.136-.89-.406-1.173a1.318 1.318 0 00-.993-.425c-.391 0-.722.141-.993.425-.27.283-.405.675-.405 1.173 0 .504.135.898.405 1.182m-.652-2.887c.431-.452.98-.678 1.645-.678s1.213.226 1.646.678c.432.451.648 1.02.648 1.705 0 .691-.215 1.263-.644 1.714-.429.452-.98.678-1.65.678-.671 0-1.221-.226-1.65-.678-.429-.451-.643-1.023-.643-1.714 0-.685.216-1.254.648-1.705M40.019 87.673h-.867V83.18h.839v.598c.137-.236.33-.417.578-.542a1.73 1.73 0 01.783-.186c.292 0 .56.071.802.214a1.3 1.3 0 01.54.636c.312-.567.811-.85 1.501-.85.43 0 .795.146 1.096.439.301.293.452.716.452 1.27v2.915h-.867v-2.821c0-.311-.08-.56-.237-.748-.16-.187-.397-.28-.714-.28a.955.955 0 00-.745.322c-.193.215-.29.484-.29.809v2.718h-.876v-2.821c0-.311-.08-.56-.237-.748-.16-.187-.397-.28-.714-.28a.975.975 0 00-.755.318c-.193.211-.29.486-.29.822v2.71zM49.995 85.412c0 .474.116.86.35 1.159.232.299.554.448.964.448.392 0 .706-.152.942-.457.236-.306.354-.695.354-1.168 0-.467-.115-.845-.344-1.13-.231-.287-.544-.43-.942-.43-.398 0-.718.146-.96.439-.243.293-.364.672-.364 1.14m2.62 1.653v-.075c-.118.231-.298.423-.537.575-.24.152-.523.229-.853.229-.64 0-1.154-.226-1.543-.678-.388-.451-.582-1.02-.582-1.705 0-.654.199-1.21.596-1.667.398-.458.908-.687 1.53-.687.366 0 .665.074.894.22.23.146.388.325.476.537v-2.906h.867v5.933c0 .305.016.582.046.831h-.848a3.46 3.46 0 01-.047-.607M54.955 87.674h.866V83.18h-.866v4.494zm-.015-5.751a.606.606 0 01-.182-.444.62.62 0 01.182-.448.595.595 0 01.443-.188c.174 0 .323.062.447.183a.609.609 0 01.187.453.599.599 0 01-.187.444.618.618 0 01-.447.182.602.602 0 01-.443-.182zM59.187 86.72c.378 0 .687-.132.923-.397s.354-.612.354-1.041c0-.43-.118-.778-.354-1.042-.236-.265-.545-.397-.923-.397-.385 0-.698.13-.937.392-.24.261-.36.61-.36 1.047 0 .442.117.793.35 1.05.233.259.549.389.947.389m-2.2 1.195l.848-.196c.03.318.158.58.382.79.224.208.504.313.84.313.913 0 1.37-.486 1.37-1.458v-.644a1.292 1.292 0 01-.527.532c-.24.137-.521.206-.844.206-.596 0-1.09-.204-1.477-.612-.39-.408-.583-.93-.583-1.565 0-.618.192-1.135.577-1.556.387-.42.88-.63 1.483-.63.684 0 1.143.236 1.38.71v-.626h.867v4.157c0 .299-.04.578-.117.836a2.2 2.2 0 01-.368.715 1.673 1.673 0 01-.704.514 2.763 2.763 0 01-1.058.187c-.553 0-1.022-.157-1.408-.472a1.756 1.756 0 01-.661-1.2M65.909 85.076v2.597h-.877V83.18h.858v.645c.298-.517.759-.776 1.38-.776.515 0 .912.166 1.188.496.277.33.415.756.415 1.28v2.85h-.876v-2.7c0-.754-.349-1.13-1.044-1.13-.33 0-.586.115-.77.349-.183.234-.274.528-.274.883M73.133 87.132a1.145 1.145 0 01-.54.509 1.803 1.803 0 01-.783.173c-.51 0-.917-.17-1.221-.51-.305-.339-.457-.77-.457-1.293v-2.832h.876v2.7c0 .337.083.614.247.832.165.218.421.327.77.327.347 0 .61-.104.791-.313.181-.209.271-.487.271-.836v-2.71h.877v3.663c0 .293.015.57.046.832h-.84a3.138 3.138 0 01-.037-.542M82.093 82.554l-.82.289c-.044-.286-.184-.546-.42-.78-.236-.233-.563-.35-.98-.35-.366 0-.67.105-.913.317a1 1 0 00-.363.785c0 .243.072.449.219.617.146.168.355.283.629.346l.988.214c.547.118.97.341 1.268.668.298.328.448.725.448 1.191 0 .536-.212.997-.634 1.384-.423.385-.973.579-1.65.579-.74 0-1.32-.195-1.74-.584-.419-.39-.662-.852-.73-1.388l.875-.28c.038.398.193.735.466 1.01.274.273.647.41 1.12.41.434 0 .77-.1 1.006-.3a.948.948 0 00.354-.756.928.928 0 00-.251-.649c-.168-.184-.414-.31-.737-.378l-.94-.206c-.492-.106-.884-.315-1.176-.626-.292-.311-.438-.707-.438-1.186 0-.524.212-.983.638-1.379.426-.395.94-.593 1.543-.593.677 0 1.196.166 1.557.495.36.33.587.713.68 1.15M84.61 87.075c.392 0 .706-.105.942-.317.236-.212.354-.548.354-1.009v-.206l-1.37.206a.859.859 0 00-.476.215.601.601 0 00-.177.458.62.62 0 00.2.457c.134.131.31.196.527.196m-1.622-.607c0-.386.125-.696.373-.93.248-.233.578-.378.988-.434l1.212-.178c.23-.03.345-.143.345-.336a.755.755 0 00-.243-.58c-.161-.149-.404-.224-.727-.224-.298 0-.534.083-.708.248a1.034 1.034 0 00-.308.66l-.839-.197c.043-.43.239-.78.587-1.052.348-.27.765-.405 1.25-.405.634 0 1.103.154 1.407.462.305.308.457.702.457 1.181v2.253c0 .267.019.514.056.737h-.858a3.726 3.726 0 01-.046-.607 1.67 1.67 0 01-.546.524c-.239.15-.54.224-.9.224-.44 0-.801-.133-1.08-.398a1.26 1.26 0 01-.42-.948M90.632 83.132v.935a2.607 2.607 0 00-.381-.028c-.82 0-1.231.461-1.231 1.383v2.251h-.876V83.18H89v.786c.274-.574.721-.86 1.342-.86.1 0 .196.01.29.027M92.907 87.075c.391 0 .705-.105.941-.317.236-.212.355-.548.355-1.009v-.206l-1.37.206a.859.859 0 00-.476.215.601.601 0 00-.177.458.62.62 0 00.2.457c.134.131.31.196.527.196m-1.622-.607c0-.386.124-.696.373-.93.248-.233.578-.378.988-.434l1.212-.178c.23-.03.345-.143.345-.336a.755.755 0 00-.243-.58c-.162-.149-.404-.224-.727-.224-.298 0-.534.083-.708.248a1.034 1.034 0 00-.308.66l-.84-.197c.044-.43.24-.78.588-1.052.348-.27.765-.405 1.25-.405.633 0 1.103.154 1.407.462.305.308.457.702.457 1.181v2.253c0 .267.019.514.056.737h-.858a3.726 3.726 0 01-.046-.607 1.67 1.67 0 01-.546.524c-.24.15-.54.224-.9.224-.441 0-.801-.133-1.08-.398a1.26 1.26 0 01-.42-.948M97.317 85.03v2.643h-.877V80.91h.877v2.794c.298-.437.751-.655 1.36-.655.517 0 .913.166 1.19.496.276.33.414.756.414 1.28v2.85h-.876v-2.7c0-.754-.348-1.13-1.044-1.13-.323 0-.575.11-.755.33-.18.222-.277.507-.29.855M101.587 87.075a.59.59 0 01.195-.439.675.675 0 01.485-.186c.211 0 .39.077.536.233.147.156.22.374.22.654 0 .56-.143.993-.43 1.3-.286.304-.602.479-.95.522v-.486a.91.91 0 00.55-.37c.142-.195.217-.409.223-.639-.043.031-.112.047-.205.047a.614.614 0 01-.447-.173.618.618 0 01-.177-.463M106.332 86.506l.792-.28a.938.938 0 00.317.602c.18.159.423.238.727.238.237 0 .423-.058.56-.173a.535.535 0 00.205-.425c0-.299-.192-.492-.578-.58l-.765-.167c-.348-.075-.62-.225-.82-.449a1.183 1.183 0 01-.298-.813c0-.386.157-.719.471-1 .314-.28.688-.42 1.123-.42.286 0 .54.042.764.126.225.084.398.195.523.332a1.62 1.62 0 01.419.747l-.774.29a.937.937 0 00-.065-.22 1.275 1.275 0 00-.144-.238.677.677 0 00-.284-.21 1.12 1.12 0 00-.439-.08.8.8 0 00-.536.178.535.535 0 00-.21.42c0 .287.17.468.513.543l.727.158c.398.088.704.248.918.482.215.233.322.518.322.854 0 .355-.145.677-.434.963-.288.286-.691.43-1.206.43-.554 0-.986-.139-1.297-.416-.31-.277-.487-.575-.531-.892M112.877 82.002a.434.434 0 00.13-.317.45.45 0 00-.13-.323.433.433 0 00-.327-.135.409.409 0 00-.312.135.46.46 0 00-.126.323c0 .124.043.23.126.317.084.087.188.131.312.131.13 0 .24-.044.327-.13m.727-.318c0 .28-.103.52-.307.718-.206.2-.452.3-.737.3-.28 0-.522-.1-.727-.3a.964.964 0 01-.308-.718c0-.287.102-.53.308-.73.205-.199.448-.298.727-.298.285 0 .531.1.737.299a.98.98 0 01.307.729m-1.39 5.39c.392 0 .706-.105.942-.317.237-.212.355-.548.355-1.01v-.205l-1.37.206a.869.869 0 00-.476.215.602.602 0 00-.177.457.62.62 0 00.2.458.72.72 0 00.527.197m-1.622-.608c0-.386.124-.696.373-.93.248-.233.577-.378.988-.434l1.212-.177c.23-.031.345-.143.345-.337a.755.755 0 00-.243-.58c-.161-.149-.404-.223-.727-.223-.298 0-.534.082-.708.247a1.033 1.033 0 00-.308.659l-.84-.197c.044-.429.24-.78.588-1.05.349-.271.765-.407 1.25-.407.633 0 1.102.154 1.408.463.304.308.456.702.456 1.182v2.251c0 .268.019.514.056.738h-.858a3.728 3.728 0 01-.046-.607c-.125.2-.307.374-.546.523-.24.15-.54.225-.9.225-.441 0-.801-.132-1.08-.398a1.26 1.26 0 01-.42-.948M118.955 85.03v2.643h-.876V80.91h.876v2.794c.298-.437.752-.655 1.361-.655.516 0 .912.166 1.189.496.276.33.415.756.415 1.28v2.85h-.877v-2.7c0-.754-.348-1.13-1.044-1.13-.323 0-.575.11-.755.33-.18.222-.277.507-.29.855M125.565 81.872c0-.15.051-.278.154-.383a.513.513 0 01.387-.16c.15 0 .276.053.382.16a.52.52 0 01.158.383.515.515 0 01-.158.387.526.526 0 01-.382.155.52.52 0 01-.387-.155.523.523 0 01-.154-.387m-1.32 4.732c.27.283.602.425.993.425.392 0 .723-.142.994-.425.27-.284.405-.678.405-1.183 0-.497-.135-.888-.405-1.172a1.32 1.32 0 00-.994-.425 1.32 1.32 0 00-.992.425c-.27.284-.406.675-.406 1.172 0 .505.135.9.406 1.183m-.425-4.732c0-.15.052-.278.154-.383a.504.504 0 01.378-.16.53.53 0 01.391.16.522.522 0 01.159.383.537.537 0 01-.55.542.527.527 0 01-.531-.542m-.23 1.844c.433-.45.982-.676 1.646-.676.665 0 1.214.226 1.646.676.432.452.648 1.02.648 1.705 0 .692-.215 1.263-.643 1.715-.43.452-.98.678-1.65.678-.672 0-1.221-.226-1.65-.678-.43-.452-.644-1.023-.644-1.715 0-.685.216-1.253.648-1.705M131.14 83.132v.935a2.607 2.607 0 00-.382-.028c-.82 0-1.23.461-1.23 1.383v2.251h-.877V83.18h.857v.786c.274-.574.722-.86 1.343-.86.1 0 .196.01.289.027M131.652 86.506l.792-.28a.938.938 0 00.317.602c.181.159.423.238.728.238.236 0 .423-.058.559-.173a.535.535 0 00.206-.425c0-.299-.193-.492-.578-.58l-.765-.167c-.349-.075-.622-.225-.82-.449a1.183 1.183 0 01-.3-.813c0-.386.158-.719.472-1 .314-.28.688-.42 1.124-.42.285 0 .54.042.764.126.224.084.398.195.522.332s.218.265.28.383c.062.119.108.24.14.364l-.775.29a.937.937 0 00-.064-.22 1.275 1.275 0 00-.145-.238.677.677 0 00-.284-.21 1.12 1.12 0 00-.438-.08.8.8 0 00-.536.178.535.535 0 00-.21.42c0 .287.17.468.512.543l.727.158c.398.088.704.248.918.482.216.233.322.518.322.854 0 .355-.144.677-.433.963-.289.286-.692.43-1.207.43-.554 0-.986-.139-1.297-.416-.31-.277-.487-.575-.531-.892M142.458 83.18l-1.79 4.493h-.886l-1.818-4.494h.988l1.278 3.467 1.286-3.467zM143.297 87.674h.866V83.18h-.866v4.494zm-.015-5.751a.605.605 0 01-.181-.444.62.62 0 01.181-.448.595.595 0 01.443-.188.62.62 0 01.448.183.61.61 0 01.186.453.6.6 0 01-.186.444.62.62 0 01-.448.182.602.602 0 01-.443-.182z"/></g></g><path d="M84 12h178c13.255 0 24 10.745 24 24v56H60V36c0-13.255 10.745-24 24-24z" fill="#9B9BAA"/><path d="M80 52h186c11.046 0 20 8.954 20 20v20H60V72c0-11.046 8.954-20 20-20z" fill="#F9FAFC"/><path d="M84.707 73l6.718 6.718-.707.707L84 73.707l-6.718 6.718-.707-.707L83.293 73l-6.718-6.718.707-.707L84 72.293l6.718-6.718.707.707L84.707 73z" fill="#414150"/><path fill="#1BE9B6" d="M191.795 78.588h2.309V67.854h-2.31z"/><path fill="#651EFF" d="M173.803 78.589h2.31V63.105h-2.31z"/><path d="M170.477 69.854a3.329 3.329 0 00-3.327 3.324 3.329 3.329 0 003.327 3.323 3.329 3.329 0 003.326-3.323 3.329 3.329 0 00-3.326-3.324zm0 8.954a5.64 5.64 0 01-5.636-5.63 5.64 5.64 0 015.636-5.63 5.64 5.64 0 015.636 5.63c0 3.104-2.53 5.63-5.636 5.63zM147.962 78.587h2.31v-5.41h-2.31z" fill="#0F007A"/><path d="M150.272 73.177h-2.31a3.329 3.329 0 00-3.326-3.323 3.329 3.329 0 00-3.327 3.323H139a5.639 5.639 0 015.636-5.63 5.64 5.64 0 015.636 5.63" fill="#FF8A80"/><path d="M194.548 64.597a1.598 1.598 0 11-3.196-.002 1.598 1.598 0 013.196.002M139 78.589h2.309V63.105H139zM207.563 73.177h-2.31a3.329 3.329 0 00-3.326-3.323 3.328 3.328 0 00-3.326 3.323h-2.31a5.639 5.639 0 015.636-5.63 5.64 5.64 0 015.636 5.63" fill="#0F007A"/><path d="M205.253 67.854v5.323a3.33 3.33 0 01-3.326 3.324 3.329 3.329 0 01-3.326-3.324h-2.31a5.639 5.639 0 005.636 5.63 5.64 5.64 0 005.636-5.63v-5.323h-2.31z" fill="#651EFF"/><path fill="#FF8A80" d="M183.747 75.754l-3.52-7.9h-2.528l4.784 10.734h.002z"/><path fill="#0F007A" d="M187.267 67.854l-4.782 10.734h2.526l4.785-10.734zM205.253 78.664a3.33 3.33 0 01-3.326 3.32c-.605 0-1.17-.165-1.66-.448l-1.157 1.997c.83.48 1.791.758 2.817.758a5.64 5.64 0 005.636-5.63l-2.31.003zM159.147 76.095a3.312 3.312 0 01-.58.248l-.056.017a3.245 3.245 0 01-.26.067l-.034.007c-.094.02-.19.034-.288.044l-.072.008a3.33 3.33 0 01-3.417-2.155h-2.4a5.588 5.588 0 001.17 2.426 5.751 5.751 0 001.198 1.088 5.59 5.59 0 003.487.952l.091-.007a5.114 5.114 0 00.346-.037c.101-.014.203-.03.303-.05l.029-.005c.113-.022.225-.049.335-.078l.066-.019c.084-.023.167-.048.249-.075l.109-.036c.068-.025.136-.05.204-.078.038-.015.077-.029.115-.045a5.735 5.735 0 00.535-.26l.096-.056-1.154-1.994-.072.038M163.072 72.024a5.643 5.643 0 00-5.516-4.477 5.644 5.644 0 00-5.516 4.477h2.4a3.33 3.33 0 013.116-2.17 3.33 3.33 0 013.116 2.17c.134.36.21.747.21 1.153s-.076.794-.21 1.154h2.4a5.606 5.606 0 000-2.307"/><path d="M160.672 72.024h-8.631a5.606 5.606 0 000 2.307h8.63c.134-.36.212-.748.212-1.154 0-.406-.078-.793-.211-1.153" fill="#1BE9B6"/></g></svg>