<?xml version="1.0" encoding="UTF-8"?>
<svg xmlns="http://www.w3.org/2000/svg" xmlns:xlink="http://www.w3.org/1999/xlink" width="343pt" height="300pt" viewBox="0 0 343 300" version="1.1">
<defs>
<clipPath id="clip1">
  <path d="M 0 63 L 343 63 L 343 300 L 0 300 Z M 0 63 "/>
</clipPath>
<clipPath id="clip2">
  <path d="M 171.5 300 C 289.644531 300 343 224 343 181.5 C 343 139 233.550781 63 138.832031 63 C 44.117188 63 0 146.054688 0 211.5 C 0 276.945312 53.355469 300 171.5 300 Z M 171.5 300 "/>
</clipPath>
<clipPath id="clip3">
  <path d="M 69 126 L 195 126 L 195 288 L 69 288 Z M 69 126 "/>
</clipPath>
<clipPath id="clip4">
  <path d="M 122.285156 275.34375 C 121.238281 274.585938 99.996094 265.550781 86.703125 247.269531 C 73.410156 228.988281 68.203125 201.703125 69.351562 188.605469 C 72.859375 148.492188 103.085938 124.066406 137.472656 127.074219 C 171.859375 130.082031 197.382812 159.386719 193.875 199.5 C 192.789062 211.902344 186.246094 234.90625 169.167969 251.75 C 152.09375 268.59375 127.90625 275.132812 126.683594 275.730469 C 125.140625 276.480469 126.9375 279.0625 132.078125 283.476562 C 132.792969 284.507812 132.539062 285.921875 131.507812 286.636719 C 131.074219 286.941406 130.542969 287.082031 130.015625 287.035156 L 117.039062 285.898438 C 115.789062 285.789062 114.867188 284.6875 114.976562 283.441406 C 115.019531 282.910156 115.25 282.414062 115.625 282.039062 C 121.453125 278.585938 123.671875 276.351562 122.285156 275.34375 Z M 122.285156 275.34375 "/>
</clipPath>
<clipPath id="clip5">
  <path d="M 94 57 L 193 57 L 193 183 L 94 183 Z M 94 57 "/>
</clipPath>
<clipPath id="clip6">
  <path d="M 136.058594 173.761719 C 135.238281 173.167969 118.585938 166.082031 108.164062 151.75 C 97.742188 137.417969 93.660156 116.027344 94.558594 105.757812 C 97.308594 74.3125 121.007812 55.160156 147.964844 57.519531 C 174.925781 59.878906 194.9375 82.851562 192.1875 114.300781 C 191.335938 124.023438 186.203125 142.058594 172.816406 155.265625 C 159.429688 168.472656 140.464844 173.597656 139.507812 174.0625 C 138.296875 174.652344 139.707031 176.679688 143.738281 180.136719 C 144.296875 180.945312 144.097656 182.054688 143.292969 182.613281 C 142.949219 182.851562 142.535156 182.960938 142.117188 182.925781 L 131.949219 182.035156 C 130.96875 181.949219 130.242188 181.085938 130.328125 180.109375 C 130.363281 179.695312 130.546875 179.304688 130.839844 179.011719 C 135.40625 176.300781 137.148438 174.550781 136.058594 173.761719 Z M 136.058594 173.761719 "/>
</clipPath>
<clipPath id="clip7">
  <path d="M 46 0 L 169 0 L 169 132 L 46 132 Z M 46 0 "/>
</clipPath>
<clipPath id="clip8">
  <path d="M 129.992188 116.132812 L 138.417969 122.167969 C 139.855469 123.199219 140.1875 125.195312 139.15625 126.632812 C 138.726562 127.234375 138.097656 127.667969 137.382812 127.863281 L 125 131.179688 C 123.292969 131.636719 121.539062 130.625 121.078125 128.917969 C 120.886719 128.203125 120.949219 127.441406 121.257812 126.769531 L 125.3125 117.820312 L 113.515625 111.742188 C 77.757812 93.292969 54.136719 81.109375 48.082031 58.515625 C 42.871094 39.070312 53.992188 19.761719 73.402344 14.558594 C 82.375 12.15625 92.332031 13.253906 100.785156 17.585938 C 105.941406 9.609375 114.011719 3.679688 122.988281 1.273438 C 142.398438 -3.925781 161.679688 7.234375 166.890625 26.683594 C 172.945312 49.273438 158.582031 71.636719 136.835938 105.492188 Z M 129.992188 116.132812 "/>
</clipPath>
<clipPath id="clip9">
  <path d="M 150 75 L 297 75 L 297 265 L 150 265 Z M 150 75 "/>
</clipPath>
<clipPath id="clip10">
  <path d="M 220.902344 251.8125 C 219.601562 251.023438 193.789062 242.578125 176.339844 222.4375 C 158.894531 202.292969 150 170.71875 150 155.191406 C 150 107.625 182.90625 75.769531 223.5 75.769531 C 264.09375 75.769531 297 107.625 297 155.191406 C 297 169.894531 291.691406 197.640625 273.414062 219.222656 C 255.136719 240.800781 227.464844 250.984375 226.097656 251.8125 C 224.367188 252.855469 226.738281 255.710938 233.210938 260.375 C 234.15625 261.511719 234.003906 263.203125 232.867188 264.148438 C 232.386719 264.550781 231.78125 264.769531 231.15625 264.769531 L 215.84375 264.769531 C 214.367188 264.769531 213.171875 263.570312 213.171875 262.089844 C 213.171875 261.460938 213.390625 260.855469 213.789062 260.375 C 220.261719 255.710938 222.632812 252.855469 220.902344 251.8125 Z M 220.902344 251.8125 "/>
</clipPath>
<clipPath id="clip11">
  <path d="M 236.464844 162.800781 L 245.605469 162.800781 L 245.605469 183.765625 L 236.464844 183.765625 Z M 236.464844 162.800781 "/>
</clipPath>
<clipPath id="clip12">
  <path d="M 201 140 L 246 140 L 246 163 L 201 163 Z M 201 140 "/>
</clipPath>
<clipPath id="clip13">
  <path d="M 245.601562 162.800781 L 236.464844 162.800781 C 236.464844 155.703125 230.558594 149.921875 223.300781 149.921875 C 216.042969 149.921875 210.136719 155.703125 210.136719 162.800781 L 201 162.800781 C 201 150.773438 211.003906 140.984375 223.300781 140.984375 C 235.597656 140.984375 245.601562 150.773438 245.601562 162.800781 "/>
</clipPath>
<clipPath id="clip14">
  <path d="M 201 123.769531 L 210.136719 123.769531 L 210.136719 162.800781 L 201 162.800781 Z M 201 123.769531 "/>
</clipPath>
<clipPath id="clip15">
  <path d="M 201 162.800781 L 210.136719 162.800781 L 210.136719 183.765625 L 201 183.765625 Z M 201 162.800781 "/>
</clipPath>
</defs>
<g id="surface1">
<g clip-path="url(#clip1)" clip-rule="nonzero">
<g clip-path="url(#clip2)" clip-rule="evenodd">
<path style=" stroke:none;fill-rule:nonzero;fill:rgb(100%,90.98053%,90.196228%);fill-opacity:1;" d="M -5 58 L 348 58 L 348 305 L -5 305 Z M -5 58 "/>
</g>
</g>
<g clip-path="url(#clip3)" clip-rule="nonzero">
<g clip-path="url(#clip4)" clip-rule="evenodd">
<path style=" stroke:none;fill-rule:nonzero;fill:rgb(5.882263%,0%,47.842407%);fill-opacity:1;" d="M 70.664062 116.210938 L 205.152344 127.976562 L 190.335938 297.332031 L 55.847656 285.5625 Z M 70.664062 116.210938 "/>
</g>
</g>
<g clip-path="url(#clip5)" clip-rule="nonzero">
<g clip-path="url(#clip6)" clip-rule="evenodd">
<path style=" stroke:none;fill-rule:nonzero;fill:rgb(98.039246%,84.706116%,5.490112%);fill-opacity:1;" d="M 94.609375 47.832031 L 202.195312 57.242188 L 190.390625 192.167969 L 82.804688 182.757812 Z M 94.609375 47.832031 "/>
</g>
</g>
<g clip-path="url(#clip7)" clip-rule="nonzero">
<g clip-path="url(#clip8)" clip-rule="evenodd">
<path style=" stroke:none;fill-rule:nonzero;fill:rgb(100%,54.118347%,50.196838%);fill-opacity:1;" d="M 41.800781 -5 L 173.285156 -5 L 173.285156 136.289062 L 41.800781 136.289062 Z M 41.800781 -5 "/>
</g>
</g>
<g clip-path="url(#clip9)" clip-rule="nonzero">
<g clip-path="url(#clip10)" clip-rule="evenodd">
<path style=" stroke:none;fill-rule:nonzero;fill:rgb(100%,100%,100%);fill-opacity:1;" d="M 145 70.769531 L 302 70.769531 L 302 269.769531 L 145 269.769531 Z M 145 70.769531 "/>
</g>
</g>
<g clip-path="url(#clip11)" clip-rule="nonzero">
<path style=" stroke:none;fill-rule:nonzero;fill:rgb(10.588074%,91.372681%,71.372986%);fill-opacity:1;" d="M 231.464844 157.800781 L 250.605469 157.800781 L 250.605469 188.765625 L 231.464844 188.765625 Z M 231.464844 157.800781 "/>
</g>
<g clip-path="url(#clip12)" clip-rule="nonzero">
<g clip-path="url(#clip13)" clip-rule="evenodd">
<path style=" stroke:none;fill-rule:nonzero;fill:rgb(39.607239%,11.764526%,100%);fill-opacity:1;" d="M 196 135.984375 L 250.601562 135.984375 L 250.601562 167.800781 L 196 167.800781 Z M 196 135.984375 "/>
</g>
</g>
<g clip-path="url(#clip14)" clip-rule="nonzero">
<path style=" stroke:none;fill-rule:nonzero;fill:rgb(5.882263%,0%,47.842407%);fill-opacity:1;" d="M 196 118.769531 L 215.140625 118.769531 L 215.140625 167.800781 L 196 167.800781 Z M 196 118.769531 "/>
</g>
<g clip-path="url(#clip15)" clip-rule="nonzero">
<path style=" stroke:none;fill-rule:nonzero;fill:rgb(100%,54.118347%,50.196838%);fill-opacity:1;" d="M 196 157.800781 L 215.140625 157.800781 L 215.140625 188.765625 L 196 188.765625 Z M 196 157.800781 "/>
</g>
</g>
</svg>
