<?xml version="1.0" encoding="UTF-8"?>
<svg width="343px" height="300px" viewBox="0 0 343 300" version="1.1" xmlns="http://www.w3.org/2000/svg" xmlns:xlink="http://www.w3.org/1999/xlink">
    <!-- Generator: Sketch 55.2 (78181) - https://sketchapp.com -->
    <title>Balloons Welcome Illustrations</title>
    <desc>Created with Sketch.</desc>
    <g id="Receiver-📥" stroke="none" stroke-width="1" fill="none" fill-rule="evenodd">
        <g id="Referrals-Reciever-#Welcome-01" transform="translate(-16.000000, -152.000000)">
            <g id="Balloons-Welcome-Illustrations" transform="translate(16.000000, 151.999998)">
                <path d="M171.5,300.000002 C289.644444,300.000002 343,224.000002 343,181.500002 C343,139.000002 233.550168,63.0000017 138.833333,63.0000017 C44.1164987,63.0000017 0,146.054259 0,211.500002 C0,276.945745 53.3555556,300.000002 171.5,300.000002 Z" id="Oval" fill="#FFE8E6"></path>
                <path d="M128.292277,275.799159 C127.185295,275.134209 105.236543,267.984261 90.3992921,250.931438 C75.5620407,233.878614 68,207.150248 68,194.004743 C68,153.738876 95.9822031,126.7707 130.5,126.7707 C165.017797,126.7707 193,153.738876 193,194.004743 C193,206.453343 188.484513,229.941792 172.942428,248.210058 C157.400343,266.478324 133.873061,275.099156 132.707723,275.799159 C131.235908,276.68326 133.252409,279.099639 138.757227,283.048296 C139.560781,284.011194 139.430499,285.442263 138.466234,286.244677 C138.05779,286.584564 137.542943,286.7707 137.011269,286.7707 L123.988731,286.7707 C122.733538,286.7707 121.716004,285.754609 121.716004,284.501197 C121.716004,283.970277 121.902404,283.45616 122.242773,283.048296 C127.747591,279.099639 129.764092,276.68326 128.292277,275.799159 Z" id="Path-Copy" fill="#0F007A" transform="translate(130.500000, 206.770700) rotate(5.000000) translate(-130.500000, -206.770700) "></path>
                <path d="M140.769145,174.118314 C139.901271,173.596993 122.69345,167.991434 111.061045,154.62202 C99.4286399,141.252606 93.5,120.297567 93.5,109.991491 C93.5,78.4230515 115.438047,57.2800017 142.5,57.2800017 C169.561953,57.2800017 191.5,78.4230515 191.5,109.991491 C191.5,119.751194 187.959858,138.166138 175.774864,152.488459 C163.589869,166.810779 145.14448,173.569511 144.230855,174.118314 C143.076952,174.811448 144.657889,176.70589 148.973666,179.801637 C149.603652,180.556549 149.501511,181.678507 148.745527,182.3076 C148.425308,182.574071 148.021667,182.720002 147.604835,182.720002 L137.395165,182.720002 C136.411094,182.720002 135.613347,181.923386 135.613347,180.940711 C135.613347,180.52447 135.759485,180.121402 136.026334,179.801637 C140.342111,176.70589 141.923048,174.811448 140.769145,174.118314 Z" id="Path-Copy-2" fill="#FAD80E" transform="translate(142.500000, 120.000002) rotate(5.000000) translate(-142.500000, -120.000002) "></path>
                <path d="M129.993703,116.134361 L138.418857,122.168945 C139.855635,123.198049 140.186121,125.197042 139.157017,126.633821 C138.725779,127.235892 138.099063,127.66975 137.38372,127.861425 L124.998966,131.17991 C123.291875,131.637324 121.537197,130.62426 121.079783,128.917168 C120.888107,128.201825 120.950481,127.442144 121.256271,126.767646 L125.313318,117.818775 L113.516058,111.740287 C77.7584759,93.2947173 54.1362479,81.1078634 48.0829048,58.5164797 C42.8722695,39.0701238 53.9921303,19.7613355 73.402213,14.5604195 C82.3751655,12.1561242 92.3320629,13.2544738 100.784874,17.5851542 C105.939884,9.60826926 114.013635,3.67862187 122.986587,1.2743265 C142.39667,-3.92658949 161.681146,7.23538127 166.891781,26.6817371 C172.945124,49.2731209 158.581102,71.63836 136.836913,105.491483 L129.993703,116.134361 L129.993703,116.134361 Z" id="Path" fill="#FF8A80"></path>
                <path d="M220.903717,251.810567 C219.601907,251.025095 193.790175,242.579219 176.341567,222.435572 C158.89296,202.291924 150,170.719041 150,155.190913 C150,107.626858 182.907071,75.7707001 223.5,75.7707001 C264.092929,75.7707001 297,107.626858 297,155.190913 C297,169.895822 291.689787,197.641553 273.412295,219.220942 C255.134804,240.800331 227.466719,250.983688 226.096283,251.810567 C224.365428,252.854911 226.736833,255.709259 233.210498,260.37361 C234.155479,261.511033 234.002267,263.201483 232.868291,264.149336 C232.387962,264.550827 231.782501,264.7707 231.157252,264.7707 L215.842748,264.7707 C214.366641,264.7707 213.17002,263.570442 213.17002,262.089849 C213.17002,261.4627 213.389227,260.855399 213.789502,260.37361 C220.263167,255.709259 222.634572,252.854911 220.903717,251.810567 Z" id="Path" fill="#FFFFFF"></path>
                <g id="identity/hedvig_symbol/hedvig_symbol" transform="translate(201.000000, 123.770700)">
                    <g id="Group-2">
                        <polygon id="Fill-1" fill="#1BE9B6" points="35.4653846 59.9951964 44.6040507 59.9951964 44.6040507 39.0311977 35.4653846 39.0311977"></polygon>
                        <path d="M44.6030693,39.0314377 L35.4644032,39.0314377 C35.4644032,31.9322381 29.5592302,26.1530384 22.3022707,26.1530384 C15.0428578,26.1530384 9.13768479,31.9322381 9.13768479,39.0314377 L-0.000981333277,39.0314377 C-0.000981333277,27.0026384 10.0037114,17.215439 22.3022707,17.215439 C34.5983766,17.215439 44.6030693,27.0026384 44.6030693,39.0314377" id="Fill-2" fill="#651EFF"></path>
                        <polygon id="Fill-5" fill="#0F007A" points="0 39.0311977 9.13866612 39.0311977 9.13866612 0 0 0"></polygon>
                        <polygon id="Fill-7" fill="#FF8A80" points="0 59.9951964 9.13866612 59.9951964 9.13866612 39.0311977 0 39.0311977"></polygon>
                    </g>
                </g>
            </g>
        </g>
    </g>
</svg>