<?xml version="1.0" encoding="UTF-8"?>
<svg xmlns="http://www.w3.org/2000/svg" xmlns:xlink="http://www.w3.org/1999/xlink" width="343pt" height="300pt" viewBox="0 0 343 300" version="1.1">
<defs>
<clipPath id="clip1">
  <path d="M 0 91 L 343 91 L 343 300 L 0 300 Z M 0 91 "/>
</clipPath>
<clipPath id="clip2">
  <path d="M 172.300781 300 C 54.710938 300 -11.335938 259.023438 1.605469 211.546875 C 14.542969 164.074219 60.328125 209.046875 137.964844 131.089844 C 215.597656 53.132812 343 99.105469 343 181.5625 C 343 264.019531 289.894531 300 172.300781 300 Z M 172.300781 300 "/>
</clipPath>
<clipPath id="clip4">
  <path d="M 172.300781 209 C 54.710938 209 -11.335938 168.023438 1.605469 120.546875 C 14.542969 73.074219 60.328125 118.046875 137.964844 40.089844 C 215.597656 -37.867188 343 8.105469 343 90.5625 C 343 173.019531 289.894531 209 172.300781 209 Z M 172.300781 209 "/>
</clipPath>
<clipPath id="clip3">
  <rect x="0" y="0" width="343" height="209"/>
</clipPath>
<g id="surface5" clip-path="url(#clip3)">
<g clip-path="url(#clip4)" clip-rule="evenodd">
<rect x="0" y="0" width="343" height="209" style="fill:rgb(0%,56.863403%,45.881653%);fill-opacity:1;stroke:none;"/>
</g>
</g>
<clipPath id="clip5">
  <path d="M 43 0 L 301 0 L 301 300 L 43 300 Z M 43 0 "/>
</clipPath>
<clipPath id="clip6">
  <path d="M 297 274.792969 C 269.03125 291.964844 227.867188 300 172.300781 300 C 119.164062 300 76.554688 291.632812 47 278.078125 L 47 180 L 45 180 C 43.894531 180 43 179.105469 43 178 L 43 142 C 43 140.894531 43.894531 140 45 140 L 47 140 L 47 132 L 45 132 C 43.894531 132 43 131.105469 43 130 L 43 94 C 43 92.894531 43.894531 92 45 92 L 47 92 L 47 32 C 47 14.328125 61.328125 0 79 0 L 265 0 C 282.671875 0 297 14.328125 297 32 L 297 92 L 299 92 C 300.105469 92 301 92.894531 301 94 L 301 170 C 301 171.105469 300.105469 172 299 172 L 297 172 Z M 297 274.792969 "/>
</clipPath>
<clipPath id="clip8">
  <path d="M 254 274.792969 C 226.03125 291.964844 184.867188 300 129.300781 300 C 76.164062 300 33.554688 291.632812 4 278.078125 L 4 180 L 2 180 C 0.894531 180 0 179.105469 0 178 L 0 142 C 0 140.894531 0.894531 140 2 140 L 4 140 L 4 132 L 2 132 C 0.894531 132 0 131.105469 0 130 L 0 94 C 0 92.894531 0.894531 92 2 92 L 4 92 L 4 32 C 4 14.328125 18.328125 0 36 0 L 222 0 C 239.671875 0 254 14.328125 254 32 L 254 92 L 256 92 C 257.105469 92 258 92.894531 258 94 L 258 170 C 258 171.105469 257.105469 172 256 172 L 254 172 Z M 254 274.792969 "/>
</clipPath>
<clipPath id="clip7">
  <rect x="0" y="0" width="258" height="300"/>
</clipPath>
<g id="surface8" clip-path="url(#clip7)">
<g clip-path="url(#clip8)" clip-rule="evenodd">
<rect x="0" y="0" width="258" height="300" style="fill:rgb(11.764526%,11.764526%,11.764526%);fill-opacity:1;stroke:none;"/>
</g>
</g>
<clipPath id="clip9">
  <path d="M 59 12 L 285 12 L 285 300 L 59 300 Z M 59 12 "/>
</clipPath>
<clipPath id="clip10">
  <path d="M 285 281.226562 C 257.703125 293.980469 220.394531 300 172.300781 300 C 125.976562 300 87.648438 293.640625 59 283.027344 L 59 36 C 59 22.746094 69.746094 12 83 12 L 261 12 C 274.253906 12 285 22.746094 285 36 Z M 285 281.226562 "/>
</clipPath>
<clipPath id="clip12">
  <path d="M 226 269.226562 C 198.703125 281.980469 161.394531 288 113.300781 288 C 66.976562 288 28.648438 281.640625 0 271.027344 L 0 24 C 0 10.746094 10.746094 0 24 0 L 202 0 C 215.253906 0 226 10.746094 226 24 Z M 226 269.226562 "/>
</clipPath>
<clipPath id="clip11">
  <rect x="0" y="0" width="226" height="288"/>
</clipPath>
<g id="surface11" clip-path="url(#clip11)">
<g clip-path="url(#clip12)" clip-rule="evenodd">
<rect x="0" y="0" width="226" height="288" style="fill:rgb(0%,0%,0%);fill-opacity:1;stroke:none;"/>
</g>
</g>
<clipPath id="clip13">
  <path d="M 70 275 L 169 275 L 169 300 L 70 300 Z M 70 275 "/>
</clipPath>
<clipPath id="clip14">
  <path d="M 169 299.988281 C 129.800781 299.730469 96.453125 294.878906 70 286.746094 L 70 279 C 70 276.789062 71.789062 275 74 275 L 165 275 C 167.210938 275 169 276.789062 169 279 Z M 169 299.988281 "/>
</clipPath>
<clipPath id="clip16">
  <path d="M 99 24.988281 C 59.800781 24.730469 26.453125 19.878906 0 11.746094 L 0 4 C 0 1.789062 1.789062 0 4 0 L 95 0 C 97.210938 0 99 1.789062 99 4 Z M 99 24.988281 "/>
</clipPath>
<clipPath id="clip15">
  <rect x="0" y="0" width="99" height="25"/>
</clipPath>
<g id="surface14" clip-path="url(#clip15)">
<g clip-path="url(#clip16)" clip-rule="evenodd">
<rect x="0" y="0" width="99" height="25" style="fill:rgb(31.37207%,31.37207%,31.37207%);fill-opacity:1;stroke:none;"/>
</g>
</g>
<clipPath id="clip17">
  <path d="M 174 275 L 273 275 L 273 300 L 174 300 Z M 174 275 "/>
</clipPath>
<clipPath id="clip18">
  <path d="M 273 286.167969 C 247.449219 295.414062 214.605469 299.875 174 299.996094 L 174 279 C 174 276.789062 175.789062 275 178 275 L 269 275 C 271.210938 275 273 276.789062 273 279 Z M 273 286.167969 "/>
</clipPath>
<clipPath id="clip20">
  <path d="M 99 11.167969 C 73.449219 20.414062 40.605469 24.875 0 24.996094 L 0 4 C 0 1.789062 1.789062 0 4 0 L 95 0 C 97.210938 0 99 1.789062 99 4 Z M 99 11.167969 "/>
</clipPath>
<clipPath id="clip19">
  <rect x="0" y="0" width="99" height="25"/>
</clipPath>
<g id="surface17" clip-path="url(#clip19)">
<g clip-path="url(#clip20)" clip-rule="evenodd">
<rect x="0" y="0" width="99" height="25" style="fill:rgb(31.37207%,31.37207%,31.37207%);fill-opacity:1;stroke:none;"/>
</g>
</g>
<clipPath id="clip21">
  <path d="M 134 31 L 211 31 L 211 44 L 134 44 Z M 134 31 "/>
</clipPath>
<clipPath id="clip22">
  <path d="M 136.464844 31 L 207.890625 31 C 209.25 31 210.355469 32.101562 210.355469 33.464844 L 210.355469 40.851562 C 210.355469 42.210938 209.25 43.316406 207.890625 43.316406 L 136.464844 43.316406 C 135.101562 43.316406 134 42.210938 134 40.851562 L 134 33.464844 C 134 32.101562 135.101562 31 136.464844 31 Z M 136.464844 31 "/>
</clipPath>
<clipPath id="clip24">
  <path d="M 2.464844 0 L 73.890625 0 C 75.25 0 76.355469 1.101562 76.355469 2.464844 L 76.355469 9.851562 C 76.355469 11.210938 75.25 12.316406 73.890625 12.316406 L 2.464844 12.316406 C 1.101562 12.316406 0 11.210938 0 9.851562 L 0 2.464844 C 0 1.101562 1.101562 0 2.464844 0 Z M 2.464844 0 "/>
</clipPath>
<clipPath id="clip23">
  <rect x="0" y="0" width="77" height="13"/>
</clipPath>
<g id="surface20" clip-path="url(#clip23)">
<g clip-path="url(#clip24)" clip-rule="evenodd">
<rect x="0" y="0" width="77" height="13" style="fill:rgb(31.37207%,31.37207%,31.37207%);fill-opacity:1;stroke:none;"/>
</g>
</g>
<clipPath id="clip25">
  <path d="M 126 219 L 218 219 L 218 257 L 126 257 Z M 126 219 "/>
</clipPath>
<clipPath id="clip26">
  <path d="M 144.859375 219 L 199.140625 219 C 209.558594 219 218 227.441406 218 237.859375 L 218 238.140625 C 218 248.558594 209.558594 257 199.140625 257 L 144.859375 257 C 134.441406 257 126 248.558594 126 238.140625 L 126 237.859375 C 126 227.441406 134.441406 219 144.859375 219 Z M 144.859375 219 "/>
</clipPath>
<clipPath id="clip28">
  <path d="M 18.859375 0 L 73.140625 0 C 83.558594 0 92 8.441406 92 18.859375 L 92 19.140625 C 92 29.558594 83.558594 38 73.140625 38 L 18.859375 38 C 8.441406 38 0 29.558594 0 19.140625 L 0 18.859375 C 0 8.441406 8.441406 0 18.859375 0 Z M 18.859375 0 "/>
</clipPath>
<clipPath id="clip27">
  <rect x="0" y="0" width="92" height="38"/>
</clipPath>
<g id="surface23" clip-path="url(#clip27)">
<g clip-path="url(#clip28)" clip-rule="evenodd">
<rect x="0" y="0" width="92" height="38" style="fill:rgb(57.647705%,38.038635%,100%);fill-opacity:1;stroke:none;"/>
</g>
</g>
<clipPath id="clip29">
  <path d="M 71 63 L 273 63 L 273 171 L 71 171 Z M 71 63 "/>
</clipPath>
<clipPath id="clip30">
  <path d="M 75 63 L 269 63 C 271.210938 63 273 64.789062 273 67 L 273 167 C 273 169.210938 271.210938 171 269 171 L 75 171 C 72.789062 171 71 169.210938 71 167 L 71 67 C 71 64.789062 72.789062 63 75 63 Z M 75 63 "/>
</clipPath>
<clipPath id="clip32">
  <path d="M 4 0 L 198 0 C 200.210938 0 202 1.789062 202 4 L 202 104 C 202 106.210938 200.210938 108 198 108 L 4 108 C 1.789062 108 0 106.210938 0 104 L 0 4 C 0 1.789062 1.789062 0 4 0 Z M 4 0 "/>
</clipPath>
<clipPath id="clip31">
  <rect x="0" y="0" width="202" height="108"/>
</clipPath>
<g id="surface26" clip-path="url(#clip31)">
<g clip-path="url(#clip32)" clip-rule="evenodd">
<rect x="0" y="0" width="202" height="108" style="fill:rgb(100%,90.98053%,90.196228%);fill-opacity:1;stroke:none;"/>
</g>
</g>
<clipPath id="clip33">
  <path d="M 160 82 L 183 82 L 183 110 L 160 110 Z M 160 82 "/>
</clipPath>
<clipPath id="clip34">
  <path d="M 179.714844 82.507812 L 182.972656 84.390625 L 179.304688 107.59375 C 179.140625 108.625 178.175781 109.324219 177.144531 109.164062 C 176.917969 109.125 176.699219 109.050781 176.496094 108.933594 L 161.699219 100.390625 C 160.796875 99.867188 160.488281 98.714844 161.007812 97.8125 C 161.125 97.613281 161.273438 97.433594 161.453125 97.289062 Z M 179.714844 82.507812 "/>
</clipPath>
<clipPath id="clip36">
  <path d="M 19.714844 0.507812 L 22.972656 2.390625 L 19.304688 25.59375 C 19.140625 26.625 18.175781 27.324219 17.144531 27.164062 C 16.917969 27.125 16.699219 27.050781 16.496094 26.933594 L 1.699219 18.390625 C 0.796875 17.867188 0.488281 16.714844 1.007812 15.8125 C 1.125 15.613281 1.273438 15.433594 1.453125 15.289062 Z M 19.714844 0.507812 "/>
</clipPath>
<clipPath id="clip37">
  <path d="M 10.480469 -10.597656 L 37.207031 4.835938 L 19.960938 34.707031 L -6.765625 19.277344 Z M 10.480469 -10.597656 "/>
</clipPath>
<clipPath id="clip35">
  <rect x="0" y="0" width="23" height="28"/>
</clipPath>
<g id="surface29" clip-path="url(#clip35)">
<g clip-path="url(#clip36)" clip-rule="evenodd">
<g clip-path="url(#clip37)" clip-rule="evenodd">
<rect x="0" y="0" width="23" height="28" style="fill:rgb(98.431396%,89.019775%,88.235474%);fill-opacity:1;stroke:none;"/>
</g>
</g>
</g>
<clipPath id="clip38">
  <path d="M 169 76 L 193 76 L 193 91 L 169 91 Z M 169 76 "/>
</clipPath>
<clipPath id="clip39">
  <path d="M 180.402344 85.082031 C 174.101562 81.445312 169.417969 77.765625 169.9375 76.863281 C 170.460938 75.960938 175.988281 78.179688 182.285156 81.816406 C 188.585938 85.453125 193.269531 89.132812 192.75 90.035156 C 192.230469 90.933594 186.703125 88.71875 180.402344 85.082031 Z M 180.402344 85.082031 "/>
</clipPath>
<clipPath id="clip41">
  <path d="M 11.402344 9.082031 C 5.101562 5.445312 0.417969 1.765625 0.9375 0.863281 C 1.460938 -0.0390625 6.988281 2.179688 13.285156 5.816406 C 19.585938 9.453125 24.269531 13.132812 23.75 14.035156 C 23.230469 14.933594 17.703125 12.71875 11.402344 9.082031 Z M 11.402344 9.082031 "/>
</clipPath>
<clipPath id="clip42">
  <path d="M 0.0507812 -7.597656 L 31.523438 10.574219 L 24.636719 22.496094 L -6.832031 4.324219 Z M 0.0507812 -7.597656 "/>
</clipPath>
<clipPath id="clip40">
  <rect x="0" y="0" width="24" height="15"/>
</clipPath>
<g id="surface32" clip-path="url(#clip40)">
<g clip-path="url(#clip41)" clip-rule="evenodd">
<g clip-path="url(#clip42)" clip-rule="evenodd">
<rect x="0" y="0" width="24" height="15" style="fill:rgb(85.098267%,75.686646%,74.902344%);fill-opacity:1;stroke:none;"/>
</g>
</g>
</g>
<clipPath id="clip43">
  <path d="M 178 79 L 186 79 L 186 85 L 178 85 Z M 178 79 "/>
</clipPath>
<clipPath id="clip44">
  <path d="M 184.839844 84.921875 C 184.707031 85.148438 183.144531 84.488281 181.34375 83.449219 C 179.542969 82.410156 178.191406 81.386719 178.320312 81.160156 L 178.324219 81.15625 C 179.363281 79.355469 181.664062 78.738281 183.464844 79.777344 C 185.265625 80.816406 185.878906 83.117188 184.839844 84.917969 Z M 184.839844 84.921875 "/>
</clipPath>
<clipPath id="clip46">
  <path d="M 6.839844 5.921875 C 6.707031 6.148438 5.144531 5.488281 3.34375 4.449219 C 1.542969 3.410156 0.191406 2.386719 0.320312 2.160156 L 0.324219 2.15625 C 1.363281 0.355469 3.664062 -0.261719 5.464844 0.777344 C 7.265625 1.816406 7.878906 4.117188 6.839844 5.917969 Z M 6.839844 5.921875 "/>
</clipPath>
<clipPath id="clip47">
  <path d="M 0.375 -7.933594 L 15.554688 0.828125 L 8.433594 13.160156 L -6.746094 4.398438 Z M 0.375 -7.933594 "/>
</clipPath>
<clipPath id="clip45">
  <rect x="0" y="0" width="8" height="6"/>
</clipPath>
<g id="surface35" clip-path="url(#clip45)">
<g clip-path="url(#clip46)" clip-rule="evenodd">
<g clip-path="url(#clip47)" clip-rule="evenodd">
<rect x="0" y="0" width="8" height="6" style="fill:rgb(93.333435%,83.921814%,83.137512%);fill-opacity:1;stroke:none;"/>
</g>
</g>
</g>
<clipPath id="clip48">
  <path d="M 242 124 L 246 124 L 246 131 L 242 131 Z M 242 124 "/>
</clipPath>
<clipPath id="clip49">
  <path d="M 242.175781 128.824219 C 242.175781 128.824219 244.625 122.972656 245.554688 124.996094 C 246.484375 127.019531 244.445312 129.132812 244.445312 129.132812 L 242.980469 130.21875 L 242.101562 129.097656 Z M 242.175781 128.824219 "/>
</clipPath>
<clipPath id="clip51">
  <path d="M 0.175781 4.824219 C 0.175781 4.824219 2.625 -1.027344 3.554688 0.996094 C 4.484375 3.019531 2.445312 5.132812 2.445312 5.132812 L 0.980469 6.21875 L 0.101562 5.097656 Z M 0.175781 4.824219 "/>
</clipPath>
<clipPath id="clip52">
  <path d="M -2.097656 -6 L 10.363281 -2.660156 L 6.222656 12.800781 L -6.242188 9.460938 Z M -2.097656 -6 "/>
</clipPath>
<clipPath id="clip50">
  <rect x="0" y="0" width="4" height="7"/>
</clipPath>
<g id="surface38" clip-path="url(#clip50)">
<g clip-path="url(#clip51)" clip-rule="evenodd">
<g clip-path="url(#clip52)" clip-rule="evenodd">
<rect x="0" y="0" width="4" height="7" style="fill:rgb(100%,72.157288%,72.157288%);fill-opacity:1;stroke:none;"/>
</g>
</g>
</g>
<clipPath id="clip53">
  <path d="M 236 128 L 244 128 L 244 134 L 236 134 Z M 236 128 "/>
</clipPath>
<clipPath id="clip54">
  <path d="M 238.367188 129.871094 C 238.367188 129.871094 241.925781 127.570312 242.324219 128.269531 C 242.726562 128.96875 244.296875 129.6875 243.726562 130.714844 C 243.160156 131.746094 236.433594 133.789062 236.433594 133.789062 Z M 238.367188 129.871094 "/>
</clipPath>
<clipPath id="clip56">
  <path d="M 2.367188 1.871094 C 2.367188 1.871094 5.925781 -0.429688 6.324219 0.269531 C 6.726562 0.96875 8.296875 1.6875 7.726562 2.714844 C 7.160156 3.746094 0.433594 5.789062 0.433594 5.789062 Z M 2.367188 1.871094 "/>
</clipPath>
<clipPath id="clip57">
  <path d="M -1.308594 -7.023438 L 14.417969 -2.808594 L 10.039062 13.539062 L -5.6875 9.324219 Z M -1.308594 -7.023438 "/>
</clipPath>
<clipPath id="clip55">
  <rect x="0" y="0" width="8" height="6"/>
</clipPath>
<g id="surface41" clip-path="url(#clip55)">
<g clip-path="url(#clip56)" clip-rule="evenodd">
<g clip-path="url(#clip57)" clip-rule="evenodd">
<rect x="0" y="0" width="8" height="6" style="fill:rgb(39.607239%,11.764526%,100%);fill-opacity:1;stroke:none;"/>
</g>
</g>
</g>
<clipPath id="clip58">
  <path d="M 221 125 L 225 125 L 225 133 L 221 133 Z M 221 125 "/>
</clipPath>
<clipPath id="clip59">
  <path d="M 222.796875 125.402344 L 224.71875 125.917969 L 224.328125 128.472656 C 224.328125 128.472656 224.042969 132.832031 222.324219 132.667969 C 220.601562 132.5 222.207031 127.609375 222.207031 127.609375 Z M 222.796875 125.402344 "/>
</clipPath>
<clipPath id="clip61">
  <path d="M 1.796875 0.402344 L 3.71875 0.917969 L 3.328125 3.472656 C 3.328125 3.472656 3.042969 7.832031 1.324219 7.667969 C -0.398438 7.5 1.207031 2.609375 1.207031 2.609375 Z M 1.796875 0.402344 "/>
</clipPath>
<clipPath id="clip62">
  <path d="M -1.753906 -5.722656 L 10.324219 -2.488281 L 5.882812 14.078125 L -6.191406 10.839844 Z M -1.753906 -5.722656 "/>
</clipPath>
<clipPath id="clip60">
  <rect x="0" y="0" width="4" height="8"/>
</clipPath>
<g id="surface44" clip-path="url(#clip60)">
<g clip-path="url(#clip61)" clip-rule="evenodd">
<g clip-path="url(#clip62)" clip-rule="evenodd">
<rect x="0" y="0" width="4" height="8" style="fill:rgb(100%,72.157288%,72.157288%);fill-opacity:1;stroke:none;"/>
</g>
</g>
</g>
<clipPath id="clip63">
  <path d="M 202 141 L 225 141 L 225 156 L 202 156 Z M 202 141 "/>
</clipPath>
<clipPath id="clip64">
  <path d="M 219.335938 141.621094 L 224.105469 144.675781 C 224.105469 144.675781 220.527344 148.152344 217.835938 148.316406 C 215.144531 148.480469 203.847656 155.507812 203.847656 155.507812 L 202.59375 152.511719 L 207.765625 148.574219 C 208.980469 146.238281 214.035156 144.933594 214.933594 144.878906 C 215.832031 144.824219 219.335938 141.621094 219.335938 141.621094 Z M 219.335938 141.621094 "/>
</clipPath>
<clipPath id="clip66">
  <path d="M 17.335938 0.621094 L 22.105469 3.675781 C 22.105469 3.675781 18.527344 7.152344 15.835938 7.316406 C 13.144531 7.480469 1.847656 14.507812 1.847656 14.507812 L 0.59375 11.511719 L 5.765625 7.574219 C 6.980469 5.238281 12.035156 3.933594 12.933594 3.878906 C 13.832031 3.824219 17.335938 0.621094 17.335938 0.621094 Z M 17.335938 0.621094 "/>
</clipPath>
<clipPath id="clip67">
  <path d="M 0.902344 -8.957031 L 28.671875 -1.515625 L 21.574219 24.96875 L -6.195312 17.527344 Z M 0.902344 -8.957031 "/>
</clipPath>
<clipPath id="clip65">
  <rect x="0" y="0" width="23" height="15"/>
</clipPath>
<g id="surface47" clip-path="url(#clip65)">
<g clip-path="url(#clip66)" clip-rule="evenodd">
<g clip-path="url(#clip67)" clip-rule="evenodd">
<rect x="0" y="0" width="23" height="15" style="fill:rgb(100%,72.157288%,72.157288%);fill-opacity:1;stroke:none;"/>
</g>
</g>
</g>
<clipPath id="clip68">
  <path d="M 227 140 L 245 140 L 245 156 L 227 156 Z M 227 140 "/>
</clipPath>
<clipPath id="clip69">
  <path d="M 240.519531 140.5 C 240.519531 140.5 245.511719 142.722656 243.800781 145.8125 C 242.089844 148.902344 232.285156 153.667969 232.285156 153.667969 L 231.566406 155.246094 L 228.402344 154.992188 L 227.398438 153.242188 L 227.894531 152.488281 C 227.894531 152.488281 232 150.339844 232.570312 149.308594 C 233.140625 148.277344 237.339844 144.675781 238.789062 144.765625 L 237.160156 143.148438 Z M 240.519531 140.5 "/>
</clipPath>
<clipPath id="clip71">
  <path d="M 13.519531 0.5 C 13.519531 0.5 18.511719 2.722656 16.800781 5.8125 C 15.089844 8.902344 5.285156 13.667969 5.285156 13.667969 L 4.566406 15.246094 L 1.402344 14.992188 L 0.398438 13.242188 L 0.894531 12.488281 C 0.894531 12.488281 5 10.339844 5.570312 9.308594 C 6.140625 8.277344 10.339844 4.675781 11.789062 4.765625 L 10.160156 3.148438 Z M 13.519531 0.5 "/>
</clipPath>
<clipPath id="clip72">
  <path d="M 0.925781 -8.050781 L 24.121094 -1.835938 L 17.097656 24.375 L -6.09375 18.160156 Z M 0.925781 -8.050781 "/>
</clipPath>
<clipPath id="clip70">
  <rect x="0" y="0" width="18" height="16"/>
</clipPath>
<g id="surface50" clip-path="url(#clip70)">
<g clip-path="url(#clip71)" clip-rule="evenodd">
<g clip-path="url(#clip72)" clip-rule="evenodd">
<rect x="0" y="0" width="18" height="16" style="fill:rgb(100%,72.157288%,72.157288%);fill-opacity:1;stroke:none;"/>
</g>
</g>
</g>
<clipPath id="clip73">
  <path d="M 199 151 L 205 151 L 205 162 L 199 162 Z M 199 151 "/>
</clipPath>
<clipPath id="clip74">
  <path d="M 203.417969 152.730469 C 202.996094 153.210938 203.871094 154.332031 204.417969 154.476562 C 204.96875 154.625 204.597656 156.003906 203.976562 156.132812 C 203.351562 156.261719 201.9375 158.246094 201.9375 158.246094 C 201.9375 158.246094 202.644531 161.097656 200.851562 161.207031 C 199.058594 161.320312 199.753906 153.226562 200.050781 152.125 C 200.34375 151.019531 201.515625 151.039062 203.238281 151.203125 C 204.957031 151.371094 203.417969 152.730469 203.417969 152.730469 Z M 203.417969 152.730469 "/>
</clipPath>
<clipPath id="clip76">
  <path d="M 4.417969 1.730469 C 3.996094 2.210938 4.871094 3.332031 5.417969 3.476562 C 5.96875 3.625 5.597656 5.003906 4.976562 5.132812 C 4.351562 5.261719 2.9375 7.246094 2.9375 7.246094 C 2.9375 7.246094 3.644531 10.097656 1.851562 10.207031 C 0.0585938 10.320312 0.753906 2.226562 1.050781 1.125 C 1.34375 0.0195312 2.515625 0.0390625 4.238281 0.203125 C 5.957031 0.371094 4.417969 1.730469 4.417969 1.730469 Z M 4.417969 1.730469 "/>
</clipPath>
<clipPath id="clip77">
  <path d="M -2.035156 -6.683594 L 12.703125 -2.738281 L 7.4375 16.910156 L -7.296875 12.964844 Z M -2.035156 -6.683594 "/>
</clipPath>
<clipPath id="clip75">
  <rect x="0" y="0" width="6" height="11"/>
</clipPath>
<g id="surface53" clip-path="url(#clip75)">
<g clip-path="url(#clip76)" clip-rule="evenodd">
<g clip-path="url(#clip77)" clip-rule="evenodd">
<rect x="0" y="0" width="6" height="11" style="fill:rgb(18.431091%,18.03894%,25.489807%);fill-opacity:1;stroke:none;"/>
</g>
</g>
</g>
<clipPath id="clip78">
  <path d="M 225 152 L 234 152 L 234 161 L 225 161 Z M 225 152 "/>
</clipPath>
<clipPath id="clip79">
  <path d="M 228.367188 152.914062 C 228.148438 153.742188 230.691406 154.125 231.660156 153.796875 C 232.632812 153.464844 232.117188 155.394531 231.820312 156.5 C 231.523438 157.601562 233.898438 159.714844 233.898438 159.714844 C 233.929688 161.792969 230.035156 159.863281 230.035156 159.863281 C 230.035156 159.863281 226.710938 156.902344 225.835938 155.78125 C 224.960938 154.660156 225.804688 153.703125 227.269531 152.617188 C 228.738281 151.535156 228.367188 152.914062 228.367188 152.914062 Z M 228.367188 152.914062 "/>
</clipPath>
<clipPath id="clip81">
  <path d="M 3.367188 0.914062 C 3.148438 1.742188 5.691406 2.125 6.660156 1.796875 C 7.632812 1.464844 7.117188 3.394531 6.820312 4.5 C 6.523438 5.601562 8.898438 7.714844 8.898438 7.714844 C 8.929688 9.792969 5.035156 7.863281 5.035156 7.863281 C 5.035156 7.863281 1.710938 4.902344 0.835938 3.78125 C -0.0390625 2.660156 0.804688 1.703125 2.269531 0.617188 C 3.738281 -0.464844 3.367188 0.914062 3.367188 0.914062 Z M 3.367188 0.914062 "/>
</clipPath>
<clipPath id="clip82">
  <path d="M -2.246094 -6.425781 L 16.566406 -1.382812 L 12.140625 15.132812 L -6.671875 10.089844 Z M -2.246094 -6.425781 "/>
</clipPath>
<clipPath id="clip80">
  <rect x="0" y="0" width="9" height="9"/>
</clipPath>
<g id="surface56" clip-path="url(#clip80)">
<g clip-path="url(#clip81)" clip-rule="evenodd">
<g clip-path="url(#clip82)" clip-rule="evenodd">
<rect x="0" y="0" width="9" height="9" style="fill:rgb(18.431091%,18.03894%,25.489807%);fill-opacity:1;stroke:none;"/>
</g>
</g>
</g>
<clipPath id="clip83">
  <path d="M 218 130 L 242 130 L 242 147 L 218 147 Z M 218 130 "/>
</clipPath>
<clipPath id="clip84">
  <path d="M 228.699219 130.828125 L 235.71875 135.371094 L 241.617188 140.792969 C 241.617188 140.792969 239.359375 143.734375 237.617188 144.746094 C 235.875 145.757812 228.929688 140.941406 228.929688 140.941406 C 228.929688 140.941406 223.9375 146.402344 222.617188 146.9375 C 221.296875 147.46875 219.09375 143.628906 218.164062 141.605469 C 217.234375 139.582031 223.503906 135.941406 223.503906 135.941406 C 224.707031 130.351562 228.699219 130.828125 228.699219 130.828125 Z M 228.699219 130.828125 "/>
</clipPath>
<clipPath id="clip86">
  <path d="M 10.699219 0.828125 L 17.71875 5.371094 L 23.617188 10.792969 C 23.617188 10.792969 21.359375 13.734375 19.617188 14.746094 C 17.875 15.757812 10.929688 10.941406 10.929688 10.941406 C 10.929688 10.941406 5.9375 16.402344 4.617188 16.9375 C 3.296875 17.46875 1.09375 13.628906 0.164062 11.605469 C -0.765625 9.582031 5.503906 5.941406 5.503906 5.941406 C 6.707031 0.351562 10.699219 0.828125 10.699219 0.828125 Z M 10.699219 0.828125 "/>
</clipPath>
<clipPath id="clip87">
  <path d="M -0.214844 -7.273438 L 31.367188 1.191406 L 24.304688 27.539062 L -7.273438 19.078125 Z M -0.214844 -7.273438 "/>
</clipPath>
<clipPath id="clip85">
  <rect x="0" y="0" width="24" height="17"/>
</clipPath>
<g id="surface59" clip-path="url(#clip85)">
<g clip-path="url(#clip86)" clip-rule="evenodd">
<g clip-path="url(#clip87)" clip-rule="evenodd">
<rect x="0" y="0" width="24" height="17" style="fill:rgb(100%,54.118347%,50.196838%);fill-opacity:1;stroke:none;"/>
</g>
</g>
</g>
<clipPath id="clip88">
  <path d="M 241 111 L 248 111 L 248 119 L 241 119 Z M 241 111 "/>
</clipPath>
<clipPath id="clip89">
  <path d="M 243.613281 117.972656 C 241.792969 117.484375 240.71875 115.609375 241.207031 113.78125 C 241.699219 111.953125 243.570312 110.867188 245.386719 111.351562 C 247.207031 111.839844 248.285156 113.71875 247.792969 115.546875 C 247.304688 117.375 245.433594 118.460938 243.613281 117.972656 Z M 243.613281 117.972656 "/>
</clipPath>
<clipPath id="clip91">
  <path d="M 2.613281 6.972656 C 0.792969 6.484375 -0.28125 4.609375 0.207031 2.78125 C 0.699219 0.953125 2.570312 -0.132812 4.386719 0.351562 C 6.207031 0.839844 7.285156 2.71875 6.792969 4.546875 C 6.304688 6.375 4.433594 7.460938 2.613281 6.972656 Z M 2.613281 6.972656 "/>
</clipPath>
<clipPath id="clip92">
  <path d="M -2.441406 -6.652344 L 13.804688 -2.300781 L 9.441406 13.980469 L -6.804688 9.625 Z M -2.441406 -6.652344 "/>
</clipPath>
<clipPath id="clip90">
  <rect x="0" y="0" width="7" height="8"/>
</clipPath>
<g id="surface62" clip-path="url(#clip90)">
<g clip-path="url(#clip91)" clip-rule="evenodd">
<g clip-path="url(#clip92)" clip-rule="evenodd">
<rect x="0" y="0" width="7" height="8" style="fill:rgb(100%,72.157288%,72.157288%);fill-opacity:1;stroke:none;"/>
</g>
</g>
</g>
<clipPath id="clip93">
  <path d="M 238 114 L 245 114 L 245 121 L 238 121 Z M 238 114 "/>
</clipPath>
<clipPath id="clip94">
  <path d="M 241.957031 114.277344 L 244.183594 116.941406 C 242.589844 117.402344 241.628906 120.988281 241.628906 120.988281 C 241.628906 120.988281 237.976562 117.054688 238.601562 116.925781 C 239.222656 116.796875 241.957031 114.277344 241.957031 114.277344 Z M 241.957031 114.277344 "/>
</clipPath>
<clipPath id="clip96">
  <path d="M 3.957031 0.277344 L 6.183594 2.941406 C 4.589844 3.402344 3.628906 6.988281 3.628906 6.988281 C 3.628906 6.988281 -0.0234375 3.054688 0.601562 2.925781 C 1.222656 2.796875 3.957031 0.277344 3.957031 0.277344 Z M 3.957031 0.277344 "/>
</clipPath>
<clipPath id="clip97">
  <path d="M -2.097656 -6.519531 L 12.824219 -2.523438 L 8.535156 13.480469 L -6.382812 9.480469 Z M -2.097656 -6.519531 "/>
</clipPath>
<clipPath id="clip95">
  <rect x="0" y="0" width="7" height="7"/>
</clipPath>
<g id="surface65" clip-path="url(#clip95)">
<g clip-path="url(#clip96)" clip-rule="evenodd">
<g clip-path="url(#clip97)" clip-rule="evenodd">
<rect x="0" y="0" width="7" height="7" style="fill:rgb(100%,72.157288%,72.157288%);fill-opacity:1;stroke:none;"/>
</g>
</g>
</g>
<clipPath id="clip98">
  <path d="M 228 115 L 243 115 L 243 137 L 228 137 Z M 228 115 "/>
</clipPath>
<clipPath id="clip99">
  <path d="M 240.871094 117.238281 C 241.144531 117.3125 242.125 120.234375 242.125 120.234375 C 242.503906 121.691406 242.5 123.226562 242.109375 124.683594 L 241.523438 126.875 C 241.300781 127.699219 239.613281 129.613281 238.769531 130.570312 C 237.921875 131.527344 236.59375 136.492188 236.59375 136.492188 L 233.648438 135.40625 C 230.703125 134.320312 227.652344 131.433594 228.074219 130.957031 C 228.496094 130.476562 228.222656 130.40625 228.246094 129.226562 C 228.265625 128.050781 228.667969 128.75 229.710938 128.144531 C 230.757812 127.535156 230.058594 127.941406 230.523438 125.109375 C 230.988281 122.277344 234.019531 118.652344 235.433594 116.667969 C 236.847656 114.683594 240.871094 117.238281 240.871094 117.238281 Z M 240.871094 117.238281 "/>
</clipPath>
<clipPath id="clip101">
  <path d="M 12.871094 2.238281 C 13.144531 2.3125 14.125 5.234375 14.125 5.234375 C 14.503906 6.691406 14.5 8.226562 14.109375 9.683594 L 13.523438 11.875 C 13.300781 12.699219 11.613281 14.613281 10.769531 15.570312 C 9.921875 16.527344 8.59375 21.492188 8.59375 21.492188 L 5.648438 20.40625 C 2.703125 19.320312 -0.347656 16.433594 0.0742188 15.957031 C 0.496094 15.476562 0.222656 15.40625 0.246094 14.226562 C 0.265625 13.050781 0.667969 13.75 1.710938 13.144531 C 2.757812 12.535156 2.058594 12.941406 2.523438 10.109375 C 2.988281 7.277344 6.019531 3.652344 7.433594 1.667969 C 8.847656 -0.316406 12.871094 2.238281 12.871094 2.238281 Z M 12.871094 2.238281 "/>
</clipPath>
<clipPath id="clip102">
  <path d="M 0.59375 -6.683594 L 22.125 -0.914062 L 14.324219 28.203125 L -7.207031 22.433594 Z M 0.59375 -6.683594 "/>
</clipPath>
<clipPath id="clip100">
  <rect x="0" y="0" width="15" height="22"/>
</clipPath>
<g id="surface68" clip-path="url(#clip100)">
<g clip-path="url(#clip101)" clip-rule="evenodd">
<g clip-path="url(#clip102)" clip-rule="evenodd">
<rect x="0" y="0" width="15" height="22" style="fill:rgb(39.607239%,11.764526%,100%);fill-opacity:1;stroke:none;"/>
</g>
</g>
</g>
<clipPath id="clip103">
  <path d="M 221 116 L 240 116 L 240 128 L 221 128 Z M 221 116 "/>
</clipPath>
<clipPath id="clip104">
  <path d="M 237.28125 117.457031 C 241.796875 119.261719 237.046875 122.71875 237.046875 122.71875 C 237.046875 122.71875 228.59375 121.339844 228.320312 121.265625 C 228.042969 121.191406 225.46875 126.414062 225.046875 126.894531 C 224.625 127.371094 223.398438 126.453125 222.300781 126.15625 C 221.203125 125.863281 223.230469 120.492188 225.070312 118.03125 C 226.90625 115.566406 237.28125 117.457031 237.28125 117.457031 Z M 237.28125 117.457031 "/>
</clipPath>
<clipPath id="clip106">
  <path d="M 16.28125 1.457031 C 20.796875 3.261719 16.046875 6.71875 16.046875 6.71875 C 16.046875 6.71875 7.59375 5.339844 7.320312 5.265625 C 7.042969 5.191406 4.46875 10.414062 4.046875 10.894531 C 3.625 11.371094 2.398438 10.453125 1.300781 10.15625 C 0.203125 9.863281 2.230469 4.492188 4.070312 2.03125 C 5.90625 -0.433594 16.28125 1.457031 16.28125 1.457031 Z M 16.28125 1.457031 "/>
</clipPath>
<clipPath id="clip107">
  <path d="M 0.347656 -7.988281 L 24.804688 -1.433594 L 18.972656 20.332031 L -5.484375 13.777344 Z M 0.347656 -7.988281 "/>
</clipPath>
<clipPath id="clip105">
  <rect x="0" y="0" width="19" height="12"/>
</clipPath>
<g id="surface71" clip-path="url(#clip105)">
<g clip-path="url(#clip106)" clip-rule="evenodd">
<g clip-path="url(#clip107)" clip-rule="evenodd">
<rect x="0" y="0" width="19" height="12" style="fill:rgb(39.607239%,11.764526%,100%);fill-opacity:1;stroke:none;"/>
</g>
</g>
</g>
<clipPath id="clip108">
  <path d="M 240 110 L 250 110 L 250 116 L 240 116 Z M 240 110 "/>
</clipPath>
<clipPath id="clip109">
  <path d="M 244.851562 113.878906 L 243.5625 115.234375 L 243.136719 115 L 242.859375 113.941406 C 242.578125 112.882812 241.140625 115.921875 241.140625 115.921875 C 241.140625 115.921875 239.769531 115.957031 241.269531 112.496094 C 242.769531 109.035156 245.652344 110.992188 247.15625 111.976562 C 248.664062 112.960938 249.773438 112.675781 249.90625 113.269531 C 250.039062 113.863281 247.609375 115.824219 246.871094 114.203125 C 246.136719 112.585938 244.851562 113.878906 244.851562 113.878906 Z M 244.851562 113.878906 "/>
</clipPath>
<clipPath id="clip111">
  <path d="M 4.851562 3.878906 L 3.5625 5.234375 L 3.136719 5 L 2.859375 3.941406 C 2.578125 2.882812 1.140625 5.921875 1.140625 5.921875 C 1.140625 5.921875 -0.230469 5.957031 1.269531 2.496094 C 2.769531 -0.964844 5.652344 0.992188 7.15625 1.976562 C 8.664062 2.960938 9.773438 2.675781 9.90625 3.269531 C 10.039062 3.863281 7.609375 5.824219 6.871094 4.203125 C 6.136719 2.585938 4.851562 3.878906 4.851562 3.878906 Z M 4.851562 3.878906 "/>
</clipPath>
<clipPath id="clip112">
  <path d="M -1.710938 -6.214844 L 16.355469 -1.371094 L 12.214844 14.078125 L -5.851562 9.234375 Z M -1.710938 -6.214844 "/>
</clipPath>
<clipPath id="clip110">
  <rect x="0" y="0" width="10" height="6"/>
</clipPath>
<g id="surface74" clip-path="url(#clip110)">
<g clip-path="url(#clip111)" clip-rule="evenodd">
<g clip-path="url(#clip112)" clip-rule="evenodd">
<rect x="0" y="0" width="10" height="6" style="fill:rgb(18.431091%,18.03894%,25.489807%);fill-opacity:1;stroke:none;"/>
</g>
</g>
</g>
<clipPath id="clip113">
  <path d="M 243 112 L 246 112 L 246 116 L 243 116 Z M 243 112 "/>
</clipPath>
<clipPath id="clip114">
  <path d="M 244.835938 112.207031 L 245.679688 113.902344 C 245.914062 114.371094 245.722656 114.9375 245.257812 115.171875 C 245.125 115.238281 244.980469 115.273438 244.832031 115.273438 C 244.3125 115.273438 243.886719 114.847656 243.886719 114.324219 C 243.886719 114.179688 243.921875 114.035156 243.988281 113.902344 Z M 244.835938 112.207031 "/>
</clipPath>
<clipPath id="clip116">
  <path d="M 1.835938 0.207031 L 2.679688 1.902344 C 2.914062 2.371094 2.722656 2.9375 2.257812 3.171875 C 2.125 3.238281 1.980469 3.273438 1.832031 3.273438 C 1.3125 3.273438 0.886719 2.847656 0.886719 2.324219 C 0.886719 2.179688 0.921875 2.035156 0.988281 1.902344 Z M 1.835938 0.207031 "/>
</clipPath>
<clipPath id="clip115">
  <rect x="0" y="0" width="3" height="4"/>
</clipPath>
<g id="surface77" clip-path="url(#clip115)">
<g clip-path="url(#clip116)" clip-rule="evenodd">
<rect x="0" y="0" width="3" height="4" style="fill:rgb(39.607239%,11.764526%,100%);fill-opacity:1;stroke:none;"/>
</g>
</g>
<clipPath id="clip117">
  <path d="M 199 161 L 243 161 L 243 163 L 199 163 Z M 199 161 "/>
</clipPath>
<clipPath id="clip118">
  <path d="M 199.667969 161.34375 L 241.691406 161.34375 C 242.015625 161.34375 242.277344 161.609375 242.277344 161.929688 C 242.277344 162.253906 242.015625 162.519531 241.691406 162.519531 L 199.667969 162.519531 C 199.34375 162.519531 199.082031 162.253906 199.082031 161.929688 C 199.082031 161.609375 199.34375 161.34375 199.667969 161.34375 Z M 199.667969 161.34375 "/>
</clipPath>
<clipPath id="clip120">
  <path d="M 0.667969 0.34375 L 42.691406 0.34375 C 43.015625 0.34375 43.277344 0.609375 43.277344 0.929688 C 43.277344 1.253906 43.015625 1.519531 42.691406 1.519531 L 0.667969 1.519531 C 0.34375 1.519531 0.0820312 1.253906 0.0820312 0.929688 C 0.0820312 0.609375 0.34375 0.34375 0.667969 0.34375 Z M 0.667969 0.34375 "/>
</clipPath>
<clipPath id="clip119">
  <rect x="0" y="0" width="44" height="2"/>
</clipPath>
<g id="surface80" clip-path="url(#clip119)">
<g clip-path="url(#clip120)" clip-rule="evenodd">
<rect x="0" y="0" width="44" height="2" style="fill:rgb(100%,54.118347%,50.196838%);fill-opacity:0.3;stroke:none;"/>
</g>
</g>
<clipPath id="clip121">
  <path d="M 86 98 L 129 98 L 129 128 L 86 128 Z M 86 98 "/>
</clipPath>
<clipPath id="clip122">
  <path d="M 94.472656 127.8125 L 93.953125 127.804688 L 95.503906 118.785156 L 86.625 115.109375 L 114.605469 98.953125 L 128.558594 108.132812 Z M 94.472656 127.8125 "/>
</clipPath>
<clipPath id="clip124">
  <path d="M 8.472656 29.8125 L 7.953125 29.804688 L 9.503906 20.785156 L 0.625 17.109375 L 28.605469 0.953125 L 42.558594 10.132812 Z M 8.472656 29.8125 "/>
</clipPath>
<clipPath id="clip123">
  <rect x="0" y="0" width="43" height="30"/>
</clipPath>
<g id="surface83" clip-path="url(#clip123)">
<g clip-path="url(#clip124)" clip-rule="evenodd">
<rect x="0" y="0" width="43" height="30" style="fill:rgb(92.156982%,82.745361%,81.96106%);fill-opacity:1;stroke:none;"/>
</g>
</g>
<clipPath id="clip125">
  <path d="M 94 108 L 142 108 L 142 148 L 94 148 Z M 94 108 "/>
</clipPath>
<clipPath id="clip126">
  <path d="M 112.378906 147.636719 L 105.65625 143.390625 L 100.058594 141.886719 L 100.671875 134.757812 L 100.78125 127.925781 L 94.472656 127.8125 L 128.558594 108.132812 L 141.617188 130.753906 Z M 112.378906 147.636719 "/>
</clipPath>
<clipPath id="clip128">
  <path d="M 18.378906 39.636719 L 11.65625 35.390625 L 6.058594 33.886719 L 6.671875 26.757812 L 6.78125 19.925781 L 0.472656 19.8125 L 34.558594 0.132812 L 47.617188 22.753906 Z M 18.378906 39.636719 "/>
</clipPath>
<clipPath id="clip127">
  <rect x="0" y="0" width="48" height="40"/>
</clipPath>
<g id="surface86" clip-path="url(#clip127)">
<g clip-path="url(#clip128)" clip-rule="evenodd">
<rect x="0" y="0" width="48" height="40" style="fill:rgb(94.509888%,85.098267%,84.313965%);fill-opacity:1;stroke:none;"/>
</g>
</g>
<clipPath id="clip129">
  <path d="M 100 130 L 115 130 L 115 148 L 100 148 Z M 100 130 "/>
</clipPath>
<clipPath id="clip130">
  <path d="M 112.378906 147.636719 L 105.65625 143.390625 L 100.058594 141.886719 L 100.671875 134.757812 L 100.703125 132.832031 L 104.714844 130.519531 L 114.042969 146.675781 Z M 112.378906 147.636719 "/>
</clipPath>
<clipPath id="clip132">
  <path d="M 12.378906 17.636719 L 5.65625 13.390625 L 0.0585938 11.886719 L 0.671875 4.757812 L 0.703125 2.832031 L 4.714844 0.519531 L 14.042969 16.675781 Z M 12.378906 17.636719 "/>
</clipPath>
<clipPath id="clip131">
  <rect x="0" y="0" width="15" height="18"/>
</clipPath>
<g id="surface89" clip-path="url(#clip131)">
<g clip-path="url(#clip132)" clip-rule="evenodd">
<rect x="0" y="0" width="15" height="18" style="fill:rgb(92.156982%,82.745361%,81.96106%);fill-opacity:1;stroke:none;"/>
</g>
</g>
<clipPath id="clip133">
  <path d="M 116 121 L 122 121 L 122 127 L 116 127 Z M 116 121 "/>
</clipPath>
<clipPath id="clip134">
  <path d="M 116.878906 123.492188 L 120.125 121.621094 L 121.988281 124.851562 L 118.746094 126.726562 Z M 116.878906 123.492188 "/>
</clipPath>
<clipPath id="clip136">
  <path d="M 0.878906 2.492188 L 4.125 0.621094 L 5.988281 3.851562 L 2.746094 5.726562 Z M 0.878906 2.492188 "/>
</clipPath>
<clipPath id="clip137">
  <path d="M -5.949219 0.664062 L 5.953125 -6.210938 L 12.820312 5.683594 L 0.914062 12.554688 Z M -5.949219 0.664062 "/>
</clipPath>
<clipPath id="clip135">
  <rect x="0" y="0" width="6" height="6"/>
</clipPath>
<g id="surface92" clip-path="url(#clip135)">
<g clip-path="url(#clip136)" clip-rule="evenodd">
<g clip-path="url(#clip137)" clip-rule="evenodd">
<rect x="0" y="0" width="6" height="6" style="fill:rgb(92.156982%,82.745361%,81.96106%);fill-opacity:1;stroke:none;"/>
</g>
</g>
</g>
<clipPath id="clip138">
  <path d="M 119 125 L 125 125 L 125 131 L 119 131 Z M 119 125 "/>
</clipPath>
<clipPath id="clip139">
  <path d="M 119.210938 127.535156 L 122.457031 125.660156 L 124.320312 128.890625 L 121.078125 130.765625 Z M 119.210938 127.535156 "/>
</clipPath>
<clipPath id="clip141">
  <path d="M 0.210938 2.535156 L 3.457031 0.660156 L 5.320312 3.890625 L 2.078125 5.765625 Z M 0.210938 2.535156 "/>
</clipPath>
<clipPath id="clip142">
  <path d="M -6.617188 0.703125 L 5.285156 -6.167969 L 12.152344 5.722656 L 0.246094 12.59375 Z M -6.617188 0.703125 "/>
</clipPath>
<clipPath id="clip140">
  <rect x="0" y="0" width="6" height="6"/>
</clipPath>
<g id="surface95" clip-path="url(#clip140)">
<g clip-path="url(#clip141)" clip-rule="evenodd">
<g clip-path="url(#clip142)" clip-rule="evenodd">
<rect x="0" y="0" width="6" height="6" style="fill:rgb(92.156982%,82.745361%,81.96106%);fill-opacity:1;stroke:none;"/>
</g>
</g>
</g>
<clipPath id="clip143">
  <path d="M 120 119 L 127 119 L 127 125 L 120 125 Z M 120 119 "/>
</clipPath>
<clipPath id="clip144">
  <path d="M 120.933594 121.152344 L 124.179688 119.28125 L 126.046875 122.511719 L 122.800781 124.382812 Z M 120.933594 121.152344 "/>
</clipPath>
<clipPath id="clip146">
  <path d="M 0.933594 2.152344 L 4.179688 0.28125 L 6.046875 3.511719 L 2.800781 5.382812 Z M 0.933594 2.152344 "/>
</clipPath>
<clipPath id="clip147">
  <path d="M -5.894531 0.324219 L 6.007812 -6.550781 L 12.875 5.339844 L 0.96875 12.214844 Z M -5.894531 0.324219 "/>
</clipPath>
<clipPath id="clip145">
  <rect x="0" y="0" width="7" height="6"/>
</clipPath>
<g id="surface98" clip-path="url(#clip145)">
<g clip-path="url(#clip146)" clip-rule="evenodd">
<g clip-path="url(#clip147)" clip-rule="evenodd">
<rect x="0" y="0" width="7" height="6" style="fill:rgb(92.156982%,82.745361%,81.96106%);fill-opacity:1;stroke:none;"/>
</g>
</g>
</g>
<clipPath id="clip148">
  <path d="M 123 123 L 129 123 L 129 129 L 123 129 Z M 123 123 "/>
</clipPath>
<clipPath id="clip149">
  <path d="M 123.265625 125.191406 L 126.511719 123.320312 L 128.378906 126.550781 L 125.132812 128.425781 Z M 123.265625 125.191406 "/>
</clipPath>
<clipPath id="clip151">
  <path d="M 0.265625 2.191406 L 3.511719 0.320312 L 5.378906 3.550781 L 2.132812 5.425781 Z M 0.265625 2.191406 "/>
</clipPath>
<clipPath id="clip152">
  <path d="M -6.5625 0.363281 L 5.339844 -6.511719 L 12.207031 5.382812 L 0.304688 12.253906 Z M -6.5625 0.363281 "/>
</clipPath>
<clipPath id="clip150">
  <rect x="0" y="0" width="6" height="6"/>
</clipPath>
<g id="surface101" clip-path="url(#clip150)">
<g clip-path="url(#clip151)" clip-rule="evenodd">
<g clip-path="url(#clip152)" clip-rule="evenodd">
<rect x="0" y="0" width="6" height="6" style="fill:rgb(92.156982%,82.745361%,81.96106%);fill-opacity:1;stroke:none;"/>
</g>
</g>
</g>
<clipPath id="clip153">
  <path d="M 140 232 L 202 232 L 202 243 L 140 243 Z M 140 232 "/>
</clipPath>
<clipPath id="clip154">
  <path d="M 142 232 L 200 232 C 201.105469 232 202 232.894531 202 234 L 202 241 C 202 242.105469 201.105469 243 200 243 L 142 243 C 140.894531 243 140 242.105469 140 241 L 140 234 C 140 232.894531 140.894531 232 142 232 Z M 142 232 "/>
</clipPath>
<clipPath id="clip155">
  <path d="M 114 184 L 224 184 L 224 196 L 114 196 Z M 114 184 "/>
</clipPath>
<clipPath id="clip156">
  <path d="M 116 184 L 222 184 C 223.105469 184 224 184.894531 224 186 L 224 194 C 224 195.105469 223.105469 196 222 196 L 116 196 C 114.894531 196 114 195.105469 114 194 L 114 186 C 114 184.894531 114.894531 184 116 184 Z M 116 184 "/>
</clipPath>
<clipPath id="clip157">
  <path d="M 144 200 L 194 200 L 194 212 L 144 212 Z M 144 200 "/>
</clipPath>
<clipPath id="clip158">
  <path d="M 146 200 L 192 200 C 193.105469 200 194 200.894531 194 202 L 194 210 C 194 211.105469 193.105469 212 192 212 L 146 212 C 144.894531 212 144 211.105469 144 210 L 144 202 C 144 200.894531 144.894531 200 146 200 Z M 146 200 "/>
</clipPath>
</defs>
<g id="surface1">
<g clip-path="url(#clip1)" clip-rule="nonzero">
<g clip-path="url(#clip2)" clip-rule="evenodd">
<use xlink:href="#surface5" transform="matrix(1,0,0,1,0,91)"/>
</g>
</g>
<g clip-path="url(#clip5)" clip-rule="nonzero">
<g clip-path="url(#clip6)" clip-rule="evenodd">
<use xlink:href="#surface8" transform="matrix(1,0,0,1,43,0)"/>
</g>
</g>
<g clip-path="url(#clip9)" clip-rule="nonzero">
<g clip-path="url(#clip10)" clip-rule="evenodd">
<use xlink:href="#surface11" transform="matrix(1,0,0,1,59,12)"/>
</g>
</g>
<g clip-path="url(#clip13)" clip-rule="nonzero">
<g clip-path="url(#clip14)" clip-rule="evenodd">
<use xlink:href="#surface14" transform="matrix(1,0,0,1,70,275)"/>
</g>
</g>
<g clip-path="url(#clip17)" clip-rule="nonzero">
<g clip-path="url(#clip18)" clip-rule="evenodd">
<use xlink:href="#surface17" transform="matrix(1,0,0,1,174,275)"/>
</g>
</g>
<g clip-path="url(#clip21)" clip-rule="nonzero">
<g clip-path="url(#clip22)" clip-rule="evenodd">
<use xlink:href="#surface20" transform="matrix(1,0,0,1,134,31)"/>
</g>
</g>
<g clip-path="url(#clip25)" clip-rule="nonzero">
<g clip-path="url(#clip26)" clip-rule="evenodd">
<use xlink:href="#surface23" transform="matrix(1,0,0,1,126,219)"/>
</g>
</g>
<g clip-path="url(#clip29)" clip-rule="nonzero">
<g clip-path="url(#clip30)" clip-rule="evenodd">
<use xlink:href="#surface26" transform="matrix(1,0,0,1,71,63)"/>
</g>
</g>
<g clip-path="url(#clip33)" clip-rule="nonzero">
<g clip-path="url(#clip34)" clip-rule="evenodd">
<use xlink:href="#surface29" transform="matrix(1,0,0,1,160,82)"/>
</g>
</g>
<g clip-path="url(#clip38)" clip-rule="nonzero">
<g clip-path="url(#clip39)" clip-rule="evenodd">
<use xlink:href="#surface32" transform="matrix(1,0,0,1,169,76)"/>
</g>
</g>
<g clip-path="url(#clip43)" clip-rule="nonzero">
<g clip-path="url(#clip44)" clip-rule="evenodd">
<use xlink:href="#surface35" transform="matrix(1,0,0,1,178,79)"/>
</g>
</g>
<g clip-path="url(#clip48)" clip-rule="nonzero">
<g clip-path="url(#clip49)" clip-rule="evenodd">
<use xlink:href="#surface38" transform="matrix(1,0,0,1,242,124)"/>
</g>
</g>
<g clip-path="url(#clip53)" clip-rule="nonzero">
<g clip-path="url(#clip54)" clip-rule="evenodd">
<use xlink:href="#surface41" transform="matrix(1,0,0,1,236,128)"/>
</g>
</g>
<g clip-path="url(#clip58)" clip-rule="nonzero">
<g clip-path="url(#clip59)" clip-rule="evenodd">
<use xlink:href="#surface44" transform="matrix(1,0,0,1,221,125)"/>
</g>
</g>
<g clip-path="url(#clip63)" clip-rule="nonzero">
<g clip-path="url(#clip64)" clip-rule="evenodd">
<use xlink:href="#surface47" transform="matrix(1,0,0,1,202,141)"/>
</g>
</g>
<g clip-path="url(#clip68)" clip-rule="nonzero">
<g clip-path="url(#clip69)" clip-rule="evenodd">
<use xlink:href="#surface50" transform="matrix(1,0,0,1,227,140)"/>
</g>
</g>
<g clip-path="url(#clip73)" clip-rule="nonzero">
<g clip-path="url(#clip74)" clip-rule="evenodd">
<use xlink:href="#surface53" transform="matrix(1,0,0,1,199,151)"/>
</g>
</g>
<g clip-path="url(#clip78)" clip-rule="nonzero">
<g clip-path="url(#clip79)" clip-rule="evenodd">
<use xlink:href="#surface56" transform="matrix(1,0,0,1,225,152)"/>
</g>
</g>
<g clip-path="url(#clip83)" clip-rule="nonzero">
<g clip-path="url(#clip84)" clip-rule="evenodd">
<use xlink:href="#surface59" transform="matrix(1,0,0,1,218,130)"/>
</g>
</g>
<g clip-path="url(#clip88)" clip-rule="nonzero">
<g clip-path="url(#clip89)" clip-rule="evenodd">
<use xlink:href="#surface62" transform="matrix(1,0,0,1,241,111)"/>
</g>
</g>
<g clip-path="url(#clip93)" clip-rule="nonzero">
<g clip-path="url(#clip94)" clip-rule="evenodd">
<use xlink:href="#surface65" transform="matrix(1,0,0,1,238,114)"/>
</g>
</g>
<g clip-path="url(#clip98)" clip-rule="nonzero">
<g clip-path="url(#clip99)" clip-rule="evenodd">
<use xlink:href="#surface68" transform="matrix(1,0,0,1,228,115)"/>
</g>
</g>
<g clip-path="url(#clip103)" clip-rule="nonzero">
<g clip-path="url(#clip104)" clip-rule="evenodd">
<use xlink:href="#surface71" transform="matrix(1,0,0,1,221,116)"/>
</g>
</g>
<g clip-path="url(#clip108)" clip-rule="nonzero">
<g clip-path="url(#clip109)" clip-rule="evenodd">
<use xlink:href="#surface74" transform="matrix(1,0,0,1,240,110)"/>
</g>
</g>
<g clip-path="url(#clip113)" clip-rule="nonzero">
<g clip-path="url(#clip114)" clip-rule="evenodd">
<use xlink:href="#surface77" transform="matrix(1,0,0,1,243,112)"/>
</g>
</g>
<path style="fill:none;stroke-width:0.589333;stroke-linecap:butt;stroke-linejoin:miter;stroke:rgb(100%,100%,100%);stroke-opacity:1;stroke-miterlimit:10;" d="M 0.948537 -0.00166875 L 1.792287 1.693644 C 2.026662 2.162394 1.835256 2.7288 1.370412 2.963175 C 1.2376 3.029581 1.093069 3.064738 0.944631 3.064738 C 0.4251 3.064738 -0.00068125 2.638956 -0.00068125 2.115519 C -0.00068125 1.970988 0.034475 1.826456 0.100881 1.693644 Z M 0.948537 -0.00166875 " transform="matrix(1,0,0,1,243.8874,112.2087)"/>
<g clip-path="url(#clip117)" clip-rule="nonzero">
<g clip-path="url(#clip118)" clip-rule="evenodd">
<use xlink:href="#surface80" transform="matrix(1,0,0,1,199,161)"/>
</g>
</g>
<path style="fill:none;stroke-width:0.589333;stroke-linecap:round;stroke-linejoin:miter;stroke:rgb(97.647095%,98.039246%,98.823547%);stroke-opacity:1;stroke-miterlimit:10;" d="M 15.545206 0.5014 L -0.00166875 0.5014 " transform="matrix(1,0,0,1,202.9587,121.2486)"/>
<path style="fill:none;stroke-width:0.589333;stroke-linecap:round;stroke-linejoin:miter;stroke:rgb(97.647095%,98.039246%,98.823547%);stroke-opacity:1;stroke-miterlimit:10;" d="M 16.663519 0.49805 L -0.00054375 0.49805 " transform="matrix(1,0,0,1,197.0357,125.3457)"/>
<path style="fill:none;stroke-width:0.589333;stroke-linecap:round;stroke-linejoin:miter;stroke:rgb(97.647095%,98.039246%,98.823547%);stroke-opacity:1;stroke-miterlimit:10;" d="M 14.958806 0.501475 L 0.001775 0.501475 " transform="matrix(1,0,0,1,201.2326,142.6079)"/>
<g clip-path="url(#clip121)" clip-rule="nonzero">
<g clip-path="url(#clip122)" clip-rule="evenodd">
<use xlink:href="#surface83" transform="matrix(1,0,0,1,86,98)"/>
</g>
</g>
<g clip-path="url(#clip125)" clip-rule="nonzero">
<g clip-path="url(#clip126)" clip-rule="evenodd">
<use xlink:href="#surface86" transform="matrix(1,0,0,1,94,108)"/>
</g>
</g>
<g clip-path="url(#clip129)" clip-rule="nonzero">
<g clip-path="url(#clip130)" clip-rule="evenodd">
<use xlink:href="#surface89" transform="matrix(1,0,0,1,100,130)"/>
</g>
</g>
<g clip-path="url(#clip133)" clip-rule="nonzero">
<g clip-path="url(#clip134)" clip-rule="evenodd">
<use xlink:href="#surface92" transform="matrix(1,0,0,1,116,121)"/>
</g>
</g>
<g clip-path="url(#clip138)" clip-rule="nonzero">
<g clip-path="url(#clip139)" clip-rule="evenodd">
<use xlink:href="#surface95" transform="matrix(1,0,0,1,119,125)"/>
</g>
</g>
<g clip-path="url(#clip143)" clip-rule="nonzero">
<g clip-path="url(#clip144)" clip-rule="evenodd">
<use xlink:href="#surface98" transform="matrix(1,0,0,1,120,119)"/>
</g>
</g>
<g clip-path="url(#clip148)" clip-rule="nonzero">
<g clip-path="url(#clip149)" clip-rule="evenodd">
<use xlink:href="#surface101" transform="matrix(1,0,0,1,123,123)"/>
</g>
</g>
<g clip-path="url(#clip153)" clip-rule="nonzero">
<g clip-path="url(#clip154)" clip-rule="evenodd">
<path style=" stroke:none;fill-rule:nonzero;fill:rgb(100%,100%,100%);fill-opacity:0.2;" d="M 135 227 L 207 227 L 207 248 L 135 248 Z M 135 227 "/>
</g>
</g>
<g clip-path="url(#clip155)" clip-rule="nonzero">
<g clip-path="url(#clip156)" clip-rule="evenodd">
<path style=" stroke:none;fill-rule:nonzero;fill:rgb(31.37207%,31.37207%,31.37207%);fill-opacity:1;" d="M 109 179 L 229 179 L 229 201 L 109 201 Z M 109 179 "/>
</g>
</g>
<g clip-path="url(#clip157)" clip-rule="nonzero">
<g clip-path="url(#clip158)" clip-rule="evenodd">
<path style=" stroke:none;fill-rule:nonzero;fill:rgb(31.37207%,31.37207%,31.37207%);fill-opacity:1;" d="M 139 195 L 199 195 L 199 217 L 139 217 Z M 139 195 "/>
</g>
</g>
</g>
</svg>
