<svg width="343" height="300" xmlns="http://www.w3.org/2000/svg"><defs><linearGradient x1="63.177%" y1="50.411%" x2="63.177%" y2="50.378%" id="a"><stop stop-color="#5B1BE6" offset="0%"/><stop stop-color="#0F007A" offset="90.774%"/><stop stop-color="#0F007A" offset="100%"/><stop stop-color="#0F007A" offset="100%"/></linearGradient><linearGradient x1="63.177%" y1="50.009%" x2="63.177%" y2="50.009%" id="b"><stop stop-color="#2AF3C1" offset="0%"/><stop offset="36.365%"/><stop stop-color="#16D4A5" offset="100%"/></linearGradient></defs><g fill="none" fill-rule="evenodd"><path d="M171.5 300C289.644 300 343 224 343 181.5S233.55 63 138.833 63 0 146.054 0 211.5 53.356 300 171.5 300z" fill="#FAD80E"/><path d="M79 0h186c17.673 0 32 14.327 32 32v60h2a2 2 0 012 2v76a2 2 0 01-2 2h-2v88.475C268.896 282.945 227.468 300 171.5 300c-55.307 0-96.417-5.052-124.5-17.14V180h-2a2 2 0 01-2-2v-36a2 2 0 012-2h2v-8h-2a2 2 0 01-2-2V94a2 2 0 012-2h2V32C47 14.327 61.327 0 79 0z" fill="#141033"/><path d="M285 269.176C257.549 287.203 219.979 300 171.5 300c-47.893 0-85.139-3.788-112.5-12.654V36c0-13.255 10.745-24 24-24h178c13.255 0 24 10.745 24 24v233.176z" fill="#FFF"/><g transform="translate(83 32)"><path fill="url(#a)" d="M156.854 78l16.423-39-16.423-39H17.107l16.422 39-16.422 39z" transform="rotate(90 48 80)"/><path fill="#7F4AF4" d="M127.181 48.967l.819-.343v.686L88.7 65.732 50 49.31v-.686l.806.343L88.7 65.047z"/><path fill="#7F4AF4" d="M127.181 61.701l.819-.343v.685L88.7 78.466 50 62.043v-.685l.806.343L88.7 77.781z"/><path fill="#7F4AF4" d="M127.181 74.435l.819-.343v.685L88.7 91.2 50 74.777v-.685l.806.343L88.7 90.515z"/><path fill="#7F4AF4" d="M127.181 87.17l.819-.344v.685l-39.3 16.423L50 87.51v-.685l.806.343L88.7 103.25z"/><path fill="#7F4AF4" d="M127.181 99.903l.819-.343v.685l-39.3 16.423L50 100.245v-.685l.806.343 37.894 16.08z"/><path fill="#7F4AF4" d="M127.181 112.637l.819-.343v.685l-39.3 16.423L50 112.979v-.685l.806.343 37.894 16.08z"/><path d="M80.66 77.655L96.936 39 80.659.345H16.793L32.731 39 16.793 77.655H80.66z" stroke="#1BE9B6" stroke-width=".69" fill="url(#b)" transform="rotate(90 48 80)"/><path fill="#1BE9B6" d="M88.7 32.342L128 48.765 88.7 65.187 50 48.765z"/><path d="M3.922 236.256c-2.142 0-3.374-1.246-3.906-2.646l1.988-.798c.434 1.05 1.064 1.61 2.002 1.61.672 0 1.288-.294 1.288-.98 0-.644-.56-1.008-1.218-1.176l-1.4-.364c-1.442-.392-2.366-1.386-2.366-2.8 0-1.848 1.596-2.982 3.598-2.982 1.708 0 3.164.826 3.668 2.534l-1.932.924c-.21-1.05-1.022-1.638-1.918-1.638-.7 0-1.386.364-1.386 1.12 0 .616.434.896.938 1.036l1.414.406c1.568.448 2.632 1.386 2.632 2.926 0 1.834-1.498 2.828-3.402 2.828zm7.896-6.608c1.624 0 3.024 1.344 3.024 3.234 0 1.526-.91 3.374-2.926 3.374-1.092 0-1.68-.546-1.764-.952v3.906H8.178v-9.45h1.974v.952c.098-.462.504-1.064 1.666-1.064zm-.406 1.666c-.686 0-1.316.434-1.316 1.666 0 1.218.616 1.61 1.33 1.61.966 0 1.372-.742 1.372-1.582 0-.91-.476-1.694-1.386-1.694zm4.214 4.83v-6.384h1.904v1.064c.196-.742.91-1.176 1.582-1.176.476 0 .952.21 1.176.462l-.952 1.61a1.116 1.116 0 00-.714-.266c-.56 0-1.022.476-1.022 1.596v3.094h-1.974zm5.082 0v-6.384h1.974v6.384h-1.974zm-.112-8.736c0-.686.434-1.12 1.078-1.12.686 0 1.12.434 1.12 1.12 0 .644-.434 1.078-1.12 1.078-.644 0-1.078-.434-1.078-1.078zm5.922 8.848c-1.624 0-3.024-1.344-3.024-3.234 0-1.526.91-3.374 2.926-3.374 1.092 0 1.68.546 1.764.952v-4.34h1.974v9.884h-1.974v-.952c-.098.462-.504 1.064-1.666 1.064zm.406-1.666c.686 0 1.316-.434 1.316-1.666 0-1.218-.616-1.61-1.33-1.61-.966 0-1.372.742-1.372 1.582 0 .91.476 1.694 1.386 1.694zm7.658 1.554v-9.884h2.072v3.962h4.186v-3.962h2.072v9.884H40.84v-4.06h-4.186v4.06h-2.072zm12.418.112c-2.128 0-3.22-1.428-3.22-3.248 0-1.75 1.022-3.388 3.248-3.36 1.54.014 3.416.826 3.122 3.766h-4.396c.084.924.714 1.176 1.274 1.176s.91-.252 1.092-.672l1.694.868c-.448.854-1.414 1.47-2.814 1.47zm-1.246-4.046h2.604c.014-.532-.476-.994-1.26-.994-.742 0-1.218.42-1.344.994zm8.078 4.046c-1.624 0-3.024-1.344-3.024-3.234 0-1.526.91-3.374 2.926-3.374 1.092 0 1.68.546 1.764.952v-4.34h1.974v9.884h-1.974v-.952c-.098.462-.504 1.064-1.666 1.064zm.406-1.666c.686 0 1.316-.434 1.316-1.666 0-1.218-.616-1.61-1.33-1.61-.966 0-1.372.742-1.372 1.582 0 .91.476 1.694 1.386 1.694zm6.342 1.554l-2.548-6.384h2.114l1.246 3.57 1.33-3.57h2.086l-2.562 6.384H60.58zm4.452 0v-6.384h1.974v6.384h-1.974zm-.112-8.736c0-.686.434-1.12 1.078-1.12.686 0 1.12.434 1.12 1.12 0 .644-.434 1.078-1.12 1.078-.644 0-1.078-.434-1.078-1.078zm6.216 12.012c-2.058 0-3.36-.826-3.36-2.128 0-.742.434-1.064.644-1.204-.322-.294-.448-.574-.448-.966 0-.784.518-1.148.966-1.4a2.23 2.23 0 01-.616-1.582c0-1.414 1.12-2.492 3.08-2.492.546 0 1.05.084 1.414.224.462-.462 1.246-.742 1.778-.616v1.344c-.154-.112-.532-.168-.742-.042.406.476.56 1.064.56 1.652 0 1.596-1.12 2.45-3.066 2.45-.602 0-1.204-.098-1.708-.406a.524.524 0 00-.21.434c0 .364.294.588.882.588h1.638c1.526 0 2.562.7 2.562 1.876 0 1.134-.966 2.268-3.374 2.268zm.266-6.16c.672 0 1.092-.392 1.092-1.008s-.406-1.078-1.092-1.078c-.7 0-1.162.476-1.162 1.064 0 .602.462 1.022 1.162 1.022zm-.336 4.62c1.162 0 1.526-.322 1.526-.7 0-.252-.196-.35-.784-.35h-1.316c-.406 0-.602-.028-.854-.07a.454.454 0 00-.112.322c0 .588.588.798 1.54.798zm10.724-1.624c-2.562 0-3.444-1.876-3.444-3.332 0-1.778 1.316-3.276 3.444-3.276 2.114 0 3.43 1.498 3.43 3.29 0 1.456-.882 3.318-3.43 3.318zm0-1.666c.882 0 1.386-.798 1.386-1.624 0-.742-.406-1.652-1.386-1.652-.98 0-1.4.91-1.4 1.652 0 .826.518 1.624 1.4 1.624zm7.616 1.666c-2.366 0-3.43-1.722-3.43-3.332 0-1.61 1.05-3.276 3.5-3.276 1.792 0 2.646.882 2.996 1.89l-1.792.784c-.168-.672-.616-1.008-1.274-1.008-1.246 0-1.386 1.19-1.386 1.624 0 .672.35 1.652 1.428 1.652.28 0 .854-.07 1.176-.77l1.694.854c-.462.994-1.526 1.582-2.912 1.582zm3.64-.112v-9.884h1.974v4.298c.056-.252.462-.91 1.722-.91 1.568 0 2.254 1.022 2.254 3.024v3.472h-1.974v-3.402c0-1.106-.28-1.428-.882-1.428-.616 0-1.12.35-1.12 1.414v3.416h-1.974zm12.53.112c-1.26 0-2.296-.518-2.772-1.498l1.568-.826c.266.518.77.728 1.204.728.364 0 .742-.154.742-.504 0-.476-.728-.532-1.33-.63-.812-.14-1.946-.532-1.946-1.862 0-1.358 1.19-2.016 2.674-2.016 1.232 0 2.212.462 2.618 1.596l-1.512.728c-.182-.602-.728-.798-1.148-.798-.392 0-.63.168-.63.476 0 .476.616.546 1.092.63.98.182 2.184.644 2.184 1.974 0 1.428-1.414 2.002-2.744 2.002zm5.39 0c-1.26 0-2.184-.672-2.184-1.834 0-.91.574-1.526 2.296-1.848l.588-.112c.616-.112.868-.252.868-.602 0-.49-.588-.546-.896-.546-.896 0-1.134.518-1.274.868l-1.638-.77c.028-.168.616-1.764 2.996-1.764 1.54 0 2.786.644 2.786 2.296v2.408c0 .252.112.308.266.308a.9.9 0 00.308-.056v1.54a5.56 5.56 0 01-.784.056c-.812 0-1.344-.224-1.526-.994-.028.098-.336 1.05-1.806 1.05zm.532-1.526c.672 0 1.036-.504 1.036-1.456-.14.14-.476.21-.952.322-.49.112-.798.224-.798.588s.308.546.714.546zm-1.974-7.028c0-.588.378-.966.966-.966s.966.378.966.966-.378.966-.966.966-.966-.378-.966-.966zm2.8 0c0-.588.378-.966.966-.966s.966.378.966.966-.378.966-.966.966-.966-.378-.966-.966zm3.514 8.442v-6.384h1.904v.938c.056-.294.476-1.05 1.806-1.05 1.554 0 2.24 1.036 2.24 3.024v3.472h-1.974v-3.402c0-1.106-.28-1.428-.882-1.428-.616 0-1.12.35-1.12 1.414v3.416h-1.974zm7.098 0v-9.884h1.974v5.334l2.184-1.834h2.688l-2.982 2.618 2.324 3.766H126.8l-1.456-2.478-.434.378v2.1h-1.974zm13.132.112c-1.624 0-3.024-1.344-3.024-3.234 0-1.526.91-3.374 2.926-3.374 1.092 0 1.68.546 1.764.952v-4.34h1.974v9.884h-1.974v-.952c-.098.462-.504 1.064-1.666 1.064zm.406-1.666c.686 0 1.316-.434 1.316-1.666 0-1.218-.616-1.61-1.33-1.61-.966 0-1.372.742-1.372 1.582 0 .91.476 1.694 1.386 1.694zm4.228 1.554v-6.384h1.974v6.384h-1.974zm-.112-8.736c0-.686.434-1.12 1.078-1.12.686 0 1.12.434 1.12 1.12 0 .644-.434 1.078-1.12 1.078-.644 0-1.078-.434-1.078-1.078zm5.866 8.848c-1.428 0-2.016-.826-2.016-2.604v-2.282h-1.162v-1.61h1.162v-1.834l1.974-.882v2.716h1.89v1.61h-1.89v2.296c0 .462-.028.924.28.924.252 0 .336-.28.378-.434l1.456.7c-.322 1.022-1.106 1.4-2.072 1.4zm5.026 0c-1.428 0-2.016-.826-2.016-2.604v-2.282h-1.162v-1.61h1.162v-1.834l1.974-.882v2.716h1.89v1.61h-1.89v2.296c0 .462-.028.924.28.924.252 0 .336-.28.378-.434l1.456.7c-.322 1.022-1.106 1.4-2.072 1.4zm9.408-6.608c1.624 0 3.024 1.344 3.024 3.234 0 1.526-.91 3.374-2.926 3.374-1.092 0-1.68-.546-1.764-.952v3.906h-1.974v-9.45h1.974v.952c.098-.462.504-1.064 1.666-1.064zm-.406 1.666c-.686 0-1.316.434-1.316 1.666 0 1.218.616 1.61 1.33 1.61.966 0 1.372-.742 1.372-1.582 0-.91-.476-1.694-1.386-1.694zm4.214 4.83v-6.384h1.904v1.064c.196-.742.91-1.176 1.582-1.176.476 0 .952.21 1.176.462l-.952 1.61a1.116 1.116 0 00-.714-.266c-.56 0-1.022.476-1.022 1.596v3.094h-1.974zm5.082 0v-6.384h1.974v6.384h-1.974zm-.112-8.736c0-.686.434-1.12 1.078-1.12.686 0 1.12.434 1.12 1.12 0 .644-.434 1.078-1.12 1.078-.644 0-1.078-.434-1.078-1.078zm5.628 8.848c-1.26 0-2.296-.518-2.772-1.498l1.568-.826c.266.518.77.728 1.204.728.364 0 .742-.154.742-.504 0-.476-.728-.532-1.33-.63-.812-.14-1.946-.532-1.946-1.862 0-1.358 1.19-2.016 2.674-2.016 1.232 0 2.212.462 2.618 1.596l-1.512.728c-.182-.602-.728-.798-1.148-.798-.392 0-.63.168-.63.476 0 .476.616.546 1.092.63.98.182 2.184.644 2.184 1.974 0 1.428-1.414 2.002-2.744 2.002z" fill="#141033" fill-rule="nonzero"/><rect fill="#E9ECEF" x="53" width="72" height="12" rx="2.463"/><rect fill="#E9ECEF" x="144" width="40" height="12" rx="2.463"/></g></g></svg>