<?xml version="1.0" encoding="UTF-8"?>
<svg xmlns="http://www.w3.org/2000/svg" xmlns:xlink="http://www.w3.org/1999/xlink" width="343pt" height="300pt" viewBox="0 0 343 300" version="1.1">
<defs>
<clipPath id="clip1">
  <path d="M 0 91 L 343 91 L 343 300 L 0 300 Z M 0 91 "/>
</clipPath>
<clipPath id="clip2">
  <path d="M 172.300781 300 C 54.710938 300 -11.335938 259.023438 1.605469 211.546875 C 14.542969 164.074219 60.328125 209.046875 137.964844 131.089844 C 215.597656 53.132812 343 99.105469 343 181.5625 C 343 264.019531 289.894531 300 172.300781 300 Z M 172.300781 300 "/>
</clipPath>
<clipPath id="clip4">
  <path d="M 172.300781 209 C 54.710938 209 -11.335938 168.023438 1.605469 120.546875 C 14.542969 73.074219 60.328125 118.046875 137.964844 40.089844 C 215.597656 -37.867188 343 8.105469 343 90.5625 C 343 173.019531 289.894531 209 172.300781 209 Z M 172.300781 209 "/>
</clipPath>
<clipPath id="clip3">
  <rect x="0" y="0" width="343" height="209"/>
</clipPath>
<g id="surface5" clip-path="url(#clip3)">
<g clip-path="url(#clip4)" clip-rule="evenodd">
<rect x="0" y="0" width="343" height="209" style="fill:rgb(57.647705%,38.038635%,100%);fill-opacity:1;stroke:none;"/>
</g>
</g>
<clipPath id="clip5">
  <path d="M 43 0 L 301 0 L 301 300 L 43 300 Z M 43 0 "/>
</clipPath>
<clipPath id="clip6">
  <path d="M 297 274.792969 C 269.03125 291.964844 227.867188 300 172.300781 300 C 119.164062 300 76.554688 291.632812 47 278.078125 L 47 180 L 45 180 C 43.894531 180 43 179.105469 43 178 L 43 142 C 43 140.894531 43.894531 140 45 140 L 47 140 L 47 132 L 45 132 C 43.894531 132 43 131.105469 43 130 L 43 94 C 43 92.894531 43.894531 92 45 92 L 47 92 L 47 32 C 47 14.328125 61.328125 0 79 0 L 265 0 C 282.671875 0 297 14.328125 297 32 L 297 92 L 299 92 C 300.105469 92 301 92.894531 301 94 L 301 170 C 301 171.105469 300.105469 172 299 172 L 297 172 Z M 297 274.792969 "/>
</clipPath>
<clipPath id="clip8">
  <path d="M 254 274.792969 C 226.03125 291.964844 184.867188 300 129.300781 300 C 76.164062 300 33.554688 291.632812 4 278.078125 L 4 180 L 2 180 C 0.894531 180 0 179.105469 0 178 L 0 142 C 0 140.894531 0.894531 140 2 140 L 4 140 L 4 132 L 2 132 C 0.894531 132 0 131.105469 0 130 L 0 94 C 0 92.894531 0.894531 92 2 92 L 4 92 L 4 32 C 4 14.328125 18.328125 0 36 0 L 222 0 C 239.671875 0 254 14.328125 254 32 L 254 92 L 256 92 C 257.105469 92 258 92.894531 258 94 L 258 170 C 258 171.105469 257.105469 172 256 172 L 254 172 Z M 254 274.792969 "/>
</clipPath>
<clipPath id="clip7">
  <rect x="0" y="0" width="258" height="300"/>
</clipPath>
<g id="surface8" clip-path="url(#clip7)">
<g clip-path="url(#clip8)" clip-rule="evenodd">
<rect x="0" y="0" width="258" height="300" style="fill:rgb(11.764526%,11.764526%,11.764526%);fill-opacity:1;stroke:none;"/>
</g>
</g>
<clipPath id="clip9">
  <path d="M 59 12 L 285 12 L 285 300 L 59 300 Z M 59 12 "/>
</clipPath>
<clipPath id="clip10">
  <path d="M 285 281.226562 C 257.703125 293.980469 220.394531 300 172.300781 300 C 125.976562 300 87.648438 293.640625 59 283.027344 L 59 36 C 59 22.746094 69.746094 12 83 12 L 261 12 C 274.253906 12 285 22.746094 285 36 Z M 285 281.226562 "/>
</clipPath>
<clipPath id="clip12">
  <path d="M 226 269.226562 C 198.703125 281.980469 161.394531 288 113.300781 288 C 66.976562 288 28.648438 281.640625 0 271.027344 L 0 24 C 0 10.746094 10.746094 0 24 0 L 202 0 C 215.253906 0 226 10.746094 226 24 Z M 226 269.226562 "/>
</clipPath>
<clipPath id="clip11">
  <rect x="0" y="0" width="226" height="288"/>
</clipPath>
<g id="surface11" clip-path="url(#clip11)">
<g clip-path="url(#clip12)" clip-rule="evenodd">
<rect x="0" y="0" width="226" height="288" style="fill:rgb(0%,0%,0%);fill-opacity:1;stroke:none;"/>
</g>
</g>
<clipPath id="clip13">
  <path d="M 134 31 L 211 31 L 211 44 L 134 44 Z M 134 31 "/>
</clipPath>
<clipPath id="clip14">
  <path d="M 136.464844 31 L 207.890625 31 C 209.25 31 210.355469 32.101562 210.355469 33.464844 L 210.355469 40.851562 C 210.355469 42.210938 209.25 43.316406 207.890625 43.316406 L 136.464844 43.316406 C 135.101562 43.316406 134 42.210938 134 40.851562 L 134 33.464844 C 134 32.101562 135.101562 31 136.464844 31 Z M 136.464844 31 "/>
</clipPath>
<clipPath id="clip16">
  <path d="M 2.464844 0 L 73.890625 0 C 75.25 0 76.355469 1.101562 76.355469 2.464844 L 76.355469 9.851562 C 76.355469 11.210938 75.25 12.316406 73.890625 12.316406 L 2.464844 12.316406 C 1.101562 12.316406 0 11.210938 0 9.851562 L 0 2.464844 C 0 1.101562 1.101562 0 2.464844 0 Z M 2.464844 0 "/>
</clipPath>
<clipPath id="clip15">
  <rect x="0" y="0" width="77" height="13"/>
</clipPath>
<g id="surface14" clip-path="url(#clip15)">
<g clip-path="url(#clip16)" clip-rule="evenodd">
<rect x="0" y="0" width="77" height="13" style="fill:rgb(31.37207%,31.37207%,31.37207%);fill-opacity:1;stroke:none;"/>
</g>
</g>
<clipPath id="clip17">
  <path d="M 127 124 L 227 124 L 227 155 L 127 155 Z M 127 124 "/>
</clipPath>
<clipPath id="clip18">
  <path d="M 142 124 L 212 124 C 220.285156 124 227 130.714844 227 139 L 227 153 C 227 154.105469 226.105469 155 225 155 L 142 155 C 133.714844 155 127 148.285156 127 140 L 127 139 C 127 130.714844 133.714844 124 142 124 Z M 142 124 "/>
</clipPath>
<clipPath id="clip19">
  <path d="M 140 135 L 214 135 L 214 146 L 140 146 Z M 140 135 "/>
</clipPath>
<clipPath id="clip20">
  <path d="M 146.464844 143 L 145.484375 143 L 145.484375 139.851562 L 141.867188 139.851562 L 141.867188 143 L 140.886719 143 L 140.886719 135.910156 L 141.867188 135.910156 L 141.867188 138.941406 L 145.484375 138.941406 L 145.484375 135.910156 L 146.464844 135.910156 Z M 148.894531 140.101562 L 151.527344 140.101562 C 151.511719 139.738281 151.394531 139.445312 151.164062 139.214844 C 150.9375 138.984375 150.621094 138.871094 150.207031 138.871094 C 149.832031 138.871094 149.527344 138.992188 149.285156 139.234375 C 149.046875 139.476562 148.914062 139.765625 148.894531 140.101562 Z M 151.664062 141.351562 L 152.476562 141.628906 C 152.335938 142.078125 152.074219 142.441406 151.695312 142.726562 C 151.316406 143.007812 150.855469 143.148438 150.316406 143.148438 C 149.640625 143.148438 149.070312 142.917969 148.601562 142.453125 C 148.132812 141.992188 147.894531 141.367188 147.894531 140.578125 C 147.894531 139.847656 148.121094 139.238281 148.574219 138.761719 C 149.027344 138.28125 149.570312 138.039062 150.195312 138.039062 C 150.921875 138.039062 151.488281 138.269531 151.894531 138.726562 C 152.300781 139.183594 152.507812 139.792969 152.507812 140.558594 C 152.507812 140.679688 152.5 140.78125 152.484375 140.859375 L 148.867188 140.859375 C 148.871094 141.285156 149.015625 141.636719 149.289062 141.910156 C 149.566406 142.183594 149.910156 142.320312 150.316406 142.320312 C 151.003906 142.320312 151.453125 141.996094 151.664062 141.351562 Z M 154.925781 145.011719 L 153.898438 145.011719 L 155.097656 142.46875 L 153.027344 138.191406 L 154.105469 138.191406 L 155.605469 141.511719 L 157.046875 138.191406 L 158.054688 138.191406 Z M 157.878906 142.359375 C 157.878906 142.179688 157.945312 142.023438 158.085938 141.890625 C 158.226562 141.757812 158.402344 141.691406 158.605469 141.691406 C 158.832031 141.691406 159.027344 141.773438 159.183594 141.941406 C 159.339844 142.105469 159.417969 142.339844 159.417969 142.640625 C 159.417969 143.238281 159.265625 143.703125 158.957031 144.03125 C 158.652344 144.355469 158.308594 144.542969 157.9375 144.589844 L 157.9375 144.070312 C 158.175781 144.015625 158.375 143.886719 158.527344 143.675781 C 158.679688 143.464844 158.761719 143.238281 158.765625 142.988281 C 158.71875 143.023438 158.648438 143.039062 158.546875 143.039062 C 158.355469 143.039062 158.195312 142.976562 158.066406 142.855469 C 157.941406 142.730469 157.878906 142.566406 157.878906 142.359375 Z M 164.757812 143 L 163.757812 143 L 163.757812 135.910156 L 164.757812 135.910156 Z M 166.179688 136.441406 C 166.179688 136.273438 166.242188 136.128906 166.375 136.003906 C 166.503906 135.882812 166.664062 135.820312 166.859375 135.820312 C 167.070312 135.820312 167.253906 135.898438 167.398438 136.050781 C 167.546875 136.203125 167.617188 136.421875 167.617188 136.699219 C 167.617188 137.261719 167.476562 137.691406 167.195312 138 C 166.910156 138.308594 166.59375 138.480469 166.238281 138.519531 L 166.238281 138.039062 C 166.457031 137.992188 166.640625 137.871094 166.785156 137.675781 C 166.925781 137.476562 167.003906 137.261719 167.007812 137.03125 C 166.960938 137.0625 166.894531 137.078125 166.808594 137.078125 C 166.628906 137.078125 166.480469 137.023438 166.359375 136.90625 C 166.238281 136.789062 166.179688 136.632812 166.179688 136.441406 Z M 169.46875 143 L 168.539062 143 L 168.539062 138.191406 L 169.4375 138.191406 L 169.4375 138.828125 C 169.585938 138.578125 169.792969 138.382812 170.058594 138.25 C 170.324219 138.117188 170.605469 138.050781 170.898438 138.050781 C 171.210938 138.050781 171.5 138.125 171.757812 138.28125 C 172.019531 138.433594 172.210938 138.660156 172.339844 138.960938 C 172.671875 138.351562 173.210938 138.050781 173.949219 138.050781 C 174.410156 138.050781 174.800781 138.207031 175.125 138.519531 C 175.449219 138.832031 175.609375 139.285156 175.609375 139.878906 L 175.609375 143 L 174.679688 143 L 174.679688 139.980469 C 174.679688 139.648438 174.59375 139.378906 174.425781 139.179688 C 174.253906 138.980469 174 138.878906 173.660156 138.878906 C 173.332031 138.878906 173.066406 138.996094 172.859375 139.226562 C 172.652344 139.453125 172.550781 139.742188 172.550781 140.089844 L 172.550781 143 L 171.609375 143 L 171.609375 139.980469 C 171.609375 139.648438 171.523438 139.378906 171.355469 139.179688 C 171.183594 138.980469 170.929688 138.878906 170.589844 138.878906 C 170.257812 138.878906 169.984375 138.992188 169.78125 139.21875 C 169.574219 139.445312 169.46875 139.738281 169.46875 140.101562 Z M 185.53125 143 L 184.550781 143 L 184.550781 139.851562 L 180.929688 139.851562 L 180.929688 143 L 179.949219 143 L 179.949219 135.910156 L 180.929688 135.910156 L 180.929688 138.941406 L 184.550781 138.941406 L 184.550781 135.910156 L 185.53125 135.910156 Z M 187.960938 140.101562 L 190.589844 140.101562 C 190.578125 139.738281 190.457031 139.445312 190.230469 139.214844 C 190.003906 138.984375 189.683594 138.871094 189.269531 138.871094 C 188.898438 138.871094 188.589844 138.992188 188.351562 139.234375 C 188.109375 139.476562 187.980469 139.765625 187.960938 140.101562 Z M 190.730469 141.351562 L 191.542969 141.628906 C 191.402344 142.078125 191.140625 142.441406 190.761719 142.726562 C 190.382812 143.007812 189.921875 143.148438 189.382812 143.148438 C 188.707031 143.148438 188.136719 142.917969 187.667969 142.453125 C 187.195312 141.992188 186.960938 141.367188 186.960938 140.578125 C 186.960938 139.847656 187.1875 139.238281 187.640625 138.761719 C 188.09375 138.28125 188.632812 138.039062 189.261719 138.039062 C 189.988281 138.039062 190.554688 138.269531 190.960938 138.726562 C 191.367188 139.183594 191.570312 139.792969 191.570312 140.558594 C 191.570312 140.679688 191.566406 140.78125 191.550781 140.859375 L 187.929688 140.859375 C 187.9375 141.285156 188.078125 141.636719 188.355469 141.910156 C 188.632812 142.183594 188.972656 142.320312 189.382812 142.320312 C 190.066406 142.320312 190.519531 141.996094 190.730469 141.351562 Z M 193.453125 140.578125 C 193.453125 141.085938 193.578125 141.5 193.828125 141.820312 C 194.078125 142.140625 194.421875 142.300781 194.863281 142.300781 C 195.28125 142.300781 195.617188 142.136719 195.871094 141.808594 C 196.125 141.484375 196.25 141.066406 196.25 140.558594 C 196.25 140.058594 196.128906 139.65625 195.882812 139.351562 C 195.636719 139.042969 195.296875 138.890625 194.871094 138.890625 C 194.445312 138.890625 194.101562 139.046875 193.84375 139.359375 C 193.582031 139.671875 193.453125 140.078125 193.453125 140.578125 Z M 196.261719 142.351562 L 196.261719 142.269531 C 196.136719 142.515625 195.945312 142.722656 195.6875 142.886719 C 195.429688 143.046875 195.125 143.128906 194.773438 143.128906 C 194.085938 143.128906 193.535156 142.886719 193.117188 142.40625 C 192.699219 141.921875 192.492188 141.3125 192.492188 140.578125 C 192.492188 139.878906 192.707031 139.285156 193.132812 138.796875 C 193.558594 138.304688 194.105469 138.058594 194.773438 138.058594 C 195.164062 138.058594 195.484375 138.136719 195.730469 138.296875 C 195.976562 138.453125 196.148438 138.644531 196.242188 138.871094 L 196.242188 135.761719 L 197.171875 135.761719 L 197.171875 142.109375 C 197.171875 142.4375 197.1875 142.734375 197.222656 143 L 196.3125 143 C 196.277344 142.8125 196.261719 142.597656 196.261719 142.351562 Z M 203.011719 138.191406 L 201.09375 143 L 200.140625 143 L 198.191406 138.191406 L 199.253906 138.191406 L 200.621094 141.898438 L 202.003906 138.191406 Z M 204.964844 143 L 204.03125 143 L 204.03125 138.191406 L 204.964844 138.191406 Z M 204.011719 136.851562 C 203.886719 136.714844 203.824219 136.558594 203.824219 136.371094 C 203.824219 136.183594 203.886719 136.023438 204.019531 135.890625 C 204.148438 135.757812 204.304688 135.691406 204.492188 135.691406 C 204.679688 135.691406 204.839844 135.753906 204.972656 135.886719 C 205.105469 136.015625 205.171875 136.175781 205.171875 136.371094 C 205.171875 136.558594 205.105469 136.714844 204.972656 136.84375 C 204.839844 136.976562 204.679688 137.039062 204.492188 137.039062 C 204.304688 137.039062 204.144531 136.976562 204.011719 136.851562 Z M 206.332031 143.261719 L 207.242188 143.050781 C 207.277344 143.390625 207.414062 143.671875 207.652344 143.894531 C 207.894531 144.117188 208.195312 144.230469 208.554688 144.230469 C 209.535156 144.230469 210.023438 143.710938 210.023438 142.671875 L 210.023438 141.980469 C 209.902344 142.214844 209.714844 142.402344 209.457031 142.550781 C 209.203125 142.695312 208.898438 142.769531 208.554688 142.769531 C 207.914062 142.769531 207.386719 142.550781 206.96875 142.113281 C 206.550781 141.679688 206.34375 141.121094 206.34375 140.441406 C 206.34375 139.78125 206.550781 139.226562 206.964844 138.773438 C 207.375 138.324219 207.90625 138.101562 208.554688 138.101562 C 209.285156 138.101562 209.78125 138.351562 210.035156 138.859375 L 210.035156 138.191406 L 210.964844 138.191406 L 210.964844 142.640625 C 210.964844 142.960938 210.921875 143.257812 210.839844 143.535156 C 210.753906 143.8125 210.625 144.066406 210.445312 144.300781 C 210.261719 144.535156 210.011719 144.714844 209.6875 144.851562 C 209.363281 144.984375 208.988281 145.050781 208.554688 145.050781 C 207.960938 145.050781 207.457031 144.882812 207.042969 144.546875 C 206.628906 144.207031 206.394531 143.78125 206.332031 143.261719 Z M 208.695312 141.980469 C 209.101562 141.980469 209.429688 141.839844 209.683594 141.554688 C 209.9375 141.273438 210.0625 140.898438 210.0625 140.441406 C 210.0625 139.980469 209.9375 139.609375 209.683594 139.324219 C 209.429688 139.042969 209.101562 138.898438 208.695312 138.898438 C 208.28125 138.898438 207.945312 139.039062 207.6875 139.320312 C 207.433594 139.601562 207.304688 139.972656 207.304688 140.441406 C 207.304688 140.914062 207.429688 141.289062 207.679688 141.566406 C 207.929688 141.839844 208.265625 141.980469 208.695312 141.980469 Z M 213.925781 135.910156 L 213.675781 140.96875 L 213.003906 140.96875 L 212.742188 135.910156 Z M 212.875 142.859375 C 212.746094 142.734375 212.683594 142.578125 212.683594 142.398438 C 212.683594 142.21875 212.746094 142.066406 212.875 141.933594 C 213 141.804688 213.152344 141.738281 213.335938 141.738281 C 213.515625 141.738281 213.667969 141.804688 213.800781 141.933594 C 213.929688 142.066406 213.992188 142.21875 213.992188 142.398438 C 213.992188 142.578125 213.929688 142.734375 213.800781 142.859375 C 213.667969 142.988281 213.515625 143.050781 213.335938 143.050781 C 213.152344 143.050781 213 142.988281 212.875 142.859375 Z M 212.875 142.859375 "/>
</clipPath>
<clipPath id="clip21">
  <path d="M 116 157 L 228 157 L 228 188 L 116 188 Z M 116 157 "/>
</clipPath>
<clipPath id="clip22">
  <path d="M 131 157 L 226 157 C 227.105469 157 228 157.894531 228 159 L 228 173 C 228 181.285156 221.285156 188 213 188 L 131 188 C 122.714844 188 116 181.285156 116 173 L 116 172 C 116 163.714844 122.714844 157 131 157 Z M 131 157 "/>
</clipPath>
<clipPath id="clip23">
  <path d="M 128 167 L 217 167 L 217 178 L 128 178 Z M 128 167 "/>
</clipPath>
<clipPath id="clip24">
  <path d="M 129.210938 175 L 128.210938 175 L 128.210938 167.910156 L 129.210938 167.910156 Z M 134.589844 172.21875 L 134.589844 175 L 133.652344 175 L 133.652344 170.191406 L 134.570312 170.191406 L 134.570312 170.878906 C 134.890625 170.328125 135.382812 170.050781 136.050781 170.050781 C 136.605469 170.050781 137.027344 170.226562 137.324219 170.578125 C 137.621094 170.933594 137.769531 171.390625 137.769531 171.949219 L 137.769531 175 L 136.832031 175 L 136.832031 172.109375 C 136.832031 171.304688 136.457031 170.898438 135.710938 170.898438 C 135.355469 170.898438 135.082031 171.023438 134.886719 171.273438 C 134.6875 171.523438 134.589844 171.839844 134.589844 172.21875 Z M 140.382812 173.859375 C 140.675781 174.160156 141.03125 174.308594 141.453125 174.308594 C 141.871094 174.308594 142.226562 174.160156 142.515625 173.855469 C 142.804688 173.550781 142.953125 173.128906 142.953125 172.589844 C 142.953125 172.058594 142.804688 171.636719 142.515625 171.335938 C 142.226562 171.03125 141.871094 170.878906 141.453125 170.878906 C 141.03125 170.878906 140.675781 171.03125 140.386719 171.335938 C 140.097656 171.636719 139.953125 172.058594 139.953125 172.589844 C 139.953125 173.128906 140.09375 173.554688 140.382812 173.859375 Z M 139.679688 170.769531 C 140.148438 170.285156 140.738281 170.039062 141.453125 170.039062 C 142.164062 170.039062 142.753906 170.28125 143.214844 170.765625 C 143.679688 171.25 143.910156 171.855469 143.910156 172.589844 C 143.910156 173.328125 143.679688 173.941406 143.222656 174.425781 C 142.761719 174.910156 142.171875 175.148438 141.453125 175.148438 C 140.730469 175.148438 140.140625 174.910156 139.679688 174.425781 C 139.222656 173.941406 138.992188 173.328125 138.992188 172.589844 C 138.992188 171.855469 139.222656 171.25 139.679688 170.769531 Z M 147.84375 170.191406 L 148.8125 170.191406 L 150.0625 173.808594 L 151.121094 170.191406 L 152.113281 170.191406 L 150.550781 175 L 149.582031 175 L 148.300781 171.339844 L 147.050781 175 L 146.0625 175 L 144.480469 170.191406 L 145.511719 170.191406 L 146.59375 173.808594 Z M 155.351562 173.75 L 156.203125 173.449219 C 156.234375 173.710938 156.347656 173.925781 156.542969 174.09375 C 156.734375 174.265625 156.996094 174.351562 157.324219 174.351562 C 157.578125 174.351562 157.777344 174.289062 157.921875 174.164062 C 158.070312 174.042969 158.144531 173.890625 158.144531 173.710938 C 158.144531 173.390625 157.9375 173.183594 157.523438 173.089844 L 156.703125 172.910156 C 156.328125 172.828125 156.035156 172.671875 155.824219 172.429688 C 155.609375 172.191406 155.503906 171.898438 155.503906 171.558594 C 155.503906 171.148438 155.671875 170.789062 156.007812 170.488281 C 156.34375 170.191406 156.746094 170.039062 157.214844 170.039062 C 157.519531 170.039062 157.792969 170.085938 158.03125 170.175781 C 158.273438 170.265625 158.460938 170.382812 158.59375 170.53125 C 158.726562 170.675781 158.828125 170.8125 158.894531 170.941406 C 158.960938 171.066406 159.007812 171.195312 159.042969 171.328125 L 158.214844 171.640625 C 158.199219 171.558594 158.175781 171.480469 158.144531 171.40625 C 158.109375 171.328125 158.058594 171.242188 157.988281 171.148438 C 157.917969 171.058594 157.816406 170.980469 157.683594 170.925781 C 157.550781 170.867188 157.394531 170.839844 157.214844 170.839844 C 156.980469 170.839844 156.789062 170.902344 156.636719 171.03125 C 156.488281 171.15625 156.414062 171.308594 156.414062 171.480469 C 156.414062 171.785156 156.597656 171.980469 156.964844 172.058594 L 157.742188 172.230469 C 158.167969 172.324219 158.496094 172.496094 158.726562 172.746094 C 158.957031 172.996094 159.074219 173.300781 159.074219 173.660156 C 159.074219 174.039062 158.917969 174.382812 158.609375 174.691406 C 158.296875 174.996094 157.867188 175.148438 157.3125 175.148438 C 156.71875 175.148438 156.257812 175 155.921875 174.703125 C 155.589844 174.410156 155.398438 174.089844 155.351562 173.75 Z M 161.375 176.898438 L 160.445312 176.898438 L 160.445312 170.191406 L 161.351562 170.191406 L 161.351562 170.941406 C 161.492188 170.6875 161.703125 170.480469 161.984375 170.320312 C 162.261719 170.160156 162.589844 170.078125 162.964844 170.078125 C 163.65625 170.078125 164.199219 170.316406 164.589844 170.789062 C 164.976562 171.261719 165.171875 171.863281 165.171875 172.589844 C 165.171875 173.324219 164.972656 173.929688 164.570312 174.410156 C 164.164062 174.890625 163.621094 175.128906 162.933594 175.128906 C 162.582031 175.128906 162.265625 175.058594 161.992188 174.910156 C 161.71875 174.761719 161.511719 174.578125 161.375 174.351562 Z M 164.214844 172.589844 C 164.214844 172.101562 164.085938 171.703125 163.828125 171.386719 C 163.570312 171.066406 163.226562 170.910156 162.792969 170.910156 C 162.367188 170.910156 162.023438 171.066406 161.757812 171.386719 C 161.496094 171.703125 161.363281 172.101562 161.363281 172.589844 C 161.363281 173.089844 161.496094 173.5 161.757812 173.816406 C 162.023438 174.132812 162.367188 174.289062 162.792969 174.289062 C 163.21875 174.289062 163.5625 174.132812 163.824219 173.816406 C 164.082031 173.5 164.214844 173.089844 164.214844 172.589844 Z M 167.105469 172.101562 L 169.734375 172.101562 C 169.722656 171.738281 169.601562 171.445312 169.375 171.214844 C 169.148438 170.984375 168.828125 170.871094 168.414062 170.871094 C 168.039062 170.871094 167.734375 170.992188 167.492188 171.234375 C 167.253906 171.476562 167.125 171.765625 167.105469 172.101562 Z M 169.875 173.351562 L 170.683594 173.628906 C 170.542969 174.078125 170.285156 174.441406 169.902344 174.726562 C 169.523438 175.007812 169.0625 175.148438 168.523438 175.148438 C 167.851562 175.148438 167.277344 174.917969 166.808594 174.453125 C 166.339844 173.992188 166.105469 173.367188 166.105469 172.578125 C 166.105469 171.847656 166.332031 171.238281 166.785156 170.761719 C 167.238281 170.28125 167.777344 170.039062 168.402344 170.039062 C 169.128906 170.039062 169.699219 170.269531 170.105469 170.726562 C 170.511719 171.183594 170.714844 171.792969 170.714844 172.558594 C 170.714844 172.679688 170.707031 172.78125 170.695312 172.859375 L 167.074219 172.859375 C 167.082031 173.285156 167.222656 173.636719 167.5 173.910156 C 167.777344 174.183594 168.117188 174.320312 168.523438 174.320312 C 169.210938 174.320312 169.660156 173.996094 169.875 173.351562 Z M 171.734375 173.710938 C 171.734375 173.296875 171.867188 172.964844 172.132812 172.714844 C 172.402344 172.464844 172.753906 172.308594 173.195312 172.25 L 174.496094 172.058594 C 174.742188 172.027344 174.863281 171.90625 174.863281 171.699219 C 174.863281 171.445312 174.777344 171.238281 174.605469 171.078125 C 174.429688 170.921875 174.171875 170.839844 173.824219 170.839844 C 173.503906 170.839844 173.25 170.929688 173.066406 171.105469 C 172.878906 171.28125 172.769531 171.515625 172.734375 171.808594 L 171.835938 171.601562 C 171.882812 171.140625 172.089844 170.765625 172.464844 170.476562 C 172.839844 170.183594 173.285156 170.039062 173.804688 170.039062 C 174.484375 170.039062 174.988281 170.203125 175.316406 170.535156 C 175.640625 170.863281 175.804688 171.285156 175.804688 171.800781 L 175.804688 174.210938 C 175.804688 174.496094 175.824219 174.761719 175.863281 175 L 174.945312 175 C 174.910156 174.800781 174.894531 174.582031 174.894531 174.351562 C 174.761719 174.5625 174.566406 174.75 174.308594 174.910156 C 174.054688 175.070312 173.730469 175.148438 173.34375 175.148438 C 172.871094 175.148438 172.484375 175.007812 172.183594 174.726562 C 171.882812 174.441406 171.734375 174.101562 171.734375 173.710938 Z M 173.476562 174.359375 C 173.894531 174.359375 174.230469 174.246094 174.484375 174.019531 C 174.738281 173.792969 174.863281 173.433594 174.863281 172.941406 L 174.863281 172.71875 L 173.394531 172.941406 C 173.179688 172.972656 173.011719 173.050781 172.882812 173.171875 C 172.757812 173.289062 172.695312 173.453125 172.695312 173.660156 C 172.695312 173.847656 172.765625 174.011719 172.910156 174.148438 C 173.054688 174.289062 173.242188 174.359375 173.476562 174.359375 Z M 181.695312 170.191406 L 179.644531 172.21875 L 181.734375 175 L 180.554688 175 L 178.984375 172.878906 L 178.316406 173.550781 L 178.316406 175 L 177.386719 175 L 177.386719 167.761719 L 178.316406 167.761719 L 178.316406 172.320312 L 180.394531 170.191406 Z M 189.785156 175 L 185.476562 175 L 185.476562 167.910156 L 189.785156 167.910156 L 189.785156 168.820312 L 186.457031 168.820312 L 186.457031 171 L 189.476562 171 L 189.476562 171.921875 L 186.457031 171.921875 L 186.457031 174.089844 L 189.785156 174.089844 Z M 192.097656 172.21875 L 192.097656 175 L 191.15625 175 L 191.15625 170.191406 L 192.078125 170.191406 L 192.078125 170.878906 C 192.398438 170.328125 192.890625 170.050781 193.558594 170.050781 C 194.109375 170.050781 194.535156 170.226562 194.832031 170.578125 C 195.128906 170.933594 195.277344 171.390625 195.277344 171.949219 L 195.277344 175 L 194.335938 175 L 194.335938 172.109375 C 194.335938 171.304688 193.964844 170.898438 193.21875 170.898438 C 192.863281 170.898438 192.589844 171.023438 192.390625 171.273438 C 192.195312 171.523438 192.097656 171.839844 192.097656 172.21875 Z M 196.546875 175.261719 L 197.457031 175.050781 C 197.492188 175.390625 197.628906 175.671875 197.867188 175.894531 C 198.109375 176.117188 198.40625 176.230469 198.769531 176.230469 C 199.746094 176.230469 200.238281 175.710938 200.238281 174.671875 L 200.238281 173.980469 C 200.117188 174.214844 199.929688 174.402344 199.671875 174.550781 C 199.414062 174.695312 199.113281 174.769531 198.769531 174.769531 C 198.128906 174.769531 197.597656 174.550781 197.183594 174.113281 C 196.765625 173.679688 196.558594 173.121094 196.558594 172.441406 C 196.558594 171.78125 196.765625 171.226562 197.175781 170.773438 C 197.589844 170.324219 198.121094 170.101562 198.769531 170.101562 C 199.5 170.101562 199.996094 170.351562 200.246094 170.859375 L 200.246094 170.191406 L 201.175781 170.191406 L 201.175781 174.640625 C 201.175781 174.960938 201.136719 175.257812 201.050781 175.535156 C 200.96875 175.8125 200.835938 176.066406 200.65625 176.300781 C 200.476562 176.535156 200.226562 176.714844 199.902344 176.851562 C 199.578125 176.984375 199.199219 177.050781 198.769531 177.050781 C 198.175781 177.050781 197.671875 176.882812 197.257812 176.546875 C 196.84375 176.207031 196.609375 175.78125 196.546875 175.261719 Z M 198.90625 173.980469 C 199.3125 173.980469 199.644531 173.839844 199.898438 173.554688 C 200.152344 173.273438 200.277344 172.898438 200.277344 172.441406 C 200.277344 171.980469 200.152344 171.609375 199.898438 171.324219 C 199.644531 171.042969 199.3125 170.898438 198.90625 170.898438 C 198.496094 170.898438 198.160156 171.039062 197.902344 171.320312 C 197.644531 171.601562 197.519531 171.972656 197.519531 172.441406 C 197.519531 172.914062 197.644531 173.289062 197.894531 173.566406 C 198.144531 173.839844 198.480469 173.980469 198.90625 173.980469 Z M 203.738281 175 L 202.796875 175 L 202.796875 167.761719 L 203.738281 167.761719 Z M 206.390625 175 L 205.457031 175 L 205.457031 170.191406 L 206.390625 170.191406 Z M 205.4375 168.851562 C 205.3125 168.714844 205.25 168.558594 205.25 168.371094 C 205.25 168.183594 205.3125 168.023438 205.445312 167.890625 C 205.574219 167.757812 205.730469 167.691406 205.917969 167.691406 C 206.105469 167.691406 206.265625 167.753906 206.398438 167.886719 C 206.53125 168.015625 206.597656 168.175781 206.597656 168.371094 C 206.597656 168.558594 206.53125 168.714844 206.398438 168.84375 C 206.265625 168.976562 206.105469 169.039062 205.917969 169.039062 C 205.730469 169.039062 205.570312 168.976562 205.4375 168.851562 Z M 207.660156 173.75 L 208.507812 173.449219 C 208.542969 173.710938 208.65625 173.925781 208.847656 174.09375 C 209.042969 174.265625 209.300781 174.351562 209.628906 174.351562 C 209.882812 174.351562 210.082031 174.289062 210.230469 174.164062 C 210.375 174.042969 210.449219 173.890625 210.449219 173.710938 C 210.449219 173.390625 210.242188 173.183594 209.828125 173.089844 L 209.007812 172.910156 C 208.636719 172.828125 208.34375 172.671875 208.128906 172.429688 C 207.917969 172.191406 207.808594 171.898438 207.808594 171.558594 C 207.808594 171.148438 207.976562 170.789062 208.3125 170.488281 C 208.652344 170.191406 209.050781 170.039062 209.519531 170.039062 C 209.824219 170.039062 210.097656 170.085938 210.339844 170.175781 C 210.578125 170.265625 210.765625 170.382812 210.898438 170.53125 C 211.03125 170.675781 211.132812 170.8125 211.199219 170.941406 C 211.265625 171.066406 211.316406 171.195312 211.347656 171.328125 L 210.519531 171.640625 C 210.507812 171.558594 210.484375 171.480469 210.449219 171.40625 C 210.417969 171.328125 210.363281 171.242188 210.292969 171.148438 C 210.222656 171.058594 210.121094 170.980469 209.988281 170.925781 C 209.855469 170.867188 209.699219 170.839844 209.519531 170.839844 C 209.285156 170.839844 209.09375 170.902344 208.945312 171.03125 C 208.792969 171.15625 208.71875 171.308594 208.71875 171.480469 C 208.71875 171.785156 208.902344 171.980469 209.269531 172.058594 L 210.050781 172.230469 C 210.476562 172.324219 210.804688 172.496094 211.035156 172.746094 C 211.265625 172.996094 211.378906 173.300781 211.378906 173.660156 C 211.378906 174.039062 211.222656 174.382812 210.914062 174.691406 C 210.605469 174.996094 210.171875 175.148438 209.621094 175.148438 C 209.027344 175.148438 208.5625 175 208.230469 174.703125 C 207.894531 174.410156 207.707031 174.089844 207.660156 173.75 Z M 213.691406 172.171875 L 213.691406 175 L 212.75 175 L 212.75 167.761719 L 213.691406 167.761719 L 213.691406 170.75 C 214.011719 170.285156 214.496094 170.050781 215.148438 170.050781 C 215.703125 170.050781 216.128906 170.226562 216.425781 170.578125 C 216.722656 170.933594 216.871094 171.390625 216.871094 171.949219 L 216.871094 175 L 215.929688 175 L 215.929688 172.109375 C 215.929688 171.304688 215.558594 170.898438 214.808594 170.898438 C 214.464844 170.898438 214.191406 171.019531 214 171.253906 C 213.808594 171.492188 213.703125 171.796875 213.691406 172.171875 Z M 213.691406 172.171875 "/>
</clipPath>
</defs>
<g id="surface1">
<g clip-path="url(#clip1)" clip-rule="nonzero">
<g clip-path="url(#clip2)" clip-rule="evenodd">
<use xlink:href="#surface5" transform="matrix(1,0,0,1,0,91)"/>
</g>
</g>
<g clip-path="url(#clip5)" clip-rule="nonzero">
<g clip-path="url(#clip6)" clip-rule="evenodd">
<use xlink:href="#surface8" transform="matrix(1,0,0,1,43,0)"/>
</g>
</g>
<g clip-path="url(#clip9)" clip-rule="nonzero">
<g clip-path="url(#clip10)" clip-rule="evenodd">
<use xlink:href="#surface11" transform="matrix(1,0,0,1,59,12)"/>
</g>
</g>
<g clip-path="url(#clip13)" clip-rule="nonzero">
<g clip-path="url(#clip14)" clip-rule="evenodd">
<use xlink:href="#surface14" transform="matrix(1,0,0,1,134,31)"/>
</g>
</g>
<g clip-path="url(#clip17)" clip-rule="nonzero">
<g clip-path="url(#clip18)" clip-rule="evenodd">
<path style=" stroke:none;fill-rule:nonzero;fill:rgb(14.901733%,14.901733%,14.901733%);fill-opacity:1;" d="M 122 119 L 232 119 L 232 160 L 122 160 Z M 122 119 "/>
</g>
</g>
<g clip-path="url(#clip19)" clip-rule="nonzero">
<g clip-path="url(#clip20)" clip-rule="nonzero">
<path style=" stroke:none;fill-rule:nonzero;fill:rgb(100%,100%,100%);fill-opacity:1;" d="M 135.886719 130.691406 L 218.992188 130.691406 L 218.992188 150.050781 L 135.886719 150.050781 Z M 135.886719 130.691406 "/>
</g>
</g>
<g clip-path="url(#clip21)" clip-rule="nonzero">
<g clip-path="url(#clip22)" clip-rule="evenodd">
<path style=" stroke:none;fill-rule:nonzero;fill:rgb(14.901733%,14.901733%,14.901733%);fill-opacity:1;" d="M 111 152 L 233 152 L 233 193 L 111 193 Z M 111 152 "/>
</g>
</g>
<g clip-path="url(#clip23)" clip-rule="nonzero">
<g clip-path="url(#clip24)" clip-rule="nonzero">
<path style=" stroke:none;fill-rule:nonzero;fill:rgb(100%,100%,100%);fill-opacity:1;" d="M 123.210938 162.691406 L 221.871094 162.691406 L 221.871094 182.050781 L 123.210938 182.050781 Z M 123.210938 162.691406 "/>
</g>
</g>
</g>
</svg>
