<svg width="343" height="300" xmlns="http://www.w3.org/2000/svg" xmlns:xlink="http://www.w3.org/1999/xlink"><defs><path d="M0 132.236v-.013c0-3.834.53-7.732 1.605-11.676 12.94-47.475 58.724-2.499 136.359-80.457C215.599-37.87 343 8.107 343 90.563c0 82.44-53.085 118.423-170.628 118.437h-.134C64.463 208.986.006 174.545 0 132.236z" id="a"/><path d="M36 0h186c17.673 0 32 14.327 32 32v60h2a2 2 0 012 2v76a2 2 0 01-2 2h-2v102.793C226.031 291.967 184.866 300 129.303 300 76.166 300 33.554 291.633 4 278.08V180H2a2 2 0 01-2-2v-36a2 2 0 012-2h2v-8H2a2 2 0 01-2-2V94a2 2 0 012-2h2V32C4 14.327 18.327 0 36 0z" id="c"/><path d="M0 271.028V24C0 10.745 10.745 0 24 0h178c13.255 0 24 10.745 24 24v245.227C198.701 281.982 161.395 288 113.303 288 66.975 288 28.648 281.64 0 271.028z" id="e"/><path d="M2.463 0h71.429a2.463 2.463 0 012.463 2.463v7.39a2.463 2.463 0 01-2.463 2.462H2.463A2.463 2.463 0 010 9.852V2.463A2.463 2.463 0 012.463 0z" id="g"/><path d="M15 0h70c8.284 0 15 6.716 15 15v14a2 2 0 01-2 2H15C6.716 31 0 24.284 0 16v-1C0 6.716 6.716 0 15 0z" id="i"/><path d="M6.465 8h-.98V4.85h-3.62V8h-.98V.91h.98v3.03h3.62V.91h.98V8zm2.43-2.9h2.63c-.013-.36-.132-.655-.36-.885-.226-.23-.546-.345-.96-.345-.373 0-.68.122-.92.365s-.37.532-.39.865zm2.77 1.25l.81.28c-.14.447-.4.812-.78 1.095-.38.283-.84.425-1.38.425a2.352 2.352 0 01-1.714-.695c-.47-.463-.705-1.088-.705-1.875 0-.733.227-1.34.68-1.82.453-.48.993-.72 1.62-.72.727 0 1.293.228 1.7.685.407.457.61 1.068.61 1.835 0 .12-.007.22-.02.3h-3.62c.007.427.148.777.425 1.05s.618.41 1.025.41c.687 0 1.136-.323 1.35-.97zm3.262 3.66h-1.03l1.2-2.54-2.07-4.28h1.08l1.5 3.32 1.44-3.32h1.01l-3.13 6.82zm2.95-2.65c0-.18.07-.337.21-.47.14-.133.313-.2.52-.2.227 0 .418.083.575.25.157.167.235.4.235.7 0 .6-.153 1.063-.46 1.39-.307.327-.647.513-1.02.56v-.52a.975.975 0 00.59-.395c.153-.21.233-.438.24-.685-.047.033-.12.05-.22.05a.66.66 0 01-.48-.185.659.659 0 01-.19-.495zm6.881.64h-1V.91h1V8zm1.42-6.56a.58.58 0 01.196-.435.678.678 0 01.485-.185c.213 0 .393.077.54.23.146.153.22.37.22.65 0 .56-.142.993-.425 1.3-.284.307-.602.48-.955.52v-.48a.888.888 0 00.545-.365c.143-.197.218-.412.225-.645a.34.34 0 01-.2.05.62.62 0 01-.45-.175.619.619 0 01-.18-.465zM29.47 8h-.93V3.19h.9v.64c.147-.253.354-.447.62-.58.267-.133.547-.2.84-.2.314 0 .6.077.86.23.26.153.454.38.58.68.334-.607.87-.91 1.61-.91.46 0 .852.157 1.175.47.324.313.485.767.485 1.36V8h-.93V4.98c0-.333-.085-.6-.255-.8-.17-.2-.425-.3-.765-.3-.326 0-.593.115-.8.345-.206.23-.31.518-.31.865V8h-.94V4.98c0-.333-.085-.6-.255-.8-.17-.2-.425-.3-.765-.3-.333 0-.603.113-.81.34-.206.227-.31.52-.31.88V8zm16.062 0h-.98V4.85h-3.62V8h-.98V.91h.98v3.03h3.62V.91h.98V8zm2.43-2.9h2.63c-.013-.36-.133-.655-.36-.885-.227-.23-.547-.345-.96-.345-.373 0-.68.122-.92.365s-.37.532-.39.865zm2.77 1.25l.81.28c-.14.447-.4.812-.78 1.095-.38.283-.84.425-1.38.425a2.352 2.352 0 01-1.715-.695c-.47-.463-.705-1.088-.705-1.875 0-.733.227-1.34.68-1.82.453-.48.994-.72 1.62-.72.727 0 1.293.228 1.7.685.407.457.61 1.068.61 1.835 0 .12-.006.22-.02.3h-3.62c.007.427.149.777.425 1.05.277.273.618.41 1.025.41.687 0 1.137-.323 1.35-.97zm2.72-.77c0 .507.126.92.376 1.24.25.32.595.48 1.035.48.42 0 .756-.163 1.01-.49.253-.327.38-.743.38-1.25 0-.5-.124-.903-.37-1.21-.247-.307-.584-.46-1.01-.46-.427 0-.77.157-1.03.47-.26.313-.39.72-.39 1.22zm2.81 1.77v-.08a1.584 1.584 0 01-.574.615 1.668 1.668 0 01-.915.245c-.687 0-1.239-.242-1.655-.725-.417-.483-.625-1.092-.625-1.825 0-.7.213-1.295.64-1.785.426-.49.973-.735 1.64-.735.393 0 .713.078.96.235.246.157.416.348.51.575V.76h.93v6.35c0 .327.016.623.05.89h-.91a3.729 3.729 0 01-.05-.65zm6.751-4.16L61.092 8h-.95l-1.95-4.81h1.06l1.37 3.71 1.38-3.71h1.01zM64.962 8h-.93V3.19h.93V8zm-.95-6.15a.672.672 0 01-.19-.48c0-.187.066-.347.196-.48s.288-.2.475-.2.347.065.48.195.2.292.2.485a.638.638 0 01-.2.475.663.663 0 01-.48.195.672.672 0 01-.48-.19zm2.322 6.41l.91-.21c.033.34.17.622.41.845.24.223.54.335.9.335.98 0 1.47-.52 1.47-1.56v-.69c-.12.233-.309.423-.566.57-.256.147-.558.22-.904.22-.64 0-1.169-.218-1.585-.655-.417-.437-.625-.995-.625-1.675 0-.66.206-1.215.62-1.665.413-.45.943-.675 1.59-.675.733 0 1.226.253 1.48.76v-.67h.93v4.45c0 .32-.042.618-.126.895a2.354 2.354 0 01-.394.765c-.18.233-.432.417-.755.55-.324.133-.702.2-1.135.2-.594 0-1.097-.168-1.51-.505a1.88 1.88 0 01-.71-1.285zm2.36-1.28c.406 0 .736-.142.99-.425.253-.283.38-.655.38-1.115 0-.46-.127-.832-.38-1.115-.254-.283-.584-.425-.99-.425-.414 0-.749.14-1.005.42-.257.28-.385.653-.385 1.12 0 .473.124.848.374 1.125s.589.415 1.016.415zm5.23-6.07l-.25 5.06h-.67l-.26-5.06h1.18zm-1.05 6.95a.627.627 0 01-.19-.46c0-.18.064-.335.19-.465a.619.619 0 01.46-.195c.18 0 .335.065.465.195s.195.285.195.465c0 .18-.065.333-.195.46a.643.643 0 01-.465.19.626.626 0 01-.46-.19z" id="k"/><path d="M15 0h95a2 2 0 012 2v14c0 8.284-6.716 15-15 15H15C6.716 31 0 24.284 0 16v-1C0 6.716 6.716 0 15 0z" id="m"/><path d="M1.21 8h-1V.91h1V8zm5.38-2.78V8h-.94V3.19h.92v.69c.32-.553.814-.83 1.48-.83.554 0 .979.177 1.276.53.296.353.445.81.445 1.37V8h-.94V5.11c0-.807-.374-1.21-1.12-1.21-.354 0-.629.125-.825.375-.197.25-.295.565-.295.945zm5.791 1.64c.293.3.65.45 1.07.45.42 0 .775-.152 1.065-.455.29-.303.435-.725.435-1.265 0-.533-.145-.952-.435-1.255a1.417 1.417 0 00-1.065-.455c-.42 0-.775.152-1.065.455-.29.303-.435.722-.435 1.255 0 .54.143.963.43 1.27zm-.7-3.09c.467-.487 1.057-.73 1.77-.73.713 0 1.302.242 1.765.725.464.483.695 1.092.695 1.825 0 .74-.23 1.352-.69 1.835-.46.483-1.05.725-1.77.725s-1.31-.242-1.77-.725c-.46-.483-.69-1.095-.69-1.835 0-.733.23-1.34.69-1.82zm8.16-.58h.97l1.25 3.62 1.06-3.62h.99L22.552 8h-.97l-1.28-3.66L19.052 8h-.99l-1.58-4.81h1.03l1.08 3.62 1.25-3.62zm7.512 3.56l.85-.3a1 1 0 00.34.645c.193.17.453.255.78.255.253 0 .453-.062.6-.185a.572.572 0 00.22-.455c0-.32-.207-.527-.62-.62l-.82-.18c-.373-.08-.667-.24-.88-.48-.213-.24-.32-.53-.32-.87 0-.413.168-.77.505-1.07.337-.3.738-.45 1.205-.45.307 0 .58.045.82.135.24.09.427.208.56.355.133.147.233.283.3.41.067.127.117.257.15.39l-.83.31a.996.996 0 00-.07-.235 1.3 1.3 0 00-.155-.255.724.724 0 00-.305-.225 1.195 1.195 0 00-.47-.085.86.86 0 00-.575.19.573.573 0 00-.225.45c0 .307.183.5.55.58l.78.17c.427.093.755.265.985.515.23.25.345.555.345.915 0 .38-.155.723-.465 1.03-.31.307-.742.46-1.295.46-.593 0-1.057-.148-1.39-.445-.333-.297-.523-.615-.57-.955zm6.02 3.15h-.93V3.19h.91v.75c.14-.253.35-.46.63-.62.28-.16.607-.24.98-.24.694 0 1.236.237 1.626.71.39.473.584 1.073.584 1.8 0 .733-.201 1.34-.605 1.82-.403.48-.948.72-1.634.72-.354 0-.667-.073-.94-.22a1.59 1.59 0 01-.62-.56V9.9zm2.84-4.31c0-.487-.128-.888-.385-1.205-.256-.317-.601-.475-1.035-.475-.426 0-.771.158-1.035.475-.263.317-.395.718-.395 1.205 0 .5.132.908.395 1.225.264.317.609.475 1.035.475.427 0 .77-.158 1.03-.475.26-.317.39-.725.39-1.225zm2.891-.49h2.63c-.013-.36-.133-.655-.36-.885-.227-.23-.547-.345-.96-.345-.373 0-.68.122-.92.365s-.37.532-.39.865zm2.77 1.25l.81.28c-.14.447-.4.812-.78 1.095-.38.283-.84.425-1.38.425a2.352 2.352 0 01-1.715-.695c-.47-.463-.705-1.088-.705-1.875 0-.733.227-1.34.68-1.82.453-.48.993-.72 1.62-.72.727 0 1.293.228 1.7.685.407.457.61 1.068.61 1.835 0 .12-.006.22-.02.3h-3.62c.007.427.148.777.425 1.05s.618.41 1.025.41c.687 0 1.137-.323 1.35-.97zm1.86.36c0-.413.134-.745.4-.995.267-.25.62-.405 1.06-.465l1.3-.19c.247-.033.37-.153.37-.36a.806.806 0 00-.26-.62c-.173-.16-.433-.24-.78-.24-.32 0-.573.088-.76.265a1.106 1.106 0 00-.33.705l-.9-.21c.047-.46.257-.835.63-1.125.374-.29.82-.435 1.34-.435.68 0 1.184.165 1.51.495.327.33.49.752.49 1.265v2.41c0 .287.02.55.06.79h-.92c-.033-.2-.05-.417-.05-.65-.133.213-.328.4-.584.56-.257.16-.579.24-.965.24-.474 0-.86-.142-1.16-.425-.3-.283-.45-.622-.45-1.015zm1.74.65c.42 0 .757-.113 1.01-.34.254-.227.38-.587.38-1.08v-.22l-1.47.22a.929.929 0 00-.51.23c-.126.12-.19.283-.19.49 0 .187.072.35.216.49.143.14.331.21.565.21zm8.221-4.17l-2.05 2.03L53.735 8h-1.18l-1.57-2.12-.67.67V8h-.93V.76h.93v4.56l2.08-2.13h1.3zM61.786 8h-4.31V.91h4.31v.91h-3.33V4h3.02v.92h-3.02v2.17h3.33V8zm2.311-2.78V8h-.94V3.19h.92v.69c.32-.553.813-.83 1.48-.83.553 0 .978.177 1.275.53.297.353.445.81.445 1.37V8h-.94V5.11c0-.807-.373-1.21-1.12-1.21-.353 0-.628.125-.825.375-.197.25-.295.565-.295.945zm4.45 3.04l.91-.21c.034.34.17.622.41.845.24.223.54.335.9.335.98 0 1.47-.52 1.47-1.56v-.69c-.12.233-.308.423-.564.57-.257.147-.559.22-.905.22-.64 0-1.169-.218-1.585-.655-.417-.437-.625-.995-.625-1.675 0-.66.206-1.215.62-1.665.413-.45.943-.675 1.59-.675.733 0 1.226.253 1.48.76v-.67h.93v4.45c0 .32-.042.618-.125.895a2.354 2.354 0 01-.395.765c-.18.233-.432.417-.755.55-.324.133-.702.2-1.135.2-.594 0-1.097-.168-1.51-.505a1.88 1.88 0 01-.71-1.285zm2.36-1.28c.407 0 .737-.142.99-.425.254-.283.38-.655.38-1.115 0-.46-.126-.832-.38-1.115-.253-.283-.583-.425-.99-.425-.413 0-.748.14-1.004.42-.257.28-.385.653-.385 1.12 0 .473.125.848.375 1.125s.588.415 1.015.415zM75.739 8h-.94V.76h.94V8zm2.65 0h-.93V3.19h.93V8zm-.95-6.15a.672.672 0 01-.19-.48c0-.187.066-.347.196-.48s.288-.2.475-.2.347.065.48.195.2.292.2.485a.638.638 0 01-.2.475.663.663 0 01-.48.195.672.672 0 01-.48-.19zm2.221 4.9l.85-.3a1 1 0 00.34.645c.194.17.454.255.78.255.254 0 .454-.062.6-.185a.572.572 0 00.22-.455c0-.32-.206-.527-.62-.62l-.82-.18c-.373-.08-.666-.24-.88-.48-.213-.24-.32-.53-.32-.87 0-.413.169-.77.505-1.07.337-.3.739-.45 1.205-.45.307 0 .58.045.82.135.24.09.427.208.56.355a1.741 1.741 0 01.45.8l-.83.31a1 1 0 00-.07-.235 1.3 1.3 0 00-.155-.255.725.725 0 00-.305-.225 1.195 1.195 0 00-.47-.085.86.86 0 00-.575.19.573.573 0 00-.225.45c0 .307.184.5.55.58l.78.17c.427.093.755.265.985.515.23.25.345.555.345.915 0 .38-.155.723-.465 1.03-.31.307-.741.46-1.295.46-.593 0-1.056-.148-1.39-.445-.333-.297-.523-.615-.57-.955zm6.031-1.58V8h-.94V.76h.94v2.99c.32-.467.807-.7 1.46-.7.553 0 .978.177 1.275.53.297.353.445.81.445 1.37V8h-.94V5.11c0-.807-.373-1.21-1.12-1.21-.347 0-.617.118-.81.355-.193.237-.297.542-.31.915z" id="o"/></defs><g fill="none" fill-rule="evenodd"><g transform="translate(0 91)"><mask id="b" fill="#fff"><use xlink:href="#a"/></mask><path fill="#9361FF" mask="url(#b)" d="M-10-10h363v229H-10z"/></g><g transform="translate(43)"><mask id="d" fill="#fff"><use xlink:href="#c"/></mask><path fill="#1E1E1E" mask="url(#d)" d="M-10-10h278v320H-10z"/></g><g transform="translate(59 12)"><mask id="f" fill="#fff"><use xlink:href="#e"/></mask><path fill="#000" mask="url(#f)" d="M-10-10h246v308H-10z"/></g><g transform="translate(134 31)"><mask id="h" fill="#fff"><use xlink:href="#g"/></mask><path fill="#505050" mask="url(#h)" d="M-10-10h96.355v32.315H-10z"/></g><g transform="translate(127 124)"><mask id="j" fill="#fff"><use xlink:href="#i"/></mask><path fill="#262626" mask="url(#j)" d="M-5-5h110v41H-5z"/></g><g transform="translate(140 135)"><mask id="l" fill="#fff"><use xlink:href="#k"/></mask><path fill="#FFF" mask="url(#l)" d="M-4.115-4.31h83.11v19.36h-83.11z"/></g><g transform="translate(116 157)"><mask id="n" fill="#fff"><use xlink:href="#m"/></mask><path fill="#262626" mask="url(#n)" d="M-5-5h122v41H-5z"/></g><g transform="translate(128 167)"><mask id="p" fill="#fff"><use xlink:href="#o"/></mask><path fill="#FFF" mask="url(#p)" d="M-4.79-4.31h98.66v19.36H-4.79z"/></g></g></svg>