<svg width="345" height="300" xmlns="http://www.w3.org/2000/svg" xmlns:xlink="http://www.w3.org/1999/xlink"><defs><path d="M22.887 56.475c18.324-17.853 49.246-33.83 97.472-46.212 55.249-14.185 114.373-12.846 157.99 3.595 20.447 7.707 37.49 18.734 49.15 33.025 10.81 13.245 17.001 29.295 17.001 48.116 0 42.445-8.326 71.033-32.87 90.294-3.92 3.076-8.876 6.906-13.63 9.434C274.678 207.13 242.394 211 194.91 211c-53.854 0-93.87-11.331-124.91-25.707-6.591-3.052-16.42-2.618-22-6.076-25.6-15.862-40.415-34.836-45.144-54.226-5.763-23.628-1.653-47.391 20.031-68.516z" id="a"/><path d="M36 0h186c17.673 0 32 14.327 32 32v60h2a2 2 0 012 2v76a2 2 0 01-2 2h-2v109.727C230.732 294.139 197.071 300 149.628 300 84.154 300 35.796 286.07 4 266.217V180H2a2 2 0 01-2-2v-36a2 2 0 012-2h2v-8H2a2 2 0 01-2-2V94a2 2 0 012-2h2V32C4 14.327 18.327 0 36 0z" id="c"/><path d="M0 261.011V24C0 10.745 10.745 0 24 0h178c13.255 0 24 10.745 24 24v251.192C203.59 283.867 173.469 288 133.628 288 75.91 288 31.495 277.175 0 261.011z" id="e"/><path d="M12 0h124c6.627 0 12 5.373 12 12v19c0 6.627-5.373 12-12 12H12C5.373 43 0 37.627 0 31V12C0 5.373 5.373 0 12 0z" id="g"/><path d="M2 0h118a2 2 0 012 2v3a2 2 0 01-2 2H2a2 2 0 01-2-2V2a2 2 0 012-2z" id="i"/><path d="M2 0h85a2 2 0 012 2v3a2 2 0 01-2 2H2a2 2 0 01-2-2V2a2 2 0 012-2z" id="k"/><path d="M2 0h16a2 2 0 012 2v3a2 2 0 01-2 2H2a2 2 0 01-2-2V2a2 2 0 012-2z" id="m"/><path d="M12 0h144c6.627 0 12 5.373 12 12v76c0 6.627-5.373 12-12 12H12c-6.627 0-12-5.373-12-12V12C0 5.373 5.373 0 12 0z" id="o"/><path d="M24 0h178c13.255 0 24 10.745 24 24v56H0V24C0 10.745 10.745 0 24 0z" id="q"/><path d="M2 0h141a2 2 0 012 2v3a2 2 0 01-2 2H2a2 2 0 01-2-2V2a2 2 0 012-2z" id="s"/><path d="M2 0h131a2 2 0 012 2v3a2 2 0 01-2 2H2a2 2 0 01-2-2V2a2 2 0 012-2z" id="u"/><path d="M2 0h141a2 2 0 012 2v3a2 2 0 01-2 2H2a2 2 0 01-2-2V2a2 2 0 012-2z" id="w"/><path d="M2 0h115a2 2 0 012 2v3a2 2 0 01-2 2H2a2 2 0 01-2-2V2a2 2 0 012-2z" id="y"/><path d="M2 0h137a2 2 0 012 2v3a2 2 0 01-2 2H2a2 2 0 01-2-2V2a2 2 0 012-2z" id="A"/><path d="M2 0h36a2 2 0 012 2v3a2 2 0 01-2 2H2a2 2 0 01-2-2V2a2 2 0 012-2z" id="C"/><path d="M167 147h186c11.046 0 20 8.954 20 20v20H147v-20c0-11.046 8.954-20 20-20z" id="E"/><path id="G" d="M6.052 5.575l4.523 4.524-.476.476-4.524-4.523-4.523 4.523-.477-.476L5.1 5.575.575 1.052l.477-.477L5.575 5.1 10.1.575l.476.477z"/><path d="M1.242 2.38A1.18 1.18 0 01.07 1.19C.07.533.595 0 1.242 0a1.18 1.18 0 011.172 1.19 1.18 1.18 0 01-1.172 1.19z" id="I"/><path d="M0 11.574V.077h1.336v4.108a4.062 4.062 0 012.435-.808c2.275 0 4.112 1.873 4.112 4.183v4.022H6.197V7.56c0-1.358-1.088-2.471-2.434-2.471-1.274 0-2.328 1-2.427 2.275v4.21H0z" id="K"/><path id="M" d="M.403.569h1.686v7.975H.403z"/><path d="M7.256.077h1.686v11.497H7.256v-.641c-.683.51-1.525.81-2.434.81-2.268 0-4.12-1.873-4.12-4.183 0-2.31 1.852-4.183 4.12-4.183a4.06 4.06 0 012.434.81V.077zm0 7.483c0-1.366-1.096-2.471-2.434-2.471S2.387 6.194 2.387 7.56c0 1.359 1.09 2.472 2.435 2.472 1.338 0 2.434-1.106 2.434-2.472z" id="O"/><path d="M7.307 4.56c0-1.358-1.089-2.471-2.435-2.471-1.338 0-2.434 1.105-2.434 2.471 0 1.359 1.089 2.472 2.434 2.472 1.338 0 2.435-1.106 2.435-2.472zm-6.555 0c0-2.302 1.845-4.183 4.12-4.183.91 0 1.752.301 2.435.81V.57h1.685v3.984c0 2.31-1.852 4.19-4.12 4.19S.752 6.87.752 4.56z" id="Q"/><path id="S" d="M4.52 6.44L7.092.569h1.852l-3.5 7.975H3.599L.099.569h1.844z"/><path d="M2.872 4.727c-.87 0-1.693-.277-2.404-.79l.983-1.39a2.37 2.37 0 001.414.468c1.338 0 2.434-1.105 2.434-2.471h1.686c.007 2.302-1.845 4.183-4.113 4.183z" id="U"/><path d="M7.698 5.42H2.135a2.442 2.442 0 002.282 1.612c.423 0 .847-.116 1.217-.33l.847 1.48a4.062 4.062 0 01-2.056.561C2.149 8.743.305 6.87.305 4.56c0-2.31 1.852-4.183 4.12-4.183s4.12 1.873 4.12 4.183c0 .292-.03.583-.09.86h-.757zM2.135 3.7H6.7a2.442 2.442 0 00-2.283-1.61A2.44 2.44 0 002.135 3.7z" id="W"/></defs><g transform="translate(-87 -95)" fill="none" fill-rule="evenodd"><g transform="translate(87 182)"><mask id="b" fill="#fff"><use xlink:href="#a"/></mask><path fill="#FF8A80" mask="url(#b)" d="M-9-9h363v232H-9z"/></g><g transform="translate(131 95)"><mask id="d" fill="#fff"><use xlink:href="#c"/></mask><path fill="#1E1E1E" mask="url(#d)" d="M-10-10h278v320H-10z"/></g><g transform="translate(147 107)"><mask id="f" fill="#fff"><use xlink:href="#e"/></mask><path fill="#000" mask="url(#f)" d="M-10-10h246v308H-10z"/></g><g transform="translate(215 207)"><mask id="h" fill="#fff"><use xlink:href="#g"/></mask><path fill="#9361FF" mask="url(#h)" d="M-10-10h168v63H-10z"/></g><g transform="translate(224 214)"><mask id="j" fill="#fff"><use xlink:href="#i"/></mask><path fill-opacity=".5" fill="#FFF" mask="url(#j)" d="M-5-5h132v17H-5z"/></g><g transform="translate(224 225)"><mask id="l" fill="#fff"><use xlink:href="#k"/></mask><path fill-opacity=".5" fill="#FFF" mask="url(#l)" d="M-5-5h99v17H-5z"/></g><g transform="translate(224 236)"><mask id="n" fill="#fff"><use xlink:href="#m"/></mask><path fill-opacity=".5" fill="#FFF" mask="url(#n)" d="M-5-5h30v17H-5z"/></g><g transform="translate(157 260)"><mask id="p" fill="#fff"><use xlink:href="#o"/></mask><path fill="#262626" mask="url(#p)" d="M-10-10h188v120H-10z"/></g><g transform="translate(147 107)"><mask id="r" fill="#fff"><use xlink:href="#q"/></mask><path fill="#404040" mask="url(#r)" d="M-10-10h246V90H-10z"/></g><g transform="translate(167 273)"><mask id="t" fill="#fff"><use xlink:href="#s"/></mask><path fill-opacity=".5" fill="#FFF" mask="url(#t)" d="M-5-5h155v17H-5z"/></g><g transform="translate(167 286)"><mask id="v" fill="#fff"><use xlink:href="#u"/></mask><path fill-opacity=".5" fill="#FFF" mask="url(#v)" d="M-5-5h145v17H-5z"/></g><g transform="translate(167 299)"><mask id="x" fill="#fff"><use xlink:href="#w"/></mask><path fill-opacity=".5" fill="#FFF" mask="url(#x)" d="M-5-5h155v17H-5z"/></g><g transform="translate(167 313)"><mask id="z" fill="#fff"><use xlink:href="#y"/></mask><path fill-opacity=".5" fill="#FFF" mask="url(#z)" d="M-5-5h129v17H-5z"/></g><g transform="translate(167 327)"><mask id="B" fill="#fff"><use xlink:href="#A"/></mask><path fill-opacity=".5" fill="#FFF" mask="url(#B)" d="M-5-5h151v17H-5z"/></g><g transform="translate(167 341)"><mask id="D" fill="#fff"><use xlink:href="#C"/></mask><path fill-opacity=".5" fill="#FFF" mask="url(#D)" d="M-5-5h50v17H-5z"/></g><mask id="F" fill="#fff"><use xlink:href="#E"/></mask><path fill="#000" mask="url(#F)" d="M137 137h246v60H137z"/><g transform="translate(164 162)"><mask id="H" fill="#fff"><use xlink:href="#G"/></mask><path fill="#FFF" mask="url(#H)" d="M-18.213-18.213h52.426v52.426h-52.426z"/></g><g transform="translate(273 160)"><mask id="J" fill="#fff"><use xlink:href="#I"/></mask><path fill="#FFF" mask="url(#J)" d="M-6.678-6.748h15.84V9.128h-15.84z"/></g><g transform="translate(235 160)"><mask id="L" fill="#fff"><use xlink:href="#K"/></mask><path fill="#FFF" mask="url(#L)" d="M-7.098-6.671h21.73V18.33h-21.73z"/></g><g transform="translate(273 163)"><mask id="N" fill="#fff"><use xlink:href="#M"/></mask><path fill="#FFF" mask="url(#N)" d="M-6.346-6.18H8.837v21.472H-6.346z"/></g><g transform="translate(253 160)"><mask id="P" fill="#fff"><use xlink:href="#O"/></mask><path fill="#FFF" mask="url(#P)" d="M-6.047-6.671H15.69V18.49H-6.047z"/></g><g transform="translate(276 163)"><mask id="R" fill="#fff"><use xlink:href="#Q"/></mask><path fill="#FFF" mask="url(#R)" d="M-5.996-6.371H15.74V15.49H-5.996z"/></g><g transform="translate(263 163)"><mask id="T" fill="#fff"><use xlink:href="#S"/></mask><path fill="#FFF" mask="url(#T)" d="M-6.65-6.18h22.342v21.472H-6.65z"/></g><g transform="translate(278 171)"><mask id="V" fill="#fff"><use xlink:href="#U"/></mask><path fill="#FFF" mask="url(#V)" d="M-6.28-6.205h20.013v17.68H-6.28z"/></g><g transform="translate(244 163)"><mask id="X" fill="#fff"><use xlink:href="#W"/></mask><path fill="#FFF" mask="url(#X)" d="M-6.444-6.371h21.737V15.49H-6.444z"/></g></g></svg>