<?xml version="1.0" encoding="UTF-8"?>
<svg width="343px" height="300px" viewBox="0 0 343 300" version="1.1" xmlns="http://www.w3.org/2000/svg" xmlns:xlink="http://www.w3.org/1999/xlink">
    <!-- Generator: Sketch 55.2 (78181) - https://sketchapp.com -->
    <title>Illustration</title>
    <desc>Created with Sketch.</desc>
    <defs>
        <polygon id="path-1" points="0.227382938 0.179738298 55.308654 0.179738298 55.308654 58.8666062 0.227382938 58.8666062"></polygon>
        <polygon id="path-3" points="0 0.0263404849 51.5658 0.0263404849 51.5658 62.8752702 0 62.8752702"></polygon>
    </defs>
    <g id="Sender-📤" stroke="none" stroke-width="1" fill="none" fill-rule="evenodd">
        <g id="Referrals-Sender-#What's-New-01" transform="translate(-16.000000, -152.000000)">
            <g id="Illustration" transform="translate(16.000000, 152.000000)">
                <path d="M187.832268,299.969375 C277.477127,299.969375 363.594971,245.292809 338.623221,178.465894 C325.628602,143.690986 310.770115,139.989792 237.775768,116.701625 C192.843115,102.366279 157.834035,60 114.837921,60 C25.1930624,60 -13.8626369,133.914618 4.38594974,218.967055 C22.6345364,304.019491 98.187409,299.969375 187.832268,299.969375 Z" id="BG" fill="#009175"></path>
                <ellipse id="Shadow" fill="#00725C" opacity="0.6" cx="172" cy="260" rx="50" ry="4"></ellipse>
                <g id="Happy-Man" transform="translate(94.000000, 0.000000)">
                    <g id="Group-74">
                        <g id="Group-5" transform="translate(38.075829, 234.318396)" fill="#414150">
                            <path d="M76.379781,21.9297383 C74.9011081,19.7084617 74.5314398,18.9680362 74.5314398,18.9680362 L66.3987384,11.9339936 L63.8110607,8.23186596 C63.8110607,8.23186596 63.4413924,0.0871851064 63.0717242,0.0871851064 C62.7020559,0.0871851064 60.4840464,1.56803617 54.9390227,0.457397872 L55.308691,7.86165319 C55.308691,7.86165319 53.830018,8.60207872 53.830018,10.4531426 L53.830018,14.1552702 C53.830018,14.1552702 54.9390227,16.3765468 53.830018,17.8573979 C52.7210133,19.3382489 53.0906815,23.0403766 55.308691,23.0403766 C57.5267005,23.0403766 68.2470796,27.8531426 71.9437621,26.3722915 C75.6404445,24.8914404 77.858454,24.1510149 76.379781,21.9297383" id="Fill-1"></path>
                            <path d="M23.1475536,14.1552702 L23.1475536,10.4531426 C23.1475536,8.60207872 21.6688806,7.86165319 21.6688806,7.86165319 L22.0385488,0.457397872 C16.4935251,1.56803617 14.2755156,0.0871851064 13.9058474,0.0871851064 C13.5361791,0.0871851064 13.1665109,8.23186596 13.1665109,8.23186596 L10.5788332,11.9339936 L2.44613175,18.9680362 C2.44613175,18.9680362 2.07646351,19.7084617 0.597790521,21.9297383 C-0.880882464,24.1510149 1.33712701,24.8914404 5.03380948,26.3722915 C8.73049194,27.8531426 19.4508711,23.0403766 21.6688806,23.0403766 C23.88689,23.0403766 24.2565583,19.3382489 23.1475536,17.8573979 C22.0385488,16.3765468 23.1475536,14.1552702 23.1475536,14.1552702" id="Fill-3"></path>
                        </g>
                        <g id="Group-10" transform="translate(51.014218, 233.577970)" fill="#E9ECEF">
                            <path d="M51.2343924,9.48966383 L50.8724872,8.9724766 C50.8724872,8.9724766 50.502819,0.0873702128 50.1331507,0.0873702128 C49.7634825,0.0873702128 47.545473,1.56822128 42.0004493,0.457582979 L42.3701175,8.60226383 C42.3701175,8.60226383 42.3094919,8.6333617 42.2152265,8.69518723 C44.9777573,9.89245532 48.5979185,10.255634 51.2343924,9.48966383" id="Fill-6"></path>
                            <path d="M0.967458768,0.827610638 C0.644738389,0.827610638 0.322018009,7.03422766 0.245127014,8.61059362 C2.16998957,9.61312979 3.97470995,9.70605319 4.66414123,9.71271702 C6.36757251,9.72900638 7.82813175,9.28549149 8.98999905,8.76793404 C8.83658673,8.65612979 8.73049194,8.60207872 8.73049194,8.60207872 L9.10016019,1.1978234 C3.55513649,2.3084617 1.33712701,0.827610638 0.967458768,0.827610638" id="Fill-8"></path>
                        </g>
                        <path d="M59.0053735,128.524767 C59.74471,129.635405 56.4176957,132.597107 55.6783592,141.852426 C54.9390227,151.107746 50.1333355,182.946043 50.872672,195.90349 L48.2849943,235.516256 C48.2849943,235.516256 47.9153261,239.218384 51.2423403,239.218384 C54.5693545,239.218384 57.5267005,241.069448 63.0717242,238.107746 C63.0717242,238.107746 65.6594019,237.36732 64.9200654,235.516256 C64.9200654,235.516256 62.7020559,210.712001 64.9200654,204.788597 C67.1380749,198.865192 74.5314398,169.618384 74.5314398,169.618384 C74.5314398,169.618384 76.379781,158.512001 76.379781,158.141788 C76.379781,157.771575 78.9674588,154.809873 78.9674588,154.809873 L80.8158,168.507746 C80.8158,168.507746 84.8821507,191.83115 87.4698284,194.422639 C90.0575062,197.014129 90.7968427,233.29498 90.7968427,233.29498 C90.7968427,233.29498 92.6451839,236.256682 101.147554,234.405618 L104.1049,231.073703 C104.1049,231.073703 104.1049,195.533277 101.88689,191.460937 C101.88689,191.460937 104.1049,167.76732 103.365563,163.69498 L102.626227,151.477958 C102.626227,151.477958 104.1049,146.29498 102.995895,144.443916 C102.995895,144.443916 101.147554,124.452426 97.0812028,122.601363 C97.0812028,122.601363 86.7304919,129.265192 79.337127,128.524767 C74.4082171,128.03115 67.8774114,126.056682 59.74471,122.601363 C59.74471,122.601363 58.266037,127.414129 59.0053735,128.524767 Z" id="Fill-11" fill="#651EFF"></path>
                        <path d="M65.4338298,124.874375 L55.6868616,189.01314 C54.0990541,221.862167 53.3051503,238.380292 53.3051503,238.567516 C53.3051503,238.623519 53.0519081,238.906044 52.6379627,239.31035 C52.1745751,239.255294 51.7121432,239.218384 51.2423403,239.218384 C47.9153261,239.218384 48.2849943,235.516256 48.2849943,235.516256 L50.872672,195.90349 C50.1333355,182.946043 54.9390227,151.107746 55.6783592,141.852426 C56.4176957,132.597107 59.74471,129.635405 59.0053735,128.524767 C58.266037,127.414129 59.74471,122.601363 59.74471,122.601363 C61.7372387,123.447923 63.633612,124.205594 65.4338298,124.874375 Z" id="Path" fill="#5217E2"></path>
                        <path d="M80.811835,168.534328 C80.811835,168.534328 84.8781857,191.857732 87.4658634,194.449222 C90.0535411,197.040711 90.7928776,231.840711 90.7928776,231.840711 C90.7928776,231.840711 89.4488915,235.542802 97.0772378,234.802413 C90.207816,182.013459 85.4715032,155.343733 82.8682994,154.793234 C80.2650956,154.242735 79.5796075,158.8231 80.811835,168.534328 Z" id="Fill-11" fill="#0F007A" opacity="0.215122768"></path>
                        <rect id="Rectangle" fill="#5217E2" x="78.7393365" y="133.646809" width="1.47867299" height="14.0680851"></rect>
                        <g id="Group-17" transform="translate(59.146919, 122.514140)" fill="#5B2E20">
                            <path d="M26.8908142,9.68672809 L26.844236,9.71264298 C26.844236,9.71264298 26.8863782,9.69820468 26.8908142,9.68672809" id="Fill-13"></path>
                            <path d="M39.0432882,11.1936051 L30.670672,7.5714434 L38.5154019,3.18109021 C39.0314588,2.89232426 39.2595441,2.26888596 39.0517905,1.71467745 L38.5638284,0.411158298 C38.4329659,0.061307234 38.0115441,-0.0753012766 37.7025014,0.133868936 C35.5599043,1.58769447 28.1595156,6.3241966 23.1475536,6.01062638 C17.4454209,5.65374128 8.99443507,6.67330723 1.77000853,0.775817872 C1.33675735,0.422264681 0.690946919,0.604039149 0.504634123,1.13196255 C0.19115545,2.01899234 -0.0580009479,3.28363915 0.597790521,4.15956255 C1.70679526,5.64041362 10.5707005,10.0829668 19.0812028,10.0829668 C21.6089943,10.0829668 24.339364,9.87527745 25.8076863,9.75940085 C26.5403687,9.70164766 27.2501318,9.48581362 27.8915062,9.12670723 L29.0622455,9.71275404 L36.8252787,13.0446689 C36.8252787,13.0446689 38.3039517,14.1553072 39.7826246,13.4148817 C41.2612976,12.6744562 39.0432882,11.1936051 39.0432882,11.1936051" id="Fill-15"></path>
                        </g>
                        <g id="Group-26" transform="translate(70.236967, 41.437545)" stroke="#000000" stroke-width="0.5">
                            <path d="M0.0432881517,5.82548298 L0.0432881517,2.01969574 C0.0432881517,1.64541064 0.297619905,1.31925319 0.659894787,1.22855106 L1.52196114,1.01271702 L2.26129763,1.01271702" id="Stroke-18"></path>
                            <path d="M9.28499431,0.272291489 L14.830018,0.272291489 C14.830018,0.272291489 15.9390227,0.642504255 15.9390227,1.75314255 C15.9390227,2.86378085 16.6783592,7.67654681 16.6783592,7.67654681" id="Stroke-20"></path>
                            <path d="M14.3576559,0.272291489 L14.367637,0.345593617 C14.4153242,0.686929787 14.1332673,0.983470213 13.7902152,0.952742553 L11.4380161,0.742831915 C11.2310019,0.724321277 11.0535611,0.587712766 10.9825848,0.392240426 L10.938964,0.272291489" id="Stroke-22"></path>
                            <path d="M0.350149763,1.38529915 C0.350149763,1.38529915 0.782661611,2.1235034 1.89166635,1.75329064" id="Stroke-24"></path>
                        </g>
                        <path d="M86.7304919,47.8183468 C86.7304919,47.8183468 90.4271744,51.5204745 89.6878379,55.2226021 L89.6878379,58.1843043 C89.6878379,58.1843043 86.3608237,61.8864319 85.9911555,61.8864319 C85.6214872,61.8864319 84.1428142,57.4438787 84.1428142,57.4438787 L86.7304919,47.8183468 Z" id="Fill-27" fill="#451800"></path>
                        <path d="M68.9864161,57.4438787 L69.3560844,56.7034532 C69.3560844,56.7034532 66.7684066,58.1843043 67.5077431,55.2226021 C68.2470796,52.2609 69.7257526,52.2609 69.7257526,52.2609 C69.7257526,52.2609 68.9864161,49.2991979 69.3560844,48.5587723 L71.2044256,44.8566447 C71.2044256,44.8566447 71.5740938,44.1162191 71.9437621,43.0055809 C72.3134303,41.8949426 73.7921033,40.0438787 75.2707763,39.673666 C75.2707763,39.673666 75.6404445,37.4523894 76.7494493,37.4523894 C76.7494493,37.4523894 79.7067953,37.4523894 79.337127,41.154517 C79.337127,41.154517 84.8821507,43.7460064 85.251819,44.8566447 C85.6214872,45.967283 87.4698284,48.1885596 86.3608237,51.1502617 C86.3608237,51.1502617 90.0575062,54.1119638 88.9485014,56.3332404 L86.3608237,59.2949426 L68.9864161,58.1843043 L68.9864161,57.4438787 Z" id="Fill-29" fill="#EEC5C7"></path>
                        <path d="M70.0954209,56.3332404 L69.7257526,57.073666 L69.7257526,57.4438787 L76.5561128,58.4593723 C76.613781,58.4641851 76.6622076,58.4164277 76.6581412,58.3586745 L75.8023592,45.8243809 C75.6966341,44.2776319 73.7998664,43.4868574 72.711563,44.5889809 C72.5322739,44.7707553 72.3954967,44.9802957 72.3134303,45.2268574 C71.9873829,46.2068106 71.6609659,46.8987383 71.5888806,47.0475638 C71.5788995,47.068666 71.5633735,47.0823638 71.5419327,47.0912489 C71.2946246,47.1937979 70.8059232,47.8761 70.4650891,48.5587723 C70.136454,49.2173809 70.3150038,51.2624362 70.4403213,51.7888787 C70.45289,51.8407085 70.4207289,51.8925383 70.368236,51.9021638 L70.0954209,56.3332404 Z" id="Fill-31" fill-opacity="0.172858392" fill="#A77072"></path>
                        <path d="M84.5124825,57.4438787 L85.6214872,55.9630277 C85.6214872,55.9630277 87.8394967,57.8140915 88.9485014,56.3332404 C90.0575062,54.8523894 88.9485014,54.1119638 88.9485014,54.1119638 L89.6878379,54.1119638 C89.6878379,54.1119638 90.4271744,57.8140915 89.6878379,58.554517 C88.9485014,59.2949426 84.8821507,62.6268574 84.8821507,62.6268574 L84.1428142,57.8140915 L84.5124825,57.4438787 Z" id="Fill-33" fill="#451800"></path>
                        <g id="Group-43" transform="translate(75.412322, 38.105630)" fill="#A77072" fill-opacity="0.172858392">
                            <path d="M2.07646351,0.0871851064 C2.07646351,0.0871851064 3.55513649,1.1978234 3.18546825,1.93824894 C2.71266256,1.93824894 2.28939242,1.63948723 2.13598009,1.19115957 C1.99033081,0.765044681 1.88571469,0.278214894 2.07646351,0.0871851064" id="Fill-35"></path>
                            <path d="M0.967458768,0.457397872 C0.967458768,0.253780851 0.849904265,0.204912766 0.706103318,0.348925532 C0.706103318,0.348925532 0.228122275,0.827610638 0.228122275,1.1978234 C0.228122275,1.44586596 0.559714692,1.36145745 0.778927962,1.2789 C0.89315545,1.23595532 0.967458768,1.12600213 0.967458768,1.00383191 L0.967458768,0.457397872 Z" id="Fill-37"></path>
                            <path d="M9.83949668,14.525483 C9.83949668,14.525483 12.4271744,17.1169723 12.0575062,18.2276106 C11.6878379,19.3382489 7.99115545,15.6361213 9.83949668,14.525483" id="Fill-41"></path>
                        </g>
                        <g id="Group-46" transform="translate(0.000000, 0.343928)" fill="#F2EBE7">
                            <path d="M9.46982844,17.1169723 C9.46982844,17.1169723 5.03380948,10.8233553 2.44613175,9.71271702 C1.55670995,9.33102766 -0.71527109,3.99367021 0.228122275,3.04888723 C-0.290891943,0.869444681 0.44844455,-0.117912766 2.44613175,0.0871851064 C4.36581896,-0.194917021 6.26480474,0.517742553 7.6214872,1.93824894 C7.6214872,1.93824894 9.83949668,1.56803617 10.5788332,2.67867447 C10.5788332,2.67867447 12.7968427,4.89995106 12.7968427,7.49144043 L18.7115346,16.3765468 C18.8512692,16.4479979 30.3043308,27.215266 29.801582,26.7425043 C27.7488142,24.8129553 36.4556104,32.2956957 37.9342834,36.3680362 C37.9342834,36.3680362 42.0006341,40.8105894 44.2186436,41.9212277 C46.4366531,43.031866 50.5030038,49.6956957 50.872672,50.806334 L61.9627194,58.2105894 C61.9627194,58.2105894 66.7684066,61.912717 68.2470796,59.6914404 C68.3701791,59.506334 68.4832976,59.3212277 68.5860654,59.1413043 C69.1320654,58.1843043 70.1896863,57.644534 71.2783592,57.8074277 C74.1510512,58.2372447 79.7008806,58.7784957 84.1428142,57.4701638 L84.8821507,62.2829298 C84.8821507,62.2829298 89.6878379,58.2105894 92.6451839,57.0999511 C95.6025299,55.9893128 101.147554,51.9169723 101.147554,51.9169723 C101.147554,51.9169723 109.649923,39.6999511 112.607269,38.5893128 C112.607269,38.5893128 123.697317,27.8531426 128.503004,25.2616532 C128.503004,25.2616532 136.635705,20.4488872 136.635705,20.0786745 C136.635705,19.7084617 139.962719,17.1169723 141.071724,15.6361213 C142.180729,14.1552702 142.550397,9.34250426 143.659402,8.23186596 C144.768407,7.12122766 151.792103,3.4191 151.422435,3.4191 C151.052767,3.4191 152.901108,2.3084617 154.379781,4.5297383 C155.858454,6.75101489 155.858454,9.71271702 155.858454,9.71271702 C155.858454,9.71271702 152.161772,15.6361213 148.834757,16.3765468 C148.834757,16.3765468 145.138075,21.1893128 143.289734,21.5595255 C141.441392,21.9297383 120.370302,44.512717 120.370302,44.512717 L109.280255,60.431866 C109.280255,60.431866 100.038549,69.3169723 98.5598758,76.7212277 L98.1902076,82.6446319 C98.1902076,82.6446319 96.3418664,120.406334 96.7115346,122.257398 C97.0812028,124.108462 85.251819,128.551015 80.0764635,128.180802 C74.9011081,127.810589 61.5930512,124.848887 60.4840464,122.257398 C60.4840464,122.257398 55.6783592,86.7169723 56.0480275,83.0148447 C56.4176957,79.312717 50.5030038,65.2446319 46.4366531,63.7637809 L43.1096389,59.3212277 C43.1096389,59.3212277 33.4982645,46.7339936 33.4982645,42.6616532 L9.46982844,17.1169723 Z" id="Fill-44"></path>
                        </g>
                        <g id="Stripes" transform="translate(0.000000, 0.370213)">
                            <path d="M154.379744,4.5299234 C155.858417,6.7512 155.858417,9.71290213 155.858417,9.71290213 C155.858417,9.71290213 152.161735,15.6363064 148.83472,16.3767319 C148.83472,16.3767319 145.138038,21.1894979 143.289697,21.5597106 C141.441355,21.9299234 120.370265,44.5129021 120.370265,44.5129021 L109.280218,60.4320511 C109.280218,60.4320511 100.038512,69.3171574 98.5598389,76.7214128 L98.1901706,82.644817 C98.1901706,82.644817 96.3418294,120.406519 96.7114976,122.257583 C97.0811659,124.108647 85.251782,128.5512 80.0764265,128.180987 C74.9010711,127.810774 61.5930142,124.849072 60.4840095,122.257583 C60.4840095,122.257583 55.6783223,86.7171574 56.0479905,83.0150298 C56.4176588,79.3129021 50.5029668,65.244817 46.4366161,63.763966 L43.1096019,59.3214128 C43.1096019,59.3214128 33.4982275,46.7341787 33.4982275,42.6618383 L9.46979147,17.1171574 C9.46979147,17.1171574 5.03377251,10.8235404 2.44609479,9.71290213 C1.55667299,9.33084255 -0.715308057,3.99385532 0.228085308,3.04907234 C-0.29092891,0.869259574 0.448407583,-0.11772766 2.44609479,0.0873702128 C4.36578199,-0.195102128 6.26476777,0.51792766 7.62145024,1.93843404 C7.62145024,1.93843404 9.83945972,1.56822128 10.5787962,2.67885957 C10.5787962,2.67885957 12.7968057,4.90013617 12.7968057,7.49162553 L18.7114976,16.3767319 C18.8456872,16.4455915 29.4226351,26.3865447 29.8011754,26.7423191 C27.7498863,24.8138809 36.4555735,32.2958809 37.9342464,36.3682213 C37.9342464,36.3682213 42.0005972,40.8107745 44.2186066,41.9214128 C46.4366161,43.0320511 50.5029668,49.6958809 50.8726351,50.8065191 L61.9626825,58.2107745 C61.9626825,58.2107745 66.7683697,61.9129021 68.2470427,59.6916255 C68.3705118,59.5065191 68.4832607,59.3214128 68.5860284,59.1411191 C69.1320284,58.1841191 70.1896493,57.6447191 71.2783223,57.8076128 C74.1510142,58.2374298 79.7008436,58.7786809 84.1427773,57.4703489 L84.8821137,62.2831149 C84.8821137,62.2831149 89.6878009,58.2107745 92.6451469,57.1001362 C95.6024929,55.9894979 101.147517,51.9171574 101.147517,51.9171574 C101.147517,51.9171574 109.649886,39.7001362 112.607232,38.5894979 C112.607232,38.5894979 123.69728,27.8533277 128.502967,25.2618383 C128.502967,25.2618383 136.635668,20.4490723 136.635668,20.0788596 C136.635668,19.7086468 139.962682,17.1171574 141.071687,15.6363064 C142.180692,14.1554553 142.55036,9.34268936 143.659365,8.23205106 C144.76837,7.12141277 151.792066,3.41928511 151.422398,3.41928511 C151.05273,3.41928511 152.901071,2.30864681 154.379744,4.5299234 Z" id="Clip-48"></path>
                            <path d="M113.406747,54.5086465 L112.890931,55.2186465 L96.1863206,55.2186465 C96.5842427,54.9857676 96.9806191,54.7464746 97.3659496,54.5086465 L113.406747,54.5086465 Z" id="Path" fill="#CAC9D6"></path>
                            <polygon id="Path" fill="#CAC9D6" points="56.4176588 54.5086469 57.5266635 55.2186469 42.3702654 55.2186469 42.3702654 54.5086469"></polygon>
                            <path d="M110.215135,59.0900298 L109.699319,59.8000298 L88.0352917,59.8000298 C88.3765287,59.5636796 88.7311633,59.3244082 89.0914871,59.0900298 L110.215135,59.0900298 Z" id="Path" fill="#CAC9D6"></path>
                            <path d="M43.4908223,59.8000298 L43.1096019,59.3119048 C43.1096019,59.3119048 43.0479493,59.2344812 42.9345197,59.0900298 L63.2661865,59.0900298 C63.6765898,59.3292071 64.1534762,59.5833107 64.6507537,59.8000298 L43.4908223,59.8000298 L43.4908223,59.8000298 Z" id="Path" fill="#CAC9D6"></path>
                            <path d="M68.1441086,59.8000298 C68.1799895,59.7583681 68.2143303,59.7140264 68.2470427,59.6669048 C68.3705118,59.4894048 68.4832607,59.3119048 68.5860284,59.1390198 C68.5958214,59.1225604 68.605779,59.1062299 68.6158985,59.0900298 L84.3915924,59.0900298 L84.5053365,59.8000298 L68.1441086,59.8000298 L68.1441086,59.8000298 Z" id="Path" fill="#CAC9D6"></path>
                            <path d="M106.245345,63.6714128 C106.039062,63.9083373 105.826984,64.155467 105.610691,64.4118383 L47.5229739,64.4118383 C47.1506115,64.1123214 46.7867615,63.8914791 46.4366161,63.763966 L46.3673033,63.6714128 L106.245345,63.6714128 L106.245345,63.6714128 Z" id="Path" fill="#CAC9D6"></path>
                            <path d="M102.643973,68.252794 C102.473597,68.4968222 102.304827,68.7437748 102.138369,68.9932213 L51.0558975,68.9932213 C50.9091085,68.7409998 50.7611753,68.4938995 50.612408,68.252794 L102.643973,68.252794 L102.643973,68.252794 Z" id="Path" fill="#CAC9D6"></path>
                            <path d="M99.9195227,72.8341787 C99.8014893,73.0807932 99.6885499,73.3277195 99.581284,73.5746043 L53.3668692,73.5746043 C53.258124,73.3274436 53.1471591,73.0804391 53.0341874,72.8341787 L99.9195227,72.8341787 L99.9195227,72.8341787 Z" id="Path" fill="#CAC9D6"></path>
                            <path d="M98.5165184,77.4155617 L98.4703098,78.1559872 L55.118709,78.1559872 C55.0409404,77.9130977 54.9590585,77.6660437 54.8733246,77.4155617 L98.5165184,77.4155617 L98.5165184,77.4155617 Z" id="Path" fill="#CAC9D6"></path>
                            <path d="M98.2306031,81.9969447 L98.1901706,82.644817 C98.1901706,82.644817 98.1886317,82.6762581 98.1856514,82.7373702 L56.063742,82.7373702 C56.0679139,82.516837 56.0550948,82.2689019 56.0264821,81.9969447 L98.2306031,81.9969447 Z" id="Path" fill="#CAC9D6"></path>
                            <path d="M98.0013044,86.5783277 C97.9900083,86.8164644 97.978314,87.0634579 97.9662522,87.3187532 L56.2579263,87.3187532 C56.2355858,87.0633221 56.2146842,86.816325 56.1953056,86.5783277 L98.0013044,86.5783277 L98.0013044,86.5783277 Z" id="Path" fill="#CAC9D6"></path>
                            <path d="M97.7866243,91.1597106 C97.7753555,91.4031809 97.7639509,91.6500724 97.7524243,91.9001362 L56.7105392,91.9001362 C56.6838145,91.6500443 56.6576742,91.403152 56.6321555,91.1597106 L97.7866243,91.1597106 L97.7866243,91.1597106 Z" id="Path" fill="#CAC9D6"></path>
                            <path d="M97.5773561,95.7410936 C97.5663069,95.9863997 97.5552138,96.2332671 97.5440865,96.4815191 L57.2221648,96.4815191 C57.193457,96.233258 57.1650432,95.9863902 57.13695,95.7410936 L97.5773561,95.7410936 L97.5773561,95.7410936 Z" id="Path" fill="#CAC9D6"></path>
                            <path d="M97.3742934,100.322477 C97.3635627,100.568886 97.3528458,100.815746 97.3421512,101.062902 L57.7650552,101.062902 C57.7351483,100.815745 57.7053655,100.568885 57.6757299,100.322477 L97.3742934,100.322477 Z" id="Path" fill="#CAC9D6"></path>
                            <path d="M97.1790292,104.90386 C97.1687405,105.151229 97.1585189,105.39809 97.1483731,105.644285 L58.3285376,105.644285 C58.2978133,105.398095 58.2670705,105.151234 58.2363327,104.90386 L97.1790292,104.90386 L97.1790292,104.90386 Z" id="Path" fill="#CAC9D6"></path>
                            <path d="M96.9945019,109.485243 C96.9848682,109.733794 96.975371,109.980664 96.9660207,110.225668 L58.9072907,110.225668 C58.8759929,109.98068 58.8445071,109.733809 58.8128611,109.485243 L96.9945019,109.485243 L96.9945019,109.485243 Z" id="Path" fill="#CAC9D6"></path>
                            <path d="M96.8268173,114.066626 C96.8183119,114.317322 96.8100733,114.564224 96.8021172,114.807051 L59.498418,114.807051 C59.4667945,114.56427 59.4346802,114.317367 59.4021169,114.066626 L96.8268173,114.066626 L96.8268173,114.066626 Z" id="Path" fill="#CAC9D6"></path>
                            <path d="M96.6933845,118.648009 C96.6877114,118.906332 96.6827724,119.153397 96.6786099,119.388434 L60.1006248,119.388434 C60.0694809,119.153684 60.0367489,118.906612 60.0025464,118.648009 L96.6933845,118.648009 L96.6933845,118.648009 Z" id="Path" fill="#CAC9D6"></path>
                            <path d="M96.1309185,123.229391 C95.859222,123.464688 95.501353,123.713663 95.0738608,123.969817 L62.7280864,123.969817 C62.2163267,123.724603 61.7731007,123.476978 61.4152215,123.229391 L96.1309185,123.229391 L96.1309185,123.229391 Z" id="Path" fill="#CAC9D6"></path>
                        </g>
                        <path d="M68.5762194,69.6173064 L73.2376009,95.2320511 L70.5724018,69.3465216 C70.515029,68.7892928 70.0167959,68.3840794 69.4595671,68.4414522 C69.4486434,68.4425769 69.4377387,68.443879 69.4268573,68.4453578 C68.8786596,68.5198615 68.4946547,69.0246607 68.5691583,69.5728584 C68.5711788,69.5877254 68.5735331,69.6025451 68.5762194,69.6173064 Z" id="Path" fill-opacity="0.224486451" fill="#887266"></path>
                        <path d="M79.2965985,69.6173064 L83.9579801,95.2320511 L81.292781,69.3465216 C81.2354082,68.7892928 80.7371751,68.3840794 80.1799462,68.4414522 C80.1690225,68.4425769 80.1581179,68.443879 80.1472365,68.4453578 C79.5990387,68.5198615 79.2150338,69.0246607 79.2895375,69.5728584 C79.291558,69.5877254 79.2939123,69.6025451 79.2965985,69.6173064 Z" id="Path" fill-opacity="0.224486451" fill="#887266" transform="translate(81.533492, 81.768153) scale(-1, 1) translate(-81.533492, -81.768153) "></path>
                        <path d="M74.8885815,69.6337849 L75.6404445,95.2320511 L76.8839974,69.3508242 C76.9070993,68.8700206 76.5360587,68.4615246 76.0552552,68.4384227 C76.0020869,68.435868 75.9487964,68.4381894 75.8960517,68.4453578 C75.3057355,68.5255856 74.8710911,69.0382987 74.8885815,69.6337849 Z" id="Path" fill-opacity="0.224486451" fill="#887266" transform="translate(75.896052, 81.768153) scale(-1, 1) translate(-75.896052, -81.768153) "></path>
                        <path d="M68.6167479,57.8140915 L66.7684066,62.2566447 L71.5740938,64.848134 L74.1617716,58.554517 L78.2281223,58.9247298 C78.2281223,58.9247298 80.4461318,64.4779213 80.8158,64.848134 C81.1854682,65.2183468 85.251819,62.6268574 85.251819,62.6268574 L84.1428142,57.8140915 C84.1428142,57.8140915 76.379781,58.9247298 68.6167479,57.8140915" id="Fill-66" fill="#DDD3CE"></path>
                        <g id="Group-70" transform="translate(100.549763, 3.305630)">
                            <mask id="mask-2" fill="white">
                                <use xlink:href="#path-1"></use>
                            </mask>
                            <g id="Clip-69"></g>
                            <path d="M42.7399706,18.5978234 C44.5883118,18.2276106 48.2849943,13.4148447 48.2849943,13.4148447 C51.6120085,12.6744191 55.308691,6.75101489 55.308691,6.75101489 C55.308691,6.75101489 55.308691,3.78931277 53.830018,1.56803617 C52.351345,-0.653240426 50.5030038,0.457397872 50.872672,0.457397872 C51.2423403,0.457397872 44.2186436,4.15952553 43.1096389,5.27016383 C42.0006341,6.38080213 41.6309659,11.1935681 40.5219611,12.6744191 C39.4129564,14.1552702 36.0859422,16.7467596 36.0859422,17.1169723 C36.0859422,17.4871851 27.9532408,22.2999511 27.9532408,22.2999511 C23.1475536,24.8914404 12.0575062,35.6276106 12.0575062,35.6276106 C9.10016019,36.7382489 0.597790521,48.9552702 0.597790521,48.9552702 C0.597790521,48.9552702 0.46323128,49.0322745 0.227382938,49.1648106 C1.66428341,52.8425043 4.89222654,61.0323511 7.87692796,58.3294277 C7.87692796,58.3294277 7.87729763,58.3294277 7.87729763,58.3294277 C8.40888057,57.7792915 8.73049194,57.4701638 8.73049194,57.4701638 L19.8205393,41.5510149 C19.8205393,41.5510149 40.8916294,18.9680362 42.7399706,18.5978234" id="Fill-68" fill="#EEC5C7" mask="url(#mask-2)"></path>
                        </g>
                        <g id="Group-73" transform="translate(0.000000, 0.343928)">
                            <mask id="mask-4" fill="white">
                                <use xlink:href="#path-3"></use>
                            </mask>
                            <g id="Clip-72"></g>
                            <path d="M51.5658,51.2691 L50.872672,50.806334 C50.5030038,49.6956957 46.4366531,43.031866 44.2186436,41.9212277 C42.0006341,40.8105894 37.9342834,36.3680362 37.9342834,36.3680362 C36.4556104,32.2956957 27.7499232,24.814066 29.8012123,26.742134 L29.801582,26.7425043 C29.8211744,26.7610149 29.8167384,26.7565723 29.8012123,26.742134 C29.422672,26.3863596 18.8457242,16.4454064 18.7115346,16.3765468 L12.7968427,7.49144043 C12.7968427,4.89995106 10.5788332,2.67867447 10.5788332,2.67867447 C9.83949668,1.56803617 7.6214872,1.93824894 7.6214872,1.93824894 C6.26480474,0.517742553 4.36581896,-0.194917021 2.44613175,0.0871851064 C0.44844455,-0.117912766 -0.290891943,0.869444681 0.228122275,3.04888723 C-0.754086256,4.03254255 1.70827393,9.39618511 2.44613175,9.71271702 C5.03380948,10.8233553 9.46982844,17.1169723 9.46982844,17.1169723 L33.4982645,42.6616532 C33.4982645,46.7339936 43.1096389,59.3212277 43.1096389,59.3212277 L45.7712502,62.8752702 L51.5658,51.2691 Z" id="Fill-71" fill="#EEC5C7" mask="url(#mask-4)"></path>
                        </g>
                    </g>
                    <path d="M69.3660251,57.1152409 C69.3660251,57.1152409 66.4086791,57.4854536 68.2570203,54.1535387 C70.1053616,50.8216238 70.8446981,53.783326 70.8446981,53.783326 L69.3660251,57.1152409 Z" id="Fill-39" fill-opacity="0.172858392" fill="#A77072"></path>
                    <rect id="Rectangle" fill="#FAD80E" x="75.7819905" y="128.46383" width="7.39336493" height="4.81276596" rx="0.739336493"></rect>
                </g>
            </g>
        </g>
    </g>
</svg>