<svg width="343" height="300" xmlns="http://www.w3.org/2000/svg" xmlns:xlink="http://www.w3.org/1999/xlink"><defs><path id="a" d="M.227.18H55.31v58.687H.227z"/><path id="c" d="M0 .026h51.566v62.85H0z"/></defs><g fill="none" fill-rule="evenodd"><path d="M187.832 299.97c89.645 0 175.763-54.677 150.791-121.504-12.994-34.775-27.853-38.476-100.847-61.764C192.843 102.366 157.834 60 114.838 60c-89.645 0-128.7 73.915-110.452 158.967 18.249 85.052 93.801 81.002 183.446 81.002z" fill="#009175"/><ellipse fill="#00725C" opacity=".6" cx="172" cy="260" rx="50" ry="4"/><g transform="translate(94)"><g fill="#414150"><path d="M114.456 256.248c-1.48-2.221-1.849-2.962-1.849-2.962l-8.132-7.034-2.588-3.702s-.37-8.144-.74-8.144-2.587 1.48-8.132.37l.37 7.404s-1.48.74-1.48 2.592v3.702s1.11 2.22 0 3.702c-1.108 1.48-.738 5.183 1.48 5.183s12.938 4.813 16.635 3.332c3.696-1.481 5.914-2.222 4.436-4.443M61.223 248.474v-3.702a2.94 2.94 0 00-1.478-2.592l.37-7.404c-5.546 1.11-7.764-.37-8.133-.37-.37 0-.74 8.144-.74 8.144l-2.587 3.702-8.133 7.034s-.37.74-1.848 2.962c-1.48 2.221.739 2.962 4.436 4.443 3.696 1.48 14.417-3.332 16.635-3.332 2.218 0 2.587-3.702 1.478-5.183-1.109-1.481 0-3.702 0-3.702"/></g><g fill="#E9ECEF"><path d="M102.249 243.068l-.362-.518s-.37-8.885-.74-8.885-2.587 1.481-8.132.37l.37 8.145s-.061.031-.156.093c2.763 1.197 6.383 1.56 9.02.795M51.982 234.406c-.323 0-.646 6.206-.723 7.783a9.919 9.919 0 004.42 1.102c1.703.016 3.163-.428 4.325-.945-.153-.112-.26-.166-.26-.166l.37-7.404c-5.545 1.11-7.763-.37-8.132-.37"/></g><path d="M59.005 128.525c.74 1.11-2.587 4.072-3.327 13.327-.739 9.256-5.545 41.094-4.805 54.051l-2.588 39.613s-.37 3.702 2.957 3.702 6.285 1.851 11.83-1.11c0 0 2.587-.74 1.848-2.592 0 0-2.218-24.804 0-30.727 2.218-5.924 9.611-35.17 9.611-35.17s1.849-11.107 1.849-11.477c0-.37 2.587-3.332 2.587-3.332l1.849 13.698s4.066 23.323 6.654 25.915c2.588 2.591 3.327 38.872 3.327 38.872s1.848 2.962 10.35 1.11l2.958-3.331s0-35.54-2.218-39.613c0 0 2.218-23.694 1.479-27.766l-.74-12.217s1.479-5.183.37-7.034c0 0-1.848-19.992-5.915-21.843 0 0-10.35 6.664-17.744 5.924-4.929-.494-11.46-2.468-19.592-5.924 0 0-1.479 4.813-.74 5.924z" fill="#651EFF"/><path d="M65.434 124.874l-9.747 64.14c-1.588 32.848-2.382 49.366-2.382 49.554 0 .056-.253.338-.667.742a11.79 11.79 0 00-1.396-.092c-3.327 0-2.957-3.702-2.957-3.702l2.588-39.613c-.74-12.957 4.066-44.795 4.805-54.05.74-9.256 4.067-12.218 3.327-13.328-.739-1.11.74-5.924.74-5.924 1.992.847 3.889 1.605 5.689 2.273z" fill="#5217E2"/><path d="M80.812 168.534s4.066 23.324 6.654 25.915c2.588 2.592 3.327 37.392 3.327 37.392s-1.344 3.702 6.284 2.961c-6.87-52.789-11.605-79.458-14.209-80.009-2.603-.55-3.288 4.03-2.056 13.741z" fill="#0F007A" opacity=".215"/><path fill="#5217E2" d="M78.739 133.647h1.479v14.068h-1.479z"/><g fill="#5B2E20"><path d="M86.038 132.2l-.047.027s.042-.015.047-.026"/><path d="M98.19 133.708l-8.372-3.622 7.844-4.39c.516-.29.744-.913.537-1.467l-.488-1.304a.575.575 0 00-.862-.277c-2.142 1.454-9.543 6.19-14.555 5.877-5.702-.357-14.153.662-21.377-5.235a.8.8 0 00-1.265.356c-.314.887-.563 2.152.093 3.028 1.109 1.48 9.973 5.923 18.483 5.923 2.528 0 5.258-.208 6.727-.323a5.08 5.08 0 002.083-.633l1.171.586 7.763 3.332s1.479 1.11 2.958.37c1.478-.74-.74-2.221-.74-2.221"/></g><g stroke="#000" stroke-width=".5"><path d="M70.28 47.263v-3.806c0-.374.255-.7.617-.79l.862-.217h.74M79.522 41.71h5.545s1.109.37 1.109 1.48c0 1.111.74 5.924.74 5.924"/><path d="M84.595 41.71l.01.073a.535.535 0 01-.578.607l-2.352-.21a.535.535 0 01-.455-.35l-.044-.12M70.587 42.823s.433.738 1.542.368"/></g><path d="M86.73 47.818s3.697 3.702 2.958 7.405v2.961s-3.327 3.702-3.697 3.702c-.37 0-1.848-4.442-1.848-4.442l2.587-9.626z" fill="#451800"/><path d="M68.986 57.444l.37-.74s-2.588 1.48-1.848-1.481c.74-2.962 2.218-2.962 2.218-2.962s-.74-2.962-.37-3.702l1.848-3.702s.37-.74.74-1.851 1.848-2.962 3.327-3.332c0 0 .37-2.222 1.478-2.222 0 0 2.958 0 2.588 3.703 0 0 5.545 2.591 5.915 3.702.37 1.11 2.218 3.332 1.109 6.293 0 0 3.697 2.962 2.588 5.183l-2.588 2.962-17.375-1.11v-.741z" fill="#EEC5C7"/><path d="M70.095 56.333l-.37.74v.37l6.831 1.016a.094.094 0 00.102-.1l-.856-12.535c-.105-1.546-2.002-2.337-3.09-1.235-.18.182-.317.391-.399.638-.326.98-.652 1.672-.724 1.82a.085.085 0 01-.047.044c-.247.103-.736.785-1.077 1.468-.329.658-.15 2.703-.025 3.23a.092.092 0 01-.072.113l-.273 4.431z" fill-opacity=".173" fill="#A77072"/><path d="M84.512 57.444l1.11-1.481s2.217 1.851 3.327.37c1.109-1.48 0-2.221 0-2.221h.739s.74 3.702 0 4.443c-.74.74-4.806 4.072-4.806 4.072l-.74-4.813.37-.37z" fill="#451800"/><g fill="#A77072" fill-opacity=".173"><path d="M77.489 38.193s1.478 1.11 1.109 1.85c-.473 0-.896-.298-1.05-.746-.145-.426-.25-.913-.06-1.104M76.38 38.563c0-.204-.118-.252-.262-.108 0 0-.478.478-.478.848 0 .248.332.164.551.082a.293.293 0 00.189-.276v-.546zM85.252 52.631s2.587 2.592 2.218 3.702c-.37 1.11-4.067-2.591-2.218-3.702"/></g><path d="M9.47 17.46s-4.436-6.293-7.024-7.403c-.89-.382-3.161-5.72-2.218-6.664C-.29 1.213.448.226 2.446.43c1.92-.282 3.819.43 5.175 1.851 0 0 2.218-.37 2.958.74 0 0 2.218 2.222 2.218 4.813l5.915 8.885c.14.072 11.592 10.84 11.09 10.366-2.053-1.93 6.654 5.554 8.132 9.626 0 0 4.067 4.443 6.285 5.553 2.218 1.11 6.284 7.775 6.654 8.885l11.09 7.405s4.805 3.702 6.284 1.48a9.54 9.54 0 00.34-.55c.545-.957 1.603-1.497 2.691-1.334 2.873.43 8.423.971 12.865-.337l.74 4.813s4.805-4.072 7.762-5.183c2.958-1.11 8.503-5.183 8.503-5.183s8.502-12.217 11.46-13.328c0 0 11.09-10.736 15.895-13.327 0 0 8.133-4.813 8.133-5.183 0-.37 3.327-2.962 4.436-4.443 1.109-1.48 1.478-6.294 2.587-7.404 1.11-1.11 8.133-4.813 7.763-4.813-.37 0 1.48-1.11 2.958 1.11 1.478 2.222 1.478 5.184 1.478 5.184s-3.696 5.923-7.023 6.663c0 0-3.697 4.813-5.545 5.183-1.849.37-22.92 22.954-22.92 22.954l-11.09 15.919s-9.241 8.885-10.72 16.29l-.37 5.923s-1.848 37.761-1.478 39.612c.37 1.851-11.46 6.294-16.636 5.924-5.175-.37-18.483-3.332-19.592-5.924 0 0-4.806-35.54-4.436-39.242.37-3.702-5.545-17.77-9.611-19.251l-3.327-4.443s-9.612-12.587-9.612-16.66L9.47 17.462z" fill="#F2EBE7"/><path d="M154.38 4.9c1.478 2.221 1.478 5.183 1.478 5.183s-3.696 5.924-7.023 6.664c0 0-3.697 4.813-5.545 5.183-1.849.37-22.92 22.953-22.92 22.953l-11.09 15.92s-9.241 8.884-10.72 16.289l-.37 5.923s-1.848 37.762-1.479 39.613c.37 1.85-11.46 6.293-16.635 5.923-5.175-.37-18.483-3.332-19.592-5.923 0 0-4.806-35.54-4.436-39.243.37-3.702-5.545-17.77-9.611-19.25l-3.327-4.443s-9.612-12.588-9.612-16.66L9.47 17.487s-4.436-6.293-7.024-7.404C1.556 9.701-.715 4.364.228 3.42-.29 1.24.448.252 2.446.458c1.92-.283 3.819.43 5.175 1.85 0 0 2.218-.37 2.958.741 0 0 2.218 2.221 2.218 4.813l5.914 8.885c.135.069 10.712 10.01 11.09 10.366-2.051-1.929 6.655 5.553 8.133 9.625 0 0 4.067 4.443 6.285 5.554 2.218 1.11 6.284 7.774 6.654 8.885l11.09 7.404s4.805 3.702 6.284 1.48c.124-.184.236-.37.339-.55.546-.957 1.604-1.496 2.692-1.333 2.873.43 8.423.97 12.865-.337l.74 4.812s4.805-4.072 7.762-5.183c2.957-1.11 8.503-5.183 8.503-5.183s8.502-12.217 11.46-13.327c0 0 11.09-10.736 15.895-13.328 0 0 8.133-4.813 8.133-5.183 0-.37 3.327-2.962 4.436-4.442 1.109-1.481 1.478-6.294 2.587-7.405 1.11-1.11 8.133-4.813 7.763-4.813-.37 0 1.48-1.11 2.958 1.111z"/><path d="M113.407 54.879l-.516.71H96.186a58.87 58.87 0 001.18-.71h16.04zM56.418 54.879l1.109.71H42.37v-.71zM110.215 59.46l-.516.71H88.035c.342-.236.696-.475 1.056-.71h21.124zM43.49 60.17l-.38-.488s-.062-.077-.175-.222h20.331c.41.24.887.494 1.385.71H43.49zM68.144 60.17c.036-.041.07-.086.103-.133a8.79 8.79 0 00.369-.577h15.776l.113.71h-16.36zM106.245 64.042c-.206.237-.418.484-.634.74H47.523c-.372-.3-.736-.52-1.086-.648l-.07-.092h59.878zM102.644 68.623c-.17.244-.34.491-.506.74H51.056c-.147-.252-.295-.499-.444-.74h52.032zM99.92 73.204c-.119.247-.231.494-.339.74H53.367c-.109-.246-.22-.493-.333-.74H99.92zM98.517 77.786l-.047.74H55.12c-.078-.243-.16-.49-.246-.74h43.644zM98.23 82.367l-.04.648-.004.093H56.064a6.063 6.063 0 00-.038-.74h42.205zM98.001 86.949l-.035.74H56.258l-.063-.74h41.806zM97.787 91.53l-.035.74H56.711l-.079-.74h41.155zM97.577 96.111l-.033.74H57.222l-.085-.74h40.44zM97.374 100.693l-.032.74H57.765l-.09-.74h39.7zM97.179 105.274l-.03.74h-38.82l-.093-.74H97.18zM96.995 109.855l-.029.74H58.907l-.094-.74h38.182zM96.827 114.437l-.025.74H59.498l-.096-.74h37.425zM96.693 119.018l-.014.74H60.1c-.032-.234-.064-.481-.098-.74h36.69zM96.13 123.6c-.27.235-.629.484-1.056.74H62.728a9.723 9.723 0 01-1.313-.74h34.716z" fill="#CAC9D6"/><path d="M68.576 69.617l4.662 25.615-2.666-25.885a1.014 1.014 0 00-1.145-.902 1.002 1.002 0 00-.85 1.172zM83.77 69.617L79.11 95.232l2.665-25.885a1.014 1.014 0 011.146-.902 1.002 1.002 0 01.85 1.172zM76.904 69.634l-.752 25.598-1.244-25.881a.872.872 0 01.988-.906c.59.08 1.025.593 1.008 1.189z" fill-opacity=".224" fill="#887266"/><path d="M68.617 57.814l-1.849 4.443 4.806 2.591 2.588-6.293 4.066.37s2.218 5.553 2.588 5.923c.37.37 4.436-2.221 4.436-2.221l-1.11-4.813s-7.762 1.11-15.525 0" fill="#DDD3CE"/><g transform="translate(100.55 3.306)"><mask id="b" fill="#fff"><use xlink:href="#a"/></mask><path d="M42.74 18.598c1.848-.37 5.545-5.183 5.545-5.183 3.327-.74 7.024-6.664 7.024-6.664s0-2.962-1.479-5.183C52.351-.653 50.503.458 50.873.458c.37 0-6.654 3.702-7.763 4.812-1.11 1.11-1.479 5.924-2.588 7.404-1.109 1.481-4.436 4.073-4.436 4.443 0 .37-8.133 5.183-8.133 5.183-4.805 2.591-15.895 13.328-15.895 13.328C9.1 36.738.598 48.955.598 48.955l-.37.21c1.436 3.678 4.664 11.867 7.649 9.164.532-.55.853-.859.853-.859l11.09-15.919s21.072-22.583 22.92-22.953" fill="#EEC5C7" mask="url(#b)"/></g><g transform="translate(0 .344)"><mask id="d" fill="#fff"><use xlink:href="#c"/></mask><path d="M51.566 51.27l-.693-.464c-.37-1.11-4.436-7.774-6.654-8.885-2.218-1.11-6.285-5.553-6.285-5.553-1.478-4.072-10.184-11.554-8.133-9.626-.378-.356-10.955-10.297-11.09-10.365L12.798 7.49c0-2.591-2.218-4.812-2.218-4.812-.74-1.111-2.958-.74-2.958-.74C6.265.517 4.366-.196 2.446.086.448-.118-.29.87.228 3.05c-.982.984 1.48 6.347 2.218 6.664 2.588 1.11 7.024 7.404 7.024 7.404l24.028 25.545c0 4.072 9.612 16.66 9.612 16.66l2.661 3.553 5.795-11.606z" fill="#EEC5C7" mask="url(#d)"/></g><path d="M69.366 57.115s-2.957.37-1.109-2.961c1.848-3.332 2.588-.37 2.588-.37l-1.479 3.331z" fill-opacity=".173" fill="#A77072"/><rect fill="#FAD80E" x="75.782" y="128.464" width="7.393" height="4.813" rx=".739"/></g></g></svg>