<svg xmlns="http://www.w3.org/2000/svg" xmlns:xlink="http://www.w3.org/1999/xlink" width="328" height="287" viewBox="0 0 328 287">
    <defs>
        <path id="a" d="M272.536 257.404C246.286 274.644 210.36 286.88 164 286.88c-45.798 0-81.416-3.622-107.58-12.1V33.47c0-12.676 10.275-22.951 22.95-22.951h170.216c12.675 0 22.95 10.275 22.95 22.95v223.935z"/>
        <path id="d" d="M4.59 68.851h187.62a4.59 4.59 0 0 1 4.59 4.59v22.95H0v-22.95a4.59 4.59 0 0 1 4.59-4.59z"/>
        <filter id="c" width="118.3%" height="230.7%" x="-9.1%" y="-87.1%" filterUnits="objectBoundingBox">
            <feOffset dy="-6" in="SourceAlpha" result="shadowOffsetOuter1"/>
            <feGaussianBlur in="shadowOffsetOuter1" result="shadowBlurOuter1" stdDeviation="5"/>
            <feColorMatrix in="shadowBlurOuter1" values="0 0 0 0 0 0 0 0 0 0 0 0 0 0 0 0 0 0 0.1 0"/>
        </filter>
    </defs>
    <g fill="none" fill-rule="evenodd">
        <path fill="#00715B" d="M164 286.88c112.978 0 164-72.676 164-113.317 0-40.642-104.663-113.318-195.238-113.318S0 139.667 0 202.25c0 62.583 51.022 84.63 164 84.63z"/>
        <path fill="#1E1E1E" d="M162.417 286.879l-.477-.001c.685.002 1.371.002 2.06.002l-1.583-.001zm3.184-.003h-.144c.208 0 .417-.002.625-.004l-.624.004h.143zm-8.13-.02a812.945 812.945 0 0 0 .247.001zm9.724.005l-.153.002.428-.006-.428.006.153-.002zm1.584-.024l-.19.003.372-.007-.372.007.19-.003zm1.577-.034l-.154.004.282-.007-.283.007.155-.004zm1.568-.043l-.44.013.644-.02-.644.02.44-.013zm-21.936 0l.061.002-.06-.001zm-1.814-.034l.55.011-.551-.01zm-4.969-.117a672.819 672.819 0 0 0 .854.022zm-.86-.025l.347.01-.347-.01zm34.233-.011l-.205.01c.276-.013.552-.027.827-.042l-.826.042.204-.01zm1.535-.08l-.341.018.887-.05-.887.05.341-.019zm-38.59.004l.129.005-.13-.005zm-2.913-.103a619.355 619.355 0 0 0 .143.006zm43.03.008l-.467.029c.257-.016.514-.031.77-.048l-.769.048.466-.029zm-44.693-.073a600.617 600.617 0 0 0 .37.015zm46.211-.026l-.478.032c.27-.017.54-.036.81-.055l-.809.055c.16-.01.319-.02.477-.032zm-47.466-.026l.264.011-.264-.01zm48.977-.082l-.932.068a237.246 237.246 0 0 0 .932-.068zm-50.483.016l.28.013-.28-.013zm-1.238-.057l.345.016-.344-.016zm-1.762-.086l.592.03-.592-.03zm-1.083-.056l.936.048-.937-.048zm57.561-.06l-.152.013.615-.054-.615.054.152-.013zm1.485-.135l-.171.016.49-.046-.49.046.171-.016zm-64.86-.143l.531.033a498.15 498.15 0 0 1-.53-.033zm66.338 0l-.261.026.655-.066-.656.066c.087-.01.175-.018.262-.027zm-67.685-.088l.932.061-.932-.061zm69.153-.065l-.521.055c.312-.032.624-.066.935-.1l-.935.1.521-.055zm-72.775-.19a468.636 468.636 0 0 0 .041.003zm74.236.03l-.813.09c.339-.037.677-.075 1.015-.114l-1.015.114.813-.09zm1.534-.18l-.081.01a225.997 225.997 0 0 1 .081-.01zm-78.8-.085l.532.043-.532-.043zm-1.197-.099l.6.05-.6-.05zm81.36.015l-.08.01.615-.078-.615.078.08-.01zm-82.393-.102l.15.012-.15-.012zm83.829-.084l-.159.02.39-.051-.39.052.159-.021zm-86.426-.148a415.31 415.31 0 0 0 .064.005zm87.854-.047l-.094.013.316-.044-.316.044.094-.013zm-89.249-.085l.206.02-.205-.02zm90.668-.118l-.336.049.625-.092-.624.091.335-.048zm-93.4-.154l.682.07-.683-.07zm94.812-.058l-.46.07.658-.1-.658.1.46-.07zm-95.849-.05l.383.04a377.44 377.44 0 0 1-.382-.04zm97.252-.17l-.337.054.42-.067-.42.067.337-.054zm1.395-.227l-.245.04a214.342 214.342 0 0 0 .245-.04zm-106.437-.513l1.01.128-.418-.053-.592-.075zm109.203.033l-.064.011.245-.044-.245.044.064-.011zm1.37-.252l-.335.063.62-.116-.62.116.336-.063zm-112.486-.032l.114.015-.115-.016h.001zm113.85-.228l-.25.049.46-.09-.46.09.25-.049zm-116.65-.162a306.51 306.51 0 0 0 .554.08zm118.004-.105l-.508.101.651-.13-.651.13.508-.1zm-118.785-.008l.167.025-.167-.025zm-1.633-.243l.777.117a303.33 303.33 0 0 1-.138-.02l-.64-.097zm123.102-.307l-.086.019.534-.115-.533.115.085-.019zm1.33-.29l-.114.025.456-.101-.455.101.113-.025zM84.073 281.4l.364.063-.364-.063zm131.063-.036l-.279.064.555-.127-.554.126c.093-.02.186-.042.278-.063zm-133.359-.368l.53.095-.53-.095zm134.673.063l-.126.03.274-.065-.273.064.125-.03zm-135.553-.224l.12.022-.12-.022zm137.18-.167l-.321.078a199.505 199.505 0 0 1 .32-.078zm-138.325-.048l.499.094c-.167-.03-.333-.062-.5-.094zm-1.2-.23a240.973 240.973 0 0 0 .292.056zm-3.097-.625l.28.058-.28-.058zm146.17 0l-.126.033.437-.116-.437.116.126-.034zm1.273-.342l-.041.011.137-.037-.138.037.042-.011zm-149.574-.115l.406.089-.407-.089zm150.84-.234l-.26.072.555-.154-.555.154.26-.072zm1.257-.355l-.175.05.28-.08-.28.08.175-.05zm-155.396-.162l.562.132-.13-.03zm156.645-.2l-.333.097.507-.15-.507.15.333-.098zm-157.483 0l.385.092-.385-.092zm-.933-.227l.275.067-.275-.067zm-.958-.239l.381.096-.38-.096zm161.849-.28l-.033.01.259-.08-.26.08.034-.01zm1.225-.383l-.11.035.261-.083-.262.083.111-.035zm1.217-.39l-.115.038.33-.107-.33.107.115-.038zm-169.11-.23l.106.031-.106-.03zm170.32-.166l-.282.094.52-.173-.52.172c.094-.03.188-.062.281-.093zm-171.243-.095l.152.043-.151-.043h-.001zm172.444-.307l-.295.1.365-.124-.364.123.294-.1zm-173.375.037l.103.03-.103-.03zM253.41 0c16.9 0 30.6 13.7 30.6 30.6v57.377h1.913c1.056 0 1.913.856 1.913 1.912v72.677a1.913 1.913 0 0 1-1.913 1.912h-1.912v84.606a151.87 151.87 0 0 1-11.475 8.32V33.47c0-12.675-10.276-22.95-22.951-22.95H79.37c-12.675 0-22.95 10.275-22.95 22.95V274.78a131.667 131.667 0 0 1-11.475-4.29v-98.362h-1.913a1.913 1.913 0 0 1-1.912-1.912V135.79c0-1.056.856-1.912 1.912-1.912h1.913v-7.65h-1.913a1.913 1.913 0 0 1-1.912-1.913V89.889c0-1.056.856-1.912 1.912-1.912h1.913V30.6C44.945 13.7 58.645 0 75.545 0h177.866zm-14.688 274.366l-.1.037.375-.14-.376.14.1-.037zm1.16-.434l-.251.095.452-.171-.452.17c.084-.03.168-.063.252-.094zm1.154-.44l-.272.104.512-.197-.512.197.272-.105zm1.146-.447l-.546.214.672-.264-.672.264.546-.214zm4.502-1.844l-.136.058.362-.155-.362.155.136-.058zm1.106-.476l-.345.15.689-.3-.688.3.344-.15zm1.098-.48l-.56.245.737-.324-.736.324.559-.246zm2.171-.98l-.317.146a170.85 170.85 0 0 0 .317-.146zm1.075-.497l-.075.035c.104-.05.209-.098.313-.147l-.314.147.076-.035zm1.066-.503l-.14.066.472-.225-.472.225.14-.066zm1.058-.509l-.297.144.537-.26-.536.26.296-.144zm1.05-.513l-.271.133.424-.209-.424.21.272-.134zm5.136-2.645l-.284.152c.226-.12.45-.241.674-.363l-.673.363.283-.152zm1.003-.544l-.33.18.473-.258-.472.258.33-.18zm.996-.548l-.162.09.242-.135-.243.135.163-.09zm2.94-1.673l-.037.02c.08-.045.159-.092.238-.138l-.238.14.037-.022zm.964-.567l-.155.092.389-.231-.39.23.156-.091zm.957-.572l-.221.133.434-.261-.434.261.221-.133zm.949-.575l-.266.162.427-.261-.426.26.265-.161zm.94-.58l-.252.157.303-.189-.303.189.253-.157zm2.59-1.643l.188-.123zM95.9 283.177l-.193-.025.801.104-.608-.079zm-7.033-.997l-.385-.06.899.139-.514-.079zm130.331-1.79l-.145.036c-.306.077-.613.153-.92.228l1.065-.264z"/>
        <mask id="b" fill="#fff">
            <use xlink:href="#a"/>
        </mask>
        <use fill="#0A0D14" xlink:href="#a"/>
        <rect width="68.851" height="11.475" x="130.052" y="30.601" fill="#404040" mask="url(#b)" rx="2.355"/>
        <rect width="68.851" height="11.475" x="65.983" y="167.347" fill="#414150" mask="url(#b)" rx="2.355"/>
        <rect width="68.851" height="11.475" x="65.983" y="242.892" fill="#414150" mask="url(#b)" rx="2.355"/>
        <rect width="206.554" height="41.12" x="65.983" y="187.429" fill="#414150" mask="url(#b)" rx="2.355"/>
        <rect width="206.554" height="41.12" x="65.983" y="262.974" fill="#414150" mask="url(#b)" rx="2.355"/>
        <g mask="url(#b)">
            <g transform="translate(65.983 52.595)">
                <path fill="#009175" d="M4.59 0h187.62a4.59 4.59 0 0 1 4.59 4.59v64.261H0V4.591A4.59 4.59 0 0 1 4.59 0z"/>
                <rect width="68.851" height="11.475" x="13.388" y="11.475" fill="#00715B" rx="2.355"/>
                <g transform="matrix(1 0 0 -1 0 165.243)">
                    <use fill="#000" filter="url(#c)" xlink:href="#d"/>
                    <use fill="#414150" xlink:href="#d"/>
                </g>
                <rect width="58.332" height="19.125" x="134.499" y="72.791" fill="#9B9BAA" rx="2.008"/>
                <rect width="68.851" height="11.475" x="12.431" y="76.501" fill="#9B9BAA" rx="2.355"/>
                <text font-family="SoRay-ExtraBold, So Ray" font-size="27.541" font-weight="600">
                    <tspan x="13.197" y="54.541" fill="#FFF">149 kr</tspan>
                </text>
            </g>
        </g>
    </g>
</svg>
