<svg width="345" height="301" xmlns="http://www.w3.org/2000/svg"><g fill="none" fill-rule="evenodd"><path d="M193.628 300.5c-55.369 0-101.39-9.96-135.41-27.851-30.4-15.987-49.773-37.743-55.362-60.658-5.863-24.036 1.075-62.81 19.116-96.473C44.136 74.16 80.043 43.797 127.876 31.516c49.348-12.67 103.396 1.041 147.714 34.188C317.656 97.167 344.5 141.702 344.5 182c0 43.47-9.338 71.715-31.363 90.19-23.08 19.36-60.846 28.311-119.51 28.311z" stroke="#F9FAFC" fill="#FF8A80"/><g transform="translate(48)"><rect fill="#FFF" width="250" height="52" rx="8"/><g transform="translate(225 21)" fill="#651EFF"><circle opacity=".1" cx="5.333" cy="5.333" r="5.333"/><rect x="4.667" y="2" width="1" height="4" rx=".5"/><rect transform="rotate(-60 6.277 6.366)" x="5.943" y="4.699" width="1" height="3.333" rx=".333"/></g><path d="M34 37c0-1.14-.895-2.063-2-2.063s-2 .924-2 2.063c0-1.14-.895-2.063-2-2.063s-2 .924-2 2.063c0-1.14-.895-2.063-2-2.063s-2 .924-2 2.063c0-1.14-.895-2.063-2-2.063s-2 .924-2 2.063V23a8 8 0 1116 0v14z" fill="#F1F3F7"/><circle fill="#414150" cx="23.5" cy="23.375" r="1.5"/><circle fill="#414150" cx="28.5" cy="23.375" r="1.5"/><path d="M50.224 36.333h-.768v-3.656H48.2v-.552c.352-.005.648-.097.888-.276.24-.178.39-.412.448-.7h.688v5.184zm4.56-5.184v.752a5.835 5.835 0 00-.392.344c-.128.123-.297.32-.508.592-.21.272-.396.56-.556.864-.16.304-.31.69-.452 1.156a7.457 7.457 0 00-.284 1.476h-.808c.032-.41.096-.809.192-1.196.096-.386.208-.724.336-1.012a8.55 8.55 0 01.412-.812c.147-.253.291-.466.432-.64a8.81 8.81 0 01.384-.444c.115-.122.207-.213.276-.272l.104-.088H51v-.72h3.784zm3.617 6.704h-.744v-5.368h.728v.6c.112-.202.28-.368.504-.496.224-.128.486-.192.784-.192.555 0 .988.19 1.3.568.312.379.468.859.468 1.44 0 .587-.16 1.072-.484 1.456-.322.384-.758.576-1.308.576-.282 0-.533-.058-.752-.176a1.272 1.272 0 01-.496-.448v2.04zm2.272-3.448c0-.389-.102-.71-.308-.964-.205-.253-.48-.38-.828-.38-.34 0-.617.127-.828.38-.21.254-.316.575-.316.964 0 .4.106.727.316.98.211.254.487.38.828.38.342 0 .616-.126.824-.38.208-.253.312-.58.312-.98zm2.313-.392h2.104a1.023 1.023 0 00-.288-.708c-.181-.184-.437-.276-.768-.276a.99.99 0 00-.736.292 1.046 1.046 0 00-.312.692zm2.216 1l.648.224c-.112.358-.32.65-.624.876-.304.227-.672.34-1.104.34-.539 0-.996-.185-1.372-.556-.376-.37-.564-.87-.564-1.5 0-.586.181-1.072.544-1.456.363-.384.795-.576 1.296-.576.581 0 1.035.183 1.36.548.325.366.488.855.488 1.468 0 .096-.005.176-.016.24h-2.896c.005.342.119.622.34.84.221.219.495.328.82.328.55 0 .91-.258 1.08-.776zm3.864-2.568v.8a2.318 2.318 0 00-.328-.024c-.704 0-1.056.395-1.056 1.184v1.928h-.752v-3.848h.736v.672c.235-.49.619-.736 1.152-.736.086 0 .168.008.248.024zm.537 2.888l.68-.24a.8.8 0 00.272.516c.154.136.362.204.624.204.202 0 .362-.049.48-.148a.458.458 0 00.176-.364c0-.256-.166-.421-.496-.496l-.656-.144c-.299-.064-.534-.192-.704-.384a1.011 1.011 0 01-.256-.696c0-.33.134-.616.404-.856s.59-.36.964-.36c.245 0 .464.036.656.108.192.072.341.167.448.284.106.118.186.227.24.328.053.102.093.206.12.312l-.664.248a.8.8 0 00-.056-.188 1.043 1.043 0 00-.124-.204.58.58 0 00-.244-.18.956.956 0 00-.376-.068c-.187 0-.34.051-.46.152a.458.458 0 00-.18.36c0 .246.146.4.44.464l.624.136c.341.075.604.212.788.412.184.2.276.444.276.732 0 .304-.124.579-.372.824-.248.246-.594.368-1.036.368-.475 0-.846-.118-1.112-.356-.267-.237-.419-.492-.456-.764zm4.824.088c.235.24.52.36.856.36.336 0 .62-.121.852-.364.232-.242.348-.58.348-1.012 0-.426-.116-.761-.348-1.004a1.133 1.133 0 00-.852-.364c-.336 0-.62.122-.852.364-.232.243-.348.578-.348 1.004 0 .432.115.771.344 1.016zm-.56-2.472c.374-.389.846-.584 1.416-.584.571 0 1.042.194 1.412.58.371.387.556.874.556 1.46 0 .592-.184 1.082-.552 1.468-.368.387-.84.58-1.416.58s-1.048-.193-1.416-.58c-.368-.386-.552-.876-.552-1.468 0-.586.184-1.072.552-1.456zm5.193 1.16v2.224h-.752v-3.848h.736v.552c.256-.442.65-.664 1.184-.664.442 0 .782.142 1.02.424.237.283.356.648.356 1.096v2.44h-.752v-2.312c0-.645-.299-.968-.896-.968-.283 0-.503.1-.66.3-.158.2-.236.452-.236.756zm4.328-.096h2.104a1.023 1.023 0 00-.288-.708c-.181-.184-.437-.276-.768-.276a.99.99 0 00-.736.292 1.046 1.046 0 00-.312.692zm2.216 1l.648.224c-.112.358-.32.65-.624.876-.304.227-.672.34-1.104.34-.538 0-.996-.185-1.372-.556-.376-.37-.564-.87-.564-1.5 0-.586.182-1.072.544-1.456.363-.384.795-.576 1.296-.576.582 0 1.035.183 1.36.548.326.366.488.855.488 1.468 0 .096-.005.176-.016.24h-2.896c.006.342.119.622.34.84.222.219.495.328.82.328.55 0 .91-.258 1.08-.776zm3.865-2.568v.8a2.318 2.318 0 00-.328-.024c-.704 0-1.056.395-1.056 1.184v1.928h-.752v-3.848h.736v.672c.234-.49.618-.736 1.152-.736.085 0 .168.008.248.024zm3.745 1.624v2.264h-.752v-5.792h.752v2.392c.256-.373.645-.56 1.168-.56.442 0 .782.142 1.02.424.237.283.356.648.356 1.096v2.44h-.752v-2.312c0-.645-.299-.968-.896-.968-.278 0-.494.095-.648.284-.155.19-.238.434-.248.732zm3.6 1.232c0-.33.107-.596.32-.796.213-.2.496-.324.848-.372l1.04-.152c.197-.026.296-.122.296-.288a.644.644 0 00-.208-.496c-.139-.128-.347-.192-.624-.192-.256 0-.459.071-.608.212a.885.885 0 00-.264.564l-.72-.168a1.26 1.26 0 01.504-.9 1.695 1.695 0 011.072-.348c.544 0 .947.132 1.208.396s.392.602.392 1.012v1.928c0 .23.016.44.048.632h-.736a3.168 3.168 0 01-.04-.52c-.107.171-.263.32-.468.448-.205.128-.463.192-.772.192-.379 0-.688-.113-.928-.34a1.079 1.079 0 01-.36-.812zm1.392.52c.336 0 .605-.09.808-.272.203-.181.304-.469.304-.864v-.176l-1.176.176a.743.743 0 00-.408.184.514.514 0 00-.152.392c0 .15.057.28.172.392a.62.62 0 00.452.168zm5.265-3.376v.8a2.318 2.318 0 00-.328-.024c-.704 0-1.056.395-1.056 1.184v1.928h-.752v-3.848h.736v.672c.234-.49.618-.736 1.152-.736.085 0 .168.008.248.024zm3.785 2.976c.234.24.52.36.856.36.336 0 .62-.121.852-.364.232-.242.348-.58.348-1.012 0-.426-.116-.761-.348-1.004a1.133 1.133 0 00-.852-.364c-.336 0-.62.122-.852.364-.232.243-.348.578-.348 1.004 0 .432.114.771.344 1.016zm-.56-2.472c.373-.389.845-.584 1.416-.584.57 0 1.04.194 1.412.58.37.387.556.874.556 1.46 0 .592-.184 1.082-.552 1.468-.368.387-.84.58-1.416.58s-1.048-.193-1.416-.58c-.368-.386-.552-.876-.552-1.468 0-.586.184-1.072.552-1.456zm.2-1.584c0-.128.044-.237.132-.328a.434.434 0 01.324-.136c.133 0 .245.046.336.136.09.091.136.2.136.328a.443.443 0 01-.136.332.464.464 0 01-.336.132.45.45 0 01-.456-.464zm1.496 0c0-.128.044-.237.132-.328a.443.443 0 01.332-.136c.128 0 .237.046.328.136.09.091.136.2.136.328a.443.443 0 01-.136.332.454.454 0 01-.328.132.45.45 0 01-.464-.464zm3.488 6.488h-.744v-5.368h.728v.6c.112-.202.28-.368.504-.496.224-.128.485-.192.784-.192.555 0 .988.19 1.3.568.312.379.468.859.468 1.44 0 .587-.161 1.072-.484 1.456-.323.384-.759.576-1.308.576-.283 0-.533-.058-.752-.176a1.272 1.272 0 01-.496-.448v2.04zm2.272-3.448c0-.389-.103-.71-.308-.964-.205-.253-.481-.38-.828-.38-.341 0-.617.127-.828.38-.21.254-.316.575-.316.964 0 .4.105.727.316.98.21.254.487.38.828.38.341 0 .616-.126.824-.38.208-.253.312-.58.312-.98zm2.568 3.448h-.744v-5.368h.728v.6c.112-.202.28-.368.504-.496.224-.128.486-.192.784-.192.555 0 .988.19 1.3.568.312.379.468.859.468 1.44 0 .587-.16 1.072-.484 1.456-.322.384-.758.576-1.308.576-.282 0-.533-.058-.752-.176a1.272 1.272 0 01-.496-.448v2.04zm2.272-3.448c0-.389-.102-.71-.308-.964-.205-.253-.48-.38-.828-.38-.34 0-.617.127-.828.38-.21.254-.316.575-.316.964 0 .4.106.727.316.98.211.254.487.38.828.38.342 0 .616-.126.824-.38.208-.253.312-.58.312-.98zm2.577-.296v2.224h-.752v-3.848h.736v.552c.256-.442.65-.664 1.184-.664.443 0 .783.142 1.02.424.237.283.356.648.356 1.096v2.44h-.752v-2.312c0-.645-.299-.968-.896-.968-.283 0-.503.1-.66.3-.157.2-.236.452-.236.756zm3.6 1.192c0-.33.107-.596.32-.796.214-.2.496-.324.848-.372l1.04-.152c.198-.026.296-.122.296-.288a.644.644 0 00-.208-.496c-.138-.128-.346-.192-.624-.192-.256 0-.458.071-.608.212a.885.885 0 00-.264.564l-.72-.168a1.26 1.26 0 01.504-.9 1.695 1.695 0 011.072-.348c.544 0 .947.132 1.208.396.262.264.392.602.392 1.012v1.928c0 .23.016.44.048.632h-.736a3.168 3.168 0 01-.04-.52c-.106.171-.262.32-.468.448-.205.128-.462.192-.772.192-.378 0-.688-.113-.928-.34a1.079 1.079 0 01-.36-.812zm1.392.52c.336 0 .606-.09.808-.272.203-.181.304-.469.304-.864v-.176l-1.176.176a.743.743 0 00-.408.184.514.514 0 00-.152.392c0 .15.058.28.172.392a.62.62 0 00.452.168zm4.137-4.552v1.216h.832v.68h-.832v2c0 .182.041.315.124.4.083.086.22.128.412.128.112 0 .21-.01.296-.032v.64a1.492 1.492 0 01-.512.072c-.33 0-.592-.096-.784-.288-.192-.192-.288-.461-.288-.808v-2.112h-.736v-.68h.208c.197 0 .345-.054.444-.164a.614.614 0 00.148-.428v-.624h.688zm4.473 3.128c0 .406.1.736.3.992.2.256.476.384.828.384.336 0 .605-.13.808-.392.202-.261.304-.594.304-1 0-.4-.099-.722-.296-.968-.198-.245-.467-.368-.808-.368-.342 0-.616.126-.824.376-.208.251-.312.576-.312.976zm2.248 1.416v-.064a1.267 1.267 0 01-.46.492c-.206.131-.45.196-.732.196-.55 0-.99-.193-1.324-.58-.334-.386-.5-.873-.5-1.46 0-.56.17-1.036.512-1.428a1.661 1.661 0 011.312-.588c.314 0 .57.063.768.188a1 1 0 01.408.46v-2.488h.744v5.08c0 .262.013.499.04.712h-.728a2.988 2.988 0 01-.04-.52zm2.848.52h-.744v-3.848h.744v3.848zm-.76-4.92a.538.538 0 01-.152-.384.53.53 0 01.156-.384.51.51 0 01.38-.16.53.53 0 01.384.156.52.52 0 01.16.388.51.51 0 01-.16.38.53.53 0 01-.384.156.538.538 0 01-.384-.152zm2.889 2.696v2.224h-.752v-3.848h.736v.552c.256-.442.65-.664 1.184-.664.442 0 .782.142 1.02.424.237.283.356.648.356 1.096v2.44h-.752v-2.312c0-.645-.299-.968-.896-.968-.283 0-.503.1-.66.3-.158.2-.236.452-.236.756zm6.689 2.224h-.752v-5.792h.752v5.792zm1.136-1.032c0-.33.107-.596.32-.796.214-.2.496-.324.848-.372l1.04-.152c.198-.026.296-.122.296-.288a.644.644 0 00-.208-.496c-.138-.128-.346-.192-.624-.192-.256 0-.458.071-.608.212a.885.885 0 00-.264.564l-.72-.168a1.26 1.26 0 01.504-.9 1.695 1.695 0 011.072-.348c.544 0 .947.132 1.208.396.262.264.392.602.392 1.012v1.928c0 .23.016.44.048.632h-.736a3.168 3.168 0 01-.04-.52c-.106.171-.262.32-.468.448-.205.128-.462.192-.772.192-.378 0-.688-.113-.928-.34a1.079 1.079 0 01-.36-.812zm1.392.52c.336 0 .606-.09.808-.272.203-.181.304-.469.304-.864v-.176l-1.176.176a.743.743 0 00-.408.184.514.514 0 00-.152.392c0 .15.058.28.172.392a.62.62 0 00.452.168zm-.912-4.456c0-.128.044-.237.132-.328a.434.434 0 01.324-.136c.134 0 .246.046.336.136.09.091.136.2.136.328a.443.443 0 01-.136.332.464.464 0 01-.336.132.45.45 0 01-.456-.464zm1.496 0c0-.128.044-.237.132-.328a.443.443 0 01.332-.136c.128 0 .238.046.328.136.09.091.136.2.136.328a.443.443 0 01-.136.332.454.454 0 01-.328.132.45.45 0 01-.464-.464zm3.297 2.744v2.224h-.752v-3.848h.736v.552c.256-.442.65-.664 1.184-.664.442 0 .782.142 1.02.424.237.283.356.648.356 1.096v2.44h-.752v-2.312c0-.645-.299-.968-.896-.968-.283 0-.503.1-.66.3-.158.2-.236.452-.236.756zm7.288-1.624l-1.64 1.624 1.672 2.224h-.944l-1.256-1.696-.536.536v1.16h-.744v-5.792h.744v3.648l1.664-1.704h1.04z" fill="#414150" fill-rule="nonzero"/><path d="M53.58 17.6l-1.24.38c-.07-.39-.39-1-1.29-1-.67 0-1.11.43-1.11.9 0 .39.25.7.77.8l.99.19c1.29.25 1.98 1.09 1.98 2.09 0 1.09-.91 2.19-2.56 2.19-1.88 0-2.71-1.21-2.82-2.22l1.28-.34c.06.7.55 1.33 1.55 1.33.74 0 1.15-.37 1.15-.87 0-.41-.31-.73-.86-.84l-.99-.2c-1.13-.23-1.86-.96-1.86-2.03 0-1.26 1.13-2.22 2.47-2.22 1.72 0 2.38 1.04 2.54 1.84zm2.35 7.3H54.6v-6.82h1.29v.6c.22-.38.77-.71 1.51-.71 1.44 0 2.27 1.1 2.27 2.56 0 1.49-.93 2.59-2.32 2.59-.68 0-1.18-.27-1.42-.6v2.38zm2.43-4.36c0-.87-.54-1.38-1.22-1.38-.68 0-1.23.51-1.23 1.38 0 .87.55 1.39 1.23 1.39.68 0 1.22-.51 1.22-1.39zm2.81-3.82a.704.704 0 111.41 0c0 .39-.32.7-.71.7-.39 0-.7-.31-.7-.7zm2.1 0c0-.39.3-.71.7-.71a.704.704 0 110 1.41c-.4 0-.7-.31-.7-.7zm-.34 5.22c.65 0 1.25-.47 1.25-1.4 0-.93-.6-1.4-1.25-1.4s-1.25.47-1.25 1.4c0 .92.6 1.4 1.25 1.4zm0-4.01c1.47 0 2.58 1.09 2.58 2.61 0 1.51-1.11 2.61-2.58 2.61s-2.58-1.1-2.58-2.61c0-1.52 1.11-2.61 2.58-2.61zm8.4.15l-1.97 2.07L71.37 23h-1.63l-1.3-1.88-.55.58V23h-1.33v-7.24h1.33v4.15l1.7-1.83h1.74zm1.57 1.9h2.2c-.02-.49-.34-.97-1.1-.97-.69 0-1.07.52-1.1.97zm2.33 1.28l1.11.33c-.25.85-1.03 1.56-2.24 1.56-1.35 0-2.54-.97-2.54-2.63 0-1.57 1.16-2.59 2.42-2.59 1.52 0 2.43.97 2.43 2.55 0 .19-.02.39-.02.41h-3.52c.03.65.58 1.12 1.24 1.12.62 0 .96-.31 1.12-.75zm3.56-1.09V23h-1.33v-4.92h1.29v.61c.3-.51.89-.74 1.42-.74 1.22 0 1.78.87 1.78 1.95V23h-1.33v-2.87c0-.55-.27-.98-.91-.98-.58 0-.92.45-.92 1.02z" fill="#141033" fill-rule="nonzero"/></g><g transform="translate(48 56)"><rect fill="#FFF" width="250" height="52" rx="8"/><rect fill-opacity=".05" fill="#141033" x="193" y="17" width="48" height="17.684" rx="5.053"/><path d="M200.847 26.983h-2.396v-.725h2.396v.725zm2.786 2.175h-.85v-4.04h-1.388v-.611c.39-.006.717-.108.982-.305.265-.198.43-.455.495-.774h.76v5.73zm2.617-4.722c-.336.354-.504.973-.504 1.857s.168 1.503.504 1.857c.236.247.54.371.911.371s.675-.124.91-.371c.337-.354.505-.973.505-1.857s-.168-1.503-.504-1.857c-.236-.247-.54-.371-.911-.371s-.675.124-.91.371zm-.849 3.935c-.341-.507-.512-1.2-.512-2.078 0-.878.17-1.57.512-2.078.407-.613.994-.92 1.76-.92s1.353.307 1.76.92c.342.507.512 1.2.512 2.078 0 .878-.17 1.571-.512 2.078-.407.613-.994.92-1.76.92s-1.353-.307-1.76-.92zm11.417-3.466l-1.813 1.795 1.848 2.458h-1.043l-1.389-1.875-.592.593v1.282h-.822v-6.402h.822v4.032l1.84-1.883h1.149zm3.298-.044v.884a2.562 2.562 0 00-.362-.027c-.778 0-1.167.437-1.167 1.309v2.13h-.832v-4.252h.814v.743c.26-.543.684-.814 1.273-.814.094 0 .186.009.274.027z" fill="#414150" fill-rule="nonzero"/><circle fill="#1BE9B6" cx="230.895" cy="25.842" r="5.053"/><path fill="#FFF" d="M229.904 27.24l-1.398-1.413-.474.48 1.872 1.893 4.022-4.068-.474-.48z"/><circle fill="#009175" cx="26" cy="26" r="12"/><path fill="#F9FAFC" fill-rule="nonzero" d="M24.95 30h-1.176v-8.508h5.172v1.092H24.95v2.736h3.624v1.104H24.95z"/><path d="M53.184 36.333H52.4v-2.52h-2.896v2.52h-.784v-5.672h.784v2.424H52.4v-2.424h.784v5.672zm1.176-1.032c0-.33.107-.596.32-.796.214-.2.496-.324.848-.372l1.04-.152c.198-.026.296-.122.296-.288a.644.644 0 00-.208-.496c-.138-.128-.346-.192-.624-.192-.256 0-.458.071-.608.212a.885.885 0 00-.264.564l-.72-.168a1.26 1.26 0 01.504-.9 1.695 1.695 0 011.072-.348c.544 0 .947.132 1.208.396.262.264.392.602.392 1.012v1.928c0 .23.016.44.048.632h-.736a3.168 3.168 0 01-.04-.52c-.106.171-.262.32-.468.448-.205.128-.462.192-.772.192-.378 0-.688-.113-.928-.34a1.079 1.079 0 01-.36-.812zm1.392.52c.336 0 .606-.09.808-.272.203-.181.304-.469.304-.864v-.176l-1.176.176a.743.743 0 00-.408.184.514.514 0 00-.152.392c0 .15.058.28.172.392a.62.62 0 00.452.168zm5.265-3.376v.8a2.318 2.318 0 00-.328-.024c-.704 0-1.056.395-1.056 1.184v1.928h-.752v-3.848h.736v.672c.235-.49.619-.736 1.152-.736.085 0 .168.008.248.024zm2.633 2.888l.68-.24a.8.8 0 00.272.516c.155.136.363.204.624.204.203 0 .363-.049.48-.148a.458.458 0 00.176-.364c0-.256-.165-.421-.496-.496l-.656-.144c-.299-.064-.533-.192-.704-.384a1.011 1.011 0 01-.256-.696c0-.33.135-.616.404-.856.27-.24.59-.36.964-.36.245 0 .464.036.656.108.192.072.341.167.448.284a1.395 1.395 0 01.36.64l-.664.248a.8.8 0 00-.056-.188 1.043 1.043 0 00-.124-.204.58.58 0 00-.244-.18.956.956 0 00-.376-.068c-.187 0-.34.051-.46.152a.458.458 0 00-.18.36c0 .246.147.4.44.464l.624.136c.341.075.604.212.788.412.184.2.276.444.276.732 0 .304-.124.579-.372.824-.248.246-.593.368-1.036.368-.475 0-.845-.118-1.112-.356-.267-.237-.419-.492-.456-.764zm7.52-2.848l-1.64 1.624 1.672 2.224h-.944l-1.256-1.696-.536.536v1.16h-.744v-5.792h.744v3.648l1.664-1.704h1.04zm.489 2.816c0-.33.106-.596.32-.796.213-.2.496-.324.848-.372l1.04-.152c.197-.026.296-.122.296-.288a.644.644 0 00-.208-.496c-.139-.128-.347-.192-.624-.192-.256 0-.459.071-.608.212a.885.885 0 00-.264.564l-.72-.168a1.26 1.26 0 01.504-.9 1.695 1.695 0 011.072-.348c.544 0 .946.132 1.208.396.261.264.392.602.392 1.012v1.928c0 .23.016.44.048.632h-.736a3.168 3.168 0 01-.04-.52c-.107.171-.263.32-.468.448-.206.128-.463.192-.772.192-.379 0-.688-.113-.928-.34a1.079 1.079 0 01-.36-.812zm1.392.52c.336 0 .605-.09.808-.272.202-.181.304-.469.304-.864v-.176l-1.176.176a.743.743 0 00-.408.184.514.514 0 00-.152.392c0 .15.057.28.172.392a.62.62 0 00.452.168zm7.272-4.6a.653.653 0 00-.428.148c-.12.099-.18.268-.18.508v.608h.928v.68h-.928v3.168h-.776v-3.168h-1.752v3.168h-.776v-3.168H75.7v-.68h.712v-.648c0-.41.12-.733.36-.968a1.24 1.24 0 01.904-.352c.23 0 .379.027.448.08v.672a.907.907 0 00-.328-.048.653.653 0 00-.428.148c-.12.099-.18.268-.18.508v.608h1.752v-.648c0-.41.12-.733.36-.968a1.24 1.24 0 01.904-.352c.23 0 .379.027.448.08v.672a.907.907 0 00-.328-.048zm.985 4.08c0-.33.106-.596.32-.796.213-.2.496-.324.848-.372l1.04-.152c.197-.026.296-.122.296-.288a.644.644 0 00-.208-.496c-.139-.128-.347-.192-.624-.192-.256 0-.459.071-.608.212a.885.885 0 00-.264.564l-.72-.168a1.26 1.26 0 01.504-.9 1.695 1.695 0 011.072-.348c.544 0 .946.132 1.208.396.261.264.392.602.392 1.012v1.928c0 .23.016.44.048.632h-.736a3.168 3.168 0 01-.04-.52c-.107.171-.263.32-.468.448-.206.128-.463.192-.772.192-.379 0-.688-.113-.928-.34a1.079 1.079 0 01-.36-.812zm1.392.52c.336 0 .605-.09.808-.272.202-.181.304-.469.304-.864v-.176l-1.176.176a.743.743 0 00-.408.184.514.514 0 00-.152.392c0 .15.057.28.172.392a.62.62 0 00.452.168zm4.136-4.552v1.216h.832v.68h-.832v2c0 .182.042.315.124.4.083.086.22.128.412.128.112 0 .21-.01.296-.032v.64a1.492 1.492 0 01-.512.072c-.33 0-.592-.096-.784-.288-.192-.192-.288-.461-.288-.808v-2.112h-.736v-.68h.208c.198 0 .346-.054.444-.164a.614.614 0 00.148-.428v-.624h.688zm8.57 5.064h-.785v-2.52h-2.896v2.52h-.784v-5.672h.784v2.424h2.896v-2.424h.784v5.672zm1.944-2.32h2.104a1.023 1.023 0 00-.288-.708c-.182-.184-.438-.276-.768-.276a.99.99 0 00-.736.292 1.046 1.046 0 00-.312.692zm2.216 1l.648.224c-.112.358-.32.65-.624.876-.304.227-.672.34-1.104.34-.539 0-.996-.185-1.372-.556-.376-.37-.564-.87-.564-1.5 0-.586.181-1.072.544-1.456.362-.384.794-.576 1.296-.576.581 0 1.034.183 1.36.548.325.366.488.855.488 1.468 0 .096-.006.176-.016.24h-2.896c.005.342.118.622.34.84.221.219.494.328.82.328.549 0 .909-.258 1.08-.776zm2.176-.616c0 .406.1.736.3.992.2.256.476.384.828.384.336 0 .605-.13.808-.392.203-.261.304-.594.304-1 0-.4-.099-.722-.296-.968-.197-.245-.467-.368-.808-.368s-.616.126-.824.376c-.208.251-.312.576-.312.976zm2.248 1.416v-.064a1.267 1.267 0 01-.46.492c-.205.131-.45.196-.732.196-.55 0-.99-.193-1.324-.58-.333-.386-.5-.873-.5-1.46 0-.56.17-1.036.512-1.428a1.661 1.661 0 011.312-.588c.315 0 .57.063.768.188a1 1 0 01.408.46v-2.488h.744v5.08c0 .262.013.499.04.712h-.728a2.988 2.988 0 01-.04-.52zm5.4-3.328l-1.535 3.848h-.76l-1.56-3.848h.848l1.096 2.968 1.104-2.968h.808zm1.561 3.848h-.744v-3.848h.744v3.848zm-.76-4.92a.538.538 0 01-.152-.384.53.53 0 01.156-.384.51.51 0 01.38-.16.53.53 0 01.384.156.52.52 0 01.16.388.51.51 0 01-.16.38.53.53 0 01-.384.156.538.538 0 01-.384-.152zm1.857 5.128l.728-.168c.026.272.136.498.328.676.192.179.432.268.72.268.784 0 1.176-.416 1.176-1.248v-.552a1.11 1.11 0 01-.452.456 1.434 1.434 0 01-.724.176c-.512 0-.935-.174-1.268-.524-.334-.349-.5-.796-.5-1.34 0-.528.165-.972.496-1.332.33-.36.754-.54 1.272-.54.586 0 .98.203 1.184.608v-.536h.744v3.56c0 .256-.034.495-.1.716a1.885 1.885 0 01-.316.612 1.43 1.43 0 01-.604.44 2.37 2.37 0 01-.908.16c-.475 0-.878-.134-1.208-.404-.331-.269-.52-.612-.568-1.028zm1.888-1.024c.325 0 .589-.113.792-.34.202-.226.304-.524.304-.892s-.102-.665-.304-.892a1.012 1.012 0 00-.792-.34c-.331 0-.6.112-.804.336-.206.224-.308.523-.308.896 0 .379.1.679.3.9.2.222.47.332.812.332zm4.184-4.856l-.2 4.048h-.536l-.208-4.048h.944zm-.84 5.56a.501.501 0 01-.152-.368c0-.144.05-.268.152-.372a.495.495 0 01.368-.156c.144 0 .268.052.372.156a.508.508 0 01.156.372.495.495 0 01-.156.368.515.515 0 01-.372.152.501.501 0 01-.368-.152z" fill="#414150" fill-rule="nonzero"/><path d="M50.2 23h-1.39v-7.09h4.48v1.31h-3.1v1.75h2.76v1.27H50.2V23zm6.79-4.94v1.34c-.15-.03-.28-.04-.4-.04-.68 0-1.27.33-1.27 1.39V23h-1.33v-4.92h1.29v.73c.3-.65.98-.77 1.4-.77.11 0 .21.01.31.02zm1.86 1.92h2.2c-.02-.49-.34-.97-1.1-.97-.69 0-1.07.52-1.1.97zm2.33 1.28l1.11.33c-.25.85-1.03 1.56-2.24 1.56-1.35 0-2.54-.97-2.54-2.63 0-1.57 1.16-2.59 2.42-2.59 1.52 0 2.43.97 2.43 2.55 0 .19-.02.39-.02.41h-3.52c.03.65.58 1.12 1.24 1.12.62 0 .96-.31 1.12-.75zm6.92-5.5v6.35c0 .33.02.69.04.89h-1.27c-.02-.1-.05-.34-.05-.57-.22.39-.72.69-1.38.69-1.4 0-2.4-1.1-2.4-2.59 0-1.44.97-2.57 2.36-2.57.85 0 1.25.35 1.39.61v-2.81h1.31zm-3.72 4.77c0 .88.52 1.4 1.22 1.4.68 0 1.21-.52 1.21-1.41 0-.88-.53-1.37-1.21-1.37-.68 0-1.22.5-1.22 1.38zm8.16-2.47v1.34c-.15-.03-.28-.04-.4-.04-.68 0-1.27.33-1.27 1.39V23h-1.33v-4.92h1.29v.73c.3-.65.98-.77 1.4-.77.11 0 .21.01.31.02zM74.81 23h-1.33v-4.92h1.33V23zm-1.49-6.53a.82.82 0 111.641-.021.82.82 0 01-1.641.021zM81 18.08l-1.97 2.07L81.04 23h-1.63l-1.3-1.88-.55.58V23h-1.33v-7.24h1.33v4.15l1.7-1.83H81z" fill="#141033" fill-rule="nonzero"/></g><g transform="translate(48 112)"><rect fill="#FFF" width="250" height="52" rx="8"/><circle fill="#FFE7E5" cx="26" cy="26" r="12"/><path fill="#651EFF" fill-rule="nonzero" d="M28.766 30h-5.172v-8.508h5.172v1.092H24.77V25.2h3.624v1.104H24.77v2.604h3.996z"/><path d="M53.184 36.333H52.4v-2.52h-2.896v2.52h-.784v-5.672h.784v2.424H52.4v-2.424h.784v5.672zm1.176-1.032c0-.33.107-.596.32-.796.214-.2.496-.324.848-.372l1.04-.152c.198-.026.296-.122.296-.288a.644.644 0 00-.208-.496c-.138-.128-.346-.192-.624-.192-.256 0-.458.071-.608.212a.885.885 0 00-.264.564l-.72-.168a1.26 1.26 0 01.504-.9 1.695 1.695 0 011.072-.348c.544 0 .947.132 1.208.396.262.264.392.602.392 1.012v1.928c0 .23.016.44.048.632h-.736a3.168 3.168 0 01-.04-.52c-.106.171-.262.32-.468.448-.205.128-.462.192-.772.192-.378 0-.688-.113-.928-.34a1.079 1.079 0 01-.36-.812zm1.392.52c.336 0 .606-.09.808-.272.203-.181.304-.469.304-.864v-.176l-1.176.176a.743.743 0 00-.408.184.514.514 0 00-.152.392c0 .15.058.28.172.392a.62.62 0 00.452.168zm5.265-3.376v.8a2.318 2.318 0 00-.328-.024c-.704 0-1.056.395-1.056 1.184v1.928h-.752v-3.848h.736v.672c.235-.49.619-.736 1.152-.736.085 0 .168.008.248.024zm2.633 2.888l.68-.24a.8.8 0 00.272.516c.155.136.363.204.624.204.203 0 .363-.049.48-.148a.458.458 0 00.176-.364c0-.256-.165-.421-.496-.496l-.656-.144c-.299-.064-.533-.192-.704-.384a1.011 1.011 0 01-.256-.696c0-.33.135-.616.404-.856.27-.24.59-.36.964-.36.245 0 .464.036.656.108.192.072.341.167.448.284a1.395 1.395 0 01.36.64l-.664.248a.8.8 0 00-.056-.188 1.043 1.043 0 00-.124-.204.58.58 0 00-.244-.18.956.956 0 00-.376-.068c-.187 0-.34.051-.46.152a.458.458 0 00-.18.36c0 .246.147.4.44.464l.624.136c.341.075.604.212.788.412.184.2.276.444.276.732 0 .304-.124.579-.372.824-.248.246-.593.368-1.036.368-.475 0-.845-.118-1.112-.356-.267-.237-.419-.492-.456-.764zm7.52-2.848l-1.64 1.624 1.672 2.224h-.944l-1.256-1.696-.536.536v1.16h-.744v-5.792h.744v3.648l1.664-1.704h1.04zm.489 2.816c0-.33.106-.596.32-.796.213-.2.496-.324.848-.372l1.04-.152c.197-.026.296-.122.296-.288a.644.644 0 00-.208-.496c-.139-.128-.347-.192-.624-.192-.256 0-.459.071-.608.212a.885.885 0 00-.264.564l-.72-.168a1.26 1.26 0 01.504-.9 1.695 1.695 0 011.072-.348c.544 0 .946.132 1.208.396.261.264.392.602.392 1.012v1.928c0 .23.016.44.048.632h-.736a3.168 3.168 0 01-.04-.52c-.107.171-.263.32-.468.448-.206.128-.463.192-.772.192-.379 0-.688-.113-.928-.34a1.079 1.079 0 01-.36-.812zm1.392.52c.336 0 .605-.09.808-.272.202-.181.304-.469.304-.864v-.176l-1.176.176a.743.743 0 00-.408.184.514.514 0 00-.152.392c0 .15.057.28.172.392a.62.62 0 00.452.168zm7.272-4.6a.653.653 0 00-.428.148c-.12.099-.18.268-.18.508v.608h.928v.68h-.928v3.168h-.776v-3.168h-1.752v3.168h-.776v-3.168H75.7v-.68h.712v-.648c0-.41.12-.733.36-.968a1.24 1.24 0 01.904-.352c.23 0 .379.027.448.08v.672a.907.907 0 00-.328-.048.653.653 0 00-.428.148c-.12.099-.18.268-.18.508v.608h1.752v-.648c0-.41.12-.733.36-.968a1.24 1.24 0 01.904-.352c.23 0 .379.027.448.08v.672a.907.907 0 00-.328-.048zm.985 4.08c0-.33.106-.596.32-.796.213-.2.496-.324.848-.372l1.04-.152c.197-.026.296-.122.296-.288a.644.644 0 00-.208-.496c-.139-.128-.347-.192-.624-.192-.256 0-.459.071-.608.212a.885.885 0 00-.264.564l-.72-.168a1.26 1.26 0 01.504-.9 1.695 1.695 0 011.072-.348c.544 0 .946.132 1.208.396.261.264.392.602.392 1.012v1.928c0 .23.016.44.048.632h-.736a3.168 3.168 0 01-.04-.52c-.107.171-.263.32-.468.448-.206.128-.463.192-.772.192-.379 0-.688-.113-.928-.34a1.079 1.079 0 01-.36-.812zm1.392.52c.336 0 .605-.09.808-.272.202-.181.304-.469.304-.864v-.176l-1.176.176a.743.743 0 00-.408.184.514.514 0 00-.152.392c0 .15.057.28.172.392a.62.62 0 00.452.168zm4.136-4.552v1.216h.832v.68h-.832v2c0 .182.042.315.124.4.083.086.22.128.412.128.112 0 .21-.01.296-.032v.64a1.492 1.492 0 01-.512.072c-.33 0-.592-.096-.784-.288-.192-.192-.288-.461-.288-.808v-2.112h-.736v-.68h.208c.198 0 .346-.054.444-.164a.614.614 0 00.148-.428v-.624h.688zm8.57 5.064h-.785v-2.52h-2.896v2.52h-.784v-5.672h.784v2.424h2.896v-2.424h.784v5.672zm1.944-2.32h2.104a1.023 1.023 0 00-.288-.708c-.182-.184-.438-.276-.768-.276a.99.99 0 00-.736.292 1.046 1.046 0 00-.312.692zm2.216 1l.648.224c-.112.358-.32.65-.624.876-.304.227-.672.34-1.104.34-.539 0-.996-.185-1.372-.556-.376-.37-.564-.87-.564-1.5 0-.586.181-1.072.544-1.456.362-.384.794-.576 1.296-.576.581 0 1.034.183 1.36.548.325.366.488.855.488 1.468 0 .096-.006.176-.016.24h-2.896c.005.342.118.622.34.84.221.219.494.328.82.328.549 0 .909-.258 1.08-.776zm2.176-.616c0 .406.1.736.3.992.2.256.476.384.828.384.336 0 .605-.13.808-.392.203-.261.304-.594.304-1 0-.4-.099-.722-.296-.968-.197-.245-.467-.368-.808-.368s-.616.126-.824.376c-.208.251-.312.576-.312.976zm2.248 1.416v-.064a1.267 1.267 0 01-.46.492c-.205.131-.45.196-.732.196-.55 0-.99-.193-1.324-.58-.333-.386-.5-.873-.5-1.46 0-.56.17-1.036.512-1.428a1.661 1.661 0 011.312-.588c.315 0 .57.063.768.188a1 1 0 01.408.46v-2.488h.744v5.08c0 .262.013.499.04.712h-.728a2.988 2.988 0 01-.04-.52zm5.4-3.328l-1.535 3.848h-.76l-1.56-3.848h.848l1.096 2.968 1.104-2.968h.808zm1.561 3.848h-.744v-3.848h.744v3.848zm-.76-4.92a.538.538 0 01-.152-.384.53.53 0 01.156-.384.51.51 0 01.38-.16.53.53 0 01.384.156.52.52 0 01.16.388.51.51 0 01-.16.38.53.53 0 01-.384.156.538.538 0 01-.384-.152zm1.857 5.128l.728-.168c.026.272.136.498.328.676.192.179.432.268.72.268.784 0 1.176-.416 1.176-1.248v-.552a1.11 1.11 0 01-.452.456 1.434 1.434 0 01-.724.176c-.512 0-.935-.174-1.268-.524-.334-.349-.5-.796-.5-1.34 0-.528.165-.972.496-1.332.33-.36.754-.54 1.272-.54.586 0 .98.203 1.184.608v-.536h.744v3.56c0 .256-.034.495-.1.716a1.885 1.885 0 01-.316.612 1.43 1.43 0 01-.604.44 2.37 2.37 0 01-.908.16c-.475 0-.878-.134-1.208-.404-.331-.269-.52-.612-.568-1.028zm1.888-1.024c.325 0 .589-.113.792-.34.202-.226.304-.524.304-.892s-.102-.665-.304-.892a1.012 1.012 0 00-.792-.34c-.331 0-.6.112-.804.336-.206.224-.308.523-.308.896 0 .379.1.679.3.9.2.222.47.332.812.332zm4.184-4.856l-.2 4.048h-.536l-.208-4.048h.944zm-.84 5.56a.501.501 0 01-.152-.368c0-.144.05-.268.152-.372a.495.495 0 01.368-.156c.144 0 .268.052.372.156a.508.508 0 01.156.372.495.495 0 01-.156.368.515.515 0 01-.372.152.501.501 0 01-.368-.152z" fill="#414150" fill-rule="nonzero"/><path d="M53.25 23h-4.44v-7.09h4.44v1.3h-3.06v1.62h2.77v1.23h-2.77v1.64h3.06V23zm2.61 0h-1.33v-7.24h1.33V23zm1-1.37l1.14-.25c.03.39.32.75.9.75.44 0 .65-.23.65-.49 0-.22-.15-.4-.53-.48l-.65-.15c-.95-.21-1.38-.78-1.38-1.47 0-.88.78-1.61 1.84-1.61 1.4 0 1.87.89 1.93 1.42l-1.11.25c-.04-.29-.25-.66-.81-.66-.35 0-.63.21-.63.49 0 .24.18.39.45.44l.7.15c.97.2 1.46.79 1.46 1.51 0 .8-.62 1.62-1.91 1.62-1.48 0-1.99-.96-2.05-1.52zm4.69.03c0-.88.65-1.37 1.47-1.49l1.21-.18c.28-.04.37-.18.37-.35 0-.35-.27-.64-.83-.64-.58 0-.9.37-.94.8l-1.18-.25c.08-.77.79-1.62 2.11-1.62 1.56 0 2.14.88 2.14 1.87v2.42c0 .26.03.61.06.78h-1.22c-.03-.13-.05-.4-.05-.59-.25.39-.72.73-1.45.73-1.05 0-1.69-.71-1.69-1.48zm1.97.49c.56 0 1.08-.27 1.08-1.14v-.22l-1.11.17c-.34.05-.61.24-.61.62 0 .29.21.57.64.57z" fill="#141033" fill-rule="nonzero"/><rect fill-opacity=".05" fill="#141033" x="193" y="17" width="48" height="17.684" rx="5.053"/><path d="M200.847 26.983h-2.396v-.725h2.396v.725zm2.786 2.175h-.85v-4.04h-1.388v-.611c.39-.006.717-.108.982-.305.265-.198.43-.455.495-.774h.76v5.73zm2.617-4.722c-.336.354-.504.973-.504 1.857s.168 1.503.504 1.857c.236.247.54.371.911.371s.675-.124.91-.371c.337-.354.505-.973.505-1.857s-.168-1.503-.504-1.857c-.236-.247-.54-.371-.911-.371s-.675.124-.91.371zm-.849 3.935c-.341-.507-.512-1.2-.512-2.078 0-.878.17-1.57.512-2.078.407-.613.994-.92 1.76-.92s1.353.307 1.76.92c.342.507.512 1.2.512 2.078 0 .878-.17 1.571-.512 2.078-.407.613-.994.92-1.76.92s-1.353-.307-1.76-.92zm11.417-3.466l-1.813 1.795 1.848 2.458h-1.043l-1.389-1.875-.592.593v1.282h-.822v-6.402h.822v4.032l1.84-1.883h1.149zm3.298-.044v.884a2.562 2.562 0 00-.362-.027c-.778 0-1.167.437-1.167 1.309v2.13h-.832v-4.252h.814v.743c.26-.543.684-.814 1.273-.814.094 0 .186.009.274.027z" fill="#414150" fill-rule="nonzero"/><circle fill="#1BE9B6" cx="230.895" cy="25.842" r="5.053"/><path fill="#FFF" d="M229.904 27.24l-1.398-1.413-.474.48 1.872 1.893 4.022-4.068-.474-.48z"/></g><g transform="translate(48 168)"><rect fill="#FFF" width="250" height="52" rx="8"/><circle fill="#651EFF" cx="26" cy="26" r="12"/><path d="M28.79 30l-.924-2.376h-3.768l-.9 2.376h-1.26l3.384-8.508h1.356L30.062 30H28.79zm-2.82-7.284l-1.452 3.816h2.928l-1.476-3.816z" fill="#F9FAFC" fill-rule="nonzero"/><path d="M53.184 36.333H52.4v-2.52h-2.896v2.52h-.784v-5.672h.784v2.424H52.4v-2.424h.784v5.672zm1.176-1.032c0-.33.107-.596.32-.796.214-.2.496-.324.848-.372l1.04-.152c.198-.026.296-.122.296-.288a.644.644 0 00-.208-.496c-.138-.128-.346-.192-.624-.192-.256 0-.458.071-.608.212a.885.885 0 00-.264.564l-.72-.168a1.26 1.26 0 01.504-.9 1.695 1.695 0 011.072-.348c.544 0 .947.132 1.208.396.262.264.392.602.392 1.012v1.928c0 .23.016.44.048.632h-.736a3.168 3.168 0 01-.04-.52c-.106.171-.262.32-.468.448-.205.128-.462.192-.772.192-.378 0-.688-.113-.928-.34a1.079 1.079 0 01-.36-.812zm1.392.52c.336 0 .606-.09.808-.272.203-.181.304-.469.304-.864v-.176l-1.176.176a.743.743 0 00-.408.184.514.514 0 00-.152.392c0 .15.058.28.172.392a.62.62 0 00.452.168zm5.265-3.376v.8a2.318 2.318 0 00-.328-.024c-.704 0-1.056.395-1.056 1.184v1.928h-.752v-3.848h.736v.672c.235-.49.619-.736 1.152-.736.085 0 .168.008.248.024zm2.633 2.888l.68-.24a.8.8 0 00.272.516c.155.136.363.204.624.204.203 0 .363-.049.48-.148a.458.458 0 00.176-.364c0-.256-.165-.421-.496-.496l-.656-.144c-.299-.064-.533-.192-.704-.384a1.011 1.011 0 01-.256-.696c0-.33.135-.616.404-.856.27-.24.59-.36.964-.36.245 0 .464.036.656.108.192.072.341.167.448.284a1.395 1.395 0 01.36.64l-.664.248a.8.8 0 00-.056-.188 1.043 1.043 0 00-.124-.204.58.58 0 00-.244-.18.956.956 0 00-.376-.068c-.187 0-.34.051-.46.152a.458.458 0 00-.18.36c0 .246.147.4.44.464l.624.136c.341.075.604.212.788.412.184.2.276.444.276.732 0 .304-.124.579-.372.824-.248.246-.593.368-1.036.368-.475 0-.845-.118-1.112-.356-.267-.237-.419-.492-.456-.764zm7.52-2.848l-1.64 1.624 1.672 2.224h-.944l-1.256-1.696-.536.536v1.16h-.744v-5.792h.744v3.648l1.664-1.704h1.04zm.489 2.816c0-.33.106-.596.32-.796.213-.2.496-.324.848-.372l1.04-.152c.197-.026.296-.122.296-.288a.644.644 0 00-.208-.496c-.139-.128-.347-.192-.624-.192-.256 0-.459.071-.608.212a.885.885 0 00-.264.564l-.72-.168a1.26 1.26 0 01.504-.9 1.695 1.695 0 011.072-.348c.544 0 .946.132 1.208.396.261.264.392.602.392 1.012v1.928c0 .23.016.44.048.632h-.736a3.168 3.168 0 01-.04-.52c-.107.171-.263.32-.468.448-.206.128-.463.192-.772.192-.379 0-.688-.113-.928-.34a1.079 1.079 0 01-.36-.812zm1.392.52c.336 0 .605-.09.808-.272.202-.181.304-.469.304-.864v-.176l-1.176.176a.743.743 0 00-.408.184.514.514 0 00-.152.392c0 .15.057.28.172.392a.62.62 0 00.452.168zm7.272-4.6a.653.653 0 00-.428.148c-.12.099-.18.268-.18.508v.608h.928v.68h-.928v3.168h-.776v-3.168h-1.752v3.168h-.776v-3.168H75.7v-.68h.712v-.648c0-.41.12-.733.36-.968a1.24 1.24 0 01.904-.352c.23 0 .379.027.448.08v.672a.907.907 0 00-.328-.048.653.653 0 00-.428.148c-.12.099-.18.268-.18.508v.608h1.752v-.648c0-.41.12-.733.36-.968a1.24 1.24 0 01.904-.352c.23 0 .379.027.448.08v.672a.907.907 0 00-.328-.048zm.985 4.08c0-.33.106-.596.32-.796.213-.2.496-.324.848-.372l1.04-.152c.197-.026.296-.122.296-.288a.644.644 0 00-.208-.496c-.139-.128-.347-.192-.624-.192-.256 0-.459.071-.608.212a.885.885 0 00-.264.564l-.72-.168a1.26 1.26 0 01.504-.9 1.695 1.695 0 011.072-.348c.544 0 .946.132 1.208.396.261.264.392.602.392 1.012v1.928c0 .23.016.44.048.632h-.736a3.168 3.168 0 01-.04-.52c-.107.171-.263.32-.468.448-.206.128-.463.192-.772.192-.379 0-.688-.113-.928-.34a1.079 1.079 0 01-.36-.812zm1.392.52c.336 0 .605-.09.808-.272.202-.181.304-.469.304-.864v-.176l-1.176.176a.743.743 0 00-.408.184.514.514 0 00-.152.392c0 .15.057.28.172.392a.62.62 0 00.452.168zm4.136-4.552v1.216h.832v.68h-.832v2c0 .182.042.315.124.4.083.086.22.128.412.128.112 0 .21-.01.296-.032v.64a1.492 1.492 0 01-.512.072c-.33 0-.592-.096-.784-.288-.192-.192-.288-.461-.288-.808v-2.112h-.736v-.68h.208c.198 0 .346-.054.444-.164a.614.614 0 00.148-.428v-.624h.688zm8.57 5.064h-.785v-2.52h-2.896v2.52h-.784v-5.672h.784v2.424h2.896v-2.424h.784v5.672zm1.944-2.32h2.104a1.023 1.023 0 00-.288-.708c-.182-.184-.438-.276-.768-.276a.99.99 0 00-.736.292 1.046 1.046 0 00-.312.692zm2.216 1l.648.224c-.112.358-.32.65-.624.876-.304.227-.672.34-1.104.34-.539 0-.996-.185-1.372-.556-.376-.37-.564-.87-.564-1.5 0-.586.181-1.072.544-1.456.362-.384.794-.576 1.296-.576.581 0 1.034.183 1.36.548.325.366.488.855.488 1.468 0 .096-.006.176-.016.24h-2.896c.005.342.118.622.34.84.221.219.494.328.82.328.549 0 .909-.258 1.08-.776zm2.176-.616c0 .406.1.736.3.992.2.256.476.384.828.384.336 0 .605-.13.808-.392.203-.261.304-.594.304-1 0-.4-.099-.722-.296-.968-.197-.245-.467-.368-.808-.368s-.616.126-.824.376c-.208.251-.312.576-.312.976zm2.248 1.416v-.064a1.267 1.267 0 01-.46.492c-.205.131-.45.196-.732.196-.55 0-.99-.193-1.324-.58-.333-.386-.5-.873-.5-1.46 0-.56.17-1.036.512-1.428a1.661 1.661 0 011.312-.588c.315 0 .57.063.768.188a1 1 0 01.408.46v-2.488h.744v5.08c0 .262.013.499.04.712h-.728a2.988 2.988 0 01-.04-.52zm5.4-3.328l-1.535 3.848h-.76l-1.56-3.848h.848l1.096 2.968 1.104-2.968h.808zm1.561 3.848h-.744v-3.848h.744v3.848zm-.76-4.92a.538.538 0 01-.152-.384.53.53 0 01.156-.384.51.51 0 01.38-.16.53.53 0 01.384.156.52.52 0 01.16.388.51.51 0 01-.16.38.53.53 0 01-.384.156.538.538 0 01-.384-.152zm1.857 5.128l.728-.168c.026.272.136.498.328.676.192.179.432.268.72.268.784 0 1.176-.416 1.176-1.248v-.552a1.11 1.11 0 01-.452.456 1.434 1.434 0 01-.724.176c-.512 0-.935-.174-1.268-.524-.334-.349-.5-.796-.5-1.34 0-.528.165-.972.496-1.332.33-.36.754-.54 1.272-.54.586 0 .98.203 1.184.608v-.536h.744v3.56c0 .256-.034.495-.1.716a1.885 1.885 0 01-.316.612 1.43 1.43 0 01-.604.44 2.37 2.37 0 01-.908.16c-.475 0-.878-.134-1.208-.404-.331-.269-.52-.612-.568-1.028zm1.888-1.024c.325 0 .589-.113.792-.34.202-.226.304-.524.304-.892s-.102-.665-.304-.892a1.012 1.012 0 00-.792-.34c-.331 0-.6.112-.804.336-.206.224-.308.523-.308.896 0 .379.1.679.3.9.2.222.47.332.812.332zm4.184-4.856l-.2 4.048h-.536l-.208-4.048h.944zm-.84 5.56a.501.501 0 01-.152-.368c0-.144.05-.268.152-.372a.495.495 0 01.368-.156c.144 0 .268.052.372.156a.508.508 0 01.156.372.495.495 0 01-.156.368.515.515 0 01-.372.152.501.501 0 01-.368-.152z" fill="#414150" fill-rule="nonzero"/><path d="M53.62 23l-.59-1.62h-2.88L49.56 23H48.1l2.72-7.09h1.6l2.7 7.09h-1.5zm-2.03-5.56l-.98 2.68h1.96l-.98-2.68zm5.65 2.73V23h-1.33v-4.92h1.29v.61c.3-.51.89-.74 1.42-.74 1.22 0 1.78.87 1.78 1.95V23h-1.33v-2.87c0-.55-.27-.98-.91-.98-.58 0-.92.45-.92 1.02zm5.84 0V23h-1.33v-4.92h1.29v.61c.3-.51.89-.74 1.42-.74 1.22 0 1.78.87 1.78 1.95V23h-1.33v-2.87c0-.55-.27-.98-.91-.98-.58 0-.92.45-.92 1.02zm4.21 1.49c0-.88.65-1.37 1.47-1.49l1.21-.18c.28-.04.37-.18.37-.35 0-.35-.27-.64-.83-.64-.58 0-.9.37-.94.8l-1.18-.25c.08-.77.79-1.62 2.11-1.62 1.56 0 2.14.88 2.14 1.87v2.42c0 .26.03.61.06.78h-1.22c-.03-.13-.05-.4-.05-.59-.25.39-.72.73-1.45.73-1.05 0-1.69-.71-1.69-1.48zm1.97.49c.56 0 1.08-.27 1.08-1.14v-.22l-1.11.17c-.34.05-.61.24-.61.62 0 .29.21.57.64.57z" fill="#141033" fill-rule="nonzero"/><rect fill-opacity=".05" fill="#141033" x="193" y="17" width="48" height="17.684" rx="5.053"/><path d="M200.847 26.983h-2.396v-.725h2.396v.725zm2.786 2.175h-.85v-4.04h-1.388v-.611c.39-.006.717-.108.982-.305.265-.198.43-.455.495-.774h.76v5.73zm2.617-4.722c-.336.354-.504.973-.504 1.857s.168 1.503.504 1.857c.236.247.54.371.911.371s.675-.124.91-.371c.337-.354.505-.973.505-1.857s-.168-1.503-.504-1.857c-.236-.247-.54-.371-.911-.371s-.675.124-.91.371zm-.849 3.935c-.341-.507-.512-1.2-.512-2.078 0-.878.17-1.57.512-2.078.407-.613.994-.92 1.76-.92s1.353.307 1.76.92c.342.507.512 1.2.512 2.078 0 .878-.17 1.571-.512 2.078-.407.613-.994.92-1.76.92s-1.353-.307-1.76-.92zm11.417-3.466l-1.813 1.795 1.848 2.458h-1.043l-1.389-1.875-.592.593v1.282h-.822v-6.402h.822v4.032l1.84-1.883h1.149zm3.298-.044v.884a2.562 2.562 0 00-.362-.027c-.778 0-1.167.437-1.167 1.309v2.13h-.832v-4.252h.814v.743c.26-.543.684-.814 1.273-.814.094 0 .186.009.274.027z" fill="#414150" fill-rule="nonzero"/><circle fill="#1BE9B6" cx="230.895" cy="25.842" r="5.053"/><path fill="#FFF" d="M229.904 27.24l-1.398-1.413-.474.48 1.872 1.893 4.022-4.068-.474-.48z"/></g></g></svg>