<?xml version="1.0" encoding="UTF-8"?>
<svg width="345px" height="301px" viewBox="0 0 345 301" version="1.1" xmlns="http://www.w3.org/2000/svg" xmlns:xlink="http://www.w3.org/1999/xlink">
    <!-- Generator: Sketch 55.2 (78181) - https://sketchapp.com -->
    <title>Group</title>
    <desc>Created with Sketch.</desc>
    <g id="Sender-📤" stroke="none" stroke-width="1" fill="none" fill-rule="evenodd">
        <g id="Referrals-Sender-#What's-New-02" transform="translate(-15.000000, -152.000000)">
            <g id="Group" transform="translate(16.361595, 152.000000)">
                <path d="M192.266004,300.5 C136.897887,300.5 90.8771206,290.539943 56.8568487,272.648951 C26.457075,256.66195 7.08310918,234.905773 1.49411232,211.991271 C-4.36848433,187.955029 2.56966803,149.180401 20.6099923,115.517912 C42.7744923,74.1598838 78.6815448,43.7966922 126.514063,31.5157076 C175.862555,18.8454973 229.910112,32.55711 274.227957,65.704288 C316.293974,97.16723 343.138405,141.701718 343.138405,181.999161 C343.138405,225.468708 333.800465,253.714194 311.775267,272.189832 C288.695696,291.549923 250.929853,300.5 192.266004,300.5 Z" id="Oval" stroke="#F9FAFC" fill="#FF8A80"></path>
                <g id="1" transform="translate(46.638405, 0.000000)">
                    <rect id="Rectangle" fill="#FFFFFF" x="0" y="0" width="250" height="52" rx="8"></rect>
                    <g id="Pending-Copy" transform="translate(225.000000, 21.000000)" fill="#651EFF">
                        <circle id="Oval" opacity="0.100000001" cx="5.33333333" cy="5.33333333" r="5.33333333"></circle>
                        <rect id="Rectangle" x="4.66666667" y="2" width="1" height="4" rx="0.5"></rect>
                        <rect id="Rectangle" transform="translate(6.276709, 6.366025) rotate(-60.000000) translate(-6.276709, -6.366025) " x="5.94337567" y="4.69935874" width="1" height="3.33333333" rx="0.333333333"></rect>
                    </g>
                    <path d="M34,37 C34,35.8609127 33.1045695,34.9375 32,34.9375 C30.8954305,34.9375 30,35.8609127 30,37 C30,35.8609127 29.1045695,34.9375 28,34.9375 C26.8954305,34.9375 26,35.8609127 26,37 C26,35.8609127 25.1045695,34.9375 24,34.9375 C22.8954305,34.9375 22,35.8609127 22,37 C22,35.8609127 21.1045695,34.9375 20,34.9375 C18.8954305,34.9375 18,35.8609127 18,37 L18,23 C18,18.581722 21.581722,15 26,15 C30.418278,15 34,18.581722 34,23 L34,37 Z" id="Combined-Shape" fill="#F1F3F7"></path>
                    <circle id="Oval" fill="#414150" cx="23.5" cy="23.375" r="1.5"></circle>
                    <circle id="Oval-Copy-2" fill="#414150" cx="28.5" cy="23.375" r="1.5"></circle>
                    <path d="M50.224,36.3333333 L49.456,36.3333333 L49.456,32.6773333 L48.2,32.6773333 L48.2,32.1253333 C48.5520018,32.12 48.8479988,32.0280009 49.088,31.8493333 C49.3280012,31.6706658 49.477333,31.4373348 49.536,31.1493333 L50.224,31.1493333 L50.224,36.3333333 Z M54.7844706,31.1493333 L54.7844706,31.9013333 C54.6511366,32.0080005 54.5204712,32.1226661 54.3924706,32.2453333 C54.2644699,32.3680006 54.0951383,32.565332 53.8844706,32.8373333 C53.6738028,33.1093347 53.4884714,33.3973318 53.3284706,33.7013333 C53.1684698,34.0053349 53.0178046,34.3906643 52.8764706,34.8573333 C52.7351365,35.3240023 52.6404708,35.8159974 52.5924706,36.3333333 L51.7844706,36.3333333 C51.8164707,35.9226646 51.8804701,35.5240019 51.9764706,35.1373333 C52.072471,34.7506647 52.1844699,34.4133348 52.3124706,34.1253333 C52.4404712,33.8373319 52.5778032,33.5666679 52.7244706,33.3133333 C52.871138,33.0599987 53.0151365,32.8466675 53.1564706,32.6733333 C53.2978046,32.4999991 53.4258033,32.3520006 53.5404706,32.2293333 C53.6551378,32.1066661 53.7471369,32.0160003 53.8164706,31.9573333 L53.9204706,31.8693333 L51.0004706,31.8693333 L51.0004706,31.1493333 L54.7844706,31.1493333 Z M58.4014117,37.8533333 L57.6574117,37.8533333 L57.6574117,32.4853333 L58.3854117,32.4853333 L58.3854117,33.0853333 C58.4974123,32.8826657 58.6654106,32.717334 58.8894117,32.5893333 C59.1134128,32.4613327 59.3747435,32.3973333 59.6734117,32.3973333 C60.2280811,32.3973333 60.6614101,32.5866648 60.9734117,32.9653333 C61.2854133,33.3440019 61.4414117,33.8239971 61.4414117,34.4053333 C61.4414117,34.9920029 61.28008,35.4773314 60.9574117,35.8613333 C60.6347434,36.2453353 60.1987478,36.4373333 59.6494117,36.4373333 C59.3667436,36.4373333 59.1160795,36.3786673 58.8974117,36.2613333 C58.6787439,36.1439994 58.5134123,35.9946676 58.4014117,35.8133333 L58.4014117,37.8533333 Z M60.6734117,34.4053333 C60.6734117,34.0159981 60.5707461,33.6946679 60.3654117,33.4413333 C60.1600773,33.1879987 59.8840801,33.0613333 59.5374117,33.0613333 C59.1960767,33.0613333 58.9200794,33.1879987 58.7094117,33.4413333 C58.498744,33.6946679 58.3934117,34.0159981 58.3934117,34.4053333 C58.3934117,34.8053353 58.498744,35.1319987 58.7094117,35.3853333 C58.9200794,35.6386679 59.1960767,35.7653333 59.5374117,35.7653333 C59.8787467,35.7653333 60.1534107,35.6386679 60.3614117,35.3853333 C60.5694127,35.1319987 60.6734117,34.8053353 60.6734117,34.4053333 Z M62.9858823,34.0133333 L65.0898823,34.0133333 C65.0792156,33.7253319 64.9832165,33.4893343 64.8018823,33.3053333 C64.620548,33.1213324 64.3645506,33.0293333 64.0338823,33.0293333 C63.7352141,33.0293333 63.4898832,33.1266657 63.2978823,33.3213333 C63.1058813,33.516001 63.0018824,33.7466653 62.9858823,34.0133333 Z M65.2018823,35.0133333 L65.8498823,35.2373333 C65.7378817,35.5946685 65.5298838,35.8866655 65.2258823,36.1133333 C64.9218808,36.3400011 64.5538844,36.4533333 64.1218823,36.4533333 C63.5832129,36.4533333 63.1258842,36.2680019 62.7498823,35.8973333 C62.3738804,35.5266648 62.1858823,35.0266698 62.1858823,34.3973333 C62.1858823,33.8106637 62.3672138,33.3253353 62.7298823,32.9413333 C63.0925508,32.5573314 63.5245464,32.3653333 64.0258823,32.3653333 C64.6072185,32.3653333 65.0605473,32.5479982 65.3858823,32.9133333 C65.7112172,33.2786685 65.8738823,33.7679969 65.8738823,34.3813333 C65.8738823,34.4773338 65.868549,34.557333 65.8578823,34.6213333 L62.9618823,34.6213333 C62.9672156,34.9626684 63.0805478,35.2426656 63.3018823,35.4613333 C63.5232167,35.6800011 63.7965473,35.7893333 64.1218823,35.7893333 C64.6712184,35.7893333 65.0312148,35.5306693 65.2018823,35.0133333 Z M69.0663528,32.4453333 L69.0663528,33.2453333 C68.9543523,33.2293333 68.84502,33.2213333 68.7383528,33.2213333 C68.0343493,33.2213333 67.6823528,33.6159961 67.6823528,34.4053333 L67.6823528,36.3333333 L66.9303528,36.3333333 L66.9303528,32.4853333 L67.6663528,32.4853333 L67.6663528,33.1573333 C67.9010207,32.6666642 68.2850168,32.4213333 68.8183528,32.4213333 C68.9036866,32.4213333 68.9863524,32.4293333 69.0663528,32.4453333 Z M69.6028234,35.3333333 L70.2828234,35.0933333 C70.3094902,35.3013344 70.400156,35.4733327 70.5548234,35.6093333 C70.7094909,35.745334 70.9174888,35.8133333 71.1788234,35.8133333 C71.3814911,35.8133333 71.5414895,35.7640005 71.6588234,35.6653333 C71.7761573,35.5666662 71.8348234,35.4453341 71.8348234,35.3013333 C71.8348234,35.0453321 71.6694917,34.8800004 71.3388234,34.8053333 L70.6828234,34.6613333 C70.3841553,34.597333 70.1494909,34.4693343 69.9788234,34.2773333 C69.8081559,34.0853324 69.7228234,33.8533347 69.7228234,33.5813333 C69.7228234,33.250665 69.8574887,32.9653345 70.1268234,32.7253333 C70.3961581,32.4853321 70.7174882,32.3653333 71.0908234,32.3653333 C71.336158,32.3653333 71.5548225,32.401333 71.7468234,32.4733333 C71.9388244,32.5453337 72.0881562,32.6399994 72.1948234,32.7573333 C72.3014906,32.8746673 72.3814898,32.9839995 72.4348234,33.0853333 C72.488157,33.1866672 72.5281566,33.2906661 72.5548234,33.3973333 L71.8908234,33.6453333 C71.8801567,33.581333 71.8614902,33.518667 71.8348234,33.4573333 C71.8081566,33.3959997 71.7668237,33.3280004 71.7108234,33.2533333 C71.6548231,33.1786663 71.5734906,33.1186669 71.4668234,33.0733333 C71.3601562,33.0279998 71.2348241,33.0053333 71.0908234,33.0053333 C70.9041558,33.0053333 70.750824,33.0559995 70.6308234,33.1573333 C70.5108228,33.2586672 70.4508234,33.378666 70.4508234,33.5173333 C70.4508234,33.7626679 70.5974886,33.917333 70.8908234,33.9813333 L71.5148234,34.1173333 C71.8561585,34.1920004 72.1188225,34.3293323 72.3028234,34.5293333 C72.4868243,34.7293343 72.5788234,34.9733319 72.5788234,35.2613333 C72.5788234,35.5653349 72.4548247,35.8399988 72.2068234,36.0853333 C71.9588222,36.3306679 71.6134923,36.4533333 71.1708234,36.4533333 C70.6961544,36.4533333 70.3254914,36.3346679 70.0588234,36.0973333 C69.7921554,35.8599988 69.6401569,35.6053347 69.6028234,35.3333333 Z M74.427294,35.4213333 C74.6619618,35.6613345 74.9472923,35.7813333 75.283294,35.7813333 C75.6192957,35.7813333 75.9032928,35.6600012 76.135294,35.4173333 C76.3672951,35.1746655 76.483294,34.8373355 76.483294,34.4053333 C76.483294,33.9786645 76.3672951,33.6440012 76.135294,33.4013333 C75.9032928,33.1586655 75.6192957,33.0373333 75.283294,33.0373333 C74.9472923,33.0373333 74.6632951,33.1586655 74.431294,33.4013333 C74.1992928,33.6440012 74.083294,33.9786645 74.083294,34.4053333 C74.083294,34.8373355 74.1979595,35.1759988 74.427294,35.4213333 Z M73.867294,32.9493333 C74.2406292,32.5599981 74.7126245,32.3653333 75.283294,32.3653333 C75.8539635,32.3653333 76.3246255,32.5586647 76.695294,32.9453333 C77.0659625,33.3320019 77.251294,33.8186637 77.251294,34.4053333 C77.251294,34.9973363 77.0672958,35.4866647 76.699294,35.8733333 C76.3312921,36.2600019 75.8592969,36.4533333 75.283294,36.4533333 C74.7072911,36.4533333 74.2352958,36.2600019 73.867294,35.8733333 C73.4992921,35.4866647 73.315294,34.9973363 73.315294,34.4053333 C73.315294,33.8186637 73.4992921,33.3333353 73.867294,32.9493333 Z M79.0597646,34.1093333 L79.0597646,36.3333333 L78.3077646,36.3333333 L78.3077646,32.4853333 L79.0437646,32.4853333 L79.0437646,33.0373333 C79.2997658,32.5946645 79.6944286,32.3733333 80.2277646,32.3733333 C80.6704334,32.3733333 81.01043,32.5146653 81.2477646,32.7973333 C81.4850991,33.0800014 81.6037646,33.4453311 81.6037646,33.8933333 L81.6037646,36.3333333 L80.8517646,36.3333333 L80.8517646,34.0213333 C80.8517646,33.3759968 80.5531009,33.0533333 79.9557646,33.0533333 C79.6730965,33.0533333 79.4530987,33.1533323 79.2957646,33.3533333 C79.1384304,33.5533343 79.0597646,33.8053318 79.0597646,34.1093333 Z M83.3882351,34.0133333 L85.4922351,34.0133333 C85.4815684,33.7253319 85.3855694,33.4893343 85.2042351,33.3053333 C85.0229009,33.1213324 84.7669034,33.0293333 84.4362351,33.0293333 C84.137567,33.0293333 83.8922361,33.1266657 83.7002351,33.3213333 C83.5082342,33.516001 83.4042352,33.7466653 83.3882351,34.0133333 Z M85.6042351,35.0133333 L86.2522351,35.2373333 C86.1402346,35.5946685 85.9322366,35.8866655 85.6282351,36.1133333 C85.3242336,36.3400011 84.9562373,36.4533333 84.5242351,36.4533333 C83.9855658,36.4533333 83.528237,36.2680019 83.1522351,35.8973333 C82.7762332,35.5266648 82.5882351,35.0266698 82.5882351,34.3973333 C82.5882351,33.8106637 82.7695666,33.3253353 83.1322351,32.9413333 C83.4949036,32.5573314 83.9268993,32.3653333 84.4282351,32.3653333 C85.0095714,32.3653333 85.4629002,32.5479982 85.7882351,32.9133333 C86.1135701,33.2786685 86.2762351,33.7679969 86.2762351,34.3813333 C86.2762351,34.4773338 86.2709018,34.557333 86.2602351,34.6213333 L83.3642351,34.6213333 C83.3695685,34.9626684 83.4829007,35.2426656 83.7042351,35.4613333 C83.9255696,35.6800011 84.1989002,35.7893333 84.5242351,35.7893333 C85.0735712,35.7893333 85.4335676,35.5306693 85.6042351,35.0133333 Z M89.4687057,32.4453333 L89.4687057,33.2453333 C89.3567051,33.2293333 89.2473729,33.2213333 89.1407057,33.2213333 C88.4367022,33.2213333 88.0847057,33.6159961 88.0847057,34.4053333 L88.0847057,36.3333333 L87.3327057,36.3333333 L87.3327057,32.4853333 L88.0687057,32.4853333 L88.0687057,33.1573333 C88.3033735,32.6666642 88.6873697,32.4213333 89.2207057,32.4213333 C89.3060394,32.4213333 89.3887053,32.4293333 89.4687057,32.4453333 Z M93.2136468,34.0693333 L93.2136468,36.3333333 L92.4616468,36.3333333 L92.4616468,30.5413333 L93.2136468,30.5413333 L93.2136468,32.9333333 C93.4696481,32.5599981 93.8589775,32.3733333 94.3816468,32.3733333 C94.8243157,32.3733333 95.1643123,32.5146653 95.4016468,32.7973333 C95.6389813,33.0800014 95.7576468,33.4453311 95.7576468,33.8933333 L95.7576468,36.3333333 L95.0056468,36.3333333 L95.0056468,34.0213333 C95.0056468,33.3759968 94.7069831,33.0533333 94.1096468,33.0533333 C93.8323121,33.0533333 93.6163143,33.1479991 93.4616468,33.3373333 C93.3069794,33.5266676 93.2243135,33.7706652 93.2136468,34.0693333 Z M96.8141174,35.3013333 C96.8141174,34.970665 96.920783,34.7053343 97.1341174,34.5053333 C97.3474518,34.3053323 97.6301156,34.1813336 97.9821174,34.1333333 L99.0221174,33.9813333 C99.2194517,33.9546665 99.3181174,33.8586675 99.3181174,33.6933333 C99.3181174,33.4906657 99.2487848,33.325334 99.1101174,33.1973333 C98.97145,33.0693327 98.7634521,33.0053333 98.4861174,33.0053333 C98.2301161,33.0053333 98.0274515,33.0759993 97.8781174,33.2173333 C97.7287833,33.3586674 97.6407842,33.5466655 97.6141174,33.7813333 L96.8941174,33.6133333 C96.9314509,33.2453315 97.0994492,32.9453345 97.3981174,32.7133333 C97.6967856,32.4813322 98.0541153,32.3653333 98.4701174,32.3653333 C99.0141201,32.3653333 99.4167828,32.497332 99.6781174,32.7613333 C99.939452,33.0253347 100.070117,33.3626646 100.070117,33.7733333 L100.070117,35.7013333 C100.070117,35.9306678 100.086117,36.1413324 100.118117,36.3333333 L99.3821174,36.3333333 C99.3554506,36.1733325 99.3421174,36.0000009 99.3421174,35.8133333 C99.2354502,35.9840009 99.0794518,36.1333327 98.8741174,36.2613333 C98.668783,36.389334 98.4114523,36.4533333 98.1021174,36.4533333 C97.7234488,36.4533333 97.4141186,36.3400011 97.1741174,36.1133333 C96.9341162,35.8866655 96.8141174,35.6160016 96.8141174,35.3013333 Z M98.2061174,35.8213333 C98.5421191,35.8213333 98.8114497,35.7306676 99.0141174,35.5493333 C99.2167851,35.3679991 99.3181174,35.080002 99.3181174,34.6853333 L99.3181174,34.5093333 L98.1421174,34.6853333 C97.9714499,34.7120001 97.8354512,34.7733329 97.7341174,34.8693333 C97.6327836,34.9653338 97.5821174,35.0959992 97.5821174,35.2613333 C97.5821174,35.4106674 97.6394502,35.5413328 97.7541174,35.6533333 C97.8687846,35.7653339 98.0194498,35.8213333 98.2061174,35.8213333 Z M103.470588,32.4453333 L103.470588,33.2453333 C103.358587,33.2293333 103.249255,33.2213333 103.142588,33.2213333 C102.438584,33.2213333 102.086588,33.6159961 102.086588,34.4053333 L102.086588,36.3333333 L101.334588,36.3333333 L101.334588,32.4853333 L102.070588,32.4853333 L102.070588,33.1573333 C102.305256,32.6666642 102.689252,32.4213333 103.222588,32.4213333 C103.307922,32.4213333 103.390588,32.4293333 103.470588,32.4453333 Z M107.255529,35.4213333 C107.490197,35.6613345 107.775527,35.7813333 108.111529,35.7813333 C108.447531,35.7813333 108.731528,35.6600012 108.963529,35.4173333 C109.19553,35.1746655 109.311529,34.8373355 109.311529,34.4053333 C109.311529,33.9786645 109.19553,33.6440012 108.963529,33.4013333 C108.731528,33.1586655 108.447531,33.0373333 108.111529,33.0373333 C107.775527,33.0373333 107.49153,33.1586655 107.259529,33.4013333 C107.027528,33.6440012 106.911529,33.9786645 106.911529,34.4053333 C106.911529,34.8373355 107.026195,35.1759988 107.255529,35.4213333 Z M106.695529,32.9493333 C107.068864,32.5599981 107.54086,32.3653333 108.111529,32.3653333 C108.682199,32.3653333 109.152861,32.5586647 109.523529,32.9453333 C109.894198,33.3320019 110.079529,33.8186637 110.079529,34.4053333 C110.079529,34.9973363 109.895531,35.4866647 109.527529,35.8733333 C109.159527,36.2600019 108.687532,36.4533333 108.111529,36.4533333 C107.535526,36.4533333 107.063531,36.2600019 106.695529,35.8733333 C106.327527,35.4866647 106.143529,34.9973363 106.143529,34.4053333 C106.143529,33.8186637 106.327527,33.3333353 106.695529,32.9493333 Z M106.895529,31.3653333 C106.895529,31.2373327 106.939529,31.1280005 107.027529,31.0373333 C107.11553,30.9466662 107.223528,30.9013333 107.351529,30.9013333 C107.484863,30.9013333 107.596862,30.9466662 107.687529,31.0373333 C107.778196,31.1280005 107.823529,31.2373327 107.823529,31.3653333 C107.823529,31.4986673 107.778196,31.6093329 107.687529,31.6973333 C107.596862,31.7853338 107.484863,31.8293333 107.351529,31.8293333 C107.223528,31.8293333 107.11553,31.7853338 107.027529,31.6973333 C106.939529,31.6093329 106.895529,31.4986673 106.895529,31.3653333 Z M108.391529,31.3653333 C108.391529,31.2373327 108.435529,31.1280005 108.523529,31.0373333 C108.61153,30.9466662 108.722195,30.9013333 108.855529,30.9013333 C108.98353,30.9013333 109.092862,30.9466662 109.183529,31.0373333 C109.274196,31.1280005 109.319529,31.2373327 109.319529,31.3653333 C109.319529,31.4986673 109.274196,31.6093329 109.183529,31.6973333 C109.092862,31.7853338 108.98353,31.8293333 108.855529,31.8293333 C108.722195,31.8293333 108.61153,31.7853338 108.523529,31.6973333 C108.435529,31.6093329 108.391529,31.4986673 108.391529,31.3653333 Z M111.88,37.8533333 L111.136,37.8533333 L111.136,32.4853333 L111.864,32.4853333 L111.864,33.0853333 C111.976,32.8826657 112.143999,32.717334 112.368,32.5893333 C112.592001,32.4613327 112.853332,32.3973333 113.152,32.3973333 C113.706669,32.3973333 114.139998,32.5866648 114.452,32.9653333 C114.764001,33.3440019 114.92,33.8239971 114.92,34.4053333 C114.92,34.9920029 114.758668,35.4773314 114.436,35.8613333 C114.113331,36.2453353 113.677336,36.4373333 113.128,36.4373333 C112.845332,36.4373333 112.594667,36.3786673 112.376,36.2613333 C112.157332,36.1439994 111.992,35.9946676 111.88,35.8133333 L111.88,37.8533333 Z M114.152,34.4053333 C114.152,34.0159981 114.049334,33.6946679 113.844,33.4413333 C113.638665,33.1879987 113.362668,33.0613333 113.016,33.0613333 C112.674665,33.0613333 112.398667,33.1879987 112.188,33.4413333 C111.977332,33.6946679 111.872,34.0159981 111.872,34.4053333 C111.872,34.8053353 111.977332,35.1319987 112.188,35.3853333 C112.398667,35.6386679 112.674665,35.7653333 113.016,35.7653333 C113.357335,35.7653333 113.631999,35.6386679 113.84,35.3853333 C114.048001,35.1319987 114.152,34.8053353 114.152,34.4053333 Z M116.72047,37.8533333 L115.97647,37.8533333 L115.97647,32.4853333 L116.70447,32.4853333 L116.70447,33.0853333 C116.816471,32.8826657 116.984469,32.717334 117.20847,32.5893333 C117.432471,32.4613327 117.693802,32.3973333 117.99247,32.3973333 C118.54714,32.3973333 118.980469,32.5866648 119.29247,32.9653333 C119.604472,33.3440019 119.76047,33.8239971 119.76047,34.4053333 C119.76047,34.9920029 119.599139,35.4773314 119.27647,35.8613333 C118.953802,36.2453353 118.517806,36.4373333 117.96847,36.4373333 C117.685802,36.4373333 117.435138,36.3786673 117.21647,36.2613333 C116.997802,36.1439994 116.832471,35.9946676 116.72047,35.8133333 L116.72047,37.8533333 Z M118.99247,34.4053333 C118.99247,34.0159981 118.889805,33.6946679 118.68447,33.4413333 C118.479136,33.1879987 118.203139,33.0613333 117.85647,33.0613333 C117.515135,33.0613333 117.239138,33.1879987 117.02847,33.4413333 C116.817803,33.6946679 116.71247,34.0159981 116.71247,34.4053333 C116.71247,34.8053353 116.817803,35.1319987 117.02847,35.3853333 C117.239138,35.6386679 117.515135,35.7653333 117.85647,35.7653333 C118.197805,35.7653333 118.472469,35.6386679 118.68047,35.3853333 C118.888471,35.1319987 118.99247,34.8053353 118.99247,34.4053333 Z M121.568941,34.1093333 L121.568941,36.3333333 L120.816941,36.3333333 L120.816941,32.4853333 L121.552941,32.4853333 L121.552941,33.0373333 C121.808942,32.5946645 122.203605,32.3733333 122.736941,32.3733333 C123.17961,32.3733333 123.519606,32.5146653 123.756941,32.7973333 C123.994275,33.0800014 124.112941,33.4453311 124.112941,33.8933333 L124.112941,36.3333333 L123.360941,36.3333333 L123.360941,34.0213333 C123.360941,33.3759968 123.062277,33.0533333 122.464941,33.0533333 C122.182273,33.0533333 121.962275,33.1533323 121.804941,33.3533333 C121.647607,33.5533343 121.568941,33.8053318 121.568941,34.1093333 Z M125.169411,35.3013333 C125.169411,34.970665 125.276077,34.7053343 125.489411,34.5053333 C125.702746,34.3053323 125.98541,34.1813336 126.337411,34.1333333 L127.377411,33.9813333 C127.574746,33.9546665 127.673411,33.8586675 127.673411,33.6933333 C127.673411,33.4906657 127.604079,33.325334 127.465411,33.1973333 C127.326744,33.0693327 127.118746,33.0053333 126.841411,33.0053333 C126.58541,33.0053333 126.382745,33.0759993 126.233411,33.2173333 C126.084077,33.3586674 125.996078,33.5466655 125.969411,33.7813333 L125.249411,33.6133333 C125.286745,33.2453315 125.454743,32.9453345 125.753411,32.7133333 C126.05208,32.4813322 126.409409,32.3653333 126.825411,32.3653333 C127.369414,32.3653333 127.772077,32.497332 128.033411,32.7613333 C128.294746,33.0253347 128.425411,33.3626646 128.425411,33.7733333 L128.425411,35.7013333 C128.425411,35.9306678 128.441411,36.1413324 128.473411,36.3333333 L127.737411,36.3333333 C127.710745,36.1733325 127.697411,36.0000009 127.697411,35.8133333 C127.590744,35.9840009 127.434746,36.1333327 127.229411,36.2613333 C127.024077,36.389334 126.766746,36.4533333 126.457411,36.4533333 C126.078743,36.4533333 125.769413,36.3400011 125.529411,36.1133333 C125.28941,35.8866655 125.169411,35.6160016 125.169411,35.3013333 Z M126.561411,35.8213333 C126.897413,35.8213333 127.166744,35.7306676 127.369411,35.5493333 C127.572079,35.3679991 127.673411,35.080002 127.673411,34.6853333 L127.673411,34.5093333 L126.497411,34.6853333 C126.326744,34.7120001 126.190745,34.7733329 126.089411,34.8693333 C125.988078,34.9653338 125.937411,35.0959992 125.937411,35.2613333 C125.937411,35.4106674 125.994744,35.5413328 126.109411,35.6533333 C126.224079,35.7653339 126.374744,35.8213333 126.561411,35.8213333 Z M130.697882,31.2693333 L130.697882,32.4853333 L131.529882,32.4853333 L131.529882,33.1653333 L130.697882,33.1653333 L130.697882,35.1653333 C130.697882,35.3466676 130.739215,35.4799996 130.821882,35.5653333 C130.904549,35.6506671 131.041881,35.6933333 131.233882,35.6933333 C131.345883,35.6933333 131.444548,35.6826668 131.529882,35.6613333 L131.529882,36.3013333 C131.401881,36.3493336 131.231216,36.3733333 131.017882,36.3733333 C130.687214,36.3733333 130.425883,36.2773343 130.233882,36.0853333 C130.041881,35.8933324 129.945882,35.6240017 129.945882,35.2773333 L129.945882,33.1653333 L129.209882,33.1653333 L129.209882,32.4853333 L129.417882,32.4853333 C129.615216,32.4853333 129.763215,32.4306672 129.861882,32.3213333 C129.960549,32.2119995 130.009882,32.0693342 130.009882,31.8933333 L130.009882,31.2693333 L130.697882,31.2693333 Z M135.170823,34.3973333 C135.170823,34.8026687 135.270822,35.1333321 135.470823,35.3893333 C135.670823,35.6453346 135.946821,35.7733333 136.298823,35.7733333 C136.634825,35.7733333 136.904155,35.642668 137.106823,35.3813333 C137.309491,35.1199987 137.410823,34.7866687 137.410823,34.3813333 C137.410823,33.9813313 137.312157,33.6586679 137.114823,33.4133333 C136.917489,33.1679988 136.648158,33.0453333 136.306823,33.0453333 C135.965488,33.0453333 135.690824,33.1706654 135.482823,33.4213333 C135.274822,33.6720013 135.170823,33.9973313 135.170823,34.3973333 Z M137.418823,35.8133333 L137.418823,35.7493333 C137.317489,35.9466677 137.164157,36.110666 136.958823,36.2413333 C136.753489,36.3720007 136.509491,36.4373333 136.226823,36.4373333 C135.677487,36.4373333 135.236158,36.2440019 134.902823,35.8573333 C134.569488,35.4706647 134.402823,34.9840029 134.402823,34.3973333 C134.402823,33.8373305 134.573488,33.3613353 134.914823,32.9693333 C135.256158,32.5773314 135.693487,32.3813333 136.226823,32.3813333 C136.541491,32.3813333 136.797489,32.4439994 136.994823,32.5693333 C137.192157,32.6946673 137.328156,32.8479991 137.402823,33.0293333 L137.402823,30.5413333 L138.146823,30.5413333 L138.146823,35.6213333 C138.146823,35.882668 138.160156,36.1199989 138.186823,36.3333333 L137.458823,36.3333333 C137.432156,36.1839993 137.418823,36.0106677 137.418823,35.8133333 Z M140.267294,36.3333333 L139.523294,36.3333333 L139.523294,32.4853333 L140.267294,32.4853333 L140.267294,36.3333333 Z M139.507294,31.4133333 C139.40596,31.3066661 139.355294,31.1786674 139.355294,31.0293333 C139.355294,30.8799993 139.407293,30.7520005 139.511294,30.6453333 C139.615294,30.5386661 139.74196,30.4853333 139.891294,30.4853333 C140.040628,30.4853333 140.168626,30.5373328 140.275294,30.6413333 C140.381961,30.7453339 140.435294,30.8746659 140.435294,31.0293333 C140.435294,31.1786674 140.381961,31.3053328 140.275294,31.4093333 C140.168626,31.5133339 140.040628,31.5653333 139.891294,31.5653333 C139.74196,31.5653333 139.613961,31.5146672 139.507294,31.4133333 Z M142.395764,34.1093333 L142.395764,36.3333333 L141.643764,36.3333333 L141.643764,32.4853333 L142.379764,32.4853333 L142.379764,33.0373333 C142.635766,32.5946645 143.030428,32.3733333 143.563764,32.3733333 C144.006433,32.3733333 144.34643,32.5146653 144.583764,32.7973333 C144.821099,33.0800014 144.939764,33.4453311 144.939764,33.8933333 L144.939764,36.3333333 L144.187764,36.3333333 L144.187764,34.0213333 C144.187764,33.3759968 143.889101,33.0533333 143.291764,33.0533333 C143.009096,33.0533333 142.789098,33.1533323 142.631764,33.3533333 C142.47443,33.5533343 142.395764,33.8053318 142.395764,34.1093333 Z M149.084705,36.3333333 L148.332705,36.3333333 L148.332705,30.5413333 L149.084705,30.5413333 L149.084705,36.3333333 Z M150.221176,35.3013333 C150.221176,34.970665 150.327842,34.7053343 150.541176,34.5053333 C150.75451,34.3053323 151.037174,34.1813336 151.389176,34.1333333 L152.429176,33.9813333 C152.62651,33.9546665 152.725176,33.8586675 152.725176,33.6933333 C152.725176,33.4906657 152.655843,33.325334 152.517176,33.1973333 C152.378509,33.0693327 152.170511,33.0053333 151.893176,33.0053333 C151.637175,33.0053333 151.43451,33.0759993 151.285176,33.2173333 C151.135842,33.3586674 151.047843,33.5466655 151.021176,33.7813333 L150.301176,33.6133333 C150.338509,33.2453315 150.506508,32.9453345 150.805176,32.7133333 C151.103844,32.4813322 151.461174,32.3653333 151.877176,32.3653333 C152.421179,32.3653333 152.823841,32.497332 153.085176,32.7613333 C153.346511,33.0253347 153.477176,33.3626646 153.477176,33.7733333 L153.477176,35.7013333 C153.477176,35.9306678 153.493176,36.1413324 153.525176,36.3333333 L152.789176,36.3333333 C152.762509,36.1733325 152.749176,36.0000009 152.749176,35.8133333 C152.642509,35.9840009 152.48651,36.1333327 152.281176,36.2613333 C152.075842,36.389334 151.818511,36.4533333 151.509176,36.4533333 C151.130507,36.4533333 150.821177,36.3400011 150.581176,36.1133333 C150.341175,35.8866655 150.221176,35.6160016 150.221176,35.3013333 Z M151.613176,35.8213333 C151.949178,35.8213333 152.218508,35.7306676 152.421176,35.5493333 C152.623844,35.3679991 152.725176,35.080002 152.725176,34.6853333 L152.725176,34.5093333 L151.549176,34.6853333 C151.378508,34.7120001 151.24251,34.7733329 151.141176,34.8693333 C151.039842,34.9653338 150.989176,35.0959992 150.989176,35.2613333 C150.989176,35.4106674 151.046509,35.5413328 151.161176,35.6533333 C151.275843,35.7653339 151.426508,35.8213333 151.613176,35.8213333 Z M150.701176,31.3653333 C150.701176,31.2373327 150.745175,31.1280005 150.833176,31.0373333 C150.921176,30.9466662 151.029175,30.9013333 151.157176,30.9013333 C151.29051,30.9013333 151.402509,30.9466662 151.493176,31.0373333 C151.583843,31.1280005 151.629176,31.2373327 151.629176,31.3653333 C151.629176,31.4986673 151.583843,31.6093329 151.493176,31.6973333 C151.402509,31.7853338 151.29051,31.8293333 151.157176,31.8293333 C151.029175,31.8293333 150.921176,31.7853338 150.833176,31.6973333 C150.745175,31.6093329 150.701176,31.4986673 150.701176,31.3653333 Z M152.197176,31.3653333 C152.197176,31.2373327 152.241175,31.1280005 152.329176,31.0373333 C152.417176,30.9466662 152.527842,30.9013333 152.661176,30.9013333 C152.789177,30.9013333 152.898509,30.9466662 152.989176,31.0373333 C153.079843,31.1280005 153.125176,31.2373327 153.125176,31.3653333 C153.125176,31.4986673 153.079843,31.6093329 152.989176,31.6973333 C152.898509,31.7853338 152.789177,31.8293333 152.661176,31.8293333 C152.527842,31.8293333 152.417176,31.7853338 152.329176,31.6973333 C152.241175,31.6093329 152.197176,31.4986673 152.197176,31.3653333 Z M155.493646,34.1093333 L155.493646,36.3333333 L154.741646,36.3333333 L154.741646,32.4853333 L155.477646,32.4853333 L155.477646,33.0373333 C155.733648,32.5946645 156.12831,32.3733333 156.661646,32.3733333 C157.104315,32.3733333 157.444312,32.5146653 157.681646,32.7973333 C157.918981,33.0800014 158.037646,33.4453311 158.037646,33.8933333 L158.037646,36.3333333 L157.285646,36.3333333 L157.285646,34.0213333 C157.285646,33.3759968 156.986983,33.0533333 156.389646,33.0533333 C156.106978,33.0533333 155.886981,33.1533323 155.729646,33.3533333 C155.572312,33.5533343 155.493646,33.8053318 155.493646,34.1093333 Z M162.782117,32.4853333 L161.142117,34.1093333 L162.814117,36.3333333 L161.870117,36.3333333 L160.614117,34.6373333 L160.078117,35.1733333 L160.078117,36.3333333 L159.334117,36.3333333 L159.334117,30.5413333 L160.078117,30.5413333 L160.078117,34.1893333 L161.742117,32.4853333 L162.782117,32.4853333 Z" id="17personerharöppnatdinlänk" fill="#414150" fill-rule="nonzero"></path>
                    <path d="M53.58,17.6 L52.34,17.98 C52.27,17.59 51.95,16.98 51.05,16.98 C50.38,16.98 49.94,17.41 49.94,17.88 C49.94,18.27 50.19,18.58 50.71,18.68 L51.7,18.87 C52.99,19.12 53.68,19.96 53.68,20.96 C53.68,22.05 52.77,23.15 51.12,23.15 C49.24,23.15 48.41,21.94 48.3,20.93 L49.58,20.59 C49.64,21.29 50.13,21.92 51.13,21.92 C51.87,21.92 52.28,21.55 52.28,21.05 C52.28,20.64 51.97,20.32 51.42,20.21 L50.43,20.01 C49.3,19.78 48.57,19.05 48.57,17.98 C48.57,16.72 49.7,15.76 51.04,15.76 C52.76,15.76 53.42,16.8 53.58,17.6 Z M55.93,24.9 L54.6,24.9 L54.6,18.08 L55.89,18.08 L55.89,18.68 C56.11,18.3 56.66,17.97 57.4,17.97 C58.84,17.97 59.67,19.07 59.67,20.53 C59.67,22.02 58.74,23.12 57.35,23.12 C56.67,23.12 56.17,22.85 55.93,22.52 L55.93,24.9 Z M58.36,20.54 C58.36,19.67 57.82,19.16 57.14,19.16 C56.46,19.16 55.91,19.67 55.91,20.54 C55.91,21.41 56.46,21.93 57.14,21.93 C57.82,21.93 58.36,21.42 58.36,20.54 Z M61.17,16.72 C61.17,16.33 61.48,16.01 61.87,16.01 C62.26,16.01 62.58,16.33 62.58,16.72 C62.58,17.11 62.26,17.42 61.87,17.42 C61.48,17.42 61.17,17.11 61.17,16.72 Z M63.27,16.72 C63.27,16.33 63.57,16.01 63.97,16.01 C64.36,16.01 64.68,16.33 64.68,16.72 C64.68,17.11 64.36,17.42 63.97,17.42 C63.57,17.42 63.27,17.11 63.27,16.72 Z M62.93,21.94 C63.58,21.94 64.18,21.47 64.18,20.54 C64.18,19.61 63.58,19.14 62.93,19.14 C62.28,19.14 61.68,19.61 61.68,20.54 C61.68,21.46 62.28,21.94 62.93,21.94 Z M62.93,17.93 C64.4,17.93 65.51,19.02 65.51,20.54 C65.51,22.05 64.4,23.15 62.93,23.15 C61.46,23.15 60.35,22.05 60.35,20.54 C60.35,19.02 61.46,17.93 62.93,17.93 Z M71.33,18.08 L69.36,20.15 L71.37,23 L69.74,23 L68.44,21.12 L67.89,21.7 L67.89,23 L66.56,23 L66.56,15.76 L67.89,15.76 L67.89,19.91 L69.59,18.08 L71.33,18.08 Z M72.9,19.98 L75.1,19.98 C75.08,19.49 74.76,19.01 74,19.01 C73.31,19.01 72.93,19.53 72.9,19.98 Z M75.23,21.26 L76.34,21.59 C76.09,22.44 75.31,23.15 74.1,23.15 C72.75,23.15 71.56,22.18 71.56,20.52 C71.56,18.95 72.72,17.93 73.98,17.93 C75.5,17.93 76.41,18.9 76.41,20.48 C76.41,20.67 76.39,20.87 76.39,20.89 L72.87,20.89 C72.9,21.54 73.45,22.01 74.11,22.01 C74.73,22.01 75.07,21.7 75.23,21.26 Z M78.79,20.17 L78.79,23 L77.46,23 L77.46,18.08 L78.75,18.08 L78.75,18.69 C79.05,18.18 79.64,17.95 80.17,17.95 C81.39,17.95 81.95,18.82 81.95,19.9 L81.95,23 L80.62,23 L80.62,20.13 C80.62,19.58 80.35,19.15 79.71,19.15 C79.13,19.15 78.79,19.6 78.79,20.17 Z" id="Spöken" fill="#141033" fill-rule="nonzero"></path>
                </g>
                <g id="2" transform="translate(46.638405, 56.000000)">
                    <rect id="Rectangle-Copy-17" fill="#FFFFFF" x="0" y="0" width="250" height="52" rx="8"></rect>
                    <rect id="Rectangle" fill-opacity="0.05" fill="#141033" x="193" y="17" width="48" height="17.6842105" rx="5.05263158"></rect>
                    <path d="M200.846737,26.9827368 L198.450526,26.9827368 L198.450526,26.2576842 L200.846737,26.2576842 L200.846737,26.9827368 Z M203.63252,29.1578947 L202.783678,29.1578947 L202.783678,25.1170526 L201.395467,25.1170526 L201.395467,24.5069474 C201.784522,24.5010526 202.111677,24.3993694 202.376941,24.2018947 C202.642206,24.0044201 202.807257,23.7465279 202.872099,23.4282105 L203.63252,23.4282105 L203.63252,29.1578947 Z M206.250303,24.4362105 C205.914302,24.7898965 205.746303,25.4088377 205.746303,26.2930526 C205.746303,27.1772676 205.914302,27.7962088 206.250303,28.1498947 C206.486094,28.3974749 206.78967,28.5212632 207.16104,28.5212632 C207.53241,28.5212632 207.835986,28.3974749 208.071777,28.1498947 C208.407779,27.7962088 208.575777,27.1772676 208.575777,26.2930526 C208.575777,25.4088377 208.407779,24.7898965 208.071777,24.4362105 C207.835986,24.1886303 207.53241,24.0648421 207.16104,24.0648421 C206.78967,24.0648421 206.486094,24.1886303 206.250303,24.4362105 Z M205.401461,28.3709474 C205.059565,27.8639975 204.888619,27.1713728 204.888619,26.2930526 C204.888619,25.4147325 205.059565,24.7221078 205.401461,24.2151579 C205.8082,23.6021022 206.394721,23.2955789 207.16104,23.2955789 C207.92736,23.2955789 208.51388,23.6021022 208.920619,24.2151579 C209.262516,24.7221078 209.433461,25.4147325 209.433461,26.2930526 C209.433461,27.1713728 209.262516,27.8639975 208.920619,28.3709474 C208.51388,28.9840031 207.92736,29.2905263 207.16104,29.2905263 C206.394721,29.2905263 205.8082,28.9840031 205.401461,28.3709474 Z M216.817659,24.9048421 L215.005028,26.6997895 L216.853028,29.1578947 L215.809659,29.1578947 L214.421449,27.2833684 L213.829028,27.8757895 L213.829028,29.1578947 L213.006712,29.1578947 L213.006712,22.7562105 L213.829028,22.7562105 L213.829028,26.7882105 L215.668186,24.9048421 L216.817659,24.9048421 Z M220.116285,24.8606316 L220.116285,25.7448421 C219.992495,25.7271578 219.871654,25.7183158 219.753758,25.7183158 C218.975649,25.7183158 218.586601,26.154522 218.586601,27.0269474 L218.586601,29.1578947 L217.755443,29.1578947 L217.755443,24.9048421 L218.568916,24.9048421 L218.568916,25.6475789 C218.828286,25.1052604 219.252703,24.8341053 219.842179,24.8341053 C219.936496,24.8341053 220.027863,24.8429473 220.116285,24.8606316 Z" id="-10kr" fill="#414150" fill-rule="nonzero"></path>
                    <circle id="Oval" fill="#1BE9B6" cx="230.894737" cy="25.8421053" r="5.05263158"></circle>
                    <polygon id="Page-1" fill="#FFFFFF" points="229.903749 27.2406968 228.505907 25.8271652 228.031579 26.3068168 229.903749 28.2 233.926316 24.1322832 233.451988 23.6526316"></polygon>
                    <circle id="Oval" fill="#009175" cx="26" cy="26" r="12"></circle>
                    <polygon id="F" fill="#F9FAFC" fill-rule="nonzero" points="24.95 30 23.774 30 23.774 21.492 28.946 21.492 28.946 22.584 24.95 22.584 24.95 25.32 28.574 25.32 28.574 26.424 24.95 26.424"></polygon>
                    <path d="M53.184,36.3333333 L52.4,36.3333333 L52.4,33.8133333 L49.504,33.8133333 L49.504,36.3333333 L48.72,36.3333333 L48.72,30.6613333 L49.504,30.6613333 L49.504,33.0853333 L52.4,33.0853333 L52.4,30.6613333 L53.184,30.6613333 L53.184,36.3333333 Z M54.3604706,35.3013333 C54.3604706,34.970665 54.4671362,34.7053343 54.6804706,34.5053333 C54.893805,34.3053323 55.1764688,34.1813336 55.5284706,34.1333333 L56.5684706,33.9813333 C56.7658049,33.9546665 56.8644706,33.8586675 56.8644706,33.6933333 C56.8644706,33.4906657 56.7951379,33.325334 56.6564706,33.1973333 C56.5178032,33.0693327 56.3098053,33.0053333 56.0324706,33.0053333 C55.7764693,33.0053333 55.5738046,33.0759993 55.4244706,33.2173333 C55.2751365,33.3586674 55.1871374,33.5466655 55.1604706,33.7813333 L54.4404706,33.6133333 C54.4778041,33.2453315 54.6458024,32.9453345 54.9444706,32.7133333 C55.2431387,32.4813322 55.6004685,32.3653333 56.0164706,32.3653333 C56.5604733,32.3653333 56.9631359,32.497332 57.2244706,32.7613333 C57.4858052,33.0253347 57.6164706,33.3626646 57.6164706,33.7733333 L57.6164706,35.7013333 C57.6164706,35.9306678 57.6324704,36.1413324 57.6644706,36.3333333 L56.9284706,36.3333333 C56.9018038,36.1733325 56.8884706,36.0000009 56.8884706,35.8133333 C56.7818034,35.9840009 56.6258049,36.1333327 56.4204706,36.2613333 C56.2151362,36.389334 55.9578054,36.4533333 55.6484706,36.4533333 C55.269802,36.4533333 54.9604718,36.3400011 54.7204706,36.1133333 C54.4804694,35.8866655 54.3604706,35.6160016 54.3604706,35.3013333 Z M55.7524706,35.8213333 C56.0884722,35.8213333 56.3578029,35.7306676 56.5604706,35.5493333 C56.7631382,35.3679991 56.8644706,35.080002 56.8644706,34.6853333 L56.8644706,34.5093333 L55.6884706,34.6853333 C55.517803,34.7120001 55.3818044,34.7733329 55.2804706,34.8693333 C55.1791367,34.9653338 55.1284706,35.0959992 55.1284706,35.2613333 C55.1284706,35.4106674 55.1858033,35.5413328 55.3004706,35.6533333 C55.4151378,35.7653339 55.565803,35.8213333 55.7524706,35.8213333 Z M61.0169411,32.4453333 L61.0169411,33.2453333 C60.9049406,33.2293333 60.7956083,33.2213333 60.6889411,33.2213333 C59.9849376,33.2213333 59.6329411,33.6159961 59.6329411,34.4053333 L59.6329411,36.3333333 L58.8809411,36.3333333 L58.8809411,32.4853333 L59.6169411,32.4853333 L59.6169411,33.1573333 C59.851609,32.6666642 60.2356051,32.4213333 60.7689411,32.4213333 C60.8542749,32.4213333 60.9369407,32.4293333 61.0169411,32.4453333 Z M63.6498823,35.3333333 L64.3298823,35.0933333 C64.3565491,35.3013344 64.4472148,35.4733327 64.6018823,35.6093333 C64.7565497,35.745334 64.9645476,35.8133333 65.2258823,35.8133333 C65.42855,35.8133333 65.5885484,35.7640005 65.7058823,35.6653333 C65.8232162,35.5666662 65.8818823,35.4453341 65.8818823,35.3013333 C65.8818823,35.0453321 65.7165506,34.8800004 65.3858823,34.8053333 L64.7298823,34.6613333 C64.4312141,34.597333 64.1965498,34.4693343 64.0258823,34.2773333 C63.8552148,34.0853324 63.7698823,33.8533347 63.7698823,33.5813333 C63.7698823,33.250665 63.9045476,32.9653345 64.1738823,32.7253333 C64.443217,32.4853321 64.7645471,32.3653333 65.1378823,32.3653333 C65.3832168,32.3653333 65.6018813,32.401333 65.7938823,32.4733333 C65.9858832,32.5453337 66.1352151,32.6399994 66.2418823,32.7573333 C66.3485495,32.8746673 66.4285487,32.9839995 66.4818823,33.0853333 C66.5352159,33.1866672 66.5752155,33.2906661 66.6018823,33.3973333 L65.9378823,33.6453333 C65.9272156,33.581333 65.9085491,33.518667 65.8818823,33.4573333 C65.8552155,33.3959997 65.8138826,33.3280004 65.7578823,33.2533333 C65.701882,33.1786663 65.6205495,33.1186669 65.5138823,33.0733333 C65.4072151,33.0279998 65.281883,33.0053333 65.1378823,33.0053333 C64.9512147,33.0053333 64.7978829,33.0559995 64.6778823,33.1573333 C64.5578817,33.2586672 64.4978823,33.378666 64.4978823,33.5173333 C64.4978823,33.7626679 64.6445475,33.917333 64.9378823,33.9813333 L65.5618823,34.1173333 C65.9032173,34.1920004 66.1658814,34.3293323 66.3498823,34.5293333 C66.5338832,34.7293343 66.6258823,34.9733319 66.6258823,35.2613333 C66.6258823,35.5653349 66.5018835,35.8399988 66.2538823,36.0853333 C66.005881,36.3306679 65.6605512,36.4533333 65.2178823,36.4533333 C64.7432132,36.4533333 64.3725503,36.3346679 64.1058823,36.0973333 C63.8392143,35.8599988 63.6872158,35.6053347 63.6498823,35.3333333 Z M71.1703528,32.4853333 L69.5303528,34.1093333 L71.2023528,36.3333333 L70.2583528,36.3333333 L69.0023528,34.6373333 L68.4663528,35.1733333 L68.4663528,36.3333333 L67.7223528,36.3333333 L67.7223528,30.5413333 L68.4663528,30.5413333 L68.4663528,34.1893333 L70.1303528,32.4853333 L71.1703528,32.4853333 Z M71.6588234,35.3013333 C71.6588234,34.970665 71.765489,34.7053343 71.9788234,34.5053333 C72.1921578,34.3053323 72.4748217,34.1813336 72.8268234,34.1333333 L73.8668234,33.9813333 C74.0641577,33.9546665 74.1628234,33.8586675 74.1628234,33.6933333 C74.1628234,33.4906657 74.0934908,33.325334 73.9548234,33.1973333 C73.8161561,33.0693327 73.6081581,33.0053333 73.3308234,33.0053333 C73.0748221,33.0053333 72.8721575,33.0759993 72.7228234,33.2173333 C72.5734893,33.3586674 72.4854902,33.5466655 72.4588234,33.7813333 L71.7388234,33.6133333 C71.7761569,33.2453315 71.9441553,32.9453345 72.2428234,32.7133333 C72.5414916,32.4813322 72.8988213,32.3653333 73.3148234,32.3653333 C73.8588261,32.3653333 74.2614888,32.497332 74.5228234,32.7613333 C74.7841581,33.0253347 74.9148234,33.3626646 74.9148234,33.7733333 L74.9148234,35.7013333 C74.9148234,35.9306678 74.9308233,36.1413324 74.9628234,36.3333333 L74.2268234,36.3333333 C74.2001566,36.1733325 74.1868234,36.0000009 74.1868234,35.8133333 C74.0801562,35.9840009 73.9241578,36.1333327 73.7188234,36.2613333 C73.5134891,36.389334 73.2561583,36.4533333 72.9468234,36.4533333 C72.5681549,36.4533333 72.2588246,36.3400011 72.0188234,36.1133333 C71.7788222,35.8866655 71.6588234,35.6160016 71.6588234,35.3013333 Z M73.0508234,35.8213333 C73.3868251,35.8213333 73.6561557,35.7306676 73.8588234,35.5493333 C74.0614911,35.3679991 74.1628234,35.080002 74.1628234,34.6853333 L74.1628234,34.5093333 L72.9868234,34.6853333 C72.8161559,34.7120001 72.6801573,34.7733329 72.5788234,34.8693333 C72.4774896,34.9653338 72.4268234,35.0959992 72.4268234,35.2613333 C72.4268234,35.4106674 72.4841562,35.5413328 72.5988234,35.6533333 C72.7134907,35.7653339 72.8641558,35.8213333 73.0508234,35.8213333 Z M80.323294,31.2213333 C80.1579598,31.2213333 80.0152946,31.2706662 79.895294,31.3693333 C79.7752934,31.4680005 79.715294,31.6373321 79.715294,31.8773333 L79.715294,32.4853333 L80.643294,32.4853333 L80.643294,33.1653333 L79.715294,33.1653333 L79.715294,36.3333333 L78.939294,36.3333333 L78.939294,33.1653333 L77.187294,33.1653333 L77.187294,36.3333333 L76.411294,36.3333333 L76.411294,33.1653333 L75.699294,33.1653333 L75.699294,32.4853333 L76.411294,32.4853333 L76.411294,31.8373333 C76.411294,31.4266646 76.5312928,31.1040012 76.771294,30.8693333 C77.0112952,30.6346655 77.3126255,30.5173333 77.675294,30.5173333 C77.9046285,30.5173333 78.0539603,30.5439997 78.123294,30.5973333 L78.123294,31.2693333 C78.0432936,31.2373332 77.9339613,31.2213333 77.795294,31.2213333 C77.6299598,31.2213333 77.4872946,31.2706662 77.367294,31.3693333 C77.2472934,31.4680005 77.187294,31.6373321 77.187294,31.8773333 L77.187294,32.4853333 L78.939294,32.4853333 L78.939294,31.8373333 C78.939294,31.4266646 79.0592928,31.1040012 79.299294,30.8693333 C79.5392952,30.6346655 79.8406255,30.5173333 80.203294,30.5173333 C80.4326285,30.5173333 80.5819603,30.5439997 80.651294,30.5973333 L80.651294,31.2693333 C80.5712936,31.2373332 80.4619613,31.2213333 80.323294,31.2213333 Z M81.3077646,35.3013333 C81.3077646,34.970665 81.4144302,34.7053343 81.6277646,34.5053333 C81.841099,34.3053323 82.1237628,34.1813336 82.4757646,34.1333333 L83.5157646,33.9813333 C83.7130989,33.9546665 83.8117646,33.8586675 83.8117646,33.6933333 C83.8117646,33.4906657 83.7424319,33.325334 83.6037646,33.1973333 C83.4650972,33.0693327 83.2570993,33.0053333 82.9797646,33.0053333 C82.7237633,33.0053333 82.5210986,33.0759993 82.3717646,33.2173333 C82.2224305,33.3586674 82.1344314,33.5466655 82.1077646,33.7813333 L81.3877646,33.6133333 C81.4250981,33.2453315 81.5930964,32.9453345 81.8917646,32.7133333 C82.1904327,32.4813322 82.5477625,32.3653333 82.9637646,32.3653333 C83.5077673,32.3653333 83.9104299,32.497332 84.1717646,32.7613333 C84.4330992,33.0253347 84.5637646,33.3626646 84.5637646,33.7733333 L84.5637646,35.7013333 C84.5637646,35.9306678 84.5797644,36.1413324 84.6117646,36.3333333 L83.8757646,36.3333333 C83.8490978,36.1733325 83.8357646,36.0000009 83.8357646,35.8133333 C83.7290974,35.9840009 83.5730989,36.1333327 83.3677646,36.2613333 C83.1624302,36.389334 82.9050994,36.4533333 82.5957646,36.4533333 C82.217096,36.4533333 81.9077658,36.3400011 81.6677646,36.1133333 C81.4277634,35.8866655 81.3077646,35.6160016 81.3077646,35.3013333 Z M82.6997646,35.8213333 C83.0357662,35.8213333 83.3050969,35.7306676 83.5077646,35.5493333 C83.7104322,35.3679991 83.8117646,35.080002 83.8117646,34.6853333 L83.8117646,34.5093333 L82.6357646,34.6853333 C82.465097,34.7120001 82.3290984,34.7733329 82.2277646,34.8693333 C82.1264307,34.9653338 82.0757646,35.0959992 82.0757646,35.2613333 C82.0757646,35.4106674 82.1330973,35.5413328 82.2477646,35.6533333 C82.3624318,35.7653339 82.513097,35.8213333 82.6997646,35.8213333 Z M86.8362351,31.2693333 L86.8362351,32.4853333 L87.6682351,32.4853333 L87.6682351,33.1653333 L86.8362351,33.1653333 L86.8362351,35.1653333 C86.8362351,35.3466676 86.877568,35.4799996 86.9602351,35.5653333 C87.0429022,35.6506671 87.1802342,35.6933333 87.3722351,35.6933333 C87.4842357,35.6933333 87.5829014,35.6826668 87.6682351,35.6613333 L87.6682351,36.3013333 C87.5402345,36.3493336 87.3695695,36.3733333 87.1562351,36.3733333 C86.8255668,36.3733333 86.5642361,36.2773343 86.3722351,36.0853333 C86.1802342,35.8933324 86.0842351,35.6240017 86.0842351,35.2773333 L86.0842351,33.1653333 L85.3482351,33.1653333 L85.3482351,32.4853333 L85.5562351,32.4853333 C85.7535694,32.4853333 85.901568,32.4306672 86.0002351,32.3213333 C86.0989023,32.2119995 86.1482351,32.0693342 86.1482351,31.8933333 L86.1482351,31.2693333 L86.8362351,31.2693333 Z M95.4051763,36.3333333 L94.6211763,36.3333333 L94.6211763,33.8133333 L91.7251763,33.8133333 L91.7251763,36.3333333 L90.9411763,36.3333333 L90.9411763,30.6613333 L91.7251763,30.6613333 L91.7251763,33.0853333 L94.6211763,33.0853333 L94.6211763,30.6613333 L95.4051763,30.6613333 L95.4051763,36.3333333 Z M97.3496468,34.0133333 L99.4536468,34.0133333 C99.4429801,33.7253319 99.3469811,33.4893343 99.1656468,33.3053333 C98.9843126,33.1213324 98.7283151,33.0293333 98.3976468,33.0293333 C98.0989787,33.0293333 97.8536478,33.1266657 97.6616468,33.3213333 C97.4696459,33.516001 97.3656469,33.7466653 97.3496468,34.0133333 Z M99.5656468,35.0133333 L100.213647,35.2373333 C100.101646,35.5946685 99.8936483,35.8866655 99.5896468,36.1133333 C99.2856453,36.3400011 98.917649,36.4533333 98.4856468,36.4533333 C97.9469775,36.4533333 97.4896487,36.2680019 97.1136468,35.8973333 C96.7376449,35.5266648 96.5496468,35.0266698 96.5496468,34.3973333 C96.5496468,33.8106637 96.7309783,33.3253353 97.0936468,32.9413333 C97.4563153,32.5573314 97.888311,32.3653333 98.3896468,32.3653333 C98.9709831,32.3653333 99.4243119,32.5479982 99.7496468,32.9133333 C100.074982,33.2786685 100.237647,33.7679969 100.237647,34.3813333 C100.237647,34.4773338 100.232314,34.557333 100.221647,34.6213333 L97.3256468,34.6213333 C97.3309802,34.9626684 97.4443124,35.2426656 97.6656468,35.4613333 C97.8869813,35.6800011 98.1603119,35.7893333 98.4856468,35.7893333 C99.0349829,35.7893333 99.3949793,35.5306693 99.5656468,35.0133333 Z M101.742117,34.3973333 C101.742117,34.8026687 101.842116,35.1333321 102.042117,35.3893333 C102.242117,35.6453346 102.518116,35.7733333 102.870117,35.7733333 C103.206119,35.7733333 103.47545,35.642668 103.678117,35.3813333 C103.880785,35.1199987 103.982117,34.7866687 103.982117,34.3813333 C103.982117,33.9813313 103.883452,33.6586679 103.686117,33.4133333 C103.488783,33.1679988 103.219452,33.0453333 102.878117,33.0453333 C102.536782,33.0453333 102.262118,33.1706654 102.054117,33.4213333 C101.846116,33.6720013 101.742117,33.9973313 101.742117,34.3973333 Z M103.990117,35.8133333 L103.990117,35.7493333 C103.888784,35.9466677 103.735452,36.110666 103.530117,36.2413333 C103.324783,36.3720007 103.080785,36.4373333 102.798117,36.4373333 C102.248781,36.4373333 101.807452,36.2440019 101.474117,35.8573333 C101.140782,35.4706647 100.974117,34.9840029 100.974117,34.3973333 C100.974117,33.8373305 101.144782,33.3613353 101.486117,32.9693333 C101.827452,32.5773314 102.264781,32.3813333 102.798117,32.3813333 C103.112786,32.3813333 103.368783,32.4439994 103.566117,32.5693333 C103.763452,32.6946673 103.89945,32.8479991 103.974117,33.0293333 L103.974117,30.5413333 L104.718117,30.5413333 L104.718117,35.6213333 C104.718117,35.882668 104.731451,36.1199989 104.758117,36.3333333 L104.030117,36.3333333 C104.003451,36.1839993 103.990117,36.0106677 103.990117,35.8133333 Z M109.390588,32.4853333 L107.854588,36.3333333 L107.094588,36.3333333 L105.534588,32.4853333 L106.382588,32.4853333 L107.478588,35.4533333 L108.582588,32.4853333 L109.390588,32.4853333 Z M110.951059,36.3333333 L110.207059,36.3333333 L110.207059,32.4853333 L110.951059,32.4853333 L110.951059,36.3333333 Z M110.191059,31.4133333 C110.089725,31.3066661 110.039059,31.1786674 110.039059,31.0293333 C110.039059,30.8799993 110.091058,30.7520005 110.195059,30.6453333 C110.299059,30.5386661 110.425724,30.4853333 110.575059,30.4853333 C110.724393,30.4853333 110.852391,30.5373328 110.959059,30.6413333 C111.065726,30.7453339 111.119059,30.8746659 111.119059,31.0293333 C111.119059,31.1786674 111.065726,31.3053328 110.959059,31.4093333 C110.852391,31.5133339 110.724393,31.5653333 110.575059,31.5653333 C110.425724,31.5653333 110.297726,31.5146672 110.191059,31.4133333 Z M112.047529,36.5413333 L112.775529,36.3733333 C112.802196,36.6453347 112.911528,36.8706658 113.103529,37.0493333 C113.29553,37.2280009 113.535528,37.3173333 113.823529,37.3173333 C114.607533,37.3173333 114.999529,36.9013375 114.999529,36.0693333 L114.999529,35.5173333 C114.903529,35.7040009 114.752863,35.8559994 114.547529,35.9733333 C114.342195,36.0906673 114.100864,36.1493333 113.823529,36.1493333 C113.311527,36.1493333 112.888864,35.9746684 112.555529,35.6253333 C112.222194,35.2759983 112.055529,34.8293361 112.055529,34.2853333 C112.055529,33.7573307 112.220861,33.3133351 112.551529,32.9533333 C112.882197,32.5933315 113.306193,32.4133333 113.823529,32.4133333 C114.410199,32.4133333 114.804861,32.615998 115.007529,33.0213333 L115.007529,32.4853333 L115.751529,32.4853333 L115.751529,36.0453333 C115.751529,36.3013346 115.718196,36.5399989 115.651529,36.7613333 C115.584862,36.9826678 115.47953,37.1866657 115.335529,37.3733333 C115.191528,37.5600009 114.990197,37.7066661 114.731529,37.8133333 C114.472861,37.9200005 114.170198,37.9733333 113.823529,37.9733333 C113.34886,37.9733333 112.946197,37.838668 112.615529,37.5693333 C112.284861,37.2999987 112.095529,36.9573354 112.047529,36.5413333 Z M113.935529,35.5173333 C114.260864,35.5173333 114.524861,35.4040011 114.727529,35.1773333 C114.930197,34.9506655 115.031529,34.6533352 115.031529,34.2853333 C115.031529,33.9173315 114.930197,33.6200011 114.727529,33.3933333 C114.524861,33.1666655 114.260864,33.0533333 113.935529,33.0533333 C113.604861,33.0533333 113.336863,33.1653322 113.131529,33.3893333 C112.926195,33.6133345 112.823529,33.9119981 112.823529,34.2853333 C112.823529,34.6640019 112.923528,34.9639989 113.123529,35.1853333 C113.323529,35.4066678 113.594194,35.5173333 113.935529,35.5173333 Z M118.12,30.6613333 L117.92,34.7093333 L117.384,34.7093333 L117.176,30.6613333 L118.12,30.6613333 Z M117.28,36.2213333 C117.178666,36.1199995 117.128,35.9973341 117.128,35.8533333 C117.128,35.7093326 117.178666,35.5853339 117.28,35.4813333 C117.381334,35.3773328 117.503999,35.3253333 117.648,35.3253333 C117.792,35.3253333 117.915999,35.3773328 118.02,35.4813333 C118.124,35.5853339 118.176,35.7093326 118.176,35.8533333 C118.176,35.9973341 118.124,36.1199995 118.02,36.2213333 C117.915999,36.3226672 117.792,36.3733333 117.648,36.3733333 C117.503999,36.3733333 117.381334,36.3226672 117.28,36.2213333 Z" id="HarskafatHedvig!" fill="#414150" fill-rule="nonzero"></path>
                    <path d="M50.2,23 L48.81,23 L48.81,15.91 L53.29,15.91 L53.29,17.22 L50.19,17.22 L50.19,18.97 L52.95,18.97 L52.95,20.24 L50.2,20.24 L50.2,23 Z M56.99,18.06 L56.99,19.4 C56.84,19.37 56.71,19.36 56.59,19.36 C55.91,19.36 55.32,19.69 55.32,20.75 L55.32,23 L53.99,23 L53.99,18.08 L55.28,18.08 L55.28,18.81 C55.58,18.16 56.26,18.04 56.68,18.04 C56.79,18.04 56.89,18.05 56.99,18.06 Z M58.85,19.98 L61.05,19.98 C61.03,19.49 60.71,19.01 59.95,19.01 C59.26,19.01 58.88,19.53 58.85,19.98 Z M61.18,21.26 L62.29,21.59 C62.04,22.44 61.26,23.15 60.05,23.15 C58.7,23.15 57.51,22.18 57.51,20.52 C57.51,18.95 58.67,17.93 59.93,17.93 C61.45,17.93 62.36,18.9 62.36,20.48 C62.36,20.67 62.34,20.87 62.34,20.89 L58.82,20.89 C58.85,21.54 59.4,22.01 60.06,22.01 C60.68,22.01 61.02,21.7 61.18,21.26 Z M68.1,15.76 L68.1,22.11 C68.1,22.44 68.12,22.8 68.14,23 L66.87,23 C66.85,22.9 66.82,22.66 66.82,22.43 C66.6,22.82 66.1,23.12 65.44,23.12 C64.04,23.12 63.04,22.02 63.04,20.53 C63.04,19.09 64.01,17.96 65.4,17.96 C66.25,17.96 66.65,18.31 66.79,18.57 L66.79,15.76 L68.1,15.76 Z M64.38,20.53 C64.38,21.41 64.9,21.93 65.6,21.93 C66.28,21.93 66.81,21.41 66.81,20.52 C66.81,19.64 66.28,19.15 65.6,19.15 C64.92,19.15 64.38,19.65 64.38,20.53 Z M72.54,18.06 L72.54,19.4 C72.39,19.37 72.26,19.36 72.14,19.36 C71.46,19.36 70.87,19.69 70.87,20.75 L70.87,23 L69.54,23 L69.54,18.08 L70.83,18.08 L70.83,18.81 C71.13,18.16 71.81,18.04 72.23,18.04 C72.34,18.04 72.44,18.05 72.54,18.06 Z M74.81,23 L73.48,23 L73.48,18.08 L74.81,18.08 L74.81,23 Z M73.32,16.47 C73.32,16.01 73.69,15.64 74.14,15.64 C74.6,15.64 74.96,16.01 74.96,16.47 C74.96,16.91 74.6,17.28 74.14,17.28 C73.69,17.28 73.32,16.91 73.32,16.47 Z M81,18.08 L79.03,20.15 L81.04,23 L79.41,23 L78.11,21.12 L77.56,21.7 L77.56,23 L76.23,23 L76.23,15.76 L77.56,15.76 L77.56,19.91 L79.26,18.08 L81,18.08 Z" id="Fredrik" fill="#141033" fill-rule="nonzero"></path>
                </g>
                <g id="3" transform="translate(46.638405, 112.000000)">
                    <rect id="Rectangle-Copy-18" fill="#FFFFFF" x="0" y="0" width="250" height="52" rx="8"></rect>
                    <circle id="Oval-Copy-6" fill="#FFE7E5" cx="26" cy="26" r="12"></circle>
                    <polygon id="E" fill="#651EFF" fill-rule="nonzero" points="28.766 30 23.594 30 23.594 21.492 28.766 21.492 28.766 22.584 24.77 22.584 24.77 25.2 28.394 25.2 28.394 26.304 24.77 26.304 24.77 28.908 28.766 28.908"></polygon>
                    <path d="M53.184,36.3333333 L52.4,36.3333333 L52.4,33.8133333 L49.504,33.8133333 L49.504,36.3333333 L48.72,36.3333333 L48.72,30.6613333 L49.504,30.6613333 L49.504,33.0853333 L52.4,33.0853333 L52.4,30.6613333 L53.184,30.6613333 L53.184,36.3333333 Z M54.3604706,35.3013333 C54.3604706,34.970665 54.4671362,34.7053343 54.6804706,34.5053333 C54.893805,34.3053323 55.1764688,34.1813336 55.5284706,34.1333333 L56.5684706,33.9813333 C56.7658049,33.9546665 56.8644706,33.8586675 56.8644706,33.6933333 C56.8644706,33.4906657 56.7951379,33.325334 56.6564706,33.1973333 C56.5178032,33.0693327 56.3098053,33.0053333 56.0324706,33.0053333 C55.7764693,33.0053333 55.5738046,33.0759993 55.4244706,33.2173333 C55.2751365,33.3586674 55.1871374,33.5466655 55.1604706,33.7813333 L54.4404706,33.6133333 C54.4778041,33.2453315 54.6458024,32.9453345 54.9444706,32.7133333 C55.2431387,32.4813322 55.6004685,32.3653333 56.0164706,32.3653333 C56.5604733,32.3653333 56.9631359,32.497332 57.2244706,32.7613333 C57.4858052,33.0253347 57.6164706,33.3626646 57.6164706,33.7733333 L57.6164706,35.7013333 C57.6164706,35.9306678 57.6324704,36.1413324 57.6644706,36.3333333 L56.9284706,36.3333333 C56.9018038,36.1733325 56.8884706,36.0000009 56.8884706,35.8133333 C56.7818034,35.9840009 56.6258049,36.1333327 56.4204706,36.2613333 C56.2151362,36.389334 55.9578054,36.4533333 55.6484706,36.4533333 C55.269802,36.4533333 54.9604718,36.3400011 54.7204706,36.1133333 C54.4804694,35.8866655 54.3604706,35.6160016 54.3604706,35.3013333 Z M55.7524706,35.8213333 C56.0884722,35.8213333 56.3578029,35.7306676 56.5604706,35.5493333 C56.7631382,35.3679991 56.8644706,35.080002 56.8644706,34.6853333 L56.8644706,34.5093333 L55.6884706,34.6853333 C55.517803,34.7120001 55.3818044,34.7733329 55.2804706,34.8693333 C55.1791367,34.9653338 55.1284706,35.0959992 55.1284706,35.2613333 C55.1284706,35.4106674 55.1858033,35.5413328 55.3004706,35.6533333 C55.4151378,35.7653339 55.565803,35.8213333 55.7524706,35.8213333 Z M61.0169411,32.4453333 L61.0169411,33.2453333 C60.9049406,33.2293333 60.7956083,33.2213333 60.6889411,33.2213333 C59.9849376,33.2213333 59.6329411,33.6159961 59.6329411,34.4053333 L59.6329411,36.3333333 L58.8809411,36.3333333 L58.8809411,32.4853333 L59.6169411,32.4853333 L59.6169411,33.1573333 C59.851609,32.6666642 60.2356051,32.4213333 60.7689411,32.4213333 C60.8542749,32.4213333 60.9369407,32.4293333 61.0169411,32.4453333 Z M63.6498823,35.3333333 L64.3298823,35.0933333 C64.3565491,35.3013344 64.4472148,35.4733327 64.6018823,35.6093333 C64.7565497,35.745334 64.9645476,35.8133333 65.2258823,35.8133333 C65.42855,35.8133333 65.5885484,35.7640005 65.7058823,35.6653333 C65.8232162,35.5666662 65.8818823,35.4453341 65.8818823,35.3013333 C65.8818823,35.0453321 65.7165506,34.8800004 65.3858823,34.8053333 L64.7298823,34.6613333 C64.4312141,34.597333 64.1965498,34.4693343 64.0258823,34.2773333 C63.8552148,34.0853324 63.7698823,33.8533347 63.7698823,33.5813333 C63.7698823,33.250665 63.9045476,32.9653345 64.1738823,32.7253333 C64.443217,32.4853321 64.7645471,32.3653333 65.1378823,32.3653333 C65.3832168,32.3653333 65.6018813,32.401333 65.7938823,32.4733333 C65.9858832,32.5453337 66.1352151,32.6399994 66.2418823,32.7573333 C66.3485495,32.8746673 66.4285487,32.9839995 66.4818823,33.0853333 C66.5352159,33.1866672 66.5752155,33.2906661 66.6018823,33.3973333 L65.9378823,33.6453333 C65.9272156,33.581333 65.9085491,33.518667 65.8818823,33.4573333 C65.8552155,33.3959997 65.8138826,33.3280004 65.7578823,33.2533333 C65.701882,33.1786663 65.6205495,33.1186669 65.5138823,33.0733333 C65.4072151,33.0279998 65.281883,33.0053333 65.1378823,33.0053333 C64.9512147,33.0053333 64.7978829,33.0559995 64.6778823,33.1573333 C64.5578817,33.2586672 64.4978823,33.378666 64.4978823,33.5173333 C64.4978823,33.7626679 64.6445475,33.917333 64.9378823,33.9813333 L65.5618823,34.1173333 C65.9032173,34.1920004 66.1658814,34.3293323 66.3498823,34.5293333 C66.5338832,34.7293343 66.6258823,34.9733319 66.6258823,35.2613333 C66.6258823,35.5653349 66.5018835,35.8399988 66.2538823,36.0853333 C66.005881,36.3306679 65.6605512,36.4533333 65.2178823,36.4533333 C64.7432132,36.4533333 64.3725503,36.3346679 64.1058823,36.0973333 C63.8392143,35.8599988 63.6872158,35.6053347 63.6498823,35.3333333 Z M71.1703528,32.4853333 L69.5303528,34.1093333 L71.2023528,36.3333333 L70.2583528,36.3333333 L69.0023528,34.6373333 L68.4663528,35.1733333 L68.4663528,36.3333333 L67.7223528,36.3333333 L67.7223528,30.5413333 L68.4663528,30.5413333 L68.4663528,34.1893333 L70.1303528,32.4853333 L71.1703528,32.4853333 Z M71.6588234,35.3013333 C71.6588234,34.970665 71.765489,34.7053343 71.9788234,34.5053333 C72.1921578,34.3053323 72.4748217,34.1813336 72.8268234,34.1333333 L73.8668234,33.9813333 C74.0641577,33.9546665 74.1628234,33.8586675 74.1628234,33.6933333 C74.1628234,33.4906657 74.0934908,33.325334 73.9548234,33.1973333 C73.8161561,33.0693327 73.6081581,33.0053333 73.3308234,33.0053333 C73.0748221,33.0053333 72.8721575,33.0759993 72.7228234,33.2173333 C72.5734893,33.3586674 72.4854902,33.5466655 72.4588234,33.7813333 L71.7388234,33.6133333 C71.7761569,33.2453315 71.9441553,32.9453345 72.2428234,32.7133333 C72.5414916,32.4813322 72.8988213,32.3653333 73.3148234,32.3653333 C73.8588261,32.3653333 74.2614888,32.497332 74.5228234,32.7613333 C74.7841581,33.0253347 74.9148234,33.3626646 74.9148234,33.7733333 L74.9148234,35.7013333 C74.9148234,35.9306678 74.9308233,36.1413324 74.9628234,36.3333333 L74.2268234,36.3333333 C74.2001566,36.1733325 74.1868234,36.0000009 74.1868234,35.8133333 C74.0801562,35.9840009 73.9241578,36.1333327 73.7188234,36.2613333 C73.5134891,36.389334 73.2561583,36.4533333 72.9468234,36.4533333 C72.5681549,36.4533333 72.2588246,36.3400011 72.0188234,36.1133333 C71.7788222,35.8866655 71.6588234,35.6160016 71.6588234,35.3013333 Z M73.0508234,35.8213333 C73.3868251,35.8213333 73.6561557,35.7306676 73.8588234,35.5493333 C74.0614911,35.3679991 74.1628234,35.080002 74.1628234,34.6853333 L74.1628234,34.5093333 L72.9868234,34.6853333 C72.8161559,34.7120001 72.6801573,34.7733329 72.5788234,34.8693333 C72.4774896,34.9653338 72.4268234,35.0959992 72.4268234,35.2613333 C72.4268234,35.4106674 72.4841562,35.5413328 72.5988234,35.6533333 C72.7134907,35.7653339 72.8641558,35.8213333 73.0508234,35.8213333 Z M80.323294,31.2213333 C80.1579598,31.2213333 80.0152946,31.2706662 79.895294,31.3693333 C79.7752934,31.4680005 79.715294,31.6373321 79.715294,31.8773333 L79.715294,32.4853333 L80.643294,32.4853333 L80.643294,33.1653333 L79.715294,33.1653333 L79.715294,36.3333333 L78.939294,36.3333333 L78.939294,33.1653333 L77.187294,33.1653333 L77.187294,36.3333333 L76.411294,36.3333333 L76.411294,33.1653333 L75.699294,33.1653333 L75.699294,32.4853333 L76.411294,32.4853333 L76.411294,31.8373333 C76.411294,31.4266646 76.5312928,31.1040012 76.771294,30.8693333 C77.0112952,30.6346655 77.3126255,30.5173333 77.675294,30.5173333 C77.9046285,30.5173333 78.0539603,30.5439997 78.123294,30.5973333 L78.123294,31.2693333 C78.0432936,31.2373332 77.9339613,31.2213333 77.795294,31.2213333 C77.6299598,31.2213333 77.4872946,31.2706662 77.367294,31.3693333 C77.2472934,31.4680005 77.187294,31.6373321 77.187294,31.8773333 L77.187294,32.4853333 L78.939294,32.4853333 L78.939294,31.8373333 C78.939294,31.4266646 79.0592928,31.1040012 79.299294,30.8693333 C79.5392952,30.6346655 79.8406255,30.5173333 80.203294,30.5173333 C80.4326285,30.5173333 80.5819603,30.5439997 80.651294,30.5973333 L80.651294,31.2693333 C80.5712936,31.2373332 80.4619613,31.2213333 80.323294,31.2213333 Z M81.3077646,35.3013333 C81.3077646,34.970665 81.4144302,34.7053343 81.6277646,34.5053333 C81.841099,34.3053323 82.1237628,34.1813336 82.4757646,34.1333333 L83.5157646,33.9813333 C83.7130989,33.9546665 83.8117646,33.8586675 83.8117646,33.6933333 C83.8117646,33.4906657 83.7424319,33.325334 83.6037646,33.1973333 C83.4650972,33.0693327 83.2570993,33.0053333 82.9797646,33.0053333 C82.7237633,33.0053333 82.5210986,33.0759993 82.3717646,33.2173333 C82.2224305,33.3586674 82.1344314,33.5466655 82.1077646,33.7813333 L81.3877646,33.6133333 C81.4250981,33.2453315 81.5930964,32.9453345 81.8917646,32.7133333 C82.1904327,32.4813322 82.5477625,32.3653333 82.9637646,32.3653333 C83.5077673,32.3653333 83.9104299,32.497332 84.1717646,32.7613333 C84.4330992,33.0253347 84.5637646,33.3626646 84.5637646,33.7733333 L84.5637646,35.7013333 C84.5637646,35.9306678 84.5797644,36.1413324 84.6117646,36.3333333 L83.8757646,36.3333333 C83.8490978,36.1733325 83.8357646,36.0000009 83.8357646,35.8133333 C83.7290974,35.9840009 83.5730989,36.1333327 83.3677646,36.2613333 C83.1624302,36.389334 82.9050994,36.4533333 82.5957646,36.4533333 C82.217096,36.4533333 81.9077658,36.3400011 81.6677646,36.1133333 C81.4277634,35.8866655 81.3077646,35.6160016 81.3077646,35.3013333 Z M82.6997646,35.8213333 C83.0357662,35.8213333 83.3050969,35.7306676 83.5077646,35.5493333 C83.7104322,35.3679991 83.8117646,35.080002 83.8117646,34.6853333 L83.8117646,34.5093333 L82.6357646,34.6853333 C82.465097,34.7120001 82.3290984,34.7733329 82.2277646,34.8693333 C82.1264307,34.9653338 82.0757646,35.0959992 82.0757646,35.2613333 C82.0757646,35.4106674 82.1330973,35.5413328 82.2477646,35.6533333 C82.3624318,35.7653339 82.513097,35.8213333 82.6997646,35.8213333 Z M86.8362351,31.2693333 L86.8362351,32.4853333 L87.6682351,32.4853333 L87.6682351,33.1653333 L86.8362351,33.1653333 L86.8362351,35.1653333 C86.8362351,35.3466676 86.877568,35.4799996 86.9602351,35.5653333 C87.0429022,35.6506671 87.1802342,35.6933333 87.3722351,35.6933333 C87.4842357,35.6933333 87.5829014,35.6826668 87.6682351,35.6613333 L87.6682351,36.3013333 C87.5402345,36.3493336 87.3695695,36.3733333 87.1562351,36.3733333 C86.8255668,36.3733333 86.5642361,36.2773343 86.3722351,36.0853333 C86.1802342,35.8933324 86.0842351,35.6240017 86.0842351,35.2773333 L86.0842351,33.1653333 L85.3482351,33.1653333 L85.3482351,32.4853333 L85.5562351,32.4853333 C85.7535694,32.4853333 85.901568,32.4306672 86.0002351,32.3213333 C86.0989023,32.2119995 86.1482351,32.0693342 86.1482351,31.8933333 L86.1482351,31.2693333 L86.8362351,31.2693333 Z M95.4051763,36.3333333 L94.6211763,36.3333333 L94.6211763,33.8133333 L91.7251763,33.8133333 L91.7251763,36.3333333 L90.9411763,36.3333333 L90.9411763,30.6613333 L91.7251763,30.6613333 L91.7251763,33.0853333 L94.6211763,33.0853333 L94.6211763,30.6613333 L95.4051763,30.6613333 L95.4051763,36.3333333 Z M97.3496468,34.0133333 L99.4536468,34.0133333 C99.4429801,33.7253319 99.3469811,33.4893343 99.1656468,33.3053333 C98.9843126,33.1213324 98.7283151,33.0293333 98.3976468,33.0293333 C98.0989787,33.0293333 97.8536478,33.1266657 97.6616468,33.3213333 C97.4696459,33.516001 97.3656469,33.7466653 97.3496468,34.0133333 Z M99.5656468,35.0133333 L100.213647,35.2373333 C100.101646,35.5946685 99.8936483,35.8866655 99.5896468,36.1133333 C99.2856453,36.3400011 98.917649,36.4533333 98.4856468,36.4533333 C97.9469775,36.4533333 97.4896487,36.2680019 97.1136468,35.8973333 C96.7376449,35.5266648 96.5496468,35.0266698 96.5496468,34.3973333 C96.5496468,33.8106637 96.7309783,33.3253353 97.0936468,32.9413333 C97.4563153,32.5573314 97.888311,32.3653333 98.3896468,32.3653333 C98.9709831,32.3653333 99.4243119,32.5479982 99.7496468,32.9133333 C100.074982,33.2786685 100.237647,33.7679969 100.237647,34.3813333 C100.237647,34.4773338 100.232314,34.557333 100.221647,34.6213333 L97.3256468,34.6213333 C97.3309802,34.9626684 97.4443124,35.2426656 97.6656468,35.4613333 C97.8869813,35.6800011 98.1603119,35.7893333 98.4856468,35.7893333 C99.0349829,35.7893333 99.3949793,35.5306693 99.5656468,35.0133333 Z M101.742117,34.3973333 C101.742117,34.8026687 101.842116,35.1333321 102.042117,35.3893333 C102.242117,35.6453346 102.518116,35.7733333 102.870117,35.7733333 C103.206119,35.7733333 103.47545,35.642668 103.678117,35.3813333 C103.880785,35.1199987 103.982117,34.7866687 103.982117,34.3813333 C103.982117,33.9813313 103.883452,33.6586679 103.686117,33.4133333 C103.488783,33.1679988 103.219452,33.0453333 102.878117,33.0453333 C102.536782,33.0453333 102.262118,33.1706654 102.054117,33.4213333 C101.846116,33.6720013 101.742117,33.9973313 101.742117,34.3973333 Z M103.990117,35.8133333 L103.990117,35.7493333 C103.888784,35.9466677 103.735452,36.110666 103.530117,36.2413333 C103.324783,36.3720007 103.080785,36.4373333 102.798117,36.4373333 C102.248781,36.4373333 101.807452,36.2440019 101.474117,35.8573333 C101.140782,35.4706647 100.974117,34.9840029 100.974117,34.3973333 C100.974117,33.8373305 101.144782,33.3613353 101.486117,32.9693333 C101.827452,32.5773314 102.264781,32.3813333 102.798117,32.3813333 C103.112786,32.3813333 103.368783,32.4439994 103.566117,32.5693333 C103.763452,32.6946673 103.89945,32.8479991 103.974117,33.0293333 L103.974117,30.5413333 L104.718117,30.5413333 L104.718117,35.6213333 C104.718117,35.882668 104.731451,36.1199989 104.758117,36.3333333 L104.030117,36.3333333 C104.003451,36.1839993 103.990117,36.0106677 103.990117,35.8133333 Z M109.390588,32.4853333 L107.854588,36.3333333 L107.094588,36.3333333 L105.534588,32.4853333 L106.382588,32.4853333 L107.478588,35.4533333 L108.582588,32.4853333 L109.390588,32.4853333 Z M110.951059,36.3333333 L110.207059,36.3333333 L110.207059,32.4853333 L110.951059,32.4853333 L110.951059,36.3333333 Z M110.191059,31.4133333 C110.089725,31.3066661 110.039059,31.1786674 110.039059,31.0293333 C110.039059,30.8799993 110.091058,30.7520005 110.195059,30.6453333 C110.299059,30.5386661 110.425724,30.4853333 110.575059,30.4853333 C110.724393,30.4853333 110.852391,30.5373328 110.959059,30.6413333 C111.065726,30.7453339 111.119059,30.8746659 111.119059,31.0293333 C111.119059,31.1786674 111.065726,31.3053328 110.959059,31.4093333 C110.852391,31.5133339 110.724393,31.5653333 110.575059,31.5653333 C110.425724,31.5653333 110.297726,31.5146672 110.191059,31.4133333 Z M112.047529,36.5413333 L112.775529,36.3733333 C112.802196,36.6453347 112.911528,36.8706658 113.103529,37.0493333 C113.29553,37.2280009 113.535528,37.3173333 113.823529,37.3173333 C114.607533,37.3173333 114.999529,36.9013375 114.999529,36.0693333 L114.999529,35.5173333 C114.903529,35.7040009 114.752863,35.8559994 114.547529,35.9733333 C114.342195,36.0906673 114.100864,36.1493333 113.823529,36.1493333 C113.311527,36.1493333 112.888864,35.9746684 112.555529,35.6253333 C112.222194,35.2759983 112.055529,34.8293361 112.055529,34.2853333 C112.055529,33.7573307 112.220861,33.3133351 112.551529,32.9533333 C112.882197,32.5933315 113.306193,32.4133333 113.823529,32.4133333 C114.410199,32.4133333 114.804861,32.615998 115.007529,33.0213333 L115.007529,32.4853333 L115.751529,32.4853333 L115.751529,36.0453333 C115.751529,36.3013346 115.718196,36.5399989 115.651529,36.7613333 C115.584862,36.9826678 115.47953,37.1866657 115.335529,37.3733333 C115.191528,37.5600009 114.990197,37.7066661 114.731529,37.8133333 C114.472861,37.9200005 114.170198,37.9733333 113.823529,37.9733333 C113.34886,37.9733333 112.946197,37.838668 112.615529,37.5693333 C112.284861,37.2999987 112.095529,36.9573354 112.047529,36.5413333 Z M113.935529,35.5173333 C114.260864,35.5173333 114.524861,35.4040011 114.727529,35.1773333 C114.930197,34.9506655 115.031529,34.6533352 115.031529,34.2853333 C115.031529,33.9173315 114.930197,33.6200011 114.727529,33.3933333 C114.524861,33.1666655 114.260864,33.0533333 113.935529,33.0533333 C113.604861,33.0533333 113.336863,33.1653322 113.131529,33.3893333 C112.926195,33.6133345 112.823529,33.9119981 112.823529,34.2853333 C112.823529,34.6640019 112.923528,34.9639989 113.123529,35.1853333 C113.323529,35.4066678 113.594194,35.5173333 113.935529,35.5173333 Z M118.12,30.6613333 L117.92,34.7093333 L117.384,34.7093333 L117.176,30.6613333 L118.12,30.6613333 Z M117.28,36.2213333 C117.178666,36.1199995 117.128,35.9973341 117.128,35.8533333 C117.128,35.7093326 117.178666,35.5853339 117.28,35.4813333 C117.381334,35.3773328 117.503999,35.3253333 117.648,35.3253333 C117.792,35.3253333 117.915999,35.3773328 118.02,35.4813333 C118.124,35.5853339 118.176,35.7093326 118.176,35.8533333 C118.176,35.9973341 118.124,36.1199995 118.02,36.2213333 C117.915999,36.3226672 117.792,36.3733333 117.648,36.3733333 C117.503999,36.3733333 117.381334,36.3226672 117.28,36.2213333 Z" id="HarskafatHedvig!" fill="#414150" fill-rule="nonzero"></path>
                    <path d="M53.25,23 L48.81,23 L48.81,15.91 L53.25,15.91 L53.25,17.21 L50.19,17.21 L50.19,18.83 L52.96,18.83 L52.96,20.06 L50.19,20.06 L50.19,21.7 L53.25,21.7 L53.25,23 Z M55.86,23 L54.53,23 L54.53,15.76 L55.86,15.76 L55.86,23 Z M56.86,21.63 L58,21.38 C58.03,21.77 58.32,22.13 58.9,22.13 C59.34,22.13 59.55,21.9 59.55,21.64 C59.55,21.42 59.4,21.24 59.02,21.16 L58.37,21.01 C57.42,20.8 56.99,20.23 56.99,19.54 C56.99,18.66 57.77,17.93 58.83,17.93 C60.23,17.93 60.7,18.82 60.76,19.35 L59.65,19.6 C59.61,19.31 59.4,18.94 58.84,18.94 C58.49,18.94 58.21,19.15 58.21,19.43 C58.21,19.67 58.39,19.82 58.66,19.87 L59.36,20.02 C60.33,20.22 60.82,20.81 60.82,21.53 C60.82,22.33 60.2,23.15 58.91,23.15 C57.43,23.15 56.92,22.19 56.86,21.63 Z M61.55,21.66 C61.55,20.78 62.2,20.29 63.02,20.17 L64.23,19.99 C64.51,19.95 64.6,19.81 64.6,19.64 C64.6,19.29 64.33,19 63.77,19 C63.19,19 62.87,19.37 62.83,19.8 L61.65,19.55 C61.73,18.78 62.44,17.93 63.76,17.93 C65.32,17.93 65.9,18.81 65.9,19.8 L65.9,22.22 C65.9,22.48 65.93,22.83 65.96,23 L64.74,23 C64.71,22.87 64.69,22.6 64.69,22.41 C64.44,22.8 63.97,23.14 63.24,23.14 C62.19,23.14 61.55,22.43 61.55,21.66 Z M63.52,22.15 C64.08,22.15 64.6,21.88 64.6,21.01 L64.6,20.79 L63.49,20.96 C63.15,21.01 62.88,21.2 62.88,21.58 C62.88,21.87 63.09,22.15 63.52,22.15 Z" id="Elsa" fill="#141033" fill-rule="nonzero"></path>
                    <rect id="Rectangle" fill-opacity="0.05" fill="#141033" x="193" y="17" width="48" height="17.6842105" rx="5.05263158"></rect>
                    <path d="M200.846737,26.9827368 L198.450526,26.9827368 L198.450526,26.2576842 L200.846737,26.2576842 L200.846737,26.9827368 Z M203.63252,29.1578947 L202.783678,29.1578947 L202.783678,25.1170526 L201.395467,25.1170526 L201.395467,24.5069474 C201.784522,24.5010526 202.111677,24.3993694 202.376941,24.2018947 C202.642206,24.0044201 202.807257,23.7465279 202.872099,23.4282105 L203.63252,23.4282105 L203.63252,29.1578947 Z M206.250303,24.4362105 C205.914302,24.7898965 205.746303,25.4088377 205.746303,26.2930526 C205.746303,27.1772676 205.914302,27.7962088 206.250303,28.1498947 C206.486094,28.3974749 206.78967,28.5212632 207.16104,28.5212632 C207.53241,28.5212632 207.835986,28.3974749 208.071777,28.1498947 C208.407779,27.7962088 208.575777,27.1772676 208.575777,26.2930526 C208.575777,25.4088377 208.407779,24.7898965 208.071777,24.4362105 C207.835986,24.1886303 207.53241,24.0648421 207.16104,24.0648421 C206.78967,24.0648421 206.486094,24.1886303 206.250303,24.4362105 Z M205.401461,28.3709474 C205.059565,27.8639975 204.888619,27.1713728 204.888619,26.2930526 C204.888619,25.4147325 205.059565,24.7221078 205.401461,24.2151579 C205.8082,23.6021022 206.394721,23.2955789 207.16104,23.2955789 C207.92736,23.2955789 208.51388,23.6021022 208.920619,24.2151579 C209.262516,24.7221078 209.433461,25.4147325 209.433461,26.2930526 C209.433461,27.1713728 209.262516,27.8639975 208.920619,28.3709474 C208.51388,28.9840031 207.92736,29.2905263 207.16104,29.2905263 C206.394721,29.2905263 205.8082,28.9840031 205.401461,28.3709474 Z M216.817659,24.9048421 L215.005028,26.6997895 L216.853028,29.1578947 L215.809659,29.1578947 L214.421449,27.2833684 L213.829028,27.8757895 L213.829028,29.1578947 L213.006712,29.1578947 L213.006712,22.7562105 L213.829028,22.7562105 L213.829028,26.7882105 L215.668186,24.9048421 L216.817659,24.9048421 Z M220.116285,24.8606316 L220.116285,25.7448421 C219.992495,25.7271578 219.871654,25.7183158 219.753758,25.7183158 C218.975649,25.7183158 218.586601,26.154522 218.586601,27.0269474 L218.586601,29.1578947 L217.755443,29.1578947 L217.755443,24.9048421 L218.568916,24.9048421 L218.568916,25.6475789 C218.828286,25.1052604 219.252703,24.8341053 219.842179,24.8341053 C219.936496,24.8341053 220.027863,24.8429473 220.116285,24.8606316 Z" id="-10kr" fill="#414150" fill-rule="nonzero"></path>
                    <circle id="Oval" fill="#1BE9B6" cx="230.894737" cy="25.8421053" r="5.05263158"></circle>
                    <polygon id="Page-1" fill="#FFFFFF" points="229.903749 27.2406968 228.505907 25.8271652 228.031579 26.3068168 229.903749 28.2 233.926316 24.1322832 233.451988 23.6526316"></polygon>
                </g>
                <g id="4" transform="translate(46.638405, 168.000000)">
                    <rect id="Rectangle-Copy-19" fill="#FFFFFF" x="0" y="0" width="250" height="52" rx="8"></rect>
                    <circle id="Oval-Copy-7" fill="#651EFF" cx="26" cy="26" r="12"></circle>
                    <path d="M28.79,30 L27.866,27.624 L24.098,27.624 L23.198,30 L21.938,30 L25.322,21.492 L26.678,21.492 L30.062,30 L28.79,30 Z M25.97,22.716 L24.518,26.532 L27.446,26.532 L25.97,22.716 Z" id="A" fill="#F9FAFC" fill-rule="nonzero"></path>
                    <path d="M53.184,36.3333333 L52.4,36.3333333 L52.4,33.8133333 L49.504,33.8133333 L49.504,36.3333333 L48.72,36.3333333 L48.72,30.6613333 L49.504,30.6613333 L49.504,33.0853333 L52.4,33.0853333 L52.4,30.6613333 L53.184,30.6613333 L53.184,36.3333333 Z M54.3604706,35.3013333 C54.3604706,34.970665 54.4671362,34.7053343 54.6804706,34.5053333 C54.893805,34.3053323 55.1764688,34.1813336 55.5284706,34.1333333 L56.5684706,33.9813333 C56.7658049,33.9546665 56.8644706,33.8586675 56.8644706,33.6933333 C56.8644706,33.4906657 56.7951379,33.325334 56.6564706,33.1973333 C56.5178032,33.0693327 56.3098053,33.0053333 56.0324706,33.0053333 C55.7764693,33.0053333 55.5738046,33.0759993 55.4244706,33.2173333 C55.2751365,33.3586674 55.1871374,33.5466655 55.1604706,33.7813333 L54.4404706,33.6133333 C54.4778041,33.2453315 54.6458024,32.9453345 54.9444706,32.7133333 C55.2431387,32.4813322 55.6004685,32.3653333 56.0164706,32.3653333 C56.5604733,32.3653333 56.9631359,32.497332 57.2244706,32.7613333 C57.4858052,33.0253347 57.6164706,33.3626646 57.6164706,33.7733333 L57.6164706,35.7013333 C57.6164706,35.9306678 57.6324704,36.1413324 57.6644706,36.3333333 L56.9284706,36.3333333 C56.9018038,36.1733325 56.8884706,36.0000009 56.8884706,35.8133333 C56.7818034,35.9840009 56.6258049,36.1333327 56.4204706,36.2613333 C56.2151362,36.389334 55.9578054,36.4533333 55.6484706,36.4533333 C55.269802,36.4533333 54.9604718,36.3400011 54.7204706,36.1133333 C54.4804694,35.8866655 54.3604706,35.6160016 54.3604706,35.3013333 Z M55.7524706,35.8213333 C56.0884722,35.8213333 56.3578029,35.7306676 56.5604706,35.5493333 C56.7631382,35.3679991 56.8644706,35.080002 56.8644706,34.6853333 L56.8644706,34.5093333 L55.6884706,34.6853333 C55.517803,34.7120001 55.3818044,34.7733329 55.2804706,34.8693333 C55.1791367,34.9653338 55.1284706,35.0959992 55.1284706,35.2613333 C55.1284706,35.4106674 55.1858033,35.5413328 55.3004706,35.6533333 C55.4151378,35.7653339 55.565803,35.8213333 55.7524706,35.8213333 Z M61.0169411,32.4453333 L61.0169411,33.2453333 C60.9049406,33.2293333 60.7956083,33.2213333 60.6889411,33.2213333 C59.9849376,33.2213333 59.6329411,33.6159961 59.6329411,34.4053333 L59.6329411,36.3333333 L58.8809411,36.3333333 L58.8809411,32.4853333 L59.6169411,32.4853333 L59.6169411,33.1573333 C59.851609,32.6666642 60.2356051,32.4213333 60.7689411,32.4213333 C60.8542749,32.4213333 60.9369407,32.4293333 61.0169411,32.4453333 Z M63.6498823,35.3333333 L64.3298823,35.0933333 C64.3565491,35.3013344 64.4472148,35.4733327 64.6018823,35.6093333 C64.7565497,35.745334 64.9645476,35.8133333 65.2258823,35.8133333 C65.42855,35.8133333 65.5885484,35.7640005 65.7058823,35.6653333 C65.8232162,35.5666662 65.8818823,35.4453341 65.8818823,35.3013333 C65.8818823,35.0453321 65.7165506,34.8800004 65.3858823,34.8053333 L64.7298823,34.6613333 C64.4312141,34.597333 64.1965498,34.4693343 64.0258823,34.2773333 C63.8552148,34.0853324 63.7698823,33.8533347 63.7698823,33.5813333 C63.7698823,33.250665 63.9045476,32.9653345 64.1738823,32.7253333 C64.443217,32.4853321 64.7645471,32.3653333 65.1378823,32.3653333 C65.3832168,32.3653333 65.6018813,32.401333 65.7938823,32.4733333 C65.9858832,32.5453337 66.1352151,32.6399994 66.2418823,32.7573333 C66.3485495,32.8746673 66.4285487,32.9839995 66.4818823,33.0853333 C66.5352159,33.1866672 66.5752155,33.2906661 66.6018823,33.3973333 L65.9378823,33.6453333 C65.9272156,33.581333 65.9085491,33.518667 65.8818823,33.4573333 C65.8552155,33.3959997 65.8138826,33.3280004 65.7578823,33.2533333 C65.701882,33.1786663 65.6205495,33.1186669 65.5138823,33.0733333 C65.4072151,33.0279998 65.281883,33.0053333 65.1378823,33.0053333 C64.9512147,33.0053333 64.7978829,33.0559995 64.6778823,33.1573333 C64.5578817,33.2586672 64.4978823,33.378666 64.4978823,33.5173333 C64.4978823,33.7626679 64.6445475,33.917333 64.9378823,33.9813333 L65.5618823,34.1173333 C65.9032173,34.1920004 66.1658814,34.3293323 66.3498823,34.5293333 C66.5338832,34.7293343 66.6258823,34.9733319 66.6258823,35.2613333 C66.6258823,35.5653349 66.5018835,35.8399988 66.2538823,36.0853333 C66.005881,36.3306679 65.6605512,36.4533333 65.2178823,36.4533333 C64.7432132,36.4533333 64.3725503,36.3346679 64.1058823,36.0973333 C63.8392143,35.8599988 63.6872158,35.6053347 63.6498823,35.3333333 Z M71.1703528,32.4853333 L69.5303528,34.1093333 L71.2023528,36.3333333 L70.2583528,36.3333333 L69.0023528,34.6373333 L68.4663528,35.1733333 L68.4663528,36.3333333 L67.7223528,36.3333333 L67.7223528,30.5413333 L68.4663528,30.5413333 L68.4663528,34.1893333 L70.1303528,32.4853333 L71.1703528,32.4853333 Z M71.6588234,35.3013333 C71.6588234,34.970665 71.765489,34.7053343 71.9788234,34.5053333 C72.1921578,34.3053323 72.4748217,34.1813336 72.8268234,34.1333333 L73.8668234,33.9813333 C74.0641577,33.9546665 74.1628234,33.8586675 74.1628234,33.6933333 C74.1628234,33.4906657 74.0934908,33.325334 73.9548234,33.1973333 C73.8161561,33.0693327 73.6081581,33.0053333 73.3308234,33.0053333 C73.0748221,33.0053333 72.8721575,33.0759993 72.7228234,33.2173333 C72.5734893,33.3586674 72.4854902,33.5466655 72.4588234,33.7813333 L71.7388234,33.6133333 C71.7761569,33.2453315 71.9441553,32.9453345 72.2428234,32.7133333 C72.5414916,32.4813322 72.8988213,32.3653333 73.3148234,32.3653333 C73.8588261,32.3653333 74.2614888,32.497332 74.5228234,32.7613333 C74.7841581,33.0253347 74.9148234,33.3626646 74.9148234,33.7733333 L74.9148234,35.7013333 C74.9148234,35.9306678 74.9308233,36.1413324 74.9628234,36.3333333 L74.2268234,36.3333333 C74.2001566,36.1733325 74.1868234,36.0000009 74.1868234,35.8133333 C74.0801562,35.9840009 73.9241578,36.1333327 73.7188234,36.2613333 C73.5134891,36.389334 73.2561583,36.4533333 72.9468234,36.4533333 C72.5681549,36.4533333 72.2588246,36.3400011 72.0188234,36.1133333 C71.7788222,35.8866655 71.6588234,35.6160016 71.6588234,35.3013333 Z M73.0508234,35.8213333 C73.3868251,35.8213333 73.6561557,35.7306676 73.8588234,35.5493333 C74.0614911,35.3679991 74.1628234,35.080002 74.1628234,34.6853333 L74.1628234,34.5093333 L72.9868234,34.6853333 C72.8161559,34.7120001 72.6801573,34.7733329 72.5788234,34.8693333 C72.4774896,34.9653338 72.4268234,35.0959992 72.4268234,35.2613333 C72.4268234,35.4106674 72.4841562,35.5413328 72.5988234,35.6533333 C72.7134907,35.7653339 72.8641558,35.8213333 73.0508234,35.8213333 Z M80.323294,31.2213333 C80.1579598,31.2213333 80.0152946,31.2706662 79.895294,31.3693333 C79.7752934,31.4680005 79.715294,31.6373321 79.715294,31.8773333 L79.715294,32.4853333 L80.643294,32.4853333 L80.643294,33.1653333 L79.715294,33.1653333 L79.715294,36.3333333 L78.939294,36.3333333 L78.939294,33.1653333 L77.187294,33.1653333 L77.187294,36.3333333 L76.411294,36.3333333 L76.411294,33.1653333 L75.699294,33.1653333 L75.699294,32.4853333 L76.411294,32.4853333 L76.411294,31.8373333 C76.411294,31.4266646 76.5312928,31.1040012 76.771294,30.8693333 C77.0112952,30.6346655 77.3126255,30.5173333 77.675294,30.5173333 C77.9046285,30.5173333 78.0539603,30.5439997 78.123294,30.5973333 L78.123294,31.2693333 C78.0432936,31.2373332 77.9339613,31.2213333 77.795294,31.2213333 C77.6299598,31.2213333 77.4872946,31.2706662 77.367294,31.3693333 C77.2472934,31.4680005 77.187294,31.6373321 77.187294,31.8773333 L77.187294,32.4853333 L78.939294,32.4853333 L78.939294,31.8373333 C78.939294,31.4266646 79.0592928,31.1040012 79.299294,30.8693333 C79.5392952,30.6346655 79.8406255,30.5173333 80.203294,30.5173333 C80.4326285,30.5173333 80.5819603,30.5439997 80.651294,30.5973333 L80.651294,31.2693333 C80.5712936,31.2373332 80.4619613,31.2213333 80.323294,31.2213333 Z M81.3077646,35.3013333 C81.3077646,34.970665 81.4144302,34.7053343 81.6277646,34.5053333 C81.841099,34.3053323 82.1237628,34.1813336 82.4757646,34.1333333 L83.5157646,33.9813333 C83.7130989,33.9546665 83.8117646,33.8586675 83.8117646,33.6933333 C83.8117646,33.4906657 83.7424319,33.325334 83.6037646,33.1973333 C83.4650972,33.0693327 83.2570993,33.0053333 82.9797646,33.0053333 C82.7237633,33.0053333 82.5210986,33.0759993 82.3717646,33.2173333 C82.2224305,33.3586674 82.1344314,33.5466655 82.1077646,33.7813333 L81.3877646,33.6133333 C81.4250981,33.2453315 81.5930964,32.9453345 81.8917646,32.7133333 C82.1904327,32.4813322 82.5477625,32.3653333 82.9637646,32.3653333 C83.5077673,32.3653333 83.9104299,32.497332 84.1717646,32.7613333 C84.4330992,33.0253347 84.5637646,33.3626646 84.5637646,33.7733333 L84.5637646,35.7013333 C84.5637646,35.9306678 84.5797644,36.1413324 84.6117646,36.3333333 L83.8757646,36.3333333 C83.8490978,36.1733325 83.8357646,36.0000009 83.8357646,35.8133333 C83.7290974,35.9840009 83.5730989,36.1333327 83.3677646,36.2613333 C83.1624302,36.389334 82.9050994,36.4533333 82.5957646,36.4533333 C82.217096,36.4533333 81.9077658,36.3400011 81.6677646,36.1133333 C81.4277634,35.8866655 81.3077646,35.6160016 81.3077646,35.3013333 Z M82.6997646,35.8213333 C83.0357662,35.8213333 83.3050969,35.7306676 83.5077646,35.5493333 C83.7104322,35.3679991 83.8117646,35.080002 83.8117646,34.6853333 L83.8117646,34.5093333 L82.6357646,34.6853333 C82.465097,34.7120001 82.3290984,34.7733329 82.2277646,34.8693333 C82.1264307,34.9653338 82.0757646,35.0959992 82.0757646,35.2613333 C82.0757646,35.4106674 82.1330973,35.5413328 82.2477646,35.6533333 C82.3624318,35.7653339 82.513097,35.8213333 82.6997646,35.8213333 Z M86.8362351,31.2693333 L86.8362351,32.4853333 L87.6682351,32.4853333 L87.6682351,33.1653333 L86.8362351,33.1653333 L86.8362351,35.1653333 C86.8362351,35.3466676 86.877568,35.4799996 86.9602351,35.5653333 C87.0429022,35.6506671 87.1802342,35.6933333 87.3722351,35.6933333 C87.4842357,35.6933333 87.5829014,35.6826668 87.6682351,35.6613333 L87.6682351,36.3013333 C87.5402345,36.3493336 87.3695695,36.3733333 87.1562351,36.3733333 C86.8255668,36.3733333 86.5642361,36.2773343 86.3722351,36.0853333 C86.1802342,35.8933324 86.0842351,35.6240017 86.0842351,35.2773333 L86.0842351,33.1653333 L85.3482351,33.1653333 L85.3482351,32.4853333 L85.5562351,32.4853333 C85.7535694,32.4853333 85.901568,32.4306672 86.0002351,32.3213333 C86.0989023,32.2119995 86.1482351,32.0693342 86.1482351,31.8933333 L86.1482351,31.2693333 L86.8362351,31.2693333 Z M95.4051763,36.3333333 L94.6211763,36.3333333 L94.6211763,33.8133333 L91.7251763,33.8133333 L91.7251763,36.3333333 L90.9411763,36.3333333 L90.9411763,30.6613333 L91.7251763,30.6613333 L91.7251763,33.0853333 L94.6211763,33.0853333 L94.6211763,30.6613333 L95.4051763,30.6613333 L95.4051763,36.3333333 Z M97.3496468,34.0133333 L99.4536468,34.0133333 C99.4429801,33.7253319 99.3469811,33.4893343 99.1656468,33.3053333 C98.9843126,33.1213324 98.7283151,33.0293333 98.3976468,33.0293333 C98.0989787,33.0293333 97.8536478,33.1266657 97.6616468,33.3213333 C97.4696459,33.516001 97.3656469,33.7466653 97.3496468,34.0133333 Z M99.5656468,35.0133333 L100.213647,35.2373333 C100.101646,35.5946685 99.8936483,35.8866655 99.5896468,36.1133333 C99.2856453,36.3400011 98.917649,36.4533333 98.4856468,36.4533333 C97.9469775,36.4533333 97.4896487,36.2680019 97.1136468,35.8973333 C96.7376449,35.5266648 96.5496468,35.0266698 96.5496468,34.3973333 C96.5496468,33.8106637 96.7309783,33.3253353 97.0936468,32.9413333 C97.4563153,32.5573314 97.888311,32.3653333 98.3896468,32.3653333 C98.9709831,32.3653333 99.4243119,32.5479982 99.7496468,32.9133333 C100.074982,33.2786685 100.237647,33.7679969 100.237647,34.3813333 C100.237647,34.4773338 100.232314,34.557333 100.221647,34.6213333 L97.3256468,34.6213333 C97.3309802,34.9626684 97.4443124,35.2426656 97.6656468,35.4613333 C97.8869813,35.6800011 98.1603119,35.7893333 98.4856468,35.7893333 C99.0349829,35.7893333 99.3949793,35.5306693 99.5656468,35.0133333 Z M101.742117,34.3973333 C101.742117,34.8026687 101.842116,35.1333321 102.042117,35.3893333 C102.242117,35.6453346 102.518116,35.7733333 102.870117,35.7733333 C103.206119,35.7733333 103.47545,35.642668 103.678117,35.3813333 C103.880785,35.1199987 103.982117,34.7866687 103.982117,34.3813333 C103.982117,33.9813313 103.883452,33.6586679 103.686117,33.4133333 C103.488783,33.1679988 103.219452,33.0453333 102.878117,33.0453333 C102.536782,33.0453333 102.262118,33.1706654 102.054117,33.4213333 C101.846116,33.6720013 101.742117,33.9973313 101.742117,34.3973333 Z M103.990117,35.8133333 L103.990117,35.7493333 C103.888784,35.9466677 103.735452,36.110666 103.530117,36.2413333 C103.324783,36.3720007 103.080785,36.4373333 102.798117,36.4373333 C102.248781,36.4373333 101.807452,36.2440019 101.474117,35.8573333 C101.140782,35.4706647 100.974117,34.9840029 100.974117,34.3973333 C100.974117,33.8373305 101.144782,33.3613353 101.486117,32.9693333 C101.827452,32.5773314 102.264781,32.3813333 102.798117,32.3813333 C103.112786,32.3813333 103.368783,32.4439994 103.566117,32.5693333 C103.763452,32.6946673 103.89945,32.8479991 103.974117,33.0293333 L103.974117,30.5413333 L104.718117,30.5413333 L104.718117,35.6213333 C104.718117,35.882668 104.731451,36.1199989 104.758117,36.3333333 L104.030117,36.3333333 C104.003451,36.1839993 103.990117,36.0106677 103.990117,35.8133333 Z M109.390588,32.4853333 L107.854588,36.3333333 L107.094588,36.3333333 L105.534588,32.4853333 L106.382588,32.4853333 L107.478588,35.4533333 L108.582588,32.4853333 L109.390588,32.4853333 Z M110.951059,36.3333333 L110.207059,36.3333333 L110.207059,32.4853333 L110.951059,32.4853333 L110.951059,36.3333333 Z M110.191059,31.4133333 C110.089725,31.3066661 110.039059,31.1786674 110.039059,31.0293333 C110.039059,30.8799993 110.091058,30.7520005 110.195059,30.6453333 C110.299059,30.5386661 110.425724,30.4853333 110.575059,30.4853333 C110.724393,30.4853333 110.852391,30.5373328 110.959059,30.6413333 C111.065726,30.7453339 111.119059,30.8746659 111.119059,31.0293333 C111.119059,31.1786674 111.065726,31.3053328 110.959059,31.4093333 C110.852391,31.5133339 110.724393,31.5653333 110.575059,31.5653333 C110.425724,31.5653333 110.297726,31.5146672 110.191059,31.4133333 Z M112.047529,36.5413333 L112.775529,36.3733333 C112.802196,36.6453347 112.911528,36.8706658 113.103529,37.0493333 C113.29553,37.2280009 113.535528,37.3173333 113.823529,37.3173333 C114.607533,37.3173333 114.999529,36.9013375 114.999529,36.0693333 L114.999529,35.5173333 C114.903529,35.7040009 114.752863,35.8559994 114.547529,35.9733333 C114.342195,36.0906673 114.100864,36.1493333 113.823529,36.1493333 C113.311527,36.1493333 112.888864,35.9746684 112.555529,35.6253333 C112.222194,35.2759983 112.055529,34.8293361 112.055529,34.2853333 C112.055529,33.7573307 112.220861,33.3133351 112.551529,32.9533333 C112.882197,32.5933315 113.306193,32.4133333 113.823529,32.4133333 C114.410199,32.4133333 114.804861,32.615998 115.007529,33.0213333 L115.007529,32.4853333 L115.751529,32.4853333 L115.751529,36.0453333 C115.751529,36.3013346 115.718196,36.5399989 115.651529,36.7613333 C115.584862,36.9826678 115.47953,37.1866657 115.335529,37.3733333 C115.191528,37.5600009 114.990197,37.7066661 114.731529,37.8133333 C114.472861,37.9200005 114.170198,37.9733333 113.823529,37.9733333 C113.34886,37.9733333 112.946197,37.838668 112.615529,37.5693333 C112.284861,37.2999987 112.095529,36.9573354 112.047529,36.5413333 Z M113.935529,35.5173333 C114.260864,35.5173333 114.524861,35.4040011 114.727529,35.1773333 C114.930197,34.9506655 115.031529,34.6533352 115.031529,34.2853333 C115.031529,33.9173315 114.930197,33.6200011 114.727529,33.3933333 C114.524861,33.1666655 114.260864,33.0533333 113.935529,33.0533333 C113.604861,33.0533333 113.336863,33.1653322 113.131529,33.3893333 C112.926195,33.6133345 112.823529,33.9119981 112.823529,34.2853333 C112.823529,34.6640019 112.923528,34.9639989 113.123529,35.1853333 C113.323529,35.4066678 113.594194,35.5173333 113.935529,35.5173333 Z M118.12,30.6613333 L117.92,34.7093333 L117.384,34.7093333 L117.176,30.6613333 L118.12,30.6613333 Z M117.28,36.2213333 C117.178666,36.1199995 117.128,35.9973341 117.128,35.8533333 C117.128,35.7093326 117.178666,35.5853339 117.28,35.4813333 C117.381334,35.3773328 117.503999,35.3253333 117.648,35.3253333 C117.792,35.3253333 117.915999,35.3773328 118.02,35.4813333 C118.124,35.5853339 118.176,35.7093326 118.176,35.8533333 C118.176,35.9973341 118.124,36.1199995 118.02,36.2213333 C117.915999,36.3226672 117.792,36.3733333 117.648,36.3733333 C117.503999,36.3733333 117.381334,36.3226672 117.28,36.2213333 Z" id="HarskafatHedvig!" fill="#414150" fill-rule="nonzero"></path>
                    <path d="M53.62,23 L53.03,21.38 L50.15,21.38 L49.56,23 L48.1,23 L50.82,15.91 L52.42,15.91 L55.12,23 L53.62,23 Z M51.59,17.44 L50.61,20.12 L52.57,20.12 L51.59,17.44 Z M57.24,20.17 L57.24,23 L55.91,23 L55.91,18.08 L57.2,18.08 L57.2,18.69 C57.5,18.18 58.09,17.95 58.62,17.95 C59.84,17.95 60.4,18.82 60.4,19.9 L60.4,23 L59.07,23 L59.07,20.13 C59.07,19.58 58.8,19.15 58.16,19.15 C57.58,19.15 57.24,19.6 57.24,20.17 Z M63.08,20.17 L63.08,23 L61.75,23 L61.75,18.08 L63.04,18.08 L63.04,18.69 C63.34,18.18 63.93,17.95 64.46,17.95 C65.68,17.95 66.24,18.82 66.24,19.9 L66.24,23 L64.91,23 L64.91,20.13 C64.91,19.58 64.64,19.15 64,19.15 C63.42,19.15 63.08,19.6 63.08,20.17 Z M67.29,21.66 C67.29,20.78 67.94,20.29 68.76,20.17 L69.97,19.99 C70.25,19.95 70.34,19.81 70.34,19.64 C70.34,19.29 70.07,19 69.51,19 C68.93,19 68.61,19.37 68.57,19.8 L67.39,19.55 C67.47,18.78 68.18,17.93 69.5,17.93 C71.06,17.93 71.64,18.81 71.64,19.8 L71.64,22.22 C71.64,22.48 71.67,22.83 71.7,23 L70.48,23 C70.45,22.87 70.43,22.6 70.43,22.41 C70.18,22.8 69.71,23.14 68.98,23.14 C67.93,23.14 67.29,22.43 67.29,21.66 Z M69.26,22.15 C69.82,22.15 70.34,21.88 70.34,21.01 L70.34,20.79 L69.23,20.96 C68.89,21.01 68.62,21.2 68.62,21.58 C68.62,21.87 68.83,22.15 69.26,22.15 Z" id="Anna" fill="#141033" fill-rule="nonzero"></path>
                    <rect id="Rectangle" fill-opacity="0.05" fill="#141033" x="193" y="17" width="48" height="17.6842105" rx="5.05263158"></rect>
                    <path d="M200.846737,26.9827368 L198.450526,26.9827368 L198.450526,26.2576842 L200.846737,26.2576842 L200.846737,26.9827368 Z M203.63252,29.1578947 L202.783678,29.1578947 L202.783678,25.1170526 L201.395467,25.1170526 L201.395467,24.5069474 C201.784522,24.5010526 202.111677,24.3993694 202.376941,24.2018947 C202.642206,24.0044201 202.807257,23.7465279 202.872099,23.4282105 L203.63252,23.4282105 L203.63252,29.1578947 Z M206.250303,24.4362105 C205.914302,24.7898965 205.746303,25.4088377 205.746303,26.2930526 C205.746303,27.1772676 205.914302,27.7962088 206.250303,28.1498947 C206.486094,28.3974749 206.78967,28.5212632 207.16104,28.5212632 C207.53241,28.5212632 207.835986,28.3974749 208.071777,28.1498947 C208.407779,27.7962088 208.575777,27.1772676 208.575777,26.2930526 C208.575777,25.4088377 208.407779,24.7898965 208.071777,24.4362105 C207.835986,24.1886303 207.53241,24.0648421 207.16104,24.0648421 C206.78967,24.0648421 206.486094,24.1886303 206.250303,24.4362105 Z M205.401461,28.3709474 C205.059565,27.8639975 204.888619,27.1713728 204.888619,26.2930526 C204.888619,25.4147325 205.059565,24.7221078 205.401461,24.2151579 C205.8082,23.6021022 206.394721,23.2955789 207.16104,23.2955789 C207.92736,23.2955789 208.51388,23.6021022 208.920619,24.2151579 C209.262516,24.7221078 209.433461,25.4147325 209.433461,26.2930526 C209.433461,27.1713728 209.262516,27.8639975 208.920619,28.3709474 C208.51388,28.9840031 207.92736,29.2905263 207.16104,29.2905263 C206.394721,29.2905263 205.8082,28.9840031 205.401461,28.3709474 Z M216.817659,24.9048421 L215.005028,26.6997895 L216.853028,29.1578947 L215.809659,29.1578947 L214.421449,27.2833684 L213.829028,27.8757895 L213.829028,29.1578947 L213.006712,29.1578947 L213.006712,22.7562105 L213.829028,22.7562105 L213.829028,26.7882105 L215.668186,24.9048421 L216.817659,24.9048421 Z M220.116285,24.8606316 L220.116285,25.7448421 C219.992495,25.7271578 219.871654,25.7183158 219.753758,25.7183158 C218.975649,25.7183158 218.586601,26.154522 218.586601,27.0269474 L218.586601,29.1578947 L217.755443,29.1578947 L217.755443,24.9048421 L218.568916,24.9048421 L218.568916,25.6475789 C218.828286,25.1052604 219.252703,24.8341053 219.842179,24.8341053 C219.936496,24.8341053 220.027863,24.8429473 220.116285,24.8606316 Z" id="-10kr" fill="#414150" fill-rule="nonzero"></path>
                    <circle id="Oval" fill="#1BE9B6" cx="230.894737" cy="25.8421053" r="5.05263158"></circle>
                    <polygon id="Page-1" fill="#FFFFFF" points="229.903749 27.2406968 228.505907 25.8271652 228.031579 26.3068168 229.903749 28.2 233.926316 24.1322832 233.451988 23.6526316"></polygon>
                </g>
                <g id="Discound-Tag-Copy-4" transform="translate(239.638405, 129.000000)">
                    <g id="icons/my_insurance/aktiv" transform="translate(32.842105, 3.789474)"></g>
                </g>
                <g id="Discound-Tag-Copy-5" transform="translate(239.638405, 185.000000)">
                    <g id="icons/my_insurance/aktiv" transform="translate(32.842105, 3.789474)"></g>
                </g>
            </g>
        </g>
    </g>
</svg>